%TF.GenerationSoftware,KiCad,Pcbnew,5.1.7-a382d34a8~87~ubuntu20.04.1*%
%TF.CreationDate,2020-11-05T15:53:10+05:30*%
%TF.ProjectId,halo,68616c6f-2e6b-4696-9361-645f70636258,v1*%
%TF.SameCoordinates,Original*%
%TF.FileFunction,Copper,L2,Bot*%
%TF.FilePolarity,Positive*%
%FSLAX46Y46*%
G04 Gerber Fmt 4.6, Leading zero omitted, Abs format (unit mm)*
G04 Created by KiCad (PCBNEW 5.1.7-a382d34a8~87~ubuntu20.04.1) date 2020-11-05 15:53:10*
%MOMM*%
%LPD*%
G01*
G04 APERTURE LIST*
%TA.AperFunction,Profile*%
%ADD10C,0.050000*%
%TD*%
%TA.AperFunction,ComponentPad*%
%ADD11C,6.400000*%
%TD*%
%TA.AperFunction,ComponentPad*%
%ADD12C,0.800000*%
%TD*%
%TA.AperFunction,ViaPad*%
%ADD13C,0.800000*%
%TD*%
%TA.AperFunction,Conductor*%
%ADD14C,0.254000*%
%TD*%
%TA.AperFunction,Conductor*%
%ADD15C,0.635000*%
%TD*%
%TA.AperFunction,Conductor*%
%ADD16C,0.100000*%
%TD*%
G04 APERTURE END LIST*
D10*
X73431896Y-62496118D02*
G75*
G02*
X120707642Y-53928265I66269656J-230949950D01*
G01*
X121541768Y-54762400D02*
G75*
G03*
X120707642Y-53928265I-834135J0D01*
G01*
X132715000Y-55245000D02*
G75*
G03*
X133477000Y-54483000I0J762000D01*
G01*
X132715000Y-55245000D02*
X122157808Y-55243390D01*
X134620000Y-53233692D02*
G75*
G03*
X133477000Y-54376692I0J-1143000D01*
G01*
X121541768Y-54762400D02*
G75*
G03*
X122157808Y-55243390I616040J154010D01*
G01*
X133477000Y-54483000D02*
X133477000Y-54376692D01*
X139700000Y-53180000D02*
G75*
G03*
X134620000Y-53233692I0J-240347211D01*
G01*
X145923000Y-54483000D02*
X145923000Y-54376692D01*
X157858232Y-54762400D02*
G75*
G02*
X158692358Y-53928265I834135J0D01*
G01*
X158692358Y-53928264D02*
G75*
G02*
X205969205Y-62493874I-18992358J-239578255D01*
G01*
X144780000Y-53233692D02*
G75*
G02*
X145923000Y-54376692I0J-1143000D01*
G01*
X139700000Y-53180000D02*
G75*
G02*
X144780000Y-53233692I0J-240347211D01*
G01*
X146685000Y-55245000D02*
G75*
G02*
X145923000Y-54483000I0J762000D01*
G01*
X157858232Y-54762400D02*
G75*
G02*
X157242192Y-55243390I-616040J154010D01*
G01*
X146685000Y-55245000D02*
X157242192Y-55243390D01*
X205969205Y-62493874D02*
G75*
G02*
X266571000Y-98721000I-37916205J-132229126D01*
G01*
X266571000Y-98721000D02*
X266571000Y-104479000D01*
X266571256Y-104479861D02*
G75*
G02*
X205969000Y-140707000I-98518256J96002861D01*
G01*
X205968733Y-140706537D02*
G75*
G02*
X139700000Y-150020000I-66268733J231106537D01*
G01*
X12828744Y-98720139D02*
G75*
G02*
X73431000Y-62493000I98518256J-96002861D01*
G01*
X139699871Y-150020519D02*
G75*
G02*
X73431000Y-140707000I129J240420519D01*
G01*
X12829000Y-98721000D02*
X12829000Y-104479000D01*
X73430795Y-140706126D02*
G75*
G02*
X12829000Y-104479000I37916205J132229126D01*
G01*
X89831000Y-134459000D02*
G75*
G03*
X89831000Y-134459000I-1717000J0D01*
G01*
X26734000Y-111075000D02*
G75*
G03*
X26734000Y-111075000I-1717000J0D01*
G01*
X141091000Y-145758000D02*
X138309000Y-145758000D01*
X138309000Y-145758000D02*
X138309000Y-148540000D01*
X138309000Y-148540000D02*
X141091000Y-148540000D01*
X141091000Y-148540000D02*
X141091000Y-145758000D01*
X193002000Y-134459000D02*
G75*
G03*
X193002000Y-134459000I-1716000J0D01*
G01*
X256100000Y-111075000D02*
G75*
G03*
X256100000Y-111075000I-1717000J0D01*
G01*
X26734000Y-92125000D02*
G75*
G03*
X26734000Y-92125000I-1717000J0D01*
G01*
X89831000Y-68741000D02*
G75*
G03*
X89831000Y-68741000I-1717000J0D01*
G01*
X256100000Y-92125000D02*
G75*
G03*
X256100000Y-92125000I-1717000J0D01*
G01*
X193002000Y-68741000D02*
G75*
G03*
X193002000Y-68741000I-1716000J0D01*
G01*
X141091000Y-54660000D02*
X138309000Y-54660000D01*
X138309000Y-54660000D02*
X138309000Y-57442000D01*
X138309000Y-57442000D02*
X141091000Y-57442000D01*
X141091000Y-57442000D02*
X141091000Y-54660000D01*
D11*
%TO.P,SC1,1*%
%TO.N,N/C*%
X25017000Y-92125000D03*
D12*
X27417000Y-92125000D03*
X26714056Y-93822056D03*
X25017000Y-94525000D03*
X23319944Y-93822056D03*
X22617000Y-92125000D03*
X23319944Y-90427944D03*
X25017000Y-89725000D03*
X26714056Y-90427944D03*
%TD*%
D11*
%TO.P,SC2,1*%
%TO.N,N/C*%
X88114000Y-68741000D03*
D12*
X90514000Y-68741000D03*
X89811056Y-70438056D03*
X88114000Y-71141000D03*
X86416944Y-70438056D03*
X85714000Y-68741000D03*
X86416944Y-67043944D03*
X88114000Y-66341000D03*
X89811056Y-67043944D03*
%TD*%
D11*
%TO.P,SC3,1*%
%TO.N,N/C*%
X191286000Y-68741000D03*
D12*
X193686000Y-68741000D03*
X192983056Y-70438056D03*
X191286000Y-71141000D03*
X189588944Y-70438056D03*
X188886000Y-68741000D03*
X189588944Y-67043944D03*
X191286000Y-66341000D03*
X192983056Y-67043944D03*
%TD*%
D11*
%TO.P,SC4,1*%
%TO.N,N/C*%
X254383000Y-92125000D03*
D12*
X256783000Y-92125000D03*
X256080056Y-93822056D03*
X254383000Y-94525000D03*
X252685944Y-93822056D03*
X251983000Y-92125000D03*
X252685944Y-90427944D03*
X254383000Y-89725000D03*
X256080056Y-90427944D03*
%TD*%
D11*
%TO.P,SC5,1*%
%TO.N,N/C*%
X254383000Y-111075000D03*
D12*
X256783000Y-111075000D03*
X256080056Y-112772056D03*
X254383000Y-113475000D03*
X252685944Y-112772056D03*
X251983000Y-111075000D03*
X252685944Y-109377944D03*
X254383000Y-108675000D03*
X256080056Y-109377944D03*
%TD*%
D11*
%TO.P,SC6,1*%
%TO.N,N/C*%
X191286000Y-134459000D03*
D12*
X193686000Y-134459000D03*
X192983056Y-136156056D03*
X191286000Y-136859000D03*
X189588944Y-136156056D03*
X188886000Y-134459000D03*
X189588944Y-132761944D03*
X191286000Y-132059000D03*
X192983056Y-132761944D03*
%TD*%
D11*
%TO.P,SC7,1*%
%TO.N,N/C*%
X88114000Y-134459000D03*
D12*
X90514000Y-134459000D03*
X89811056Y-136156056D03*
X88114000Y-136859000D03*
X86416944Y-136156056D03*
X85714000Y-134459000D03*
X86416944Y-132761944D03*
X88114000Y-132059000D03*
X89811056Y-132761944D03*
%TD*%
D11*
%TO.P,SC8,1*%
%TO.N,N/C*%
X25017000Y-111075000D03*
D12*
X27417000Y-111075000D03*
X26714056Y-112772056D03*
X25017000Y-113475000D03*
X23319944Y-112772056D03*
X22617000Y-111075000D03*
X23319944Y-109377944D03*
X25017000Y-108675000D03*
X26714056Y-109377944D03*
%TD*%
D13*
%TO.N,GND*%
X123698000Y-87325200D03*
X125095000Y-85369400D03*
X193040000Y-77216000D03*
X30810200Y-97790000D03*
X38430200Y-97790000D03*
X46075600Y-97790000D03*
X53670200Y-97790000D03*
X61290200Y-97790000D03*
X68910200Y-97790000D03*
X76530200Y-97790000D03*
X84150200Y-97790000D03*
X91770200Y-97790000D03*
X99390200Y-97790000D03*
X107010200Y-97790000D03*
X114630200Y-97790000D03*
X122250200Y-97790000D03*
X129870200Y-97790000D03*
X137515600Y-97790000D03*
X145110200Y-97790000D03*
X152755600Y-97790000D03*
X160350200Y-97790000D03*
X167970200Y-97790000D03*
X175590200Y-97790000D03*
X183210200Y-97790000D03*
X190830200Y-97790000D03*
X198450200Y-97790000D03*
X206095600Y-97790000D03*
X213690200Y-97790000D03*
X221310200Y-97790000D03*
X228930200Y-97790000D03*
X236550200Y-97790000D03*
X244170200Y-97790000D03*
X251790200Y-97790000D03*
X230632000Y-92710000D03*
X210693000Y-87122000D03*
X191262000Y-89535000D03*
X198983600Y-75514200D03*
X179679600Y-65532000D03*
X58039000Y-93802200D03*
X259461000Y-97790000D03*
X24282400Y-99161600D03*
X120015000Y-58851800D03*
X119989600Y-64947800D03*
X121818400Y-56845200D03*
X121793000Y-66954400D03*
X149885400Y-139522200D03*
X196149000Y-93660000D03*
X199959000Y-93660000D03*
X198104800Y-93660000D03*
X195732400Y-89992200D03*
X167970200Y-79730600D03*
X175920400Y-79756000D03*
X180594000Y-92735400D03*
X178054000Y-92735400D03*
X197154800Y-73482200D03*
X107188000Y-79502000D03*
X109474000Y-79502000D03*
X217220800Y-84277200D03*
X42672000Y-112014000D03*
X81280000Y-112014000D03*
X118872000Y-112014000D03*
X156972000Y-112039400D03*
X195326000Y-112039400D03*
X233172000Y-112039400D03*
X143510000Y-127660400D03*
X143510000Y-124460000D03*
X143510000Y-121259600D03*
X54737000Y-93802200D03*
X223799400Y-92710000D03*
X179679600Y-68834000D03*
X177292000Y-65532000D03*
X145034000Y-61214000D03*
X156819600Y-75184000D03*
X156819600Y-73914000D03*
X156819600Y-76454000D03*
X184429400Y-94843601D03*
X185801000Y-94843604D03*
X183007000Y-94843600D03*
X120206800Y-85866000D03*
X108153200Y-86550500D03*
X110807500Y-86550500D03*
X158750000Y-61214000D03*
X158750000Y-64770000D03*
X142748000Y-65024000D03*
X145034000Y-65024000D03*
X177241200Y-70205600D03*
X191840000Y-83165800D03*
X192640000Y-82365800D03*
X193446400Y-85598000D03*
X191871600Y-85598000D03*
X166624000Y-81000600D03*
X177304700Y-80987900D03*
%TO.N,/RESET*%
X190576200Y-83667600D03*
X203123800Y-85979000D03*
X179527200Y-79654400D03*
X167982900Y-77851000D03*
%TO.N,/Vusb*%
X156083000Y-63500000D03*
X147446993Y-63500007D03*
X148589993Y-63500007D03*
X147447000Y-64643000D03*
X157226000Y-64643000D03*
X157226000Y-63500000D03*
%TO.N,/D+*%
X150749000Y-65405000D03*
X152908000Y-65405038D03*
%TO.N,/D-*%
X150749000Y-66929000D03*
X152908002Y-66929000D03*
%TO.N,/SDA*%
X183794400Y-80238600D03*
X172415200Y-114808000D03*
%TO.N,/SCL*%
X183819800Y-84988400D03*
X173278800Y-113817400D03*
%TO.N,/D4_MODE*%
X189987418Y-89352618D03*
X189509400Y-113512600D03*
%TO.N,/DAT*%
X29210000Y-101600000D03*
X21590000Y-101600000D03*
%TD*%
D14*
%TO.N,/RESET*%
X201422000Y-84277200D02*
X203123800Y-85979000D01*
X191185800Y-84277200D02*
X201422000Y-84277200D01*
X190576200Y-83667600D02*
X191185800Y-84277200D01*
X190576200Y-79629000D02*
X190576200Y-83667600D01*
X188798200Y-77851000D02*
X190576200Y-79629000D01*
X179527200Y-77851000D02*
X188798200Y-77851000D01*
X179527200Y-79654400D02*
X179527200Y-77851000D01*
X179527200Y-77851000D02*
X167982900Y-77851000D01*
D15*
%TO.N,/Vusb*%
X147446993Y-63500007D02*
X148589993Y-63500007D01*
X155422600Y-62839600D02*
X156083000Y-63500000D01*
X149250400Y-62839600D02*
X155422600Y-62839600D01*
X148589993Y-63500007D02*
X149250400Y-62839600D01*
X147446986Y-63500000D02*
X147446993Y-63500007D01*
X147447000Y-64643000D02*
X147446986Y-63500000D01*
X157226000Y-63500000D02*
X157226000Y-64643000D01*
X156083000Y-63500000D02*
X157226000Y-63500000D01*
D14*
%TO.N,/D+*%
X150749000Y-65405000D02*
X152907962Y-65405000D01*
X152907962Y-65405000D02*
X152908000Y-65405038D01*
%TO.N,/D-*%
X150749000Y-66929000D02*
X152908002Y-66929000D01*
%TO.N,/SDA*%
X181660800Y-82372200D02*
X183794400Y-80238600D01*
X175742600Y-82372200D02*
X181660800Y-82372200D01*
X172415200Y-85699600D02*
X175742600Y-82372200D01*
X172415200Y-114808000D02*
X172415200Y-85699600D01*
%TO.N,/SCL*%
X181889400Y-83058000D02*
X183819800Y-84988400D01*
X176022000Y-83058000D02*
X181889400Y-83058000D01*
X173278800Y-85801200D02*
X176022000Y-83058000D01*
X173278800Y-113817400D02*
X173278800Y-85801200D01*
%TO.N,/D4_MODE*%
X189509400Y-89830636D02*
X189987418Y-89352618D01*
X189509400Y-113512600D02*
X189509400Y-89830636D01*
%TO.N,/DAT*%
X29210000Y-101600000D02*
X21590000Y-101600000D01*
%TD*%
%TO.N,GND*%
X144744243Y-53893351D02*
X144873202Y-53905995D01*
X144962849Y-53933062D01*
X145045537Y-53977027D01*
X145118106Y-54036214D01*
X145177804Y-54108376D01*
X145222341Y-54190746D01*
X145250034Y-54280207D01*
X145263000Y-54403570D01*
X145263000Y-54515418D01*
X145265767Y-54543515D01*
X145265735Y-54548137D01*
X145266635Y-54557309D01*
X145282180Y-54705210D01*
X145294203Y-54763780D01*
X145305416Y-54822563D01*
X145308079Y-54831385D01*
X145352055Y-54973452D01*
X145375240Y-55028607D01*
X145397645Y-55084062D01*
X145401972Y-55092199D01*
X145472705Y-55223017D01*
X145506151Y-55272603D01*
X145538911Y-55322665D01*
X145544735Y-55329806D01*
X145639532Y-55444394D01*
X145681947Y-55486514D01*
X145723829Y-55529283D01*
X145730930Y-55535157D01*
X145846177Y-55629149D01*
X145895967Y-55662229D01*
X145945357Y-55696048D01*
X145953464Y-55700431D01*
X146084772Y-55770249D01*
X146140054Y-55793034D01*
X146195059Y-55816610D01*
X146203862Y-55819335D01*
X146346231Y-55862318D01*
X146404893Y-55873934D01*
X146463424Y-55886375D01*
X146472585Y-55887338D01*
X146472589Y-55887338D01*
X146620596Y-55901850D01*
X146620608Y-55901850D01*
X146652682Y-55905004D01*
X157274711Y-55903385D01*
X157299764Y-55900914D01*
X157389370Y-55894047D01*
X157441402Y-55884889D01*
X157493728Y-55877569D01*
X157502671Y-55875345D01*
X157622727Y-55844601D01*
X157678935Y-55824183D01*
X157735458Y-55804540D01*
X157743798Y-55800621D01*
X157855596Y-55747143D01*
X157906741Y-55716212D01*
X157958394Y-55685952D01*
X157965814Y-55680488D01*
X158065096Y-55606314D01*
X158109303Y-55565999D01*
X158154055Y-55526317D01*
X158160273Y-55519516D01*
X158243258Y-55427470D01*
X158278789Y-55379341D01*
X158314982Y-55331721D01*
X158319761Y-55323841D01*
X158383285Y-55217430D01*
X158408766Y-55163368D01*
X158435048Y-55109570D01*
X158438204Y-55100912D01*
X158479850Y-54984189D01*
X158482704Y-54972775D01*
X158487337Y-54961964D01*
X158498300Y-54910389D01*
X158511091Y-54859225D01*
X158511673Y-54847476D01*
X158514119Y-54835969D01*
X158515082Y-54826805D01*
X158524653Y-54729193D01*
X158534297Y-54697249D01*
X158549962Y-54667788D01*
X158571053Y-54641928D01*
X158596760Y-54620661D01*
X158626115Y-54604789D01*
X158657991Y-54594921D01*
X158693791Y-54591159D01*
X164471893Y-55120321D01*
X170288775Y-55796711D01*
X176087444Y-56615025D01*
X181864333Y-57574760D01*
X187616071Y-58675354D01*
X193339197Y-59916146D01*
X199030310Y-61296398D01*
X204689136Y-62816127D01*
X205782776Y-63127027D01*
X210129566Y-64451831D01*
X214425571Y-65918500D01*
X218670621Y-67526809D01*
X222860016Y-69274980D01*
X226989126Y-71161082D01*
X231053420Y-73183041D01*
X235048498Y-75338671D01*
X238969871Y-77625553D01*
X242813266Y-80041191D01*
X246574449Y-82582923D01*
X250249293Y-85247961D01*
X253833795Y-88033404D01*
X254142318Y-88290000D01*
X254005285Y-88290000D01*
X253264372Y-88437377D01*
X252566446Y-88726467D01*
X251938330Y-89146161D01*
X251404161Y-89680330D01*
X250984467Y-90308446D01*
X250695377Y-91006372D01*
X250548000Y-91747285D01*
X250548000Y-92502715D01*
X250695377Y-93243628D01*
X250984467Y-93941554D01*
X251404161Y-94569670D01*
X251938330Y-95103839D01*
X252566446Y-95523533D01*
X253264372Y-95812623D01*
X254005285Y-95960000D01*
X254760715Y-95960000D01*
X255501628Y-95812623D01*
X256199554Y-95523533D01*
X256827670Y-95103839D01*
X257361839Y-94569670D01*
X257781533Y-93941554D01*
X258070623Y-93243628D01*
X258218000Y-92502715D01*
X258218000Y-91747285D01*
X258214140Y-91727880D01*
X260715928Y-93952982D01*
X264007404Y-97081945D01*
X265911000Y-98993568D01*
X265911001Y-104205321D01*
X262876884Y-107217368D01*
X259550976Y-110307004D01*
X258214957Y-111468013D01*
X258218000Y-111452715D01*
X258218000Y-110697285D01*
X258070623Y-109956372D01*
X257781533Y-109258446D01*
X257361839Y-108630330D01*
X256827670Y-108096161D01*
X256199554Y-107676467D01*
X255501628Y-107387377D01*
X254760715Y-107240000D01*
X254005285Y-107240000D01*
X253264372Y-107387377D01*
X252566446Y-107676467D01*
X251938330Y-108096161D01*
X251404161Y-108630330D01*
X250984467Y-109258446D01*
X250695377Y-109956372D01*
X250548000Y-110697285D01*
X250548000Y-111452715D01*
X250695377Y-112193628D01*
X250984467Y-112891554D01*
X251404161Y-113519670D01*
X251938330Y-114053839D01*
X252566446Y-114473533D01*
X253264372Y-114762623D01*
X254005285Y-114910000D01*
X254123837Y-114910000D01*
X252601154Y-116147047D01*
X248984869Y-118891048D01*
X245279560Y-121513665D01*
X241489363Y-124011973D01*
X237618426Y-126383238D01*
X233670948Y-128624885D01*
X229651329Y-130734414D01*
X225564017Y-132709493D01*
X221413471Y-134547970D01*
X217204188Y-136247850D01*
X212940928Y-137807210D01*
X208626495Y-139224962D01*
X205804836Y-140067226D01*
X205803482Y-140067559D01*
X205794577Y-140069929D01*
X200136135Y-141617904D01*
X194449386Y-143025232D01*
X188729969Y-144293196D01*
X182981260Y-145421048D01*
X177206730Y-146408107D01*
X171409796Y-147253787D01*
X165593935Y-147957584D01*
X159762619Y-148519077D01*
X153919279Y-148937932D01*
X148067510Y-149213896D01*
X142208420Y-149346857D01*
X139696544Y-149360009D01*
X139682383Y-149360256D01*
X133842001Y-149288896D01*
X127987618Y-149074222D01*
X122140253Y-148716579D01*
X116303335Y-148216174D01*
X110480433Y-147573317D01*
X104674927Y-146788379D01*
X98890351Y-145861836D01*
X98330104Y-145758000D01*
X137645807Y-145758000D01*
X137649000Y-145790420D01*
X137649001Y-148507571D01*
X137645807Y-148540000D01*
X137658550Y-148669383D01*
X137696290Y-148793793D01*
X137757575Y-148908450D01*
X137840052Y-149008948D01*
X137940550Y-149091425D01*
X138055207Y-149152710D01*
X138179617Y-149190450D01*
X138276581Y-149200000D01*
X138309000Y-149203193D01*
X138341419Y-149200000D01*
X141058581Y-149200000D01*
X141091000Y-149203193D01*
X141123419Y-149200000D01*
X141220383Y-149190450D01*
X141344793Y-149152710D01*
X141459450Y-149091425D01*
X141559948Y-149008948D01*
X141642425Y-148908450D01*
X141703710Y-148793793D01*
X141741450Y-148669383D01*
X141754193Y-148540000D01*
X141751000Y-148507581D01*
X141751000Y-145790419D01*
X141754193Y-145758000D01*
X141741450Y-145628617D01*
X141703710Y-145504207D01*
X141642425Y-145389550D01*
X141559948Y-145289052D01*
X141459450Y-145206575D01*
X141344793Y-145145290D01*
X141220383Y-145107550D01*
X141123419Y-145098000D01*
X141091000Y-145094807D01*
X141058581Y-145098000D01*
X138341419Y-145098000D01*
X138309000Y-145094807D01*
X138276581Y-145098000D01*
X138179617Y-145107550D01*
X138055207Y-145145290D01*
X137940550Y-145206575D01*
X137840052Y-145289052D01*
X137757575Y-145389550D01*
X137696290Y-145504207D01*
X137658550Y-145628617D01*
X137645807Y-145758000D01*
X98330104Y-145758000D01*
X93130165Y-144794246D01*
X87397753Y-143586234D01*
X81696577Y-142238530D01*
X76027743Y-140751336D01*
X76026915Y-140751103D01*
X132397500Y-140751103D01*
X132397500Y-141188897D01*
X132482909Y-141618279D01*
X132650446Y-142022749D01*
X132893671Y-142386761D01*
X133203239Y-142696329D01*
X133567251Y-142939554D01*
X133971721Y-143107091D01*
X134401103Y-143192500D01*
X134838897Y-143192500D01*
X135268279Y-143107091D01*
X135672749Y-142939554D01*
X136036761Y-142696329D01*
X136346329Y-142386761D01*
X136589554Y-142022749D01*
X136757091Y-141618279D01*
X136842500Y-141188897D01*
X136842500Y-140751103D01*
X142557500Y-140751103D01*
X142557500Y-141188897D01*
X142642909Y-141618279D01*
X142810446Y-142022749D01*
X143053671Y-142386761D01*
X143363239Y-142696329D01*
X143727251Y-142939554D01*
X144131721Y-143107091D01*
X144561103Y-143192500D01*
X144998897Y-143192500D01*
X145428279Y-143107091D01*
X145832749Y-142939554D01*
X146196761Y-142696329D01*
X146506329Y-142386761D01*
X146749554Y-142022749D01*
X146917091Y-141618279D01*
X147002500Y-141188897D01*
X147002500Y-140751103D01*
X146917091Y-140321721D01*
X146749554Y-139917251D01*
X146506329Y-139553239D01*
X146196761Y-139243671D01*
X145832749Y-139000446D01*
X145428279Y-138832909D01*
X144998897Y-138747500D01*
X144561103Y-138747500D01*
X144131721Y-138832909D01*
X143727251Y-139000446D01*
X143363239Y-139243671D01*
X143053671Y-139553239D01*
X142810446Y-139917251D01*
X142642909Y-140321721D01*
X142557500Y-140751103D01*
X136842500Y-140751103D01*
X136757091Y-140321721D01*
X136589554Y-139917251D01*
X136346329Y-139553239D01*
X136036761Y-139243671D01*
X135672749Y-139000446D01*
X135268279Y-138832909D01*
X134838897Y-138747500D01*
X134401103Y-138747500D01*
X133971721Y-138832909D01*
X133567251Y-139000446D01*
X133203239Y-139243671D01*
X132893671Y-139553239D01*
X132650446Y-139917251D01*
X132482909Y-140321721D01*
X132397500Y-140751103D01*
X76026915Y-140751103D01*
X73639791Y-140080111D01*
X73638577Y-140079686D01*
X73623210Y-140074797D01*
X69270434Y-138748169D01*
X64974429Y-137281500D01*
X60729369Y-135673187D01*
X56914465Y-134081285D01*
X84279000Y-134081285D01*
X84279000Y-134836715D01*
X84426377Y-135577628D01*
X84715467Y-136275554D01*
X85135161Y-136903670D01*
X85669330Y-137437839D01*
X86297446Y-137857533D01*
X86995372Y-138146623D01*
X87736285Y-138294000D01*
X88491715Y-138294000D01*
X89232628Y-138146623D01*
X89930554Y-137857533D01*
X90558670Y-137437839D01*
X91092839Y-136903670D01*
X91512533Y-136275554D01*
X91801623Y-135577628D01*
X91949000Y-134836715D01*
X91949000Y-134081285D01*
X187451000Y-134081285D01*
X187451000Y-134836715D01*
X187598377Y-135577628D01*
X187887467Y-136275554D01*
X188307161Y-136903670D01*
X188841330Y-137437839D01*
X189469446Y-137857533D01*
X190167372Y-138146623D01*
X190908285Y-138294000D01*
X191663715Y-138294000D01*
X192404628Y-138146623D01*
X193102554Y-137857533D01*
X193730670Y-137437839D01*
X194264839Y-136903670D01*
X194684533Y-136275554D01*
X194973623Y-135577628D01*
X195121000Y-134836715D01*
X195121000Y-134081285D01*
X194973623Y-133340372D01*
X194684533Y-132642446D01*
X194264839Y-132014330D01*
X193730670Y-131480161D01*
X193102554Y-131060467D01*
X192404628Y-130771377D01*
X191663715Y-130624000D01*
X190908285Y-130624000D01*
X190167372Y-130771377D01*
X189469446Y-131060467D01*
X188841330Y-131480161D01*
X188307161Y-132014330D01*
X187887467Y-132642446D01*
X187598377Y-133340372D01*
X187451000Y-134081285D01*
X91949000Y-134081285D01*
X91801623Y-133340372D01*
X91512533Y-132642446D01*
X91092839Y-132014330D01*
X90558670Y-131480161D01*
X89930554Y-131060467D01*
X89232628Y-130771377D01*
X88491715Y-130624000D01*
X87736285Y-130624000D01*
X86995372Y-130771377D01*
X86297446Y-131060467D01*
X85669330Y-131480161D01*
X85135161Y-132014330D01*
X84715467Y-132642446D01*
X84426377Y-133340372D01*
X84279000Y-134081285D01*
X56914465Y-134081285D01*
X56539984Y-133925020D01*
X52410874Y-132038919D01*
X48346544Y-130016941D01*
X44351490Y-127861322D01*
X40430142Y-125574455D01*
X36586734Y-123158809D01*
X32825551Y-120617077D01*
X29150693Y-117952028D01*
X25566205Y-115166596D01*
X25257682Y-114910000D01*
X25394715Y-114910000D01*
X26135628Y-114762623D01*
X26272180Y-114706061D01*
X171380200Y-114706061D01*
X171380200Y-114909939D01*
X171419974Y-115109898D01*
X171497995Y-115298256D01*
X171611263Y-115467774D01*
X171755426Y-115611937D01*
X171924944Y-115725205D01*
X172113302Y-115803226D01*
X172313261Y-115843000D01*
X172517139Y-115843000D01*
X172717098Y-115803226D01*
X172905456Y-115725205D01*
X173074974Y-115611937D01*
X173219137Y-115467774D01*
X173332405Y-115298256D01*
X173410426Y-115109898D01*
X173450200Y-114909939D01*
X173450200Y-114838583D01*
X173580698Y-114812626D01*
X173769056Y-114734605D01*
X173938574Y-114621337D01*
X174082737Y-114477174D01*
X174196005Y-114307656D01*
X174274026Y-114119298D01*
X174313800Y-113919339D01*
X174313800Y-113715461D01*
X174274026Y-113515502D01*
X174230600Y-113410661D01*
X188474400Y-113410661D01*
X188474400Y-113614539D01*
X188514174Y-113814498D01*
X188592195Y-114002856D01*
X188705463Y-114172374D01*
X188849626Y-114316537D01*
X189019144Y-114429805D01*
X189207502Y-114507826D01*
X189407461Y-114547600D01*
X189611339Y-114547600D01*
X189811298Y-114507826D01*
X189999656Y-114429805D01*
X190169174Y-114316537D01*
X190313337Y-114172374D01*
X190426605Y-114002856D01*
X190504626Y-113814498D01*
X190544400Y-113614539D01*
X190544400Y-113410661D01*
X190504626Y-113210702D01*
X190426605Y-113022344D01*
X190313337Y-112852826D01*
X190271400Y-112810889D01*
X190271400Y-90351408D01*
X190289316Y-90347844D01*
X190477674Y-90269823D01*
X190647192Y-90156555D01*
X190791355Y-90012392D01*
X190904623Y-89842874D01*
X190982644Y-89654516D01*
X191022418Y-89454557D01*
X191022418Y-89250679D01*
X190982644Y-89050720D01*
X190904623Y-88862362D01*
X190791355Y-88692844D01*
X190647192Y-88548681D01*
X190477674Y-88435413D01*
X190289316Y-88357392D01*
X190089357Y-88317618D01*
X189885479Y-88317618D01*
X189685520Y-88357392D01*
X189497162Y-88435413D01*
X189327644Y-88548681D01*
X189183481Y-88692844D01*
X189070213Y-88862362D01*
X188992192Y-89050720D01*
X188952418Y-89250679D01*
X188952418Y-89308175D01*
X188944122Y-89318284D01*
X188944121Y-89318285D01*
X188872755Y-89405244D01*
X188801999Y-89537621D01*
X188758427Y-89681258D01*
X188743714Y-89830636D01*
X188747401Y-89868069D01*
X188747400Y-112810889D01*
X188705463Y-112852826D01*
X188592195Y-113022344D01*
X188514174Y-113210702D01*
X188474400Y-113410661D01*
X174230600Y-113410661D01*
X174196005Y-113327144D01*
X174082737Y-113157626D01*
X174040800Y-113115689D01*
X174040800Y-86116830D01*
X176337630Y-83820000D01*
X181573770Y-83820000D01*
X182784800Y-85031031D01*
X182784800Y-85090339D01*
X182824574Y-85290298D01*
X182902595Y-85478656D01*
X183015863Y-85648174D01*
X183160026Y-85792337D01*
X183329544Y-85905605D01*
X183517902Y-85983626D01*
X183717861Y-86023400D01*
X183921739Y-86023400D01*
X184121698Y-85983626D01*
X184310056Y-85905605D01*
X184479574Y-85792337D01*
X184623737Y-85648174D01*
X184737005Y-85478656D01*
X184815026Y-85290298D01*
X184854800Y-85090339D01*
X184854800Y-84886461D01*
X184815026Y-84686502D01*
X184737005Y-84498144D01*
X184623737Y-84328626D01*
X184479574Y-84184463D01*
X184310056Y-84071195D01*
X184121698Y-83993174D01*
X183921739Y-83953400D01*
X183862431Y-83953400D01*
X182509830Y-82600800D01*
X183837031Y-81273600D01*
X183896339Y-81273600D01*
X184096298Y-81233826D01*
X184284656Y-81155805D01*
X184454174Y-81042537D01*
X184598337Y-80898374D01*
X184711605Y-80728856D01*
X184789626Y-80540498D01*
X184829400Y-80340539D01*
X184829400Y-80136661D01*
X184789626Y-79936702D01*
X184711605Y-79748344D01*
X184598337Y-79578826D01*
X184454174Y-79434663D01*
X184284656Y-79321395D01*
X184096298Y-79243374D01*
X183896339Y-79203600D01*
X183692461Y-79203600D01*
X183492502Y-79243374D01*
X183304144Y-79321395D01*
X183134626Y-79434663D01*
X182990463Y-79578826D01*
X182877195Y-79748344D01*
X182799174Y-79936702D01*
X182759400Y-80136661D01*
X182759400Y-80195969D01*
X181345170Y-81610200D01*
X175780022Y-81610200D01*
X175742599Y-81606514D01*
X175705176Y-81610200D01*
X175705174Y-81610200D01*
X175593222Y-81621226D01*
X175449585Y-81664798D01*
X175449583Y-81664799D01*
X175435226Y-81672473D01*
X175317208Y-81735555D01*
X175201178Y-81830778D01*
X175177321Y-81859848D01*
X171902849Y-85134321D01*
X171873779Y-85158178D01*
X171849922Y-85187248D01*
X171849921Y-85187249D01*
X171778555Y-85274208D01*
X171707799Y-85406585D01*
X171664227Y-85550222D01*
X171649514Y-85699600D01*
X171653201Y-85737033D01*
X171653200Y-114106289D01*
X171611263Y-114148226D01*
X171497995Y-114317744D01*
X171419974Y-114506102D01*
X171380200Y-114706061D01*
X26272180Y-114706061D01*
X26833554Y-114473533D01*
X27461670Y-114053839D01*
X27995839Y-113519670D01*
X28415533Y-112891554D01*
X28704623Y-112193628D01*
X28852000Y-111452715D01*
X28852000Y-110697285D01*
X28704623Y-109956372D01*
X28415533Y-109258446D01*
X27995839Y-108630330D01*
X27461670Y-108096161D01*
X26833554Y-107676467D01*
X26135628Y-107387377D01*
X25394715Y-107240000D01*
X24639285Y-107240000D01*
X23898372Y-107387377D01*
X23200446Y-107676467D01*
X22572330Y-108096161D01*
X22038161Y-108630330D01*
X21618467Y-109258446D01*
X21329377Y-109956372D01*
X21182000Y-110697285D01*
X21182000Y-111452715D01*
X21185860Y-111472120D01*
X18684071Y-109247016D01*
X15392577Y-106118038D01*
X13489000Y-104206432D01*
X13489000Y-101498061D01*
X20555000Y-101498061D01*
X20555000Y-101701939D01*
X20594774Y-101901898D01*
X20672795Y-102090256D01*
X20786063Y-102259774D01*
X20930226Y-102403937D01*
X21099744Y-102517205D01*
X21288102Y-102595226D01*
X21488061Y-102635000D01*
X21691939Y-102635000D01*
X21891898Y-102595226D01*
X22080256Y-102517205D01*
X22249774Y-102403937D01*
X22291711Y-102362000D01*
X28508289Y-102362000D01*
X28550226Y-102403937D01*
X28719744Y-102517205D01*
X28908102Y-102595226D01*
X29108061Y-102635000D01*
X29311939Y-102635000D01*
X29511898Y-102595226D01*
X29700256Y-102517205D01*
X29869774Y-102403937D01*
X30013937Y-102259774D01*
X30127205Y-102090256D01*
X30205226Y-101901898D01*
X30245000Y-101701939D01*
X30245000Y-101498061D01*
X30205226Y-101298102D01*
X30127205Y-101109744D01*
X30013937Y-100940226D01*
X29869774Y-100796063D01*
X29700256Y-100682795D01*
X29511898Y-100604774D01*
X29311939Y-100565000D01*
X29108061Y-100565000D01*
X28908102Y-100604774D01*
X28719744Y-100682795D01*
X28550226Y-100796063D01*
X28508289Y-100838000D01*
X22291711Y-100838000D01*
X22249774Y-100796063D01*
X22080256Y-100682795D01*
X21891898Y-100604774D01*
X21691939Y-100565000D01*
X21488061Y-100565000D01*
X21288102Y-100604774D01*
X21099744Y-100682795D01*
X20930226Y-100796063D01*
X20786063Y-100940226D01*
X20672795Y-101109744D01*
X20594774Y-101298102D01*
X20555000Y-101498061D01*
X13489000Y-101498061D01*
X13489000Y-98994678D01*
X16523116Y-95982632D01*
X19848994Y-92893023D01*
X21185043Y-91731987D01*
X21182000Y-91747285D01*
X21182000Y-92502715D01*
X21329377Y-93243628D01*
X21618467Y-93941554D01*
X22038161Y-94569670D01*
X22572330Y-95103839D01*
X23200446Y-95523533D01*
X23898372Y-95812623D01*
X24639285Y-95960000D01*
X25394715Y-95960000D01*
X26135628Y-95812623D01*
X26833554Y-95523533D01*
X27461670Y-95103839D01*
X27995839Y-94569670D01*
X28415533Y-93941554D01*
X28704623Y-93243628D01*
X28852000Y-92502715D01*
X28852000Y-91747285D01*
X28704623Y-91006372D01*
X28415533Y-90308446D01*
X27995839Y-89680330D01*
X27461670Y-89146161D01*
X26833554Y-88726467D01*
X26135628Y-88437377D01*
X25394715Y-88290000D01*
X25276164Y-88290000D01*
X26798847Y-87052953D01*
X30415132Y-84308952D01*
X34120412Y-81686353D01*
X37910659Y-79188013D01*
X40259656Y-77749061D01*
X166947900Y-77749061D01*
X166947900Y-77952939D01*
X166987674Y-78152898D01*
X167065695Y-78341256D01*
X167178963Y-78510774D01*
X167323126Y-78654937D01*
X167492644Y-78768205D01*
X167681002Y-78846226D01*
X167880961Y-78886000D01*
X168084839Y-78886000D01*
X168284798Y-78846226D01*
X168473156Y-78768205D01*
X168642674Y-78654937D01*
X168684611Y-78613000D01*
X178765201Y-78613000D01*
X178765200Y-78952689D01*
X178723263Y-78994626D01*
X178609995Y-79164144D01*
X178531974Y-79352502D01*
X178492200Y-79552461D01*
X178492200Y-79756339D01*
X178531974Y-79956298D01*
X178609995Y-80144656D01*
X178723263Y-80314174D01*
X178867426Y-80458337D01*
X179036944Y-80571605D01*
X179225302Y-80649626D01*
X179425261Y-80689400D01*
X179629139Y-80689400D01*
X179829098Y-80649626D01*
X180017456Y-80571605D01*
X180186974Y-80458337D01*
X180331137Y-80314174D01*
X180444405Y-80144656D01*
X180522426Y-79956298D01*
X180562200Y-79756339D01*
X180562200Y-79552461D01*
X180522426Y-79352502D01*
X180444405Y-79164144D01*
X180331137Y-78994626D01*
X180289200Y-78952689D01*
X180289200Y-78613000D01*
X188482570Y-78613000D01*
X189814200Y-79944630D01*
X189814201Y-82965888D01*
X189772263Y-83007826D01*
X189658995Y-83177344D01*
X189580974Y-83365702D01*
X189541200Y-83565661D01*
X189541200Y-83769539D01*
X189580974Y-83969498D01*
X189658995Y-84157856D01*
X189772263Y-84327374D01*
X189916426Y-84471537D01*
X190085944Y-84584805D01*
X190274302Y-84662826D01*
X190474261Y-84702600D01*
X190533570Y-84702600D01*
X190620516Y-84789546D01*
X190644378Y-84818622D01*
X190716855Y-84878102D01*
X190760407Y-84913845D01*
X190797954Y-84933914D01*
X190892785Y-84984602D01*
X191036422Y-85028174D01*
X191148374Y-85039200D01*
X191148377Y-85039200D01*
X191185800Y-85042886D01*
X191223223Y-85039200D01*
X201106370Y-85039200D01*
X202088800Y-86021630D01*
X202088800Y-86080939D01*
X202128574Y-86280898D01*
X202206595Y-86469256D01*
X202319863Y-86638774D01*
X202464026Y-86782937D01*
X202633544Y-86896205D01*
X202821902Y-86974226D01*
X203021861Y-87014000D01*
X203225739Y-87014000D01*
X203425698Y-86974226D01*
X203614056Y-86896205D01*
X203783574Y-86782937D01*
X203927737Y-86638774D01*
X204041005Y-86469256D01*
X204119026Y-86280898D01*
X204158800Y-86080939D01*
X204158800Y-85877061D01*
X204119026Y-85677102D01*
X204041005Y-85488744D01*
X203927737Y-85319226D01*
X203783574Y-85175063D01*
X203614056Y-85061795D01*
X203425698Y-84983774D01*
X203225739Y-84944000D01*
X203166430Y-84944000D01*
X201987284Y-83764854D01*
X201963422Y-83735778D01*
X201847392Y-83640555D01*
X201715015Y-83569798D01*
X201571378Y-83526226D01*
X201459426Y-83515200D01*
X201459423Y-83515200D01*
X201422000Y-83511514D01*
X201384577Y-83515200D01*
X191601163Y-83515200D01*
X191571426Y-83365702D01*
X191493405Y-83177344D01*
X191380137Y-83007826D01*
X191338200Y-82965889D01*
X191338200Y-79666423D01*
X191341886Y-79629000D01*
X191338133Y-79590896D01*
X191327174Y-79479622D01*
X191283602Y-79335985D01*
X191235632Y-79246240D01*
X191212845Y-79203607D01*
X191176824Y-79159716D01*
X191117622Y-79087578D01*
X191088547Y-79063717D01*
X189363484Y-77338654D01*
X189339622Y-77309578D01*
X189223592Y-77214355D01*
X189091215Y-77143598D01*
X188947578Y-77100026D01*
X188835626Y-77089000D01*
X188835623Y-77089000D01*
X188798200Y-77085314D01*
X188760777Y-77089000D01*
X179564626Y-77089000D01*
X179527200Y-77085314D01*
X179489775Y-77089000D01*
X168684611Y-77089000D01*
X168642674Y-77047063D01*
X168473156Y-76933795D01*
X168284798Y-76855774D01*
X168084839Y-76816000D01*
X167880961Y-76816000D01*
X167681002Y-76855774D01*
X167492644Y-76933795D01*
X167323126Y-77047063D01*
X167178963Y-77191226D01*
X167065695Y-77360744D01*
X166987674Y-77549102D01*
X166947900Y-77749061D01*
X40259656Y-77749061D01*
X41781588Y-76816754D01*
X45729040Y-74575122D01*
X49748659Y-72465592D01*
X53835983Y-70490507D01*
X57986529Y-68652030D01*
X58701526Y-68363285D01*
X84279000Y-68363285D01*
X84279000Y-69118715D01*
X84426377Y-69859628D01*
X84715467Y-70557554D01*
X85135161Y-71185670D01*
X85669330Y-71719839D01*
X86297446Y-72139533D01*
X86995372Y-72428623D01*
X87736285Y-72576000D01*
X88491715Y-72576000D01*
X89232628Y-72428623D01*
X89930554Y-72139533D01*
X90558670Y-71719839D01*
X91092839Y-71185670D01*
X91512533Y-70557554D01*
X91801623Y-69859628D01*
X91949000Y-69118715D01*
X91949000Y-68363285D01*
X187451000Y-68363285D01*
X187451000Y-69118715D01*
X187598377Y-69859628D01*
X187887467Y-70557554D01*
X188307161Y-71185670D01*
X188841330Y-71719839D01*
X189469446Y-72139533D01*
X190167372Y-72428623D01*
X190908285Y-72576000D01*
X191663715Y-72576000D01*
X192404628Y-72428623D01*
X193102554Y-72139533D01*
X193730670Y-71719839D01*
X194264839Y-71185670D01*
X194684533Y-70557554D01*
X194973623Y-69859628D01*
X195121000Y-69118715D01*
X195121000Y-68363285D01*
X194973623Y-67622372D01*
X194684533Y-66924446D01*
X194264839Y-66296330D01*
X193730670Y-65762161D01*
X193102554Y-65342467D01*
X192404628Y-65053377D01*
X191663715Y-64906000D01*
X190908285Y-64906000D01*
X190167372Y-65053377D01*
X189469446Y-65342467D01*
X188841330Y-65762161D01*
X188307161Y-66296330D01*
X187887467Y-66924446D01*
X187598377Y-67622372D01*
X187451000Y-68363285D01*
X91949000Y-68363285D01*
X91801623Y-67622372D01*
X91512533Y-66924446D01*
X91092839Y-66296330D01*
X90558670Y-65762161D01*
X89930554Y-65342467D01*
X89232628Y-65053377D01*
X88491715Y-64906000D01*
X87736285Y-64906000D01*
X86995372Y-65053377D01*
X86297446Y-65342467D01*
X85669330Y-65762161D01*
X85135161Y-66296330D01*
X84715467Y-66924446D01*
X84426377Y-67622372D01*
X84279000Y-68363285D01*
X58701526Y-68363285D01*
X62195812Y-66952150D01*
X66459081Y-65392786D01*
X70773505Y-63975038D01*
X73380616Y-63196816D01*
X125973000Y-63196816D01*
X125973000Y-63499184D01*
X126031989Y-63795743D01*
X126147701Y-64075095D01*
X126315688Y-64326505D01*
X126529495Y-64540312D01*
X126780905Y-64708299D01*
X127060257Y-64824011D01*
X127356816Y-64883000D01*
X127659184Y-64883000D01*
X127955743Y-64824011D01*
X128235095Y-64708299D01*
X128486505Y-64540312D01*
X128700312Y-64326505D01*
X128868299Y-64075095D01*
X128984011Y-63795743D01*
X129043000Y-63499184D01*
X129043000Y-63398068D01*
X146411993Y-63398068D01*
X146411993Y-63601946D01*
X146451767Y-63801905D01*
X146494491Y-63905050D01*
X146494496Y-64237964D01*
X146451774Y-64341102D01*
X146412000Y-64541061D01*
X146412000Y-64744939D01*
X146451774Y-64944898D01*
X146529795Y-65133256D01*
X146643063Y-65302774D01*
X146787226Y-65446937D01*
X146956744Y-65560205D01*
X147145102Y-65638226D01*
X147345061Y-65678000D01*
X147548939Y-65678000D01*
X147748898Y-65638226D01*
X147937256Y-65560205D01*
X148106774Y-65446937D01*
X148250650Y-65303061D01*
X149714000Y-65303061D01*
X149714000Y-65506939D01*
X149753774Y-65706898D01*
X149831795Y-65895256D01*
X149945063Y-66064774D01*
X150047289Y-66167000D01*
X149945063Y-66269226D01*
X149831795Y-66438744D01*
X149753774Y-66627102D01*
X149714000Y-66827061D01*
X149714000Y-67030939D01*
X149753774Y-67230898D01*
X149831795Y-67419256D01*
X149945063Y-67588774D01*
X150089226Y-67732937D01*
X150258744Y-67846205D01*
X150447102Y-67924226D01*
X150647061Y-67964000D01*
X150850939Y-67964000D01*
X151050898Y-67924226D01*
X151239256Y-67846205D01*
X151408774Y-67732937D01*
X151450711Y-67691000D01*
X152206291Y-67691000D01*
X152248228Y-67732937D01*
X152417746Y-67846205D01*
X152606104Y-67924226D01*
X152806063Y-67964000D01*
X153009941Y-67964000D01*
X153209900Y-67924226D01*
X153398258Y-67846205D01*
X153567776Y-67732937D01*
X153711939Y-67588774D01*
X153825207Y-67419256D01*
X153903228Y-67230898D01*
X153943002Y-67030939D01*
X153943002Y-66827061D01*
X153903228Y-66627102D01*
X153825207Y-66438744D01*
X153711939Y-66269226D01*
X153609731Y-66167018D01*
X153711937Y-66064812D01*
X153825205Y-65895294D01*
X153903226Y-65706936D01*
X153943000Y-65506977D01*
X153943000Y-65303099D01*
X153903226Y-65103140D01*
X153825205Y-64914782D01*
X153711937Y-64745264D01*
X153567774Y-64601101D01*
X153398256Y-64487833D01*
X153209898Y-64409812D01*
X153009939Y-64370038D01*
X152806061Y-64370038D01*
X152606102Y-64409812D01*
X152417744Y-64487833D01*
X152248226Y-64601101D01*
X152206327Y-64643000D01*
X151450711Y-64643000D01*
X151408774Y-64601063D01*
X151239256Y-64487795D01*
X151050898Y-64409774D01*
X150850939Y-64370000D01*
X150647061Y-64370000D01*
X150447102Y-64409774D01*
X150258744Y-64487795D01*
X150089226Y-64601063D01*
X149945063Y-64745226D01*
X149831795Y-64914744D01*
X149753774Y-65103102D01*
X149714000Y-65303061D01*
X148250650Y-65303061D01*
X148250937Y-65302774D01*
X148364205Y-65133256D01*
X148442226Y-64944898D01*
X148482000Y-64744939D01*
X148482000Y-64541061D01*
X148480497Y-64533504D01*
X148488054Y-64535007D01*
X148691932Y-64535007D01*
X148891891Y-64495233D01*
X149080249Y-64417212D01*
X149249767Y-64303944D01*
X149393930Y-64159781D01*
X149507198Y-63990263D01*
X149549924Y-63887114D01*
X149644938Y-63792100D01*
X155028062Y-63792100D01*
X155123069Y-63887107D01*
X155165795Y-63990256D01*
X155279063Y-64159774D01*
X155423226Y-64303937D01*
X155592744Y-64417205D01*
X155781102Y-64495226D01*
X155981061Y-64535000D01*
X156184939Y-64535000D01*
X156192505Y-64533495D01*
X156191000Y-64541061D01*
X156191000Y-64744939D01*
X156230774Y-64944898D01*
X156308795Y-65133256D01*
X156422063Y-65302774D01*
X156566226Y-65446937D01*
X156735744Y-65560205D01*
X156924102Y-65638226D01*
X157124061Y-65678000D01*
X157327939Y-65678000D01*
X157527898Y-65638226D01*
X157716256Y-65560205D01*
X157885774Y-65446937D01*
X158029937Y-65302774D01*
X158143205Y-65133256D01*
X158221226Y-64944898D01*
X158261000Y-64744939D01*
X158261000Y-64541061D01*
X158221226Y-64341102D01*
X158178500Y-64237953D01*
X158178500Y-63905047D01*
X158221226Y-63801898D01*
X158261000Y-63601939D01*
X158261000Y-63398061D01*
X158221226Y-63198102D01*
X158143205Y-63009744D01*
X158029937Y-62840226D01*
X157885774Y-62696063D01*
X157716256Y-62582795D01*
X157527898Y-62504774D01*
X157327939Y-62465000D01*
X157124061Y-62465000D01*
X156924102Y-62504774D01*
X156820953Y-62547500D01*
X156488047Y-62547500D01*
X156470107Y-62540069D01*
X156129207Y-62199169D01*
X156099378Y-62162822D01*
X155954341Y-62043794D01*
X155788869Y-61955348D01*
X155609323Y-61900883D01*
X155469385Y-61887100D01*
X155422600Y-61882492D01*
X155375815Y-61887100D01*
X149297185Y-61887100D01*
X149250400Y-61882492D01*
X149203615Y-61887100D01*
X149063677Y-61900883D01*
X148884131Y-61955348D01*
X148718659Y-62043794D01*
X148573622Y-62162822D01*
X148543793Y-62199169D01*
X148202886Y-62540076D01*
X148184946Y-62547507D01*
X147852040Y-62547507D01*
X147748891Y-62504781D01*
X147548932Y-62465007D01*
X147345054Y-62465007D01*
X147145095Y-62504781D01*
X146956737Y-62582802D01*
X146787219Y-62696070D01*
X146643056Y-62840233D01*
X146529788Y-63009751D01*
X146451767Y-63198109D01*
X146411993Y-63398068D01*
X129043000Y-63398068D01*
X129043000Y-63196816D01*
X128984011Y-62900257D01*
X128868299Y-62620905D01*
X128700312Y-62369495D01*
X128486505Y-62155688D01*
X128235095Y-61987701D01*
X127955743Y-61871989D01*
X127659184Y-61813000D01*
X127356816Y-61813000D01*
X127060257Y-61871989D01*
X126780905Y-61987701D01*
X126529495Y-62155688D01*
X126315688Y-62369495D01*
X126147701Y-62620905D01*
X126031989Y-62900257D01*
X125973000Y-63196816D01*
X73380616Y-63196816D01*
X73557595Y-63143988D01*
X73565854Y-63142381D01*
X73581604Y-63138915D01*
X73597264Y-63135065D01*
X73606169Y-63132694D01*
X79260778Y-61584654D01*
X83190229Y-60611448D01*
X148042000Y-60611448D01*
X148042000Y-60800552D01*
X148078892Y-60986022D01*
X148151259Y-61160731D01*
X148256319Y-61317964D01*
X148390036Y-61451681D01*
X148547269Y-61556741D01*
X148721978Y-61629108D01*
X148907448Y-61666000D01*
X149096552Y-61666000D01*
X149282022Y-61629108D01*
X149456731Y-61556741D01*
X149613964Y-61451681D01*
X149747681Y-61317964D01*
X149852741Y-61160731D01*
X149925108Y-60986022D01*
X149962000Y-60800552D01*
X149962000Y-60611448D01*
X153822000Y-60611448D01*
X153822000Y-60800552D01*
X153858892Y-60986022D01*
X153931259Y-61160731D01*
X154036319Y-61317964D01*
X154170036Y-61451681D01*
X154327269Y-61556741D01*
X154501978Y-61629108D01*
X154687448Y-61666000D01*
X154876552Y-61666000D01*
X155062022Y-61629108D01*
X155236731Y-61556741D01*
X155393964Y-61451681D01*
X155527681Y-61317964D01*
X155632741Y-61160731D01*
X155705108Y-60986022D01*
X155742000Y-60800552D01*
X155742000Y-60611448D01*
X155705108Y-60425978D01*
X155632741Y-60251269D01*
X155527681Y-60094036D01*
X155393964Y-59960319D01*
X155236731Y-59855259D01*
X155062022Y-59782892D01*
X154876552Y-59746000D01*
X154687448Y-59746000D01*
X154501978Y-59782892D01*
X154327269Y-59855259D01*
X154170036Y-59960319D01*
X154036319Y-60094036D01*
X153931259Y-60251269D01*
X153858892Y-60425978D01*
X153822000Y-60611448D01*
X149962000Y-60611448D01*
X149925108Y-60425978D01*
X149852741Y-60251269D01*
X149747681Y-60094036D01*
X149613964Y-59960319D01*
X149456731Y-59855259D01*
X149282022Y-59782892D01*
X149096552Y-59746000D01*
X148907448Y-59746000D01*
X148721978Y-59782892D01*
X148547269Y-59855259D01*
X148390036Y-59960319D01*
X148256319Y-60094036D01*
X148151259Y-60251269D01*
X148078892Y-60425978D01*
X148042000Y-60611448D01*
X83190229Y-60611448D01*
X84943723Y-60177161D01*
X90659306Y-58908948D01*
X91689351Y-58706665D01*
X126073000Y-58706665D01*
X126073000Y-58989335D01*
X126128147Y-59266574D01*
X126236320Y-59527727D01*
X126393363Y-59762759D01*
X126593241Y-59962637D01*
X126828273Y-60119680D01*
X127089426Y-60227853D01*
X127366665Y-60283000D01*
X127649335Y-60283000D01*
X127926574Y-60227853D01*
X128187727Y-60119680D01*
X128422759Y-59962637D01*
X128622637Y-59762759D01*
X128779680Y-59527727D01*
X128887853Y-59266574D01*
X128943000Y-58989335D01*
X128943000Y-58706665D01*
X128887853Y-58429426D01*
X128779680Y-58168273D01*
X128622637Y-57933241D01*
X128422759Y-57733363D01*
X128187727Y-57576320D01*
X127926574Y-57468147D01*
X127649335Y-57413000D01*
X127366665Y-57413000D01*
X127089426Y-57468147D01*
X126828273Y-57576320D01*
X126593241Y-57733363D01*
X126393363Y-57933241D01*
X126236320Y-58168273D01*
X126128147Y-58429426D01*
X126073000Y-58706665D01*
X91689351Y-58706665D01*
X96404212Y-57780749D01*
X102174936Y-56793251D01*
X107968132Y-55947031D01*
X113780170Y-55242616D01*
X119610973Y-54680094D01*
X120702276Y-54590904D01*
X120740842Y-54594686D01*
X120772786Y-54604331D01*
X120802249Y-54619997D01*
X120828104Y-54641085D01*
X120849375Y-54666797D01*
X120865245Y-54696150D01*
X120875112Y-54728025D01*
X120885363Y-54825568D01*
X120885783Y-54827613D01*
X120885905Y-54836175D01*
X120891883Y-54864257D01*
X120894783Y-54892821D01*
X120905259Y-54927092D01*
X120912724Y-54962161D01*
X120915575Y-54970925D01*
X120946232Y-55062986D01*
X120967735Y-55111241D01*
X120987530Y-55160237D01*
X120991857Y-55168373D01*
X121050800Y-55277388D01*
X121084245Y-55326972D01*
X121117005Y-55377035D01*
X121122830Y-55384176D01*
X121201826Y-55479666D01*
X121244275Y-55521820D01*
X121286123Y-55564555D01*
X121293224Y-55570429D01*
X121389263Y-55648757D01*
X121439089Y-55681862D01*
X121488446Y-55715657D01*
X121496552Y-55720040D01*
X121605975Y-55778222D01*
X121661267Y-55801011D01*
X121716263Y-55824583D01*
X121725066Y-55827308D01*
X121843707Y-55863127D01*
X121902391Y-55874747D01*
X121960902Y-55887184D01*
X121970058Y-55888146D01*
X121970063Y-55888147D01*
X121970067Y-55888147D01*
X122093405Y-55900240D01*
X122093407Y-55900240D01*
X122125289Y-55903385D01*
X132747318Y-55905004D01*
X132775501Y-55902233D01*
X132780137Y-55902265D01*
X132789309Y-55901365D01*
X132937210Y-55885820D01*
X132995780Y-55873797D01*
X133054563Y-55862584D01*
X133063385Y-55859921D01*
X133205452Y-55815945D01*
X133260607Y-55792760D01*
X133316062Y-55770355D01*
X133324199Y-55766028D01*
X133455017Y-55695295D01*
X133504603Y-55661849D01*
X133554665Y-55629089D01*
X133561806Y-55623265D01*
X133676394Y-55528468D01*
X133718514Y-55486053D01*
X133761283Y-55444171D01*
X133767157Y-55437070D01*
X133861149Y-55321823D01*
X133894229Y-55272033D01*
X133928048Y-55222643D01*
X133932431Y-55214536D01*
X134002249Y-55083228D01*
X134025034Y-55027946D01*
X134048610Y-54972941D01*
X134051335Y-54964138D01*
X134094318Y-54821769D01*
X134105934Y-54763107D01*
X134118375Y-54704576D01*
X134119338Y-54695411D01*
X134122810Y-54660000D01*
X137645807Y-54660000D01*
X137649000Y-54692420D01*
X137649001Y-57409571D01*
X137645807Y-57442000D01*
X137658550Y-57571383D01*
X137696290Y-57695793D01*
X137757575Y-57810450D01*
X137840052Y-57910948D01*
X137940550Y-57993425D01*
X138055207Y-58054710D01*
X138179617Y-58092450D01*
X138276581Y-58102000D01*
X138309000Y-58105193D01*
X138341419Y-58102000D01*
X141058581Y-58102000D01*
X141091000Y-58105193D01*
X141123419Y-58102000D01*
X141220383Y-58092450D01*
X141344793Y-58054710D01*
X141459450Y-57993425D01*
X141559948Y-57910948D01*
X141642425Y-57810450D01*
X141703710Y-57695793D01*
X141741450Y-57571383D01*
X141754193Y-57442000D01*
X141751000Y-57409581D01*
X141751000Y-54692419D01*
X141754193Y-54660000D01*
X141741450Y-54530617D01*
X141703710Y-54406207D01*
X141642425Y-54291550D01*
X141559948Y-54191052D01*
X141459450Y-54108575D01*
X141344793Y-54047290D01*
X141220383Y-54009550D01*
X141207113Y-54008243D01*
X141091000Y-53996807D01*
X141058581Y-54000000D01*
X138341419Y-54000000D01*
X138309000Y-53996807D01*
X138192887Y-54008243D01*
X138179617Y-54009550D01*
X138055207Y-54047290D01*
X137940550Y-54108575D01*
X137840052Y-54191052D01*
X137757575Y-54291550D01*
X137696290Y-54406207D01*
X137658550Y-54530617D01*
X137645807Y-54660000D01*
X134122810Y-54660000D01*
X134133850Y-54547404D01*
X134133850Y-54547402D01*
X134137000Y-54515419D01*
X134137000Y-54408969D01*
X134149303Y-54283490D01*
X134176370Y-54193843D01*
X134220335Y-54111155D01*
X134279522Y-54038586D01*
X134351684Y-53978888D01*
X134434054Y-53934351D01*
X134523515Y-53906658D01*
X134649495Y-53893417D01*
X139700000Y-53840037D01*
X144744243Y-53893351D01*
%TA.AperFunction,Conductor*%
D16*
G36*
X144744243Y-53893351D02*
G01*
X144873202Y-53905995D01*
X144962849Y-53933062D01*
X145045537Y-53977027D01*
X145118106Y-54036214D01*
X145177804Y-54108376D01*
X145222341Y-54190746D01*
X145250034Y-54280207D01*
X145263000Y-54403570D01*
X145263000Y-54515418D01*
X145265767Y-54543515D01*
X145265735Y-54548137D01*
X145266635Y-54557309D01*
X145282180Y-54705210D01*
X145294203Y-54763780D01*
X145305416Y-54822563D01*
X145308079Y-54831385D01*
X145352055Y-54973452D01*
X145375240Y-55028607D01*
X145397645Y-55084062D01*
X145401972Y-55092199D01*
X145472705Y-55223017D01*
X145506151Y-55272603D01*
X145538911Y-55322665D01*
X145544735Y-55329806D01*
X145639532Y-55444394D01*
X145681947Y-55486514D01*
X145723829Y-55529283D01*
X145730930Y-55535157D01*
X145846177Y-55629149D01*
X145895967Y-55662229D01*
X145945357Y-55696048D01*
X145953464Y-55700431D01*
X146084772Y-55770249D01*
X146140054Y-55793034D01*
X146195059Y-55816610D01*
X146203862Y-55819335D01*
X146346231Y-55862318D01*
X146404893Y-55873934D01*
X146463424Y-55886375D01*
X146472585Y-55887338D01*
X146472589Y-55887338D01*
X146620596Y-55901850D01*
X146620608Y-55901850D01*
X146652682Y-55905004D01*
X157274711Y-55903385D01*
X157299764Y-55900914D01*
X157389370Y-55894047D01*
X157441402Y-55884889D01*
X157493728Y-55877569D01*
X157502671Y-55875345D01*
X157622727Y-55844601D01*
X157678935Y-55824183D01*
X157735458Y-55804540D01*
X157743798Y-55800621D01*
X157855596Y-55747143D01*
X157906741Y-55716212D01*
X157958394Y-55685952D01*
X157965814Y-55680488D01*
X158065096Y-55606314D01*
X158109303Y-55565999D01*
X158154055Y-55526317D01*
X158160273Y-55519516D01*
X158243258Y-55427470D01*
X158278789Y-55379341D01*
X158314982Y-55331721D01*
X158319761Y-55323841D01*
X158383285Y-55217430D01*
X158408766Y-55163368D01*
X158435048Y-55109570D01*
X158438204Y-55100912D01*
X158479850Y-54984189D01*
X158482704Y-54972775D01*
X158487337Y-54961964D01*
X158498300Y-54910389D01*
X158511091Y-54859225D01*
X158511673Y-54847476D01*
X158514119Y-54835969D01*
X158515082Y-54826805D01*
X158524653Y-54729193D01*
X158534297Y-54697249D01*
X158549962Y-54667788D01*
X158571053Y-54641928D01*
X158596760Y-54620661D01*
X158626115Y-54604789D01*
X158657991Y-54594921D01*
X158693791Y-54591159D01*
X164471893Y-55120321D01*
X170288775Y-55796711D01*
X176087444Y-56615025D01*
X181864333Y-57574760D01*
X187616071Y-58675354D01*
X193339197Y-59916146D01*
X199030310Y-61296398D01*
X204689136Y-62816127D01*
X205782776Y-63127027D01*
X210129566Y-64451831D01*
X214425571Y-65918500D01*
X218670621Y-67526809D01*
X222860016Y-69274980D01*
X226989126Y-71161082D01*
X231053420Y-73183041D01*
X235048498Y-75338671D01*
X238969871Y-77625553D01*
X242813266Y-80041191D01*
X246574449Y-82582923D01*
X250249293Y-85247961D01*
X253833795Y-88033404D01*
X254142318Y-88290000D01*
X254005285Y-88290000D01*
X253264372Y-88437377D01*
X252566446Y-88726467D01*
X251938330Y-89146161D01*
X251404161Y-89680330D01*
X250984467Y-90308446D01*
X250695377Y-91006372D01*
X250548000Y-91747285D01*
X250548000Y-92502715D01*
X250695377Y-93243628D01*
X250984467Y-93941554D01*
X251404161Y-94569670D01*
X251938330Y-95103839D01*
X252566446Y-95523533D01*
X253264372Y-95812623D01*
X254005285Y-95960000D01*
X254760715Y-95960000D01*
X255501628Y-95812623D01*
X256199554Y-95523533D01*
X256827670Y-95103839D01*
X257361839Y-94569670D01*
X257781533Y-93941554D01*
X258070623Y-93243628D01*
X258218000Y-92502715D01*
X258218000Y-91747285D01*
X258214140Y-91727880D01*
X260715928Y-93952982D01*
X264007404Y-97081945D01*
X265911000Y-98993568D01*
X265911001Y-104205321D01*
X262876884Y-107217368D01*
X259550976Y-110307004D01*
X258214957Y-111468013D01*
X258218000Y-111452715D01*
X258218000Y-110697285D01*
X258070623Y-109956372D01*
X257781533Y-109258446D01*
X257361839Y-108630330D01*
X256827670Y-108096161D01*
X256199554Y-107676467D01*
X255501628Y-107387377D01*
X254760715Y-107240000D01*
X254005285Y-107240000D01*
X253264372Y-107387377D01*
X252566446Y-107676467D01*
X251938330Y-108096161D01*
X251404161Y-108630330D01*
X250984467Y-109258446D01*
X250695377Y-109956372D01*
X250548000Y-110697285D01*
X250548000Y-111452715D01*
X250695377Y-112193628D01*
X250984467Y-112891554D01*
X251404161Y-113519670D01*
X251938330Y-114053839D01*
X252566446Y-114473533D01*
X253264372Y-114762623D01*
X254005285Y-114910000D01*
X254123837Y-114910000D01*
X252601154Y-116147047D01*
X248984869Y-118891048D01*
X245279560Y-121513665D01*
X241489363Y-124011973D01*
X237618426Y-126383238D01*
X233670948Y-128624885D01*
X229651329Y-130734414D01*
X225564017Y-132709493D01*
X221413471Y-134547970D01*
X217204188Y-136247850D01*
X212940928Y-137807210D01*
X208626495Y-139224962D01*
X205804836Y-140067226D01*
X205803482Y-140067559D01*
X205794577Y-140069929D01*
X200136135Y-141617904D01*
X194449386Y-143025232D01*
X188729969Y-144293196D01*
X182981260Y-145421048D01*
X177206730Y-146408107D01*
X171409796Y-147253787D01*
X165593935Y-147957584D01*
X159762619Y-148519077D01*
X153919279Y-148937932D01*
X148067510Y-149213896D01*
X142208420Y-149346857D01*
X139696544Y-149360009D01*
X139682383Y-149360256D01*
X133842001Y-149288896D01*
X127987618Y-149074222D01*
X122140253Y-148716579D01*
X116303335Y-148216174D01*
X110480433Y-147573317D01*
X104674927Y-146788379D01*
X98890351Y-145861836D01*
X98330104Y-145758000D01*
X137645807Y-145758000D01*
X137649000Y-145790420D01*
X137649001Y-148507571D01*
X137645807Y-148540000D01*
X137658550Y-148669383D01*
X137696290Y-148793793D01*
X137757575Y-148908450D01*
X137840052Y-149008948D01*
X137940550Y-149091425D01*
X138055207Y-149152710D01*
X138179617Y-149190450D01*
X138276581Y-149200000D01*
X138309000Y-149203193D01*
X138341419Y-149200000D01*
X141058581Y-149200000D01*
X141091000Y-149203193D01*
X141123419Y-149200000D01*
X141220383Y-149190450D01*
X141344793Y-149152710D01*
X141459450Y-149091425D01*
X141559948Y-149008948D01*
X141642425Y-148908450D01*
X141703710Y-148793793D01*
X141741450Y-148669383D01*
X141754193Y-148540000D01*
X141751000Y-148507581D01*
X141751000Y-145790419D01*
X141754193Y-145758000D01*
X141741450Y-145628617D01*
X141703710Y-145504207D01*
X141642425Y-145389550D01*
X141559948Y-145289052D01*
X141459450Y-145206575D01*
X141344793Y-145145290D01*
X141220383Y-145107550D01*
X141123419Y-145098000D01*
X141091000Y-145094807D01*
X141058581Y-145098000D01*
X138341419Y-145098000D01*
X138309000Y-145094807D01*
X138276581Y-145098000D01*
X138179617Y-145107550D01*
X138055207Y-145145290D01*
X137940550Y-145206575D01*
X137840052Y-145289052D01*
X137757575Y-145389550D01*
X137696290Y-145504207D01*
X137658550Y-145628617D01*
X137645807Y-145758000D01*
X98330104Y-145758000D01*
X93130165Y-144794246D01*
X87397753Y-143586234D01*
X81696577Y-142238530D01*
X76027743Y-140751336D01*
X76026915Y-140751103D01*
X132397500Y-140751103D01*
X132397500Y-141188897D01*
X132482909Y-141618279D01*
X132650446Y-142022749D01*
X132893671Y-142386761D01*
X133203239Y-142696329D01*
X133567251Y-142939554D01*
X133971721Y-143107091D01*
X134401103Y-143192500D01*
X134838897Y-143192500D01*
X135268279Y-143107091D01*
X135672749Y-142939554D01*
X136036761Y-142696329D01*
X136346329Y-142386761D01*
X136589554Y-142022749D01*
X136757091Y-141618279D01*
X136842500Y-141188897D01*
X136842500Y-140751103D01*
X142557500Y-140751103D01*
X142557500Y-141188897D01*
X142642909Y-141618279D01*
X142810446Y-142022749D01*
X143053671Y-142386761D01*
X143363239Y-142696329D01*
X143727251Y-142939554D01*
X144131721Y-143107091D01*
X144561103Y-143192500D01*
X144998897Y-143192500D01*
X145428279Y-143107091D01*
X145832749Y-142939554D01*
X146196761Y-142696329D01*
X146506329Y-142386761D01*
X146749554Y-142022749D01*
X146917091Y-141618279D01*
X147002500Y-141188897D01*
X147002500Y-140751103D01*
X146917091Y-140321721D01*
X146749554Y-139917251D01*
X146506329Y-139553239D01*
X146196761Y-139243671D01*
X145832749Y-139000446D01*
X145428279Y-138832909D01*
X144998897Y-138747500D01*
X144561103Y-138747500D01*
X144131721Y-138832909D01*
X143727251Y-139000446D01*
X143363239Y-139243671D01*
X143053671Y-139553239D01*
X142810446Y-139917251D01*
X142642909Y-140321721D01*
X142557500Y-140751103D01*
X136842500Y-140751103D01*
X136757091Y-140321721D01*
X136589554Y-139917251D01*
X136346329Y-139553239D01*
X136036761Y-139243671D01*
X135672749Y-139000446D01*
X135268279Y-138832909D01*
X134838897Y-138747500D01*
X134401103Y-138747500D01*
X133971721Y-138832909D01*
X133567251Y-139000446D01*
X133203239Y-139243671D01*
X132893671Y-139553239D01*
X132650446Y-139917251D01*
X132482909Y-140321721D01*
X132397500Y-140751103D01*
X76026915Y-140751103D01*
X73639791Y-140080111D01*
X73638577Y-140079686D01*
X73623210Y-140074797D01*
X69270434Y-138748169D01*
X64974429Y-137281500D01*
X60729369Y-135673187D01*
X56914465Y-134081285D01*
X84279000Y-134081285D01*
X84279000Y-134836715D01*
X84426377Y-135577628D01*
X84715467Y-136275554D01*
X85135161Y-136903670D01*
X85669330Y-137437839D01*
X86297446Y-137857533D01*
X86995372Y-138146623D01*
X87736285Y-138294000D01*
X88491715Y-138294000D01*
X89232628Y-138146623D01*
X89930554Y-137857533D01*
X90558670Y-137437839D01*
X91092839Y-136903670D01*
X91512533Y-136275554D01*
X91801623Y-135577628D01*
X91949000Y-134836715D01*
X91949000Y-134081285D01*
X187451000Y-134081285D01*
X187451000Y-134836715D01*
X187598377Y-135577628D01*
X187887467Y-136275554D01*
X188307161Y-136903670D01*
X188841330Y-137437839D01*
X189469446Y-137857533D01*
X190167372Y-138146623D01*
X190908285Y-138294000D01*
X191663715Y-138294000D01*
X192404628Y-138146623D01*
X193102554Y-137857533D01*
X193730670Y-137437839D01*
X194264839Y-136903670D01*
X194684533Y-136275554D01*
X194973623Y-135577628D01*
X195121000Y-134836715D01*
X195121000Y-134081285D01*
X194973623Y-133340372D01*
X194684533Y-132642446D01*
X194264839Y-132014330D01*
X193730670Y-131480161D01*
X193102554Y-131060467D01*
X192404628Y-130771377D01*
X191663715Y-130624000D01*
X190908285Y-130624000D01*
X190167372Y-130771377D01*
X189469446Y-131060467D01*
X188841330Y-131480161D01*
X188307161Y-132014330D01*
X187887467Y-132642446D01*
X187598377Y-133340372D01*
X187451000Y-134081285D01*
X91949000Y-134081285D01*
X91801623Y-133340372D01*
X91512533Y-132642446D01*
X91092839Y-132014330D01*
X90558670Y-131480161D01*
X89930554Y-131060467D01*
X89232628Y-130771377D01*
X88491715Y-130624000D01*
X87736285Y-130624000D01*
X86995372Y-130771377D01*
X86297446Y-131060467D01*
X85669330Y-131480161D01*
X85135161Y-132014330D01*
X84715467Y-132642446D01*
X84426377Y-133340372D01*
X84279000Y-134081285D01*
X56914465Y-134081285D01*
X56539984Y-133925020D01*
X52410874Y-132038919D01*
X48346544Y-130016941D01*
X44351490Y-127861322D01*
X40430142Y-125574455D01*
X36586734Y-123158809D01*
X32825551Y-120617077D01*
X29150693Y-117952028D01*
X25566205Y-115166596D01*
X25257682Y-114910000D01*
X25394715Y-114910000D01*
X26135628Y-114762623D01*
X26272180Y-114706061D01*
X171380200Y-114706061D01*
X171380200Y-114909939D01*
X171419974Y-115109898D01*
X171497995Y-115298256D01*
X171611263Y-115467774D01*
X171755426Y-115611937D01*
X171924944Y-115725205D01*
X172113302Y-115803226D01*
X172313261Y-115843000D01*
X172517139Y-115843000D01*
X172717098Y-115803226D01*
X172905456Y-115725205D01*
X173074974Y-115611937D01*
X173219137Y-115467774D01*
X173332405Y-115298256D01*
X173410426Y-115109898D01*
X173450200Y-114909939D01*
X173450200Y-114838583D01*
X173580698Y-114812626D01*
X173769056Y-114734605D01*
X173938574Y-114621337D01*
X174082737Y-114477174D01*
X174196005Y-114307656D01*
X174274026Y-114119298D01*
X174313800Y-113919339D01*
X174313800Y-113715461D01*
X174274026Y-113515502D01*
X174230600Y-113410661D01*
X188474400Y-113410661D01*
X188474400Y-113614539D01*
X188514174Y-113814498D01*
X188592195Y-114002856D01*
X188705463Y-114172374D01*
X188849626Y-114316537D01*
X189019144Y-114429805D01*
X189207502Y-114507826D01*
X189407461Y-114547600D01*
X189611339Y-114547600D01*
X189811298Y-114507826D01*
X189999656Y-114429805D01*
X190169174Y-114316537D01*
X190313337Y-114172374D01*
X190426605Y-114002856D01*
X190504626Y-113814498D01*
X190544400Y-113614539D01*
X190544400Y-113410661D01*
X190504626Y-113210702D01*
X190426605Y-113022344D01*
X190313337Y-112852826D01*
X190271400Y-112810889D01*
X190271400Y-90351408D01*
X190289316Y-90347844D01*
X190477674Y-90269823D01*
X190647192Y-90156555D01*
X190791355Y-90012392D01*
X190904623Y-89842874D01*
X190982644Y-89654516D01*
X191022418Y-89454557D01*
X191022418Y-89250679D01*
X190982644Y-89050720D01*
X190904623Y-88862362D01*
X190791355Y-88692844D01*
X190647192Y-88548681D01*
X190477674Y-88435413D01*
X190289316Y-88357392D01*
X190089357Y-88317618D01*
X189885479Y-88317618D01*
X189685520Y-88357392D01*
X189497162Y-88435413D01*
X189327644Y-88548681D01*
X189183481Y-88692844D01*
X189070213Y-88862362D01*
X188992192Y-89050720D01*
X188952418Y-89250679D01*
X188952418Y-89308175D01*
X188944122Y-89318284D01*
X188944121Y-89318285D01*
X188872755Y-89405244D01*
X188801999Y-89537621D01*
X188758427Y-89681258D01*
X188743714Y-89830636D01*
X188747401Y-89868069D01*
X188747400Y-112810889D01*
X188705463Y-112852826D01*
X188592195Y-113022344D01*
X188514174Y-113210702D01*
X188474400Y-113410661D01*
X174230600Y-113410661D01*
X174196005Y-113327144D01*
X174082737Y-113157626D01*
X174040800Y-113115689D01*
X174040800Y-86116830D01*
X176337630Y-83820000D01*
X181573770Y-83820000D01*
X182784800Y-85031031D01*
X182784800Y-85090339D01*
X182824574Y-85290298D01*
X182902595Y-85478656D01*
X183015863Y-85648174D01*
X183160026Y-85792337D01*
X183329544Y-85905605D01*
X183517902Y-85983626D01*
X183717861Y-86023400D01*
X183921739Y-86023400D01*
X184121698Y-85983626D01*
X184310056Y-85905605D01*
X184479574Y-85792337D01*
X184623737Y-85648174D01*
X184737005Y-85478656D01*
X184815026Y-85290298D01*
X184854800Y-85090339D01*
X184854800Y-84886461D01*
X184815026Y-84686502D01*
X184737005Y-84498144D01*
X184623737Y-84328626D01*
X184479574Y-84184463D01*
X184310056Y-84071195D01*
X184121698Y-83993174D01*
X183921739Y-83953400D01*
X183862431Y-83953400D01*
X182509830Y-82600800D01*
X183837031Y-81273600D01*
X183896339Y-81273600D01*
X184096298Y-81233826D01*
X184284656Y-81155805D01*
X184454174Y-81042537D01*
X184598337Y-80898374D01*
X184711605Y-80728856D01*
X184789626Y-80540498D01*
X184829400Y-80340539D01*
X184829400Y-80136661D01*
X184789626Y-79936702D01*
X184711605Y-79748344D01*
X184598337Y-79578826D01*
X184454174Y-79434663D01*
X184284656Y-79321395D01*
X184096298Y-79243374D01*
X183896339Y-79203600D01*
X183692461Y-79203600D01*
X183492502Y-79243374D01*
X183304144Y-79321395D01*
X183134626Y-79434663D01*
X182990463Y-79578826D01*
X182877195Y-79748344D01*
X182799174Y-79936702D01*
X182759400Y-80136661D01*
X182759400Y-80195969D01*
X181345170Y-81610200D01*
X175780022Y-81610200D01*
X175742599Y-81606514D01*
X175705176Y-81610200D01*
X175705174Y-81610200D01*
X175593222Y-81621226D01*
X175449585Y-81664798D01*
X175449583Y-81664799D01*
X175435226Y-81672473D01*
X175317208Y-81735555D01*
X175201178Y-81830778D01*
X175177321Y-81859848D01*
X171902849Y-85134321D01*
X171873779Y-85158178D01*
X171849922Y-85187248D01*
X171849921Y-85187249D01*
X171778555Y-85274208D01*
X171707799Y-85406585D01*
X171664227Y-85550222D01*
X171649514Y-85699600D01*
X171653201Y-85737033D01*
X171653200Y-114106289D01*
X171611263Y-114148226D01*
X171497995Y-114317744D01*
X171419974Y-114506102D01*
X171380200Y-114706061D01*
X26272180Y-114706061D01*
X26833554Y-114473533D01*
X27461670Y-114053839D01*
X27995839Y-113519670D01*
X28415533Y-112891554D01*
X28704623Y-112193628D01*
X28852000Y-111452715D01*
X28852000Y-110697285D01*
X28704623Y-109956372D01*
X28415533Y-109258446D01*
X27995839Y-108630330D01*
X27461670Y-108096161D01*
X26833554Y-107676467D01*
X26135628Y-107387377D01*
X25394715Y-107240000D01*
X24639285Y-107240000D01*
X23898372Y-107387377D01*
X23200446Y-107676467D01*
X22572330Y-108096161D01*
X22038161Y-108630330D01*
X21618467Y-109258446D01*
X21329377Y-109956372D01*
X21182000Y-110697285D01*
X21182000Y-111452715D01*
X21185860Y-111472120D01*
X18684071Y-109247016D01*
X15392577Y-106118038D01*
X13489000Y-104206432D01*
X13489000Y-101498061D01*
X20555000Y-101498061D01*
X20555000Y-101701939D01*
X20594774Y-101901898D01*
X20672795Y-102090256D01*
X20786063Y-102259774D01*
X20930226Y-102403937D01*
X21099744Y-102517205D01*
X21288102Y-102595226D01*
X21488061Y-102635000D01*
X21691939Y-102635000D01*
X21891898Y-102595226D01*
X22080256Y-102517205D01*
X22249774Y-102403937D01*
X22291711Y-102362000D01*
X28508289Y-102362000D01*
X28550226Y-102403937D01*
X28719744Y-102517205D01*
X28908102Y-102595226D01*
X29108061Y-102635000D01*
X29311939Y-102635000D01*
X29511898Y-102595226D01*
X29700256Y-102517205D01*
X29869774Y-102403937D01*
X30013937Y-102259774D01*
X30127205Y-102090256D01*
X30205226Y-101901898D01*
X30245000Y-101701939D01*
X30245000Y-101498061D01*
X30205226Y-101298102D01*
X30127205Y-101109744D01*
X30013937Y-100940226D01*
X29869774Y-100796063D01*
X29700256Y-100682795D01*
X29511898Y-100604774D01*
X29311939Y-100565000D01*
X29108061Y-100565000D01*
X28908102Y-100604774D01*
X28719744Y-100682795D01*
X28550226Y-100796063D01*
X28508289Y-100838000D01*
X22291711Y-100838000D01*
X22249774Y-100796063D01*
X22080256Y-100682795D01*
X21891898Y-100604774D01*
X21691939Y-100565000D01*
X21488061Y-100565000D01*
X21288102Y-100604774D01*
X21099744Y-100682795D01*
X20930226Y-100796063D01*
X20786063Y-100940226D01*
X20672795Y-101109744D01*
X20594774Y-101298102D01*
X20555000Y-101498061D01*
X13489000Y-101498061D01*
X13489000Y-98994678D01*
X16523116Y-95982632D01*
X19848994Y-92893023D01*
X21185043Y-91731987D01*
X21182000Y-91747285D01*
X21182000Y-92502715D01*
X21329377Y-93243628D01*
X21618467Y-93941554D01*
X22038161Y-94569670D01*
X22572330Y-95103839D01*
X23200446Y-95523533D01*
X23898372Y-95812623D01*
X24639285Y-95960000D01*
X25394715Y-95960000D01*
X26135628Y-95812623D01*
X26833554Y-95523533D01*
X27461670Y-95103839D01*
X27995839Y-94569670D01*
X28415533Y-93941554D01*
X28704623Y-93243628D01*
X28852000Y-92502715D01*
X28852000Y-91747285D01*
X28704623Y-91006372D01*
X28415533Y-90308446D01*
X27995839Y-89680330D01*
X27461670Y-89146161D01*
X26833554Y-88726467D01*
X26135628Y-88437377D01*
X25394715Y-88290000D01*
X25276164Y-88290000D01*
X26798847Y-87052953D01*
X30415132Y-84308952D01*
X34120412Y-81686353D01*
X37910659Y-79188013D01*
X40259656Y-77749061D01*
X166947900Y-77749061D01*
X166947900Y-77952939D01*
X166987674Y-78152898D01*
X167065695Y-78341256D01*
X167178963Y-78510774D01*
X167323126Y-78654937D01*
X167492644Y-78768205D01*
X167681002Y-78846226D01*
X167880961Y-78886000D01*
X168084839Y-78886000D01*
X168284798Y-78846226D01*
X168473156Y-78768205D01*
X168642674Y-78654937D01*
X168684611Y-78613000D01*
X178765201Y-78613000D01*
X178765200Y-78952689D01*
X178723263Y-78994626D01*
X178609995Y-79164144D01*
X178531974Y-79352502D01*
X178492200Y-79552461D01*
X178492200Y-79756339D01*
X178531974Y-79956298D01*
X178609995Y-80144656D01*
X178723263Y-80314174D01*
X178867426Y-80458337D01*
X179036944Y-80571605D01*
X179225302Y-80649626D01*
X179425261Y-80689400D01*
X179629139Y-80689400D01*
X179829098Y-80649626D01*
X180017456Y-80571605D01*
X180186974Y-80458337D01*
X180331137Y-80314174D01*
X180444405Y-80144656D01*
X180522426Y-79956298D01*
X180562200Y-79756339D01*
X180562200Y-79552461D01*
X180522426Y-79352502D01*
X180444405Y-79164144D01*
X180331137Y-78994626D01*
X180289200Y-78952689D01*
X180289200Y-78613000D01*
X188482570Y-78613000D01*
X189814200Y-79944630D01*
X189814201Y-82965888D01*
X189772263Y-83007826D01*
X189658995Y-83177344D01*
X189580974Y-83365702D01*
X189541200Y-83565661D01*
X189541200Y-83769539D01*
X189580974Y-83969498D01*
X189658995Y-84157856D01*
X189772263Y-84327374D01*
X189916426Y-84471537D01*
X190085944Y-84584805D01*
X190274302Y-84662826D01*
X190474261Y-84702600D01*
X190533570Y-84702600D01*
X190620516Y-84789546D01*
X190644378Y-84818622D01*
X190716855Y-84878102D01*
X190760407Y-84913845D01*
X190797954Y-84933914D01*
X190892785Y-84984602D01*
X191036422Y-85028174D01*
X191148374Y-85039200D01*
X191148377Y-85039200D01*
X191185800Y-85042886D01*
X191223223Y-85039200D01*
X201106370Y-85039200D01*
X202088800Y-86021630D01*
X202088800Y-86080939D01*
X202128574Y-86280898D01*
X202206595Y-86469256D01*
X202319863Y-86638774D01*
X202464026Y-86782937D01*
X202633544Y-86896205D01*
X202821902Y-86974226D01*
X203021861Y-87014000D01*
X203225739Y-87014000D01*
X203425698Y-86974226D01*
X203614056Y-86896205D01*
X203783574Y-86782937D01*
X203927737Y-86638774D01*
X204041005Y-86469256D01*
X204119026Y-86280898D01*
X204158800Y-86080939D01*
X204158800Y-85877061D01*
X204119026Y-85677102D01*
X204041005Y-85488744D01*
X203927737Y-85319226D01*
X203783574Y-85175063D01*
X203614056Y-85061795D01*
X203425698Y-84983774D01*
X203225739Y-84944000D01*
X203166430Y-84944000D01*
X201987284Y-83764854D01*
X201963422Y-83735778D01*
X201847392Y-83640555D01*
X201715015Y-83569798D01*
X201571378Y-83526226D01*
X201459426Y-83515200D01*
X201459423Y-83515200D01*
X201422000Y-83511514D01*
X201384577Y-83515200D01*
X191601163Y-83515200D01*
X191571426Y-83365702D01*
X191493405Y-83177344D01*
X191380137Y-83007826D01*
X191338200Y-82965889D01*
X191338200Y-79666423D01*
X191341886Y-79629000D01*
X191338133Y-79590896D01*
X191327174Y-79479622D01*
X191283602Y-79335985D01*
X191235632Y-79246240D01*
X191212845Y-79203607D01*
X191176824Y-79159716D01*
X191117622Y-79087578D01*
X191088547Y-79063717D01*
X189363484Y-77338654D01*
X189339622Y-77309578D01*
X189223592Y-77214355D01*
X189091215Y-77143598D01*
X188947578Y-77100026D01*
X188835626Y-77089000D01*
X188835623Y-77089000D01*
X188798200Y-77085314D01*
X188760777Y-77089000D01*
X179564626Y-77089000D01*
X179527200Y-77085314D01*
X179489775Y-77089000D01*
X168684611Y-77089000D01*
X168642674Y-77047063D01*
X168473156Y-76933795D01*
X168284798Y-76855774D01*
X168084839Y-76816000D01*
X167880961Y-76816000D01*
X167681002Y-76855774D01*
X167492644Y-76933795D01*
X167323126Y-77047063D01*
X167178963Y-77191226D01*
X167065695Y-77360744D01*
X166987674Y-77549102D01*
X166947900Y-77749061D01*
X40259656Y-77749061D01*
X41781588Y-76816754D01*
X45729040Y-74575122D01*
X49748659Y-72465592D01*
X53835983Y-70490507D01*
X57986529Y-68652030D01*
X58701526Y-68363285D01*
X84279000Y-68363285D01*
X84279000Y-69118715D01*
X84426377Y-69859628D01*
X84715467Y-70557554D01*
X85135161Y-71185670D01*
X85669330Y-71719839D01*
X86297446Y-72139533D01*
X86995372Y-72428623D01*
X87736285Y-72576000D01*
X88491715Y-72576000D01*
X89232628Y-72428623D01*
X89930554Y-72139533D01*
X90558670Y-71719839D01*
X91092839Y-71185670D01*
X91512533Y-70557554D01*
X91801623Y-69859628D01*
X91949000Y-69118715D01*
X91949000Y-68363285D01*
X187451000Y-68363285D01*
X187451000Y-69118715D01*
X187598377Y-69859628D01*
X187887467Y-70557554D01*
X188307161Y-71185670D01*
X188841330Y-71719839D01*
X189469446Y-72139533D01*
X190167372Y-72428623D01*
X190908285Y-72576000D01*
X191663715Y-72576000D01*
X192404628Y-72428623D01*
X193102554Y-72139533D01*
X193730670Y-71719839D01*
X194264839Y-71185670D01*
X194684533Y-70557554D01*
X194973623Y-69859628D01*
X195121000Y-69118715D01*
X195121000Y-68363285D01*
X194973623Y-67622372D01*
X194684533Y-66924446D01*
X194264839Y-66296330D01*
X193730670Y-65762161D01*
X193102554Y-65342467D01*
X192404628Y-65053377D01*
X191663715Y-64906000D01*
X190908285Y-64906000D01*
X190167372Y-65053377D01*
X189469446Y-65342467D01*
X188841330Y-65762161D01*
X188307161Y-66296330D01*
X187887467Y-66924446D01*
X187598377Y-67622372D01*
X187451000Y-68363285D01*
X91949000Y-68363285D01*
X91801623Y-67622372D01*
X91512533Y-66924446D01*
X91092839Y-66296330D01*
X90558670Y-65762161D01*
X89930554Y-65342467D01*
X89232628Y-65053377D01*
X88491715Y-64906000D01*
X87736285Y-64906000D01*
X86995372Y-65053377D01*
X86297446Y-65342467D01*
X85669330Y-65762161D01*
X85135161Y-66296330D01*
X84715467Y-66924446D01*
X84426377Y-67622372D01*
X84279000Y-68363285D01*
X58701526Y-68363285D01*
X62195812Y-66952150D01*
X66459081Y-65392786D01*
X70773505Y-63975038D01*
X73380616Y-63196816D01*
X125973000Y-63196816D01*
X125973000Y-63499184D01*
X126031989Y-63795743D01*
X126147701Y-64075095D01*
X126315688Y-64326505D01*
X126529495Y-64540312D01*
X126780905Y-64708299D01*
X127060257Y-64824011D01*
X127356816Y-64883000D01*
X127659184Y-64883000D01*
X127955743Y-64824011D01*
X128235095Y-64708299D01*
X128486505Y-64540312D01*
X128700312Y-64326505D01*
X128868299Y-64075095D01*
X128984011Y-63795743D01*
X129043000Y-63499184D01*
X129043000Y-63398068D01*
X146411993Y-63398068D01*
X146411993Y-63601946D01*
X146451767Y-63801905D01*
X146494491Y-63905050D01*
X146494496Y-64237964D01*
X146451774Y-64341102D01*
X146412000Y-64541061D01*
X146412000Y-64744939D01*
X146451774Y-64944898D01*
X146529795Y-65133256D01*
X146643063Y-65302774D01*
X146787226Y-65446937D01*
X146956744Y-65560205D01*
X147145102Y-65638226D01*
X147345061Y-65678000D01*
X147548939Y-65678000D01*
X147748898Y-65638226D01*
X147937256Y-65560205D01*
X148106774Y-65446937D01*
X148250650Y-65303061D01*
X149714000Y-65303061D01*
X149714000Y-65506939D01*
X149753774Y-65706898D01*
X149831795Y-65895256D01*
X149945063Y-66064774D01*
X150047289Y-66167000D01*
X149945063Y-66269226D01*
X149831795Y-66438744D01*
X149753774Y-66627102D01*
X149714000Y-66827061D01*
X149714000Y-67030939D01*
X149753774Y-67230898D01*
X149831795Y-67419256D01*
X149945063Y-67588774D01*
X150089226Y-67732937D01*
X150258744Y-67846205D01*
X150447102Y-67924226D01*
X150647061Y-67964000D01*
X150850939Y-67964000D01*
X151050898Y-67924226D01*
X151239256Y-67846205D01*
X151408774Y-67732937D01*
X151450711Y-67691000D01*
X152206291Y-67691000D01*
X152248228Y-67732937D01*
X152417746Y-67846205D01*
X152606104Y-67924226D01*
X152806063Y-67964000D01*
X153009941Y-67964000D01*
X153209900Y-67924226D01*
X153398258Y-67846205D01*
X153567776Y-67732937D01*
X153711939Y-67588774D01*
X153825207Y-67419256D01*
X153903228Y-67230898D01*
X153943002Y-67030939D01*
X153943002Y-66827061D01*
X153903228Y-66627102D01*
X153825207Y-66438744D01*
X153711939Y-66269226D01*
X153609731Y-66167018D01*
X153711937Y-66064812D01*
X153825205Y-65895294D01*
X153903226Y-65706936D01*
X153943000Y-65506977D01*
X153943000Y-65303099D01*
X153903226Y-65103140D01*
X153825205Y-64914782D01*
X153711937Y-64745264D01*
X153567774Y-64601101D01*
X153398256Y-64487833D01*
X153209898Y-64409812D01*
X153009939Y-64370038D01*
X152806061Y-64370038D01*
X152606102Y-64409812D01*
X152417744Y-64487833D01*
X152248226Y-64601101D01*
X152206327Y-64643000D01*
X151450711Y-64643000D01*
X151408774Y-64601063D01*
X151239256Y-64487795D01*
X151050898Y-64409774D01*
X150850939Y-64370000D01*
X150647061Y-64370000D01*
X150447102Y-64409774D01*
X150258744Y-64487795D01*
X150089226Y-64601063D01*
X149945063Y-64745226D01*
X149831795Y-64914744D01*
X149753774Y-65103102D01*
X149714000Y-65303061D01*
X148250650Y-65303061D01*
X148250937Y-65302774D01*
X148364205Y-65133256D01*
X148442226Y-64944898D01*
X148482000Y-64744939D01*
X148482000Y-64541061D01*
X148480497Y-64533504D01*
X148488054Y-64535007D01*
X148691932Y-64535007D01*
X148891891Y-64495233D01*
X149080249Y-64417212D01*
X149249767Y-64303944D01*
X149393930Y-64159781D01*
X149507198Y-63990263D01*
X149549924Y-63887114D01*
X149644938Y-63792100D01*
X155028062Y-63792100D01*
X155123069Y-63887107D01*
X155165795Y-63990256D01*
X155279063Y-64159774D01*
X155423226Y-64303937D01*
X155592744Y-64417205D01*
X155781102Y-64495226D01*
X155981061Y-64535000D01*
X156184939Y-64535000D01*
X156192505Y-64533495D01*
X156191000Y-64541061D01*
X156191000Y-64744939D01*
X156230774Y-64944898D01*
X156308795Y-65133256D01*
X156422063Y-65302774D01*
X156566226Y-65446937D01*
X156735744Y-65560205D01*
X156924102Y-65638226D01*
X157124061Y-65678000D01*
X157327939Y-65678000D01*
X157527898Y-65638226D01*
X157716256Y-65560205D01*
X157885774Y-65446937D01*
X158029937Y-65302774D01*
X158143205Y-65133256D01*
X158221226Y-64944898D01*
X158261000Y-64744939D01*
X158261000Y-64541061D01*
X158221226Y-64341102D01*
X158178500Y-64237953D01*
X158178500Y-63905047D01*
X158221226Y-63801898D01*
X158261000Y-63601939D01*
X158261000Y-63398061D01*
X158221226Y-63198102D01*
X158143205Y-63009744D01*
X158029937Y-62840226D01*
X157885774Y-62696063D01*
X157716256Y-62582795D01*
X157527898Y-62504774D01*
X157327939Y-62465000D01*
X157124061Y-62465000D01*
X156924102Y-62504774D01*
X156820953Y-62547500D01*
X156488047Y-62547500D01*
X156470107Y-62540069D01*
X156129207Y-62199169D01*
X156099378Y-62162822D01*
X155954341Y-62043794D01*
X155788869Y-61955348D01*
X155609323Y-61900883D01*
X155469385Y-61887100D01*
X155422600Y-61882492D01*
X155375815Y-61887100D01*
X149297185Y-61887100D01*
X149250400Y-61882492D01*
X149203615Y-61887100D01*
X149063677Y-61900883D01*
X148884131Y-61955348D01*
X148718659Y-62043794D01*
X148573622Y-62162822D01*
X148543793Y-62199169D01*
X148202886Y-62540076D01*
X148184946Y-62547507D01*
X147852040Y-62547507D01*
X147748891Y-62504781D01*
X147548932Y-62465007D01*
X147345054Y-62465007D01*
X147145095Y-62504781D01*
X146956737Y-62582802D01*
X146787219Y-62696070D01*
X146643056Y-62840233D01*
X146529788Y-63009751D01*
X146451767Y-63198109D01*
X146411993Y-63398068D01*
X129043000Y-63398068D01*
X129043000Y-63196816D01*
X128984011Y-62900257D01*
X128868299Y-62620905D01*
X128700312Y-62369495D01*
X128486505Y-62155688D01*
X128235095Y-61987701D01*
X127955743Y-61871989D01*
X127659184Y-61813000D01*
X127356816Y-61813000D01*
X127060257Y-61871989D01*
X126780905Y-61987701D01*
X126529495Y-62155688D01*
X126315688Y-62369495D01*
X126147701Y-62620905D01*
X126031989Y-62900257D01*
X125973000Y-63196816D01*
X73380616Y-63196816D01*
X73557595Y-63143988D01*
X73565854Y-63142381D01*
X73581604Y-63138915D01*
X73597264Y-63135065D01*
X73606169Y-63132694D01*
X79260778Y-61584654D01*
X83190229Y-60611448D01*
X148042000Y-60611448D01*
X148042000Y-60800552D01*
X148078892Y-60986022D01*
X148151259Y-61160731D01*
X148256319Y-61317964D01*
X148390036Y-61451681D01*
X148547269Y-61556741D01*
X148721978Y-61629108D01*
X148907448Y-61666000D01*
X149096552Y-61666000D01*
X149282022Y-61629108D01*
X149456731Y-61556741D01*
X149613964Y-61451681D01*
X149747681Y-61317964D01*
X149852741Y-61160731D01*
X149925108Y-60986022D01*
X149962000Y-60800552D01*
X149962000Y-60611448D01*
X153822000Y-60611448D01*
X153822000Y-60800552D01*
X153858892Y-60986022D01*
X153931259Y-61160731D01*
X154036319Y-61317964D01*
X154170036Y-61451681D01*
X154327269Y-61556741D01*
X154501978Y-61629108D01*
X154687448Y-61666000D01*
X154876552Y-61666000D01*
X155062022Y-61629108D01*
X155236731Y-61556741D01*
X155393964Y-61451681D01*
X155527681Y-61317964D01*
X155632741Y-61160731D01*
X155705108Y-60986022D01*
X155742000Y-60800552D01*
X155742000Y-60611448D01*
X155705108Y-60425978D01*
X155632741Y-60251269D01*
X155527681Y-60094036D01*
X155393964Y-59960319D01*
X155236731Y-59855259D01*
X155062022Y-59782892D01*
X154876552Y-59746000D01*
X154687448Y-59746000D01*
X154501978Y-59782892D01*
X154327269Y-59855259D01*
X154170036Y-59960319D01*
X154036319Y-60094036D01*
X153931259Y-60251269D01*
X153858892Y-60425978D01*
X153822000Y-60611448D01*
X149962000Y-60611448D01*
X149925108Y-60425978D01*
X149852741Y-60251269D01*
X149747681Y-60094036D01*
X149613964Y-59960319D01*
X149456731Y-59855259D01*
X149282022Y-59782892D01*
X149096552Y-59746000D01*
X148907448Y-59746000D01*
X148721978Y-59782892D01*
X148547269Y-59855259D01*
X148390036Y-59960319D01*
X148256319Y-60094036D01*
X148151259Y-60251269D01*
X148078892Y-60425978D01*
X148042000Y-60611448D01*
X83190229Y-60611448D01*
X84943723Y-60177161D01*
X90659306Y-58908948D01*
X91689351Y-58706665D01*
X126073000Y-58706665D01*
X126073000Y-58989335D01*
X126128147Y-59266574D01*
X126236320Y-59527727D01*
X126393363Y-59762759D01*
X126593241Y-59962637D01*
X126828273Y-60119680D01*
X127089426Y-60227853D01*
X127366665Y-60283000D01*
X127649335Y-60283000D01*
X127926574Y-60227853D01*
X128187727Y-60119680D01*
X128422759Y-59962637D01*
X128622637Y-59762759D01*
X128779680Y-59527727D01*
X128887853Y-59266574D01*
X128943000Y-58989335D01*
X128943000Y-58706665D01*
X128887853Y-58429426D01*
X128779680Y-58168273D01*
X128622637Y-57933241D01*
X128422759Y-57733363D01*
X128187727Y-57576320D01*
X127926574Y-57468147D01*
X127649335Y-57413000D01*
X127366665Y-57413000D01*
X127089426Y-57468147D01*
X126828273Y-57576320D01*
X126593241Y-57733363D01*
X126393363Y-57933241D01*
X126236320Y-58168273D01*
X126128147Y-58429426D01*
X126073000Y-58706665D01*
X91689351Y-58706665D01*
X96404212Y-57780749D01*
X102174936Y-56793251D01*
X107968132Y-55947031D01*
X113780170Y-55242616D01*
X119610973Y-54680094D01*
X120702276Y-54590904D01*
X120740842Y-54594686D01*
X120772786Y-54604331D01*
X120802249Y-54619997D01*
X120828104Y-54641085D01*
X120849375Y-54666797D01*
X120865245Y-54696150D01*
X120875112Y-54728025D01*
X120885363Y-54825568D01*
X120885783Y-54827613D01*
X120885905Y-54836175D01*
X120891883Y-54864257D01*
X120894783Y-54892821D01*
X120905259Y-54927092D01*
X120912724Y-54962161D01*
X120915575Y-54970925D01*
X120946232Y-55062986D01*
X120967735Y-55111241D01*
X120987530Y-55160237D01*
X120991857Y-55168373D01*
X121050800Y-55277388D01*
X121084245Y-55326972D01*
X121117005Y-55377035D01*
X121122830Y-55384176D01*
X121201826Y-55479666D01*
X121244275Y-55521820D01*
X121286123Y-55564555D01*
X121293224Y-55570429D01*
X121389263Y-55648757D01*
X121439089Y-55681862D01*
X121488446Y-55715657D01*
X121496552Y-55720040D01*
X121605975Y-55778222D01*
X121661267Y-55801011D01*
X121716263Y-55824583D01*
X121725066Y-55827308D01*
X121843707Y-55863127D01*
X121902391Y-55874747D01*
X121960902Y-55887184D01*
X121970058Y-55888146D01*
X121970063Y-55888147D01*
X121970067Y-55888147D01*
X122093405Y-55900240D01*
X122093407Y-55900240D01*
X122125289Y-55903385D01*
X132747318Y-55905004D01*
X132775501Y-55902233D01*
X132780137Y-55902265D01*
X132789309Y-55901365D01*
X132937210Y-55885820D01*
X132995780Y-55873797D01*
X133054563Y-55862584D01*
X133063385Y-55859921D01*
X133205452Y-55815945D01*
X133260607Y-55792760D01*
X133316062Y-55770355D01*
X133324199Y-55766028D01*
X133455017Y-55695295D01*
X133504603Y-55661849D01*
X133554665Y-55629089D01*
X133561806Y-55623265D01*
X133676394Y-55528468D01*
X133718514Y-55486053D01*
X133761283Y-55444171D01*
X133767157Y-55437070D01*
X133861149Y-55321823D01*
X133894229Y-55272033D01*
X133928048Y-55222643D01*
X133932431Y-55214536D01*
X134002249Y-55083228D01*
X134025034Y-55027946D01*
X134048610Y-54972941D01*
X134051335Y-54964138D01*
X134094318Y-54821769D01*
X134105934Y-54763107D01*
X134118375Y-54704576D01*
X134119338Y-54695411D01*
X134122810Y-54660000D01*
X137645807Y-54660000D01*
X137649000Y-54692420D01*
X137649001Y-57409571D01*
X137645807Y-57442000D01*
X137658550Y-57571383D01*
X137696290Y-57695793D01*
X137757575Y-57810450D01*
X137840052Y-57910948D01*
X137940550Y-57993425D01*
X138055207Y-58054710D01*
X138179617Y-58092450D01*
X138276581Y-58102000D01*
X138309000Y-58105193D01*
X138341419Y-58102000D01*
X141058581Y-58102000D01*
X141091000Y-58105193D01*
X141123419Y-58102000D01*
X141220383Y-58092450D01*
X141344793Y-58054710D01*
X141459450Y-57993425D01*
X141559948Y-57910948D01*
X141642425Y-57810450D01*
X141703710Y-57695793D01*
X141741450Y-57571383D01*
X141754193Y-57442000D01*
X141751000Y-57409581D01*
X141751000Y-54692419D01*
X141754193Y-54660000D01*
X141741450Y-54530617D01*
X141703710Y-54406207D01*
X141642425Y-54291550D01*
X141559948Y-54191052D01*
X141459450Y-54108575D01*
X141344793Y-54047290D01*
X141220383Y-54009550D01*
X141207113Y-54008243D01*
X141091000Y-53996807D01*
X141058581Y-54000000D01*
X138341419Y-54000000D01*
X138309000Y-53996807D01*
X138192887Y-54008243D01*
X138179617Y-54009550D01*
X138055207Y-54047290D01*
X137940550Y-54108575D01*
X137840052Y-54191052D01*
X137757575Y-54291550D01*
X137696290Y-54406207D01*
X137658550Y-54530617D01*
X137645807Y-54660000D01*
X134122810Y-54660000D01*
X134133850Y-54547404D01*
X134133850Y-54547402D01*
X134137000Y-54515419D01*
X134137000Y-54408969D01*
X134149303Y-54283490D01*
X134176370Y-54193843D01*
X134220335Y-54111155D01*
X134279522Y-54038586D01*
X134351684Y-53978888D01*
X134434054Y-53934351D01*
X134523515Y-53906658D01*
X134649495Y-53893417D01*
X139700000Y-53840037D01*
X144744243Y-53893351D01*
G37*
%TD.AperFunction*%
%TD*%
M02*
