<?xml version="1.0" encoding="UTF-8" standalone="no"?>
<!-- Created with Inkscape (http://www.inkscape.org/) -->

<svg
   xmlns:dc="http://purl.org/dc/elements/1.1/"
   xmlns:cc="http://creativecommons.org/ns#"
   xmlns:rdf="http://www.w3.org/1999/02/22-rdf-syntax-ns#"
   xmlns:svg="http://www.w3.org/2000/svg"
   xmlns="http://www.w3.org/2000/svg"
   xmlns:sodipodi="http://sodipodi.sourceforge.net/DTD/sodipodi-0.dtd"
   xmlns:inkscape="http://www.inkscape.org/namespaces/inkscape"
   width="255.04231mm"
   height="240.65411mm"
   viewBox="0 0 903.69322 852.71141"
   id="svg6390"
   version="1.1"
   inkscape:version="0.92.2 5c3e80d, 2017-08-06"
   sodipodi:docname="edge_lit_base_small.svg">
  <defs
     id="defs6392" />
  <sodipodi:namedview
     id="base"
     pagecolor="#ffffff"
     bordercolor="#666666"
     borderopacity="1.0"
     inkscape:pageopacity="0.0"
     inkscape:pageshadow="2"
     inkscape:zoom="0.49497475"
     inkscape:cx="985.52585"
     inkscape:cy="301.32702"
     inkscape:document-units="px"
     inkscape:current-layer="layer1"
     showgrid="false"
     fit-margin-top="0"
     fit-margin-left="0"
     fit-margin-right="0"
     fit-margin-bottom="0"
     inkscape:window-width="1680"
     inkscape:window-height="1005"
     inkscape:window-x="0"
     inkscape:window-y="1"
     inkscape:window-maximized="1"
     inkscape:snap-global="false" />
  <metadata
     id="metadata6395">
    <rdf:RDF>
      <cc:Work
         rdf:about="">
        <dc:format>image/svg+xml</dc:format>
        <dc:type
           rdf:resource="http://purl.org/dc/dcmitype/StillImage" />
        <dc:title></dc:title>
      </cc:Work>
    </rdf:RDF>
  </metadata>
  <g
     inkscape:label="Layer 1"
     inkscape:groupmode="layer"
     id="layer1"
     transform="translate(580.41807,56.420645)">
    <path
       inkscape:connector-curvature="0"
       style="fill:none;stroke:#000000;stroke-width:0.49160716;stroke-linecap:round;stroke-miterlimit:4;stroke-dasharray:none;stroke-dashoffset:0;stroke-opacity:1"
       d="m -567.69569,641.29544 h 434.43676 l -0.0404,-9.375 h 9.27112 l -0.10389,9.375 h 434.6849 v 70.37454 h -408.401416 -62.865714 -406.9814 z"
       id="rect4988"
       sodipodi:nodetypes="ccccccccccc" />
    <path
       style="fill:none;stroke:#ff0000;stroke-width:0.5;stroke-linecap:round;stroke-miterlimit:4;stroke-dasharray:none;stroke-dashoffset:0;stroke-opacity:1"
       d="m -136.72799,696.67805 c -11.15362,-4.50635 -16.54225,-17.2012 -12.03591,-28.35479 2.2134,-5.47837 6.55749,-9.8225 12.03591,-12.0359 h 16.3131 c 5.47841,2.2134 9.82251,6.55753 12.0359,12.0359 4.50635,11.15359 -0.88228,23.84844 -12.0359,28.35479 z"
       id="path4080"
       inkscape:connector-curvature="0"
       sodipodi:nodetypes="csccscc" />
    <g
       id="g977"
       transform="translate(-12.05853,49.964082)">
      <g
         transform="translate(0,-91.875)"
         id="g7064">
        <path
           inkscape:connector-curvature="0"
           style="fill:none;stroke:#000000;stroke-width:0.91391641;stroke-linecap:round;stroke-miterlimit:4;stroke-dasharray:none;stroke-dashoffset:0;stroke-opacity:1"
           d="M -566.07696,147.31299 A 519.08759,322.73154 0 0 1 -116.53386,-14.052769 519.08759,322.73154 0 0 1 333.00914,147.313"
           id="path5664" />
        <path
           inkscape:connector-curvature="0"
           style="fill:none;stroke:#000000;stroke-width:0.91391641;stroke-linecap:round;stroke-miterlimit:4;stroke-dasharray:none;stroke-dashoffset:0;stroke-opacity:1"
           d="m -566.07696,167.7152 a 519.08759,322.73154 0 0 0 449.5431,161.36577 519.08759,322.73154 0 0 0 449.543,-161.36578"
           id="path5666" />
        <path
           inkscape:connector-curvature="0"
           style="fill:none;stroke:#000000;stroke-width:0.5;stroke-linecap:round;stroke-miterlimit:4;stroke-dasharray:none;stroke-dashoffset:0;stroke-opacity:1"
           d="m -528.97345,191.08556 a 6.0824456,6.0824456 0 0 1 6.08245,-6.08244 6.0824456,6.0824456 0 0 1 6.08244,6.08244 6.0824456,6.0824456 0 0 1 -6.08244,6.08245 6.0824456,6.0824456 0 0 1 -6.08245,-6.08245 z"
           id="path5674" />
        <path
           inkscape:connector-curvature="0"
           style="fill:none;stroke:#000000;stroke-width:0.5;stroke-linecap:round;stroke-miterlimit:4;stroke-dasharray:none;stroke-dashoffset:0;stroke-opacity:1"
           d="m -305.40204,273.94271 a 6.0824456,6.0824456 0 0 1 6.08244,-6.08245 6.0824456,6.0824456 0 0 1 6.08245,6.08245 6.0824456,6.0824456 0 0 1 -6.08245,6.08244 6.0824456,6.0824456 0 0 1 -6.08244,-6.08244 z"
           id="path5676" />
        <path
           inkscape:connector-curvature="0"
           style="fill:none;stroke:#000000;stroke-width:0.5;stroke-linecap:round;stroke-miterlimit:4;stroke-dasharray:none;stroke-dashoffset:0;stroke-opacity:1"
           d="m 295.90574,191.08556 a 6.0824456,6.0824456 0 0 0 -6.0824,-6.08244 6.0824456,6.0824456 0 0 0 -6.0825,6.08244 6.0824456,6.0824456 0 0 0 6.0825,6.08245 6.0824456,6.0824456 0 0 0 6.0824,-6.08245 z"
           id="path5680" />
        <path
           inkscape:connector-curvature="0"
           style="fill:none;stroke:#000000;stroke-width:0.5;stroke-linecap:round;stroke-miterlimit:4;stroke-dasharray:none;stroke-dashoffset:0;stroke-opacity:1"
           d="m 72.334343,273.94271 a 6.0824456,6.0824456 0 0 0 -6.0825,-6.08245 6.0824456,6.0824456 0 0 0 -6.0824,6.08245 6.0824456,6.0824456 0 0 0 6.0824,6.08244 6.0824456,6.0824456 0 0 0 6.0825,-6.08244 z"
           id="path5682" />
        <path
           inkscape:connector-curvature="0"
           style="fill:none;stroke:#000000;stroke-width:0.5;stroke-linecap:round;stroke-miterlimit:4;stroke-dasharray:none;stroke-dashoffset:0;stroke-opacity:1"
           d="m -528.97345,123.94265 a 6.0824456,6.0824456 0 0 0 6.08245,6.08244 6.0824456,6.0824456 0 0 0 6.08244,-6.08244 6.0824456,6.0824456 0 0 0 -6.08244,-6.08245 6.0824456,6.0824456 0 0 0 -6.08245,6.08245 z"
           id="path5688" />
        <path
           inkscape:connector-curvature="0"
           style="fill:none;stroke:#000000;stroke-width:0.5;stroke-linecap:round;stroke-miterlimit:4;stroke-dasharray:none;stroke-dashoffset:0;stroke-opacity:1"
           d="m -305.40204,41.085501 a 6.0824456,6.0824456 0 0 0 6.08244,6.08245 6.0824456,6.0824456 0 0 0 6.08245,-6.08245 6.0824456,6.0824456 0 0 0 -6.08245,-6.08245 6.0824456,6.0824456 0 0 0 -6.08244,6.08245 z"
           id="path5690" />
        <path
           inkscape:connector-curvature="0"
           style="fill:none;stroke:#000000;stroke-width:0.5;stroke-linecap:round;stroke-miterlimit:4;stroke-dasharray:none;stroke-dashoffset:0;stroke-opacity:1"
           d="m 295.90574,123.94265 a 6.0824456,6.0824456 0 0 1 -6.0824,6.08244 6.0824456,6.0824456 0 0 1 -6.0825,-6.08244 6.0824456,6.0824456 0 0 1 6.0825,-6.08245 6.0824456,6.0824456 0 0 1 6.0824,6.08245 z"
           id="path5694" />
        <path
           inkscape:connector-curvature="0"
           style="fill:none;stroke:#000000;stroke-width:0.5;stroke-linecap:round;stroke-miterlimit:4;stroke-dasharray:none;stroke-dashoffset:0;stroke-opacity:1"
           d="m 72.334343,41.085501 a 6.0824456,6.0824456 0 0 1 -6.0825,6.08245 6.0824456,6.0824456 0 0 1 -6.0824,-6.08245 6.0824456,6.0824456 0 0 1 6.0824,-6.08245 6.0824456,6.0824456 0 0 1 6.0825,6.08245 z"
           id="path5696" />
        <path
           inkscape:connector-curvature="0"
           style="fill:none;stroke:#000000;stroke-width:1px;stroke-linecap:butt;stroke-linejoin:miter;stroke-opacity:1"
           d="M 333.21614,167.94272 V 147.22843"
           id="path5698" />
        <path
           inkscape:connector-curvature="0"
           style="fill:none;stroke:#000000;stroke-width:1px;stroke-linecap:butt;stroke-linejoin:miter;stroke-opacity:1"
           d="M -566.31036,167.77219 V 147.0579"
           id="path5700" />
        <path
           sodipodi:nodetypes="cssscc"
           inkscape:connector-curvature="0"
           id="path5702"
           d="m -131.53296,31.020661 c 6.8828,-11.01476 21.3917,-14.36439 32.406403,-7.48158 11.0147,6.88277 14.3644,21.39158 7.4816,32.40634 -6.8828,11.01476 -21.391603,14.36439 -32.406403,7.48159 -3.0297,-1.89319 -5.5883,-4.45182 -7.4816,-7.48159 z"
           style="fill:none;stroke:#ff0000;stroke-width:0.5;stroke-linecap:round;stroke-miterlimit:4;stroke-dasharray:none;stroke-dashoffset:0;stroke-opacity:1" />
        <path
           inkscape:connector-curvature="0"
           style="fill:none;stroke:#ff0000;stroke-width:0.3778545;stroke-linecap:round;stroke-miterlimit:4;stroke-dasharray:none;stroke-dashoffset:0;stroke-opacity:1"
           d="M 335.14474,178.89895 H -568.17061 V 147.96392 H 335.14474 Z"
           id="rect5704" />
      </g>
    </g>
    <g
       id="g960"
       transform="translate(-12.05851,50.624998)">
      <path
         id="path4884"
         d="M 333.01684,419.22694 A 519.08759,322.73154 0 0 1 -116.5262,580.59268 519.08759,322.73154 0 0 1 -566.06923,419.22693"
         style="fill:none;stroke:#000000;stroke-width:0.91391641;stroke-linecap:round;stroke-miterlimit:4;stroke-dasharray:none;stroke-dashoffset:0;stroke-opacity:1"
         inkscape:connector-curvature="0" />
      <path
         id="path4886"
         d="M 333.01684,398.82475 A 519.08759,322.73154 0 0 0 -116.5262,237.45897 519.08759,322.73154 0 0 0 -566.06923,398.82475"
         style="fill:none;stroke:#000000;stroke-width:0.91391641;stroke-linecap:round;stroke-miterlimit:4;stroke-dasharray:none;stroke-dashoffset:0;stroke-opacity:1"
         inkscape:connector-curvature="0" />
      <path
         id="path4906"
         d="m 295.91337,375.45443 a 6.0824456,6.0824456 0 0 1 -6.08244,6.08245 6.0824456,6.0824456 0 0 1 -6.08245,-6.08245 6.0824456,6.0824456 0 0 1 6.08245,-6.08244 6.0824456,6.0824456 0 0 1 6.08244,6.08244 z"
         style="fill:none;stroke:#000000;stroke-width:0.5;stroke-linecap:round;stroke-miterlimit:4;stroke-dasharray:none;stroke-dashoffset:0;stroke-opacity:1"
         inkscape:connector-curvature="0" />
      <path
         id="path4908"
         d="m 72.341967,292.59725 a 6.0824456,6.0824456 0 0 1 -6.08244,6.08244 6.0824456,6.0824456 0 0 1 -6.08245,-6.08244 6.0824456,6.0824456 0 0 1 6.08245,-6.08245 6.0824456,6.0824456 0 0 1 6.08244,6.08245 z"
         style="fill:none;stroke:#000000;stroke-width:0.5;stroke-linecap:round;stroke-miterlimit:4;stroke-dasharray:none;stroke-dashoffset:0;stroke-opacity:1"
         inkscape:connector-curvature="0" />
      <path
         id="path4922"
         d="m -528.96574,375.45443 a 6.0824456,6.0824456 0 0 0 6.08244,6.08245 6.0824456,6.0824456 0 0 0 6.08245,-6.08245 6.0824456,6.0824456 0 0 0 -6.08245,-6.08244 6.0824456,6.0824456 0 0 0 -6.08244,6.08244 z"
         style="fill:none;stroke:#000000;stroke-width:0.5;stroke-linecap:round;stroke-miterlimit:4;stroke-dasharray:none;stroke-dashoffset:0;stroke-opacity:1"
         inkscape:connector-curvature="0" />
      <path
         id="path4924"
         d="m -305.39431,292.59725 a 6.0824456,6.0824456 0 0 0 6.08244,6.08244 6.0824456,6.0824456 0 0 0 6.08245,-6.08244 6.0824456,6.0824456 0 0 0 -6.08245,-6.08245 6.0824456,6.0824456 0 0 0 -6.08244,6.08245 z"
         style="fill:none;stroke:#000000;stroke-width:0.5;stroke-linecap:round;stroke-miterlimit:4;stroke-dasharray:none;stroke-dashoffset:0;stroke-opacity:1"
         inkscape:connector-curvature="0" />
      <path
         id="path4946"
         d="m 295.91337,442.59738 a 6.0824456,6.0824456 0 0 0 -6.08244,-6.08245 6.0824456,6.0824456 0 0 0 -6.08245,6.08245 6.0824456,6.0824456 0 0 0 6.08245,6.08244 6.0824456,6.0824456 0 0 0 6.08244,-6.08244 z"
         style="fill:none;stroke:#000000;stroke-width:0.5;stroke-linecap:round;stroke-miterlimit:4;stroke-dasharray:none;stroke-dashoffset:0;stroke-opacity:1"
         inkscape:connector-curvature="0" />
      <path
         id="path4948"
         d="m 72.341967,525.45449 a 6.0824456,6.0824456 0 0 0 -6.08244,-6.08244 6.0824456,6.0824456 0 0 0 -6.08245,6.08244 6.0824456,6.0824456 0 0 0 6.08245,6.08245 6.0824456,6.0824456 0 0 0 6.08244,-6.08245 z"
         style="fill:none;stroke:#000000;stroke-width:0.5;stroke-linecap:round;stroke-miterlimit:4;stroke-dasharray:none;stroke-dashoffset:0;stroke-opacity:1"
         inkscape:connector-curvature="0" />
      <path
         id="path4952"
         d="m -528.96574,442.59738 a 6.0824456,6.0824456 0 0 1 6.08244,-6.08245 6.0824456,6.0824456 0 0 1 6.08245,6.08245 6.0824456,6.0824456 0 0 1 -6.08245,6.08244 6.0824456,6.0824456 0 0 1 -6.08244,-6.08244 z"
         style="fill:none;stroke:#000000;stroke-width:0.5;stroke-linecap:round;stroke-miterlimit:4;stroke-dasharray:none;stroke-dashoffset:0;stroke-opacity:1"
         inkscape:connector-curvature="0" />
      <path
         id="path4954"
         d="m -305.39431,525.45449 a 6.0824456,6.0824456 0 0 1 6.08244,-6.08244 6.0824456,6.0824456 0 0 1 6.08245,6.08244 6.0824456,6.0824456 0 0 1 -6.08245,6.08245 6.0824456,6.0824456 0 0 1 -6.08244,-6.08245 z"
         style="fill:none;stroke:#000000;stroke-width:0.5;stroke-linecap:round;stroke-miterlimit:4;stroke-dasharray:none;stroke-dashoffset:0;stroke-opacity:1"
         inkscape:connector-curvature="0" />
      <path
         id="path4972"
         d="m -566.27619,398.59725 v 20.71429"
         style="fill:none;stroke:#000000;stroke-width:1px;stroke-linecap:butt;stroke-linejoin:miter;stroke-opacity:1"
         inkscape:connector-curvature="0" />
      <path
         id="path4976"
         d="m 333.25028,398.76778 v 20.71429"
         style="fill:none;stroke:#000000;stroke-width:1px;stroke-linecap:butt;stroke-linejoin:miter;stroke-opacity:1"
         inkscape:connector-curvature="0" />
      <rect
         y="565.48969"
         x="-121.45625"
         height="9.8601198"
         width="9.8601208"
         id="rect925"
         style="opacity:1;fill:none;fill-opacity:1;stroke:#000000;stroke-width:0.7698012;stroke-linecap:round;stroke-miterlimit:4;stroke-dasharray:none;stroke-dashoffset:0;stroke-opacity:1" />
      <rect
         transform="scale(-1)"
         style="opacity:1;fill:none;fill-opacity:1;stroke:#000000;stroke-width:0.7698012;stroke-linecap:round;stroke-miterlimit:4;stroke-dasharray:none;stroke-dashoffset:0;stroke-opacity:1"
         id="rect929"
         width="9.8601208"
         height="9.8601198"
         x="111.59613"
         y="-252.56198" />
    </g>
    <path
       sodipodi:nodetypes="ccccccccccc"
       id="path944"
       d="m 310.55272,786.66999 h -434.43673 l 0.0404,9.375 h -9.27112 l 0.10389,-9.375 h -434.6849 v -70.37454 h 408.40142 62.865708 406.981432 z"
       style="fill:none;stroke:#000000;stroke-width:0.49160716;stroke-linecap:round;stroke-miterlimit:4;stroke-dasharray:none;stroke-dashoffset:0;stroke-opacity:1"
       inkscape:connector-curvature="0" />
  </g>
</svg>
