<?xml version="1.0" encoding="UTF-8" standalone="no"?>
<!-- Created with Inkscape (http://www.inkscape.org/) -->

<svg
   xmlns:dc="http://purl.org/dc/elements/1.1/"
   xmlns:cc="http://creativecommons.org/ns#"
   xmlns:rdf="http://www.w3.org/1999/02/22-rdf-syntax-ns#"
   xmlns:svg="http://www.w3.org/2000/svg"
   xmlns="http://www.w3.org/2000/svg"
   xmlns:sodipodi="http://sodipodi.sourceforge.net/DTD/sodipodi-0.dtd"
   xmlns:inkscape="http://www.inkscape.org/namespaces/inkscape"
   width="255.0423mm"
   height="234.00925mm"
   viewBox="0 0 903.69317 829.16661"
   id="svg6390"
   version="1.1"
   inkscape:version="0.91 r13725"
   sodipodi:docname="edge_lit_base.svg">
  <defs
     id="defs6392" />
  <sodipodi:namedview
     id="base"
     pagecolor="#ffffff"
     bordercolor="#666666"
     borderopacity="1.0"
     inkscape:pageopacity="0.0"
     inkscape:pageshadow="2"
     inkscape:zoom="0.7"
     inkscape:cx="330.26364"
     inkscape:cy="398.29069"
     inkscape:document-units="px"
     inkscape:current-layer="layer1"
     showgrid="false"
     fit-margin-top="0"
     fit-margin-left="0"
     fit-margin-right="0"
     fit-margin-bottom="0"
     inkscape:window-width="1366"
     inkscape:window-height="746"
     inkscape:window-x="-8"
     inkscape:window-y="-8"
     inkscape:window-maximized="1" />
  <metadata
     id="metadata6395">
    <rdf:RDF>
      <cc:Work
         rdf:about="">
        <dc:format>image/svg+xml</dc:format>
        <dc:type
           rdf:resource="http://purl.org/dc/dcmitype/StillImage" />
        <dc:title></dc:title>
      </cc:Work>
    </rdf:RDF>
  </metadata>
  <g
     inkscape:label="Layer 1"
     inkscape:groupmode="layer"
     id="layer1"
     transform="translate(568.35954,14.509727)">
    <path
       inkscape:connector-curvature="0"
       style="fill:none;stroke:#000000;stroke-width:0.49160716;stroke-linecap:round;stroke-miterlimit:4;stroke-dasharray:none;stroke-dashoffset:0;stroke-opacity:1"
       d="m -567.69569,673.17044 878.24853,0 0,70.37454 -878.24853,0 z"
       id="rect4988" />
    <path
       style="fill:none;stroke:#ff0000;stroke-width:0.5;stroke-linecap:round;stroke-miterlimit:4;stroke-dasharray:none;stroke-dashoffset:0;stroke-opacity:1"
       d="m -136.72799,728.55305 c -11.15362,-4.50635 -16.54225,-17.2012 -12.03591,-28.35479 2.2134,-5.47837 6.55749,-9.8225 12.03591,-12.0359 l 16.3131,0 c 5.47841,2.2134 9.82251,6.55753 12.0359,12.0359 4.50635,11.15359 -0.88228,23.84844 -12.0359,28.35479 z"
       id="path4080"
       inkscape:connector-curvature="0"
       sodipodi:nodetypes="csccscc" />
    <path
       style="fill:none;stroke:#000000;stroke-width:0.49160716;stroke-linecap:round;stroke-miterlimit:4;stroke-dashoffset:0;stroke-opacity:1"
       d="m 310.55284,744.03658 0,70.37453 -878.24853,0 0,-70.37453"
       id="rect5735"
       inkscape:connector-curvature="0"
       sodipodi:nodetypes="cccc" />
    <path
       inkscape:connector-curvature="0"
       style="fill:none;stroke:#000000;stroke-width:0.91391641;stroke-linecap:round;stroke-miterlimit:4;stroke-dasharray:none;stroke-dashoffset:0;stroke-opacity:1"
       d="M 333.01684,511.10194 A 519.08759,322.73154 0 0 1 -116.5262,672.46768 519.08759,322.73154 0 0 1 -566.06923,511.10193"
       id="path4884" />
    <path
       inkscape:connector-curvature="0"
       style="fill:none;stroke:#000000;stroke-width:0.91391641;stroke-linecap:round;stroke-miterlimit:4;stroke-dasharray:none;stroke-dashoffset:0;stroke-opacity:1"
       d="M 333.01684,490.69975 A 519.08759,322.73154 0 0 0 -116.5262,329.33397 519.08759,322.73154 0 0 0 -566.06923,490.69975"
       id="path4886" />
    <path
       inkscape:connector-curvature="0"
       style="fill:none;stroke:#000000;stroke-width:0.5;stroke-linecap:round;stroke-miterlimit:4;stroke-dasharray:none;stroke-dashoffset:0;stroke-opacity:1"
       d="m 295.91337,467.32943 a 6.0824456,6.0824456 0 0 1 -6.08244,6.08245 6.0824456,6.0824456 0 0 1 -6.08245,-6.08245 6.0824456,6.0824456 0 0 1 6.08245,-6.08244 6.0824456,6.0824456 0 0 1 6.08244,6.08244 z"
       id="path4906" />
    <path
       inkscape:connector-curvature="0"
       style="fill:none;stroke:#000000;stroke-width:0.5;stroke-linecap:round;stroke-miterlimit:4;stroke-dasharray:none;stroke-dashoffset:0;stroke-opacity:1"
       d="m 72.341967,384.47225 a 6.0824456,6.0824456 0 0 1 -6.08244,6.08244 6.0824456,6.0824456 0 0 1 -6.08245,-6.08244 6.0824456,6.0824456 0 0 1 6.08245,-6.08245 6.0824456,6.0824456 0 0 1 6.08244,6.08245 z"
       id="path4908" />
    <path
       inkscape:connector-curvature="0"
       style="fill:none;stroke:#000000;stroke-width:0.5;stroke-linecap:round;stroke-miterlimit:4;stroke-dasharray:none;stroke-dashoffset:0;stroke-opacity:1"
       d="m -528.96574,467.32943 a 6.0824456,6.0824456 0 0 0 6.08244,6.08245 6.0824456,6.0824456 0 0 0 6.08245,-6.08245 6.0824456,6.0824456 0 0 0 -6.08245,-6.08244 6.0824456,6.0824456 0 0 0 -6.08244,6.08244 z"
       id="path4922" />
    <path
       inkscape:connector-curvature="0"
       style="fill:none;stroke:#000000;stroke-width:0.5;stroke-linecap:round;stroke-miterlimit:4;stroke-dasharray:none;stroke-dashoffset:0;stroke-opacity:1"
       d="m -305.39431,384.47225 a 6.0824456,6.0824456 0 0 0 6.08244,6.08244 6.0824456,6.0824456 0 0 0 6.08245,-6.08244 6.0824456,6.0824456 0 0 0 -6.08245,-6.08245 6.0824456,6.0824456 0 0 0 -6.08244,6.08245 z"
       id="path4924" />
    <path
       inkscape:connector-curvature="0"
       style="fill:none;stroke:#000000;stroke-width:0.5;stroke-linecap:round;stroke-miterlimit:4;stroke-dasharray:none;stroke-dashoffset:0;stroke-opacity:1"
       d="m 295.91337,534.47238 a 6.0824456,6.0824456 0 0 0 -6.08244,-6.08245 6.0824456,6.0824456 0 0 0 -6.08245,6.08245 6.0824456,6.0824456 0 0 0 6.08245,6.08244 6.0824456,6.0824456 0 0 0 6.08244,-6.08244 z"
       id="path4946" />
    <path
       inkscape:connector-curvature="0"
       style="fill:none;stroke:#000000;stroke-width:0.5;stroke-linecap:round;stroke-miterlimit:4;stroke-dasharray:none;stroke-dashoffset:0;stroke-opacity:1"
       d="m 72.341967,617.32949 a 6.0824456,6.0824456 0 0 0 -6.08244,-6.08244 6.0824456,6.0824456 0 0 0 -6.08245,6.08244 6.0824456,6.0824456 0 0 0 6.08245,6.08245 6.0824456,6.0824456 0 0 0 6.08244,-6.08245 z"
       id="path4948" />
    <path
       inkscape:connector-curvature="0"
       style="fill:none;stroke:#000000;stroke-width:0.5;stroke-linecap:round;stroke-miterlimit:4;stroke-dasharray:none;stroke-dashoffset:0;stroke-opacity:1"
       d="m -528.96574,534.47238 a 6.0824456,6.0824456 0 0 1 6.08244,-6.08245 6.0824456,6.0824456 0 0 1 6.08245,6.08245 6.0824456,6.0824456 0 0 1 -6.08245,6.08244 6.0824456,6.0824456 0 0 1 -6.08244,-6.08244 z"
       id="path4952" />
    <path
       inkscape:connector-curvature="0"
       style="fill:none;stroke:#000000;stroke-width:0.5;stroke-linecap:round;stroke-miterlimit:4;stroke-dasharray:none;stroke-dashoffset:0;stroke-opacity:1"
       d="m -305.39431,617.32949 a 6.0824456,6.0824456 0 0 1 6.08244,-6.08244 6.0824456,6.0824456 0 0 1 6.08245,6.08244 6.0824456,6.0824456 0 0 1 -6.08245,6.08245 6.0824456,6.0824456 0 0 1 -6.08244,-6.08245 z"
       id="path4954" />
    <path
       inkscape:connector-curvature="0"
       style="fill:none;stroke:#000000;stroke-width:1px;stroke-linecap:butt;stroke-linejoin:miter;stroke-opacity:1"
       d="m -566.27619,490.47225 0,20.71429"
       id="path4972" />
    <path
       inkscape:connector-curvature="0"
       style="fill:none;stroke:#000000;stroke-width:1px;stroke-linecap:butt;stroke-linejoin:miter;stroke-opacity:1"
       d="m 333.25028,490.64278 0,20.71429"
       id="path4976" />
    <g
       id="g7064">
      <path
         id="path5664"
         d="M -566.07696,147.31299 A 519.08759,322.73154 0 0 1 -116.53386,-14.052769 519.08759,322.73154 0 0 1 333.00914,147.313"
         style="fill:none;stroke:#000000;stroke-width:0.91391641;stroke-linecap:round;stroke-miterlimit:4;stroke-dasharray:none;stroke-dashoffset:0;stroke-opacity:1"
         inkscape:connector-curvature="0" />
      <path
         id="path5666"
         d="m -566.07696,167.7152 a 519.08759,322.73154 0 0 0 449.5431,161.36577 519.08759,322.73154 0 0 0 449.543,-161.36578"
         style="fill:none;stroke:#000000;stroke-width:0.91391641;stroke-linecap:round;stroke-miterlimit:4;stroke-dasharray:none;stroke-dashoffset:0;stroke-opacity:1"
         inkscape:connector-curvature="0" />
      <path
         id="path5674"
         d="m -528.97345,191.08556 a 6.0824456,6.0824456 0 0 1 6.08245,-6.08244 6.0824456,6.0824456 0 0 1 6.08244,6.08244 6.0824456,6.0824456 0 0 1 -6.08244,6.08245 6.0824456,6.0824456 0 0 1 -6.08245,-6.08245 z"
         style="fill:none;stroke:#000000;stroke-width:0.5;stroke-linecap:round;stroke-miterlimit:4;stroke-dasharray:none;stroke-dashoffset:0;stroke-opacity:1"
         inkscape:connector-curvature="0" />
      <path
         id="path5676"
         d="m -305.40204,273.94271 a 6.0824456,6.0824456 0 0 1 6.08244,-6.08245 6.0824456,6.0824456 0 0 1 6.08245,6.08245 6.0824456,6.0824456 0 0 1 -6.08245,6.08244 6.0824456,6.0824456 0 0 1 -6.08244,-6.08244 z"
         style="fill:none;stroke:#000000;stroke-width:0.5;stroke-linecap:round;stroke-miterlimit:4;stroke-dasharray:none;stroke-dashoffset:0;stroke-opacity:1"
         inkscape:connector-curvature="0" />
      <path
         id="path5680"
         d="m 295.90574,191.08556 a 6.0824456,6.0824456 0 0 0 -6.0824,-6.08244 6.0824456,6.0824456 0 0 0 -6.0825,6.08244 6.0824456,6.0824456 0 0 0 6.0825,6.08245 6.0824456,6.0824456 0 0 0 6.0824,-6.08245 z"
         style="fill:none;stroke:#000000;stroke-width:0.5;stroke-linecap:round;stroke-miterlimit:4;stroke-dasharray:none;stroke-dashoffset:0;stroke-opacity:1"
         inkscape:connector-curvature="0" />
      <path
         id="path5682"
         d="m 72.334343,273.94271 a 6.0824456,6.0824456 0 0 0 -6.0825,-6.08245 6.0824456,6.0824456 0 0 0 -6.0824,6.08245 6.0824456,6.0824456 0 0 0 6.0824,6.08244 6.0824456,6.0824456 0 0 0 6.0825,-6.08244 z"
         style="fill:none;stroke:#000000;stroke-width:0.5;stroke-linecap:round;stroke-miterlimit:4;stroke-dasharray:none;stroke-dashoffset:0;stroke-opacity:1"
         inkscape:connector-curvature="0" />
      <path
         id="path5688"
         d="m -528.97345,123.94265 a 6.0824456,6.0824456 0 0 0 6.08245,6.08244 6.0824456,6.0824456 0 0 0 6.08244,-6.08244 6.0824456,6.0824456 0 0 0 -6.08244,-6.08245 6.0824456,6.0824456 0 0 0 -6.08245,6.08245 z"
         style="fill:none;stroke:#000000;stroke-width:0.5;stroke-linecap:round;stroke-miterlimit:4;stroke-dasharray:none;stroke-dashoffset:0;stroke-opacity:1"
         inkscape:connector-curvature="0" />
      <path
         id="path5690"
         d="m -305.40204,41.085501 a 6.0824456,6.0824456 0 0 0 6.08244,6.08245 6.0824456,6.0824456 0 0 0 6.08245,-6.08245 6.0824456,6.0824456 0 0 0 -6.08245,-6.08245 6.0824456,6.0824456 0 0 0 -6.08244,6.08245 z"
         style="fill:none;stroke:#000000;stroke-width:0.5;stroke-linecap:round;stroke-miterlimit:4;stroke-dasharray:none;stroke-dashoffset:0;stroke-opacity:1"
         inkscape:connector-curvature="0" />
      <path
         id="path5694"
         d="m 295.90574,123.94265 a 6.0824456,6.0824456 0 0 1 -6.0824,6.08244 6.0824456,6.0824456 0 0 1 -6.0825,-6.08244 6.0824456,6.0824456 0 0 1 6.0825,-6.08245 6.0824456,6.0824456 0 0 1 6.0824,6.08245 z"
         style="fill:none;stroke:#000000;stroke-width:0.5;stroke-linecap:round;stroke-miterlimit:4;stroke-dasharray:none;stroke-dashoffset:0;stroke-opacity:1"
         inkscape:connector-curvature="0" />
      <path
         id="path5696"
         d="m 72.334343,41.085501 a 6.0824456,6.0824456 0 0 1 -6.0825,6.08245 6.0824456,6.0824456 0 0 1 -6.0824,-6.08245 6.0824456,6.0824456 0 0 1 6.0824,-6.08245 6.0824456,6.0824456 0 0 1 6.0825,6.08245 z"
         style="fill:none;stroke:#000000;stroke-width:0.5;stroke-linecap:round;stroke-miterlimit:4;stroke-dasharray:none;stroke-dashoffset:0;stroke-opacity:1"
         inkscape:connector-curvature="0" />
      <path
         id="path5698"
         d="m 333.21614,167.94272 0,-20.71429"
         style="fill:none;stroke:#000000;stroke-width:1px;stroke-linecap:butt;stroke-linejoin:miter;stroke-opacity:1"
         inkscape:connector-curvature="0" />
      <path
         id="path5700"
         d="m -566.31036,167.77219 0,-20.71429"
         style="fill:none;stroke:#000000;stroke-width:1px;stroke-linecap:butt;stroke-linejoin:miter;stroke-opacity:1"
         inkscape:connector-curvature="0" />
      <path
         style="fill:none;stroke:#ff0000;stroke-width:0.5;stroke-linecap:round;stroke-miterlimit:4;stroke-dasharray:none;stroke-dashoffset:0;stroke-opacity:1"
         d="m -131.53296,31.020661 c 6.8828,-11.01476 21.3917,-14.36439 32.406403,-7.48158 11.0147,6.88277 14.3644,21.39158 7.4816,32.40634 -6.8828,11.01476 -21.391603,14.36439 -32.406403,7.48159 -3.0297,-1.89319 -5.5883,-4.45182 -7.4816,-7.48159 z"
         id="path5702"
         inkscape:connector-curvature="0"
         sodipodi:nodetypes="cssscc" />
      <path
         id="rect5704"
         d="m 335.14474,178.89895 -903.31535,0 0,-30.93503 903.31535,0 z"
         style="fill:none;stroke:#ff0000;stroke-width:0.3778545;stroke-linecap:round;stroke-miterlimit:4;stroke-dasharray:none;stroke-dashoffset:0;stroke-opacity:1"
         inkscape:connector-curvature="0" />
    </g>
  </g>
</svg>
