%TF.GenerationSoftware,KiCad,Pcbnew,5.1.8-db9833491~88~ubuntu20.04.1*%
%TF.CreationDate,2020-12-25T16:42:28+05:30*%
%TF.ProjectId,halo,68616c6f-2e6b-4696-9361-645f70636258,v1*%
%TF.SameCoordinates,Original*%
%TF.FileFunction,Soldermask,Top*%
%TF.FilePolarity,Negative*%
%FSLAX46Y46*%
G04 Gerber Fmt 4.6, Leading zero omitted, Abs format (unit mm)*
G04 Created by KiCad (PCBNEW 5.1.8-db9833491~88~ubuntu20.04.1) date 2020-12-25 16:42:28*
%MOMM*%
%LPD*%
G01*
G04 APERTURE LIST*
%ADD10C,2.032000*%
%ADD11C,10.668000*%
%ADD12C,6.400000*%
%ADD13C,0.800000*%
%ADD14R,2.400000X2.800000*%
%ADD15C,1.600000*%
%ADD16C,1.800000*%
%ADD17R,1.905000X1.016000*%
%ADD18C,3.175000*%
%ADD19C,0.650000*%
%ADD20R,2.180000X2.000000*%
%ADD21R,0.300000X1.150000*%
%ADD22R,0.600000X1.150000*%
%ADD23R,2.000000X3.800000*%
%ADD24R,2.000000X1.500000*%
%ADD25R,1.500000X1.000000*%
%ADD26R,2.300000X2.500000*%
%ADD27C,1.000000*%
%ADD28R,2.540000X1.016000*%
%ADD29R,1.016000X2.540000*%
%ADD30C,0.100000*%
%ADD31R,1.200000X1.400000*%
%ADD32R,3.150000X1.000000*%
%ADD33R,2.500000X2.300000*%
%ADD34C,2.374900*%
%ADD35C,0.990600*%
%ADD36C,0.787400*%
%ADD37R,1.000000X3.150000*%
%ADD38R,1.550000X1.300000*%
%ADD39R,0.420000X0.650000*%
%ADD40C,0.254000*%
G04 APERTURE END LIST*
D10*
%TO.C,J1*%
X147955000Y-68580000D03*
X131445000Y-68580000D03*
D11*
X139700000Y-68580000D03*
%TD*%
%TO.C,C29*%
G36*
G01*
X114775000Y-113850000D02*
X113825000Y-113850000D01*
G75*
G02*
X113575000Y-113600000I0J250000D01*
G01*
X113575000Y-113100000D01*
G75*
G02*
X113825000Y-112850000I250000J0D01*
G01*
X114775000Y-112850000D01*
G75*
G02*
X115025000Y-113100000I0J-250000D01*
G01*
X115025000Y-113600000D01*
G75*
G02*
X114775000Y-113850000I-250000J0D01*
G01*
G37*
G36*
G01*
X114775000Y-115750000D02*
X113825000Y-115750000D01*
G75*
G02*
X113575000Y-115500000I0J250000D01*
G01*
X113575000Y-115000000D01*
G75*
G02*
X113825000Y-114750000I250000J0D01*
G01*
X114775000Y-114750000D01*
G75*
G02*
X115025000Y-115000000I0J-250000D01*
G01*
X115025000Y-115500000D01*
G75*
G02*
X114775000Y-115750000I-250000J0D01*
G01*
G37*
%TD*%
D12*
%TO.C,SC4*%
X237998000Y-63500000D03*
D13*
X240398000Y-63500000D03*
X239695056Y-65197056D03*
X237998000Y-65900000D03*
X236300944Y-65197056D03*
X235598000Y-63500000D03*
X236300944Y-61802944D03*
X237998000Y-61100000D03*
X239695056Y-61802944D03*
%TD*%
%TO.C,C17*%
G36*
G01*
X150335000Y-79001200D02*
X149385000Y-79001200D01*
G75*
G02*
X149135000Y-78751200I0J250000D01*
G01*
X149135000Y-78251200D01*
G75*
G02*
X149385000Y-78001200I250000J0D01*
G01*
X150335000Y-78001200D01*
G75*
G02*
X150585000Y-78251200I0J-250000D01*
G01*
X150585000Y-78751200D01*
G75*
G02*
X150335000Y-79001200I-250000J0D01*
G01*
G37*
G36*
G01*
X150335000Y-80901200D02*
X149385000Y-80901200D01*
G75*
G02*
X149135000Y-80651200I0J250000D01*
G01*
X149135000Y-80151200D01*
G75*
G02*
X149385000Y-79901200I250000J0D01*
G01*
X150335000Y-79901200D01*
G75*
G02*
X150585000Y-80151200I0J-250000D01*
G01*
X150585000Y-80651200D01*
G75*
G02*
X150335000Y-80901200I-250000J0D01*
G01*
G37*
%TD*%
D14*
%TO.C,J3*%
X124445000Y-68250000D03*
X124445000Y-62150000D03*
X113045000Y-62150000D03*
X113045000Y-68250000D03*
D15*
X118745000Y-62150000D03*
D16*
X118745000Y-66650000D03*
%TD*%
D17*
%TO.C,P7*%
X150241000Y-113030000D03*
X146939000Y-115570000D03*
X150241000Y-118110000D03*
X146939000Y-120650000D03*
X150241000Y-123190000D03*
X146939000Y-123190000D03*
X150241000Y-120650000D03*
X146939000Y-118110000D03*
X150241000Y-115570000D03*
X146939000Y-113030000D03*
D18*
X139065000Y-122555000D03*
X139065000Y-113665000D03*
%TD*%
D17*
%TO.C,P5*%
X128651000Y-124460000D03*
X125349000Y-121920000D03*
X128651000Y-119380000D03*
X125349000Y-116840000D03*
X128651000Y-114300000D03*
X125349000Y-111760000D03*
X128651000Y-111760000D03*
X125349000Y-114300000D03*
X128651000Y-116840000D03*
X125349000Y-119380000D03*
X128651000Y-121920000D03*
X125349000Y-124460000D03*
D18*
X143510000Y-113030000D03*
X143510000Y-123190000D03*
%TD*%
D19*
%TO.C,J2*%
X155225000Y-65405000D03*
X161005000Y-65405000D03*
D20*
X153005000Y-61975000D03*
X163225000Y-61975000D03*
X153005000Y-65905000D03*
X163225000Y-65905000D03*
D21*
X157865000Y-66480000D03*
X158365000Y-66480000D03*
X157365000Y-66480000D03*
X158865000Y-66480000D03*
X156865000Y-66480000D03*
X159365000Y-66480000D03*
X156365000Y-66480000D03*
X159865000Y-66480000D03*
D22*
X154915000Y-66480000D03*
X155715000Y-66480000D03*
X160515000Y-66480000D03*
X161315000Y-66480000D03*
%TD*%
%TO.C,C20*%
G36*
G01*
X176055000Y-70300000D02*
X177005000Y-70300000D01*
G75*
G02*
X177255000Y-70550000I0J-250000D01*
G01*
X177255000Y-71050000D01*
G75*
G02*
X177005000Y-71300000I-250000J0D01*
G01*
X176055000Y-71300000D01*
G75*
G02*
X175805000Y-71050000I0J250000D01*
G01*
X175805000Y-70550000D01*
G75*
G02*
X176055000Y-70300000I250000J0D01*
G01*
G37*
G36*
G01*
X176055000Y-68400000D02*
X177005000Y-68400000D01*
G75*
G02*
X177255000Y-68650000I0J-250000D01*
G01*
X177255000Y-69150000D01*
G75*
G02*
X177005000Y-69400000I-250000J0D01*
G01*
X176055000Y-69400000D01*
G75*
G02*
X175805000Y-69150000I0J250000D01*
G01*
X175805000Y-68650000D01*
G75*
G02*
X176055000Y-68400000I250000J0D01*
G01*
G37*
%TD*%
D23*
%TO.C,U2*%
X87020000Y-80010000D03*
D24*
X93320000Y-80010000D03*
X93320000Y-77710000D03*
X93320000Y-82310000D03*
%TD*%
%TO.C,R8*%
G36*
G01*
X199332002Y-65386000D02*
X198431998Y-65386000D01*
G75*
G02*
X198182000Y-65136002I0J249998D01*
G01*
X198182000Y-64610998D01*
G75*
G02*
X198431998Y-64361000I249998J0D01*
G01*
X199332002Y-64361000D01*
G75*
G02*
X199582000Y-64610998I0J-249998D01*
G01*
X199582000Y-65136002D01*
G75*
G02*
X199332002Y-65386000I-249998J0D01*
G01*
G37*
G36*
G01*
X199332002Y-67211000D02*
X198431998Y-67211000D01*
G75*
G02*
X198182000Y-66961002I0J249998D01*
G01*
X198182000Y-66435998D01*
G75*
G02*
X198431998Y-66186000I249998J0D01*
G01*
X199332002Y-66186000D01*
G75*
G02*
X199582000Y-66435998I0J-249998D01*
G01*
X199582000Y-66961002D01*
G75*
G02*
X199332002Y-67211000I-249998J0D01*
G01*
G37*
%TD*%
D25*
%TO.C,D2*%
X24040000Y-106375000D03*
X24040000Y-103175000D03*
X19140000Y-106375000D03*
X19140000Y-103175000D03*
%TD*%
D26*
%TO.C,D33*%
X145415000Y-80400000D03*
X145415000Y-84700000D03*
%TD*%
%TO.C,C11*%
G36*
G01*
X43975000Y-89350000D02*
X44925000Y-89350000D01*
G75*
G02*
X45175000Y-89600000I0J-250000D01*
G01*
X45175000Y-90100000D01*
G75*
G02*
X44925000Y-90350000I-250000J0D01*
G01*
X43975000Y-90350000D01*
G75*
G02*
X43725000Y-90100000I0J250000D01*
G01*
X43725000Y-89600000D01*
G75*
G02*
X43975000Y-89350000I250000J0D01*
G01*
G37*
G36*
G01*
X43975000Y-87450000D02*
X44925000Y-87450000D01*
G75*
G02*
X45175000Y-87700000I0J-250000D01*
G01*
X45175000Y-88200000D01*
G75*
G02*
X44925000Y-88450000I-250000J0D01*
G01*
X43975000Y-88450000D01*
G75*
G02*
X43725000Y-88200000I0J250000D01*
G01*
X43725000Y-87700000D01*
G75*
G02*
X43975000Y-87450000I250000J0D01*
G01*
G37*
%TD*%
%TO.C,C18*%
G36*
G01*
X133825000Y-113850000D02*
X132875000Y-113850000D01*
G75*
G02*
X132625000Y-113600000I0J250000D01*
G01*
X132625000Y-113100000D01*
G75*
G02*
X132875000Y-112850000I250000J0D01*
G01*
X133825000Y-112850000D01*
G75*
G02*
X134075000Y-113100000I0J-250000D01*
G01*
X134075000Y-113600000D01*
G75*
G02*
X133825000Y-113850000I-250000J0D01*
G01*
G37*
G36*
G01*
X133825000Y-115750000D02*
X132875000Y-115750000D01*
G75*
G02*
X132625000Y-115500000I0J250000D01*
G01*
X132625000Y-115000000D01*
G75*
G02*
X132875000Y-114750000I250000J0D01*
G01*
X133825000Y-114750000D01*
G75*
G02*
X134075000Y-115000000I0J-250000D01*
G01*
X134075000Y-115500000D01*
G75*
G02*
X133825000Y-115750000I-250000J0D01*
G01*
G37*
%TD*%
%TO.C,C10*%
G36*
G01*
X213545000Y-64295000D02*
X213545000Y-65245000D01*
G75*
G02*
X213295000Y-65495000I-250000J0D01*
G01*
X212795000Y-65495000D01*
G75*
G02*
X212545000Y-65245000I0J250000D01*
G01*
X212545000Y-64295000D01*
G75*
G02*
X212795000Y-64045000I250000J0D01*
G01*
X213295000Y-64045000D01*
G75*
G02*
X213545000Y-64295000I0J-250000D01*
G01*
G37*
G36*
G01*
X215445000Y-64295000D02*
X215445000Y-65245000D01*
G75*
G02*
X215195000Y-65495000I-250000J0D01*
G01*
X214695000Y-65495000D01*
G75*
G02*
X214445000Y-65245000I0J250000D01*
G01*
X214445000Y-64295000D01*
G75*
G02*
X214695000Y-64045000I250000J0D01*
G01*
X215195000Y-64045000D01*
G75*
G02*
X215445000Y-64295000I0J-250000D01*
G01*
G37*
%TD*%
%TO.C,C6*%
G36*
G01*
X202115000Y-73312000D02*
X202115000Y-74262000D01*
G75*
G02*
X201865000Y-74512000I-250000J0D01*
G01*
X201365000Y-74512000D01*
G75*
G02*
X201115000Y-74262000I0J250000D01*
G01*
X201115000Y-73312000D01*
G75*
G02*
X201365000Y-73062000I250000J0D01*
G01*
X201865000Y-73062000D01*
G75*
G02*
X202115000Y-73312000I0J-250000D01*
G01*
G37*
G36*
G01*
X204015000Y-73312000D02*
X204015000Y-74262000D01*
G75*
G02*
X203765000Y-74512000I-250000J0D01*
G01*
X203265000Y-74512000D01*
G75*
G02*
X203015000Y-74262000I0J250000D01*
G01*
X203015000Y-73312000D01*
G75*
G02*
X203265000Y-73062000I250000J0D01*
G01*
X203765000Y-73062000D01*
G75*
G02*
X204015000Y-73312000I0J-250000D01*
G01*
G37*
%TD*%
%TO.C,C9*%
G36*
G01*
X168435000Y-70300000D02*
X169385000Y-70300000D01*
G75*
G02*
X169635000Y-70550000I0J-250000D01*
G01*
X169635000Y-71050000D01*
G75*
G02*
X169385000Y-71300000I-250000J0D01*
G01*
X168435000Y-71300000D01*
G75*
G02*
X168185000Y-71050000I0J250000D01*
G01*
X168185000Y-70550000D01*
G75*
G02*
X168435000Y-70300000I250000J0D01*
G01*
G37*
G36*
G01*
X168435000Y-68400000D02*
X169385000Y-68400000D01*
G75*
G02*
X169635000Y-68650000I0J-250000D01*
G01*
X169635000Y-69150000D01*
G75*
G02*
X169385000Y-69400000I-250000J0D01*
G01*
X168435000Y-69400000D01*
G75*
G02*
X168185000Y-69150000I0J250000D01*
G01*
X168185000Y-68650000D01*
G75*
G02*
X168435000Y-68400000I250000J0D01*
G01*
G37*
%TD*%
%TO.C,R1*%
G36*
G01*
X178619998Y-70250000D02*
X179520002Y-70250000D01*
G75*
G02*
X179770000Y-70499998I0J-249998D01*
G01*
X179770000Y-71025002D01*
G75*
G02*
X179520002Y-71275000I-249998J0D01*
G01*
X178619998Y-71275000D01*
G75*
G02*
X178370000Y-71025002I0J249998D01*
G01*
X178370000Y-70499998D01*
G75*
G02*
X178619998Y-70250000I249998J0D01*
G01*
G37*
G36*
G01*
X178619998Y-68425000D02*
X179520002Y-68425000D01*
G75*
G02*
X179770000Y-68674998I0J-249998D01*
G01*
X179770000Y-69200002D01*
G75*
G02*
X179520002Y-69450000I-249998J0D01*
G01*
X178619998Y-69450000D01*
G75*
G02*
X178370000Y-69200002I0J249998D01*
G01*
X178370000Y-68674998D01*
G75*
G02*
X178619998Y-68425000I249998J0D01*
G01*
G37*
%TD*%
D27*
%TO.C,B1*%
X184034216Y-83050523D03*
%TD*%
%TO.C,B2*%
X185291451Y-84307759D03*
%TD*%
%TO.C,B3*%
X183585203Y-75058095D03*
%TD*%
%TO.C,B4*%
X183764808Y-76674541D03*
%TD*%
%TO.C,B5*%
X183854610Y-80715656D03*
%TD*%
%TO.C,B6*%
X184842439Y-81703485D03*
%TD*%
%TO.C,B7*%
X186997700Y-73441649D03*
%TD*%
%TO.C,B8*%
X185201649Y-75237700D03*
%TD*%
%TO.C,B9*%
X186997700Y-83679141D03*
%TD*%
%TO.C,B10*%
X187985528Y-84666969D03*
%TD*%
%TO.C,B11*%
X188973356Y-85654797D03*
%TD*%
%TO.C,B12*%
X190949013Y-85475192D03*
%TD*%
%TO.C,B13*%
X196696377Y-75596910D03*
%TD*%
%TO.C,B14*%
X196516772Y-74160069D03*
%TD*%
%TO.C,B15*%
X195079931Y-73980464D03*
%TD*%
%TO.C,B16*%
X194900325Y-72543623D03*
%TD*%
%TO.C,B17*%
X193194077Y-72453821D03*
%TD*%
%TO.C,B18*%
X191770000Y-71120000D03*
%TD*%
%TO.C,B19*%
X188595000Y-71755000D03*
%TD*%
%TO.C,C2*%
G36*
G01*
X185895000Y-69400000D02*
X184945000Y-69400000D01*
G75*
G02*
X184695000Y-69150000I0J250000D01*
G01*
X184695000Y-68650000D01*
G75*
G02*
X184945000Y-68400000I250000J0D01*
G01*
X185895000Y-68400000D01*
G75*
G02*
X186145000Y-68650000I0J-250000D01*
G01*
X186145000Y-69150000D01*
G75*
G02*
X185895000Y-69400000I-250000J0D01*
G01*
G37*
G36*
G01*
X185895000Y-71300000D02*
X184945000Y-71300000D01*
G75*
G02*
X184695000Y-71050000I0J250000D01*
G01*
X184695000Y-70550000D01*
G75*
G02*
X184945000Y-70300000I250000J0D01*
G01*
X185895000Y-70300000D01*
G75*
G02*
X186145000Y-70550000I0J-250000D01*
G01*
X186145000Y-71050000D01*
G75*
G02*
X185895000Y-71300000I-250000J0D01*
G01*
G37*
%TD*%
%TO.C,C3*%
G36*
G01*
X195740000Y-89350000D02*
X196690000Y-89350000D01*
G75*
G02*
X196940000Y-89600000I0J-250000D01*
G01*
X196940000Y-90100000D01*
G75*
G02*
X196690000Y-90350000I-250000J0D01*
G01*
X195740000Y-90350000D01*
G75*
G02*
X195490000Y-90100000I0J250000D01*
G01*
X195490000Y-89600000D01*
G75*
G02*
X195740000Y-89350000I250000J0D01*
G01*
G37*
G36*
G01*
X195740000Y-87450000D02*
X196690000Y-87450000D01*
G75*
G02*
X196940000Y-87700000I0J-250000D01*
G01*
X196940000Y-88200000D01*
G75*
G02*
X196690000Y-88450000I-250000J0D01*
G01*
X195740000Y-88450000D01*
G75*
G02*
X195490000Y-88200000I0J250000D01*
G01*
X195490000Y-87700000D01*
G75*
G02*
X195740000Y-87450000I250000J0D01*
G01*
G37*
%TD*%
%TO.C,C4*%
G36*
G01*
X193200000Y-89350000D02*
X194150000Y-89350000D01*
G75*
G02*
X194400000Y-89600000I0J-250000D01*
G01*
X194400000Y-90100000D01*
G75*
G02*
X194150000Y-90350000I-250000J0D01*
G01*
X193200000Y-90350000D01*
G75*
G02*
X192950000Y-90100000I0J250000D01*
G01*
X192950000Y-89600000D01*
G75*
G02*
X193200000Y-89350000I250000J0D01*
G01*
G37*
G36*
G01*
X193200000Y-87450000D02*
X194150000Y-87450000D01*
G75*
G02*
X194400000Y-87700000I0J-250000D01*
G01*
X194400000Y-88200000D01*
G75*
G02*
X194150000Y-88450000I-250000J0D01*
G01*
X193200000Y-88450000D01*
G75*
G02*
X192950000Y-88200000I0J250000D01*
G01*
X192950000Y-87700000D01*
G75*
G02*
X193200000Y-87450000I250000J0D01*
G01*
G37*
%TD*%
%TO.C,C5*%
G36*
G01*
X203015000Y-80739000D02*
X203015000Y-79789000D01*
G75*
G02*
X203265000Y-79539000I250000J0D01*
G01*
X203765000Y-79539000D01*
G75*
G02*
X204015000Y-79789000I0J-250000D01*
G01*
X204015000Y-80739000D01*
G75*
G02*
X203765000Y-80989000I-250000J0D01*
G01*
X203265000Y-80989000D01*
G75*
G02*
X203015000Y-80739000I0J250000D01*
G01*
G37*
G36*
G01*
X201115000Y-80739000D02*
X201115000Y-79789000D01*
G75*
G02*
X201365000Y-79539000I250000J0D01*
G01*
X201865000Y-79539000D01*
G75*
G02*
X202115000Y-79789000I0J-250000D01*
G01*
X202115000Y-80739000D01*
G75*
G02*
X201865000Y-80989000I-250000J0D01*
G01*
X201365000Y-80989000D01*
G75*
G02*
X201115000Y-80739000I0J250000D01*
G01*
G37*
%TD*%
%TO.C,C8*%
G36*
G01*
X79560000Y-79535000D02*
X79560000Y-80485000D01*
G75*
G02*
X79310000Y-80735000I-250000J0D01*
G01*
X78810000Y-80735000D01*
G75*
G02*
X78560000Y-80485000I0J250000D01*
G01*
X78560000Y-79535000D01*
G75*
G02*
X78810000Y-79285000I250000J0D01*
G01*
X79310000Y-79285000D01*
G75*
G02*
X79560000Y-79535000I0J-250000D01*
G01*
G37*
G36*
G01*
X81460000Y-79535000D02*
X81460000Y-80485000D01*
G75*
G02*
X81210000Y-80735000I-250000J0D01*
G01*
X80710000Y-80735000D01*
G75*
G02*
X80460000Y-80485000I0J250000D01*
G01*
X80460000Y-79535000D01*
G75*
G02*
X80710000Y-79285000I250000J0D01*
G01*
X81210000Y-79285000D01*
G75*
G02*
X81460000Y-79535000I0J-250000D01*
G01*
G37*
%TD*%
D25*
%TO.C,D3*%
X31660000Y-106375000D03*
X31660000Y-103175000D03*
X26760000Y-106375000D03*
X26760000Y-103175000D03*
%TD*%
%TO.C,D4*%
X31660000Y-100025000D03*
X31660000Y-96825000D03*
X26760000Y-100025000D03*
X26760000Y-96825000D03*
%TD*%
%TO.C,D10*%
X49620000Y-103175000D03*
X49620000Y-106375000D03*
X54520000Y-103175000D03*
X54520000Y-106375000D03*
%TD*%
%TO.C,D11*%
X62140000Y-106375000D03*
X62140000Y-103175000D03*
X57240000Y-106375000D03*
X57240000Y-103175000D03*
%TD*%
%TO.C,D17*%
X80100000Y-96825000D03*
X80100000Y-100025000D03*
X85000000Y-96825000D03*
X85000000Y-100025000D03*
%TD*%
%TO.C,D18*%
X80100000Y-103175000D03*
X80100000Y-106375000D03*
X85000000Y-103175000D03*
X85000000Y-106375000D03*
%TD*%
%TO.C,D19*%
X92620000Y-106375000D03*
X92620000Y-103175000D03*
X87720000Y-106375000D03*
X87720000Y-103175000D03*
%TD*%
%TO.C,D20*%
X92620000Y-100025000D03*
X92620000Y-96825000D03*
X87720000Y-100025000D03*
X87720000Y-96825000D03*
%TD*%
%TO.C,D21*%
X95340000Y-96825000D03*
X95340000Y-100025000D03*
X100240000Y-96825000D03*
X100240000Y-100025000D03*
%TD*%
%TO.C,D22*%
X95340000Y-103175000D03*
X95340000Y-106375000D03*
X100240000Y-103175000D03*
X100240000Y-106375000D03*
%TD*%
%TO.C,D23*%
X107860000Y-106375000D03*
X107860000Y-103175000D03*
X102960000Y-106375000D03*
X102960000Y-103175000D03*
%TD*%
%TO.C,D28*%
X123100000Y-100025000D03*
X123100000Y-96825000D03*
X118200000Y-100025000D03*
X118200000Y-96825000D03*
%TD*%
%TO.C,D29*%
X125820000Y-96825000D03*
X125820000Y-100025000D03*
X130720000Y-96825000D03*
X130720000Y-100025000D03*
%TD*%
%TO.C,D30*%
X125820000Y-103175000D03*
X125820000Y-106375000D03*
X130720000Y-103175000D03*
X130720000Y-106375000D03*
%TD*%
%TO.C,D35*%
G36*
G01*
X81435000Y-77013750D02*
X81435000Y-77926250D01*
G75*
G02*
X81191250Y-78170000I-243750J0D01*
G01*
X80703750Y-78170000D01*
G75*
G02*
X80460000Y-77926250I0J243750D01*
G01*
X80460000Y-77013750D01*
G75*
G02*
X80703750Y-76770000I243750J0D01*
G01*
X81191250Y-76770000D01*
G75*
G02*
X81435000Y-77013750I0J-243750D01*
G01*
G37*
G36*
G01*
X79560000Y-77013750D02*
X79560000Y-77926250D01*
G75*
G02*
X79316250Y-78170000I-243750J0D01*
G01*
X78828750Y-78170000D01*
G75*
G02*
X78585000Y-77926250I0J243750D01*
G01*
X78585000Y-77013750D01*
G75*
G02*
X78828750Y-76770000I243750J0D01*
G01*
X79316250Y-76770000D01*
G75*
G02*
X79560000Y-77013750I0J-243750D01*
G01*
G37*
%TD*%
%TO.C,D36*%
G36*
G01*
X196671250Y-67211000D02*
X195758750Y-67211000D01*
G75*
G02*
X195515000Y-66967250I0J243750D01*
G01*
X195515000Y-66479750D01*
G75*
G02*
X195758750Y-66236000I243750J0D01*
G01*
X196671250Y-66236000D01*
G75*
G02*
X196915000Y-66479750I0J-243750D01*
G01*
X196915000Y-66967250D01*
G75*
G02*
X196671250Y-67211000I-243750J0D01*
G01*
G37*
G36*
G01*
X196671250Y-65336000D02*
X195758750Y-65336000D01*
G75*
G02*
X195515000Y-65092250I0J243750D01*
G01*
X195515000Y-64604750D01*
G75*
G02*
X195758750Y-64361000I243750J0D01*
G01*
X196671250Y-64361000D01*
G75*
G02*
X196915000Y-64604750I0J-243750D01*
G01*
X196915000Y-65092250D01*
G75*
G02*
X196671250Y-65336000I-243750J0D01*
G01*
G37*
%TD*%
D28*
%TO.C,P1*%
X49149000Y-82550000D03*
X52451000Y-80010000D03*
X49149000Y-77470000D03*
X52451000Y-74930000D03*
X52451000Y-82550000D03*
X52451000Y-77470000D03*
X49149000Y-80010000D03*
X49149000Y-74930000D03*
%TD*%
D29*
%TO.C,P2*%
X168910000Y-61849000D03*
X171450000Y-65151000D03*
X173990000Y-61849000D03*
X176530000Y-65151000D03*
X179070000Y-61849000D03*
X181610000Y-65151000D03*
X181610000Y-61849000D03*
X176530000Y-61849000D03*
X171450000Y-61849000D03*
X179070000Y-65151000D03*
X173990000Y-65151000D03*
X168910000Y-65151000D03*
%TD*%
%TO.C,R2*%
G36*
G01*
X176345002Y-88500000D02*
X175444998Y-88500000D01*
G75*
G02*
X175195000Y-88250002I0J249998D01*
G01*
X175195000Y-87724998D01*
G75*
G02*
X175444998Y-87475000I249998J0D01*
G01*
X176345002Y-87475000D01*
G75*
G02*
X176595000Y-87724998I0J-249998D01*
G01*
X176595000Y-88250002D01*
G75*
G02*
X176345002Y-88500000I-249998J0D01*
G01*
G37*
G36*
G01*
X176345002Y-90325000D02*
X175444998Y-90325000D01*
G75*
G02*
X175195000Y-90075002I0J249998D01*
G01*
X175195000Y-89549998D01*
G75*
G02*
X175444998Y-89300000I249998J0D01*
G01*
X176345002Y-89300000D01*
G75*
G02*
X176595000Y-89549998I0J-249998D01*
G01*
X176595000Y-90075002D01*
G75*
G02*
X176345002Y-90325000I-249998J0D01*
G01*
G37*
%TD*%
%TO.C,R3*%
G36*
G01*
X178885002Y-88500000D02*
X177984998Y-88500000D01*
G75*
G02*
X177735000Y-88250002I0J249998D01*
G01*
X177735000Y-87724998D01*
G75*
G02*
X177984998Y-87475000I249998J0D01*
G01*
X178885002Y-87475000D01*
G75*
G02*
X179135000Y-87724998I0J-249998D01*
G01*
X179135000Y-88250002D01*
G75*
G02*
X178885002Y-88500000I-249998J0D01*
G01*
G37*
G36*
G01*
X178885002Y-90325000D02*
X177984998Y-90325000D01*
G75*
G02*
X177735000Y-90075002I0J249998D01*
G01*
X177735000Y-89549998D01*
G75*
G02*
X177984998Y-89300000I249998J0D01*
G01*
X178885002Y-89300000D01*
G75*
G02*
X179135000Y-89549998I0J-249998D01*
G01*
X179135000Y-90075002D01*
G75*
G02*
X178885002Y-90325000I-249998J0D01*
G01*
G37*
%TD*%
%TO.C,R4*%
G36*
G01*
X191585002Y-88500000D02*
X190684998Y-88500000D01*
G75*
G02*
X190435000Y-88250002I0J249998D01*
G01*
X190435000Y-87724998D01*
G75*
G02*
X190684998Y-87475000I249998J0D01*
G01*
X191585002Y-87475000D01*
G75*
G02*
X191835000Y-87724998I0J-249998D01*
G01*
X191835000Y-88250002D01*
G75*
G02*
X191585002Y-88500000I-249998J0D01*
G01*
G37*
G36*
G01*
X191585002Y-90325000D02*
X190684998Y-90325000D01*
G75*
G02*
X190435000Y-90075002I0J249998D01*
G01*
X190435000Y-89549998D01*
G75*
G02*
X190684998Y-89300000I249998J0D01*
G01*
X191585002Y-89300000D01*
G75*
G02*
X191835000Y-89549998I0J-249998D01*
G01*
X191835000Y-90075002D01*
G75*
G02*
X191585002Y-90325000I-249998J0D01*
G01*
G37*
%TD*%
%TO.C,R5*%
G36*
G01*
X166185002Y-80245000D02*
X165284998Y-80245000D01*
G75*
G02*
X165035000Y-79995002I0J249998D01*
G01*
X165035000Y-79469998D01*
G75*
G02*
X165284998Y-79220000I249998J0D01*
G01*
X166185002Y-79220000D01*
G75*
G02*
X166435000Y-79469998I0J-249998D01*
G01*
X166435000Y-79995002D01*
G75*
G02*
X166185002Y-80245000I-249998J0D01*
G01*
G37*
G36*
G01*
X166185002Y-82070000D02*
X165284998Y-82070000D01*
G75*
G02*
X165035000Y-81820002I0J249998D01*
G01*
X165035000Y-81294998D01*
G75*
G02*
X165284998Y-81045000I249998J0D01*
G01*
X166185002Y-81045000D01*
G75*
G02*
X166435000Y-81294998I0J-249998D01*
G01*
X166435000Y-81820002D01*
G75*
G02*
X166185002Y-82070000I-249998J0D01*
G01*
G37*
%TD*%
%TO.C,R6*%
G36*
G01*
X165284998Y-77235000D02*
X166185002Y-77235000D01*
G75*
G02*
X166435000Y-77484998I0J-249998D01*
G01*
X166435000Y-78010002D01*
G75*
G02*
X166185002Y-78260000I-249998J0D01*
G01*
X165284998Y-78260000D01*
G75*
G02*
X165035000Y-78010002I0J249998D01*
G01*
X165035000Y-77484998D01*
G75*
G02*
X165284998Y-77235000I249998J0D01*
G01*
G37*
G36*
G01*
X165284998Y-75410000D02*
X166185002Y-75410000D01*
G75*
G02*
X166435000Y-75659998I0J-249998D01*
G01*
X166435000Y-76185002D01*
G75*
G02*
X166185002Y-76435000I-249998J0D01*
G01*
X165284998Y-76435000D01*
G75*
G02*
X165035000Y-76185002I0J249998D01*
G01*
X165035000Y-75659998D01*
G75*
G02*
X165284998Y-75410000I249998J0D01*
G01*
G37*
%TD*%
%TO.C,R7*%
G36*
G01*
X79610000Y-74479998D02*
X79610000Y-75380002D01*
G75*
G02*
X79360002Y-75630000I-249998J0D01*
G01*
X78834998Y-75630000D01*
G75*
G02*
X78585000Y-75380002I0J249998D01*
G01*
X78585000Y-74479998D01*
G75*
G02*
X78834998Y-74230000I249998J0D01*
G01*
X79360002Y-74230000D01*
G75*
G02*
X79610000Y-74479998I0J-249998D01*
G01*
G37*
G36*
G01*
X81435000Y-74479998D02*
X81435000Y-75380002D01*
G75*
G02*
X81185002Y-75630000I-249998J0D01*
G01*
X80659998Y-75630000D01*
G75*
G02*
X80410000Y-75380002I0J249998D01*
G01*
X80410000Y-74479998D01*
G75*
G02*
X80659998Y-74230000I249998J0D01*
G01*
X81185002Y-74230000D01*
G75*
G02*
X81435000Y-74479998I0J-249998D01*
G01*
G37*
%TD*%
D12*
%TO.C,SC2*%
X90678000Y-63500000D03*
D13*
X93078000Y-63500000D03*
X92375056Y-65197056D03*
X90678000Y-65900000D03*
X88980944Y-65197056D03*
X88278000Y-63500000D03*
X88980944Y-61802944D03*
X90678000Y-61100000D03*
X92375056Y-61802944D03*
%TD*%
D12*
%TO.C,SC3*%
X188722000Y-63500000D03*
D13*
X191122000Y-63500000D03*
X190419056Y-65197056D03*
X188722000Y-65900000D03*
X187024944Y-65197056D03*
X186322000Y-63500000D03*
X187024944Y-61802944D03*
X188722000Y-61100000D03*
X190419056Y-61802944D03*
%TD*%
D12*
%TO.C,SC5*%
X237998000Y-121666000D03*
D13*
X240398000Y-121666000D03*
X239695056Y-123363056D03*
X237998000Y-124066000D03*
X236300944Y-123363056D03*
X235598000Y-121666000D03*
X236300944Y-119968944D03*
X237998000Y-119266000D03*
X239695056Y-119968944D03*
%TD*%
D12*
%TO.C,SC6*%
X176022000Y-121666000D03*
D13*
X178422000Y-121666000D03*
X177719056Y-123363056D03*
X176022000Y-124066000D03*
X174324944Y-123363056D03*
X173622000Y-121666000D03*
X174324944Y-119968944D03*
X176022000Y-119266000D03*
X177719056Y-119968944D03*
%TD*%
D12*
%TO.C,SC7*%
X103378000Y-121666000D03*
D13*
X105778000Y-121666000D03*
X105075056Y-123363056D03*
X103378000Y-124066000D03*
X101680944Y-123363056D03*
X100978000Y-121666000D03*
X101680944Y-119968944D03*
X103378000Y-119266000D03*
X105075056Y-119968944D03*
%TD*%
D12*
%TO.C,SC8*%
X41402000Y-121666000D03*
D13*
X43802000Y-121666000D03*
X43099056Y-123363056D03*
X41402000Y-124066000D03*
X39704944Y-123363056D03*
X39002000Y-121666000D03*
X39704944Y-119968944D03*
X41402000Y-119266000D03*
X43099056Y-119968944D03*
%TD*%
D30*
%TO.C,U1*%
G36*
X192285445Y-84096334D02*
G01*
X191896536Y-84485243D01*
X190765165Y-83353872D01*
X191154074Y-82964963D01*
X192285445Y-84096334D01*
G37*
G36*
X192851130Y-83530648D02*
G01*
X192462221Y-83919557D01*
X191330850Y-82788186D01*
X191719759Y-82399277D01*
X192851130Y-83530648D01*
G37*
G36*
X193416816Y-82964963D02*
G01*
X193027907Y-83353872D01*
X191896536Y-82222501D01*
X192285445Y-81833592D01*
X193416816Y-82964963D01*
G37*
G36*
X193982501Y-82399278D02*
G01*
X193593592Y-82788187D01*
X192462221Y-81656816D01*
X192851130Y-81267907D01*
X193982501Y-82399278D01*
G37*
G36*
X194548187Y-81833592D02*
G01*
X194159278Y-82222501D01*
X193027907Y-81091130D01*
X193416816Y-80702221D01*
X194548187Y-81833592D01*
G37*
G36*
X195113872Y-81267907D02*
G01*
X194724963Y-81656816D01*
X193593592Y-80525445D01*
X193982501Y-80136536D01*
X195113872Y-81267907D01*
G37*
G36*
X195679557Y-80702221D02*
G01*
X195290648Y-81091130D01*
X194159277Y-79959759D01*
X194548186Y-79570850D01*
X195679557Y-80702221D01*
G37*
G36*
X196245243Y-80136536D02*
G01*
X195856334Y-80525445D01*
X194724963Y-79394074D01*
X195113872Y-79005165D01*
X196245243Y-80136536D01*
G37*
G36*
X195856334Y-76954555D02*
G01*
X196245243Y-77343464D01*
X195113872Y-78474835D01*
X194724963Y-78085926D01*
X195856334Y-76954555D01*
G37*
G36*
X195290648Y-76388870D02*
G01*
X195679557Y-76777779D01*
X194548186Y-77909150D01*
X194159277Y-77520241D01*
X195290648Y-76388870D01*
G37*
G36*
X194724963Y-75823184D02*
G01*
X195113872Y-76212093D01*
X193982501Y-77343464D01*
X193593592Y-76954555D01*
X194724963Y-75823184D01*
G37*
G36*
X194159278Y-75257499D02*
G01*
X194548187Y-75646408D01*
X193416816Y-76777779D01*
X193027907Y-76388870D01*
X194159278Y-75257499D01*
G37*
G36*
X193593592Y-74691813D02*
G01*
X193982501Y-75080722D01*
X192851130Y-76212093D01*
X192462221Y-75823184D01*
X193593592Y-74691813D01*
G37*
G36*
X193027907Y-74126128D02*
G01*
X193416816Y-74515037D01*
X192285445Y-75646408D01*
X191896536Y-75257499D01*
X193027907Y-74126128D01*
G37*
G36*
X192462221Y-73560443D02*
G01*
X192851130Y-73949352D01*
X191719759Y-75080723D01*
X191330850Y-74691814D01*
X192462221Y-73560443D01*
G37*
G36*
X191896536Y-72994757D02*
G01*
X192285445Y-73383666D01*
X191154074Y-74515037D01*
X190765165Y-74126128D01*
X191896536Y-72994757D01*
G37*
G36*
X190234835Y-74126128D02*
G01*
X189845926Y-74515037D01*
X188714555Y-73383666D01*
X189103464Y-72994757D01*
X190234835Y-74126128D01*
G37*
G36*
X189669150Y-74691814D02*
G01*
X189280241Y-75080723D01*
X188148870Y-73949352D01*
X188537779Y-73560443D01*
X189669150Y-74691814D01*
G37*
G36*
X189103464Y-75257499D02*
G01*
X188714555Y-75646408D01*
X187583184Y-74515037D01*
X187972093Y-74126128D01*
X189103464Y-75257499D01*
G37*
G36*
X188537779Y-75823184D02*
G01*
X188148870Y-76212093D01*
X187017499Y-75080722D01*
X187406408Y-74691813D01*
X188537779Y-75823184D01*
G37*
G36*
X187972093Y-76388870D02*
G01*
X187583184Y-76777779D01*
X186451813Y-75646408D01*
X186840722Y-75257499D01*
X187972093Y-76388870D01*
G37*
G36*
X187406408Y-76954555D02*
G01*
X187017499Y-77343464D01*
X185886128Y-76212093D01*
X186275037Y-75823184D01*
X187406408Y-76954555D01*
G37*
G36*
X186840723Y-77520241D02*
G01*
X186451814Y-77909150D01*
X185320443Y-76777779D01*
X185709352Y-76388870D01*
X186840723Y-77520241D01*
G37*
G36*
X186275037Y-78085926D02*
G01*
X185886128Y-78474835D01*
X184754757Y-77343464D01*
X185143666Y-76954555D01*
X186275037Y-78085926D01*
G37*
G36*
X185886128Y-79005165D02*
G01*
X186275037Y-79394074D01*
X185143666Y-80525445D01*
X184754757Y-80136536D01*
X185886128Y-79005165D01*
G37*
G36*
X186451814Y-79570850D02*
G01*
X186840723Y-79959759D01*
X185709352Y-81091130D01*
X185320443Y-80702221D01*
X186451814Y-79570850D01*
G37*
G36*
X187017499Y-80136536D02*
G01*
X187406408Y-80525445D01*
X186275037Y-81656816D01*
X185886128Y-81267907D01*
X187017499Y-80136536D01*
G37*
G36*
X187583184Y-80702221D02*
G01*
X187972093Y-81091130D01*
X186840722Y-82222501D01*
X186451813Y-81833592D01*
X187583184Y-80702221D01*
G37*
G36*
X188148870Y-81267907D02*
G01*
X188537779Y-81656816D01*
X187406408Y-82788187D01*
X187017499Y-82399278D01*
X188148870Y-81267907D01*
G37*
G36*
X188714555Y-81833592D02*
G01*
X189103464Y-82222501D01*
X187972093Y-83353872D01*
X187583184Y-82964963D01*
X188714555Y-81833592D01*
G37*
G36*
X189280241Y-82399277D02*
G01*
X189669150Y-82788186D01*
X188537779Y-83919557D01*
X188148870Y-83530648D01*
X189280241Y-82399277D01*
G37*
G36*
X189845926Y-82964963D02*
G01*
X190234835Y-83353872D01*
X189103464Y-84485243D01*
X188714555Y-84096334D01*
X189845926Y-82964963D01*
G37*
%TD*%
D31*
%TO.C,X1*%
X200445000Y-78062001D03*
X200445000Y-75862001D03*
X202145000Y-75862001D03*
X202145000Y-78062001D03*
%TD*%
D32*
%TO.C,SW2*%
X185435000Y-118618000D03*
X190485000Y-118618000D03*
X185435000Y-121158000D03*
X190485000Y-121158000D03*
%TD*%
D33*
%TO.C,D34*%
X121530000Y-76200000D03*
X117230000Y-76200000D03*
%TD*%
%TO.C,C19*%
G36*
G01*
X79560000Y-82075000D02*
X79560000Y-83025000D01*
G75*
G02*
X79310000Y-83275000I-250000J0D01*
G01*
X78810000Y-83275000D01*
G75*
G02*
X78560000Y-83025000I0J250000D01*
G01*
X78560000Y-82075000D01*
G75*
G02*
X78810000Y-81825000I250000J0D01*
G01*
X79310000Y-81825000D01*
G75*
G02*
X79560000Y-82075000I0J-250000D01*
G01*
G37*
G36*
G01*
X81460000Y-82075000D02*
X81460000Y-83025000D01*
G75*
G02*
X81210000Y-83275000I-250000J0D01*
G01*
X80710000Y-83275000D01*
G75*
G02*
X80460000Y-83025000I0J250000D01*
G01*
X80460000Y-82075000D01*
G75*
G02*
X80710000Y-81825000I250000J0D01*
G01*
X81210000Y-81825000D01*
G75*
G02*
X81460000Y-82075000I0J-250000D01*
G01*
G37*
%TD*%
%TO.C,R9*%
G36*
G01*
X69695000Y-77920002D02*
X69695000Y-77019998D01*
G75*
G02*
X69944998Y-76770000I249998J0D01*
G01*
X70470002Y-76770000D01*
G75*
G02*
X70720000Y-77019998I0J-249998D01*
G01*
X70720000Y-77920002D01*
G75*
G02*
X70470002Y-78170000I-249998J0D01*
G01*
X69944998Y-78170000D01*
G75*
G02*
X69695000Y-77920002I0J249998D01*
G01*
G37*
G36*
G01*
X71520000Y-77920002D02*
X71520000Y-77019998D01*
G75*
G02*
X71769998Y-76770000I249998J0D01*
G01*
X72295002Y-76770000D01*
G75*
G02*
X72545000Y-77019998I0J-249998D01*
G01*
X72545000Y-77920002D01*
G75*
G02*
X72295002Y-78170000I-249998J0D01*
G01*
X71769998Y-78170000D01*
G75*
G02*
X71520000Y-77920002I0J249998D01*
G01*
G37*
%TD*%
%TO.C,R10*%
G36*
G01*
X71520000Y-80460002D02*
X71520000Y-79559998D01*
G75*
G02*
X71769998Y-79310000I249998J0D01*
G01*
X72295002Y-79310000D01*
G75*
G02*
X72545000Y-79559998I0J-249998D01*
G01*
X72545000Y-80460002D01*
G75*
G02*
X72295002Y-80710000I-249998J0D01*
G01*
X71769998Y-80710000D01*
G75*
G02*
X71520000Y-80460002I0J249998D01*
G01*
G37*
G36*
G01*
X69695000Y-80460002D02*
X69695000Y-79559998D01*
G75*
G02*
X69944998Y-79310000I249998J0D01*
G01*
X70470002Y-79310000D01*
G75*
G02*
X70720000Y-79559998I0J-249998D01*
G01*
X70720000Y-80460002D01*
G75*
G02*
X70470002Y-80710000I-249998J0D01*
G01*
X69944998Y-80710000D01*
G75*
G02*
X69695000Y-80460002I0J249998D01*
G01*
G37*
%TD*%
D27*
%TO.C,B20*%
X233045000Y-80010000D03*
%TD*%
%TO.C,C22*%
G36*
G01*
X178275000Y-115750000D02*
X177325000Y-115750000D01*
G75*
G02*
X177075000Y-115500000I0J250000D01*
G01*
X177075000Y-115000000D01*
G75*
G02*
X177325000Y-114750000I250000J0D01*
G01*
X178275000Y-114750000D01*
G75*
G02*
X178525000Y-115000000I0J-250000D01*
G01*
X178525000Y-115500000D01*
G75*
G02*
X178275000Y-115750000I-250000J0D01*
G01*
G37*
G36*
G01*
X178275000Y-113850000D02*
X177325000Y-113850000D01*
G75*
G02*
X177075000Y-113600000I0J250000D01*
G01*
X177075000Y-113100000D01*
G75*
G02*
X177325000Y-112850000I250000J0D01*
G01*
X178275000Y-112850000D01*
G75*
G02*
X178525000Y-113100000I0J-250000D01*
G01*
X178525000Y-113600000D01*
G75*
G02*
X178275000Y-113850000I-250000J0D01*
G01*
G37*
%TD*%
%TO.C,C23*%
G36*
G01*
X181135000Y-89350000D02*
X182085000Y-89350000D01*
G75*
G02*
X182335000Y-89600000I0J-250000D01*
G01*
X182335000Y-90100000D01*
G75*
G02*
X182085000Y-90350000I-250000J0D01*
G01*
X181135000Y-90350000D01*
G75*
G02*
X180885000Y-90100000I0J250000D01*
G01*
X180885000Y-89600000D01*
G75*
G02*
X181135000Y-89350000I250000J0D01*
G01*
G37*
G36*
G01*
X181135000Y-87450000D02*
X182085000Y-87450000D01*
G75*
G02*
X182335000Y-87700000I0J-250000D01*
G01*
X182335000Y-88200000D01*
G75*
G02*
X182085000Y-88450000I-250000J0D01*
G01*
X181135000Y-88450000D01*
G75*
G02*
X180885000Y-88200000I0J250000D01*
G01*
X180885000Y-87700000D01*
G75*
G02*
X181135000Y-87450000I250000J0D01*
G01*
G37*
%TD*%
%TO.C,C24*%
G36*
G01*
X199865000Y-115750000D02*
X198915000Y-115750000D01*
G75*
G02*
X198665000Y-115500000I0J250000D01*
G01*
X198665000Y-115000000D01*
G75*
G02*
X198915000Y-114750000I250000J0D01*
G01*
X199865000Y-114750000D01*
G75*
G02*
X200115000Y-115000000I0J-250000D01*
G01*
X200115000Y-115500000D01*
G75*
G02*
X199865000Y-115750000I-250000J0D01*
G01*
G37*
G36*
G01*
X199865000Y-113850000D02*
X198915000Y-113850000D01*
G75*
G02*
X198665000Y-113600000I0J250000D01*
G01*
X198665000Y-113100000D01*
G75*
G02*
X198915000Y-112850000I250000J0D01*
G01*
X199865000Y-112850000D01*
G75*
G02*
X200115000Y-113100000I0J-250000D01*
G01*
X200115000Y-113600000D01*
G75*
G02*
X199865000Y-113850000I-250000J0D01*
G01*
G37*
%TD*%
%TO.C,C25*%
G36*
G01*
X230345000Y-113850000D02*
X229395000Y-113850000D01*
G75*
G02*
X229145000Y-113600000I0J250000D01*
G01*
X229145000Y-113100000D01*
G75*
G02*
X229395000Y-112850000I250000J0D01*
G01*
X230345000Y-112850000D01*
G75*
G02*
X230595000Y-113100000I0J-250000D01*
G01*
X230595000Y-113600000D01*
G75*
G02*
X230345000Y-113850000I-250000J0D01*
G01*
G37*
G36*
G01*
X230345000Y-115750000D02*
X229395000Y-115750000D01*
G75*
G02*
X229145000Y-115500000I0J250000D01*
G01*
X229145000Y-115000000D01*
G75*
G02*
X229395000Y-114750000I250000J0D01*
G01*
X230345000Y-114750000D01*
G75*
G02*
X230595000Y-115000000I0J-250000D01*
G01*
X230595000Y-115500000D01*
G75*
G02*
X230345000Y-115750000I-250000J0D01*
G01*
G37*
%TD*%
%TO.C,C26*%
G36*
G01*
X227363000Y-87450000D02*
X228313000Y-87450000D01*
G75*
G02*
X228563000Y-87700000I0J-250000D01*
G01*
X228563000Y-88200000D01*
G75*
G02*
X228313000Y-88450000I-250000J0D01*
G01*
X227363000Y-88450000D01*
G75*
G02*
X227113000Y-88200000I0J250000D01*
G01*
X227113000Y-87700000D01*
G75*
G02*
X227363000Y-87450000I250000J0D01*
G01*
G37*
G36*
G01*
X227363000Y-89350000D02*
X228313000Y-89350000D01*
G75*
G02*
X228563000Y-89600000I0J-250000D01*
G01*
X228563000Y-90100000D01*
G75*
G02*
X228313000Y-90350000I-250000J0D01*
G01*
X227363000Y-90350000D01*
G75*
G02*
X227113000Y-90100000I0J250000D01*
G01*
X227113000Y-89600000D01*
G75*
G02*
X227363000Y-89350000I250000J0D01*
G01*
G37*
%TD*%
D25*
%TO.C,D41*%
X156300000Y-96825000D03*
X156300000Y-100025000D03*
X161200000Y-96825000D03*
X161200000Y-100025000D03*
%TD*%
%TO.C,D42*%
X156300000Y-103175000D03*
X156300000Y-106375000D03*
X161200000Y-103175000D03*
X161200000Y-106375000D03*
%TD*%
%TO.C,D43*%
X163920000Y-103175000D03*
X163920000Y-106375000D03*
X168820000Y-103175000D03*
X168820000Y-106375000D03*
%TD*%
%TO.C,D44*%
X168820000Y-100025000D03*
X168820000Y-96825000D03*
X163920000Y-100025000D03*
X163920000Y-96825000D03*
%TD*%
%TO.C,D45*%
X176440000Y-100025000D03*
X176440000Y-96825000D03*
X171540000Y-100025000D03*
X171540000Y-96825000D03*
%TD*%
%TO.C,D48*%
X184060000Y-100025000D03*
X184060000Y-96825000D03*
X179160000Y-100025000D03*
X179160000Y-96825000D03*
%TD*%
%TO.C,D49*%
X191680000Y-100025000D03*
X191680000Y-96825000D03*
X186780000Y-100025000D03*
X186780000Y-96825000D03*
%TD*%
%TO.C,D50*%
X186780000Y-103175000D03*
X186780000Y-106375000D03*
X191680000Y-103175000D03*
X191680000Y-106375000D03*
%TD*%
%TO.C,D51*%
X194400000Y-103175000D03*
X194400000Y-106375000D03*
X199300000Y-103175000D03*
X199300000Y-106375000D03*
%TD*%
%TO.C,D52*%
X199300000Y-100025000D03*
X199300000Y-96825000D03*
X194400000Y-100025000D03*
X194400000Y-96825000D03*
%TD*%
%TO.C,D60*%
X224880000Y-96825000D03*
X224880000Y-100025000D03*
X229780000Y-96825000D03*
X229780000Y-100025000D03*
%TD*%
%TO.C,D61*%
X237400000Y-100025000D03*
X237400000Y-96825000D03*
X232500000Y-100025000D03*
X232500000Y-96825000D03*
%TD*%
%TO.C,D62*%
X232500000Y-103175000D03*
X232500000Y-106375000D03*
X237400000Y-103175000D03*
X237400000Y-106375000D03*
%TD*%
%TO.C,D63*%
X240120000Y-103175000D03*
X240120000Y-106375000D03*
X245020000Y-103175000D03*
X245020000Y-106375000D03*
%TD*%
%TO.C,D67*%
X255360000Y-103175000D03*
X255360000Y-106375000D03*
X260260000Y-103175000D03*
X260260000Y-106375000D03*
%TD*%
%TO.C,D68*%
X255360000Y-96825000D03*
X255360000Y-100025000D03*
X260260000Y-96825000D03*
X260260000Y-100025000D03*
%TD*%
D34*
%TO.C,P3*%
X208280000Y-65405000D03*
X203200000Y-65405000D03*
X203200000Y-62230000D03*
X208280000Y-62230000D03*
D35*
X204724000Y-67310000D03*
X206756000Y-67310000D03*
X205740000Y-62230000D03*
D36*
X206375000Y-66040000D03*
X205105000Y-66040000D03*
X206375000Y-64770000D03*
X205105000Y-64770000D03*
X206375000Y-63500000D03*
X205105000Y-63500000D03*
%TD*%
D37*
%TO.C,P6*%
X154305000Y-79360000D03*
X154305000Y-74310000D03*
X156845000Y-79360000D03*
X156845000Y-74310000D03*
X159385000Y-79360000D03*
X159385000Y-74310000D03*
X161925000Y-79360000D03*
X161925000Y-74310000D03*
%TD*%
%TO.C,R11*%
G36*
G01*
X69695000Y-75380002D02*
X69695000Y-74479998D01*
G75*
G02*
X69944998Y-74230000I249998J0D01*
G01*
X70470002Y-74230000D01*
G75*
G02*
X70720000Y-74479998I0J-249998D01*
G01*
X70720000Y-75380002D01*
G75*
G02*
X70470002Y-75630000I-249998J0D01*
G01*
X69944998Y-75630000D01*
G75*
G02*
X69695000Y-75380002I0J249998D01*
G01*
G37*
G36*
G01*
X71520000Y-75380002D02*
X71520000Y-74479998D01*
G75*
G02*
X71769998Y-74230000I249998J0D01*
G01*
X72295002Y-74230000D01*
G75*
G02*
X72545000Y-74479998I0J-249998D01*
G01*
X72545000Y-75380002D01*
G75*
G02*
X72295002Y-75630000I-249998J0D01*
G01*
X71769998Y-75630000D01*
G75*
G02*
X71520000Y-75380002I0J249998D01*
G01*
G37*
%TD*%
D38*
%TO.C,SW1*%
X176695000Y-73950000D03*
X176695000Y-78450000D03*
X168745000Y-78450000D03*
X168745000Y-73950000D03*
%TD*%
D25*
%TO.C,D1*%
X19140000Y-96825000D03*
X19140000Y-100025000D03*
X24040000Y-96825000D03*
X24040000Y-100025000D03*
%TD*%
%TO.C,C12*%
G36*
G01*
X62705000Y-113850000D02*
X61755000Y-113850000D01*
G75*
G02*
X61505000Y-113600000I0J250000D01*
G01*
X61505000Y-113100000D01*
G75*
G02*
X61755000Y-112850000I250000J0D01*
G01*
X62705000Y-112850000D01*
G75*
G02*
X62955000Y-113100000I0J-250000D01*
G01*
X62955000Y-113600000D01*
G75*
G02*
X62705000Y-113850000I-250000J0D01*
G01*
G37*
G36*
G01*
X62705000Y-115750000D02*
X61755000Y-115750000D01*
G75*
G02*
X61505000Y-115500000I0J250000D01*
G01*
X61505000Y-115000000D01*
G75*
G02*
X61755000Y-114750000I250000J0D01*
G01*
X62705000Y-114750000D01*
G75*
G02*
X62955000Y-115000000I0J-250000D01*
G01*
X62955000Y-115500000D01*
G75*
G02*
X62705000Y-115750000I-250000J0D01*
G01*
G37*
%TD*%
%TO.C,C13*%
G36*
G01*
X74455000Y-87450000D02*
X75405000Y-87450000D01*
G75*
G02*
X75655000Y-87700000I0J-250000D01*
G01*
X75655000Y-88200000D01*
G75*
G02*
X75405000Y-88450000I-250000J0D01*
G01*
X74455000Y-88450000D01*
G75*
G02*
X74205000Y-88200000I0J250000D01*
G01*
X74205000Y-87700000D01*
G75*
G02*
X74455000Y-87450000I250000J0D01*
G01*
G37*
G36*
G01*
X74455000Y-89350000D02*
X75405000Y-89350000D01*
G75*
G02*
X75655000Y-89600000I0J-250000D01*
G01*
X75655000Y-90100000D01*
G75*
G02*
X75405000Y-90350000I-250000J0D01*
G01*
X74455000Y-90350000D01*
G75*
G02*
X74205000Y-90100000I0J250000D01*
G01*
X74205000Y-89600000D01*
G75*
G02*
X74455000Y-89350000I250000J0D01*
G01*
G37*
%TD*%
%TO.C,C14*%
G36*
G01*
X93185000Y-113850000D02*
X92235000Y-113850000D01*
G75*
G02*
X91985000Y-113600000I0J250000D01*
G01*
X91985000Y-113100000D01*
G75*
G02*
X92235000Y-112850000I250000J0D01*
G01*
X93185000Y-112850000D01*
G75*
G02*
X93435000Y-113100000I0J-250000D01*
G01*
X93435000Y-113600000D01*
G75*
G02*
X93185000Y-113850000I-250000J0D01*
G01*
G37*
G36*
G01*
X93185000Y-115750000D02*
X92235000Y-115750000D01*
G75*
G02*
X91985000Y-115500000I0J250000D01*
G01*
X91985000Y-115000000D01*
G75*
G02*
X92235000Y-114750000I250000J0D01*
G01*
X93185000Y-114750000D01*
G75*
G02*
X93435000Y-115000000I0J-250000D01*
G01*
X93435000Y-115500000D01*
G75*
G02*
X93185000Y-115750000I-250000J0D01*
G01*
G37*
%TD*%
%TO.C,C15*%
G36*
G01*
X104935000Y-87450000D02*
X105885000Y-87450000D01*
G75*
G02*
X106135000Y-87700000I0J-250000D01*
G01*
X106135000Y-88200000D01*
G75*
G02*
X105885000Y-88450000I-250000J0D01*
G01*
X104935000Y-88450000D01*
G75*
G02*
X104685000Y-88200000I0J250000D01*
G01*
X104685000Y-87700000D01*
G75*
G02*
X104935000Y-87450000I250000J0D01*
G01*
G37*
G36*
G01*
X104935000Y-89350000D02*
X105885000Y-89350000D01*
G75*
G02*
X106135000Y-89600000I0J-250000D01*
G01*
X106135000Y-90100000D01*
G75*
G02*
X105885000Y-90350000I-250000J0D01*
G01*
X104935000Y-90350000D01*
G75*
G02*
X104685000Y-90100000I0J250000D01*
G01*
X104685000Y-89600000D01*
G75*
G02*
X104935000Y-89350000I250000J0D01*
G01*
G37*
%TD*%
%TO.C,C16*%
G36*
G01*
X108425000Y-113850000D02*
X107475000Y-113850000D01*
G75*
G02*
X107225000Y-113600000I0J250000D01*
G01*
X107225000Y-113100000D01*
G75*
G02*
X107475000Y-112850000I250000J0D01*
G01*
X108425000Y-112850000D01*
G75*
G02*
X108675000Y-113100000I0J-250000D01*
G01*
X108675000Y-113600000D01*
G75*
G02*
X108425000Y-113850000I-250000J0D01*
G01*
G37*
G36*
G01*
X108425000Y-115750000D02*
X107475000Y-115750000D01*
G75*
G02*
X107225000Y-115500000I0J250000D01*
G01*
X107225000Y-115000000D01*
G75*
G02*
X107475000Y-114750000I250000J0D01*
G01*
X108425000Y-114750000D01*
G75*
G02*
X108675000Y-115000000I0J-250000D01*
G01*
X108675000Y-115500000D01*
G75*
G02*
X108425000Y-115750000I-250000J0D01*
G01*
G37*
%TD*%
%TO.C,C21*%
G36*
G01*
X150655000Y-87450000D02*
X151605000Y-87450000D01*
G75*
G02*
X151855000Y-87700000I0J-250000D01*
G01*
X151855000Y-88200000D01*
G75*
G02*
X151605000Y-88450000I-250000J0D01*
G01*
X150655000Y-88450000D01*
G75*
G02*
X150405000Y-88200000I0J250000D01*
G01*
X150405000Y-87700000D01*
G75*
G02*
X150655000Y-87450000I250000J0D01*
G01*
G37*
G36*
G01*
X150655000Y-89350000D02*
X151605000Y-89350000D01*
G75*
G02*
X151855000Y-89600000I0J-250000D01*
G01*
X151855000Y-90100000D01*
G75*
G02*
X151605000Y-90350000I-250000J0D01*
G01*
X150655000Y-90350000D01*
G75*
G02*
X150405000Y-90100000I0J250000D01*
G01*
X150405000Y-89600000D01*
G75*
G02*
X150655000Y-89350000I250000J0D01*
G01*
G37*
%TD*%
%TO.C,D5*%
X39280000Y-100025000D03*
X39280000Y-96825000D03*
X34380000Y-100025000D03*
X34380000Y-96825000D03*
%TD*%
%TO.C,D6*%
X34380000Y-103175000D03*
X34380000Y-106375000D03*
X39280000Y-103175000D03*
X39280000Y-106375000D03*
%TD*%
%TO.C,D7*%
X42000000Y-103175000D03*
X42000000Y-106375000D03*
X46900000Y-103175000D03*
X46900000Y-106375000D03*
%TD*%
%TO.C,D8*%
X46900000Y-100025000D03*
X46900000Y-96825000D03*
X42000000Y-100025000D03*
X42000000Y-96825000D03*
%TD*%
%TO.C,D9*%
X54520000Y-100025000D03*
X54520000Y-96825000D03*
X49620000Y-100025000D03*
X49620000Y-96825000D03*
%TD*%
%TO.C,D12*%
X62140000Y-100025000D03*
X62140000Y-96825000D03*
X57240000Y-100025000D03*
X57240000Y-96825000D03*
%TD*%
%TO.C,D13*%
X69760000Y-100025000D03*
X69760000Y-96825000D03*
X64860000Y-100025000D03*
X64860000Y-96825000D03*
%TD*%
%TO.C,D14*%
X64860000Y-103175000D03*
X64860000Y-106375000D03*
X69760000Y-103175000D03*
X69760000Y-106375000D03*
%TD*%
%TO.C,D15*%
X77380000Y-106375000D03*
X77380000Y-103175000D03*
X72480000Y-106375000D03*
X72480000Y-103175000D03*
%TD*%
%TO.C,D16*%
X72480000Y-96825000D03*
X72480000Y-100025000D03*
X77380000Y-96825000D03*
X77380000Y-100025000D03*
%TD*%
%TO.C,D24*%
X107860000Y-100025000D03*
X107860000Y-96825000D03*
X102960000Y-100025000D03*
X102960000Y-96825000D03*
%TD*%
%TO.C,D25*%
X115480000Y-100025000D03*
X115480000Y-96825000D03*
X110580000Y-100025000D03*
X110580000Y-96825000D03*
%TD*%
%TO.C,D26*%
X110580000Y-103175000D03*
X110580000Y-106375000D03*
X115480000Y-103175000D03*
X115480000Y-106375000D03*
%TD*%
%TO.C,D27*%
X118200000Y-103175000D03*
X118200000Y-106375000D03*
X123100000Y-103175000D03*
X123100000Y-106375000D03*
%TD*%
%TO.C,D31*%
X138340000Y-106375000D03*
X138340000Y-103175000D03*
X133440000Y-106375000D03*
X133440000Y-103175000D03*
%TD*%
%TO.C,D32*%
X133440000Y-96825000D03*
X133440000Y-100025000D03*
X138340000Y-96825000D03*
X138340000Y-100025000D03*
%TD*%
%TO.C,D37*%
X141060000Y-96825000D03*
X141060000Y-100025000D03*
X145960000Y-96825000D03*
X145960000Y-100025000D03*
%TD*%
%TO.C,D38*%
X145960000Y-106375000D03*
X145960000Y-103175000D03*
X141060000Y-106375000D03*
X141060000Y-103175000D03*
%TD*%
%TO.C,D39*%
X148680000Y-103175000D03*
X148680000Y-106375000D03*
X153580000Y-103175000D03*
X153580000Y-106375000D03*
%TD*%
%TO.C,D40*%
X148680000Y-96825000D03*
X148680000Y-100025000D03*
X153580000Y-96825000D03*
X153580000Y-100025000D03*
%TD*%
%TO.C,D46*%
X171540000Y-103175000D03*
X171540000Y-106375000D03*
X176440000Y-103175000D03*
X176440000Y-106375000D03*
%TD*%
%TO.C,D47*%
X184060000Y-106375000D03*
X184060000Y-103175000D03*
X179160000Y-106375000D03*
X179160000Y-103175000D03*
%TD*%
%TO.C,D53*%
X202020000Y-96825000D03*
X202020000Y-100025000D03*
X206920000Y-96825000D03*
X206920000Y-100025000D03*
%TD*%
%TO.C,D54*%
X206920000Y-106375000D03*
X206920000Y-103175000D03*
X202020000Y-106375000D03*
X202020000Y-103175000D03*
%TD*%
%TO.C,D55*%
X214540000Y-106375000D03*
X214540000Y-103175000D03*
X209640000Y-106375000D03*
X209640000Y-103175000D03*
%TD*%
%TO.C,D56*%
X209640000Y-96825000D03*
X209640000Y-100025000D03*
X214540000Y-96825000D03*
X214540000Y-100025000D03*
%TD*%
%TO.C,D57*%
X217260000Y-96825000D03*
X217260000Y-100025000D03*
X222160000Y-96825000D03*
X222160000Y-100025000D03*
%TD*%
%TO.C,D58*%
X222160000Y-106375000D03*
X222160000Y-103175000D03*
X217260000Y-106375000D03*
X217260000Y-103175000D03*
%TD*%
%TO.C,D59*%
X229780000Y-106375000D03*
X229780000Y-103175000D03*
X224880000Y-106375000D03*
X224880000Y-103175000D03*
%TD*%
%TO.C,D64*%
X240120000Y-96825000D03*
X240120000Y-100025000D03*
X245020000Y-96825000D03*
X245020000Y-100025000D03*
%TD*%
%TO.C,D65*%
X247740000Y-96825000D03*
X247740000Y-100025000D03*
X252640000Y-96825000D03*
X252640000Y-100025000D03*
%TD*%
D28*
%TO.C,P4*%
X226949000Y-74930000D03*
X226949000Y-80010000D03*
X230251000Y-77470000D03*
X230251000Y-82550000D03*
X230251000Y-74930000D03*
X226949000Y-77470000D03*
X230251000Y-80010000D03*
X226949000Y-82550000D03*
%TD*%
D25*
%TO.C,D66*%
X252640000Y-106375000D03*
X252640000Y-103175000D03*
X247740000Y-106375000D03*
X247740000Y-103175000D03*
%TD*%
%TO.C,C1*%
G36*
G01*
X205420000Y-87545000D02*
X205420000Y-86445000D01*
G75*
G02*
X205670000Y-86195000I250000J0D01*
G01*
X208670000Y-86195000D01*
G75*
G02*
X208920000Y-86445000I0J-250000D01*
G01*
X208920000Y-87545000D01*
G75*
G02*
X208670000Y-87795000I-250000J0D01*
G01*
X205670000Y-87795000D01*
G75*
G02*
X205420000Y-87545000I0J250000D01*
G01*
G37*
G36*
G01*
X200020000Y-87545000D02*
X200020000Y-86445000D01*
G75*
G02*
X200270000Y-86195000I250000J0D01*
G01*
X203270000Y-86195000D01*
G75*
G02*
X203520000Y-86445000I0J-250000D01*
G01*
X203520000Y-87545000D01*
G75*
G02*
X203270000Y-87795000I-250000J0D01*
G01*
X200270000Y-87795000D01*
G75*
G02*
X200020000Y-87545000I0J250000D01*
G01*
G37*
%TD*%
%TO.C,C7*%
G36*
G01*
X100245000Y-71440000D02*
X99145000Y-71440000D01*
G75*
G02*
X98895000Y-71190000I0J250000D01*
G01*
X98895000Y-68190000D01*
G75*
G02*
X99145000Y-67940000I250000J0D01*
G01*
X100245000Y-67940000D01*
G75*
G02*
X100495000Y-68190000I0J-250000D01*
G01*
X100495000Y-71190000D01*
G75*
G02*
X100245000Y-71440000I-250000J0D01*
G01*
G37*
G36*
G01*
X100245000Y-76840000D02*
X99145000Y-76840000D01*
G75*
G02*
X98895000Y-76590000I0J250000D01*
G01*
X98895000Y-73590000D01*
G75*
G02*
X99145000Y-73340000I250000J0D01*
G01*
X100245000Y-73340000D01*
G75*
G02*
X100495000Y-73590000I0J-250000D01*
G01*
X100495000Y-76590000D01*
G75*
G02*
X100245000Y-76840000I-250000J0D01*
G01*
G37*
%TD*%
%TO.C,C27*%
G36*
G01*
X61510000Y-76840000D02*
X60410000Y-76840000D01*
G75*
G02*
X60160000Y-76590000I0J250000D01*
G01*
X60160000Y-73590000D01*
G75*
G02*
X60410000Y-73340000I250000J0D01*
G01*
X61510000Y-73340000D01*
G75*
G02*
X61760000Y-73590000I0J-250000D01*
G01*
X61760000Y-76590000D01*
G75*
G02*
X61510000Y-76840000I-250000J0D01*
G01*
G37*
G36*
G01*
X61510000Y-71440000D02*
X60410000Y-71440000D01*
G75*
G02*
X60160000Y-71190000I0J250000D01*
G01*
X60160000Y-68190000D01*
G75*
G02*
X60410000Y-67940000I250000J0D01*
G01*
X61510000Y-67940000D01*
G75*
G02*
X61760000Y-68190000I0J-250000D01*
G01*
X61760000Y-71190000D01*
G75*
G02*
X61510000Y-71440000I-250000J0D01*
G01*
G37*
%TD*%
D27*
%TO.C,B21*%
X152273000Y-113030000D03*
%TD*%
D13*
%TO.C,SC1*%
X43099056Y-61802944D03*
X41402000Y-61100000D03*
X39704944Y-61802944D03*
X39002000Y-63500000D03*
X39704944Y-65197056D03*
X41402000Y-65900000D03*
X43099056Y-65197056D03*
X43802000Y-63500000D03*
D12*
X41402000Y-63500000D03*
%TD*%
%TO.C,C28*%
G36*
G01*
X118331000Y-115750000D02*
X117381000Y-115750000D01*
G75*
G02*
X117131000Y-115500000I0J250000D01*
G01*
X117131000Y-115000000D01*
G75*
G02*
X117381000Y-114750000I250000J0D01*
G01*
X118331000Y-114750000D01*
G75*
G02*
X118581000Y-115000000I0J-250000D01*
G01*
X118581000Y-115500000D01*
G75*
G02*
X118331000Y-115750000I-250000J0D01*
G01*
G37*
G36*
G01*
X118331000Y-113850000D02*
X117381000Y-113850000D01*
G75*
G02*
X117131000Y-113600000I0J250000D01*
G01*
X117131000Y-113100000D01*
G75*
G02*
X117381000Y-112850000I250000J0D01*
G01*
X118331000Y-112850000D01*
G75*
G02*
X118581000Y-113100000I0J-250000D01*
G01*
X118581000Y-113600000D01*
G75*
G02*
X118331000Y-113850000I-250000J0D01*
G01*
G37*
%TD*%
D39*
%TO.C,Q1*%
X159400000Y-119192000D03*
X158100000Y-119192000D03*
X158750000Y-121092000D03*
X158750000Y-119192000D03*
X158100000Y-121092000D03*
X159400000Y-121092000D03*
%TD*%
%TO.C,R12*%
G36*
G01*
X161220999Y-118717000D02*
X162121001Y-118717000D01*
G75*
G02*
X162371000Y-118966999I0J-249999D01*
G01*
X162371000Y-119492001D01*
G75*
G02*
X162121001Y-119742000I-249999J0D01*
G01*
X161220999Y-119742000D01*
G75*
G02*
X160971000Y-119492001I0J249999D01*
G01*
X160971000Y-118966999D01*
G75*
G02*
X161220999Y-118717000I249999J0D01*
G01*
G37*
G36*
G01*
X161220999Y-120542000D02*
X162121001Y-120542000D01*
G75*
G02*
X162371000Y-120791999I0J-249999D01*
G01*
X162371000Y-121317001D01*
G75*
G02*
X162121001Y-121567000I-249999J0D01*
G01*
X161220999Y-121567000D01*
G75*
G02*
X160971000Y-121317001I0J249999D01*
G01*
X160971000Y-120791999D01*
G75*
G02*
X161220999Y-120542000I249999J0D01*
G01*
G37*
%TD*%
%TO.C,R13*%
G36*
G01*
X159150000Y-117798001D02*
X159150000Y-116897999D01*
G75*
G02*
X159399999Y-116648000I249999J0D01*
G01*
X159925001Y-116648000D01*
G75*
G02*
X160175000Y-116897999I0J-249999D01*
G01*
X160175000Y-117798001D01*
G75*
G02*
X159925001Y-118048000I-249999J0D01*
G01*
X159399999Y-118048000D01*
G75*
G02*
X159150000Y-117798001I0J249999D01*
G01*
G37*
G36*
G01*
X157325000Y-117798001D02*
X157325000Y-116897999D01*
G75*
G02*
X157574999Y-116648000I249999J0D01*
G01*
X158100001Y-116648000D01*
G75*
G02*
X158350000Y-116897999I0J-249999D01*
G01*
X158350000Y-117798001D01*
G75*
G02*
X158100001Y-118048000I-249999J0D01*
G01*
X157574999Y-118048000D01*
G75*
G02*
X157325000Y-117798001I0J249999D01*
G01*
G37*
%TD*%
%TO.C,R14*%
G36*
G01*
X156406001Y-121567000D02*
X155505999Y-121567000D01*
G75*
G02*
X155256000Y-121317001I0J249999D01*
G01*
X155256000Y-120791999D01*
G75*
G02*
X155505999Y-120542000I249999J0D01*
G01*
X156406001Y-120542000D01*
G75*
G02*
X156656000Y-120791999I0J-249999D01*
G01*
X156656000Y-121317001D01*
G75*
G02*
X156406001Y-121567000I-249999J0D01*
G01*
G37*
G36*
G01*
X156406001Y-119742000D02*
X155505999Y-119742000D01*
G75*
G02*
X155256000Y-119492001I0J249999D01*
G01*
X155256000Y-118966999D01*
G75*
G02*
X155505999Y-118717000I249999J0D01*
G01*
X156406001Y-118717000D01*
G75*
G02*
X156656000Y-118966999I0J-249999D01*
G01*
X156656000Y-119492001D01*
G75*
G02*
X156406001Y-119742000I-249999J0D01*
G01*
G37*
%TD*%
%TO.C,R15*%
G36*
G01*
X158350000Y-122485999D02*
X158350000Y-123386001D01*
G75*
G02*
X158100001Y-123636000I-249999J0D01*
G01*
X157574999Y-123636000D01*
G75*
G02*
X157325000Y-123386001I0J249999D01*
G01*
X157325000Y-122485999D01*
G75*
G02*
X157574999Y-122236000I249999J0D01*
G01*
X158100001Y-122236000D01*
G75*
G02*
X158350000Y-122485999I0J-249999D01*
G01*
G37*
G36*
G01*
X160175000Y-122485999D02*
X160175000Y-123386001D01*
G75*
G02*
X159925001Y-123636000I-249999J0D01*
G01*
X159399999Y-123636000D01*
G75*
G02*
X159150000Y-123386001I0J249999D01*
G01*
X159150000Y-122485999D01*
G75*
G02*
X159399999Y-122236000I249999J0D01*
G01*
X159925001Y-122236000D01*
G75*
G02*
X160175000Y-122485999I0J-249999D01*
G01*
G37*
%TD*%
D24*
%TO.C,U3*%
X117704000Y-122188000D03*
X117704000Y-117588000D03*
X117704000Y-119888000D03*
D23*
X111404000Y-119888000D03*
%TD*%
D28*
%TO.C,P8*%
X166243000Y-114808000D03*
X166243000Y-119888000D03*
X169545000Y-117348000D03*
X169545000Y-122428000D03*
X169545000Y-114808000D03*
X166243000Y-117348000D03*
X169545000Y-119888000D03*
X166243000Y-122428000D03*
%TD*%
%TO.C,C30*%
G36*
G01*
X186764000Y-116299000D02*
X186764000Y-115349000D01*
G75*
G02*
X187014000Y-115099000I250000J0D01*
G01*
X187514000Y-115099000D01*
G75*
G02*
X187764000Y-115349000I0J-250000D01*
G01*
X187764000Y-116299000D01*
G75*
G02*
X187514000Y-116549000I-250000J0D01*
G01*
X187014000Y-116549000D01*
G75*
G02*
X186764000Y-116299000I0J250000D01*
G01*
G37*
G36*
G01*
X188664000Y-116299000D02*
X188664000Y-115349000D01*
G75*
G02*
X188914000Y-115099000I250000J0D01*
G01*
X189414000Y-115099000D01*
G75*
G02*
X189664000Y-115349000I0J-250000D01*
G01*
X189664000Y-116299000D01*
G75*
G02*
X189414000Y-116549000I-250000J0D01*
G01*
X188914000Y-116549000D01*
G75*
G02*
X188664000Y-116299000I0J250000D01*
G01*
G37*
%TD*%
D40*
X72136000Y-75184000D02*
X70104000Y-75184000D01*
X70104000Y-74676000D01*
X72136000Y-74676000D01*
X72136000Y-75184000D01*
D30*
G36*
X72136000Y-75184000D02*
G01*
X70104000Y-75184000D01*
X70104000Y-74676000D01*
X72136000Y-74676000D01*
X72136000Y-75184000D01*
G37*
M02*
