%TF.GenerationSoftware,KiCad,Pcbnew,5.1.7-a382d34a8~87~ubuntu20.04.1*%
%TF.CreationDate,2020-11-05T16:16:56+05:30*%
%TF.ProjectId,halo,68616c6f-2e6b-4696-9361-645f70636258,v1*%
%TF.SameCoordinates,Original*%
%TF.FileFunction,Copper,L1,Top*%
%TF.FilePolarity,Positive*%
%FSLAX46Y46*%
G04 Gerber Fmt 4.6, Leading zero omitted, Abs format (unit mm)*
G04 Created by KiCad (PCBNEW 5.1.7-a382d34a8~87~ubuntu20.04.1) date 2020-11-05 16:16:56*
%MOMM*%
%LPD*%
G01*
G04 APERTURE LIST*
%TA.AperFunction,Profile*%
%ADD10C,0.050000*%
%TD*%
%TA.AperFunction,SMDPad,CuDef*%
%ADD11R,1.000000X3.150000*%
%TD*%
%TA.AperFunction,SMDPad,CuDef*%
%ADD12R,2.180000X2.000000*%
%TD*%
%TA.AperFunction,SMDPad,CuDef*%
%ADD13R,0.300000X1.150000*%
%TD*%
%TA.AperFunction,SMDPad,CuDef*%
%ADD14R,0.600000X1.150000*%
%TD*%
%TA.AperFunction,SMDPad,CuDef*%
%ADD15R,1.550000X1.300000*%
%TD*%
%TA.AperFunction,SMDPad,CuDef*%
%ADD16R,2.000000X3.800000*%
%TD*%
%TA.AperFunction,SMDPad,CuDef*%
%ADD17R,2.000000X1.500000*%
%TD*%
%TA.AperFunction,SMDPad,CuDef*%
%ADD18R,2.400000X2.800000*%
%TD*%
%TA.AperFunction,SMDPad,CuDef*%
%ADD19R,1.000000X1.500000*%
%TD*%
%TA.AperFunction,SMDPad,CuDef*%
%ADD20C,1.000000*%
%TD*%
%TA.AperFunction,SMDPad,CuDef*%
%ADD21R,2.540000X1.016000*%
%TD*%
%TA.AperFunction,SMDPad,CuDef*%
%ADD22R,1.016000X2.540000*%
%TD*%
%TA.AperFunction,SMDPad,CuDef*%
%ADD23R,3.150000X1.000000*%
%TD*%
%TA.AperFunction,ComponentPad*%
%ADD24C,6.400000*%
%TD*%
%TA.AperFunction,ComponentPad*%
%ADD25C,0.800000*%
%TD*%
%TA.AperFunction,SMDPad,CuDef*%
%ADD26R,0.550000X1.600000*%
%TD*%
%TA.AperFunction,SMDPad,CuDef*%
%ADD27R,1.600000X0.550000*%
%TD*%
%TA.AperFunction,SMDPad,CuDef*%
%ADD28R,1.400000X1.200000*%
%TD*%
%TA.AperFunction,SMDPad,CuDef*%
%ADD29R,2.500000X2.300000*%
%TD*%
%TA.AperFunction,SMDPad,CuDef*%
%ADD30R,1.016000X1.905000*%
%TD*%
%TA.AperFunction,ViaPad*%
%ADD31C,0.800000*%
%TD*%
%TA.AperFunction,Conductor*%
%ADD32C,0.635000*%
%TD*%
%TA.AperFunction,Conductor*%
%ADD33C,0.508000*%
%TD*%
%TA.AperFunction,Conductor*%
%ADD34C,0.254000*%
%TD*%
%TA.AperFunction,Conductor*%
%ADD35C,0.381000*%
%TD*%
%TA.AperFunction,Conductor*%
%ADD36C,0.100000*%
%TD*%
G04 APERTURE END LIST*
D10*
X73431896Y-62496118D02*
G75*
G02*
X120707642Y-53928265I66269656J-230949950D01*
G01*
X121541768Y-54762400D02*
G75*
G03*
X120707642Y-53928265I-834135J0D01*
G01*
X132715000Y-55245000D02*
G75*
G03*
X133477000Y-54483000I0J762000D01*
G01*
X132715000Y-55245000D02*
X122157808Y-55243390D01*
X134620000Y-53233692D02*
G75*
G03*
X133477000Y-54376692I0J-1143000D01*
G01*
X121541768Y-54762400D02*
G75*
G03*
X122157808Y-55243390I616040J154010D01*
G01*
X133477000Y-54483000D02*
X133477000Y-54376692D01*
X139700000Y-53180000D02*
G75*
G03*
X134620000Y-53233692I0J-240347211D01*
G01*
X145923000Y-54483000D02*
X145923000Y-54376692D01*
X157858232Y-54762400D02*
G75*
G02*
X158692358Y-53928265I834135J0D01*
G01*
X158692358Y-53928264D02*
G75*
G02*
X205969205Y-62493874I-18992358J-239578255D01*
G01*
X144780000Y-53233692D02*
G75*
G02*
X145923000Y-54376692I0J-1143000D01*
G01*
X139700000Y-53180000D02*
G75*
G02*
X144780000Y-53233692I0J-240347211D01*
G01*
X146685000Y-55245000D02*
G75*
G02*
X145923000Y-54483000I0J762000D01*
G01*
X157858232Y-54762400D02*
G75*
G02*
X157242192Y-55243390I-616040J154010D01*
G01*
X146685000Y-55245000D02*
X157242192Y-55243390D01*
X205969205Y-62493874D02*
G75*
G02*
X266571000Y-98721000I-37916205J-132229126D01*
G01*
X266571000Y-98721000D02*
X266571000Y-104479000D01*
X266571256Y-104479861D02*
G75*
G02*
X205969000Y-140707000I-98518256J96002861D01*
G01*
X205968733Y-140706537D02*
G75*
G02*
X139700000Y-150020000I-66268733J231106537D01*
G01*
X12828744Y-98720139D02*
G75*
G02*
X73431000Y-62493000I98518256J-96002861D01*
G01*
X139699871Y-150020519D02*
G75*
G02*
X73431000Y-140707000I129J240420519D01*
G01*
X12829000Y-98721000D02*
X12829000Y-104479000D01*
X73430795Y-140706126D02*
G75*
G02*
X12829000Y-104479000I37916205J132229126D01*
G01*
X89831000Y-134459000D02*
G75*
G03*
X89831000Y-134459000I-1717000J0D01*
G01*
X26734000Y-111075000D02*
G75*
G03*
X26734000Y-111075000I-1717000J0D01*
G01*
X141091000Y-145758000D02*
X138309000Y-145758000D01*
X138309000Y-145758000D02*
X138309000Y-148540000D01*
X138309000Y-148540000D02*
X141091000Y-148540000D01*
X141091000Y-148540000D02*
X141091000Y-145758000D01*
X193002000Y-134459000D02*
G75*
G03*
X193002000Y-134459000I-1716000J0D01*
G01*
X256100000Y-111075000D02*
G75*
G03*
X256100000Y-111075000I-1717000J0D01*
G01*
X26734000Y-92125000D02*
G75*
G03*
X26734000Y-92125000I-1717000J0D01*
G01*
X89831000Y-68741000D02*
G75*
G03*
X89831000Y-68741000I-1717000J0D01*
G01*
X256100000Y-92125000D02*
G75*
G03*
X256100000Y-92125000I-1717000J0D01*
G01*
X193002000Y-68741000D02*
G75*
G03*
X193002000Y-68741000I-1716000J0D01*
G01*
X141091000Y-54660000D02*
X138309000Y-54660000D01*
X138309000Y-54660000D02*
X138309000Y-57442000D01*
X138309000Y-57442000D02*
X141091000Y-57442000D01*
X141091000Y-57442000D02*
X141091000Y-54660000D01*
%TO.P,C18,2*%
%TO.N,GND*%
%TA.AperFunction,SMDPad,CuDef*%
G36*
G01*
X144214000Y-118331000D02*
X144214000Y-117381000D01*
G75*
G02*
X144464000Y-117131000I250000J0D01*
G01*
X144964000Y-117131000D01*
G75*
G02*
X145214000Y-117381000I0J-250000D01*
G01*
X145214000Y-118331000D01*
G75*
G02*
X144964000Y-118581000I-250000J0D01*
G01*
X144464000Y-118581000D01*
G75*
G02*
X144214000Y-118331000I0J250000D01*
G01*
G37*
%TD.AperFunction*%
%TO.P,C18,1*%
%TO.N,+5V*%
%TA.AperFunction,SMDPad,CuDef*%
G36*
G01*
X142314000Y-118331000D02*
X142314000Y-117381000D01*
G75*
G02*
X142564000Y-117131000I250000J0D01*
G01*
X143064000Y-117131000D01*
G75*
G02*
X143314000Y-117381000I0J-250000D01*
G01*
X143314000Y-118331000D01*
G75*
G02*
X143064000Y-118581000I-250000J0D01*
G01*
X142564000Y-118581000D01*
G75*
G02*
X142314000Y-118331000I0J250000D01*
G01*
G37*
%TD.AperFunction*%
%TD*%
D11*
%TO.P,P6,8*%
%TO.N,/SBU2*%
X155702000Y-70119000D03*
%TO.P,P6,7*%
%TO.N,GND*%
X155702000Y-75169000D03*
%TO.P,P6,6*%
%TO.N,/D+*%
X153162000Y-70119000D03*
%TO.P,P6,5*%
%TO.N,/CC1*%
X153162000Y-75169000D03*
%TO.P,P6,4*%
%TO.N,/D-*%
X150622000Y-70119000D03*
%TO.P,P6,3*%
%TO.N,/CC2*%
X150622000Y-75169000D03*
%TO.P,P6,2*%
%TO.N,/SBU1*%
X148082000Y-70119000D03*
%TO.P,P6,1*%
%TO.N,/Vusb*%
X148082000Y-75169000D03*
%TD*%
D12*
%TO.P,J2,S4*%
%TO.N,GND*%
X146782000Y-57276000D03*
%TO.P,J2,S3*%
X157002000Y-57276000D03*
%TO.P,J2,S2*%
X146782000Y-61206000D03*
%TO.P,J2,S1*%
X157002000Y-61206000D03*
D13*
%TO.P,J2,A7*%
%TO.N,/D-*%
X151642000Y-61781000D03*
%TO.P,J2,A6*%
%TO.N,/D+*%
X152142000Y-61781000D03*
%TO.P,J2,B6*%
X151142000Y-61781000D03*
%TO.P,J2,B7*%
%TO.N,/D-*%
X152642000Y-61781000D03*
%TO.P,J2,A8*%
%TO.N,/SBU1*%
X150642000Y-61781000D03*
%TO.P,J2,A5*%
%TO.N,/CC1*%
X153142000Y-61781000D03*
%TO.P,J2,B5*%
%TO.N,/CC2*%
X150142000Y-61781000D03*
%TO.P,J2,B8*%
%TO.N,/SBU2*%
X153642000Y-61781000D03*
D14*
%TO.P,J2,B1/A12*%
%TO.N,GND*%
X148692000Y-61781000D03*
%TO.P,J2,B4/A9*%
%TO.N,/Vusb*%
X149492000Y-61781000D03*
%TO.P,J2,A4/B9*%
X154292000Y-61781000D03*
%TO.P,J2,A1/B12*%
%TO.N,GND*%
X155092000Y-61781000D03*
%TD*%
%TO.P,C10,2*%
%TO.N,+5V*%
%TA.AperFunction,SMDPad,CuDef*%
G36*
G01*
X216375000Y-82862000D02*
X215425000Y-82862000D01*
G75*
G02*
X215175000Y-82612000I0J250000D01*
G01*
X215175000Y-82112000D01*
G75*
G02*
X215425000Y-81862000I250000J0D01*
G01*
X216375000Y-81862000D01*
G75*
G02*
X216625000Y-82112000I0J-250000D01*
G01*
X216625000Y-82612000D01*
G75*
G02*
X216375000Y-82862000I-250000J0D01*
G01*
G37*
%TD.AperFunction*%
%TO.P,C10,1*%
%TO.N,GND*%
%TA.AperFunction,SMDPad,CuDef*%
G36*
G01*
X216375000Y-84762000D02*
X215425000Y-84762000D01*
G75*
G02*
X215175000Y-84512000I0J250000D01*
G01*
X215175000Y-84012000D01*
G75*
G02*
X215425000Y-83762000I250000J0D01*
G01*
X216375000Y-83762000D01*
G75*
G02*
X216625000Y-84012000I0J-250000D01*
G01*
X216625000Y-84512000D01*
G75*
G02*
X216375000Y-84762000I-250000J0D01*
G01*
G37*
%TD.AperFunction*%
%TD*%
%TO.P,C1,2*%
%TO.N,GND*%
%TA.AperFunction,SMDPad,CuDef*%
G36*
G01*
X183854000Y-91178000D02*
X184954000Y-91178000D01*
G75*
G02*
X185204000Y-91428000I0J-250000D01*
G01*
X185204000Y-93528000D01*
G75*
G02*
X184954000Y-93778000I-250000J0D01*
G01*
X183854000Y-93778000D01*
G75*
G02*
X183604000Y-93528000I0J250000D01*
G01*
X183604000Y-91428000D01*
G75*
G02*
X183854000Y-91178000I250000J0D01*
G01*
G37*
%TD.AperFunction*%
%TO.P,C1,1*%
%TO.N,+5V*%
%TA.AperFunction,SMDPad,CuDef*%
G36*
G01*
X183854000Y-87578000D02*
X184954000Y-87578000D01*
G75*
G02*
X185204000Y-87828000I0J-250000D01*
G01*
X185204000Y-89928000D01*
G75*
G02*
X184954000Y-90178000I-250000J0D01*
G01*
X183854000Y-90178000D01*
G75*
G02*
X183604000Y-89928000I0J250000D01*
G01*
X183604000Y-87828000D01*
G75*
G02*
X183854000Y-87578000I250000J0D01*
G01*
G37*
%TD.AperFunction*%
%TD*%
D15*
%TO.P,SW1,2*%
%TO.N,/RESET*%
X167983000Y-76490000D03*
%TO.P,SW1,1*%
%TO.N,GND*%
X167983000Y-80990000D03*
X175933000Y-80990000D03*
%TO.P,SW1,2*%
%TO.N,/RESET*%
X175933000Y-76490000D03*
%TD*%
D16*
%TO.P,U2,2*%
%TO.N,+5V*%
X112166000Y-83566000D03*
D17*
X118466000Y-83566000D03*
%TO.P,U2,3*%
%TO.N,/12V*%
X118466000Y-81266000D03*
%TO.P,U2,1*%
%TO.N,GND*%
X118466000Y-85866000D03*
%TD*%
%TO.P,C6,2*%
%TO.N,/PB7*%
%TA.AperFunction,SMDPad,CuDef*%
G36*
G01*
X201770000Y-92260000D02*
X200820000Y-92260000D01*
G75*
G02*
X200570000Y-92010000I0J250000D01*
G01*
X200570000Y-91510000D01*
G75*
G02*
X200820000Y-91260000I250000J0D01*
G01*
X201770000Y-91260000D01*
G75*
G02*
X202020000Y-91510000I0J-250000D01*
G01*
X202020000Y-92010000D01*
G75*
G02*
X201770000Y-92260000I-250000J0D01*
G01*
G37*
%TD.AperFunction*%
%TO.P,C6,1*%
%TO.N,GND*%
%TA.AperFunction,SMDPad,CuDef*%
G36*
G01*
X201770000Y-94160000D02*
X200820000Y-94160000D01*
G75*
G02*
X200570000Y-93910000I0J250000D01*
G01*
X200570000Y-93410000D01*
G75*
G02*
X200820000Y-93160000I250000J0D01*
G01*
X201770000Y-93160000D01*
G75*
G02*
X202020000Y-93410000I0J-250000D01*
G01*
X202020000Y-93910000D01*
G75*
G02*
X201770000Y-94160000I-250000J0D01*
G01*
G37*
%TD.AperFunction*%
%TD*%
D18*
%TO.P,J3,1*%
%TO.N,/Vin*%
X133208000Y-64948000D03*
X133208000Y-58848000D03*
%TO.P,J3,2*%
%TO.N,GND*%
X121808000Y-58848000D03*
%TO.P,J3,3*%
X121808000Y-64948000D03*
%TD*%
D19*
%TO.P,D32,1*%
%TO.N,+5V*%
X256210000Y-104050000D03*
%TO.P,D32,2*%
%TO.N,/LED/DAT_OUT*%
X259410000Y-104050000D03*
%TO.P,D32,4*%
%TO.N,Net-(D31-Pad2)*%
X256210000Y-99150000D03*
%TO.P,D32,3*%
%TO.N,GND*%
X259410000Y-99150000D03*
%TD*%
%TO.P,D31,1*%
%TO.N,+5V*%
X248590000Y-104050000D03*
%TO.P,D31,2*%
%TO.N,Net-(D31-Pad2)*%
X251790000Y-104050000D03*
%TO.P,D31,4*%
%TO.N,Net-(D30-Pad2)*%
X248590000Y-99150000D03*
%TO.P,D31,3*%
%TO.N,GND*%
X251790000Y-99150000D03*
%TD*%
%TO.P,C9,2*%
%TO.N,/RESET*%
%TA.AperFunction,SMDPad,CuDef*%
G36*
G01*
X165387000Y-74872000D02*
X166337000Y-74872000D01*
G75*
G02*
X166587000Y-75122000I0J-250000D01*
G01*
X166587000Y-75622000D01*
G75*
G02*
X166337000Y-75872000I-250000J0D01*
G01*
X165387000Y-75872000D01*
G75*
G02*
X165137000Y-75622000I0J250000D01*
G01*
X165137000Y-75122000D01*
G75*
G02*
X165387000Y-74872000I250000J0D01*
G01*
G37*
%TD.AperFunction*%
%TO.P,C9,1*%
%TO.N,Net-(C9-Pad1)*%
%TA.AperFunction,SMDPad,CuDef*%
G36*
G01*
X165387000Y-72972000D02*
X166337000Y-72972000D01*
G75*
G02*
X166587000Y-73222000I0J-250000D01*
G01*
X166587000Y-73722000D01*
G75*
G02*
X166337000Y-73972000I-250000J0D01*
G01*
X165387000Y-73972000D01*
G75*
G02*
X165137000Y-73722000I0J250000D01*
G01*
X165137000Y-73222000D01*
G75*
G02*
X165387000Y-72972000I250000J0D01*
G01*
G37*
%TD.AperFunction*%
%TD*%
%TO.P,R1,2*%
%TO.N,/RESET*%
%TA.AperFunction,SMDPad,CuDef*%
G36*
G01*
X182480000Y-77273998D02*
X182480000Y-78174002D01*
G75*
G02*
X182230002Y-78424000I-249998J0D01*
G01*
X181704998Y-78424000D01*
G75*
G02*
X181455000Y-78174002I0J249998D01*
G01*
X181455000Y-77273998D01*
G75*
G02*
X181704998Y-77024000I249998J0D01*
G01*
X182230002Y-77024000D01*
G75*
G02*
X182480000Y-77273998I0J-249998D01*
G01*
G37*
%TD.AperFunction*%
%TO.P,R1,1*%
%TO.N,+5V*%
%TA.AperFunction,SMDPad,CuDef*%
G36*
G01*
X184305000Y-77273998D02*
X184305000Y-78174002D01*
G75*
G02*
X184055002Y-78424000I-249998J0D01*
G01*
X183529998Y-78424000D01*
G75*
G02*
X183280000Y-78174002I0J249998D01*
G01*
X183280000Y-77273998D01*
G75*
G02*
X183529998Y-77024000I249998J0D01*
G01*
X184055002Y-77024000D01*
G75*
G02*
X184305000Y-77273998I0J-249998D01*
G01*
G37*
%TD.AperFunction*%
%TD*%
D20*
%TO.P,B1,1*%
%TO.N,/SDA*%
X185420000Y-81661000D03*
%TD*%
%TO.P,B2,1*%
%TO.N,/SCL*%
X185420000Y-83439000D03*
%TD*%
%TO.P,B3,1*%
%TO.N,/A0*%
X190754000Y-75692000D03*
%TD*%
%TO.P,B4,1*%
%TO.N,/A1*%
X189738000Y-76962000D03*
%TD*%
%TO.P,B5,1*%
%TO.N,/A2*%
X186944000Y-79883000D03*
%TD*%
%TO.P,B6,1*%
%TO.N,/A3*%
X186944000Y-81280000D03*
%TD*%
%TO.P,B7,1*%
%TO.N,/A6*%
X194310000Y-76962000D03*
%TD*%
%TO.P,B8,1*%
%TO.N,/A7*%
X191770000Y-76962000D03*
%TD*%
%TO.P,B9,1*%
%TO.N,/RXD*%
X187071000Y-84201000D03*
%TD*%
%TO.P,B10,1*%
%TO.N,/TXD*%
X187071000Y-85598000D03*
%TD*%
%TO.P,B11,1*%
%TO.N,/D2*%
X187071000Y-86995000D03*
%TD*%
%TO.P,B12,1*%
%TO.N,/D3~~*%
X188595000Y-88265000D03*
%TD*%
%TO.P,B13,1*%
%TO.N,/D7*%
X199644000Y-85344000D03*
%TD*%
%TO.P,B14,1*%
%TO.N,/D8*%
X200533000Y-84201000D03*
%TD*%
%TO.P,B15,1*%
%TO.N,/D9~~*%
X199644000Y-83058000D03*
%TD*%
%TO.P,B16,1*%
%TO.N,/SS*%
X200533000Y-81915000D03*
%TD*%
%TO.P,B17,1*%
%TO.N,/MOSI*%
X199390000Y-80645000D03*
%TD*%
%TO.P,B18,1*%
%TO.N,/MISO*%
X200533000Y-79502000D03*
%TD*%
%TO.P,B19,1*%
%TO.N,/SCK*%
X200279000Y-77089000D03*
%TD*%
%TO.P,B20,1*%
%TO.N,/CLK*%
X60706000Y-90170000D03*
%TD*%
%TO.P,C11,2*%
%TO.N,+5V*%
%TA.AperFunction,SMDPad,CuDef*%
G36*
G01*
X43147000Y-109532000D02*
X42197000Y-109532000D01*
G75*
G02*
X41947000Y-109282000I0J250000D01*
G01*
X41947000Y-108782000D01*
G75*
G02*
X42197000Y-108532000I250000J0D01*
G01*
X43147000Y-108532000D01*
G75*
G02*
X43397000Y-108782000I0J-250000D01*
G01*
X43397000Y-109282000D01*
G75*
G02*
X43147000Y-109532000I-250000J0D01*
G01*
G37*
%TD.AperFunction*%
%TO.P,C11,1*%
%TO.N,GND*%
%TA.AperFunction,SMDPad,CuDef*%
G36*
G01*
X43147000Y-111432000D02*
X42197000Y-111432000D01*
G75*
G02*
X41947000Y-111182000I0J250000D01*
G01*
X41947000Y-110682000D01*
G75*
G02*
X42197000Y-110432000I250000J0D01*
G01*
X43147000Y-110432000D01*
G75*
G02*
X43397000Y-110682000I0J-250000D01*
G01*
X43397000Y-111182000D01*
G75*
G02*
X43147000Y-111432000I-250000J0D01*
G01*
G37*
%TD.AperFunction*%
%TD*%
%TO.P,C12,2*%
%TO.N,+5V*%
%TA.AperFunction,SMDPad,CuDef*%
G36*
G01*
X81755000Y-109532000D02*
X80805000Y-109532000D01*
G75*
G02*
X80555000Y-109282000I0J250000D01*
G01*
X80555000Y-108782000D01*
G75*
G02*
X80805000Y-108532000I250000J0D01*
G01*
X81755000Y-108532000D01*
G75*
G02*
X82005000Y-108782000I0J-250000D01*
G01*
X82005000Y-109282000D01*
G75*
G02*
X81755000Y-109532000I-250000J0D01*
G01*
G37*
%TD.AperFunction*%
%TO.P,C12,1*%
%TO.N,GND*%
%TA.AperFunction,SMDPad,CuDef*%
G36*
G01*
X81755000Y-111432000D02*
X80805000Y-111432000D01*
G75*
G02*
X80555000Y-111182000I0J250000D01*
G01*
X80555000Y-110682000D01*
G75*
G02*
X80805000Y-110432000I250000J0D01*
G01*
X81755000Y-110432000D01*
G75*
G02*
X82005000Y-110682000I0J-250000D01*
G01*
X82005000Y-111182000D01*
G75*
G02*
X81755000Y-111432000I-250000J0D01*
G01*
G37*
%TD.AperFunction*%
%TD*%
%TO.P,C13,2*%
%TO.N,+5V*%
%TA.AperFunction,SMDPad,CuDef*%
G36*
G01*
X119347000Y-109532000D02*
X118397000Y-109532000D01*
G75*
G02*
X118147000Y-109282000I0J250000D01*
G01*
X118147000Y-108782000D01*
G75*
G02*
X118397000Y-108532000I250000J0D01*
G01*
X119347000Y-108532000D01*
G75*
G02*
X119597000Y-108782000I0J-250000D01*
G01*
X119597000Y-109282000D01*
G75*
G02*
X119347000Y-109532000I-250000J0D01*
G01*
G37*
%TD.AperFunction*%
%TO.P,C13,1*%
%TO.N,GND*%
%TA.AperFunction,SMDPad,CuDef*%
G36*
G01*
X119347000Y-111432000D02*
X118397000Y-111432000D01*
G75*
G02*
X118147000Y-111182000I0J250000D01*
G01*
X118147000Y-110682000D01*
G75*
G02*
X118397000Y-110432000I250000J0D01*
G01*
X119347000Y-110432000D01*
G75*
G02*
X119597000Y-110682000I0J-250000D01*
G01*
X119597000Y-111182000D01*
G75*
G02*
X119347000Y-111432000I-250000J0D01*
G01*
G37*
%TD.AperFunction*%
%TD*%
%TO.P,C14,2*%
%TO.N,+5V*%
%TA.AperFunction,SMDPad,CuDef*%
G36*
G01*
X157447000Y-109532000D02*
X156497000Y-109532000D01*
G75*
G02*
X156247000Y-109282000I0J250000D01*
G01*
X156247000Y-108782000D01*
G75*
G02*
X156497000Y-108532000I250000J0D01*
G01*
X157447000Y-108532000D01*
G75*
G02*
X157697000Y-108782000I0J-250000D01*
G01*
X157697000Y-109282000D01*
G75*
G02*
X157447000Y-109532000I-250000J0D01*
G01*
G37*
%TD.AperFunction*%
%TO.P,C14,1*%
%TO.N,GND*%
%TA.AperFunction,SMDPad,CuDef*%
G36*
G01*
X157447000Y-111432000D02*
X156497000Y-111432000D01*
G75*
G02*
X156247000Y-111182000I0J250000D01*
G01*
X156247000Y-110682000D01*
G75*
G02*
X156497000Y-110432000I250000J0D01*
G01*
X157447000Y-110432000D01*
G75*
G02*
X157697000Y-110682000I0J-250000D01*
G01*
X157697000Y-111182000D01*
G75*
G02*
X157447000Y-111432000I-250000J0D01*
G01*
G37*
%TD.AperFunction*%
%TD*%
%TO.P,C15,2*%
%TO.N,+5V*%
%TA.AperFunction,SMDPad,CuDef*%
G36*
G01*
X195801000Y-109532000D02*
X194851000Y-109532000D01*
G75*
G02*
X194601000Y-109282000I0J250000D01*
G01*
X194601000Y-108782000D01*
G75*
G02*
X194851000Y-108532000I250000J0D01*
G01*
X195801000Y-108532000D01*
G75*
G02*
X196051000Y-108782000I0J-250000D01*
G01*
X196051000Y-109282000D01*
G75*
G02*
X195801000Y-109532000I-250000J0D01*
G01*
G37*
%TD.AperFunction*%
%TO.P,C15,1*%
%TO.N,GND*%
%TA.AperFunction,SMDPad,CuDef*%
G36*
G01*
X195801000Y-111432000D02*
X194851000Y-111432000D01*
G75*
G02*
X194601000Y-111182000I0J250000D01*
G01*
X194601000Y-110682000D01*
G75*
G02*
X194851000Y-110432000I250000J0D01*
G01*
X195801000Y-110432000D01*
G75*
G02*
X196051000Y-110682000I0J-250000D01*
G01*
X196051000Y-111182000D01*
G75*
G02*
X195801000Y-111432000I-250000J0D01*
G01*
G37*
%TD.AperFunction*%
%TD*%
%TO.P,C16,2*%
%TO.N,+5V*%
%TA.AperFunction,SMDPad,CuDef*%
G36*
G01*
X233647000Y-109532000D02*
X232697000Y-109532000D01*
G75*
G02*
X232447000Y-109282000I0J250000D01*
G01*
X232447000Y-108782000D01*
G75*
G02*
X232697000Y-108532000I250000J0D01*
G01*
X233647000Y-108532000D01*
G75*
G02*
X233897000Y-108782000I0J-250000D01*
G01*
X233897000Y-109282000D01*
G75*
G02*
X233647000Y-109532000I-250000J0D01*
G01*
G37*
%TD.AperFunction*%
%TO.P,C16,1*%
%TO.N,GND*%
%TA.AperFunction,SMDPad,CuDef*%
G36*
G01*
X233647000Y-111432000D02*
X232697000Y-111432000D01*
G75*
G02*
X232447000Y-111182000I0J250000D01*
G01*
X232447000Y-110682000D01*
G75*
G02*
X232697000Y-110432000I250000J0D01*
G01*
X233647000Y-110432000D01*
G75*
G02*
X233897000Y-110682000I0J-250000D01*
G01*
X233897000Y-111182000D01*
G75*
G02*
X233647000Y-111432000I-250000J0D01*
G01*
G37*
%TD.AperFunction*%
%TD*%
%TO.P,C2,2*%
%TO.N,GND*%
%TA.AperFunction,SMDPad,CuDef*%
G36*
G01*
X196309000Y-73972000D02*
X195359000Y-73972000D01*
G75*
G02*
X195109000Y-73722000I0J250000D01*
G01*
X195109000Y-73222000D01*
G75*
G02*
X195359000Y-72972000I250000J0D01*
G01*
X196309000Y-72972000D01*
G75*
G02*
X196559000Y-73222000I0J-250000D01*
G01*
X196559000Y-73722000D01*
G75*
G02*
X196309000Y-73972000I-250000J0D01*
G01*
G37*
%TD.AperFunction*%
%TO.P,C2,1*%
%TO.N,+5V*%
%TA.AperFunction,SMDPad,CuDef*%
G36*
G01*
X196309000Y-75872000D02*
X195359000Y-75872000D01*
G75*
G02*
X195109000Y-75622000I0J250000D01*
G01*
X195109000Y-75122000D01*
G75*
G02*
X195359000Y-74872000I250000J0D01*
G01*
X196309000Y-74872000D01*
G75*
G02*
X196559000Y-75122000I0J-250000D01*
G01*
X196559000Y-75622000D01*
G75*
G02*
X196309000Y-75872000I-250000J0D01*
G01*
G37*
%TD.AperFunction*%
%TD*%
%TO.P,C3,2*%
%TO.N,GND*%
%TA.AperFunction,SMDPad,CuDef*%
G36*
G01*
X180119000Y-91128000D02*
X181069000Y-91128000D01*
G75*
G02*
X181319000Y-91378000I0J-250000D01*
G01*
X181319000Y-91878000D01*
G75*
G02*
X181069000Y-92128000I-250000J0D01*
G01*
X180119000Y-92128000D01*
G75*
G02*
X179869000Y-91878000I0J250000D01*
G01*
X179869000Y-91378000D01*
G75*
G02*
X180119000Y-91128000I250000J0D01*
G01*
G37*
%TD.AperFunction*%
%TO.P,C3,1*%
%TO.N,+5V*%
%TA.AperFunction,SMDPad,CuDef*%
G36*
G01*
X180119000Y-89228000D02*
X181069000Y-89228000D01*
G75*
G02*
X181319000Y-89478000I0J-250000D01*
G01*
X181319000Y-89978000D01*
G75*
G02*
X181069000Y-90228000I-250000J0D01*
G01*
X180119000Y-90228000D01*
G75*
G02*
X179869000Y-89978000I0J250000D01*
G01*
X179869000Y-89478000D01*
G75*
G02*
X180119000Y-89228000I250000J0D01*
G01*
G37*
%TD.AperFunction*%
%TD*%
%TO.P,C4,2*%
%TO.N,GND*%
%TA.AperFunction,SMDPad,CuDef*%
G36*
G01*
X177579000Y-91128000D02*
X178529000Y-91128000D01*
G75*
G02*
X178779000Y-91378000I0J-250000D01*
G01*
X178779000Y-91878000D01*
G75*
G02*
X178529000Y-92128000I-250000J0D01*
G01*
X177579000Y-92128000D01*
G75*
G02*
X177329000Y-91878000I0J250000D01*
G01*
X177329000Y-91378000D01*
G75*
G02*
X177579000Y-91128000I250000J0D01*
G01*
G37*
%TD.AperFunction*%
%TO.P,C4,1*%
%TO.N,+5V*%
%TA.AperFunction,SMDPad,CuDef*%
G36*
G01*
X177579000Y-89228000D02*
X178529000Y-89228000D01*
G75*
G02*
X178779000Y-89478000I0J-250000D01*
G01*
X178779000Y-89978000D01*
G75*
G02*
X178529000Y-90228000I-250000J0D01*
G01*
X177579000Y-90228000D01*
G75*
G02*
X177329000Y-89978000I0J250000D01*
G01*
X177329000Y-89478000D01*
G75*
G02*
X177579000Y-89228000I250000J0D01*
G01*
G37*
%TD.AperFunction*%
%TD*%
%TO.P,C5,2*%
%TO.N,GND*%
%TA.AperFunction,SMDPad,CuDef*%
G36*
G01*
X194343000Y-93160000D02*
X195293000Y-93160000D01*
G75*
G02*
X195543000Y-93410000I0J-250000D01*
G01*
X195543000Y-93910000D01*
G75*
G02*
X195293000Y-94160000I-250000J0D01*
G01*
X194343000Y-94160000D01*
G75*
G02*
X194093000Y-93910000I0J250000D01*
G01*
X194093000Y-93410000D01*
G75*
G02*
X194343000Y-93160000I250000J0D01*
G01*
G37*
%TD.AperFunction*%
%TO.P,C5,1*%
%TO.N,/PB6*%
%TA.AperFunction,SMDPad,CuDef*%
G36*
G01*
X194343000Y-91260000D02*
X195293000Y-91260000D01*
G75*
G02*
X195543000Y-91510000I0J-250000D01*
G01*
X195543000Y-92010000D01*
G75*
G02*
X195293000Y-92260000I-250000J0D01*
G01*
X194343000Y-92260000D01*
G75*
G02*
X194093000Y-92010000I0J250000D01*
G01*
X194093000Y-91510000D01*
G75*
G02*
X194343000Y-91260000I250000J0D01*
G01*
G37*
%TD.AperFunction*%
%TD*%
%TO.P,C7,2*%
%TO.N,GND*%
%TA.AperFunction,SMDPad,CuDef*%
G36*
G01*
X123148000Y-84066000D02*
X124248000Y-84066000D01*
G75*
G02*
X124498000Y-84316000I0J-250000D01*
G01*
X124498000Y-86416000D01*
G75*
G02*
X124248000Y-86666000I-250000J0D01*
G01*
X123148000Y-86666000D01*
G75*
G02*
X122898000Y-86416000I0J250000D01*
G01*
X122898000Y-84316000D01*
G75*
G02*
X123148000Y-84066000I250000J0D01*
G01*
G37*
%TD.AperFunction*%
%TO.P,C7,1*%
%TO.N,/12V*%
%TA.AperFunction,SMDPad,CuDef*%
G36*
G01*
X123148000Y-80466000D02*
X124248000Y-80466000D01*
G75*
G02*
X124498000Y-80716000I0J-250000D01*
G01*
X124498000Y-82816000D01*
G75*
G02*
X124248000Y-83066000I-250000J0D01*
G01*
X123148000Y-83066000D01*
G75*
G02*
X122898000Y-82816000I0J250000D01*
G01*
X122898000Y-80716000D01*
G75*
G02*
X123148000Y-80466000I250000J0D01*
G01*
G37*
%TD.AperFunction*%
%TD*%
%TO.P,C8,2*%
%TO.N,GND*%
%TA.AperFunction,SMDPad,CuDef*%
G36*
G01*
X109949000Y-81084000D02*
X108999000Y-81084000D01*
G75*
G02*
X108749000Y-80834000I0J250000D01*
G01*
X108749000Y-80334000D01*
G75*
G02*
X108999000Y-80084000I250000J0D01*
G01*
X109949000Y-80084000D01*
G75*
G02*
X110199000Y-80334000I0J-250000D01*
G01*
X110199000Y-80834000D01*
G75*
G02*
X109949000Y-81084000I-250000J0D01*
G01*
G37*
%TD.AperFunction*%
%TO.P,C8,1*%
%TO.N,+5V*%
%TA.AperFunction,SMDPad,CuDef*%
G36*
G01*
X109949000Y-82984000D02*
X108999000Y-82984000D01*
G75*
G02*
X108749000Y-82734000I0J250000D01*
G01*
X108749000Y-82234000D01*
G75*
G02*
X108999000Y-81984000I250000J0D01*
G01*
X109949000Y-81984000D01*
G75*
G02*
X110199000Y-82234000I0J-250000D01*
G01*
X110199000Y-82734000D01*
G75*
G02*
X109949000Y-82984000I-250000J0D01*
G01*
G37*
%TD.AperFunction*%
%TD*%
D19*
%TO.P,D1,1*%
%TO.N,+5V*%
X19990000Y-104050000D03*
%TO.P,D1,2*%
%TO.N,Net-(D1-Pad2)*%
X23190000Y-104050000D03*
%TO.P,D1,4*%
%TO.N,/DAT*%
X19990000Y-99150000D03*
%TO.P,D1,3*%
%TO.N,GND*%
X23190000Y-99150000D03*
%TD*%
%TO.P,D2,1*%
%TO.N,+5V*%
X27610000Y-104050000D03*
%TO.P,D2,2*%
%TO.N,Net-(D2-Pad2)*%
X30810000Y-104050000D03*
%TO.P,D2,4*%
%TO.N,Net-(D1-Pad2)*%
X27610000Y-99150000D03*
%TO.P,D2,3*%
%TO.N,GND*%
X30810000Y-99150000D03*
%TD*%
%TO.P,D3,1*%
%TO.N,+5V*%
X35230000Y-104050000D03*
%TO.P,D3,2*%
%TO.N,Net-(D3-Pad2)*%
X38430000Y-104050000D03*
%TO.P,D3,4*%
%TO.N,Net-(D2-Pad2)*%
X35230000Y-99150000D03*
%TO.P,D3,3*%
%TO.N,GND*%
X38430000Y-99150000D03*
%TD*%
%TO.P,D4,1*%
%TO.N,+5V*%
X42850000Y-104050000D03*
%TO.P,D4,2*%
%TO.N,Net-(D4-Pad2)*%
X46050000Y-104050000D03*
%TO.P,D4,4*%
%TO.N,Net-(D3-Pad2)*%
X42850000Y-99150000D03*
%TO.P,D4,3*%
%TO.N,GND*%
X46050000Y-99150000D03*
%TD*%
%TO.P,D5,1*%
%TO.N,+5V*%
X50470000Y-104050000D03*
%TO.P,D5,2*%
%TO.N,Net-(D5-Pad2)*%
X53670000Y-104050000D03*
%TO.P,D5,4*%
%TO.N,Net-(D4-Pad2)*%
X50470000Y-99150000D03*
%TO.P,D5,3*%
%TO.N,GND*%
X53670000Y-99150000D03*
%TD*%
%TO.P,D6,1*%
%TO.N,+5V*%
X58090000Y-104050000D03*
%TO.P,D6,2*%
%TO.N,Net-(D6-Pad2)*%
X61290000Y-104050000D03*
%TO.P,D6,4*%
%TO.N,Net-(D5-Pad2)*%
X58090000Y-99150000D03*
%TO.P,D6,3*%
%TO.N,GND*%
X61290000Y-99150000D03*
%TD*%
%TO.P,D7,1*%
%TO.N,+5V*%
X65710000Y-104050000D03*
%TO.P,D7,2*%
%TO.N,Net-(D7-Pad2)*%
X68910000Y-104050000D03*
%TO.P,D7,4*%
%TO.N,Net-(D6-Pad2)*%
X65710000Y-99150000D03*
%TO.P,D7,3*%
%TO.N,GND*%
X68910000Y-99150000D03*
%TD*%
%TO.P,D8,1*%
%TO.N,+5V*%
X73330000Y-104050000D03*
%TO.P,D8,2*%
%TO.N,Net-(D8-Pad2)*%
X76530000Y-104050000D03*
%TO.P,D8,4*%
%TO.N,Net-(D7-Pad2)*%
X73330000Y-99150000D03*
%TO.P,D8,3*%
%TO.N,GND*%
X76530000Y-99150000D03*
%TD*%
%TO.P,D9,1*%
%TO.N,+5V*%
X80950000Y-104050000D03*
%TO.P,D9,2*%
%TO.N,Net-(D10-Pad4)*%
X84150000Y-104050000D03*
%TO.P,D9,4*%
%TO.N,Net-(D8-Pad2)*%
X80950000Y-99150000D03*
%TO.P,D9,3*%
%TO.N,GND*%
X84150000Y-99150000D03*
%TD*%
%TO.P,D10,1*%
%TO.N,+5V*%
X88570000Y-104050000D03*
%TO.P,D10,2*%
%TO.N,Net-(D10-Pad2)*%
X91770000Y-104050000D03*
%TO.P,D10,4*%
%TO.N,Net-(D10-Pad4)*%
X88570000Y-99150000D03*
%TO.P,D10,3*%
%TO.N,GND*%
X91770000Y-99150000D03*
%TD*%
%TO.P,D11,1*%
%TO.N,+5V*%
X96190000Y-104050000D03*
%TO.P,D11,2*%
%TO.N,Net-(D11-Pad2)*%
X99390000Y-104050000D03*
%TO.P,D11,4*%
%TO.N,Net-(D10-Pad2)*%
X96190000Y-99150000D03*
%TO.P,D11,3*%
%TO.N,GND*%
X99390000Y-99150000D03*
%TD*%
%TO.P,D12,1*%
%TO.N,+5V*%
X103810000Y-104050000D03*
%TO.P,D12,2*%
%TO.N,Net-(D12-Pad2)*%
X107010000Y-104050000D03*
%TO.P,D12,4*%
%TO.N,Net-(D11-Pad2)*%
X103810000Y-99150000D03*
%TO.P,D12,3*%
%TO.N,GND*%
X107010000Y-99150000D03*
%TD*%
%TO.P,D13,1*%
%TO.N,+5V*%
X111430000Y-104050000D03*
%TO.P,D13,2*%
%TO.N,Net-(D13-Pad2)*%
X114630000Y-104050000D03*
%TO.P,D13,4*%
%TO.N,Net-(D12-Pad2)*%
X111430000Y-99150000D03*
%TO.P,D13,3*%
%TO.N,GND*%
X114630000Y-99150000D03*
%TD*%
%TO.P,D14,1*%
%TO.N,+5V*%
X119050000Y-104050000D03*
%TO.P,D14,2*%
%TO.N,Net-(D14-Pad2)*%
X122250000Y-104050000D03*
%TO.P,D14,4*%
%TO.N,Net-(D13-Pad2)*%
X119050000Y-99150000D03*
%TO.P,D14,3*%
%TO.N,GND*%
X122250000Y-99150000D03*
%TD*%
%TO.P,D15,1*%
%TO.N,+5V*%
X126670000Y-104050000D03*
%TO.P,D15,2*%
%TO.N,Net-(D15-Pad2)*%
X129870000Y-104050000D03*
%TO.P,D15,4*%
%TO.N,Net-(D14-Pad2)*%
X126670000Y-99150000D03*
%TO.P,D15,3*%
%TO.N,GND*%
X129870000Y-99150000D03*
%TD*%
%TO.P,D16,1*%
%TO.N,+5V*%
X134290000Y-104050000D03*
%TO.P,D16,2*%
%TO.N,Net-(D16-Pad2)*%
X137490000Y-104050000D03*
%TO.P,D16,4*%
%TO.N,Net-(D15-Pad2)*%
X134290000Y-99150000D03*
%TO.P,D16,3*%
%TO.N,GND*%
X137490000Y-99150000D03*
%TD*%
%TO.P,D17,1*%
%TO.N,+5V*%
X141910000Y-104050000D03*
%TO.P,D17,2*%
%TO.N,Net-(D17-Pad2)*%
X145110000Y-104050000D03*
%TO.P,D17,4*%
%TO.N,Net-(D16-Pad2)*%
X141910000Y-99150000D03*
%TO.P,D17,3*%
%TO.N,GND*%
X145110000Y-99150000D03*
%TD*%
%TO.P,D18,1*%
%TO.N,+5V*%
X149530000Y-104050000D03*
%TO.P,D18,2*%
%TO.N,Net-(D18-Pad2)*%
X152730000Y-104050000D03*
%TO.P,D18,4*%
%TO.N,Net-(D17-Pad2)*%
X149530000Y-99150000D03*
%TO.P,D18,3*%
%TO.N,GND*%
X152730000Y-99150000D03*
%TD*%
%TO.P,D19,1*%
%TO.N,+5V*%
X157150000Y-104050000D03*
%TO.P,D19,2*%
%TO.N,Net-(D19-Pad2)*%
X160350000Y-104050000D03*
%TO.P,D19,4*%
%TO.N,Net-(D18-Pad2)*%
X157150000Y-99150000D03*
%TO.P,D19,3*%
%TO.N,GND*%
X160350000Y-99150000D03*
%TD*%
%TO.P,D20,1*%
%TO.N,+5V*%
X164770000Y-104050000D03*
%TO.P,D20,2*%
%TO.N,Net-(D20-Pad2)*%
X167970000Y-104050000D03*
%TO.P,D20,4*%
%TO.N,Net-(D19-Pad2)*%
X164770000Y-99150000D03*
%TO.P,D20,3*%
%TO.N,GND*%
X167970000Y-99150000D03*
%TD*%
%TO.P,D21,1*%
%TO.N,+5V*%
X172390000Y-104050000D03*
%TO.P,D21,2*%
%TO.N,Net-(D21-Pad2)*%
X175590000Y-104050000D03*
%TO.P,D21,4*%
%TO.N,Net-(D20-Pad2)*%
X172390000Y-99150000D03*
%TO.P,D21,3*%
%TO.N,GND*%
X175590000Y-99150000D03*
%TD*%
%TO.P,D22,1*%
%TO.N,+5V*%
X180010000Y-104050000D03*
%TO.P,D22,2*%
%TO.N,Net-(D22-Pad2)*%
X183210000Y-104050000D03*
%TO.P,D22,4*%
%TO.N,Net-(D21-Pad2)*%
X180010000Y-99150000D03*
%TO.P,D22,3*%
%TO.N,GND*%
X183210000Y-99150000D03*
%TD*%
%TO.P,D23,1*%
%TO.N,+5V*%
X187630000Y-104050000D03*
%TO.P,D23,2*%
%TO.N,Net-(D23-Pad2)*%
X190830000Y-104050000D03*
%TO.P,D23,4*%
%TO.N,Net-(D22-Pad2)*%
X187630000Y-99150000D03*
%TO.P,D23,3*%
%TO.N,GND*%
X190830000Y-99150000D03*
%TD*%
%TO.P,D24,1*%
%TO.N,+5V*%
X195250000Y-104050000D03*
%TO.P,D24,2*%
%TO.N,Net-(D24-Pad2)*%
X198450000Y-104050000D03*
%TO.P,D24,4*%
%TO.N,Net-(D23-Pad2)*%
X195250000Y-99150000D03*
%TO.P,D24,3*%
%TO.N,GND*%
X198450000Y-99150000D03*
%TD*%
%TO.P,D25,1*%
%TO.N,+5V*%
X202870000Y-104050000D03*
%TO.P,D25,2*%
%TO.N,Net-(D25-Pad2)*%
X206070000Y-104050000D03*
%TO.P,D25,4*%
%TO.N,Net-(D24-Pad2)*%
X202870000Y-99150000D03*
%TO.P,D25,3*%
%TO.N,GND*%
X206070000Y-99150000D03*
%TD*%
%TO.P,D26,1*%
%TO.N,+5V*%
X210490000Y-104050000D03*
%TO.P,D26,2*%
%TO.N,Net-(D26-Pad2)*%
X213690000Y-104050000D03*
%TO.P,D26,4*%
%TO.N,Net-(D25-Pad2)*%
X210490000Y-99150000D03*
%TO.P,D26,3*%
%TO.N,GND*%
X213690000Y-99150000D03*
%TD*%
%TO.P,D27,1*%
%TO.N,+5V*%
X218110000Y-104050000D03*
%TO.P,D27,2*%
%TO.N,Net-(D27-Pad2)*%
X221310000Y-104050000D03*
%TO.P,D27,4*%
%TO.N,Net-(D26-Pad2)*%
X218110000Y-99150000D03*
%TO.P,D27,3*%
%TO.N,GND*%
X221310000Y-99150000D03*
%TD*%
%TO.P,D28,1*%
%TO.N,+5V*%
X225730000Y-104050000D03*
%TO.P,D28,2*%
%TO.N,Net-(D28-Pad2)*%
X228930000Y-104050000D03*
%TO.P,D28,4*%
%TO.N,Net-(D27-Pad2)*%
X225730000Y-99150000D03*
%TO.P,D28,3*%
%TO.N,GND*%
X228930000Y-99150000D03*
%TD*%
%TO.P,D29,1*%
%TO.N,+5V*%
X233350000Y-104050000D03*
%TO.P,D29,2*%
%TO.N,Net-(D29-Pad2)*%
X236550000Y-104050000D03*
%TO.P,D29,4*%
%TO.N,Net-(D28-Pad2)*%
X233350000Y-99150000D03*
%TO.P,D29,3*%
%TO.N,GND*%
X236550000Y-99150000D03*
%TD*%
%TO.P,D30,1*%
%TO.N,+5V*%
X240970000Y-104050000D03*
%TO.P,D30,2*%
%TO.N,Net-(D30-Pad2)*%
X244170000Y-104050000D03*
%TO.P,D30,4*%
%TO.N,Net-(D29-Pad2)*%
X240970000Y-99150000D03*
%TO.P,D30,3*%
%TO.N,GND*%
X244170000Y-99150000D03*
%TD*%
%TO.P,D35,K*%
%TO.N,GND*%
%TA.AperFunction,SMDPad,CuDef*%
G36*
G01*
X106731750Y-80109000D02*
X107644250Y-80109000D01*
G75*
G02*
X107888000Y-80352750I0J-243750D01*
G01*
X107888000Y-80840250D01*
G75*
G02*
X107644250Y-81084000I-243750J0D01*
G01*
X106731750Y-81084000D01*
G75*
G02*
X106488000Y-80840250I0J243750D01*
G01*
X106488000Y-80352750D01*
G75*
G02*
X106731750Y-80109000I243750J0D01*
G01*
G37*
%TD.AperFunction*%
%TO.P,D35,A*%
%TO.N,Net-(D35-PadA)*%
%TA.AperFunction,SMDPad,CuDef*%
G36*
G01*
X106731750Y-81984000D02*
X107644250Y-81984000D01*
G75*
G02*
X107888000Y-82227750I0J-243750D01*
G01*
X107888000Y-82715250D01*
G75*
G02*
X107644250Y-82959000I-243750J0D01*
G01*
X106731750Y-82959000D01*
G75*
G02*
X106488000Y-82715250I0J243750D01*
G01*
X106488000Y-82227750D01*
G75*
G02*
X106731750Y-81984000I243750J0D01*
G01*
G37*
%TD.AperFunction*%
%TD*%
%TO.P,D36,K*%
%TO.N,GND*%
%TA.AperFunction,SMDPad,CuDef*%
G36*
G01*
X200735250Y-75974000D02*
X199822750Y-75974000D01*
G75*
G02*
X199579000Y-75730250I0J243750D01*
G01*
X199579000Y-75242750D01*
G75*
G02*
X199822750Y-74999000I243750J0D01*
G01*
X200735250Y-74999000D01*
G75*
G02*
X200979000Y-75242750I0J-243750D01*
G01*
X200979000Y-75730250D01*
G75*
G02*
X200735250Y-75974000I-243750J0D01*
G01*
G37*
%TD.AperFunction*%
%TO.P,D36,A*%
%TO.N,Net-(D36-PadA)*%
%TA.AperFunction,SMDPad,CuDef*%
G36*
G01*
X200735250Y-74099000D02*
X199822750Y-74099000D01*
G75*
G02*
X199579000Y-73855250I0J243750D01*
G01*
X199579000Y-73367750D01*
G75*
G02*
X199822750Y-73124000I243750J0D01*
G01*
X200735250Y-73124000D01*
G75*
G02*
X200979000Y-73367750I0J-243750D01*
G01*
X200979000Y-73855250D01*
G75*
G02*
X200735250Y-74099000I-243750J0D01*
G01*
G37*
%TD.AperFunction*%
%TD*%
D21*
%TO.P,P1,4*%
%TO.N,GND*%
X54737000Y-92710000D03*
%TO.P,P1,3*%
%TO.N,/CLK*%
X58039000Y-90170000D03*
%TO.P,P1,2*%
%TO.N,/DAT*%
X54737000Y-87630000D03*
%TO.P,P1,1*%
%TO.N,+5V*%
X58039000Y-85090000D03*
%TO.P,P1,4*%
%TO.N,GND*%
X58039000Y-92710000D03*
%TO.P,P1,2*%
%TO.N,/DAT*%
X58039000Y-87630000D03*
%TO.P,P1,3*%
%TO.N,/CLK*%
X54737000Y-90170000D03*
%TO.P,P1,1*%
%TO.N,+5V*%
X54737000Y-85090000D03*
%TD*%
D22*
%TO.P,P2,6*%
%TO.N,Net-(C9-Pad1)*%
X165862000Y-65532000D03*
%TO.P,P2,5*%
%TO.N,/TXD*%
X168402000Y-68834000D03*
%TO.P,P2,4*%
%TO.N,/RXD*%
X170942000Y-65532000D03*
%TO.P,P2,3*%
%TO.N,+5V*%
X173482000Y-68834000D03*
%TO.P,P2,2*%
%TO.N,GND*%
X176022000Y-65532000D03*
%TO.P,P2,1*%
X178562000Y-68834000D03*
X178562000Y-65532000D03*
%TO.P,P2,3*%
%TO.N,+5V*%
X173482000Y-65532000D03*
%TO.P,P2,5*%
%TO.N,/TXD*%
X168402000Y-65532000D03*
%TO.P,P2,2*%
%TO.N,GND*%
X176022000Y-68834000D03*
%TO.P,P2,4*%
%TO.N,/RXD*%
X170942000Y-68834000D03*
%TO.P,P2,6*%
%TO.N,Net-(C9-Pad1)*%
X165862000Y-68834000D03*
%TD*%
D23*
%TO.P,P3,1*%
%TO.N,/MISO*%
X205628000Y-80899000D03*
%TO.P,P3,2*%
%TO.N,+5V*%
X210678000Y-80899000D03*
%TO.P,P3,3*%
%TO.N,/SCK*%
X205628000Y-83439000D03*
%TO.P,P3,4*%
%TO.N,/MOSI*%
X210678000Y-83439000D03*
%TO.P,P3,5*%
%TO.N,/RESET*%
X205628000Y-85979000D03*
%TO.P,P3,6*%
%TO.N,GND*%
X210678000Y-85979000D03*
%TD*%
D21*
%TO.P,P4,4*%
%TO.N,GND*%
X225679000Y-92710000D03*
%TO.P,P4,3*%
%TO.N,Net-(B21-Pad1)*%
X228981000Y-90170000D03*
%TO.P,P4,2*%
%TO.N,/LED/DAT_OUT*%
X225679000Y-87630000D03*
%TO.P,P4,1*%
%TO.N,+5V*%
X228981000Y-85090000D03*
%TO.P,P4,4*%
%TO.N,GND*%
X228981000Y-92710000D03*
%TO.P,P4,2*%
%TO.N,/LED/DAT_OUT*%
X228981000Y-87630000D03*
%TO.P,P4,3*%
%TO.N,Net-(B21-Pad1)*%
X225679000Y-90170000D03*
%TO.P,P4,1*%
%TO.N,+5V*%
X225679000Y-85090000D03*
%TD*%
%TO.P,R2,2*%
%TO.N,/SDA*%
%TA.AperFunction,SMDPad,CuDef*%
G36*
G01*
X183280000Y-81984002D02*
X183280000Y-81083998D01*
G75*
G02*
X183529998Y-80834000I249998J0D01*
G01*
X184055002Y-80834000D01*
G75*
G02*
X184305000Y-81083998I0J-249998D01*
G01*
X184305000Y-81984002D01*
G75*
G02*
X184055002Y-82234000I-249998J0D01*
G01*
X183529998Y-82234000D01*
G75*
G02*
X183280000Y-81984002I0J249998D01*
G01*
G37*
%TD.AperFunction*%
%TO.P,R2,1*%
%TO.N,+5V*%
%TA.AperFunction,SMDPad,CuDef*%
G36*
G01*
X181455000Y-81984002D02*
X181455000Y-81083998D01*
G75*
G02*
X181704998Y-80834000I249998J0D01*
G01*
X182230002Y-80834000D01*
G75*
G02*
X182480000Y-81083998I0J-249998D01*
G01*
X182480000Y-81984002D01*
G75*
G02*
X182230002Y-82234000I-249998J0D01*
G01*
X181704998Y-82234000D01*
G75*
G02*
X181455000Y-81984002I0J249998D01*
G01*
G37*
%TD.AperFunction*%
%TD*%
%TO.P,R3,2*%
%TO.N,/SCL*%
%TA.AperFunction,SMDPad,CuDef*%
G36*
G01*
X183280000Y-84143002D02*
X183280000Y-83242998D01*
G75*
G02*
X183529998Y-82993000I249998J0D01*
G01*
X184055002Y-82993000D01*
G75*
G02*
X184305000Y-83242998I0J-249998D01*
G01*
X184305000Y-84143002D01*
G75*
G02*
X184055002Y-84393000I-249998J0D01*
G01*
X183529998Y-84393000D01*
G75*
G02*
X183280000Y-84143002I0J249998D01*
G01*
G37*
%TD.AperFunction*%
%TO.P,R3,1*%
%TO.N,+5V*%
%TA.AperFunction,SMDPad,CuDef*%
G36*
G01*
X181455000Y-84143002D02*
X181455000Y-83242998D01*
G75*
G02*
X181704998Y-82993000I249998J0D01*
G01*
X182230002Y-82993000D01*
G75*
G02*
X182480000Y-83242998I0J-249998D01*
G01*
X182480000Y-84143002D01*
G75*
G02*
X182230002Y-84393000I-249998J0D01*
G01*
X181704998Y-84393000D01*
G75*
G02*
X181455000Y-84143002I0J249998D01*
G01*
G37*
%TD.AperFunction*%
%TD*%
%TO.P,R4,2*%
%TO.N,/D4_MODE*%
%TA.AperFunction,SMDPad,CuDef*%
G36*
G01*
X189934002Y-91548000D02*
X189033998Y-91548000D01*
G75*
G02*
X188784000Y-91298002I0J249998D01*
G01*
X188784000Y-90772998D01*
G75*
G02*
X189033998Y-90523000I249998J0D01*
G01*
X189934002Y-90523000D01*
G75*
G02*
X190184000Y-90772998I0J-249998D01*
G01*
X190184000Y-91298002D01*
G75*
G02*
X189934002Y-91548000I-249998J0D01*
G01*
G37*
%TD.AperFunction*%
%TO.P,R4,1*%
%TO.N,+5V*%
%TA.AperFunction,SMDPad,CuDef*%
G36*
G01*
X189934002Y-93373000D02*
X189033998Y-93373000D01*
G75*
G02*
X188784000Y-93123002I0J249998D01*
G01*
X188784000Y-92597998D01*
G75*
G02*
X189033998Y-92348000I249998J0D01*
G01*
X189934002Y-92348000D01*
G75*
G02*
X190184000Y-92597998I0J-249998D01*
G01*
X190184000Y-93123002D01*
G75*
G02*
X189934002Y-93373000I-249998J0D01*
G01*
G37*
%TD.AperFunction*%
%TD*%
%TO.P,R5,2*%
%TO.N,GND*%
%TA.AperFunction,SMDPad,CuDef*%
G36*
G01*
X145484002Y-66656000D02*
X144583998Y-66656000D01*
G75*
G02*
X144334000Y-66406002I0J249998D01*
G01*
X144334000Y-65880998D01*
G75*
G02*
X144583998Y-65631000I249998J0D01*
G01*
X145484002Y-65631000D01*
G75*
G02*
X145734000Y-65880998I0J-249998D01*
G01*
X145734000Y-66406002D01*
G75*
G02*
X145484002Y-66656000I-249998J0D01*
G01*
G37*
%TD.AperFunction*%
%TO.P,R5,1*%
%TO.N,/CC2*%
%TA.AperFunction,SMDPad,CuDef*%
G36*
G01*
X145484002Y-68481000D02*
X144583998Y-68481000D01*
G75*
G02*
X144334000Y-68231002I0J249998D01*
G01*
X144334000Y-67705998D01*
G75*
G02*
X144583998Y-67456000I249998J0D01*
G01*
X145484002Y-67456000D01*
G75*
G02*
X145734000Y-67705998I0J-249998D01*
G01*
X145734000Y-68231002D01*
G75*
G02*
X145484002Y-68481000I-249998J0D01*
G01*
G37*
%TD.AperFunction*%
%TD*%
%TO.P,R6,2*%
%TO.N,GND*%
%TA.AperFunction,SMDPad,CuDef*%
G36*
G01*
X159200002Y-66656000D02*
X158299998Y-66656000D01*
G75*
G02*
X158050000Y-66406002I0J249998D01*
G01*
X158050000Y-65880998D01*
G75*
G02*
X158299998Y-65631000I249998J0D01*
G01*
X159200002Y-65631000D01*
G75*
G02*
X159450000Y-65880998I0J-249998D01*
G01*
X159450000Y-66406002D01*
G75*
G02*
X159200002Y-66656000I-249998J0D01*
G01*
G37*
%TD.AperFunction*%
%TO.P,R6,1*%
%TO.N,/CC1*%
%TA.AperFunction,SMDPad,CuDef*%
G36*
G01*
X159200002Y-68481000D02*
X158299998Y-68481000D01*
G75*
G02*
X158050000Y-68231002I0J249998D01*
G01*
X158050000Y-67705998D01*
G75*
G02*
X158299998Y-67456000I249998J0D01*
G01*
X159200002Y-67456000D01*
G75*
G02*
X159450000Y-67705998I0J-249998D01*
G01*
X159450000Y-68231002D01*
G75*
G02*
X159200002Y-68481000I-249998J0D01*
G01*
G37*
%TD.AperFunction*%
%TD*%
%TO.P,R7,2*%
%TO.N,Net-(D35-PadA)*%
%TA.AperFunction,SMDPad,CuDef*%
G36*
G01*
X104451998Y-81934000D02*
X105352002Y-81934000D01*
G75*
G02*
X105602000Y-82183998I0J-249998D01*
G01*
X105602000Y-82709002D01*
G75*
G02*
X105352002Y-82959000I-249998J0D01*
G01*
X104451998Y-82959000D01*
G75*
G02*
X104202000Y-82709002I0J249998D01*
G01*
X104202000Y-82183998D01*
G75*
G02*
X104451998Y-81934000I249998J0D01*
G01*
G37*
%TD.AperFunction*%
%TO.P,R7,1*%
%TO.N,+5V*%
%TA.AperFunction,SMDPad,CuDef*%
G36*
G01*
X104451998Y-80109000D02*
X105352002Y-80109000D01*
G75*
G02*
X105602000Y-80358998I0J-249998D01*
G01*
X105602000Y-80884002D01*
G75*
G02*
X105352002Y-81134000I-249998J0D01*
G01*
X104451998Y-81134000D01*
G75*
G02*
X104202000Y-80884002I0J249998D01*
G01*
X104202000Y-80358998D01*
G75*
G02*
X104451998Y-80109000I249998J0D01*
G01*
G37*
%TD.AperFunction*%
%TD*%
%TO.P,R8,2*%
%TO.N,Net-(D36-PadA)*%
%TA.AperFunction,SMDPad,CuDef*%
G36*
G01*
X203142002Y-74149000D02*
X202241998Y-74149000D01*
G75*
G02*
X201992000Y-73899002I0J249998D01*
G01*
X201992000Y-73373998D01*
G75*
G02*
X202241998Y-73124000I249998J0D01*
G01*
X203142002Y-73124000D01*
G75*
G02*
X203392000Y-73373998I0J-249998D01*
G01*
X203392000Y-73899002D01*
G75*
G02*
X203142002Y-74149000I-249998J0D01*
G01*
G37*
%TD.AperFunction*%
%TO.P,R8,1*%
%TO.N,/SCK*%
%TA.AperFunction,SMDPad,CuDef*%
G36*
G01*
X203142002Y-75974000D02*
X202241998Y-75974000D01*
G75*
G02*
X201992000Y-75724002I0J249998D01*
G01*
X201992000Y-75198998D01*
G75*
G02*
X202241998Y-74949000I249998J0D01*
G01*
X203142002Y-74949000D01*
G75*
G02*
X203392000Y-75198998I0J-249998D01*
G01*
X203392000Y-75724002D01*
G75*
G02*
X203142002Y-75974000I-249998J0D01*
G01*
G37*
%TD.AperFunction*%
%TD*%
D24*
%TO.P,SC1,1*%
%TO.N,N/C*%
X25017000Y-92125000D03*
D25*
X27417000Y-92125000D03*
X26714056Y-93822056D03*
X25017000Y-94525000D03*
X23319944Y-93822056D03*
X22617000Y-92125000D03*
X23319944Y-90427944D03*
X25017000Y-89725000D03*
X26714056Y-90427944D03*
%TD*%
D24*
%TO.P,SC2,1*%
%TO.N,N/C*%
X88114000Y-68741000D03*
D25*
X90514000Y-68741000D03*
X89811056Y-70438056D03*
X88114000Y-71141000D03*
X86416944Y-70438056D03*
X85714000Y-68741000D03*
X86416944Y-67043944D03*
X88114000Y-66341000D03*
X89811056Y-67043944D03*
%TD*%
D24*
%TO.P,SC3,1*%
%TO.N,N/C*%
X191286000Y-68741000D03*
D25*
X193686000Y-68741000D03*
X192983056Y-70438056D03*
X191286000Y-71141000D03*
X189588944Y-70438056D03*
X188886000Y-68741000D03*
X189588944Y-67043944D03*
X191286000Y-66341000D03*
X192983056Y-67043944D03*
%TD*%
D24*
%TO.P,SC4,1*%
%TO.N,N/C*%
X254383000Y-92125000D03*
D25*
X256783000Y-92125000D03*
X256080056Y-93822056D03*
X254383000Y-94525000D03*
X252685944Y-93822056D03*
X251983000Y-92125000D03*
X252685944Y-90427944D03*
X254383000Y-89725000D03*
X256080056Y-90427944D03*
%TD*%
D24*
%TO.P,SC5,1*%
%TO.N,N/C*%
X254383000Y-111075000D03*
D25*
X256783000Y-111075000D03*
X256080056Y-112772056D03*
X254383000Y-113475000D03*
X252685944Y-112772056D03*
X251983000Y-111075000D03*
X252685944Y-109377944D03*
X254383000Y-108675000D03*
X256080056Y-109377944D03*
%TD*%
D24*
%TO.P,SC6,1*%
%TO.N,N/C*%
X191286000Y-134459000D03*
D25*
X193686000Y-134459000D03*
X192983056Y-136156056D03*
X191286000Y-136859000D03*
X189588944Y-136156056D03*
X188886000Y-134459000D03*
X189588944Y-132761944D03*
X191286000Y-132059000D03*
X192983056Y-132761944D03*
%TD*%
D24*
%TO.P,SC7,1*%
%TO.N,N/C*%
X88114000Y-134459000D03*
D25*
X90514000Y-134459000D03*
X89811056Y-136156056D03*
X88114000Y-136859000D03*
X86416944Y-136156056D03*
X85714000Y-134459000D03*
X86416944Y-132761944D03*
X88114000Y-132059000D03*
X89811056Y-132761944D03*
%TD*%
D24*
%TO.P,SC8,1*%
%TO.N,N/C*%
X25017000Y-111075000D03*
D25*
X27417000Y-111075000D03*
X26714056Y-112772056D03*
X25017000Y-113475000D03*
X23319944Y-112772056D03*
X22617000Y-111075000D03*
X23319944Y-109377944D03*
X25017000Y-108675000D03*
X26714056Y-109377944D03*
%TD*%
D26*
%TO.P,U1,1*%
%TO.N,/D3~~*%
X190240000Y-87562000D03*
%TO.P,U1,2*%
%TO.N,/D4_MODE*%
X191040000Y-87562000D03*
%TO.P,U1,3*%
%TO.N,GND*%
X191840000Y-87562000D03*
%TO.P,U1,4*%
%TO.N,+5V*%
X192640000Y-87562000D03*
%TO.P,U1,5*%
%TO.N,GND*%
X193440000Y-87562000D03*
%TO.P,U1,6*%
%TO.N,+5V*%
X194240000Y-87562000D03*
%TO.P,U1,7*%
%TO.N,/PB6*%
X195040000Y-87562000D03*
%TO.P,U1,8*%
%TO.N,/PB7*%
X195840000Y-87562000D03*
D27*
%TO.P,U1,9*%
%TO.N,/D5~~_DAT*%
X197290000Y-86112000D03*
%TO.P,U1,10*%
%TO.N,/D6~~_CLK*%
X197290000Y-85312000D03*
%TO.P,U1,11*%
%TO.N,/D7*%
X197290000Y-84512000D03*
%TO.P,U1,12*%
%TO.N,/D8*%
X197290000Y-83712000D03*
%TO.P,U1,13*%
%TO.N,/D9~~*%
X197290000Y-82912000D03*
%TO.P,U1,14*%
%TO.N,/SS*%
X197290000Y-82112000D03*
%TO.P,U1,15*%
%TO.N,/MOSI*%
X197290000Y-81312000D03*
%TO.P,U1,16*%
%TO.N,/MISO*%
X197290000Y-80512000D03*
D26*
%TO.P,U1,17*%
%TO.N,/SCK*%
X195840000Y-79062000D03*
%TO.P,U1,18*%
%TO.N,+5V*%
X195040000Y-79062000D03*
%TO.P,U1,19*%
%TO.N,/A6*%
X194240000Y-79062000D03*
%TO.P,U1,20*%
%TO.N,+5V*%
X193440000Y-79062000D03*
%TO.P,U1,21*%
%TO.N,GND*%
X192640000Y-79062000D03*
%TO.P,U1,22*%
%TO.N,/A7*%
X191840000Y-79062000D03*
%TO.P,U1,23*%
%TO.N,/A0*%
X191040000Y-79062000D03*
%TO.P,U1,24*%
%TO.N,/A1*%
X190240000Y-79062000D03*
D27*
%TO.P,U1,25*%
%TO.N,/A2*%
X188790000Y-80512000D03*
%TO.P,U1,26*%
%TO.N,/A3*%
X188790000Y-81312000D03*
%TO.P,U1,27*%
%TO.N,/SDA*%
X188790000Y-82112000D03*
%TO.P,U1,28*%
%TO.N,/SCL*%
X188790000Y-82912000D03*
%TO.P,U1,29*%
%TO.N,/RESET*%
X188790000Y-83712000D03*
%TO.P,U1,30*%
%TO.N,/RXD*%
X188790000Y-84512000D03*
%TO.P,U1,31*%
%TO.N,/TXD*%
X188790000Y-85312000D03*
%TO.P,U1,32*%
%TO.N,/D2*%
X188790000Y-86112000D03*
%TD*%
D28*
%TO.P,X1,GND*%
%TO.N,GND*%
X197020000Y-90590000D03*
%TO.P,X1,3*%
%TO.N,/PB7*%
X199220000Y-90590000D03*
%TO.P,X1,GND*%
%TO.N,GND*%
X199220000Y-92290000D03*
%TO.P,X1,1*%
%TO.N,/PB6*%
X197020000Y-92290000D03*
%TD*%
D23*
%TO.P,SW2,4*%
%TO.N,/D4_MODE*%
X154925000Y-138430000D03*
%TO.P,SW2,3*%
%TO.N,GND*%
X149875000Y-138430000D03*
%TO.P,SW2,2*%
%TO.N,/D4_MODE*%
X154925000Y-135890000D03*
%TO.P,SW2,1*%
%TO.N,GND*%
X149875000Y-135890000D03*
%TD*%
D29*
%TO.P,D33,A*%
%TO.N,/Vusb*%
X143138000Y-83566000D03*
%TO.P,D33,K*%
%TO.N,+5V*%
X147438000Y-83566000D03*
%TD*%
%TO.P,D34,A*%
%TO.N,/Vin*%
X134484000Y-83566000D03*
%TO.P,D34,K*%
%TO.N,/12V*%
X130184000Y-83566000D03*
%TD*%
D30*
%TO.P,P5,6*%
%TO.N,Net-(P5-Pad6)*%
X133350000Y-126111000D03*
%TO.P,P5,5*%
%TO.N,/SCL*%
X135890000Y-122809000D03*
%TO.P,P5,4*%
%TO.N,/SDA*%
X138430000Y-126111000D03*
%TO.P,P5,3*%
%TO.N,+5V*%
X140970000Y-122809000D03*
%TO.P,P5,2*%
%TO.N,GND*%
X143510000Y-126111000D03*
%TO.P,P5,1*%
%TO.N,Net-(P5-Pad1)*%
X146050000Y-122809000D03*
X146050000Y-126111000D03*
%TO.P,P5,2*%
%TO.N,GND*%
X143510000Y-122809000D03*
%TO.P,P5,3*%
%TO.N,+5V*%
X140970000Y-126111000D03*
%TO.P,P5,4*%
%TO.N,/SDA*%
X138430000Y-122809000D03*
%TO.P,P5,5*%
%TO.N,/SCL*%
X135890000Y-126111000D03*
%TO.P,P5,6*%
%TO.N,Net-(P5-Pad6)*%
X133350000Y-122809000D03*
%TD*%
%TO.P,C17,2*%
%TO.N,GND*%
%TA.AperFunction,SMDPad,CuDef*%
G36*
G01*
X143223000Y-66606000D02*
X142273000Y-66606000D01*
G75*
G02*
X142023000Y-66356000I0J250000D01*
G01*
X142023000Y-65856000D01*
G75*
G02*
X142273000Y-65606000I250000J0D01*
G01*
X143223000Y-65606000D01*
G75*
G02*
X143473000Y-65856000I0J-250000D01*
G01*
X143473000Y-66356000D01*
G75*
G02*
X143223000Y-66606000I-250000J0D01*
G01*
G37*
%TD.AperFunction*%
%TO.P,C17,1*%
%TO.N,/Vusb*%
%TA.AperFunction,SMDPad,CuDef*%
G36*
G01*
X143223000Y-68506000D02*
X142273000Y-68506000D01*
G75*
G02*
X142023000Y-68256000I0J250000D01*
G01*
X142023000Y-67756000D01*
G75*
G02*
X142273000Y-67506000I250000J0D01*
G01*
X143223000Y-67506000D01*
G75*
G02*
X143473000Y-67756000I0J-250000D01*
G01*
X143473000Y-68256000D01*
G75*
G02*
X143223000Y-68506000I-250000J0D01*
G01*
G37*
%TD.AperFunction*%
%TD*%
%TO.P,C19,2*%
%TO.N,GND*%
%TA.AperFunction,SMDPad,CuDef*%
G36*
G01*
X108999000Y-86048000D02*
X109949000Y-86048000D01*
G75*
G02*
X110199000Y-86298000I0J-250000D01*
G01*
X110199000Y-86798000D01*
G75*
G02*
X109949000Y-87048000I-250000J0D01*
G01*
X108999000Y-87048000D01*
G75*
G02*
X108749000Y-86798000I0J250000D01*
G01*
X108749000Y-86298000D01*
G75*
G02*
X108999000Y-86048000I250000J0D01*
G01*
G37*
%TD.AperFunction*%
%TO.P,C19,1*%
%TO.N,+5V*%
%TA.AperFunction,SMDPad,CuDef*%
G36*
G01*
X108999000Y-84148000D02*
X109949000Y-84148000D01*
G75*
G02*
X110199000Y-84398000I0J-250000D01*
G01*
X110199000Y-84898000D01*
G75*
G02*
X109949000Y-85148000I-250000J0D01*
G01*
X108999000Y-85148000D01*
G75*
G02*
X108749000Y-84898000I0J250000D01*
G01*
X108749000Y-84398000D01*
G75*
G02*
X108999000Y-84148000I250000J0D01*
G01*
G37*
%TD.AperFunction*%
%TD*%
%TO.P,C20,2*%
%TO.N,GND*%
%TA.AperFunction,SMDPad,CuDef*%
G36*
G01*
X177716200Y-71940000D02*
X176766200Y-71940000D01*
G75*
G02*
X176516200Y-71690000I0J250000D01*
G01*
X176516200Y-71190000D01*
G75*
G02*
X176766200Y-70940000I250000J0D01*
G01*
X177716200Y-70940000D01*
G75*
G02*
X177966200Y-71190000I0J-250000D01*
G01*
X177966200Y-71690000D01*
G75*
G02*
X177716200Y-71940000I-250000J0D01*
G01*
G37*
%TD.AperFunction*%
%TO.P,C20,1*%
%TO.N,+5V*%
%TA.AperFunction,SMDPad,CuDef*%
G36*
G01*
X177716200Y-73840000D02*
X176766200Y-73840000D01*
G75*
G02*
X176516200Y-73590000I0J250000D01*
G01*
X176516200Y-73090000D01*
G75*
G02*
X176766200Y-72840000I250000J0D01*
G01*
X177716200Y-72840000D01*
G75*
G02*
X177966200Y-73090000I0J-250000D01*
G01*
X177966200Y-73590000D01*
G75*
G02*
X177716200Y-73840000I-250000J0D01*
G01*
G37*
%TD.AperFunction*%
%TD*%
%TO.P,R9,1*%
%TO.N,/DAT*%
%TA.AperFunction,SMDPad,CuDef*%
G36*
G01*
X204285002Y-94135000D02*
X203384998Y-94135000D01*
G75*
G02*
X203135000Y-93885002I0J249998D01*
G01*
X203135000Y-93359998D01*
G75*
G02*
X203384998Y-93110000I249998J0D01*
G01*
X204285002Y-93110000D01*
G75*
G02*
X204535000Y-93359998I0J-249998D01*
G01*
X204535000Y-93885002D01*
G75*
G02*
X204285002Y-94135000I-249998J0D01*
G01*
G37*
%TD.AperFunction*%
%TO.P,R9,2*%
%TO.N,/D5~~_DAT*%
%TA.AperFunction,SMDPad,CuDef*%
G36*
G01*
X204285002Y-92310000D02*
X203384998Y-92310000D01*
G75*
G02*
X203135000Y-92060002I0J249998D01*
G01*
X203135000Y-91534998D01*
G75*
G02*
X203384998Y-91285000I249998J0D01*
G01*
X204285002Y-91285000D01*
G75*
G02*
X204535000Y-91534998I0J-249998D01*
G01*
X204535000Y-92060002D01*
G75*
G02*
X204285002Y-92310000I-249998J0D01*
G01*
G37*
%TD.AperFunction*%
%TD*%
%TO.P,R10,2*%
%TO.N,/D6~~_CLK*%
%TA.AperFunction,SMDPad,CuDef*%
G36*
G01*
X206825002Y-92310000D02*
X205924998Y-92310000D01*
G75*
G02*
X205675000Y-92060002I0J249998D01*
G01*
X205675000Y-91534998D01*
G75*
G02*
X205924998Y-91285000I249998J0D01*
G01*
X206825002Y-91285000D01*
G75*
G02*
X207075000Y-91534998I0J-249998D01*
G01*
X207075000Y-92060002D01*
G75*
G02*
X206825002Y-92310000I-249998J0D01*
G01*
G37*
%TD.AperFunction*%
%TO.P,R10,1*%
%TO.N,/CLK*%
%TA.AperFunction,SMDPad,CuDef*%
G36*
G01*
X206825002Y-94135000D02*
X205924998Y-94135000D01*
G75*
G02*
X205675000Y-93885002I0J249998D01*
G01*
X205675000Y-93359998D01*
G75*
G02*
X205924998Y-93110000I249998J0D01*
G01*
X206825002Y-93110000D01*
G75*
G02*
X207075000Y-93359998I0J-249998D01*
G01*
X207075000Y-93885002D01*
G75*
G02*
X206825002Y-94135000I-249998J0D01*
G01*
G37*
%TD.AperFunction*%
%TD*%
D20*
%TO.P,B21,1*%
%TO.N,Net-(B21-Pad1)*%
X231775000Y-90170000D03*
%TD*%
D31*
%TO.N,GND*%
X123698000Y-87325200D03*
X125095000Y-85369400D03*
X193040000Y-77216000D03*
X30810200Y-97790000D03*
X38430200Y-97790000D03*
X46075600Y-97790000D03*
X53670200Y-97790000D03*
X61290200Y-97790000D03*
X68910200Y-97790000D03*
X76530200Y-97790000D03*
X84150200Y-97790000D03*
X91770200Y-97790000D03*
X99390200Y-97790000D03*
X107010200Y-97790000D03*
X114630200Y-97790000D03*
X122250200Y-97790000D03*
X129870200Y-97790000D03*
X137515600Y-97790000D03*
X145110200Y-97790000D03*
X152755600Y-97790000D03*
X160350200Y-97790000D03*
X167970200Y-97790000D03*
X175590200Y-97790000D03*
X183210200Y-97790000D03*
X190830200Y-97790000D03*
X198450200Y-97790000D03*
X206095600Y-97790000D03*
X213690200Y-97790000D03*
X221310200Y-97790000D03*
X228930200Y-97790000D03*
X236550200Y-97790000D03*
X244170200Y-97790000D03*
X251790200Y-97790000D03*
X230632000Y-92710000D03*
X210693000Y-87122000D03*
X191262000Y-89535000D03*
X198983600Y-75514200D03*
X179679600Y-65532000D03*
X58039000Y-93802200D03*
X259461000Y-97790000D03*
X24282400Y-99161600D03*
X120015000Y-58851800D03*
X119989600Y-64947800D03*
X121818400Y-56845200D03*
X121793000Y-66954400D03*
X149885400Y-139522200D03*
X196149000Y-93660000D03*
X199959000Y-93660000D03*
X198104800Y-93660000D03*
X195732400Y-89992200D03*
X167970200Y-79730600D03*
X175920400Y-79756000D03*
X180594000Y-92735400D03*
X178054000Y-92735400D03*
X197154800Y-73482200D03*
X107188000Y-79502000D03*
X109474000Y-79502000D03*
X217220800Y-84277200D03*
X42672000Y-112014000D03*
X81280000Y-112014000D03*
X118872000Y-112014000D03*
X156972000Y-112039400D03*
X195326000Y-112039400D03*
X233172000Y-112039400D03*
X143510000Y-127660400D03*
X143510000Y-124460000D03*
X143510000Y-121259600D03*
X54737000Y-93802200D03*
X223799400Y-92710000D03*
X179679600Y-68834000D03*
X177292000Y-65532000D03*
X145034000Y-61214000D03*
X156819600Y-75184000D03*
X156819600Y-73914000D03*
X156819600Y-76454000D03*
X184429400Y-94843601D03*
X185801000Y-94843604D03*
X183007000Y-94843600D03*
X120206800Y-85866000D03*
X108153200Y-86550500D03*
X110807500Y-86550500D03*
X158750000Y-61214000D03*
X158750000Y-64770000D03*
X142748000Y-65024000D03*
X145034000Y-65024000D03*
X177241200Y-70205600D03*
X191840000Y-83165800D03*
X192640000Y-82365800D03*
X193446400Y-85598000D03*
X191871600Y-85598000D03*
X166624000Y-81000600D03*
X177304700Y-80987900D03*
%TO.N,/RESET*%
X190576200Y-83667600D03*
X203123800Y-85979000D03*
X179527200Y-79654400D03*
X167982900Y-77851000D03*
%TO.N,/Vusb*%
X156083000Y-63500000D03*
X147446993Y-63500007D03*
X148589993Y-63500007D03*
X147447000Y-64643000D03*
X157226000Y-64643000D03*
X157226000Y-63500000D03*
%TO.N,/D+*%
X150749000Y-65405000D03*
X152908000Y-65405038D03*
%TO.N,/D-*%
X150749000Y-66929000D03*
X152908002Y-66929000D03*
%TO.N,/SDA*%
X183794400Y-80238600D03*
X172415200Y-114808000D03*
%TO.N,/SCL*%
X183819800Y-84988400D03*
X173278800Y-113817400D03*
%TO.N,/D4_MODE*%
X189987418Y-89352618D03*
X189509400Y-113512600D03*
%TO.N,/DAT*%
X29210000Y-101600000D03*
X21590000Y-101600000D03*
%TD*%
D32*
%TO.N,/12V*%
X123698000Y-81766000D02*
X124946000Y-81766000D01*
X126746000Y-83566000D02*
X124946000Y-81766000D01*
X130184000Y-83566000D02*
X126746000Y-83566000D01*
X122558400Y-81766000D02*
X123698000Y-81766000D01*
X122058400Y-81266000D02*
X122558400Y-81766000D01*
X118466000Y-81266000D02*
X122058400Y-81266000D01*
%TO.N,GND*%
X123698000Y-85366000D02*
X123698000Y-87325200D01*
X125091600Y-85366000D02*
X125095000Y-85369400D01*
X123698000Y-85366000D02*
X125091600Y-85366000D01*
X30810000Y-97790200D02*
X30810200Y-97790000D01*
X30810000Y-99150000D02*
X30810000Y-97790200D01*
X38430000Y-97790200D02*
X38430200Y-97790000D01*
X38430000Y-99150000D02*
X38430000Y-97790200D01*
X46050000Y-97815600D02*
X46075600Y-97790000D01*
X46050000Y-99150000D02*
X46050000Y-97815600D01*
X53670000Y-97790200D02*
X53670200Y-97790000D01*
X53670000Y-99150000D02*
X53670000Y-97790200D01*
X61290000Y-97790200D02*
X61290200Y-97790000D01*
X61290000Y-99150000D02*
X61290000Y-97790200D01*
X68910000Y-97790200D02*
X68910200Y-97790000D01*
X68910000Y-99150000D02*
X68910000Y-97790200D01*
X76530000Y-97790200D02*
X76530200Y-97790000D01*
X76530000Y-99150000D02*
X76530000Y-97790200D01*
X84150000Y-97790200D02*
X84150200Y-97790000D01*
X84150000Y-99150000D02*
X84150000Y-97790200D01*
X91770000Y-97790200D02*
X91770200Y-97790000D01*
X91770000Y-99150000D02*
X91770000Y-97790200D01*
X99390000Y-97790200D02*
X99390200Y-97790000D01*
X99390000Y-99150000D02*
X99390000Y-97790200D01*
X107010000Y-97790200D02*
X107010200Y-97790000D01*
X107010000Y-99150000D02*
X107010000Y-97790200D01*
X114630000Y-97790200D02*
X114630200Y-97790000D01*
X114630000Y-99150000D02*
X114630000Y-97790200D01*
X122250000Y-97790200D02*
X122250200Y-97790000D01*
X122250000Y-99150000D02*
X122250000Y-97790200D01*
X129870000Y-97790200D02*
X129870200Y-97790000D01*
X129870000Y-99150000D02*
X129870000Y-97790200D01*
X137490000Y-97815600D02*
X137515600Y-97790000D01*
X137490000Y-99150000D02*
X137490000Y-97815600D01*
X145110000Y-97790200D02*
X145110200Y-97790000D01*
X145110000Y-99150000D02*
X145110000Y-97790200D01*
X152730000Y-97815600D02*
X152755600Y-97790000D01*
X152730000Y-99150000D02*
X152730000Y-97815600D01*
X160350000Y-97790200D02*
X160350200Y-97790000D01*
X160350000Y-99150000D02*
X160350000Y-97790200D01*
X167970000Y-97790200D02*
X167970200Y-97790000D01*
X167970000Y-99150000D02*
X167970000Y-97790200D01*
X175590000Y-97790200D02*
X175590200Y-97790000D01*
X175590000Y-99150000D02*
X175590000Y-97790200D01*
X183210000Y-97790200D02*
X183210200Y-97790000D01*
X183210000Y-99150000D02*
X183210000Y-97790200D01*
X190830000Y-97790200D02*
X190830200Y-97790000D01*
X190830000Y-99150000D02*
X190830000Y-97790200D01*
X198450000Y-97790200D02*
X198450200Y-97790000D01*
X198450000Y-99150000D02*
X198450000Y-97790200D01*
X206070000Y-97815600D02*
X206095600Y-97790000D01*
X206070000Y-99150000D02*
X206070000Y-97815600D01*
X213690000Y-97790200D02*
X213690200Y-97790000D01*
X213690000Y-99150000D02*
X213690000Y-97790200D01*
X221310000Y-97790200D02*
X221310200Y-97790000D01*
X221310000Y-99150000D02*
X221310000Y-97790200D01*
X228930000Y-97790200D02*
X228930200Y-97790000D01*
X228930000Y-99150000D02*
X228930000Y-97790200D01*
X236550000Y-97790200D02*
X236550200Y-97790000D01*
X236550000Y-99150000D02*
X236550000Y-97790200D01*
X244170000Y-97790200D02*
X244170200Y-97790000D01*
X244170000Y-99150000D02*
X244170000Y-97790200D01*
X251790000Y-97790200D02*
X251790200Y-97790000D01*
X251790000Y-99150000D02*
X251790000Y-97790200D01*
X228980000Y-92710000D02*
X230632000Y-92710000D01*
X210678000Y-87107000D02*
X210693000Y-87122000D01*
X210678000Y-85979000D02*
X210678000Y-87107000D01*
X199011300Y-75486500D02*
X198983600Y-75514200D01*
X200279000Y-75486500D02*
X199011300Y-75486500D01*
X179675600Y-65528000D02*
X179679600Y-65532000D01*
X178562000Y-65528000D02*
X179675600Y-65528000D01*
X58038000Y-93801200D02*
X58039000Y-93802200D01*
X58038000Y-92710000D02*
X58038000Y-93801200D01*
X259410000Y-97841000D02*
X259461000Y-97790000D01*
X259410000Y-99150000D02*
X259410000Y-97841000D01*
X24270800Y-99150000D02*
X24282400Y-99161600D01*
X23190000Y-99150000D02*
X24270800Y-99150000D01*
X121808000Y-58848000D02*
X121808000Y-64948000D01*
X120018800Y-58848000D02*
X120015000Y-58851800D01*
X121808000Y-58848000D02*
X120018800Y-58848000D01*
X119989800Y-64948000D02*
X119989600Y-64947800D01*
X121808000Y-64948000D02*
X119989800Y-64948000D01*
X121808000Y-56855600D02*
X121818400Y-56845200D01*
X121808000Y-58848000D02*
X121808000Y-56855600D01*
X121808000Y-66939400D02*
X121793000Y-66954400D01*
X121808000Y-64948000D02*
X121808000Y-66939400D01*
X149875000Y-138430000D02*
X149875000Y-135890000D01*
X149875000Y-139511800D02*
X149885400Y-139522200D01*
X149875000Y-138430000D02*
X149875000Y-139511800D01*
X149875000Y-134808200D02*
X149885400Y-134797800D01*
X149875000Y-135890000D02*
X149875000Y-134808200D01*
D33*
X191840000Y-88957000D02*
X191262000Y-89535000D01*
X191840000Y-87562000D02*
X191840000Y-88957000D01*
X192640000Y-77616000D02*
X193040000Y-77216000D01*
X192640000Y-79062000D02*
X192640000Y-77616000D01*
D32*
X199220000Y-93657600D02*
X199222400Y-93660000D01*
X199220000Y-92290000D02*
X199220000Y-93657600D01*
X194818000Y-93660000D02*
X196149000Y-93660000D01*
X201295000Y-93660000D02*
X199959000Y-93660000D01*
X199959000Y-93660000D02*
X199222400Y-93660000D01*
X199959000Y-93660000D02*
X198104800Y-93660000D01*
X198104800Y-93660000D02*
X196149000Y-93660000D01*
X199222400Y-93660000D02*
X198104800Y-93660000D01*
X196330200Y-90590000D02*
X195732400Y-89992200D01*
X197020000Y-90590000D02*
X196330200Y-90590000D01*
X167983000Y-79743400D02*
X167970200Y-79730600D01*
X167983000Y-80990000D02*
X167983000Y-79743400D01*
X175933000Y-80990000D02*
X175933000Y-79768600D01*
X175933000Y-79768600D02*
X175920400Y-79756000D01*
X180594000Y-91628000D02*
X180594000Y-92735400D01*
X178054000Y-91628000D02*
X178054000Y-92735400D01*
D33*
X197144600Y-73472000D02*
X197154800Y-73482200D01*
X195834000Y-73472000D02*
X197144600Y-73472000D01*
D32*
X109461500Y-80596500D02*
X109474000Y-80584000D01*
X107188000Y-80596500D02*
X109461500Y-80596500D01*
X107188000Y-80596500D02*
X107188000Y-79502000D01*
X109474000Y-80584000D02*
X109474000Y-79502000D01*
X214183000Y-85979000D02*
X215900000Y-84262000D01*
X210678000Y-85979000D02*
X214183000Y-85979000D01*
X217205600Y-84262000D02*
X217220800Y-84277200D01*
X215900000Y-84262000D02*
X217205600Y-84262000D01*
X42672000Y-110932000D02*
X42672000Y-112014000D01*
X81280000Y-110932000D02*
X81280000Y-112014000D01*
X118872000Y-110932000D02*
X118872000Y-112014000D01*
X156972000Y-110932000D02*
X156972000Y-112039400D01*
X195326000Y-110932000D02*
X195326000Y-112039400D01*
X233172000Y-110932000D02*
X233172000Y-112039400D01*
X143510000Y-126111000D02*
X143510000Y-127660400D01*
X143510000Y-122809000D02*
X143510000Y-124460000D01*
X143510000Y-124460000D02*
X143510000Y-126111000D01*
X143510000Y-122809000D02*
X143510000Y-121259600D01*
X58039000Y-92710000D02*
X54737000Y-92710000D01*
X54737000Y-92710000D02*
X54737000Y-93802200D01*
X228981000Y-92710000D02*
X225679000Y-92710000D01*
X225679000Y-92710000D02*
X223799400Y-92710000D01*
X176022000Y-65532000D02*
X176022000Y-68834000D01*
X178562000Y-68834000D02*
X179679600Y-68834000D01*
X176022000Y-65532000D02*
X177292000Y-65532000D01*
X178562000Y-65532000D02*
X177292000Y-65532000D01*
X176022000Y-68834000D02*
X177241200Y-68834000D01*
X177241200Y-68834000D02*
X178562000Y-68834000D01*
D33*
X156427000Y-61781000D02*
X157002000Y-61206000D01*
X155092000Y-61781000D02*
X156427000Y-61781000D01*
X157002000Y-61206000D02*
X157002000Y-57276000D01*
X146782000Y-57276000D02*
X146782000Y-61206000D01*
X147357000Y-61781000D02*
X146782000Y-61206000D01*
X148692000Y-61781000D02*
X147357000Y-61781000D01*
D32*
X145042000Y-61206000D02*
X145034000Y-61214000D01*
X146782000Y-61206000D02*
X145042000Y-61206000D01*
X158742000Y-61206000D02*
X158750000Y-61214000D01*
X157002000Y-61206000D02*
X158742000Y-61206000D01*
X156804600Y-75169000D02*
X156819600Y-75184000D01*
X155702000Y-75169000D02*
X156804600Y-75169000D01*
X155702000Y-75031600D02*
X156819600Y-73914000D01*
X155702000Y-75169000D02*
X155702000Y-75031600D01*
X155702000Y-75169000D02*
X155702000Y-75336400D01*
X155702000Y-75336400D02*
X156819600Y-76454000D01*
X121793000Y-66954400D02*
X120421400Y-66954400D01*
X119989600Y-66522600D02*
X119989600Y-64947800D01*
X120421400Y-66954400D02*
X119989600Y-66522600D01*
X119989600Y-58877200D02*
X120015000Y-58851800D01*
X119989600Y-64947800D02*
X119989600Y-58877200D01*
X120015000Y-58851800D02*
X120015000Y-57404000D01*
X120573800Y-56845200D02*
X121818400Y-56845200D01*
X120015000Y-57404000D02*
X120573800Y-56845200D01*
X156819600Y-75184000D02*
X158750000Y-75184000D01*
X175895000Y-79730600D02*
X175920400Y-79756000D01*
X177292000Y-68783200D02*
X177241200Y-68834000D01*
X177292000Y-65532000D02*
X177292000Y-68783200D01*
X179679600Y-65532000D02*
X179679600Y-68834000D01*
X178054000Y-92735400D02*
X180594000Y-92735400D01*
X184404000Y-92478000D02*
X184404000Y-94818201D01*
X184404000Y-94818201D02*
X184429400Y-94843601D01*
X184404000Y-92478000D02*
X185801000Y-93875000D01*
X185801000Y-93875000D02*
X185801000Y-94843604D01*
X184404000Y-92478000D02*
X183007000Y-93875000D01*
X183007000Y-93875000D02*
X183007000Y-94843600D01*
X184429403Y-94843604D02*
X184429400Y-94843601D01*
X185801000Y-94843604D02*
X184429403Y-94843604D01*
X183007001Y-94843601D02*
X183007000Y-94843600D01*
X184429400Y-94843601D02*
X183007001Y-94843601D01*
X183007000Y-94843600D02*
X181813200Y-94843600D01*
X180594000Y-93624400D02*
X180594000Y-92735400D01*
X181813200Y-94843600D02*
X180594000Y-93624400D01*
X54737000Y-93802200D02*
X58039000Y-93802200D01*
X38430200Y-97790000D02*
X46075600Y-97790000D01*
X46075600Y-97790000D02*
X53670200Y-97790000D01*
X53670200Y-97790000D02*
X61290200Y-97790000D01*
X61290200Y-97790000D02*
X68910200Y-97790000D01*
X68910200Y-97790000D02*
X76530200Y-97790000D01*
X76530200Y-97790000D02*
X84150200Y-97790000D01*
X84150200Y-97790000D02*
X91770200Y-97790000D01*
X91770200Y-97790000D02*
X99390200Y-97790000D01*
X99390200Y-97790000D02*
X107010200Y-97790000D01*
X107010200Y-97790000D02*
X114630200Y-97790000D01*
X114630200Y-97790000D02*
X122250200Y-97790000D01*
X122250200Y-97790000D02*
X129870200Y-97790000D01*
X129870200Y-97790000D02*
X137515600Y-97790000D01*
X137515600Y-97790000D02*
X145110200Y-97790000D01*
X145110200Y-97790000D02*
X152755600Y-97790000D01*
X152755600Y-97790000D02*
X160350200Y-97790000D01*
X160350200Y-97790000D02*
X167970200Y-97790000D01*
X167970200Y-97790000D02*
X175590200Y-97790000D01*
X175590200Y-97790000D02*
X183210200Y-97790000D01*
X183210200Y-97790000D02*
X190830200Y-97790000D01*
X190830200Y-97790000D02*
X198450200Y-97790000D01*
X198450200Y-97790000D02*
X206095600Y-97790000D01*
X228930200Y-97790000D02*
X236550200Y-97790000D01*
X236550200Y-97790000D02*
X244170200Y-97790000D01*
X244170200Y-97790000D02*
X251790200Y-97790000D01*
X251790200Y-97790000D02*
X259461000Y-97790000D01*
X233172000Y-112039400D02*
X195326000Y-112039400D01*
X42672000Y-112014000D02*
X81280000Y-112014000D01*
X81280000Y-112014000D02*
X118872000Y-112014000D01*
X156972000Y-112039400D02*
X146177000Y-112039400D01*
X149885400Y-134797800D02*
X149885400Y-133731000D01*
X149885400Y-133731000D02*
X172872400Y-133731000D01*
X181000400Y-125603000D02*
X181000400Y-112039400D01*
X172872400Y-133731000D02*
X181000400Y-125603000D01*
X181000400Y-112039400D02*
X156972000Y-112039400D01*
X195326000Y-112039400D02*
X181000400Y-112039400D01*
X127330200Y-112014000D02*
X118872000Y-112014000D01*
X128955800Y-113639600D02*
X127330200Y-112014000D01*
X128955800Y-125704600D02*
X128955800Y-113639600D01*
X136982200Y-133731000D02*
X128955800Y-125704600D01*
X149885400Y-133731000D02*
X136982200Y-133731000D01*
X58039000Y-93802200D02*
X58039000Y-95173800D01*
X58039000Y-95173800D02*
X58623200Y-95758000D01*
X58623200Y-95758000D02*
X60706000Y-95758000D01*
X61290200Y-96342200D02*
X61290200Y-97790000D01*
X60706000Y-95758000D02*
X61290200Y-96342200D01*
X107188000Y-79502000D02*
X109474000Y-79502000D01*
X125095000Y-85369400D02*
X125095000Y-86893400D01*
X124663200Y-87325200D02*
X123698000Y-87325200D01*
X125095000Y-86893400D02*
X124663200Y-87325200D01*
X118466000Y-85866000D02*
X120206800Y-85866000D01*
X236550200Y-97790000D02*
X236550200Y-94081600D01*
X235178600Y-92710000D02*
X230632000Y-92710000D01*
X236550200Y-94081600D02*
X235178600Y-92710000D01*
X158750000Y-57835800D02*
X158750000Y-61214000D01*
X158190200Y-57276000D02*
X158750000Y-57835800D01*
X157002000Y-57276000D02*
X158190200Y-57276000D01*
X145034000Y-57759600D02*
X145034000Y-61214000D01*
X145517600Y-57276000D02*
X145034000Y-57759600D01*
X146782000Y-57276000D02*
X145517600Y-57276000D01*
D34*
X198958500Y-92290000D02*
X199220000Y-92290000D01*
X197258500Y-90590000D02*
X198958500Y-92290000D01*
X197020000Y-90590000D02*
X197258500Y-90590000D01*
D32*
X139344400Y-61214000D02*
X145034000Y-61214000D01*
X136220200Y-57175400D02*
X136220200Y-60426600D01*
X135305800Y-56261000D02*
X136220200Y-57175400D01*
X137007600Y-61214000D02*
X139344400Y-61214000D01*
X129794000Y-56261000D02*
X135305800Y-56261000D01*
X129209800Y-56845200D02*
X129794000Y-56261000D01*
X136220200Y-60426600D02*
X137007600Y-61214000D01*
X121818400Y-56845200D02*
X129209800Y-56845200D01*
X122558400Y-85366000D02*
X123698000Y-85366000D01*
X122058400Y-85866000D02*
X122558400Y-85366000D01*
X120206800Y-85866000D02*
X122058400Y-85866000D01*
X108155700Y-86548000D02*
X108153200Y-86550500D01*
X109474000Y-86548000D02*
X108155700Y-86548000D01*
X110805000Y-86548000D02*
X110807500Y-86550500D01*
X109474000Y-86548000D02*
X110805000Y-86548000D01*
X157937200Y-76454000D02*
X156819600Y-76454000D01*
X158750000Y-75641200D02*
X157937200Y-76454000D01*
X158750000Y-75184000D02*
X158750000Y-75641200D01*
X144714000Y-113502400D02*
X146177000Y-112039400D01*
X144714000Y-117856000D02*
X144714000Y-113502400D01*
X144714000Y-120055600D02*
X143510000Y-121259600D01*
X144714000Y-117856000D02*
X144714000Y-120055600D01*
X156819600Y-73914000D02*
X157861000Y-73914000D01*
X158750000Y-74803000D02*
X158750000Y-75184000D01*
X157861000Y-73914000D02*
X158750000Y-74803000D01*
X158750000Y-66143500D02*
X158750000Y-64770000D01*
X158750000Y-64770000D02*
X158750000Y-61214000D01*
X144996500Y-66106000D02*
X145034000Y-66143500D01*
X142748000Y-66106000D02*
X144996500Y-66106000D01*
X142748000Y-66106000D02*
X142748000Y-65024000D01*
X145034000Y-66143500D02*
X145034000Y-65024000D01*
X177241200Y-71440000D02*
X177241200Y-70205600D01*
X177241200Y-70205600D02*
X177241200Y-68834000D01*
X207137000Y-97790000D02*
X206095600Y-97790000D01*
X208407000Y-96520000D02*
X207137000Y-97790000D01*
X208407000Y-91236800D02*
X208407000Y-96520000D01*
X210693000Y-88950800D02*
X208407000Y-91236800D01*
X210693000Y-87122000D02*
X210693000Y-88950800D01*
D33*
X192640000Y-79062000D02*
X192640000Y-82365800D01*
D32*
X191846200Y-83172000D02*
X191840000Y-83165800D01*
D33*
X192640000Y-82365800D02*
X191840000Y-83165800D01*
D32*
X193440000Y-85604400D02*
X193446400Y-85598000D01*
X193440000Y-87562000D02*
X193440000Y-85604400D01*
X191840000Y-85629600D02*
X191840000Y-87562000D01*
X191871600Y-85598000D02*
X191840000Y-85629600D01*
X191871600Y-83197400D02*
X191840000Y-83165800D01*
X191871600Y-85598000D02*
X191871600Y-83197400D01*
X193446400Y-85598000D02*
X191871600Y-85598000D01*
X166634600Y-80990000D02*
X166624000Y-81000600D01*
X167983000Y-80990000D02*
X166634600Y-80990000D01*
X177302600Y-80990000D02*
X177304700Y-80987900D01*
X175933000Y-80990000D02*
X177302600Y-80990000D01*
D33*
X193040000Y-75425300D02*
X193040000Y-77216000D01*
X194993300Y-73472000D02*
X193040000Y-75425300D01*
X195834000Y-73472000D02*
X194993300Y-73472000D01*
D32*
%TO.N,+5V*%
X181967500Y-81534000D02*
X181967500Y-83693000D01*
X35230000Y-106400400D02*
X35204400Y-106426000D01*
X35230000Y-104050000D02*
X35230000Y-106400400D01*
X42850000Y-106400400D02*
X42824400Y-106426000D01*
X42850000Y-104050000D02*
X42850000Y-106400400D01*
X42824400Y-106426000D02*
X35204400Y-106426000D01*
X50470000Y-106425800D02*
X50469800Y-106426000D01*
X50470000Y-104050000D02*
X50470000Y-106425800D01*
X50469800Y-106426000D02*
X42824400Y-106426000D01*
X58090000Y-106425800D02*
X58089800Y-106426000D01*
X58090000Y-104050000D02*
X58090000Y-106425800D01*
X58089800Y-106426000D02*
X50469800Y-106426000D01*
X65710000Y-106425800D02*
X65709800Y-106426000D01*
X65710000Y-104050000D02*
X65710000Y-106425800D01*
X65709800Y-106426000D02*
X58089800Y-106426000D01*
X73330000Y-104050000D02*
X73330000Y-106425800D01*
X73330000Y-106425800D02*
X73329800Y-106426000D01*
X73329800Y-106426000D02*
X65709800Y-106426000D01*
X80950000Y-104050000D02*
X80950000Y-106400800D01*
X80950000Y-106400800D02*
X80975200Y-106426000D01*
X80975200Y-106426000D02*
X73329800Y-106426000D01*
X88570000Y-106400800D02*
X88595200Y-106426000D01*
X88570000Y-104050000D02*
X88570000Y-106400800D01*
X88595200Y-106426000D02*
X80975200Y-106426000D01*
X96190000Y-106400800D02*
X96215200Y-106426000D01*
X96190000Y-104050000D02*
X96190000Y-106400800D01*
X96215200Y-106426000D02*
X88595200Y-106426000D01*
X103810000Y-106400400D02*
X103784400Y-106426000D01*
X103810000Y-104050000D02*
X103810000Y-106400400D01*
X103784400Y-106426000D02*
X96215200Y-106426000D01*
X111430000Y-106400800D02*
X111455200Y-106426000D01*
X111430000Y-104050000D02*
X111430000Y-106400800D01*
X111455200Y-106426000D02*
X103784400Y-106426000D01*
X119050000Y-106400400D02*
X119024400Y-106426000D01*
X119050000Y-104050000D02*
X119050000Y-106400400D01*
X119024400Y-106426000D02*
X111455200Y-106426000D01*
X126670000Y-106425800D02*
X126669800Y-106426000D01*
X126670000Y-104050000D02*
X126670000Y-106425800D01*
X126669800Y-106426000D02*
X119024400Y-106426000D01*
X134290000Y-106425800D02*
X134289800Y-106426000D01*
X134290000Y-104050000D02*
X134290000Y-106425800D01*
X134289800Y-106426000D02*
X126669800Y-106426000D01*
X141910000Y-106400400D02*
X141884400Y-106426000D01*
X141910000Y-104050000D02*
X141910000Y-106400400D01*
X149530000Y-106400800D02*
X149555200Y-106426000D01*
X149530000Y-104050000D02*
X149530000Y-106400800D01*
X149555200Y-106426000D02*
X141884400Y-106426000D01*
X157150000Y-106400400D02*
X157124400Y-106426000D01*
X157150000Y-104050000D02*
X157150000Y-106400400D01*
X157124400Y-106426000D02*
X149555200Y-106426000D01*
X164770000Y-106400800D02*
X164795200Y-106426000D01*
X164770000Y-104050000D02*
X164770000Y-106400800D01*
X164795200Y-106426000D02*
X157124400Y-106426000D01*
X172390000Y-106400800D02*
X172415200Y-106426000D01*
X172390000Y-104050000D02*
X172390000Y-106400800D01*
X172415200Y-106426000D02*
X164795200Y-106426000D01*
X180010000Y-106400400D02*
X179984400Y-106426000D01*
X180010000Y-104050000D02*
X180010000Y-106400400D01*
X179984400Y-106426000D02*
X172415200Y-106426000D01*
X187630000Y-106400800D02*
X187655200Y-106426000D01*
X187630000Y-104050000D02*
X187630000Y-106400800D01*
X187655200Y-106426000D02*
X179984400Y-106426000D01*
X195250000Y-106375400D02*
X195300600Y-106426000D01*
X195250000Y-104050000D02*
X195250000Y-106375400D01*
X195300600Y-106426000D02*
X187655200Y-106426000D01*
X202870000Y-106375400D02*
X202920600Y-106426000D01*
X202870000Y-104050000D02*
X202870000Y-106375400D01*
X202920600Y-106426000D02*
X195300600Y-106426000D01*
X210490000Y-106375000D02*
X210439000Y-106426000D01*
X210490000Y-104050000D02*
X210490000Y-106375000D01*
X210439000Y-106426000D02*
X202920600Y-106426000D01*
X218110000Y-106425800D02*
X218109800Y-106426000D01*
X218110000Y-104050000D02*
X218110000Y-106425800D01*
X218109800Y-106426000D02*
X210439000Y-106426000D01*
X225730000Y-106375400D02*
X225780600Y-106426000D01*
X225780600Y-106426000D02*
X218109800Y-106426000D01*
X225730000Y-104050000D02*
X225730000Y-106375400D01*
X233350000Y-106400400D02*
X233324400Y-106426000D01*
X233350000Y-104050000D02*
X233350000Y-106400400D01*
X233324400Y-106426000D02*
X225780600Y-106426000D01*
X240970000Y-106400400D02*
X240944400Y-106426000D01*
X240970000Y-104050000D02*
X240970000Y-106400400D01*
X240944400Y-106426000D02*
X233324400Y-106426000D01*
X218110000Y-103327000D02*
X218110000Y-104050000D01*
X219583000Y-101854000D02*
X218110000Y-103327000D01*
X222377000Y-85090000D02*
X219583000Y-87884000D01*
X225680000Y-85090000D02*
X222377000Y-85090000D01*
X215773000Y-82362000D02*
X224475000Y-82362000D01*
X225680000Y-83567000D02*
X225680000Y-85090000D01*
X224475000Y-82362000D02*
X225680000Y-83567000D01*
X189484000Y-92860500D02*
X188008900Y-92860500D01*
X188008900Y-92860500D02*
X187198000Y-92049600D01*
X187198000Y-92049600D02*
X187198000Y-89865200D01*
X210678000Y-80899000D02*
X210678000Y-77607400D01*
X210678000Y-77607400D02*
X204470000Y-71399400D01*
X204470000Y-71399400D02*
X197942200Y-71399400D01*
X139700000Y-106426000D02*
X134289800Y-106426000D01*
X141884400Y-106426000D02*
X139700000Y-106426000D01*
X183792500Y-78716500D02*
X183792500Y-77724000D01*
X181967500Y-80541500D02*
X183792500Y-78716500D01*
X181967500Y-81534000D02*
X181967500Y-80541500D01*
X194691000Y-71399400D02*
X192557400Y-73533000D01*
X197942200Y-71399400D02*
X194691000Y-71399400D01*
X112293000Y-88874200D02*
X112293400Y-88874600D01*
X183792500Y-73534900D02*
X183794400Y-73533000D01*
X183792500Y-77724000D02*
X183792500Y-73534900D01*
X183794400Y-73533000D02*
X192557400Y-73533000D01*
X173482000Y-65528000D02*
X173482000Y-72136000D01*
X173482000Y-72136000D02*
X174879000Y-73533000D01*
X219583000Y-96520000D02*
X219583000Y-101854000D01*
X219583000Y-87884000D02*
X219583000Y-96520000D01*
D33*
X192254500Y-92860500D02*
X190730500Y-92860500D01*
D32*
X190730500Y-92860500D02*
X189484000Y-92860500D01*
X212090000Y-96520000D02*
X219583000Y-96520000D01*
X212090000Y-101600000D02*
X212090000Y-96520000D01*
X210490000Y-103200000D02*
X212090000Y-101600000D01*
X210490000Y-104050000D02*
X210490000Y-103200000D01*
X227330000Y-96520000D02*
X219583000Y-96520000D01*
X227330000Y-101600000D02*
X227330000Y-96520000D01*
X225730000Y-103200000D02*
X227330000Y-101600000D01*
X225730000Y-104050000D02*
X225730000Y-103200000D01*
X27610000Y-106426000D02*
X27610000Y-104050000D01*
X35204400Y-106426000D02*
X27610000Y-106426000D01*
X19990000Y-106248000D02*
X19812000Y-106426000D01*
X19990000Y-104050000D02*
X19990000Y-106248000D01*
X27610000Y-106426000D02*
X19812000Y-106426000D01*
X248590000Y-106426000D02*
X240944400Y-106426000D01*
X248590000Y-104050000D02*
X248590000Y-106426000D01*
X139700000Y-112268000D02*
X139700000Y-106426000D01*
X140970000Y-113538000D02*
X139700000Y-112268000D01*
X140970000Y-126111000D02*
X140970000Y-113538000D01*
X147116800Y-88874600D02*
X112293400Y-88874600D01*
X147438000Y-88586200D02*
X147116800Y-88874600D01*
X147438000Y-83566000D02*
X147438000Y-88586200D01*
D33*
X192611510Y-92503490D02*
X192254500Y-92860500D01*
X192640000Y-87699800D02*
X192611510Y-87728290D01*
X192640000Y-87562000D02*
X192640000Y-87699800D01*
X194240000Y-87562000D02*
X194240000Y-88563600D01*
X193747890Y-89055710D02*
X192611510Y-89055710D01*
X194240000Y-88563600D02*
X193747890Y-89055710D01*
X192611510Y-89055710D02*
X192611510Y-92503490D01*
X192611510Y-87728290D02*
X192611510Y-89055710D01*
D32*
X193447499Y-79096699D02*
X193447499Y-80265099D01*
X193440000Y-79089200D02*
X193447499Y-79096699D01*
X193440000Y-79062000D02*
X193440000Y-79089200D01*
X193447499Y-80265099D02*
X193776600Y-80594200D01*
X193776600Y-80594200D02*
X194741800Y-80594200D01*
X195040000Y-80296000D02*
X195040000Y-79062000D01*
X194741800Y-80594200D02*
X195040000Y-80296000D01*
X186210800Y-88878000D02*
X187198000Y-89865200D01*
X184404000Y-88878000D02*
X186210800Y-88878000D01*
X178054000Y-89728000D02*
X180594000Y-89728000D01*
X184404000Y-88878000D02*
X183359200Y-88878000D01*
X182509200Y-89728000D02*
X180594000Y-89728000D01*
X183359200Y-88878000D02*
X182509200Y-89728000D01*
D33*
X195040000Y-79062000D02*
X195040000Y-78010000D01*
X195834000Y-77216000D02*
X195834000Y-75372000D01*
X195040000Y-78010000D02*
X195834000Y-77216000D01*
D32*
X198628000Y-71399400D02*
X197942200Y-71399400D01*
X198628000Y-74041000D02*
X198628000Y-71399400D01*
X197297000Y-75372000D02*
X198628000Y-74041000D01*
X195834000Y-75372000D02*
X197297000Y-75372000D01*
X161696400Y-83566000D02*
X147438000Y-83566000D01*
X167858400Y-89728000D02*
X161696400Y-83566000D01*
X178054000Y-89728000D02*
X167858400Y-89728000D01*
X111084000Y-82484000D02*
X112166000Y-83566000D01*
X109474000Y-82484000D02*
X111084000Y-82484000D01*
X118466000Y-83566000D02*
X112166000Y-83566000D01*
X214437000Y-80899000D02*
X215900000Y-82362000D01*
X210678000Y-80899000D02*
X214437000Y-80899000D01*
X42672000Y-106578400D02*
X42850000Y-106400400D01*
X42672000Y-109032000D02*
X42672000Y-106578400D01*
X81280000Y-106730800D02*
X80975200Y-106426000D01*
X81280000Y-109032000D02*
X81280000Y-106730800D01*
X118872000Y-106578400D02*
X119024400Y-106426000D01*
X118872000Y-109032000D02*
X118872000Y-106578400D01*
X156972000Y-106578400D02*
X157124400Y-106426000D01*
X156972000Y-109032000D02*
X156972000Y-106578400D01*
X195326000Y-106451400D02*
X195300600Y-106426000D01*
X195326000Y-109032000D02*
X195326000Y-106451400D01*
X233172000Y-106578400D02*
X233324400Y-106426000D01*
X233172000Y-109032000D02*
X233172000Y-106578400D01*
X225679000Y-85090000D02*
X228981000Y-85090000D01*
X109474000Y-82484000D02*
X109474000Y-84648000D01*
X111084000Y-84648000D02*
X112166000Y-83566000D01*
X109474000Y-84648000D02*
X111084000Y-84648000D01*
X177241200Y-73340000D02*
X179512000Y-73340000D01*
X179705000Y-73533000D02*
X183794400Y-73533000D01*
X179512000Y-73340000D02*
X179705000Y-73533000D01*
X175707000Y-73340000D02*
X175514000Y-73533000D01*
X177241200Y-73340000D02*
X175707000Y-73340000D01*
X175514000Y-73533000D02*
X174879000Y-73533000D01*
X252857000Y-106426000D02*
X248590000Y-106426000D01*
X255233000Y-104050000D02*
X252857000Y-106426000D01*
X256210000Y-104050000D02*
X255233000Y-104050000D01*
X99720400Y-85090000D02*
X103505000Y-88874600D01*
X30861000Y-94361000D02*
X48387000Y-94361000D01*
X103505000Y-88874600D02*
X112293400Y-88874600D01*
X28702000Y-96520000D02*
X30861000Y-94361000D01*
X50800000Y-86893400D02*
X52603400Y-85090000D01*
X18923000Y-96520000D02*
X28702000Y-96520000D01*
X17145000Y-98298000D02*
X18923000Y-96520000D01*
X17145000Y-104775000D02*
X17145000Y-98298000D01*
X52603400Y-85090000D02*
X99720400Y-85090000D01*
X18796000Y-106426000D02*
X17145000Y-104775000D01*
X50800000Y-91948000D02*
X50800000Y-86893400D01*
X48387000Y-94361000D02*
X50800000Y-91948000D01*
X19812000Y-106426000D02*
X18796000Y-106426000D01*
D34*
%TO.N,/RESET*%
X190572801Y-83670999D02*
X190576200Y-83667600D01*
X188806001Y-83670999D02*
X190572801Y-83670999D01*
X203123800Y-85979000D02*
X205628000Y-85979000D01*
X179514600Y-79667000D02*
X179527200Y-79654400D01*
X179527200Y-79654400D02*
X179527200Y-78282800D01*
X180086000Y-77724000D02*
X181967500Y-77724000D01*
X179527200Y-78282800D02*
X180086000Y-77724000D01*
X178308000Y-79654400D02*
X179527200Y-79654400D01*
X175933000Y-77279400D02*
X178308000Y-79654400D01*
X175933000Y-76490000D02*
X175933000Y-77279400D01*
X167983000Y-76490000D02*
X166380600Y-76490000D01*
X165862000Y-75971400D02*
X165862000Y-75372000D01*
X166380600Y-76490000D02*
X165862000Y-75971400D01*
X167982900Y-76490100D02*
X167983000Y-76490000D01*
X167982900Y-77851000D02*
X167982900Y-76490100D01*
%TO.N,/PB6*%
X194818000Y-91760000D02*
X195696800Y-91760000D01*
X196226800Y-92290000D02*
X197020000Y-92290000D01*
X195696800Y-91760000D02*
X196226800Y-92290000D01*
X195040000Y-88563200D02*
X195040000Y-87562000D01*
X194818000Y-88785200D02*
X195040000Y-88563200D01*
X194818000Y-91760000D02*
X194818000Y-88785200D01*
%TO.N,/PB7*%
X201295000Y-91760000D02*
X201295000Y-90982800D01*
X200902200Y-90590000D02*
X199220000Y-90590000D01*
X201295000Y-90982800D02*
X200902200Y-90590000D01*
X199220000Y-89212600D02*
X199220000Y-90590000D01*
X198805800Y-88798400D02*
X199220000Y-89212600D01*
X196125400Y-88798400D02*
X198805800Y-88798400D01*
X195840000Y-88513000D02*
X196125400Y-88798400D01*
X195840000Y-87562000D02*
X195840000Y-88513000D01*
D32*
%TO.N,/Vin*%
X133208000Y-58848000D02*
X133208000Y-64948000D01*
X134484000Y-83566000D02*
X134484000Y-68063000D01*
X133208000Y-66787000D02*
X134484000Y-68063000D01*
X133208000Y-64948000D02*
X133208000Y-66787000D01*
D33*
%TO.N,/Vusb*%
X149492000Y-61781000D02*
X149492000Y-62598000D01*
D32*
X147066000Y-78105000D02*
X144018000Y-78105000D01*
X143138000Y-78985000D02*
X143138000Y-83566000D01*
X144018000Y-78105000D02*
X143138000Y-78985000D01*
D35*
X154292000Y-61781000D02*
X154292000Y-62598000D01*
D32*
X155194000Y-63500000D02*
X154292000Y-62598000D01*
X156083000Y-63500000D02*
X155194000Y-63500000D01*
X148589993Y-63500007D02*
X149492000Y-62598000D01*
X147446993Y-63500007D02*
X148589993Y-63500007D01*
X148082000Y-77089000D02*
X147066000Y-78105000D01*
X148082000Y-75169000D02*
X148082000Y-77089000D01*
X147446986Y-63500000D02*
X147446993Y-63500007D01*
X147447000Y-64643000D02*
X147446986Y-63500000D01*
X157226000Y-63500000D02*
X156083000Y-63500000D01*
X157226000Y-64643000D02*
X157226000Y-63500000D01*
X147446993Y-63500007D02*
X141604993Y-63500007D01*
X141604993Y-63500007D02*
X140589000Y-64516000D01*
X140589000Y-64516000D02*
X140589000Y-67437000D01*
X141158000Y-68006000D02*
X142748000Y-68006000D01*
X140589000Y-67437000D02*
X141158000Y-68006000D01*
X142748000Y-68006000D02*
X142748000Y-73914000D01*
X144003000Y-75169000D02*
X148082000Y-75169000D01*
X142748000Y-73914000D02*
X144003000Y-75169000D01*
D34*
%TO.N,/CC1*%
X154305000Y-64363600D02*
X154305000Y-72771000D01*
X153142000Y-63200600D02*
X154305000Y-64363600D01*
X153142000Y-61781000D02*
X153142000Y-63200600D01*
X153644600Y-72771000D02*
X154305000Y-72771000D01*
X153162000Y-73253600D02*
X153644600Y-72771000D01*
X153162000Y-75169000D02*
X153162000Y-73253600D01*
X154305000Y-72771000D02*
X157861000Y-72771000D01*
X158750000Y-71882000D02*
X158750000Y-67968500D01*
X157861000Y-72771000D02*
X158750000Y-71882000D01*
%TO.N,/D+*%
X151142000Y-65012000D02*
X150749000Y-65405000D01*
X151142000Y-61781000D02*
X151142000Y-65012000D01*
X152142000Y-65405038D02*
X152908000Y-65405038D01*
X152142000Y-61781000D02*
X152142000Y-65405038D01*
X152142000Y-67407600D02*
X152142000Y-61781000D01*
X153162000Y-68427600D02*
X152142000Y-67407600D01*
X153162000Y-70119000D02*
X153162000Y-68427600D01*
%TO.N,/D-*%
X152642000Y-63488000D02*
X153797000Y-64643000D01*
X152642000Y-61781000D02*
X152642000Y-63488000D01*
X153797000Y-64643000D02*
X153797000Y-66040002D01*
X153797000Y-66040002D02*
X152908002Y-66929000D01*
X151642000Y-66933000D02*
X151642000Y-61781000D01*
X151638000Y-66929000D02*
X151642000Y-66933000D01*
X150749000Y-66929000D02*
X151638000Y-66929000D01*
X151638000Y-67411600D02*
X151638000Y-66929000D01*
X150622000Y-68427600D02*
X151638000Y-67411600D01*
X150622000Y-70119000D02*
X150622000Y-68427600D01*
%TO.N,/SBU1*%
X150642000Y-63962600D02*
X150642000Y-61781000D01*
X148082000Y-70119000D02*
X148803600Y-70119000D01*
X148803600Y-70119000D02*
X149479000Y-69443600D01*
X149479000Y-69443600D02*
X149479000Y-65125600D01*
X149479000Y-65125600D02*
X150642000Y-63962600D01*
%TO.N,/CC2*%
X150622000Y-73253600D02*
X150139400Y-72771000D01*
X150622000Y-75169000D02*
X150622000Y-73253600D01*
X150139400Y-72771000D02*
X147243800Y-72771000D01*
X148437600Y-65227200D02*
X150142000Y-63522800D01*
X146304000Y-67968500D02*
X147804500Y-67968500D01*
X148437600Y-67335400D02*
X148437600Y-65227200D01*
X147804500Y-67968500D02*
X148437600Y-67335400D01*
X150142000Y-61781000D02*
X150142000Y-63522800D01*
X145034000Y-67968500D02*
X145034000Y-71882000D01*
X145923000Y-72771000D02*
X147243800Y-72771000D01*
X145034000Y-71882000D02*
X145923000Y-72771000D01*
X145034000Y-67968500D02*
X146304000Y-67968500D01*
%TO.N,/SBU2*%
X155702000Y-65016932D02*
X153642000Y-62956932D01*
X153642000Y-62956932D02*
X153642000Y-61781000D01*
X155702000Y-70119000D02*
X155702000Y-65016932D01*
%TO.N,/MISO*%
X198882000Y-79502000D02*
X200533000Y-79502000D01*
X200533000Y-79502000D02*
X202438000Y-79502000D01*
X203835000Y-80899000D02*
X205628000Y-80899000D01*
X202438000Y-79502000D02*
X203835000Y-80899000D01*
X197872000Y-80512000D02*
X198882000Y-79502000D01*
X197290000Y-80512000D02*
X197872000Y-80512000D01*
%TO.N,/SCK*%
X198306000Y-79062000D02*
X200279000Y-77089000D01*
X205628000Y-83439000D02*
X207772000Y-83439000D01*
X207772000Y-83439000D02*
X208280000Y-82931000D01*
X208280000Y-82931000D02*
X208280000Y-78105000D01*
X208280000Y-78105000D02*
X207264000Y-77089000D01*
X202692000Y-75461500D02*
X202692000Y-77089000D01*
X202692000Y-77089000D02*
X200279000Y-77089000D01*
X207264000Y-77089000D02*
X202692000Y-77089000D01*
X195840000Y-79062000D02*
X198306000Y-79062000D01*
%TO.N,/MOSI*%
X210058000Y-84709000D02*
X210678000Y-84089000D01*
X202946000Y-84709000D02*
X210058000Y-84709000D01*
X202057000Y-81026000D02*
X202057000Y-83820000D01*
X210678000Y-84089000D02*
X210678000Y-83439000D01*
X202057000Y-83820000D02*
X202946000Y-84709000D01*
X201676000Y-80645000D02*
X202057000Y-81026000D01*
X199390000Y-80645000D02*
X201676000Y-80645000D01*
X198723000Y-81312000D02*
X197290000Y-81312000D01*
X199390000Y-80645000D02*
X198723000Y-81312000D01*
%TO.N,/TXD*%
X187357000Y-85312000D02*
X187071000Y-85598000D01*
X188790000Y-85312000D02*
X187357000Y-85312000D01*
X168402000Y-68834000D02*
X168402000Y-65532000D01*
X185547000Y-85598000D02*
X187071000Y-85598000D01*
X181521100Y-86207600D02*
X184937400Y-86207600D01*
X179133500Y-83820000D02*
X181521100Y-86207600D01*
X171196000Y-83820000D02*
X179133500Y-83820000D01*
X169418000Y-82042000D02*
X171196000Y-83820000D01*
X184937400Y-86207600D02*
X185547000Y-85598000D01*
X169418000Y-71374000D02*
X169418000Y-82042000D01*
X168402000Y-70358000D02*
X169418000Y-71374000D01*
X168402000Y-68834000D02*
X168402000Y-70358000D01*
%TO.N,/RXD*%
X187382000Y-84512000D02*
X187071000Y-84201000D01*
X188790000Y-84512000D02*
X187382000Y-84512000D01*
X170942000Y-68834000D02*
X170942000Y-65532000D01*
X186182000Y-84201000D02*
X187071000Y-84201000D01*
X184658000Y-85725000D02*
X186182000Y-84201000D01*
X181772284Y-85725000D02*
X184658000Y-85725000D01*
X179359284Y-83312000D02*
X181772284Y-85725000D01*
X169926000Y-81788000D02*
X171450000Y-83312000D01*
X169926000Y-71374000D02*
X169926000Y-81788000D01*
X170942000Y-70358000D02*
X169926000Y-71374000D01*
X171450000Y-83312000D02*
X179359284Y-83312000D01*
X170942000Y-68834000D02*
X170942000Y-70358000D01*
%TO.N,/SDA*%
X186055000Y-82296000D02*
X185420000Y-81661000D01*
X185293000Y-81534000D02*
X185420000Y-81661000D01*
X183792500Y-81534000D02*
X185293000Y-81534000D01*
X183792500Y-80240500D02*
X183794400Y-80238600D01*
X183792500Y-81534000D02*
X183792500Y-80240500D01*
X188790000Y-82112000D02*
X187712200Y-82112000D01*
X187528200Y-82296000D02*
X186055000Y-82296000D01*
X187712200Y-82112000D02*
X187528200Y-82296000D01*
X138430000Y-127889000D02*
X138430000Y-122809000D01*
X139827000Y-129286000D02*
X138430000Y-127889000D01*
X165100000Y-129286000D02*
X139827000Y-129286000D01*
X172415200Y-121970800D02*
X165100000Y-129286000D01*
X172415200Y-114808000D02*
X172415200Y-121970800D01*
%TO.N,/SCL*%
X185166000Y-83693000D02*
X185420000Y-83439000D01*
X183792500Y-83693000D02*
X185166000Y-83693000D01*
X183792500Y-84961100D02*
X183819800Y-84988400D01*
X183792500Y-83693000D02*
X183792500Y-84961100D01*
X185947000Y-82912000D02*
X185420000Y-83439000D01*
X188790000Y-82912000D02*
X185947000Y-82912000D01*
X135890000Y-126111000D02*
X135890000Y-122809000D01*
X135890000Y-127889000D02*
X135890000Y-126111000D01*
X173278800Y-122250200D02*
X165608000Y-129921000D01*
X137922000Y-129921000D02*
X135890000Y-127889000D01*
X165608000Y-129921000D02*
X137922000Y-129921000D01*
X173278800Y-113817400D02*
X173278800Y-122250200D01*
%TO.N,/SS*%
X197290000Y-82112000D02*
X198786600Y-82112000D01*
X198983600Y-81915000D02*
X200533000Y-81915000D01*
X198786600Y-82112000D02*
X198983600Y-81915000D01*
%TO.N,/A0*%
X191040000Y-79062000D02*
X191040000Y-77883000D01*
X190754000Y-77597000D02*
X190754000Y-75692000D01*
X191040000Y-77883000D02*
X190754000Y-77597000D01*
%TO.N,/A1*%
X190240000Y-79062000D02*
X190240000Y-78276800D01*
X189738000Y-77774800D02*
X189738000Y-76962000D01*
X190240000Y-78276800D02*
X189738000Y-77774800D01*
%TO.N,/A2*%
X187573000Y-80512000D02*
X186944000Y-79883000D01*
X188790000Y-80512000D02*
X187573000Y-80512000D01*
%TO.N,/A3*%
X186976000Y-81312000D02*
X186944000Y-81280000D01*
X188790000Y-81312000D02*
X186976000Y-81312000D01*
%TO.N,/A6*%
X194240000Y-77032000D02*
X194310000Y-76962000D01*
X194240000Y-79062000D02*
X194240000Y-77032000D01*
%TO.N,/A7*%
X191840000Y-79062000D02*
X191840000Y-78022600D01*
X191770000Y-77952600D02*
X191770000Y-76962000D01*
X191840000Y-78022600D02*
X191770000Y-77952600D01*
%TO.N,/D2*%
X188790000Y-86112000D02*
X188790000Y-86571400D01*
X188366400Y-86995000D02*
X187071000Y-86995000D01*
X188790000Y-86571400D02*
X188366400Y-86995000D01*
%TO.N,/D3~~*%
X189298000Y-87562000D02*
X188595000Y-88265000D01*
X190240000Y-87562000D02*
X189298000Y-87562000D01*
%TO.N,/D7*%
X198812000Y-84512000D02*
X199644000Y-85344000D01*
X197290000Y-84512000D02*
X198812000Y-84512000D01*
%TO.N,/D8*%
X199390000Y-84201000D02*
X200533000Y-84201000D01*
X198901000Y-83712000D02*
X199390000Y-84201000D01*
X197290000Y-83712000D02*
X198901000Y-83712000D01*
%TO.N,/D9~~*%
X197290000Y-82912000D02*
X198482000Y-82912000D01*
X198628000Y-83058000D02*
X199644000Y-83058000D01*
X198482000Y-82912000D02*
X198628000Y-83058000D01*
%TO.N,/D6~~_CLK*%
X198342000Y-85312000D02*
X197290000Y-85312000D01*
X205359000Y-88265000D02*
X204470000Y-87376000D01*
X205359000Y-90043000D02*
X205359000Y-88265000D01*
X206375000Y-91059000D02*
X205359000Y-90043000D01*
X206375000Y-91797500D02*
X206375000Y-91059000D01*
X200533000Y-87376000D02*
X199263000Y-87376000D01*
X204470000Y-87376000D02*
X200533000Y-87376000D01*
X198691500Y-86804500D02*
X198691500Y-85661500D01*
X199263000Y-87376000D02*
X198691500Y-86804500D01*
X198691500Y-85661500D02*
X198342000Y-85312000D01*
%TO.N,Net-(C9-Pad1)*%
X165862000Y-73472000D02*
X165862000Y-68838000D01*
X165862000Y-68834000D02*
X165862000Y-65532000D01*
%TO.N,Net-(D1-Pad2)*%
X27798057Y-99604010D02*
X27931034Y-99471033D01*
X27559000Y-99604010D02*
X27798057Y-99604010D01*
X27610000Y-100406000D02*
X27610000Y-99150000D01*
X23966000Y-104050000D02*
X27610000Y-100406000D01*
X23190000Y-104050000D02*
X23966000Y-104050000D01*
%TO.N,/D5~~_DAT*%
X198501000Y-87884000D02*
X197290000Y-86673000D01*
X204851000Y-88519000D02*
X204216000Y-87884000D01*
X204216000Y-87884000D02*
X198501000Y-87884000D01*
X204851000Y-90043000D02*
X204851000Y-88519000D01*
X197290000Y-86673000D02*
X197290000Y-86112000D01*
X203835000Y-91059000D02*
X204851000Y-90043000D01*
X203835000Y-91797500D02*
X203835000Y-91059000D01*
%TO.N,Net-(D2-Pad2)*%
X35230000Y-100456800D02*
X35230000Y-99150000D01*
X31636800Y-104050000D02*
X34315400Y-101371400D01*
X30810000Y-104050000D02*
X31636800Y-104050000D01*
X34315400Y-101371400D02*
X35230000Y-100456800D01*
%TO.N,Net-(D3-Pad2)*%
X42850000Y-100456800D02*
X42850000Y-99150000D01*
X39256800Y-104050000D02*
X42850000Y-100456800D01*
X38430000Y-104050000D02*
X39256800Y-104050000D01*
%TO.N,Net-(D4-Pad2)*%
X50470000Y-100456800D02*
X50470000Y-99150000D01*
X46876800Y-104050000D02*
X50470000Y-100456800D01*
X46050000Y-104050000D02*
X46876800Y-104050000D01*
%TO.N,Net-(D5-Pad2)*%
X58090000Y-100456800D02*
X58090000Y-99150000D01*
X54496800Y-104050000D02*
X58090000Y-100456800D01*
X53670000Y-104050000D02*
X54496800Y-104050000D01*
%TO.N,Net-(D6-Pad2)*%
X65710000Y-100456800D02*
X65710000Y-99150000D01*
X62116800Y-104050000D02*
X65710000Y-100456800D01*
X61290000Y-104050000D02*
X62116800Y-104050000D01*
%TO.N,Net-(D7-Pad2)*%
X69736800Y-104050000D02*
X73330000Y-100456800D01*
X73330000Y-100456800D02*
X73330000Y-99150000D01*
X68910000Y-104050000D02*
X69736800Y-104050000D01*
%TO.N,Net-(D8-Pad2)*%
X80950000Y-100456800D02*
X80950000Y-99150000D01*
X77356800Y-104050000D02*
X80950000Y-100456800D01*
X76530000Y-104050000D02*
X77356800Y-104050000D01*
%TO.N,Net-(D10-Pad4)*%
X88570000Y-100456800D02*
X88570000Y-99150000D01*
X84976800Y-104050000D02*
X88570000Y-100456800D01*
X84150000Y-104050000D02*
X84976800Y-104050000D01*
%TO.N,Net-(D10-Pad2)*%
X96190000Y-100456800D02*
X96190000Y-99150000D01*
X92596800Y-104050000D02*
X96190000Y-100456800D01*
X91770000Y-104050000D02*
X92596800Y-104050000D01*
%TO.N,Net-(D11-Pad2)*%
X103810000Y-100456800D02*
X103810000Y-99150000D01*
X100216800Y-104050000D02*
X103810000Y-100456800D01*
X99390000Y-104050000D02*
X100216800Y-104050000D01*
%TO.N,Net-(D12-Pad2)*%
X111430000Y-100456800D02*
X111430000Y-99150000D01*
X107836800Y-104050000D02*
X111430000Y-100456800D01*
X107010000Y-104050000D02*
X107836800Y-104050000D01*
%TO.N,Net-(D13-Pad2)*%
X119050000Y-100456800D02*
X119050000Y-99150000D01*
X115456800Y-104050000D02*
X119050000Y-100456800D01*
X114630000Y-104050000D02*
X115456800Y-104050000D01*
%TO.N,Net-(D14-Pad2)*%
X126670000Y-100456800D02*
X126670000Y-99150000D01*
X123076800Y-104050000D02*
X126670000Y-100456800D01*
X122250000Y-104050000D02*
X123076800Y-104050000D01*
%TO.N,Net-(D15-Pad2)*%
X134290000Y-100456800D02*
X134290000Y-99150000D01*
X130696800Y-104050000D02*
X134290000Y-100456800D01*
X129870000Y-104050000D02*
X130696800Y-104050000D01*
%TO.N,Net-(D16-Pad2)*%
X141910000Y-100456800D02*
X141910000Y-99150000D01*
X138316800Y-104050000D02*
X141910000Y-100456800D01*
X137490000Y-104050000D02*
X138316800Y-104050000D01*
%TO.N,Net-(D17-Pad2)*%
X149530000Y-100456800D02*
X149530000Y-99150000D01*
X145936800Y-104050000D02*
X149530000Y-100456800D01*
X145110000Y-104050000D02*
X145936800Y-104050000D01*
%TO.N,Net-(D18-Pad2)*%
X157150000Y-100456800D02*
X157150000Y-99150000D01*
X153556800Y-104050000D02*
X157150000Y-100456800D01*
X152730000Y-104050000D02*
X153556800Y-104050000D01*
%TO.N,Net-(D19-Pad2)*%
X164770000Y-100456800D02*
X164770000Y-99150000D01*
X161176800Y-104050000D02*
X164770000Y-100456800D01*
X160350000Y-104050000D02*
X161176800Y-104050000D01*
%TO.N,Net-(D20-Pad2)*%
X172390000Y-100456800D02*
X172390000Y-99150000D01*
X168796800Y-104050000D02*
X172390000Y-100456800D01*
X167970000Y-104050000D02*
X168796800Y-104050000D01*
%TO.N,Net-(D21-Pad2)*%
X180010000Y-100456800D02*
X180010000Y-99150000D01*
X176416800Y-104050000D02*
X180010000Y-100456800D01*
X175590000Y-104050000D02*
X176416800Y-104050000D01*
%TO.N,Net-(D22-Pad2)*%
X187630000Y-100456800D02*
X187630000Y-99150000D01*
X184036800Y-104050000D02*
X187630000Y-100456800D01*
X183210000Y-104050000D02*
X184036800Y-104050000D01*
%TO.N,Net-(D23-Pad2)*%
X195250000Y-100431400D02*
X195250000Y-99150000D01*
X191631400Y-104050000D02*
X195250000Y-100431400D01*
X190830000Y-104050000D02*
X191631400Y-104050000D01*
%TO.N,Net-(D24-Pad2)*%
X202870000Y-100456800D02*
X202870000Y-99150000D01*
X199276800Y-104050000D02*
X202870000Y-100456800D01*
X198450000Y-104050000D02*
X199276800Y-104050000D01*
%TO.N,Net-(D25-Pad2)*%
X210490000Y-100456800D02*
X210490000Y-99150000D01*
X206896800Y-104050000D02*
X210490000Y-100456800D01*
X206070000Y-104050000D02*
X206896800Y-104050000D01*
%TO.N,Net-(D26-Pad2)*%
X218110000Y-100456800D02*
X218110000Y-99150000D01*
X214516800Y-104050000D02*
X218110000Y-100456800D01*
X213690000Y-104050000D02*
X214516800Y-104050000D01*
%TO.N,Net-(D27-Pad2)*%
X225730000Y-100456800D02*
X225730000Y-99150000D01*
X222136800Y-104050000D02*
X225730000Y-100456800D01*
X221310000Y-104050000D02*
X222136800Y-104050000D01*
%TO.N,Net-(D28-Pad2)*%
X233350000Y-100456800D02*
X233350000Y-99150000D01*
X229756800Y-104050000D02*
X233350000Y-100456800D01*
X228930000Y-104050000D02*
X229756800Y-104050000D01*
%TO.N,Net-(D29-Pad2)*%
X240970000Y-100456800D02*
X240970000Y-99150000D01*
X237376800Y-104050000D02*
X240970000Y-100456800D01*
X236550000Y-104050000D02*
X237376800Y-104050000D01*
%TO.N,/D4_MODE*%
X189484000Y-89856036D02*
X189484000Y-91035500D01*
X189987418Y-89352618D02*
X189484000Y-89856036D01*
X154925000Y-135890000D02*
X154925000Y-138430000D01*
X191040000Y-87562000D02*
X191040000Y-88563200D01*
X191040000Y-88563200D02*
X190703200Y-88900000D01*
X190440036Y-88900000D02*
X189987418Y-89352618D01*
X190703200Y-88900000D02*
X190440036Y-88900000D01*
X174853600Y-138430000D02*
X154055000Y-138430000D01*
X189509400Y-123774200D02*
X174853600Y-138430000D01*
X189509400Y-113512600D02*
X189509400Y-123774200D01*
%TO.N,Net-(D30-Pad2)*%
X248590000Y-100431400D02*
X248590000Y-99150000D01*
X244971400Y-104050000D02*
X248590000Y-100431400D01*
X244170000Y-104050000D02*
X244971400Y-104050000D01*
%TO.N,Net-(D31-Pad2)*%
X252566000Y-104050000D02*
X256210000Y-100406000D01*
X256210000Y-100406000D02*
X256210000Y-99150000D01*
X251790000Y-104050000D02*
X252566000Y-104050000D01*
%TO.N,Net-(D35-PadA)*%
X104927000Y-82471500D02*
X104902000Y-82446500D01*
X107188000Y-82471500D02*
X104927000Y-82471500D01*
%TO.N,Net-(D36-PadA)*%
X202667000Y-73611500D02*
X202692000Y-73636500D01*
X200279000Y-73611500D02*
X202667000Y-73611500D01*
%TO.N,Net-(P5-Pad6)*%
X133350000Y-126111000D02*
X133350000Y-122809000D01*
%TO.N,Net-(P5-Pad1)*%
X146050000Y-122809000D02*
X146050000Y-126111000D01*
%TO.N,/CLK*%
X54737000Y-90170000D02*
X58039000Y-90170000D01*
X63627000Y-90170000D02*
X58039000Y-90170000D01*
X69469000Y-96012000D02*
X63627000Y-90170000D01*
X180086000Y-96012000D02*
X69469000Y-96012000D01*
X180975000Y-96901000D02*
X180086000Y-96012000D01*
X204978000Y-96901000D02*
X180975000Y-96901000D01*
X206375000Y-95504000D02*
X204978000Y-96901000D01*
X206375000Y-93622500D02*
X206375000Y-95504000D01*
%TO.N,Net-(B21-Pad1)*%
X225679000Y-90170000D02*
X228981000Y-90170000D01*
X231775000Y-90170000D02*
X228981000Y-90170000D01*
%TO.N,/DAT*%
X54737000Y-87630000D02*
X58039000Y-87630000D01*
X69977000Y-95123000D02*
X62484000Y-87630000D01*
X181356000Y-96139000D02*
X180340000Y-95123000D01*
X203073000Y-96139000D02*
X181356000Y-96139000D01*
X62484000Y-87630000D02*
X58039000Y-87630000D01*
X180340000Y-95123000D02*
X69977000Y-95123000D01*
X203835000Y-95377000D02*
X203073000Y-96139000D01*
X203835000Y-93622500D02*
X203835000Y-95377000D01*
X21590000Y-101600000D02*
X20701000Y-101600000D01*
X19990000Y-100889000D02*
X19990000Y-99150000D01*
X20701000Y-101600000D02*
X19990000Y-100889000D01*
X32893000Y-97790000D02*
X32893000Y-99695000D01*
X52705000Y-95377000D02*
X51689000Y-96393000D01*
X52705000Y-88392000D02*
X52705000Y-95377000D01*
X34290000Y-96393000D02*
X32893000Y-97790000D01*
X51689000Y-96393000D02*
X34290000Y-96393000D01*
X53467000Y-87630000D02*
X52705000Y-88392000D01*
X54737000Y-87630000D02*
X53467000Y-87630000D01*
X29210000Y-101600000D02*
X32385000Y-101600000D01*
X32893000Y-101092000D02*
X32893000Y-99695000D01*
X32385000Y-101600000D02*
X32893000Y-101092000D01*
%TO.N,/LED/DAT_OUT*%
X239776000Y-87630000D02*
X242570000Y-90424000D01*
X228980000Y-87630000D02*
X239776000Y-87630000D01*
X242570000Y-90424000D02*
X242316000Y-90170000D01*
X256603500Y-96456500D02*
X248602500Y-96456500D01*
X248602500Y-96456500D02*
X242570000Y-90424000D01*
X228981000Y-87630000D02*
X225679000Y-87630000D01*
X259410000Y-104050000D02*
X260516200Y-104050000D01*
X260516200Y-104050000D02*
X261239000Y-103327200D01*
X261239000Y-103327200D02*
X261239000Y-97256600D01*
X260438900Y-96456500D02*
X256603500Y-96456500D01*
X261239000Y-97256600D02*
X260438900Y-96456500D01*
%TD*%
%TO.N,+5V*%
X117827325Y-60593040D02*
X117918951Y-60630993D01*
X117997632Y-60691368D01*
X118058007Y-60770049D01*
X118095960Y-60861675D01*
X118110000Y-60968321D01*
X118110000Y-69088000D01*
X118111087Y-69104577D01*
X118128397Y-69236057D01*
X118136977Y-69268080D01*
X118187726Y-69390600D01*
X118204303Y-69419313D01*
X118285034Y-69524523D01*
X118308477Y-69547966D01*
X118413687Y-69628697D01*
X118442400Y-69645274D01*
X118564920Y-69696023D01*
X118596943Y-69704603D01*
X118728423Y-69721913D01*
X118745000Y-69723000D01*
X132833679Y-69723000D01*
X132940325Y-69737040D01*
X133031951Y-69774993D01*
X133110632Y-69835368D01*
X133171007Y-69914049D01*
X133208960Y-70005675D01*
X133223000Y-70112321D01*
X133223000Y-78858679D01*
X133208960Y-78965325D01*
X133171007Y-79056951D01*
X133110632Y-79135632D01*
X133031951Y-79196007D01*
X132940325Y-79233960D01*
X132833679Y-79248000D01*
X122428000Y-79248000D01*
X122411423Y-79249087D01*
X122279943Y-79266397D01*
X122247920Y-79274977D01*
X122125400Y-79325726D01*
X122096687Y-79342303D01*
X121991477Y-79423034D01*
X121968034Y-79446477D01*
X121887303Y-79551687D01*
X121870726Y-79580400D01*
X121819977Y-79702920D01*
X121811397Y-79734943D01*
X121794087Y-79866423D01*
X121793000Y-79883000D01*
X121793000Y-80313500D01*
X120068145Y-80313500D01*
X120055502Y-80271820D01*
X119996537Y-80161506D01*
X119917185Y-80064815D01*
X119820494Y-79985463D01*
X119710180Y-79926498D01*
X119590482Y-79890188D01*
X119466000Y-79877928D01*
X117466000Y-79877928D01*
X117341518Y-79890188D01*
X117221820Y-79926498D01*
X117111506Y-79985463D01*
X117014815Y-80064815D01*
X116935463Y-80161506D01*
X116876498Y-80271820D01*
X116840188Y-80391518D01*
X116827928Y-80516000D01*
X116827928Y-82016000D01*
X116840188Y-82140482D01*
X116876498Y-82260180D01*
X116935463Y-82370494D01*
X116972809Y-82416000D01*
X116935463Y-82461506D01*
X116876498Y-82571820D01*
X116840188Y-82691518D01*
X116827928Y-82816000D01*
X116831000Y-83280250D01*
X116989750Y-83439000D01*
X118339000Y-83439000D01*
X118339000Y-83419000D01*
X118593000Y-83419000D01*
X118593000Y-83439000D01*
X119942250Y-83439000D01*
X120101000Y-83280250D01*
X120104072Y-82816000D01*
X120091812Y-82691518D01*
X120055502Y-82571820D01*
X119996537Y-82461506D01*
X119959191Y-82416000D01*
X119996537Y-82370494D01*
X120055502Y-82260180D01*
X120068145Y-82218500D01*
X121663862Y-82218500D01*
X121793000Y-82347638D01*
X121793000Y-84784362D01*
X121663862Y-84913500D01*
X120611847Y-84913500D01*
X120508698Y-84870774D01*
X120308739Y-84831000D01*
X120104861Y-84831000D01*
X120040523Y-84843797D01*
X119996537Y-84761506D01*
X119959191Y-84716000D01*
X119996537Y-84670494D01*
X120055502Y-84560180D01*
X120091812Y-84440482D01*
X120104072Y-84316000D01*
X120101000Y-83851750D01*
X119942250Y-83693000D01*
X118593000Y-83693000D01*
X118593000Y-83713000D01*
X118339000Y-83713000D01*
X118339000Y-83693000D01*
X116989750Y-83693000D01*
X116831000Y-83851750D01*
X116827928Y-84316000D01*
X116840188Y-84440482D01*
X116876498Y-84560180D01*
X116935463Y-84670494D01*
X116972809Y-84716000D01*
X116935463Y-84761506D01*
X116876498Y-84871820D01*
X116840188Y-84991518D01*
X116827928Y-85116000D01*
X116827928Y-86616000D01*
X116840188Y-86740482D01*
X116876498Y-86860180D01*
X116935463Y-86970494D01*
X117014815Y-87067185D01*
X117111506Y-87146537D01*
X117221820Y-87205502D01*
X117341518Y-87241812D01*
X117466000Y-87254072D01*
X119466000Y-87254072D01*
X119590482Y-87241812D01*
X119710180Y-87205502D01*
X119820494Y-87146537D01*
X119917185Y-87067185D01*
X119996537Y-86970494D01*
X120040523Y-86888203D01*
X120104861Y-86901000D01*
X120308739Y-86901000D01*
X120508698Y-86861226D01*
X120611847Y-86818500D01*
X121793000Y-86818500D01*
X121793000Y-87757000D01*
X121794087Y-87773577D01*
X121811397Y-87905057D01*
X121819977Y-87937080D01*
X121870726Y-88059600D01*
X121887303Y-88088313D01*
X121968034Y-88193523D01*
X121991477Y-88216966D01*
X122096687Y-88297697D01*
X122125400Y-88314274D01*
X122247920Y-88365023D01*
X122279943Y-88373603D01*
X122411423Y-88390913D01*
X122428000Y-88392000D01*
X146050000Y-88392000D01*
X146066577Y-88390913D01*
X146198057Y-88373603D01*
X146230080Y-88365023D01*
X146352600Y-88314274D01*
X146381313Y-88297697D01*
X146486523Y-88216966D01*
X146509966Y-88193523D01*
X146590697Y-88088313D01*
X146607274Y-88059600D01*
X146658023Y-87937080D01*
X146666603Y-87905057D01*
X146683913Y-87773577D01*
X146685000Y-87757000D01*
X146685000Y-85352489D01*
X147152250Y-85351000D01*
X147311000Y-85192250D01*
X147311000Y-83693000D01*
X147565000Y-83693000D01*
X147565000Y-85192250D01*
X147723750Y-85351000D01*
X148688000Y-85354072D01*
X148812482Y-85341812D01*
X148932180Y-85305502D01*
X149042494Y-85246537D01*
X149139185Y-85167185D01*
X149218537Y-85070494D01*
X149277502Y-84960180D01*
X149313812Y-84840482D01*
X149326072Y-84716000D01*
X149323000Y-83851750D01*
X149164250Y-83693000D01*
X147565000Y-83693000D01*
X147311000Y-83693000D01*
X147291000Y-83693000D01*
X147291000Y-83439000D01*
X147311000Y-83439000D01*
X147311000Y-81939750D01*
X147565000Y-81939750D01*
X147565000Y-83439000D01*
X149164250Y-83439000D01*
X149323000Y-83280250D01*
X149326072Y-82416000D01*
X149313812Y-82291518D01*
X149277502Y-82171820D01*
X149218537Y-82061506D01*
X149139185Y-81964815D01*
X149042494Y-81885463D01*
X148932180Y-81826498D01*
X148812482Y-81790188D01*
X148688000Y-81777928D01*
X147723750Y-81781000D01*
X147565000Y-81939750D01*
X147311000Y-81939750D01*
X147152250Y-81781000D01*
X146685000Y-81779511D01*
X146685000Y-81117741D01*
X146699040Y-81011095D01*
X146736993Y-80919469D01*
X146802477Y-80834129D01*
X148271129Y-79365477D01*
X148356469Y-79299993D01*
X148448095Y-79262040D01*
X148554741Y-79248000D01*
X156634580Y-79248000D01*
X156651157Y-79246913D01*
X156782637Y-79229603D01*
X156814660Y-79221023D01*
X156937180Y-79170274D01*
X156965893Y-79153697D01*
X157071103Y-79072966D01*
X157083593Y-79062013D01*
X159961013Y-76184593D01*
X159971966Y-76172103D01*
X160052697Y-76066893D01*
X160069274Y-76038180D01*
X160120023Y-75915660D01*
X160128603Y-75883637D01*
X160145913Y-75752157D01*
X160147000Y-75735580D01*
X160147000Y-62702741D01*
X160161040Y-62596095D01*
X160198993Y-62504469D01*
X160264477Y-62419129D01*
X161479129Y-61204477D01*
X161564469Y-61138993D01*
X161656095Y-61101040D01*
X161762741Y-61087000D01*
X182534259Y-61087000D01*
X182640905Y-61101040D01*
X182732531Y-61138993D01*
X182817871Y-61204477D01*
X185556523Y-63943129D01*
X185622007Y-64028469D01*
X185659960Y-64120095D01*
X185674000Y-64226741D01*
X185674000Y-72136000D01*
X185675087Y-72152577D01*
X185692397Y-72284057D01*
X185700977Y-72316080D01*
X185751726Y-72438600D01*
X185768303Y-72467313D01*
X185849034Y-72572523D01*
X185872477Y-72595966D01*
X185977687Y-72676697D01*
X186006400Y-72693274D01*
X186128920Y-72744023D01*
X186160943Y-72752603D01*
X186292423Y-72769913D01*
X186309000Y-72771000D01*
X192575580Y-72771000D01*
X192592157Y-72769913D01*
X192723637Y-72752603D01*
X192755660Y-72744023D01*
X192878180Y-72693274D01*
X192906893Y-72676697D01*
X193012103Y-72595966D01*
X193024593Y-72585013D01*
X195515129Y-70094477D01*
X195600469Y-70028993D01*
X195692095Y-69991040D01*
X195798741Y-69977000D01*
X206791259Y-69977000D01*
X206897905Y-69991040D01*
X206989531Y-70028993D01*
X207074871Y-70094477D01*
X215661407Y-78681013D01*
X215673897Y-78691966D01*
X215779107Y-78772697D01*
X215807820Y-78789274D01*
X215930340Y-78840023D01*
X215962363Y-78848603D01*
X216093843Y-78865913D01*
X216110420Y-78867000D01*
X222031259Y-78867000D01*
X222137905Y-78881040D01*
X222229531Y-78918993D01*
X222314871Y-78984477D01*
X227085523Y-83755129D01*
X227151007Y-83840469D01*
X227188960Y-83932095D01*
X227197195Y-83994644D01*
X227193180Y-83992498D01*
X227073482Y-83956188D01*
X226949000Y-83943928D01*
X225964750Y-83947000D01*
X225806000Y-84105750D01*
X225806000Y-84963000D01*
X225826000Y-84963000D01*
X225826000Y-85217000D01*
X225806000Y-85217000D01*
X225806000Y-86074250D01*
X225964750Y-86233000D01*
X226640286Y-86235108D01*
X226391466Y-86483928D01*
X224409000Y-86483928D01*
X224284518Y-86496188D01*
X224164820Y-86532498D01*
X224054506Y-86591463D01*
X223957815Y-86670815D01*
X223878463Y-86767506D01*
X223824747Y-86868000D01*
X223095420Y-86868000D01*
X223078843Y-86869087D01*
X222947363Y-86886397D01*
X222915340Y-86894977D01*
X222792820Y-86945726D01*
X222764107Y-86962303D01*
X222658897Y-87043034D01*
X222646407Y-87053987D01*
X221673987Y-88026407D01*
X221663034Y-88038897D01*
X221582303Y-88144107D01*
X221565726Y-88172820D01*
X221514977Y-88295340D01*
X221506397Y-88327363D01*
X221489087Y-88458843D01*
X221488000Y-88475420D01*
X221488000Y-93769580D01*
X221489087Y-93786157D01*
X221506397Y-93917637D01*
X221514977Y-93949660D01*
X221565726Y-94072180D01*
X221582303Y-94100893D01*
X221663034Y-94206103D01*
X221673987Y-94218593D01*
X222646407Y-95191013D01*
X222658897Y-95201966D01*
X222764107Y-95282697D01*
X222792820Y-95299274D01*
X222915340Y-95350023D01*
X222947363Y-95358603D01*
X223078843Y-95375913D01*
X223095420Y-95377000D01*
X227448679Y-95377000D01*
X227555325Y-95391040D01*
X227646951Y-95428993D01*
X227725632Y-95489368D01*
X227786007Y-95568049D01*
X227823960Y-95659675D01*
X227838000Y-95766321D01*
X227838000Y-96257679D01*
X227823960Y-96364325D01*
X227786007Y-96455951D01*
X227725632Y-96534632D01*
X227646951Y-96595007D01*
X227555325Y-96632960D01*
X227448679Y-96647000D01*
X211971321Y-96647000D01*
X211864675Y-96632960D01*
X211773049Y-96595007D01*
X211694368Y-96534632D01*
X211633993Y-96455951D01*
X211596040Y-96364325D01*
X211582000Y-96257679D01*
X211582000Y-92307254D01*
X211597624Y-92194873D01*
X211639738Y-92099137D01*
X211712026Y-92011678D01*
X218708764Y-85598000D01*
X223770928Y-85598000D01*
X223783188Y-85722482D01*
X223819498Y-85842180D01*
X223878463Y-85952494D01*
X223957815Y-86049185D01*
X224054506Y-86128537D01*
X224164820Y-86187502D01*
X224284518Y-86223812D01*
X224409000Y-86236072D01*
X225393250Y-86233000D01*
X225552000Y-86074250D01*
X225552000Y-85217000D01*
X223932750Y-85217000D01*
X223774000Y-85375750D01*
X223770928Y-85598000D01*
X218708764Y-85598000D01*
X218996085Y-85334623D01*
X219008159Y-85321914D01*
X219097291Y-85214075D01*
X219115649Y-85184303D01*
X219171984Y-85056241D01*
X219181525Y-85022591D01*
X219200790Y-84884018D01*
X219202000Y-84866530D01*
X219202000Y-84582000D01*
X223770928Y-84582000D01*
X223774000Y-84804250D01*
X223932750Y-84963000D01*
X225552000Y-84963000D01*
X225552000Y-84105750D01*
X225393250Y-83947000D01*
X224409000Y-83943928D01*
X224284518Y-83956188D01*
X224164820Y-83992498D01*
X224054506Y-84051463D01*
X223957815Y-84130815D01*
X223878463Y-84227506D01*
X223819498Y-84337820D01*
X223783188Y-84457518D01*
X223770928Y-84582000D01*
X219202000Y-84582000D01*
X219202000Y-83058000D01*
X219200913Y-83041423D01*
X219183603Y-82909943D01*
X219175023Y-82877920D01*
X219124274Y-82755400D01*
X219107697Y-82726687D01*
X219026966Y-82621477D01*
X219003523Y-82598034D01*
X218898313Y-82517303D01*
X218869600Y-82500726D01*
X218747080Y-82449977D01*
X218715057Y-82441397D01*
X218583577Y-82424087D01*
X218567000Y-82423000D01*
X216118741Y-82423000D01*
X216012095Y-82408960D01*
X215920469Y-82371007D01*
X215835129Y-82305523D01*
X215764606Y-82235000D01*
X215773000Y-82235000D01*
X215773000Y-81385750D01*
X216027000Y-81385750D01*
X216027000Y-82235000D01*
X217101250Y-82235000D01*
X217260000Y-82076250D01*
X217263072Y-81862000D01*
X217250812Y-81737518D01*
X217214502Y-81617820D01*
X217155537Y-81507506D01*
X217076185Y-81410815D01*
X216979494Y-81331463D01*
X216869180Y-81272498D01*
X216749482Y-81236188D01*
X216625000Y-81223928D01*
X216185750Y-81227000D01*
X216027000Y-81385750D01*
X215773000Y-81385750D01*
X215614250Y-81227000D01*
X215175000Y-81223928D01*
X215050518Y-81236188D01*
X214930820Y-81272498D01*
X214846940Y-81317334D01*
X214233593Y-80703987D01*
X214221103Y-80693034D01*
X214115893Y-80612303D01*
X214087180Y-80595726D01*
X213964660Y-80544977D01*
X213932637Y-80536397D01*
X213801157Y-80519087D01*
X213784580Y-80518000D01*
X212889366Y-80518000D01*
X212891072Y-80399000D01*
X212878812Y-80274518D01*
X212842502Y-80154820D01*
X212783537Y-80044506D01*
X212704185Y-79947815D01*
X212607494Y-79868463D01*
X212497180Y-79809498D01*
X212377482Y-79773188D01*
X212253000Y-79760928D01*
X210963750Y-79764000D01*
X210805000Y-79922750D01*
X210805000Y-80518000D01*
X210701321Y-80518000D01*
X210594675Y-80503960D01*
X210551000Y-80485869D01*
X210551000Y-79922750D01*
X210392250Y-79764000D01*
X210312000Y-79763809D01*
X210312000Y-77680420D01*
X210310913Y-77663843D01*
X210293603Y-77532363D01*
X210285023Y-77500340D01*
X210234274Y-77377820D01*
X210217697Y-77349107D01*
X210136966Y-77243897D01*
X210126013Y-77231407D01*
X204708593Y-71813987D01*
X204696103Y-71803034D01*
X204590893Y-71722303D01*
X204562180Y-71705726D01*
X204439660Y-71654977D01*
X204407637Y-71646397D01*
X204276157Y-71629087D01*
X204259580Y-71628000D01*
X195790420Y-71628000D01*
X195773843Y-71629087D01*
X195642363Y-71646397D01*
X195610340Y-71654977D01*
X195487820Y-71705726D01*
X195459107Y-71722303D01*
X195353897Y-71803034D01*
X195341407Y-71813987D01*
X192850871Y-74304523D01*
X192765531Y-74370007D01*
X192673905Y-74407960D01*
X192567259Y-74422000D01*
X189313420Y-74422000D01*
X189296843Y-74423087D01*
X189165363Y-74440397D01*
X189133340Y-74448977D01*
X189010820Y-74499726D01*
X188982107Y-74516303D01*
X188876897Y-74597034D01*
X188864407Y-74607987D01*
X188653987Y-74818407D01*
X188643034Y-74830897D01*
X188562303Y-74936107D01*
X188545726Y-74964820D01*
X188494977Y-75087340D01*
X188486397Y-75119363D01*
X188469087Y-75250843D01*
X188468000Y-75267420D01*
X188468000Y-75937679D01*
X188453960Y-76044325D01*
X188416007Y-76135951D01*
X188355632Y-76214632D01*
X188276951Y-76275007D01*
X188185325Y-76312960D01*
X188078679Y-76327000D01*
X179840321Y-76327000D01*
X179733675Y-76312960D01*
X179642049Y-76275007D01*
X179563368Y-76214632D01*
X179502993Y-76135951D01*
X179465040Y-76044325D01*
X179451000Y-75937679D01*
X179451000Y-75521420D01*
X179449913Y-75504843D01*
X179432603Y-75373363D01*
X179424023Y-75341340D01*
X179373274Y-75218820D01*
X179356697Y-75190107D01*
X179275966Y-75084897D01*
X179265013Y-75072407D01*
X179054593Y-74861987D01*
X179042103Y-74851034D01*
X178936893Y-74770303D01*
X178908180Y-74753726D01*
X178785660Y-74702977D01*
X178753637Y-74694397D01*
X178622157Y-74677087D01*
X178605580Y-74676000D01*
X174970741Y-74676000D01*
X174864095Y-74661960D01*
X174772469Y-74624007D01*
X174687129Y-74558523D01*
X173968606Y-73840000D01*
X175878128Y-73840000D01*
X175890388Y-73964482D01*
X175926698Y-74084180D01*
X175985663Y-74194494D01*
X176065015Y-74291185D01*
X176161706Y-74370537D01*
X176272020Y-74429502D01*
X176391718Y-74465812D01*
X176516200Y-74478072D01*
X176955450Y-74475000D01*
X177114200Y-74316250D01*
X177114200Y-73467000D01*
X177368200Y-73467000D01*
X177368200Y-74316250D01*
X177526950Y-74475000D01*
X177966200Y-74478072D01*
X178090682Y-74465812D01*
X178210380Y-74429502D01*
X178320694Y-74370537D01*
X178417385Y-74291185D01*
X178496737Y-74194494D01*
X178555702Y-74084180D01*
X178592012Y-73964482D01*
X178604272Y-73840000D01*
X178601200Y-73625750D01*
X178442450Y-73467000D01*
X177368200Y-73467000D01*
X177114200Y-73467000D01*
X176039950Y-73467000D01*
X175881200Y-73625750D01*
X175878128Y-73840000D01*
X173968606Y-73840000D01*
X172710477Y-72581871D01*
X172644993Y-72496531D01*
X172607040Y-72404905D01*
X172593000Y-72298259D01*
X172593000Y-70612784D01*
X172619506Y-70634537D01*
X172729820Y-70693502D01*
X172849518Y-70729812D01*
X172974000Y-70742072D01*
X173196250Y-70739000D01*
X173355000Y-70580250D01*
X173355000Y-68961000D01*
X173335000Y-68961000D01*
X173335000Y-68707000D01*
X173355000Y-68707000D01*
X173355000Y-65659000D01*
X173609000Y-65659000D01*
X173609000Y-68707000D01*
X173629000Y-68707000D01*
X173629000Y-68961000D01*
X173609000Y-68961000D01*
X173609000Y-70580250D01*
X173767750Y-70739000D01*
X173990000Y-70742072D01*
X174114482Y-70729812D01*
X174234180Y-70693502D01*
X174344494Y-70634537D01*
X174371000Y-70612784D01*
X174371000Y-71798580D01*
X174372087Y-71815157D01*
X174389397Y-71946637D01*
X174397977Y-71978660D01*
X174448726Y-72101180D01*
X174465303Y-72129893D01*
X174546034Y-72235103D01*
X174556987Y-72247593D01*
X174894407Y-72585013D01*
X174906897Y-72595966D01*
X175012107Y-72676697D01*
X175040820Y-72693274D01*
X175163340Y-72744023D01*
X175195363Y-72752603D01*
X175326843Y-72769913D01*
X175343420Y-72771000D01*
X175884924Y-72771000D01*
X175878128Y-72840000D01*
X175881200Y-73054250D01*
X176039950Y-73213000D01*
X177114200Y-73213000D01*
X177114200Y-73193000D01*
X177368200Y-73193000D01*
X177368200Y-73213000D01*
X178442450Y-73213000D01*
X178601200Y-73054250D01*
X178604272Y-72840000D01*
X178597476Y-72771000D01*
X181102000Y-72771000D01*
X181118577Y-72769913D01*
X181250057Y-72752603D01*
X181282080Y-72744023D01*
X181404600Y-72693274D01*
X181433313Y-72676697D01*
X181538523Y-72595966D01*
X181561966Y-72572523D01*
X181642697Y-72467313D01*
X181659274Y-72438600D01*
X181710023Y-72316080D01*
X181718603Y-72284057D01*
X181735913Y-72152577D01*
X181737000Y-72136000D01*
X181737000Y-64345420D01*
X181735913Y-64328843D01*
X181718603Y-64197363D01*
X181710023Y-64165340D01*
X181659274Y-64042820D01*
X181642697Y-64014107D01*
X181561966Y-63908897D01*
X181551013Y-63896407D01*
X181213593Y-63558987D01*
X181201103Y-63548034D01*
X181095893Y-63467303D01*
X181067180Y-63450726D01*
X180944660Y-63399977D01*
X180912637Y-63391397D01*
X180781157Y-63374087D01*
X180764580Y-63373000D01*
X175514000Y-63373000D01*
X175497423Y-63374087D01*
X175365943Y-63391397D01*
X175333920Y-63399977D01*
X175211400Y-63450726D01*
X175182687Y-63467303D01*
X175077477Y-63548034D01*
X175054034Y-63571477D01*
X174973303Y-63676687D01*
X174956726Y-63705400D01*
X174905977Y-63827920D01*
X174897397Y-63859943D01*
X174880087Y-63991423D01*
X174879000Y-64008000D01*
X174879000Y-64230808D01*
X174875928Y-64262000D01*
X174875928Y-66802000D01*
X174879000Y-66833192D01*
X174879000Y-66916490D01*
X174867033Y-66976649D01*
X174840043Y-67017043D01*
X174799649Y-67044033D01*
X174630021Y-67077775D01*
X174606197Y-67085002D01*
X174584241Y-67096738D01*
X174534831Y-67129753D01*
X174579502Y-67046180D01*
X174615812Y-66926482D01*
X174628072Y-66802000D01*
X174625000Y-65817750D01*
X174466250Y-65659000D01*
X173609000Y-65659000D01*
X173355000Y-65659000D01*
X172497750Y-65659000D01*
X172339000Y-65817750D01*
X172335928Y-66802000D01*
X172348188Y-66926482D01*
X172384498Y-67046180D01*
X172406163Y-67086712D01*
X172403620Y-67085849D01*
X172245991Y-67043613D01*
X172224387Y-67022009D01*
X172212000Y-66975779D01*
X172212000Y-64262000D01*
X172335928Y-64262000D01*
X172339000Y-65246250D01*
X172497750Y-65405000D01*
X173355000Y-65405000D01*
X173355000Y-63785750D01*
X173609000Y-63785750D01*
X173609000Y-65405000D01*
X174466250Y-65405000D01*
X174625000Y-65246250D01*
X174628072Y-64262000D01*
X174615812Y-64137518D01*
X174579502Y-64017820D01*
X174520537Y-63907506D01*
X174441185Y-63810815D01*
X174344494Y-63731463D01*
X174234180Y-63672498D01*
X174114482Y-63636188D01*
X173990000Y-63623928D01*
X173767750Y-63627000D01*
X173609000Y-63785750D01*
X173355000Y-63785750D01*
X173196250Y-63627000D01*
X172974000Y-63623928D01*
X172849518Y-63636188D01*
X172729820Y-63672498D01*
X172619506Y-63731463D01*
X172522815Y-63810815D01*
X172443463Y-63907506D01*
X172384498Y-64017820D01*
X172348188Y-64137518D01*
X172335928Y-64262000D01*
X172212000Y-64262000D01*
X172212000Y-62992000D01*
X172210913Y-62975423D01*
X172193603Y-62843943D01*
X172185023Y-62811920D01*
X172134274Y-62689400D01*
X172117697Y-62660687D01*
X172036966Y-62555477D01*
X172013523Y-62532034D01*
X171908313Y-62451303D01*
X171879600Y-62434726D01*
X171757080Y-62383977D01*
X171725057Y-62375397D01*
X171593577Y-62358087D01*
X171577000Y-62357000D01*
X164548420Y-62357000D01*
X164531843Y-62358087D01*
X164400363Y-62375397D01*
X164368340Y-62383977D01*
X164245820Y-62434726D01*
X164217107Y-62451303D01*
X164111897Y-62532034D01*
X164099407Y-62542987D01*
X163253987Y-63388407D01*
X163243034Y-63400897D01*
X163162303Y-63506107D01*
X163145726Y-63534820D01*
X163094977Y-63657340D01*
X163086397Y-63689363D01*
X163069087Y-63820843D01*
X163068000Y-63837420D01*
X163068000Y-81069580D01*
X163069087Y-81086157D01*
X163086397Y-81217637D01*
X163094977Y-81249660D01*
X163145726Y-81372180D01*
X163162303Y-81400893D01*
X163243034Y-81506103D01*
X163253987Y-81518593D01*
X166131407Y-84396013D01*
X166143897Y-84406966D01*
X166249107Y-84487697D01*
X166277820Y-84504274D01*
X166400340Y-84555023D01*
X166432363Y-84563603D01*
X166563843Y-84580913D01*
X166580420Y-84582000D01*
X171158577Y-84582000D01*
X171196000Y-84585686D01*
X171233423Y-84582000D01*
X178817870Y-84582000D01*
X180955821Y-86719952D01*
X180979678Y-86749022D01*
X181095708Y-86844245D01*
X181192918Y-86896205D01*
X181215908Y-86908493D01*
X181228085Y-86915002D01*
X181371722Y-86958574D01*
X181403045Y-86961659D01*
X181489107Y-87027697D01*
X181517820Y-87044274D01*
X181640340Y-87095023D01*
X181672363Y-87103603D01*
X181803843Y-87120913D01*
X181820420Y-87122000D01*
X183158682Y-87122000D01*
X183152815Y-87126815D01*
X183073463Y-87223506D01*
X183014498Y-87333820D01*
X182978188Y-87453518D01*
X182965928Y-87578000D01*
X182969000Y-88592250D01*
X183127750Y-88751000D01*
X184277000Y-88751000D01*
X184277000Y-88731000D01*
X184531000Y-88731000D01*
X184531000Y-88751000D01*
X185680250Y-88751000D01*
X185839000Y-88592250D01*
X185842016Y-87596622D01*
X187715523Y-89470129D01*
X187781007Y-89555469D01*
X187818960Y-89647095D01*
X187833000Y-89753741D01*
X187833000Y-91567000D01*
X187834087Y-91583577D01*
X187851397Y-91715057D01*
X187859977Y-91747080D01*
X187910726Y-91869600D01*
X187927303Y-91898313D01*
X188008034Y-92003523D01*
X188031477Y-92026966D01*
X188136687Y-92107697D01*
X188165400Y-92124274D01*
X188185738Y-92132698D01*
X188158188Y-92223518D01*
X188145928Y-92348000D01*
X188149000Y-92574750D01*
X188307750Y-92733500D01*
X189357000Y-92733500D01*
X189357000Y-92713500D01*
X189611000Y-92713500D01*
X189611000Y-92733500D01*
X190660250Y-92733500D01*
X190819000Y-92574750D01*
X190822072Y-92348000D01*
X190809812Y-92223518D01*
X190803285Y-92202000D01*
X190806193Y-92202000D01*
X190822159Y-92200992D01*
X190948870Y-92184935D01*
X190979791Y-92176971D01*
X191098493Y-92129816D01*
X191126451Y-92114390D01*
X191229638Y-92039118D01*
X191241943Y-92028895D01*
X192281950Y-91047756D01*
X192293650Y-91035112D01*
X192379978Y-90928088D01*
X192397741Y-90898657D01*
X192452204Y-90772402D01*
X192461423Y-90739286D01*
X192480032Y-90603049D01*
X192481200Y-90585861D01*
X192481200Y-89577033D01*
X192582753Y-89453291D01*
X192665303Y-89298851D01*
X192687280Y-89226401D01*
X192716136Y-89131276D01*
X192722641Y-89065226D01*
X192723371Y-89057818D01*
X192763875Y-89041040D01*
X192870521Y-89027000D01*
X193031679Y-89027000D01*
X193138325Y-89041040D01*
X193229951Y-89078993D01*
X193308632Y-89139368D01*
X193369007Y-89218049D01*
X193406960Y-89309675D01*
X193421000Y-89416321D01*
X193421000Y-94733679D01*
X193406960Y-94840325D01*
X193369007Y-94931951D01*
X193308632Y-95010632D01*
X193229951Y-95071007D01*
X193138325Y-95108960D01*
X193031679Y-95123000D01*
X188476321Y-95123000D01*
X188369675Y-95108960D01*
X188278049Y-95071007D01*
X188199368Y-95010632D01*
X188138993Y-94931951D01*
X188101040Y-94840325D01*
X188087000Y-94733679D01*
X188087000Y-94190420D01*
X188085913Y-94173843D01*
X188068603Y-94042363D01*
X188060023Y-94010340D01*
X188009274Y-93887820D01*
X187992697Y-93859107D01*
X187911966Y-93753897D01*
X187901013Y-93741407D01*
X187532606Y-93373000D01*
X188145928Y-93373000D01*
X188158188Y-93497482D01*
X188194498Y-93617180D01*
X188253463Y-93727494D01*
X188332815Y-93824185D01*
X188429506Y-93903537D01*
X188539820Y-93962502D01*
X188659518Y-93998812D01*
X188784000Y-94011072D01*
X189198250Y-94008000D01*
X189357000Y-93849250D01*
X189357000Y-92987500D01*
X189611000Y-92987500D01*
X189611000Y-93849250D01*
X189769750Y-94008000D01*
X190184000Y-94011072D01*
X190308482Y-93998812D01*
X190428180Y-93962502D01*
X190538494Y-93903537D01*
X190635185Y-93824185D01*
X190714537Y-93727494D01*
X190773502Y-93617180D01*
X190809812Y-93497482D01*
X190822072Y-93373000D01*
X190819000Y-93146250D01*
X190660250Y-92987500D01*
X189611000Y-92987500D01*
X189357000Y-92987500D01*
X188307750Y-92987500D01*
X188149000Y-93146250D01*
X188145928Y-93373000D01*
X187532606Y-93373000D01*
X186934477Y-92774871D01*
X186868993Y-92689531D01*
X186831040Y-92597905D01*
X186817000Y-92491259D01*
X186817000Y-91523420D01*
X186815913Y-91506843D01*
X186798603Y-91375363D01*
X186790023Y-91343340D01*
X186739274Y-91220820D01*
X186722697Y-91192107D01*
X186641966Y-91086897D01*
X186631013Y-91074407D01*
X186293593Y-90736987D01*
X186281103Y-90726034D01*
X186175893Y-90645303D01*
X186147180Y-90628726D01*
X186024660Y-90577977D01*
X185992637Y-90569397D01*
X185861157Y-90552087D01*
X185844580Y-90551000D01*
X185719350Y-90551000D01*
X185734537Y-90532494D01*
X185793502Y-90422180D01*
X185829812Y-90302482D01*
X185842072Y-90178000D01*
X185839000Y-89163750D01*
X185680250Y-89005000D01*
X184531000Y-89005000D01*
X184531000Y-89025000D01*
X184277000Y-89025000D01*
X184277000Y-89005000D01*
X183127750Y-89005000D01*
X182969000Y-89163750D01*
X182965928Y-90178000D01*
X182978188Y-90302482D01*
X183014498Y-90422180D01*
X183073463Y-90532494D01*
X183088650Y-90551000D01*
X181866371Y-90551000D01*
X181908502Y-90472180D01*
X181944812Y-90352482D01*
X181957072Y-90228000D01*
X181954000Y-90013750D01*
X181795250Y-89855000D01*
X180721000Y-89855000D01*
X180721000Y-89875000D01*
X180467000Y-89875000D01*
X180467000Y-89855000D01*
X179392750Y-89855000D01*
X179324000Y-89923750D01*
X179255250Y-89855000D01*
X178181000Y-89855000D01*
X178181000Y-89875000D01*
X177927000Y-89875000D01*
X177927000Y-89855000D01*
X176852750Y-89855000D01*
X176694000Y-90013750D01*
X176690928Y-90228000D01*
X176703188Y-90352482D01*
X176739498Y-90472180D01*
X176798463Y-90582494D01*
X176877815Y-90679185D01*
X176957594Y-90744658D01*
X176951038Y-90750038D01*
X176840595Y-90884614D01*
X176758528Y-91038150D01*
X176707992Y-91204746D01*
X176690928Y-91378000D01*
X176690928Y-91878000D01*
X176707992Y-92051254D01*
X176758528Y-92217850D01*
X176840595Y-92371386D01*
X176923430Y-92472322D01*
X176846951Y-92531007D01*
X176755325Y-92568960D01*
X176648679Y-92583000D01*
X69560741Y-92583000D01*
X69454095Y-92568960D01*
X69362469Y-92531007D01*
X69277129Y-92465523D01*
X66039606Y-89228000D01*
X176690928Y-89228000D01*
X176694000Y-89442250D01*
X176852750Y-89601000D01*
X177927000Y-89601000D01*
X177927000Y-88751750D01*
X178181000Y-88751750D01*
X178181000Y-89601000D01*
X179255250Y-89601000D01*
X179324000Y-89532250D01*
X179392750Y-89601000D01*
X180467000Y-89601000D01*
X180467000Y-88751750D01*
X180721000Y-88751750D01*
X180721000Y-89601000D01*
X181795250Y-89601000D01*
X181954000Y-89442250D01*
X181957072Y-89228000D01*
X181944812Y-89103518D01*
X181908502Y-88983820D01*
X181849537Y-88873506D01*
X181770185Y-88776815D01*
X181673494Y-88697463D01*
X181563180Y-88638498D01*
X181443482Y-88602188D01*
X181319000Y-88589928D01*
X180879750Y-88593000D01*
X180721000Y-88751750D01*
X180467000Y-88751750D01*
X180308250Y-88593000D01*
X179869000Y-88589928D01*
X179744518Y-88602188D01*
X179624820Y-88638498D01*
X179514506Y-88697463D01*
X179417815Y-88776815D01*
X179338463Y-88873506D01*
X179324000Y-88900564D01*
X179309537Y-88873506D01*
X179230185Y-88776815D01*
X179133494Y-88697463D01*
X179023180Y-88638498D01*
X178903482Y-88602188D01*
X178779000Y-88589928D01*
X178339750Y-88593000D01*
X178181000Y-88751750D01*
X177927000Y-88751750D01*
X177768250Y-88593000D01*
X177329000Y-88589928D01*
X177204518Y-88602188D01*
X177084820Y-88638498D01*
X176974506Y-88697463D01*
X176877815Y-88776815D01*
X176798463Y-88873506D01*
X176739498Y-88983820D01*
X176703188Y-89103518D01*
X176690928Y-89228000D01*
X66039606Y-89228000D01*
X63230593Y-86418987D01*
X63218103Y-86408034D01*
X63112893Y-86327303D01*
X63084180Y-86310726D01*
X62961660Y-86259977D01*
X62929637Y-86251397D01*
X62798157Y-86234087D01*
X62781580Y-86233000D01*
X59340192Y-86233000D01*
X59433482Y-86223812D01*
X59553180Y-86187502D01*
X59663494Y-86128537D01*
X59760185Y-86049185D01*
X59839537Y-85952494D01*
X59898502Y-85842180D01*
X59934812Y-85722482D01*
X59947072Y-85598000D01*
X59944000Y-85375750D01*
X59785250Y-85217000D01*
X58166000Y-85217000D01*
X58166000Y-85237000D01*
X57912000Y-85237000D01*
X57912000Y-85217000D01*
X54864000Y-85217000D01*
X54864000Y-85237000D01*
X54610000Y-85237000D01*
X54610000Y-85217000D01*
X52990750Y-85217000D01*
X52832000Y-85375750D01*
X52828928Y-85598000D01*
X52841188Y-85722482D01*
X52877498Y-85842180D01*
X52936463Y-85952494D01*
X53015815Y-86049185D01*
X53112506Y-86128537D01*
X53222820Y-86187502D01*
X53342518Y-86223812D01*
X53467000Y-86236072D01*
X53520023Y-86235907D01*
X53402363Y-86251397D01*
X53370340Y-86259977D01*
X53247820Y-86310726D01*
X53219107Y-86327303D01*
X53113897Y-86408034D01*
X53101407Y-86418987D01*
X52128987Y-87391407D01*
X52118034Y-87403897D01*
X52037303Y-87509107D01*
X52020726Y-87537820D01*
X51969977Y-87660340D01*
X51961397Y-87692363D01*
X51944087Y-87823843D01*
X51943000Y-87840420D01*
X51943000Y-88354574D01*
X51939314Y-88392000D01*
X51943000Y-88429423D01*
X51943000Y-93761259D01*
X51928960Y-93867905D01*
X51891007Y-93959531D01*
X51825523Y-94044871D01*
X50864871Y-95005523D01*
X50779531Y-95071007D01*
X50687905Y-95108960D01*
X50581259Y-95123000D01*
X32214420Y-95123000D01*
X32197843Y-95124087D01*
X32066363Y-95141397D01*
X32034340Y-95149977D01*
X31911820Y-95200726D01*
X31883107Y-95217303D01*
X31777897Y-95298034D01*
X31765407Y-95308987D01*
X29528871Y-97545523D01*
X29443531Y-97611007D01*
X29351905Y-97648960D01*
X29245259Y-97663000D01*
X19260420Y-97663000D01*
X19243843Y-97664087D01*
X19112363Y-97681397D01*
X19080340Y-97689977D01*
X18957820Y-97740726D01*
X18929107Y-97757303D01*
X18823897Y-97838034D01*
X18811407Y-97848987D01*
X18473987Y-98186407D01*
X18463034Y-98198897D01*
X18382303Y-98304107D01*
X18365726Y-98332820D01*
X18314977Y-98455340D01*
X18306397Y-98487363D01*
X18289087Y-98618843D01*
X18288000Y-98635420D01*
X18288000Y-104564580D01*
X18289087Y-104581157D01*
X18306397Y-104712637D01*
X18314977Y-104744660D01*
X18365726Y-104867180D01*
X18382303Y-104895893D01*
X18463034Y-105001103D01*
X18473987Y-105013593D01*
X18811407Y-105351013D01*
X18823897Y-105361966D01*
X18929107Y-105442697D01*
X18957820Y-105459274D01*
X19080340Y-105510023D01*
X19112363Y-105518603D01*
X19243843Y-105535913D01*
X19260420Y-105537000D01*
X29626259Y-105537000D01*
X29732905Y-105551040D01*
X29824531Y-105588993D01*
X29909871Y-105654477D01*
X30241407Y-105986013D01*
X30253897Y-105996966D01*
X30359107Y-106077697D01*
X30387820Y-106094274D01*
X30510340Y-106145023D01*
X30542363Y-106153603D01*
X30673843Y-106170913D01*
X30690420Y-106172000D01*
X249673679Y-106172000D01*
X249780325Y-106186040D01*
X249871951Y-106223993D01*
X249950632Y-106284368D01*
X250011007Y-106363049D01*
X250048960Y-106454675D01*
X250063000Y-106561321D01*
X250063000Y-107096259D01*
X250048960Y-107202905D01*
X250011007Y-107294531D01*
X249945523Y-107379871D01*
X248349871Y-108975523D01*
X248264531Y-109041007D01*
X248172905Y-109078960D01*
X248066259Y-109093000D01*
X143383000Y-109093000D01*
X143366423Y-109094087D01*
X143234943Y-109111397D01*
X143202920Y-109119977D01*
X143080400Y-109170726D01*
X143051687Y-109187303D01*
X142946477Y-109268034D01*
X142923034Y-109291477D01*
X142842303Y-109396687D01*
X142825726Y-109425400D01*
X142774977Y-109547920D01*
X142766397Y-109579943D01*
X142749087Y-109711423D01*
X142748000Y-109728000D01*
X142748000Y-116496000D01*
X142686998Y-116496000D01*
X142686998Y-116654748D01*
X142528250Y-116496000D01*
X142314000Y-116492928D01*
X142189518Y-116505188D01*
X142069820Y-116541498D01*
X141959506Y-116600463D01*
X141862815Y-116679815D01*
X141783463Y-116776506D01*
X141724498Y-116886820D01*
X141688188Y-117006518D01*
X141675928Y-117131000D01*
X141679000Y-117570250D01*
X141837750Y-117729000D01*
X142687000Y-117729000D01*
X142687000Y-117709000D01*
X142748000Y-117709000D01*
X142748000Y-118003000D01*
X142687000Y-118003000D01*
X142687000Y-117983000D01*
X141837750Y-117983000D01*
X141679000Y-118141750D01*
X141675928Y-118581000D01*
X141688188Y-118705482D01*
X141724498Y-118825180D01*
X141783463Y-118935494D01*
X141862815Y-119032185D01*
X141959506Y-119111537D01*
X142069820Y-119170502D01*
X142189518Y-119206812D01*
X142314000Y-119219072D01*
X142528250Y-119216000D01*
X142686998Y-119057252D01*
X142686998Y-119216000D01*
X142748000Y-119216000D01*
X142748000Y-119752679D01*
X142733960Y-119859325D01*
X142696007Y-119950951D01*
X142635632Y-120029632D01*
X142556951Y-120090007D01*
X142465325Y-120127960D01*
X142358679Y-120142000D01*
X138311321Y-120142000D01*
X138204675Y-120127960D01*
X138113049Y-120090007D01*
X138034368Y-120029632D01*
X137973993Y-119950951D01*
X137936040Y-119859325D01*
X137922000Y-119752679D01*
X137922000Y-109728000D01*
X137920913Y-109711423D01*
X137903603Y-109579943D01*
X137895023Y-109547920D01*
X137844274Y-109425400D01*
X137827697Y-109396687D01*
X137746966Y-109291477D01*
X137723523Y-109268034D01*
X137618313Y-109187303D01*
X137589600Y-109170726D01*
X137467080Y-109119977D01*
X137435057Y-109111397D01*
X137303577Y-109094087D01*
X137287000Y-109093000D01*
X29428741Y-109093000D01*
X29322095Y-109078960D01*
X29230469Y-109041007D01*
X29145129Y-108975523D01*
X28701606Y-108532000D01*
X41308928Y-108532000D01*
X41312000Y-108746250D01*
X41470750Y-108905000D01*
X42545000Y-108905000D01*
X42545000Y-108055750D01*
X42799000Y-108055750D01*
X42799000Y-108905000D01*
X43873250Y-108905000D01*
X44032000Y-108746250D01*
X44035072Y-108532000D01*
X79916928Y-108532000D01*
X79920000Y-108746250D01*
X80078750Y-108905000D01*
X81153000Y-108905000D01*
X81153000Y-108055750D01*
X81407000Y-108055750D01*
X81407000Y-108905000D01*
X82481250Y-108905000D01*
X82640000Y-108746250D01*
X82643072Y-108532000D01*
X117508928Y-108532000D01*
X117512000Y-108746250D01*
X117670750Y-108905000D01*
X118745000Y-108905000D01*
X118745000Y-108055750D01*
X118999000Y-108055750D01*
X118999000Y-108905000D01*
X120073250Y-108905000D01*
X120232000Y-108746250D01*
X120235072Y-108532000D01*
X155608928Y-108532000D01*
X155612000Y-108746250D01*
X155770750Y-108905000D01*
X156845000Y-108905000D01*
X156845000Y-108055750D01*
X157099000Y-108055750D01*
X157099000Y-108905000D01*
X158173250Y-108905000D01*
X158332000Y-108746250D01*
X158335072Y-108532000D01*
X193962928Y-108532000D01*
X193966000Y-108746250D01*
X194124750Y-108905000D01*
X195199000Y-108905000D01*
X195199000Y-108055750D01*
X195453000Y-108055750D01*
X195453000Y-108905000D01*
X196527250Y-108905000D01*
X196686000Y-108746250D01*
X196689072Y-108532000D01*
X231808928Y-108532000D01*
X231812000Y-108746250D01*
X231970750Y-108905000D01*
X233045000Y-108905000D01*
X233045000Y-108055750D01*
X233299000Y-108055750D01*
X233299000Y-108905000D01*
X234373250Y-108905000D01*
X234532000Y-108746250D01*
X234535072Y-108532000D01*
X234522812Y-108407518D01*
X234486502Y-108287820D01*
X234427537Y-108177506D01*
X234348185Y-108080815D01*
X234251494Y-108001463D01*
X234141180Y-107942498D01*
X234021482Y-107906188D01*
X233897000Y-107893928D01*
X233457750Y-107897000D01*
X233299000Y-108055750D01*
X233045000Y-108055750D01*
X232886250Y-107897000D01*
X232447000Y-107893928D01*
X232322518Y-107906188D01*
X232202820Y-107942498D01*
X232092506Y-108001463D01*
X231995815Y-108080815D01*
X231916463Y-108177506D01*
X231857498Y-108287820D01*
X231821188Y-108407518D01*
X231808928Y-108532000D01*
X196689072Y-108532000D01*
X196676812Y-108407518D01*
X196640502Y-108287820D01*
X196581537Y-108177506D01*
X196502185Y-108080815D01*
X196405494Y-108001463D01*
X196295180Y-107942498D01*
X196175482Y-107906188D01*
X196051000Y-107893928D01*
X195611750Y-107897000D01*
X195453000Y-108055750D01*
X195199000Y-108055750D01*
X195040250Y-107897000D01*
X194601000Y-107893928D01*
X194476518Y-107906188D01*
X194356820Y-107942498D01*
X194246506Y-108001463D01*
X194149815Y-108080815D01*
X194070463Y-108177506D01*
X194011498Y-108287820D01*
X193975188Y-108407518D01*
X193962928Y-108532000D01*
X158335072Y-108532000D01*
X158322812Y-108407518D01*
X158286502Y-108287820D01*
X158227537Y-108177506D01*
X158148185Y-108080815D01*
X158051494Y-108001463D01*
X157941180Y-107942498D01*
X157821482Y-107906188D01*
X157697000Y-107893928D01*
X157257750Y-107897000D01*
X157099000Y-108055750D01*
X156845000Y-108055750D01*
X156686250Y-107897000D01*
X156247000Y-107893928D01*
X156122518Y-107906188D01*
X156002820Y-107942498D01*
X155892506Y-108001463D01*
X155795815Y-108080815D01*
X155716463Y-108177506D01*
X155657498Y-108287820D01*
X155621188Y-108407518D01*
X155608928Y-108532000D01*
X120235072Y-108532000D01*
X120222812Y-108407518D01*
X120186502Y-108287820D01*
X120127537Y-108177506D01*
X120048185Y-108080815D01*
X119951494Y-108001463D01*
X119841180Y-107942498D01*
X119721482Y-107906188D01*
X119597000Y-107893928D01*
X119157750Y-107897000D01*
X118999000Y-108055750D01*
X118745000Y-108055750D01*
X118586250Y-107897000D01*
X118147000Y-107893928D01*
X118022518Y-107906188D01*
X117902820Y-107942498D01*
X117792506Y-108001463D01*
X117695815Y-108080815D01*
X117616463Y-108177506D01*
X117557498Y-108287820D01*
X117521188Y-108407518D01*
X117508928Y-108532000D01*
X82643072Y-108532000D01*
X82630812Y-108407518D01*
X82594502Y-108287820D01*
X82535537Y-108177506D01*
X82456185Y-108080815D01*
X82359494Y-108001463D01*
X82249180Y-107942498D01*
X82129482Y-107906188D01*
X82005000Y-107893928D01*
X81565750Y-107897000D01*
X81407000Y-108055750D01*
X81153000Y-108055750D01*
X80994250Y-107897000D01*
X80555000Y-107893928D01*
X80430518Y-107906188D01*
X80310820Y-107942498D01*
X80200506Y-108001463D01*
X80103815Y-108080815D01*
X80024463Y-108177506D01*
X79965498Y-108287820D01*
X79929188Y-108407518D01*
X79916928Y-108532000D01*
X44035072Y-108532000D01*
X44022812Y-108407518D01*
X43986502Y-108287820D01*
X43927537Y-108177506D01*
X43848185Y-108080815D01*
X43751494Y-108001463D01*
X43641180Y-107942498D01*
X43521482Y-107906188D01*
X43397000Y-107893928D01*
X42957750Y-107897000D01*
X42799000Y-108055750D01*
X42545000Y-108055750D01*
X42386250Y-107897000D01*
X41947000Y-107893928D01*
X41822518Y-107906188D01*
X41702820Y-107942498D01*
X41592506Y-108001463D01*
X41495815Y-108080815D01*
X41416463Y-108177506D01*
X41357498Y-108287820D01*
X41321188Y-108407518D01*
X41308928Y-108532000D01*
X28701606Y-108532000D01*
X27543593Y-107373987D01*
X27531103Y-107363034D01*
X27425893Y-107282303D01*
X27397180Y-107265726D01*
X27274660Y-107214977D01*
X27242637Y-107206397D01*
X27111157Y-107189087D01*
X27094580Y-107188000D01*
X18633741Y-107188000D01*
X18527095Y-107173960D01*
X18435469Y-107136007D01*
X18350129Y-107070523D01*
X16119477Y-104839871D01*
X16053993Y-104754531D01*
X16016040Y-104662905D01*
X16002000Y-104556259D01*
X16002000Y-98643741D01*
X16016040Y-98537095D01*
X16053993Y-98445469D01*
X16119477Y-98360129D01*
X18350129Y-96129477D01*
X18435469Y-96063993D01*
X18527095Y-96026040D01*
X18633741Y-96012000D01*
X27094580Y-96012000D01*
X27111157Y-96010913D01*
X27242637Y-95993603D01*
X27274660Y-95985023D01*
X27397180Y-95934274D01*
X27425893Y-95917697D01*
X27531103Y-95836966D01*
X27543593Y-95826013D01*
X29780129Y-93589477D01*
X29865469Y-93523993D01*
X29957095Y-93486040D01*
X30063741Y-93472000D01*
X39159580Y-93472000D01*
X39176157Y-93470913D01*
X39307637Y-93453603D01*
X39339660Y-93445023D01*
X39462180Y-93394274D01*
X39490893Y-93377697D01*
X39596103Y-93296966D01*
X39608593Y-93286013D01*
X48312606Y-84582000D01*
X52828928Y-84582000D01*
X52832000Y-84804250D01*
X52990750Y-84963000D01*
X54610000Y-84963000D01*
X54610000Y-84105750D01*
X54864000Y-84105750D01*
X54864000Y-84963000D01*
X57912000Y-84963000D01*
X57912000Y-84105750D01*
X58166000Y-84105750D01*
X58166000Y-84963000D01*
X59785250Y-84963000D01*
X59944000Y-84804250D01*
X59947072Y-84582000D01*
X59934812Y-84457518D01*
X59898502Y-84337820D01*
X59839537Y-84227506D01*
X59760185Y-84130815D01*
X59663494Y-84051463D01*
X59553180Y-83992498D01*
X59433482Y-83956188D01*
X59309000Y-83943928D01*
X58324750Y-83947000D01*
X58166000Y-84105750D01*
X57912000Y-84105750D01*
X57753250Y-83947000D01*
X56769000Y-83943928D01*
X56644518Y-83956188D01*
X56524820Y-83992498D01*
X56414506Y-84051463D01*
X56388000Y-84073216D01*
X56361494Y-84051463D01*
X56251180Y-83992498D01*
X56131482Y-83956188D01*
X56007000Y-83943928D01*
X55022750Y-83947000D01*
X54864000Y-84105750D01*
X54610000Y-84105750D01*
X54451250Y-83947000D01*
X53467000Y-83943928D01*
X53342518Y-83956188D01*
X53222820Y-83992498D01*
X53112506Y-84051463D01*
X53015815Y-84130815D01*
X52936463Y-84227506D01*
X52877498Y-84337820D01*
X52841188Y-84457518D01*
X52828928Y-84582000D01*
X48312606Y-84582000D01*
X51760606Y-81134000D01*
X103563928Y-81134000D01*
X103576188Y-81258482D01*
X103612498Y-81378180D01*
X103671463Y-81488494D01*
X103750815Y-81585185D01*
X103780276Y-81609363D01*
X103713595Y-81690613D01*
X103631528Y-81844148D01*
X103580992Y-82010744D01*
X103563928Y-82183998D01*
X103563928Y-82709002D01*
X103580992Y-82882256D01*
X103631528Y-83048852D01*
X103713595Y-83202387D01*
X103824038Y-83336962D01*
X103958613Y-83447405D01*
X104112148Y-83529472D01*
X104278744Y-83580008D01*
X104451998Y-83597072D01*
X105352002Y-83597072D01*
X105525256Y-83580008D01*
X105691852Y-83529472D01*
X105845387Y-83447405D01*
X105979962Y-83336962D01*
X106043334Y-83259743D01*
X106108208Y-83338792D01*
X106241836Y-83448458D01*
X106394291Y-83529947D01*
X106559715Y-83580128D01*
X106731750Y-83597072D01*
X107644250Y-83597072D01*
X107816285Y-83580128D01*
X107981709Y-83529947D01*
X108134164Y-83448458D01*
X108238462Y-83362863D01*
X108297815Y-83435185D01*
X108394506Y-83514537D01*
X108490785Y-83566000D01*
X108394506Y-83617463D01*
X108297815Y-83696815D01*
X108218463Y-83793506D01*
X108159498Y-83903820D01*
X108123188Y-84023518D01*
X108110928Y-84148000D01*
X108114000Y-84362250D01*
X108272750Y-84521000D01*
X109347000Y-84521000D01*
X109347000Y-83671750D01*
X109241250Y-83566000D01*
X109347000Y-83460250D01*
X109347000Y-82611000D01*
X109327000Y-82611000D01*
X109327000Y-82357000D01*
X109347000Y-82357000D01*
X109347000Y-82337000D01*
X109601000Y-82337000D01*
X109601000Y-82357000D01*
X109621000Y-82357000D01*
X109621000Y-82611000D01*
X109601000Y-82611000D01*
X109601000Y-83460250D01*
X109706750Y-83566000D01*
X109601000Y-83671750D01*
X109601000Y-84521000D01*
X109621000Y-84521000D01*
X109621000Y-84775000D01*
X109601000Y-84775000D01*
X109601000Y-84795000D01*
X109347000Y-84795000D01*
X109347000Y-84775000D01*
X108272750Y-84775000D01*
X108114000Y-84933750D01*
X108110928Y-85148000D01*
X108123188Y-85272482D01*
X108159498Y-85392180D01*
X108218463Y-85502494D01*
X108229137Y-85515500D01*
X108051261Y-85515500D01*
X107851302Y-85555274D01*
X107662944Y-85633295D01*
X107493426Y-85746563D01*
X107349263Y-85890726D01*
X107235995Y-86060244D01*
X107157974Y-86248602D01*
X107118200Y-86448561D01*
X107118200Y-86652439D01*
X107157974Y-86852398D01*
X107235995Y-87040756D01*
X107349263Y-87210274D01*
X107493426Y-87354437D01*
X107662944Y-87467705D01*
X107851302Y-87545726D01*
X108051261Y-87585500D01*
X108255139Y-87585500D01*
X108455098Y-87545726D01*
X108496218Y-87528694D01*
X108505614Y-87536405D01*
X108659150Y-87618472D01*
X108825746Y-87669008D01*
X108999000Y-87686072D01*
X109949000Y-87686072D01*
X110122254Y-87669008D01*
X110288850Y-87618472D01*
X110442386Y-87536405D01*
X110456042Y-87525198D01*
X110505602Y-87545726D01*
X110705561Y-87585500D01*
X110909439Y-87585500D01*
X111109398Y-87545726D01*
X111297756Y-87467705D01*
X111467274Y-87354437D01*
X111611437Y-87210274D01*
X111724705Y-87040756D01*
X111802726Y-86852398D01*
X111842500Y-86652439D01*
X111842500Y-86448561D01*
X111802726Y-86248602D01*
X111741833Y-86101595D01*
X111880250Y-86101000D01*
X112039000Y-85942250D01*
X112039000Y-83693000D01*
X112293000Y-83693000D01*
X112293000Y-85942250D01*
X112451750Y-86101000D01*
X113166000Y-86104072D01*
X113290482Y-86091812D01*
X113410180Y-86055502D01*
X113520494Y-85996537D01*
X113617185Y-85917185D01*
X113696537Y-85820494D01*
X113755502Y-85710180D01*
X113791812Y-85590482D01*
X113804072Y-85466000D01*
X113801000Y-83851750D01*
X113642250Y-83693000D01*
X112293000Y-83693000D01*
X112039000Y-83693000D01*
X110689750Y-83693000D01*
X110666299Y-83716451D01*
X110650185Y-83696815D01*
X110553494Y-83617463D01*
X110457215Y-83566000D01*
X110553494Y-83514537D01*
X110650185Y-83435185D01*
X110666299Y-83415549D01*
X110689750Y-83439000D01*
X112039000Y-83439000D01*
X112039000Y-81189750D01*
X112293000Y-81189750D01*
X112293000Y-83439000D01*
X113642250Y-83439000D01*
X113801000Y-83280250D01*
X113804072Y-81666000D01*
X113791812Y-81541518D01*
X113755502Y-81421820D01*
X113696537Y-81311506D01*
X113617185Y-81214815D01*
X113520494Y-81135463D01*
X113410180Y-81076498D01*
X113290482Y-81040188D01*
X113166000Y-81027928D01*
X112451750Y-81031000D01*
X112293000Y-81189750D01*
X112039000Y-81189750D01*
X111880250Y-81031000D01*
X111166000Y-81027928D01*
X111041518Y-81040188D01*
X110921820Y-81076498D01*
X110811506Y-81135463D01*
X110771043Y-81168670D01*
X110820008Y-81007254D01*
X110837072Y-80834000D01*
X110837072Y-80334000D01*
X110820008Y-80160746D01*
X110769472Y-79994150D01*
X110687405Y-79840614D01*
X110576962Y-79706038D01*
X110501079Y-79643763D01*
X110509000Y-79603939D01*
X110509000Y-79400061D01*
X110469226Y-79200102D01*
X110391205Y-79011744D01*
X110277937Y-78842226D01*
X110133774Y-78698063D01*
X109964256Y-78584795D01*
X109775898Y-78506774D01*
X109575939Y-78467000D01*
X109372061Y-78467000D01*
X109172102Y-78506774D01*
X109068953Y-78549500D01*
X107593047Y-78549500D01*
X107489898Y-78506774D01*
X107289939Y-78467000D01*
X107086061Y-78467000D01*
X106886102Y-78506774D01*
X106697744Y-78584795D01*
X106528226Y-78698063D01*
X106384063Y-78842226D01*
X106270795Y-79011744D01*
X106192774Y-79200102D01*
X106153000Y-79400061D01*
X106153000Y-79603939D01*
X106168135Y-79680027D01*
X106110340Y-79727459D01*
X106053185Y-79657815D01*
X105956494Y-79578463D01*
X105846180Y-79519498D01*
X105726482Y-79483188D01*
X105602000Y-79470928D01*
X105187750Y-79474000D01*
X105029000Y-79632750D01*
X105029000Y-80494500D01*
X105049000Y-80494500D01*
X105049000Y-80748500D01*
X105029000Y-80748500D01*
X105029000Y-80768500D01*
X104775000Y-80768500D01*
X104775000Y-80748500D01*
X103725750Y-80748500D01*
X103567000Y-80907250D01*
X103563928Y-81134000D01*
X51760606Y-81134000D01*
X52785606Y-80109000D01*
X103563928Y-80109000D01*
X103567000Y-80335750D01*
X103725750Y-80494500D01*
X104775000Y-80494500D01*
X104775000Y-79632750D01*
X104616250Y-79474000D01*
X104202000Y-79470928D01*
X104077518Y-79483188D01*
X103957820Y-79519498D01*
X103847506Y-79578463D01*
X103750815Y-79657815D01*
X103671463Y-79754506D01*
X103612498Y-79864820D01*
X103576188Y-79984518D01*
X103563928Y-80109000D01*
X52785606Y-80109000D01*
X58355129Y-74539477D01*
X58440469Y-74473993D01*
X58532095Y-74436040D01*
X58638741Y-74422000D01*
X91865937Y-74422000D01*
X91882418Y-74420926D01*
X92013151Y-74403816D01*
X92045003Y-74395333D01*
X92166930Y-74345155D01*
X92195526Y-74328761D01*
X92300432Y-74248896D01*
X92312895Y-74238059D01*
X105980014Y-60695186D01*
X106065107Y-60630405D01*
X106156291Y-60592879D01*
X106262338Y-60579000D01*
X117720679Y-60579000D01*
X117827325Y-60593040D01*
%TA.AperFunction,Conductor*%
D36*
G36*
X117827325Y-60593040D02*
G01*
X117918951Y-60630993D01*
X117997632Y-60691368D01*
X118058007Y-60770049D01*
X118095960Y-60861675D01*
X118110000Y-60968321D01*
X118110000Y-69088000D01*
X118111087Y-69104577D01*
X118128397Y-69236057D01*
X118136977Y-69268080D01*
X118187726Y-69390600D01*
X118204303Y-69419313D01*
X118285034Y-69524523D01*
X118308477Y-69547966D01*
X118413687Y-69628697D01*
X118442400Y-69645274D01*
X118564920Y-69696023D01*
X118596943Y-69704603D01*
X118728423Y-69721913D01*
X118745000Y-69723000D01*
X132833679Y-69723000D01*
X132940325Y-69737040D01*
X133031951Y-69774993D01*
X133110632Y-69835368D01*
X133171007Y-69914049D01*
X133208960Y-70005675D01*
X133223000Y-70112321D01*
X133223000Y-78858679D01*
X133208960Y-78965325D01*
X133171007Y-79056951D01*
X133110632Y-79135632D01*
X133031951Y-79196007D01*
X132940325Y-79233960D01*
X132833679Y-79248000D01*
X122428000Y-79248000D01*
X122411423Y-79249087D01*
X122279943Y-79266397D01*
X122247920Y-79274977D01*
X122125400Y-79325726D01*
X122096687Y-79342303D01*
X121991477Y-79423034D01*
X121968034Y-79446477D01*
X121887303Y-79551687D01*
X121870726Y-79580400D01*
X121819977Y-79702920D01*
X121811397Y-79734943D01*
X121794087Y-79866423D01*
X121793000Y-79883000D01*
X121793000Y-80313500D01*
X120068145Y-80313500D01*
X120055502Y-80271820D01*
X119996537Y-80161506D01*
X119917185Y-80064815D01*
X119820494Y-79985463D01*
X119710180Y-79926498D01*
X119590482Y-79890188D01*
X119466000Y-79877928D01*
X117466000Y-79877928D01*
X117341518Y-79890188D01*
X117221820Y-79926498D01*
X117111506Y-79985463D01*
X117014815Y-80064815D01*
X116935463Y-80161506D01*
X116876498Y-80271820D01*
X116840188Y-80391518D01*
X116827928Y-80516000D01*
X116827928Y-82016000D01*
X116840188Y-82140482D01*
X116876498Y-82260180D01*
X116935463Y-82370494D01*
X116972809Y-82416000D01*
X116935463Y-82461506D01*
X116876498Y-82571820D01*
X116840188Y-82691518D01*
X116827928Y-82816000D01*
X116831000Y-83280250D01*
X116989750Y-83439000D01*
X118339000Y-83439000D01*
X118339000Y-83419000D01*
X118593000Y-83419000D01*
X118593000Y-83439000D01*
X119942250Y-83439000D01*
X120101000Y-83280250D01*
X120104072Y-82816000D01*
X120091812Y-82691518D01*
X120055502Y-82571820D01*
X119996537Y-82461506D01*
X119959191Y-82416000D01*
X119996537Y-82370494D01*
X120055502Y-82260180D01*
X120068145Y-82218500D01*
X121663862Y-82218500D01*
X121793000Y-82347638D01*
X121793000Y-84784362D01*
X121663862Y-84913500D01*
X120611847Y-84913500D01*
X120508698Y-84870774D01*
X120308739Y-84831000D01*
X120104861Y-84831000D01*
X120040523Y-84843797D01*
X119996537Y-84761506D01*
X119959191Y-84716000D01*
X119996537Y-84670494D01*
X120055502Y-84560180D01*
X120091812Y-84440482D01*
X120104072Y-84316000D01*
X120101000Y-83851750D01*
X119942250Y-83693000D01*
X118593000Y-83693000D01*
X118593000Y-83713000D01*
X118339000Y-83713000D01*
X118339000Y-83693000D01*
X116989750Y-83693000D01*
X116831000Y-83851750D01*
X116827928Y-84316000D01*
X116840188Y-84440482D01*
X116876498Y-84560180D01*
X116935463Y-84670494D01*
X116972809Y-84716000D01*
X116935463Y-84761506D01*
X116876498Y-84871820D01*
X116840188Y-84991518D01*
X116827928Y-85116000D01*
X116827928Y-86616000D01*
X116840188Y-86740482D01*
X116876498Y-86860180D01*
X116935463Y-86970494D01*
X117014815Y-87067185D01*
X117111506Y-87146537D01*
X117221820Y-87205502D01*
X117341518Y-87241812D01*
X117466000Y-87254072D01*
X119466000Y-87254072D01*
X119590482Y-87241812D01*
X119710180Y-87205502D01*
X119820494Y-87146537D01*
X119917185Y-87067185D01*
X119996537Y-86970494D01*
X120040523Y-86888203D01*
X120104861Y-86901000D01*
X120308739Y-86901000D01*
X120508698Y-86861226D01*
X120611847Y-86818500D01*
X121793000Y-86818500D01*
X121793000Y-87757000D01*
X121794087Y-87773577D01*
X121811397Y-87905057D01*
X121819977Y-87937080D01*
X121870726Y-88059600D01*
X121887303Y-88088313D01*
X121968034Y-88193523D01*
X121991477Y-88216966D01*
X122096687Y-88297697D01*
X122125400Y-88314274D01*
X122247920Y-88365023D01*
X122279943Y-88373603D01*
X122411423Y-88390913D01*
X122428000Y-88392000D01*
X146050000Y-88392000D01*
X146066577Y-88390913D01*
X146198057Y-88373603D01*
X146230080Y-88365023D01*
X146352600Y-88314274D01*
X146381313Y-88297697D01*
X146486523Y-88216966D01*
X146509966Y-88193523D01*
X146590697Y-88088313D01*
X146607274Y-88059600D01*
X146658023Y-87937080D01*
X146666603Y-87905057D01*
X146683913Y-87773577D01*
X146685000Y-87757000D01*
X146685000Y-85352489D01*
X147152250Y-85351000D01*
X147311000Y-85192250D01*
X147311000Y-83693000D01*
X147565000Y-83693000D01*
X147565000Y-85192250D01*
X147723750Y-85351000D01*
X148688000Y-85354072D01*
X148812482Y-85341812D01*
X148932180Y-85305502D01*
X149042494Y-85246537D01*
X149139185Y-85167185D01*
X149218537Y-85070494D01*
X149277502Y-84960180D01*
X149313812Y-84840482D01*
X149326072Y-84716000D01*
X149323000Y-83851750D01*
X149164250Y-83693000D01*
X147565000Y-83693000D01*
X147311000Y-83693000D01*
X147291000Y-83693000D01*
X147291000Y-83439000D01*
X147311000Y-83439000D01*
X147311000Y-81939750D01*
X147565000Y-81939750D01*
X147565000Y-83439000D01*
X149164250Y-83439000D01*
X149323000Y-83280250D01*
X149326072Y-82416000D01*
X149313812Y-82291518D01*
X149277502Y-82171820D01*
X149218537Y-82061506D01*
X149139185Y-81964815D01*
X149042494Y-81885463D01*
X148932180Y-81826498D01*
X148812482Y-81790188D01*
X148688000Y-81777928D01*
X147723750Y-81781000D01*
X147565000Y-81939750D01*
X147311000Y-81939750D01*
X147152250Y-81781000D01*
X146685000Y-81779511D01*
X146685000Y-81117741D01*
X146699040Y-81011095D01*
X146736993Y-80919469D01*
X146802477Y-80834129D01*
X148271129Y-79365477D01*
X148356469Y-79299993D01*
X148448095Y-79262040D01*
X148554741Y-79248000D01*
X156634580Y-79248000D01*
X156651157Y-79246913D01*
X156782637Y-79229603D01*
X156814660Y-79221023D01*
X156937180Y-79170274D01*
X156965893Y-79153697D01*
X157071103Y-79072966D01*
X157083593Y-79062013D01*
X159961013Y-76184593D01*
X159971966Y-76172103D01*
X160052697Y-76066893D01*
X160069274Y-76038180D01*
X160120023Y-75915660D01*
X160128603Y-75883637D01*
X160145913Y-75752157D01*
X160147000Y-75735580D01*
X160147000Y-62702741D01*
X160161040Y-62596095D01*
X160198993Y-62504469D01*
X160264477Y-62419129D01*
X161479129Y-61204477D01*
X161564469Y-61138993D01*
X161656095Y-61101040D01*
X161762741Y-61087000D01*
X182534259Y-61087000D01*
X182640905Y-61101040D01*
X182732531Y-61138993D01*
X182817871Y-61204477D01*
X185556523Y-63943129D01*
X185622007Y-64028469D01*
X185659960Y-64120095D01*
X185674000Y-64226741D01*
X185674000Y-72136000D01*
X185675087Y-72152577D01*
X185692397Y-72284057D01*
X185700977Y-72316080D01*
X185751726Y-72438600D01*
X185768303Y-72467313D01*
X185849034Y-72572523D01*
X185872477Y-72595966D01*
X185977687Y-72676697D01*
X186006400Y-72693274D01*
X186128920Y-72744023D01*
X186160943Y-72752603D01*
X186292423Y-72769913D01*
X186309000Y-72771000D01*
X192575580Y-72771000D01*
X192592157Y-72769913D01*
X192723637Y-72752603D01*
X192755660Y-72744023D01*
X192878180Y-72693274D01*
X192906893Y-72676697D01*
X193012103Y-72595966D01*
X193024593Y-72585013D01*
X195515129Y-70094477D01*
X195600469Y-70028993D01*
X195692095Y-69991040D01*
X195798741Y-69977000D01*
X206791259Y-69977000D01*
X206897905Y-69991040D01*
X206989531Y-70028993D01*
X207074871Y-70094477D01*
X215661407Y-78681013D01*
X215673897Y-78691966D01*
X215779107Y-78772697D01*
X215807820Y-78789274D01*
X215930340Y-78840023D01*
X215962363Y-78848603D01*
X216093843Y-78865913D01*
X216110420Y-78867000D01*
X222031259Y-78867000D01*
X222137905Y-78881040D01*
X222229531Y-78918993D01*
X222314871Y-78984477D01*
X227085523Y-83755129D01*
X227151007Y-83840469D01*
X227188960Y-83932095D01*
X227197195Y-83994644D01*
X227193180Y-83992498D01*
X227073482Y-83956188D01*
X226949000Y-83943928D01*
X225964750Y-83947000D01*
X225806000Y-84105750D01*
X225806000Y-84963000D01*
X225826000Y-84963000D01*
X225826000Y-85217000D01*
X225806000Y-85217000D01*
X225806000Y-86074250D01*
X225964750Y-86233000D01*
X226640286Y-86235108D01*
X226391466Y-86483928D01*
X224409000Y-86483928D01*
X224284518Y-86496188D01*
X224164820Y-86532498D01*
X224054506Y-86591463D01*
X223957815Y-86670815D01*
X223878463Y-86767506D01*
X223824747Y-86868000D01*
X223095420Y-86868000D01*
X223078843Y-86869087D01*
X222947363Y-86886397D01*
X222915340Y-86894977D01*
X222792820Y-86945726D01*
X222764107Y-86962303D01*
X222658897Y-87043034D01*
X222646407Y-87053987D01*
X221673987Y-88026407D01*
X221663034Y-88038897D01*
X221582303Y-88144107D01*
X221565726Y-88172820D01*
X221514977Y-88295340D01*
X221506397Y-88327363D01*
X221489087Y-88458843D01*
X221488000Y-88475420D01*
X221488000Y-93769580D01*
X221489087Y-93786157D01*
X221506397Y-93917637D01*
X221514977Y-93949660D01*
X221565726Y-94072180D01*
X221582303Y-94100893D01*
X221663034Y-94206103D01*
X221673987Y-94218593D01*
X222646407Y-95191013D01*
X222658897Y-95201966D01*
X222764107Y-95282697D01*
X222792820Y-95299274D01*
X222915340Y-95350023D01*
X222947363Y-95358603D01*
X223078843Y-95375913D01*
X223095420Y-95377000D01*
X227448679Y-95377000D01*
X227555325Y-95391040D01*
X227646951Y-95428993D01*
X227725632Y-95489368D01*
X227786007Y-95568049D01*
X227823960Y-95659675D01*
X227838000Y-95766321D01*
X227838000Y-96257679D01*
X227823960Y-96364325D01*
X227786007Y-96455951D01*
X227725632Y-96534632D01*
X227646951Y-96595007D01*
X227555325Y-96632960D01*
X227448679Y-96647000D01*
X211971321Y-96647000D01*
X211864675Y-96632960D01*
X211773049Y-96595007D01*
X211694368Y-96534632D01*
X211633993Y-96455951D01*
X211596040Y-96364325D01*
X211582000Y-96257679D01*
X211582000Y-92307254D01*
X211597624Y-92194873D01*
X211639738Y-92099137D01*
X211712026Y-92011678D01*
X218708764Y-85598000D01*
X223770928Y-85598000D01*
X223783188Y-85722482D01*
X223819498Y-85842180D01*
X223878463Y-85952494D01*
X223957815Y-86049185D01*
X224054506Y-86128537D01*
X224164820Y-86187502D01*
X224284518Y-86223812D01*
X224409000Y-86236072D01*
X225393250Y-86233000D01*
X225552000Y-86074250D01*
X225552000Y-85217000D01*
X223932750Y-85217000D01*
X223774000Y-85375750D01*
X223770928Y-85598000D01*
X218708764Y-85598000D01*
X218996085Y-85334623D01*
X219008159Y-85321914D01*
X219097291Y-85214075D01*
X219115649Y-85184303D01*
X219171984Y-85056241D01*
X219181525Y-85022591D01*
X219200790Y-84884018D01*
X219202000Y-84866530D01*
X219202000Y-84582000D01*
X223770928Y-84582000D01*
X223774000Y-84804250D01*
X223932750Y-84963000D01*
X225552000Y-84963000D01*
X225552000Y-84105750D01*
X225393250Y-83947000D01*
X224409000Y-83943928D01*
X224284518Y-83956188D01*
X224164820Y-83992498D01*
X224054506Y-84051463D01*
X223957815Y-84130815D01*
X223878463Y-84227506D01*
X223819498Y-84337820D01*
X223783188Y-84457518D01*
X223770928Y-84582000D01*
X219202000Y-84582000D01*
X219202000Y-83058000D01*
X219200913Y-83041423D01*
X219183603Y-82909943D01*
X219175023Y-82877920D01*
X219124274Y-82755400D01*
X219107697Y-82726687D01*
X219026966Y-82621477D01*
X219003523Y-82598034D01*
X218898313Y-82517303D01*
X218869600Y-82500726D01*
X218747080Y-82449977D01*
X218715057Y-82441397D01*
X218583577Y-82424087D01*
X218567000Y-82423000D01*
X216118741Y-82423000D01*
X216012095Y-82408960D01*
X215920469Y-82371007D01*
X215835129Y-82305523D01*
X215764606Y-82235000D01*
X215773000Y-82235000D01*
X215773000Y-81385750D01*
X216027000Y-81385750D01*
X216027000Y-82235000D01*
X217101250Y-82235000D01*
X217260000Y-82076250D01*
X217263072Y-81862000D01*
X217250812Y-81737518D01*
X217214502Y-81617820D01*
X217155537Y-81507506D01*
X217076185Y-81410815D01*
X216979494Y-81331463D01*
X216869180Y-81272498D01*
X216749482Y-81236188D01*
X216625000Y-81223928D01*
X216185750Y-81227000D01*
X216027000Y-81385750D01*
X215773000Y-81385750D01*
X215614250Y-81227000D01*
X215175000Y-81223928D01*
X215050518Y-81236188D01*
X214930820Y-81272498D01*
X214846940Y-81317334D01*
X214233593Y-80703987D01*
X214221103Y-80693034D01*
X214115893Y-80612303D01*
X214087180Y-80595726D01*
X213964660Y-80544977D01*
X213932637Y-80536397D01*
X213801157Y-80519087D01*
X213784580Y-80518000D01*
X212889366Y-80518000D01*
X212891072Y-80399000D01*
X212878812Y-80274518D01*
X212842502Y-80154820D01*
X212783537Y-80044506D01*
X212704185Y-79947815D01*
X212607494Y-79868463D01*
X212497180Y-79809498D01*
X212377482Y-79773188D01*
X212253000Y-79760928D01*
X210963750Y-79764000D01*
X210805000Y-79922750D01*
X210805000Y-80518000D01*
X210701321Y-80518000D01*
X210594675Y-80503960D01*
X210551000Y-80485869D01*
X210551000Y-79922750D01*
X210392250Y-79764000D01*
X210312000Y-79763809D01*
X210312000Y-77680420D01*
X210310913Y-77663843D01*
X210293603Y-77532363D01*
X210285023Y-77500340D01*
X210234274Y-77377820D01*
X210217697Y-77349107D01*
X210136966Y-77243897D01*
X210126013Y-77231407D01*
X204708593Y-71813987D01*
X204696103Y-71803034D01*
X204590893Y-71722303D01*
X204562180Y-71705726D01*
X204439660Y-71654977D01*
X204407637Y-71646397D01*
X204276157Y-71629087D01*
X204259580Y-71628000D01*
X195790420Y-71628000D01*
X195773843Y-71629087D01*
X195642363Y-71646397D01*
X195610340Y-71654977D01*
X195487820Y-71705726D01*
X195459107Y-71722303D01*
X195353897Y-71803034D01*
X195341407Y-71813987D01*
X192850871Y-74304523D01*
X192765531Y-74370007D01*
X192673905Y-74407960D01*
X192567259Y-74422000D01*
X189313420Y-74422000D01*
X189296843Y-74423087D01*
X189165363Y-74440397D01*
X189133340Y-74448977D01*
X189010820Y-74499726D01*
X188982107Y-74516303D01*
X188876897Y-74597034D01*
X188864407Y-74607987D01*
X188653987Y-74818407D01*
X188643034Y-74830897D01*
X188562303Y-74936107D01*
X188545726Y-74964820D01*
X188494977Y-75087340D01*
X188486397Y-75119363D01*
X188469087Y-75250843D01*
X188468000Y-75267420D01*
X188468000Y-75937679D01*
X188453960Y-76044325D01*
X188416007Y-76135951D01*
X188355632Y-76214632D01*
X188276951Y-76275007D01*
X188185325Y-76312960D01*
X188078679Y-76327000D01*
X179840321Y-76327000D01*
X179733675Y-76312960D01*
X179642049Y-76275007D01*
X179563368Y-76214632D01*
X179502993Y-76135951D01*
X179465040Y-76044325D01*
X179451000Y-75937679D01*
X179451000Y-75521420D01*
X179449913Y-75504843D01*
X179432603Y-75373363D01*
X179424023Y-75341340D01*
X179373274Y-75218820D01*
X179356697Y-75190107D01*
X179275966Y-75084897D01*
X179265013Y-75072407D01*
X179054593Y-74861987D01*
X179042103Y-74851034D01*
X178936893Y-74770303D01*
X178908180Y-74753726D01*
X178785660Y-74702977D01*
X178753637Y-74694397D01*
X178622157Y-74677087D01*
X178605580Y-74676000D01*
X174970741Y-74676000D01*
X174864095Y-74661960D01*
X174772469Y-74624007D01*
X174687129Y-74558523D01*
X173968606Y-73840000D01*
X175878128Y-73840000D01*
X175890388Y-73964482D01*
X175926698Y-74084180D01*
X175985663Y-74194494D01*
X176065015Y-74291185D01*
X176161706Y-74370537D01*
X176272020Y-74429502D01*
X176391718Y-74465812D01*
X176516200Y-74478072D01*
X176955450Y-74475000D01*
X177114200Y-74316250D01*
X177114200Y-73467000D01*
X177368200Y-73467000D01*
X177368200Y-74316250D01*
X177526950Y-74475000D01*
X177966200Y-74478072D01*
X178090682Y-74465812D01*
X178210380Y-74429502D01*
X178320694Y-74370537D01*
X178417385Y-74291185D01*
X178496737Y-74194494D01*
X178555702Y-74084180D01*
X178592012Y-73964482D01*
X178604272Y-73840000D01*
X178601200Y-73625750D01*
X178442450Y-73467000D01*
X177368200Y-73467000D01*
X177114200Y-73467000D01*
X176039950Y-73467000D01*
X175881200Y-73625750D01*
X175878128Y-73840000D01*
X173968606Y-73840000D01*
X172710477Y-72581871D01*
X172644993Y-72496531D01*
X172607040Y-72404905D01*
X172593000Y-72298259D01*
X172593000Y-70612784D01*
X172619506Y-70634537D01*
X172729820Y-70693502D01*
X172849518Y-70729812D01*
X172974000Y-70742072D01*
X173196250Y-70739000D01*
X173355000Y-70580250D01*
X173355000Y-68961000D01*
X173335000Y-68961000D01*
X173335000Y-68707000D01*
X173355000Y-68707000D01*
X173355000Y-65659000D01*
X173609000Y-65659000D01*
X173609000Y-68707000D01*
X173629000Y-68707000D01*
X173629000Y-68961000D01*
X173609000Y-68961000D01*
X173609000Y-70580250D01*
X173767750Y-70739000D01*
X173990000Y-70742072D01*
X174114482Y-70729812D01*
X174234180Y-70693502D01*
X174344494Y-70634537D01*
X174371000Y-70612784D01*
X174371000Y-71798580D01*
X174372087Y-71815157D01*
X174389397Y-71946637D01*
X174397977Y-71978660D01*
X174448726Y-72101180D01*
X174465303Y-72129893D01*
X174546034Y-72235103D01*
X174556987Y-72247593D01*
X174894407Y-72585013D01*
X174906897Y-72595966D01*
X175012107Y-72676697D01*
X175040820Y-72693274D01*
X175163340Y-72744023D01*
X175195363Y-72752603D01*
X175326843Y-72769913D01*
X175343420Y-72771000D01*
X175884924Y-72771000D01*
X175878128Y-72840000D01*
X175881200Y-73054250D01*
X176039950Y-73213000D01*
X177114200Y-73213000D01*
X177114200Y-73193000D01*
X177368200Y-73193000D01*
X177368200Y-73213000D01*
X178442450Y-73213000D01*
X178601200Y-73054250D01*
X178604272Y-72840000D01*
X178597476Y-72771000D01*
X181102000Y-72771000D01*
X181118577Y-72769913D01*
X181250057Y-72752603D01*
X181282080Y-72744023D01*
X181404600Y-72693274D01*
X181433313Y-72676697D01*
X181538523Y-72595966D01*
X181561966Y-72572523D01*
X181642697Y-72467313D01*
X181659274Y-72438600D01*
X181710023Y-72316080D01*
X181718603Y-72284057D01*
X181735913Y-72152577D01*
X181737000Y-72136000D01*
X181737000Y-64345420D01*
X181735913Y-64328843D01*
X181718603Y-64197363D01*
X181710023Y-64165340D01*
X181659274Y-64042820D01*
X181642697Y-64014107D01*
X181561966Y-63908897D01*
X181551013Y-63896407D01*
X181213593Y-63558987D01*
X181201103Y-63548034D01*
X181095893Y-63467303D01*
X181067180Y-63450726D01*
X180944660Y-63399977D01*
X180912637Y-63391397D01*
X180781157Y-63374087D01*
X180764580Y-63373000D01*
X175514000Y-63373000D01*
X175497423Y-63374087D01*
X175365943Y-63391397D01*
X175333920Y-63399977D01*
X175211400Y-63450726D01*
X175182687Y-63467303D01*
X175077477Y-63548034D01*
X175054034Y-63571477D01*
X174973303Y-63676687D01*
X174956726Y-63705400D01*
X174905977Y-63827920D01*
X174897397Y-63859943D01*
X174880087Y-63991423D01*
X174879000Y-64008000D01*
X174879000Y-64230808D01*
X174875928Y-64262000D01*
X174875928Y-66802000D01*
X174879000Y-66833192D01*
X174879000Y-66916490D01*
X174867033Y-66976649D01*
X174840043Y-67017043D01*
X174799649Y-67044033D01*
X174630021Y-67077775D01*
X174606197Y-67085002D01*
X174584241Y-67096738D01*
X174534831Y-67129753D01*
X174579502Y-67046180D01*
X174615812Y-66926482D01*
X174628072Y-66802000D01*
X174625000Y-65817750D01*
X174466250Y-65659000D01*
X173609000Y-65659000D01*
X173355000Y-65659000D01*
X172497750Y-65659000D01*
X172339000Y-65817750D01*
X172335928Y-66802000D01*
X172348188Y-66926482D01*
X172384498Y-67046180D01*
X172406163Y-67086712D01*
X172403620Y-67085849D01*
X172245991Y-67043613D01*
X172224387Y-67022009D01*
X172212000Y-66975779D01*
X172212000Y-64262000D01*
X172335928Y-64262000D01*
X172339000Y-65246250D01*
X172497750Y-65405000D01*
X173355000Y-65405000D01*
X173355000Y-63785750D01*
X173609000Y-63785750D01*
X173609000Y-65405000D01*
X174466250Y-65405000D01*
X174625000Y-65246250D01*
X174628072Y-64262000D01*
X174615812Y-64137518D01*
X174579502Y-64017820D01*
X174520537Y-63907506D01*
X174441185Y-63810815D01*
X174344494Y-63731463D01*
X174234180Y-63672498D01*
X174114482Y-63636188D01*
X173990000Y-63623928D01*
X173767750Y-63627000D01*
X173609000Y-63785750D01*
X173355000Y-63785750D01*
X173196250Y-63627000D01*
X172974000Y-63623928D01*
X172849518Y-63636188D01*
X172729820Y-63672498D01*
X172619506Y-63731463D01*
X172522815Y-63810815D01*
X172443463Y-63907506D01*
X172384498Y-64017820D01*
X172348188Y-64137518D01*
X172335928Y-64262000D01*
X172212000Y-64262000D01*
X172212000Y-62992000D01*
X172210913Y-62975423D01*
X172193603Y-62843943D01*
X172185023Y-62811920D01*
X172134274Y-62689400D01*
X172117697Y-62660687D01*
X172036966Y-62555477D01*
X172013523Y-62532034D01*
X171908313Y-62451303D01*
X171879600Y-62434726D01*
X171757080Y-62383977D01*
X171725057Y-62375397D01*
X171593577Y-62358087D01*
X171577000Y-62357000D01*
X164548420Y-62357000D01*
X164531843Y-62358087D01*
X164400363Y-62375397D01*
X164368340Y-62383977D01*
X164245820Y-62434726D01*
X164217107Y-62451303D01*
X164111897Y-62532034D01*
X164099407Y-62542987D01*
X163253987Y-63388407D01*
X163243034Y-63400897D01*
X163162303Y-63506107D01*
X163145726Y-63534820D01*
X163094977Y-63657340D01*
X163086397Y-63689363D01*
X163069087Y-63820843D01*
X163068000Y-63837420D01*
X163068000Y-81069580D01*
X163069087Y-81086157D01*
X163086397Y-81217637D01*
X163094977Y-81249660D01*
X163145726Y-81372180D01*
X163162303Y-81400893D01*
X163243034Y-81506103D01*
X163253987Y-81518593D01*
X166131407Y-84396013D01*
X166143897Y-84406966D01*
X166249107Y-84487697D01*
X166277820Y-84504274D01*
X166400340Y-84555023D01*
X166432363Y-84563603D01*
X166563843Y-84580913D01*
X166580420Y-84582000D01*
X171158577Y-84582000D01*
X171196000Y-84585686D01*
X171233423Y-84582000D01*
X178817870Y-84582000D01*
X180955821Y-86719952D01*
X180979678Y-86749022D01*
X181095708Y-86844245D01*
X181192918Y-86896205D01*
X181215908Y-86908493D01*
X181228085Y-86915002D01*
X181371722Y-86958574D01*
X181403045Y-86961659D01*
X181489107Y-87027697D01*
X181517820Y-87044274D01*
X181640340Y-87095023D01*
X181672363Y-87103603D01*
X181803843Y-87120913D01*
X181820420Y-87122000D01*
X183158682Y-87122000D01*
X183152815Y-87126815D01*
X183073463Y-87223506D01*
X183014498Y-87333820D01*
X182978188Y-87453518D01*
X182965928Y-87578000D01*
X182969000Y-88592250D01*
X183127750Y-88751000D01*
X184277000Y-88751000D01*
X184277000Y-88731000D01*
X184531000Y-88731000D01*
X184531000Y-88751000D01*
X185680250Y-88751000D01*
X185839000Y-88592250D01*
X185842016Y-87596622D01*
X187715523Y-89470129D01*
X187781007Y-89555469D01*
X187818960Y-89647095D01*
X187833000Y-89753741D01*
X187833000Y-91567000D01*
X187834087Y-91583577D01*
X187851397Y-91715057D01*
X187859977Y-91747080D01*
X187910726Y-91869600D01*
X187927303Y-91898313D01*
X188008034Y-92003523D01*
X188031477Y-92026966D01*
X188136687Y-92107697D01*
X188165400Y-92124274D01*
X188185738Y-92132698D01*
X188158188Y-92223518D01*
X188145928Y-92348000D01*
X188149000Y-92574750D01*
X188307750Y-92733500D01*
X189357000Y-92733500D01*
X189357000Y-92713500D01*
X189611000Y-92713500D01*
X189611000Y-92733500D01*
X190660250Y-92733500D01*
X190819000Y-92574750D01*
X190822072Y-92348000D01*
X190809812Y-92223518D01*
X190803285Y-92202000D01*
X190806193Y-92202000D01*
X190822159Y-92200992D01*
X190948870Y-92184935D01*
X190979791Y-92176971D01*
X191098493Y-92129816D01*
X191126451Y-92114390D01*
X191229638Y-92039118D01*
X191241943Y-92028895D01*
X192281950Y-91047756D01*
X192293650Y-91035112D01*
X192379978Y-90928088D01*
X192397741Y-90898657D01*
X192452204Y-90772402D01*
X192461423Y-90739286D01*
X192480032Y-90603049D01*
X192481200Y-90585861D01*
X192481200Y-89577033D01*
X192582753Y-89453291D01*
X192665303Y-89298851D01*
X192687280Y-89226401D01*
X192716136Y-89131276D01*
X192722641Y-89065226D01*
X192723371Y-89057818D01*
X192763875Y-89041040D01*
X192870521Y-89027000D01*
X193031679Y-89027000D01*
X193138325Y-89041040D01*
X193229951Y-89078993D01*
X193308632Y-89139368D01*
X193369007Y-89218049D01*
X193406960Y-89309675D01*
X193421000Y-89416321D01*
X193421000Y-94733679D01*
X193406960Y-94840325D01*
X193369007Y-94931951D01*
X193308632Y-95010632D01*
X193229951Y-95071007D01*
X193138325Y-95108960D01*
X193031679Y-95123000D01*
X188476321Y-95123000D01*
X188369675Y-95108960D01*
X188278049Y-95071007D01*
X188199368Y-95010632D01*
X188138993Y-94931951D01*
X188101040Y-94840325D01*
X188087000Y-94733679D01*
X188087000Y-94190420D01*
X188085913Y-94173843D01*
X188068603Y-94042363D01*
X188060023Y-94010340D01*
X188009274Y-93887820D01*
X187992697Y-93859107D01*
X187911966Y-93753897D01*
X187901013Y-93741407D01*
X187532606Y-93373000D01*
X188145928Y-93373000D01*
X188158188Y-93497482D01*
X188194498Y-93617180D01*
X188253463Y-93727494D01*
X188332815Y-93824185D01*
X188429506Y-93903537D01*
X188539820Y-93962502D01*
X188659518Y-93998812D01*
X188784000Y-94011072D01*
X189198250Y-94008000D01*
X189357000Y-93849250D01*
X189357000Y-92987500D01*
X189611000Y-92987500D01*
X189611000Y-93849250D01*
X189769750Y-94008000D01*
X190184000Y-94011072D01*
X190308482Y-93998812D01*
X190428180Y-93962502D01*
X190538494Y-93903537D01*
X190635185Y-93824185D01*
X190714537Y-93727494D01*
X190773502Y-93617180D01*
X190809812Y-93497482D01*
X190822072Y-93373000D01*
X190819000Y-93146250D01*
X190660250Y-92987500D01*
X189611000Y-92987500D01*
X189357000Y-92987500D01*
X188307750Y-92987500D01*
X188149000Y-93146250D01*
X188145928Y-93373000D01*
X187532606Y-93373000D01*
X186934477Y-92774871D01*
X186868993Y-92689531D01*
X186831040Y-92597905D01*
X186817000Y-92491259D01*
X186817000Y-91523420D01*
X186815913Y-91506843D01*
X186798603Y-91375363D01*
X186790023Y-91343340D01*
X186739274Y-91220820D01*
X186722697Y-91192107D01*
X186641966Y-91086897D01*
X186631013Y-91074407D01*
X186293593Y-90736987D01*
X186281103Y-90726034D01*
X186175893Y-90645303D01*
X186147180Y-90628726D01*
X186024660Y-90577977D01*
X185992637Y-90569397D01*
X185861157Y-90552087D01*
X185844580Y-90551000D01*
X185719350Y-90551000D01*
X185734537Y-90532494D01*
X185793502Y-90422180D01*
X185829812Y-90302482D01*
X185842072Y-90178000D01*
X185839000Y-89163750D01*
X185680250Y-89005000D01*
X184531000Y-89005000D01*
X184531000Y-89025000D01*
X184277000Y-89025000D01*
X184277000Y-89005000D01*
X183127750Y-89005000D01*
X182969000Y-89163750D01*
X182965928Y-90178000D01*
X182978188Y-90302482D01*
X183014498Y-90422180D01*
X183073463Y-90532494D01*
X183088650Y-90551000D01*
X181866371Y-90551000D01*
X181908502Y-90472180D01*
X181944812Y-90352482D01*
X181957072Y-90228000D01*
X181954000Y-90013750D01*
X181795250Y-89855000D01*
X180721000Y-89855000D01*
X180721000Y-89875000D01*
X180467000Y-89875000D01*
X180467000Y-89855000D01*
X179392750Y-89855000D01*
X179324000Y-89923750D01*
X179255250Y-89855000D01*
X178181000Y-89855000D01*
X178181000Y-89875000D01*
X177927000Y-89875000D01*
X177927000Y-89855000D01*
X176852750Y-89855000D01*
X176694000Y-90013750D01*
X176690928Y-90228000D01*
X176703188Y-90352482D01*
X176739498Y-90472180D01*
X176798463Y-90582494D01*
X176877815Y-90679185D01*
X176957594Y-90744658D01*
X176951038Y-90750038D01*
X176840595Y-90884614D01*
X176758528Y-91038150D01*
X176707992Y-91204746D01*
X176690928Y-91378000D01*
X176690928Y-91878000D01*
X176707992Y-92051254D01*
X176758528Y-92217850D01*
X176840595Y-92371386D01*
X176923430Y-92472322D01*
X176846951Y-92531007D01*
X176755325Y-92568960D01*
X176648679Y-92583000D01*
X69560741Y-92583000D01*
X69454095Y-92568960D01*
X69362469Y-92531007D01*
X69277129Y-92465523D01*
X66039606Y-89228000D01*
X176690928Y-89228000D01*
X176694000Y-89442250D01*
X176852750Y-89601000D01*
X177927000Y-89601000D01*
X177927000Y-88751750D01*
X178181000Y-88751750D01*
X178181000Y-89601000D01*
X179255250Y-89601000D01*
X179324000Y-89532250D01*
X179392750Y-89601000D01*
X180467000Y-89601000D01*
X180467000Y-88751750D01*
X180721000Y-88751750D01*
X180721000Y-89601000D01*
X181795250Y-89601000D01*
X181954000Y-89442250D01*
X181957072Y-89228000D01*
X181944812Y-89103518D01*
X181908502Y-88983820D01*
X181849537Y-88873506D01*
X181770185Y-88776815D01*
X181673494Y-88697463D01*
X181563180Y-88638498D01*
X181443482Y-88602188D01*
X181319000Y-88589928D01*
X180879750Y-88593000D01*
X180721000Y-88751750D01*
X180467000Y-88751750D01*
X180308250Y-88593000D01*
X179869000Y-88589928D01*
X179744518Y-88602188D01*
X179624820Y-88638498D01*
X179514506Y-88697463D01*
X179417815Y-88776815D01*
X179338463Y-88873506D01*
X179324000Y-88900564D01*
X179309537Y-88873506D01*
X179230185Y-88776815D01*
X179133494Y-88697463D01*
X179023180Y-88638498D01*
X178903482Y-88602188D01*
X178779000Y-88589928D01*
X178339750Y-88593000D01*
X178181000Y-88751750D01*
X177927000Y-88751750D01*
X177768250Y-88593000D01*
X177329000Y-88589928D01*
X177204518Y-88602188D01*
X177084820Y-88638498D01*
X176974506Y-88697463D01*
X176877815Y-88776815D01*
X176798463Y-88873506D01*
X176739498Y-88983820D01*
X176703188Y-89103518D01*
X176690928Y-89228000D01*
X66039606Y-89228000D01*
X63230593Y-86418987D01*
X63218103Y-86408034D01*
X63112893Y-86327303D01*
X63084180Y-86310726D01*
X62961660Y-86259977D01*
X62929637Y-86251397D01*
X62798157Y-86234087D01*
X62781580Y-86233000D01*
X59340192Y-86233000D01*
X59433482Y-86223812D01*
X59553180Y-86187502D01*
X59663494Y-86128537D01*
X59760185Y-86049185D01*
X59839537Y-85952494D01*
X59898502Y-85842180D01*
X59934812Y-85722482D01*
X59947072Y-85598000D01*
X59944000Y-85375750D01*
X59785250Y-85217000D01*
X58166000Y-85217000D01*
X58166000Y-85237000D01*
X57912000Y-85237000D01*
X57912000Y-85217000D01*
X54864000Y-85217000D01*
X54864000Y-85237000D01*
X54610000Y-85237000D01*
X54610000Y-85217000D01*
X52990750Y-85217000D01*
X52832000Y-85375750D01*
X52828928Y-85598000D01*
X52841188Y-85722482D01*
X52877498Y-85842180D01*
X52936463Y-85952494D01*
X53015815Y-86049185D01*
X53112506Y-86128537D01*
X53222820Y-86187502D01*
X53342518Y-86223812D01*
X53467000Y-86236072D01*
X53520023Y-86235907D01*
X53402363Y-86251397D01*
X53370340Y-86259977D01*
X53247820Y-86310726D01*
X53219107Y-86327303D01*
X53113897Y-86408034D01*
X53101407Y-86418987D01*
X52128987Y-87391407D01*
X52118034Y-87403897D01*
X52037303Y-87509107D01*
X52020726Y-87537820D01*
X51969977Y-87660340D01*
X51961397Y-87692363D01*
X51944087Y-87823843D01*
X51943000Y-87840420D01*
X51943000Y-88354574D01*
X51939314Y-88392000D01*
X51943000Y-88429423D01*
X51943000Y-93761259D01*
X51928960Y-93867905D01*
X51891007Y-93959531D01*
X51825523Y-94044871D01*
X50864871Y-95005523D01*
X50779531Y-95071007D01*
X50687905Y-95108960D01*
X50581259Y-95123000D01*
X32214420Y-95123000D01*
X32197843Y-95124087D01*
X32066363Y-95141397D01*
X32034340Y-95149977D01*
X31911820Y-95200726D01*
X31883107Y-95217303D01*
X31777897Y-95298034D01*
X31765407Y-95308987D01*
X29528871Y-97545523D01*
X29443531Y-97611007D01*
X29351905Y-97648960D01*
X29245259Y-97663000D01*
X19260420Y-97663000D01*
X19243843Y-97664087D01*
X19112363Y-97681397D01*
X19080340Y-97689977D01*
X18957820Y-97740726D01*
X18929107Y-97757303D01*
X18823897Y-97838034D01*
X18811407Y-97848987D01*
X18473987Y-98186407D01*
X18463034Y-98198897D01*
X18382303Y-98304107D01*
X18365726Y-98332820D01*
X18314977Y-98455340D01*
X18306397Y-98487363D01*
X18289087Y-98618843D01*
X18288000Y-98635420D01*
X18288000Y-104564580D01*
X18289087Y-104581157D01*
X18306397Y-104712637D01*
X18314977Y-104744660D01*
X18365726Y-104867180D01*
X18382303Y-104895893D01*
X18463034Y-105001103D01*
X18473987Y-105013593D01*
X18811407Y-105351013D01*
X18823897Y-105361966D01*
X18929107Y-105442697D01*
X18957820Y-105459274D01*
X19080340Y-105510023D01*
X19112363Y-105518603D01*
X19243843Y-105535913D01*
X19260420Y-105537000D01*
X29626259Y-105537000D01*
X29732905Y-105551040D01*
X29824531Y-105588993D01*
X29909871Y-105654477D01*
X30241407Y-105986013D01*
X30253897Y-105996966D01*
X30359107Y-106077697D01*
X30387820Y-106094274D01*
X30510340Y-106145023D01*
X30542363Y-106153603D01*
X30673843Y-106170913D01*
X30690420Y-106172000D01*
X249673679Y-106172000D01*
X249780325Y-106186040D01*
X249871951Y-106223993D01*
X249950632Y-106284368D01*
X250011007Y-106363049D01*
X250048960Y-106454675D01*
X250063000Y-106561321D01*
X250063000Y-107096259D01*
X250048960Y-107202905D01*
X250011007Y-107294531D01*
X249945523Y-107379871D01*
X248349871Y-108975523D01*
X248264531Y-109041007D01*
X248172905Y-109078960D01*
X248066259Y-109093000D01*
X143383000Y-109093000D01*
X143366423Y-109094087D01*
X143234943Y-109111397D01*
X143202920Y-109119977D01*
X143080400Y-109170726D01*
X143051687Y-109187303D01*
X142946477Y-109268034D01*
X142923034Y-109291477D01*
X142842303Y-109396687D01*
X142825726Y-109425400D01*
X142774977Y-109547920D01*
X142766397Y-109579943D01*
X142749087Y-109711423D01*
X142748000Y-109728000D01*
X142748000Y-116496000D01*
X142686998Y-116496000D01*
X142686998Y-116654748D01*
X142528250Y-116496000D01*
X142314000Y-116492928D01*
X142189518Y-116505188D01*
X142069820Y-116541498D01*
X141959506Y-116600463D01*
X141862815Y-116679815D01*
X141783463Y-116776506D01*
X141724498Y-116886820D01*
X141688188Y-117006518D01*
X141675928Y-117131000D01*
X141679000Y-117570250D01*
X141837750Y-117729000D01*
X142687000Y-117729000D01*
X142687000Y-117709000D01*
X142748000Y-117709000D01*
X142748000Y-118003000D01*
X142687000Y-118003000D01*
X142687000Y-117983000D01*
X141837750Y-117983000D01*
X141679000Y-118141750D01*
X141675928Y-118581000D01*
X141688188Y-118705482D01*
X141724498Y-118825180D01*
X141783463Y-118935494D01*
X141862815Y-119032185D01*
X141959506Y-119111537D01*
X142069820Y-119170502D01*
X142189518Y-119206812D01*
X142314000Y-119219072D01*
X142528250Y-119216000D01*
X142686998Y-119057252D01*
X142686998Y-119216000D01*
X142748000Y-119216000D01*
X142748000Y-119752679D01*
X142733960Y-119859325D01*
X142696007Y-119950951D01*
X142635632Y-120029632D01*
X142556951Y-120090007D01*
X142465325Y-120127960D01*
X142358679Y-120142000D01*
X138311321Y-120142000D01*
X138204675Y-120127960D01*
X138113049Y-120090007D01*
X138034368Y-120029632D01*
X137973993Y-119950951D01*
X137936040Y-119859325D01*
X137922000Y-119752679D01*
X137922000Y-109728000D01*
X137920913Y-109711423D01*
X137903603Y-109579943D01*
X137895023Y-109547920D01*
X137844274Y-109425400D01*
X137827697Y-109396687D01*
X137746966Y-109291477D01*
X137723523Y-109268034D01*
X137618313Y-109187303D01*
X137589600Y-109170726D01*
X137467080Y-109119977D01*
X137435057Y-109111397D01*
X137303577Y-109094087D01*
X137287000Y-109093000D01*
X29428741Y-109093000D01*
X29322095Y-109078960D01*
X29230469Y-109041007D01*
X29145129Y-108975523D01*
X28701606Y-108532000D01*
X41308928Y-108532000D01*
X41312000Y-108746250D01*
X41470750Y-108905000D01*
X42545000Y-108905000D01*
X42545000Y-108055750D01*
X42799000Y-108055750D01*
X42799000Y-108905000D01*
X43873250Y-108905000D01*
X44032000Y-108746250D01*
X44035072Y-108532000D01*
X79916928Y-108532000D01*
X79920000Y-108746250D01*
X80078750Y-108905000D01*
X81153000Y-108905000D01*
X81153000Y-108055750D01*
X81407000Y-108055750D01*
X81407000Y-108905000D01*
X82481250Y-108905000D01*
X82640000Y-108746250D01*
X82643072Y-108532000D01*
X117508928Y-108532000D01*
X117512000Y-108746250D01*
X117670750Y-108905000D01*
X118745000Y-108905000D01*
X118745000Y-108055750D01*
X118999000Y-108055750D01*
X118999000Y-108905000D01*
X120073250Y-108905000D01*
X120232000Y-108746250D01*
X120235072Y-108532000D01*
X155608928Y-108532000D01*
X155612000Y-108746250D01*
X155770750Y-108905000D01*
X156845000Y-108905000D01*
X156845000Y-108055750D01*
X157099000Y-108055750D01*
X157099000Y-108905000D01*
X158173250Y-108905000D01*
X158332000Y-108746250D01*
X158335072Y-108532000D01*
X193962928Y-108532000D01*
X193966000Y-108746250D01*
X194124750Y-108905000D01*
X195199000Y-108905000D01*
X195199000Y-108055750D01*
X195453000Y-108055750D01*
X195453000Y-108905000D01*
X196527250Y-108905000D01*
X196686000Y-108746250D01*
X196689072Y-108532000D01*
X231808928Y-108532000D01*
X231812000Y-108746250D01*
X231970750Y-108905000D01*
X233045000Y-108905000D01*
X233045000Y-108055750D01*
X233299000Y-108055750D01*
X233299000Y-108905000D01*
X234373250Y-108905000D01*
X234532000Y-108746250D01*
X234535072Y-108532000D01*
X234522812Y-108407518D01*
X234486502Y-108287820D01*
X234427537Y-108177506D01*
X234348185Y-108080815D01*
X234251494Y-108001463D01*
X234141180Y-107942498D01*
X234021482Y-107906188D01*
X233897000Y-107893928D01*
X233457750Y-107897000D01*
X233299000Y-108055750D01*
X233045000Y-108055750D01*
X232886250Y-107897000D01*
X232447000Y-107893928D01*
X232322518Y-107906188D01*
X232202820Y-107942498D01*
X232092506Y-108001463D01*
X231995815Y-108080815D01*
X231916463Y-108177506D01*
X231857498Y-108287820D01*
X231821188Y-108407518D01*
X231808928Y-108532000D01*
X196689072Y-108532000D01*
X196676812Y-108407518D01*
X196640502Y-108287820D01*
X196581537Y-108177506D01*
X196502185Y-108080815D01*
X196405494Y-108001463D01*
X196295180Y-107942498D01*
X196175482Y-107906188D01*
X196051000Y-107893928D01*
X195611750Y-107897000D01*
X195453000Y-108055750D01*
X195199000Y-108055750D01*
X195040250Y-107897000D01*
X194601000Y-107893928D01*
X194476518Y-107906188D01*
X194356820Y-107942498D01*
X194246506Y-108001463D01*
X194149815Y-108080815D01*
X194070463Y-108177506D01*
X194011498Y-108287820D01*
X193975188Y-108407518D01*
X193962928Y-108532000D01*
X158335072Y-108532000D01*
X158322812Y-108407518D01*
X158286502Y-108287820D01*
X158227537Y-108177506D01*
X158148185Y-108080815D01*
X158051494Y-108001463D01*
X157941180Y-107942498D01*
X157821482Y-107906188D01*
X157697000Y-107893928D01*
X157257750Y-107897000D01*
X157099000Y-108055750D01*
X156845000Y-108055750D01*
X156686250Y-107897000D01*
X156247000Y-107893928D01*
X156122518Y-107906188D01*
X156002820Y-107942498D01*
X155892506Y-108001463D01*
X155795815Y-108080815D01*
X155716463Y-108177506D01*
X155657498Y-108287820D01*
X155621188Y-108407518D01*
X155608928Y-108532000D01*
X120235072Y-108532000D01*
X120222812Y-108407518D01*
X120186502Y-108287820D01*
X120127537Y-108177506D01*
X120048185Y-108080815D01*
X119951494Y-108001463D01*
X119841180Y-107942498D01*
X119721482Y-107906188D01*
X119597000Y-107893928D01*
X119157750Y-107897000D01*
X118999000Y-108055750D01*
X118745000Y-108055750D01*
X118586250Y-107897000D01*
X118147000Y-107893928D01*
X118022518Y-107906188D01*
X117902820Y-107942498D01*
X117792506Y-108001463D01*
X117695815Y-108080815D01*
X117616463Y-108177506D01*
X117557498Y-108287820D01*
X117521188Y-108407518D01*
X117508928Y-108532000D01*
X82643072Y-108532000D01*
X82630812Y-108407518D01*
X82594502Y-108287820D01*
X82535537Y-108177506D01*
X82456185Y-108080815D01*
X82359494Y-108001463D01*
X82249180Y-107942498D01*
X82129482Y-107906188D01*
X82005000Y-107893928D01*
X81565750Y-107897000D01*
X81407000Y-108055750D01*
X81153000Y-108055750D01*
X80994250Y-107897000D01*
X80555000Y-107893928D01*
X80430518Y-107906188D01*
X80310820Y-107942498D01*
X80200506Y-108001463D01*
X80103815Y-108080815D01*
X80024463Y-108177506D01*
X79965498Y-108287820D01*
X79929188Y-108407518D01*
X79916928Y-108532000D01*
X44035072Y-108532000D01*
X44022812Y-108407518D01*
X43986502Y-108287820D01*
X43927537Y-108177506D01*
X43848185Y-108080815D01*
X43751494Y-108001463D01*
X43641180Y-107942498D01*
X43521482Y-107906188D01*
X43397000Y-107893928D01*
X42957750Y-107897000D01*
X42799000Y-108055750D01*
X42545000Y-108055750D01*
X42386250Y-107897000D01*
X41947000Y-107893928D01*
X41822518Y-107906188D01*
X41702820Y-107942498D01*
X41592506Y-108001463D01*
X41495815Y-108080815D01*
X41416463Y-108177506D01*
X41357498Y-108287820D01*
X41321188Y-108407518D01*
X41308928Y-108532000D01*
X28701606Y-108532000D01*
X27543593Y-107373987D01*
X27531103Y-107363034D01*
X27425893Y-107282303D01*
X27397180Y-107265726D01*
X27274660Y-107214977D01*
X27242637Y-107206397D01*
X27111157Y-107189087D01*
X27094580Y-107188000D01*
X18633741Y-107188000D01*
X18527095Y-107173960D01*
X18435469Y-107136007D01*
X18350129Y-107070523D01*
X16119477Y-104839871D01*
X16053993Y-104754531D01*
X16016040Y-104662905D01*
X16002000Y-104556259D01*
X16002000Y-98643741D01*
X16016040Y-98537095D01*
X16053993Y-98445469D01*
X16119477Y-98360129D01*
X18350129Y-96129477D01*
X18435469Y-96063993D01*
X18527095Y-96026040D01*
X18633741Y-96012000D01*
X27094580Y-96012000D01*
X27111157Y-96010913D01*
X27242637Y-95993603D01*
X27274660Y-95985023D01*
X27397180Y-95934274D01*
X27425893Y-95917697D01*
X27531103Y-95836966D01*
X27543593Y-95826013D01*
X29780129Y-93589477D01*
X29865469Y-93523993D01*
X29957095Y-93486040D01*
X30063741Y-93472000D01*
X39159580Y-93472000D01*
X39176157Y-93470913D01*
X39307637Y-93453603D01*
X39339660Y-93445023D01*
X39462180Y-93394274D01*
X39490893Y-93377697D01*
X39596103Y-93296966D01*
X39608593Y-93286013D01*
X48312606Y-84582000D01*
X52828928Y-84582000D01*
X52832000Y-84804250D01*
X52990750Y-84963000D01*
X54610000Y-84963000D01*
X54610000Y-84105750D01*
X54864000Y-84105750D01*
X54864000Y-84963000D01*
X57912000Y-84963000D01*
X57912000Y-84105750D01*
X58166000Y-84105750D01*
X58166000Y-84963000D01*
X59785250Y-84963000D01*
X59944000Y-84804250D01*
X59947072Y-84582000D01*
X59934812Y-84457518D01*
X59898502Y-84337820D01*
X59839537Y-84227506D01*
X59760185Y-84130815D01*
X59663494Y-84051463D01*
X59553180Y-83992498D01*
X59433482Y-83956188D01*
X59309000Y-83943928D01*
X58324750Y-83947000D01*
X58166000Y-84105750D01*
X57912000Y-84105750D01*
X57753250Y-83947000D01*
X56769000Y-83943928D01*
X56644518Y-83956188D01*
X56524820Y-83992498D01*
X56414506Y-84051463D01*
X56388000Y-84073216D01*
X56361494Y-84051463D01*
X56251180Y-83992498D01*
X56131482Y-83956188D01*
X56007000Y-83943928D01*
X55022750Y-83947000D01*
X54864000Y-84105750D01*
X54610000Y-84105750D01*
X54451250Y-83947000D01*
X53467000Y-83943928D01*
X53342518Y-83956188D01*
X53222820Y-83992498D01*
X53112506Y-84051463D01*
X53015815Y-84130815D01*
X52936463Y-84227506D01*
X52877498Y-84337820D01*
X52841188Y-84457518D01*
X52828928Y-84582000D01*
X48312606Y-84582000D01*
X51760606Y-81134000D01*
X103563928Y-81134000D01*
X103576188Y-81258482D01*
X103612498Y-81378180D01*
X103671463Y-81488494D01*
X103750815Y-81585185D01*
X103780276Y-81609363D01*
X103713595Y-81690613D01*
X103631528Y-81844148D01*
X103580992Y-82010744D01*
X103563928Y-82183998D01*
X103563928Y-82709002D01*
X103580992Y-82882256D01*
X103631528Y-83048852D01*
X103713595Y-83202387D01*
X103824038Y-83336962D01*
X103958613Y-83447405D01*
X104112148Y-83529472D01*
X104278744Y-83580008D01*
X104451998Y-83597072D01*
X105352002Y-83597072D01*
X105525256Y-83580008D01*
X105691852Y-83529472D01*
X105845387Y-83447405D01*
X105979962Y-83336962D01*
X106043334Y-83259743D01*
X106108208Y-83338792D01*
X106241836Y-83448458D01*
X106394291Y-83529947D01*
X106559715Y-83580128D01*
X106731750Y-83597072D01*
X107644250Y-83597072D01*
X107816285Y-83580128D01*
X107981709Y-83529947D01*
X108134164Y-83448458D01*
X108238462Y-83362863D01*
X108297815Y-83435185D01*
X108394506Y-83514537D01*
X108490785Y-83566000D01*
X108394506Y-83617463D01*
X108297815Y-83696815D01*
X108218463Y-83793506D01*
X108159498Y-83903820D01*
X108123188Y-84023518D01*
X108110928Y-84148000D01*
X108114000Y-84362250D01*
X108272750Y-84521000D01*
X109347000Y-84521000D01*
X109347000Y-83671750D01*
X109241250Y-83566000D01*
X109347000Y-83460250D01*
X109347000Y-82611000D01*
X109327000Y-82611000D01*
X109327000Y-82357000D01*
X109347000Y-82357000D01*
X109347000Y-82337000D01*
X109601000Y-82337000D01*
X109601000Y-82357000D01*
X109621000Y-82357000D01*
X109621000Y-82611000D01*
X109601000Y-82611000D01*
X109601000Y-83460250D01*
X109706750Y-83566000D01*
X109601000Y-83671750D01*
X109601000Y-84521000D01*
X109621000Y-84521000D01*
X109621000Y-84775000D01*
X109601000Y-84775000D01*
X109601000Y-84795000D01*
X109347000Y-84795000D01*
X109347000Y-84775000D01*
X108272750Y-84775000D01*
X108114000Y-84933750D01*
X108110928Y-85148000D01*
X108123188Y-85272482D01*
X108159498Y-85392180D01*
X108218463Y-85502494D01*
X108229137Y-85515500D01*
X108051261Y-85515500D01*
X107851302Y-85555274D01*
X107662944Y-85633295D01*
X107493426Y-85746563D01*
X107349263Y-85890726D01*
X107235995Y-86060244D01*
X107157974Y-86248602D01*
X107118200Y-86448561D01*
X107118200Y-86652439D01*
X107157974Y-86852398D01*
X107235995Y-87040756D01*
X107349263Y-87210274D01*
X107493426Y-87354437D01*
X107662944Y-87467705D01*
X107851302Y-87545726D01*
X108051261Y-87585500D01*
X108255139Y-87585500D01*
X108455098Y-87545726D01*
X108496218Y-87528694D01*
X108505614Y-87536405D01*
X108659150Y-87618472D01*
X108825746Y-87669008D01*
X108999000Y-87686072D01*
X109949000Y-87686072D01*
X110122254Y-87669008D01*
X110288850Y-87618472D01*
X110442386Y-87536405D01*
X110456042Y-87525198D01*
X110505602Y-87545726D01*
X110705561Y-87585500D01*
X110909439Y-87585500D01*
X111109398Y-87545726D01*
X111297756Y-87467705D01*
X111467274Y-87354437D01*
X111611437Y-87210274D01*
X111724705Y-87040756D01*
X111802726Y-86852398D01*
X111842500Y-86652439D01*
X111842500Y-86448561D01*
X111802726Y-86248602D01*
X111741833Y-86101595D01*
X111880250Y-86101000D01*
X112039000Y-85942250D01*
X112039000Y-83693000D01*
X112293000Y-83693000D01*
X112293000Y-85942250D01*
X112451750Y-86101000D01*
X113166000Y-86104072D01*
X113290482Y-86091812D01*
X113410180Y-86055502D01*
X113520494Y-85996537D01*
X113617185Y-85917185D01*
X113696537Y-85820494D01*
X113755502Y-85710180D01*
X113791812Y-85590482D01*
X113804072Y-85466000D01*
X113801000Y-83851750D01*
X113642250Y-83693000D01*
X112293000Y-83693000D01*
X112039000Y-83693000D01*
X110689750Y-83693000D01*
X110666299Y-83716451D01*
X110650185Y-83696815D01*
X110553494Y-83617463D01*
X110457215Y-83566000D01*
X110553494Y-83514537D01*
X110650185Y-83435185D01*
X110666299Y-83415549D01*
X110689750Y-83439000D01*
X112039000Y-83439000D01*
X112039000Y-81189750D01*
X112293000Y-81189750D01*
X112293000Y-83439000D01*
X113642250Y-83439000D01*
X113801000Y-83280250D01*
X113804072Y-81666000D01*
X113791812Y-81541518D01*
X113755502Y-81421820D01*
X113696537Y-81311506D01*
X113617185Y-81214815D01*
X113520494Y-81135463D01*
X113410180Y-81076498D01*
X113290482Y-81040188D01*
X113166000Y-81027928D01*
X112451750Y-81031000D01*
X112293000Y-81189750D01*
X112039000Y-81189750D01*
X111880250Y-81031000D01*
X111166000Y-81027928D01*
X111041518Y-81040188D01*
X110921820Y-81076498D01*
X110811506Y-81135463D01*
X110771043Y-81168670D01*
X110820008Y-81007254D01*
X110837072Y-80834000D01*
X110837072Y-80334000D01*
X110820008Y-80160746D01*
X110769472Y-79994150D01*
X110687405Y-79840614D01*
X110576962Y-79706038D01*
X110501079Y-79643763D01*
X110509000Y-79603939D01*
X110509000Y-79400061D01*
X110469226Y-79200102D01*
X110391205Y-79011744D01*
X110277937Y-78842226D01*
X110133774Y-78698063D01*
X109964256Y-78584795D01*
X109775898Y-78506774D01*
X109575939Y-78467000D01*
X109372061Y-78467000D01*
X109172102Y-78506774D01*
X109068953Y-78549500D01*
X107593047Y-78549500D01*
X107489898Y-78506774D01*
X107289939Y-78467000D01*
X107086061Y-78467000D01*
X106886102Y-78506774D01*
X106697744Y-78584795D01*
X106528226Y-78698063D01*
X106384063Y-78842226D01*
X106270795Y-79011744D01*
X106192774Y-79200102D01*
X106153000Y-79400061D01*
X106153000Y-79603939D01*
X106168135Y-79680027D01*
X106110340Y-79727459D01*
X106053185Y-79657815D01*
X105956494Y-79578463D01*
X105846180Y-79519498D01*
X105726482Y-79483188D01*
X105602000Y-79470928D01*
X105187750Y-79474000D01*
X105029000Y-79632750D01*
X105029000Y-80494500D01*
X105049000Y-80494500D01*
X105049000Y-80748500D01*
X105029000Y-80748500D01*
X105029000Y-80768500D01*
X104775000Y-80768500D01*
X104775000Y-80748500D01*
X103725750Y-80748500D01*
X103567000Y-80907250D01*
X103563928Y-81134000D01*
X51760606Y-81134000D01*
X52785606Y-80109000D01*
X103563928Y-80109000D01*
X103567000Y-80335750D01*
X103725750Y-80494500D01*
X104775000Y-80494500D01*
X104775000Y-79632750D01*
X104616250Y-79474000D01*
X104202000Y-79470928D01*
X104077518Y-79483188D01*
X103957820Y-79519498D01*
X103847506Y-79578463D01*
X103750815Y-79657815D01*
X103671463Y-79754506D01*
X103612498Y-79864820D01*
X103576188Y-79984518D01*
X103563928Y-80109000D01*
X52785606Y-80109000D01*
X58355129Y-74539477D01*
X58440469Y-74473993D01*
X58532095Y-74436040D01*
X58638741Y-74422000D01*
X91865937Y-74422000D01*
X91882418Y-74420926D01*
X92013151Y-74403816D01*
X92045003Y-74395333D01*
X92166930Y-74345155D01*
X92195526Y-74328761D01*
X92300432Y-74248896D01*
X92312895Y-74238059D01*
X105980014Y-60695186D01*
X106065107Y-60630405D01*
X106156291Y-60592879D01*
X106262338Y-60579000D01*
X117720679Y-60579000D01*
X117827325Y-60593040D01*
G37*
%TD.AperFunction*%
%TD*%
M02*
