%TF.GenerationSoftware,KiCad,Pcbnew,5.1.7-a382d34a8~87~ubuntu20.04.1*%
%TF.CreationDate,2020-11-05T16:16:56+05:30*%
%TF.ProjectId,halo,68616c6f-2e6b-4696-9361-645f70636258,v1*%
%TF.SameCoordinates,Original*%
%TF.FileFunction,Soldermask,Top*%
%TF.FilePolarity,Negative*%
%FSLAX46Y46*%
G04 Gerber Fmt 4.6, Leading zero omitted, Abs format (unit mm)*
G04 Created by KiCad (PCBNEW 5.1.7-a382d34a8~87~ubuntu20.04.1) date 2020-11-05 16:16:56*
%MOMM*%
%LPD*%
G01*
G04 APERTURE LIST*
%TA.AperFunction,Profile*%
%ADD10C,0.050000*%
%TD*%
%ADD11R,1.000000X3.150000*%
%ADD12C,0.650000*%
%ADD13R,2.180000X2.000000*%
%ADD14R,0.300000X1.150000*%
%ADD15R,0.600000X1.150000*%
%ADD16R,1.550000X1.300000*%
%ADD17R,2.000000X3.800000*%
%ADD18R,2.000000X1.500000*%
%ADD19R,2.400000X2.800000*%
%ADD20C,1.600000*%
%ADD21C,1.800000*%
%ADD22R,1.000000X1.500000*%
%ADD23C,1.000000*%
%ADD24R,2.540000X1.016000*%
%ADD25R,1.016000X2.540000*%
%ADD26R,3.150000X1.000000*%
%ADD27C,6.400000*%
%ADD28C,0.800000*%
%ADD29R,0.550000X1.600000*%
%ADD30R,1.600000X0.550000*%
%ADD31R,1.400000X1.200000*%
%ADD32R,2.500000X2.300000*%
%ADD33R,1.016000X1.905000*%
%ADD34C,3.175000*%
G04 APERTURE END LIST*
D10*
X73431896Y-62496118D02*
G75*
G02*
X120707642Y-53928265I66269656J-230949950D01*
G01*
X121541768Y-54762400D02*
G75*
G03*
X120707642Y-53928265I-834135J0D01*
G01*
X132715000Y-55245000D02*
G75*
G03*
X133477000Y-54483000I0J762000D01*
G01*
X132715000Y-55245000D02*
X122157808Y-55243390D01*
X134620000Y-53233692D02*
G75*
G03*
X133477000Y-54376692I0J-1143000D01*
G01*
X121541768Y-54762400D02*
G75*
G03*
X122157808Y-55243390I616040J154010D01*
G01*
X133477000Y-54483000D02*
X133477000Y-54376692D01*
X139700000Y-53180000D02*
G75*
G03*
X134620000Y-53233692I0J-240347211D01*
G01*
X145923000Y-54483000D02*
X145923000Y-54376692D01*
X157858232Y-54762400D02*
G75*
G02*
X158692358Y-53928265I834135J0D01*
G01*
X158692358Y-53928264D02*
G75*
G02*
X205969205Y-62493874I-18992358J-239578255D01*
G01*
X144780000Y-53233692D02*
G75*
G02*
X145923000Y-54376692I0J-1143000D01*
G01*
X139700000Y-53180000D02*
G75*
G02*
X144780000Y-53233692I0J-240347211D01*
G01*
X146685000Y-55245000D02*
G75*
G02*
X145923000Y-54483000I0J762000D01*
G01*
X157858232Y-54762400D02*
G75*
G02*
X157242192Y-55243390I-616040J154010D01*
G01*
X146685000Y-55245000D02*
X157242192Y-55243390D01*
X205969205Y-62493874D02*
G75*
G02*
X266571000Y-98721000I-37916205J-132229126D01*
G01*
X266571000Y-98721000D02*
X266571000Y-104479000D01*
X266571256Y-104479861D02*
G75*
G02*
X205969000Y-140707000I-98518256J96002861D01*
G01*
X205968733Y-140706537D02*
G75*
G02*
X139700000Y-150020000I-66268733J231106537D01*
G01*
X12828744Y-98720139D02*
G75*
G02*
X73431000Y-62493000I98518256J-96002861D01*
G01*
X139699871Y-150020519D02*
G75*
G02*
X73431000Y-140707000I129J240420519D01*
G01*
X12829000Y-98721000D02*
X12829000Y-104479000D01*
X73430795Y-140706126D02*
G75*
G02*
X12829000Y-104479000I37916205J132229126D01*
G01*
X89831000Y-134459000D02*
G75*
G03*
X89831000Y-134459000I-1717000J0D01*
G01*
X26734000Y-111075000D02*
G75*
G03*
X26734000Y-111075000I-1717000J0D01*
G01*
X141091000Y-145758000D02*
X138309000Y-145758000D01*
X138309000Y-145758000D02*
X138309000Y-148540000D01*
X138309000Y-148540000D02*
X141091000Y-148540000D01*
X141091000Y-148540000D02*
X141091000Y-145758000D01*
X193002000Y-134459000D02*
G75*
G03*
X193002000Y-134459000I-1716000J0D01*
G01*
X256100000Y-111075000D02*
G75*
G03*
X256100000Y-111075000I-1717000J0D01*
G01*
X26734000Y-92125000D02*
G75*
G03*
X26734000Y-92125000I-1717000J0D01*
G01*
X89831000Y-68741000D02*
G75*
G03*
X89831000Y-68741000I-1717000J0D01*
G01*
X256100000Y-92125000D02*
G75*
G03*
X256100000Y-92125000I-1717000J0D01*
G01*
X193002000Y-68741000D02*
G75*
G03*
X193002000Y-68741000I-1716000J0D01*
G01*
X141091000Y-54660000D02*
X138309000Y-54660000D01*
X138309000Y-54660000D02*
X138309000Y-57442000D01*
X138309000Y-57442000D02*
X141091000Y-57442000D01*
X141091000Y-57442000D02*
X141091000Y-54660000D01*
%TO.C,C18*%
G36*
G01*
X144214000Y-118331000D02*
X144214000Y-117381000D01*
G75*
G02*
X144464000Y-117131000I250000J0D01*
G01*
X144964000Y-117131000D01*
G75*
G02*
X145214000Y-117381000I0J-250000D01*
G01*
X145214000Y-118331000D01*
G75*
G02*
X144964000Y-118581000I-250000J0D01*
G01*
X144464000Y-118581000D01*
G75*
G02*
X144214000Y-118331000I0J250000D01*
G01*
G37*
G36*
G01*
X142314000Y-118331000D02*
X142314000Y-117381000D01*
G75*
G02*
X142564000Y-117131000I250000J0D01*
G01*
X143064000Y-117131000D01*
G75*
G02*
X143314000Y-117381000I0J-250000D01*
G01*
X143314000Y-118331000D01*
G75*
G02*
X143064000Y-118581000I-250000J0D01*
G01*
X142564000Y-118581000D01*
G75*
G02*
X142314000Y-118331000I0J250000D01*
G01*
G37*
%TD*%
D11*
%TO.C,P6*%
X155702000Y-70119000D03*
X155702000Y-75169000D03*
X153162000Y-70119000D03*
X153162000Y-75169000D03*
X150622000Y-70119000D03*
X150622000Y-75169000D03*
X148082000Y-70119000D03*
X148082000Y-75169000D03*
%TD*%
D12*
%TO.C,J2*%
X149002000Y-60706000D03*
X154782000Y-60706000D03*
D13*
X146782000Y-57276000D03*
X157002000Y-57276000D03*
X146782000Y-61206000D03*
X157002000Y-61206000D03*
D14*
X151642000Y-61781000D03*
X152142000Y-61781000D03*
X151142000Y-61781000D03*
X152642000Y-61781000D03*
X150642000Y-61781000D03*
X153142000Y-61781000D03*
X150142000Y-61781000D03*
X153642000Y-61781000D03*
D15*
X148692000Y-61781000D03*
X149492000Y-61781000D03*
X154292000Y-61781000D03*
X155092000Y-61781000D03*
%TD*%
%TO.C,C10*%
G36*
G01*
X216375000Y-82862000D02*
X215425000Y-82862000D01*
G75*
G02*
X215175000Y-82612000I0J250000D01*
G01*
X215175000Y-82112000D01*
G75*
G02*
X215425000Y-81862000I250000J0D01*
G01*
X216375000Y-81862000D01*
G75*
G02*
X216625000Y-82112000I0J-250000D01*
G01*
X216625000Y-82612000D01*
G75*
G02*
X216375000Y-82862000I-250000J0D01*
G01*
G37*
G36*
G01*
X216375000Y-84762000D02*
X215425000Y-84762000D01*
G75*
G02*
X215175000Y-84512000I0J250000D01*
G01*
X215175000Y-84012000D01*
G75*
G02*
X215425000Y-83762000I250000J0D01*
G01*
X216375000Y-83762000D01*
G75*
G02*
X216625000Y-84012000I0J-250000D01*
G01*
X216625000Y-84512000D01*
G75*
G02*
X216375000Y-84762000I-250000J0D01*
G01*
G37*
%TD*%
%TO.C,C1*%
G36*
G01*
X183854000Y-91178000D02*
X184954000Y-91178000D01*
G75*
G02*
X185204000Y-91428000I0J-250000D01*
G01*
X185204000Y-93528000D01*
G75*
G02*
X184954000Y-93778000I-250000J0D01*
G01*
X183854000Y-93778000D01*
G75*
G02*
X183604000Y-93528000I0J250000D01*
G01*
X183604000Y-91428000D01*
G75*
G02*
X183854000Y-91178000I250000J0D01*
G01*
G37*
G36*
G01*
X183854000Y-87578000D02*
X184954000Y-87578000D01*
G75*
G02*
X185204000Y-87828000I0J-250000D01*
G01*
X185204000Y-89928000D01*
G75*
G02*
X184954000Y-90178000I-250000J0D01*
G01*
X183854000Y-90178000D01*
G75*
G02*
X183604000Y-89928000I0J250000D01*
G01*
X183604000Y-87828000D01*
G75*
G02*
X183854000Y-87578000I250000J0D01*
G01*
G37*
%TD*%
D16*
%TO.C,SW1*%
X167983000Y-76490000D03*
X167983000Y-80990000D03*
X175933000Y-80990000D03*
X175933000Y-76490000D03*
%TD*%
D17*
%TO.C,U2*%
X112166000Y-83566000D03*
D18*
X118466000Y-83566000D03*
X118466000Y-81266000D03*
X118466000Y-85866000D03*
%TD*%
%TO.C,C6*%
G36*
G01*
X201770000Y-92260000D02*
X200820000Y-92260000D01*
G75*
G02*
X200570000Y-92010000I0J250000D01*
G01*
X200570000Y-91510000D01*
G75*
G02*
X200820000Y-91260000I250000J0D01*
G01*
X201770000Y-91260000D01*
G75*
G02*
X202020000Y-91510000I0J-250000D01*
G01*
X202020000Y-92010000D01*
G75*
G02*
X201770000Y-92260000I-250000J0D01*
G01*
G37*
G36*
G01*
X201770000Y-94160000D02*
X200820000Y-94160000D01*
G75*
G02*
X200570000Y-93910000I0J250000D01*
G01*
X200570000Y-93410000D01*
G75*
G02*
X200820000Y-93160000I250000J0D01*
G01*
X201770000Y-93160000D01*
G75*
G02*
X202020000Y-93410000I0J-250000D01*
G01*
X202020000Y-93910000D01*
G75*
G02*
X201770000Y-94160000I-250000J0D01*
G01*
G37*
%TD*%
D19*
%TO.C,J3*%
X133208000Y-64948000D03*
X133208000Y-58848000D03*
X121808000Y-58848000D03*
X121808000Y-64948000D03*
D20*
X127508000Y-58848000D03*
D21*
X127508000Y-63348000D03*
%TD*%
D22*
%TO.C,D32*%
X256210000Y-104050000D03*
X259410000Y-104050000D03*
X256210000Y-99150000D03*
X259410000Y-99150000D03*
%TD*%
%TO.C,D31*%
X248590000Y-104050000D03*
X251790000Y-104050000D03*
X248590000Y-99150000D03*
X251790000Y-99150000D03*
%TD*%
%TO.C,C9*%
G36*
G01*
X165387000Y-74872000D02*
X166337000Y-74872000D01*
G75*
G02*
X166587000Y-75122000I0J-250000D01*
G01*
X166587000Y-75622000D01*
G75*
G02*
X166337000Y-75872000I-250000J0D01*
G01*
X165387000Y-75872000D01*
G75*
G02*
X165137000Y-75622000I0J250000D01*
G01*
X165137000Y-75122000D01*
G75*
G02*
X165387000Y-74872000I250000J0D01*
G01*
G37*
G36*
G01*
X165387000Y-72972000D02*
X166337000Y-72972000D01*
G75*
G02*
X166587000Y-73222000I0J-250000D01*
G01*
X166587000Y-73722000D01*
G75*
G02*
X166337000Y-73972000I-250000J0D01*
G01*
X165387000Y-73972000D01*
G75*
G02*
X165137000Y-73722000I0J250000D01*
G01*
X165137000Y-73222000D01*
G75*
G02*
X165387000Y-72972000I250000J0D01*
G01*
G37*
%TD*%
%TO.C,R1*%
G36*
G01*
X182480000Y-77273998D02*
X182480000Y-78174002D01*
G75*
G02*
X182230002Y-78424000I-249998J0D01*
G01*
X181704998Y-78424000D01*
G75*
G02*
X181455000Y-78174002I0J249998D01*
G01*
X181455000Y-77273998D01*
G75*
G02*
X181704998Y-77024000I249998J0D01*
G01*
X182230002Y-77024000D01*
G75*
G02*
X182480000Y-77273998I0J-249998D01*
G01*
G37*
G36*
G01*
X184305000Y-77273998D02*
X184305000Y-78174002D01*
G75*
G02*
X184055002Y-78424000I-249998J0D01*
G01*
X183529998Y-78424000D01*
G75*
G02*
X183280000Y-78174002I0J249998D01*
G01*
X183280000Y-77273998D01*
G75*
G02*
X183529998Y-77024000I249998J0D01*
G01*
X184055002Y-77024000D01*
G75*
G02*
X184305000Y-77273998I0J-249998D01*
G01*
G37*
%TD*%
D23*
%TO.C,B1*%
X185420000Y-81661000D03*
%TD*%
%TO.C,B2*%
X185420000Y-83439000D03*
%TD*%
%TO.C,B3*%
X190754000Y-75692000D03*
%TD*%
%TO.C,B4*%
X189738000Y-76962000D03*
%TD*%
%TO.C,B5*%
X186944000Y-79883000D03*
%TD*%
%TO.C,B6*%
X186944000Y-81280000D03*
%TD*%
%TO.C,B7*%
X194310000Y-76962000D03*
%TD*%
%TO.C,B8*%
X191770000Y-76962000D03*
%TD*%
%TO.C,B9*%
X187071000Y-84201000D03*
%TD*%
%TO.C,B10*%
X187071000Y-85598000D03*
%TD*%
%TO.C,B11*%
X187071000Y-86995000D03*
%TD*%
%TO.C,B12*%
X188595000Y-88265000D03*
%TD*%
%TO.C,B13*%
X199644000Y-85344000D03*
%TD*%
%TO.C,B14*%
X200533000Y-84201000D03*
%TD*%
%TO.C,B15*%
X199644000Y-83058000D03*
%TD*%
%TO.C,B16*%
X200533000Y-81915000D03*
%TD*%
%TO.C,B17*%
X199390000Y-80645000D03*
%TD*%
%TO.C,B18*%
X200533000Y-79502000D03*
%TD*%
%TO.C,B19*%
X200279000Y-77089000D03*
%TD*%
%TO.C,B20*%
X60706000Y-90170000D03*
%TD*%
%TO.C,C11*%
G36*
G01*
X43147000Y-109532000D02*
X42197000Y-109532000D01*
G75*
G02*
X41947000Y-109282000I0J250000D01*
G01*
X41947000Y-108782000D01*
G75*
G02*
X42197000Y-108532000I250000J0D01*
G01*
X43147000Y-108532000D01*
G75*
G02*
X43397000Y-108782000I0J-250000D01*
G01*
X43397000Y-109282000D01*
G75*
G02*
X43147000Y-109532000I-250000J0D01*
G01*
G37*
G36*
G01*
X43147000Y-111432000D02*
X42197000Y-111432000D01*
G75*
G02*
X41947000Y-111182000I0J250000D01*
G01*
X41947000Y-110682000D01*
G75*
G02*
X42197000Y-110432000I250000J0D01*
G01*
X43147000Y-110432000D01*
G75*
G02*
X43397000Y-110682000I0J-250000D01*
G01*
X43397000Y-111182000D01*
G75*
G02*
X43147000Y-111432000I-250000J0D01*
G01*
G37*
%TD*%
%TO.C,C12*%
G36*
G01*
X81755000Y-109532000D02*
X80805000Y-109532000D01*
G75*
G02*
X80555000Y-109282000I0J250000D01*
G01*
X80555000Y-108782000D01*
G75*
G02*
X80805000Y-108532000I250000J0D01*
G01*
X81755000Y-108532000D01*
G75*
G02*
X82005000Y-108782000I0J-250000D01*
G01*
X82005000Y-109282000D01*
G75*
G02*
X81755000Y-109532000I-250000J0D01*
G01*
G37*
G36*
G01*
X81755000Y-111432000D02*
X80805000Y-111432000D01*
G75*
G02*
X80555000Y-111182000I0J250000D01*
G01*
X80555000Y-110682000D01*
G75*
G02*
X80805000Y-110432000I250000J0D01*
G01*
X81755000Y-110432000D01*
G75*
G02*
X82005000Y-110682000I0J-250000D01*
G01*
X82005000Y-111182000D01*
G75*
G02*
X81755000Y-111432000I-250000J0D01*
G01*
G37*
%TD*%
%TO.C,C13*%
G36*
G01*
X119347000Y-109532000D02*
X118397000Y-109532000D01*
G75*
G02*
X118147000Y-109282000I0J250000D01*
G01*
X118147000Y-108782000D01*
G75*
G02*
X118397000Y-108532000I250000J0D01*
G01*
X119347000Y-108532000D01*
G75*
G02*
X119597000Y-108782000I0J-250000D01*
G01*
X119597000Y-109282000D01*
G75*
G02*
X119347000Y-109532000I-250000J0D01*
G01*
G37*
G36*
G01*
X119347000Y-111432000D02*
X118397000Y-111432000D01*
G75*
G02*
X118147000Y-111182000I0J250000D01*
G01*
X118147000Y-110682000D01*
G75*
G02*
X118397000Y-110432000I250000J0D01*
G01*
X119347000Y-110432000D01*
G75*
G02*
X119597000Y-110682000I0J-250000D01*
G01*
X119597000Y-111182000D01*
G75*
G02*
X119347000Y-111432000I-250000J0D01*
G01*
G37*
%TD*%
%TO.C,C14*%
G36*
G01*
X157447000Y-109532000D02*
X156497000Y-109532000D01*
G75*
G02*
X156247000Y-109282000I0J250000D01*
G01*
X156247000Y-108782000D01*
G75*
G02*
X156497000Y-108532000I250000J0D01*
G01*
X157447000Y-108532000D01*
G75*
G02*
X157697000Y-108782000I0J-250000D01*
G01*
X157697000Y-109282000D01*
G75*
G02*
X157447000Y-109532000I-250000J0D01*
G01*
G37*
G36*
G01*
X157447000Y-111432000D02*
X156497000Y-111432000D01*
G75*
G02*
X156247000Y-111182000I0J250000D01*
G01*
X156247000Y-110682000D01*
G75*
G02*
X156497000Y-110432000I250000J0D01*
G01*
X157447000Y-110432000D01*
G75*
G02*
X157697000Y-110682000I0J-250000D01*
G01*
X157697000Y-111182000D01*
G75*
G02*
X157447000Y-111432000I-250000J0D01*
G01*
G37*
%TD*%
%TO.C,C15*%
G36*
G01*
X195801000Y-109532000D02*
X194851000Y-109532000D01*
G75*
G02*
X194601000Y-109282000I0J250000D01*
G01*
X194601000Y-108782000D01*
G75*
G02*
X194851000Y-108532000I250000J0D01*
G01*
X195801000Y-108532000D01*
G75*
G02*
X196051000Y-108782000I0J-250000D01*
G01*
X196051000Y-109282000D01*
G75*
G02*
X195801000Y-109532000I-250000J0D01*
G01*
G37*
G36*
G01*
X195801000Y-111432000D02*
X194851000Y-111432000D01*
G75*
G02*
X194601000Y-111182000I0J250000D01*
G01*
X194601000Y-110682000D01*
G75*
G02*
X194851000Y-110432000I250000J0D01*
G01*
X195801000Y-110432000D01*
G75*
G02*
X196051000Y-110682000I0J-250000D01*
G01*
X196051000Y-111182000D01*
G75*
G02*
X195801000Y-111432000I-250000J0D01*
G01*
G37*
%TD*%
%TO.C,C16*%
G36*
G01*
X233647000Y-109532000D02*
X232697000Y-109532000D01*
G75*
G02*
X232447000Y-109282000I0J250000D01*
G01*
X232447000Y-108782000D01*
G75*
G02*
X232697000Y-108532000I250000J0D01*
G01*
X233647000Y-108532000D01*
G75*
G02*
X233897000Y-108782000I0J-250000D01*
G01*
X233897000Y-109282000D01*
G75*
G02*
X233647000Y-109532000I-250000J0D01*
G01*
G37*
G36*
G01*
X233647000Y-111432000D02*
X232697000Y-111432000D01*
G75*
G02*
X232447000Y-111182000I0J250000D01*
G01*
X232447000Y-110682000D01*
G75*
G02*
X232697000Y-110432000I250000J0D01*
G01*
X233647000Y-110432000D01*
G75*
G02*
X233897000Y-110682000I0J-250000D01*
G01*
X233897000Y-111182000D01*
G75*
G02*
X233647000Y-111432000I-250000J0D01*
G01*
G37*
%TD*%
%TO.C,C2*%
G36*
G01*
X196309000Y-73972000D02*
X195359000Y-73972000D01*
G75*
G02*
X195109000Y-73722000I0J250000D01*
G01*
X195109000Y-73222000D01*
G75*
G02*
X195359000Y-72972000I250000J0D01*
G01*
X196309000Y-72972000D01*
G75*
G02*
X196559000Y-73222000I0J-250000D01*
G01*
X196559000Y-73722000D01*
G75*
G02*
X196309000Y-73972000I-250000J0D01*
G01*
G37*
G36*
G01*
X196309000Y-75872000D02*
X195359000Y-75872000D01*
G75*
G02*
X195109000Y-75622000I0J250000D01*
G01*
X195109000Y-75122000D01*
G75*
G02*
X195359000Y-74872000I250000J0D01*
G01*
X196309000Y-74872000D01*
G75*
G02*
X196559000Y-75122000I0J-250000D01*
G01*
X196559000Y-75622000D01*
G75*
G02*
X196309000Y-75872000I-250000J0D01*
G01*
G37*
%TD*%
%TO.C,C3*%
G36*
G01*
X180119000Y-91128000D02*
X181069000Y-91128000D01*
G75*
G02*
X181319000Y-91378000I0J-250000D01*
G01*
X181319000Y-91878000D01*
G75*
G02*
X181069000Y-92128000I-250000J0D01*
G01*
X180119000Y-92128000D01*
G75*
G02*
X179869000Y-91878000I0J250000D01*
G01*
X179869000Y-91378000D01*
G75*
G02*
X180119000Y-91128000I250000J0D01*
G01*
G37*
G36*
G01*
X180119000Y-89228000D02*
X181069000Y-89228000D01*
G75*
G02*
X181319000Y-89478000I0J-250000D01*
G01*
X181319000Y-89978000D01*
G75*
G02*
X181069000Y-90228000I-250000J0D01*
G01*
X180119000Y-90228000D01*
G75*
G02*
X179869000Y-89978000I0J250000D01*
G01*
X179869000Y-89478000D01*
G75*
G02*
X180119000Y-89228000I250000J0D01*
G01*
G37*
%TD*%
%TO.C,C4*%
G36*
G01*
X177579000Y-91128000D02*
X178529000Y-91128000D01*
G75*
G02*
X178779000Y-91378000I0J-250000D01*
G01*
X178779000Y-91878000D01*
G75*
G02*
X178529000Y-92128000I-250000J0D01*
G01*
X177579000Y-92128000D01*
G75*
G02*
X177329000Y-91878000I0J250000D01*
G01*
X177329000Y-91378000D01*
G75*
G02*
X177579000Y-91128000I250000J0D01*
G01*
G37*
G36*
G01*
X177579000Y-89228000D02*
X178529000Y-89228000D01*
G75*
G02*
X178779000Y-89478000I0J-250000D01*
G01*
X178779000Y-89978000D01*
G75*
G02*
X178529000Y-90228000I-250000J0D01*
G01*
X177579000Y-90228000D01*
G75*
G02*
X177329000Y-89978000I0J250000D01*
G01*
X177329000Y-89478000D01*
G75*
G02*
X177579000Y-89228000I250000J0D01*
G01*
G37*
%TD*%
%TO.C,C5*%
G36*
G01*
X194343000Y-93160000D02*
X195293000Y-93160000D01*
G75*
G02*
X195543000Y-93410000I0J-250000D01*
G01*
X195543000Y-93910000D01*
G75*
G02*
X195293000Y-94160000I-250000J0D01*
G01*
X194343000Y-94160000D01*
G75*
G02*
X194093000Y-93910000I0J250000D01*
G01*
X194093000Y-93410000D01*
G75*
G02*
X194343000Y-93160000I250000J0D01*
G01*
G37*
G36*
G01*
X194343000Y-91260000D02*
X195293000Y-91260000D01*
G75*
G02*
X195543000Y-91510000I0J-250000D01*
G01*
X195543000Y-92010000D01*
G75*
G02*
X195293000Y-92260000I-250000J0D01*
G01*
X194343000Y-92260000D01*
G75*
G02*
X194093000Y-92010000I0J250000D01*
G01*
X194093000Y-91510000D01*
G75*
G02*
X194343000Y-91260000I250000J0D01*
G01*
G37*
%TD*%
%TO.C,C7*%
G36*
G01*
X123148000Y-84066000D02*
X124248000Y-84066000D01*
G75*
G02*
X124498000Y-84316000I0J-250000D01*
G01*
X124498000Y-86416000D01*
G75*
G02*
X124248000Y-86666000I-250000J0D01*
G01*
X123148000Y-86666000D01*
G75*
G02*
X122898000Y-86416000I0J250000D01*
G01*
X122898000Y-84316000D01*
G75*
G02*
X123148000Y-84066000I250000J0D01*
G01*
G37*
G36*
G01*
X123148000Y-80466000D02*
X124248000Y-80466000D01*
G75*
G02*
X124498000Y-80716000I0J-250000D01*
G01*
X124498000Y-82816000D01*
G75*
G02*
X124248000Y-83066000I-250000J0D01*
G01*
X123148000Y-83066000D01*
G75*
G02*
X122898000Y-82816000I0J250000D01*
G01*
X122898000Y-80716000D01*
G75*
G02*
X123148000Y-80466000I250000J0D01*
G01*
G37*
%TD*%
%TO.C,C8*%
G36*
G01*
X109949000Y-81084000D02*
X108999000Y-81084000D01*
G75*
G02*
X108749000Y-80834000I0J250000D01*
G01*
X108749000Y-80334000D01*
G75*
G02*
X108999000Y-80084000I250000J0D01*
G01*
X109949000Y-80084000D01*
G75*
G02*
X110199000Y-80334000I0J-250000D01*
G01*
X110199000Y-80834000D01*
G75*
G02*
X109949000Y-81084000I-250000J0D01*
G01*
G37*
G36*
G01*
X109949000Y-82984000D02*
X108999000Y-82984000D01*
G75*
G02*
X108749000Y-82734000I0J250000D01*
G01*
X108749000Y-82234000D01*
G75*
G02*
X108999000Y-81984000I250000J0D01*
G01*
X109949000Y-81984000D01*
G75*
G02*
X110199000Y-82234000I0J-250000D01*
G01*
X110199000Y-82734000D01*
G75*
G02*
X109949000Y-82984000I-250000J0D01*
G01*
G37*
%TD*%
D22*
%TO.C,D1*%
X19990000Y-104050000D03*
X23190000Y-104050000D03*
X19990000Y-99150000D03*
X23190000Y-99150000D03*
%TD*%
%TO.C,D2*%
X27610000Y-104050000D03*
X30810000Y-104050000D03*
X27610000Y-99150000D03*
X30810000Y-99150000D03*
%TD*%
%TO.C,D3*%
X35230000Y-104050000D03*
X38430000Y-104050000D03*
X35230000Y-99150000D03*
X38430000Y-99150000D03*
%TD*%
%TO.C,D4*%
X42850000Y-104050000D03*
X46050000Y-104050000D03*
X42850000Y-99150000D03*
X46050000Y-99150000D03*
%TD*%
%TO.C,D5*%
X50470000Y-104050000D03*
X53670000Y-104050000D03*
X50470000Y-99150000D03*
X53670000Y-99150000D03*
%TD*%
%TO.C,D6*%
X58090000Y-104050000D03*
X61290000Y-104050000D03*
X58090000Y-99150000D03*
X61290000Y-99150000D03*
%TD*%
%TO.C,D7*%
X65710000Y-104050000D03*
X68910000Y-104050000D03*
X65710000Y-99150000D03*
X68910000Y-99150000D03*
%TD*%
%TO.C,D8*%
X73330000Y-104050000D03*
X76530000Y-104050000D03*
X73330000Y-99150000D03*
X76530000Y-99150000D03*
%TD*%
%TO.C,D9*%
X80950000Y-104050000D03*
X84150000Y-104050000D03*
X80950000Y-99150000D03*
X84150000Y-99150000D03*
%TD*%
%TO.C,D10*%
X88570000Y-104050000D03*
X91770000Y-104050000D03*
X88570000Y-99150000D03*
X91770000Y-99150000D03*
%TD*%
%TO.C,D11*%
X96190000Y-104050000D03*
X99390000Y-104050000D03*
X96190000Y-99150000D03*
X99390000Y-99150000D03*
%TD*%
%TO.C,D12*%
X103810000Y-104050000D03*
X107010000Y-104050000D03*
X103810000Y-99150000D03*
X107010000Y-99150000D03*
%TD*%
%TO.C,D13*%
X111430000Y-104050000D03*
X114630000Y-104050000D03*
X111430000Y-99150000D03*
X114630000Y-99150000D03*
%TD*%
%TO.C,D14*%
X119050000Y-104050000D03*
X122250000Y-104050000D03*
X119050000Y-99150000D03*
X122250000Y-99150000D03*
%TD*%
%TO.C,D15*%
X126670000Y-104050000D03*
X129870000Y-104050000D03*
X126670000Y-99150000D03*
X129870000Y-99150000D03*
%TD*%
%TO.C,D16*%
X134290000Y-104050000D03*
X137490000Y-104050000D03*
X134290000Y-99150000D03*
X137490000Y-99150000D03*
%TD*%
%TO.C,D17*%
X141910000Y-104050000D03*
X145110000Y-104050000D03*
X141910000Y-99150000D03*
X145110000Y-99150000D03*
%TD*%
%TO.C,D18*%
X149530000Y-104050000D03*
X152730000Y-104050000D03*
X149530000Y-99150000D03*
X152730000Y-99150000D03*
%TD*%
%TO.C,D19*%
X157150000Y-104050000D03*
X160350000Y-104050000D03*
X157150000Y-99150000D03*
X160350000Y-99150000D03*
%TD*%
%TO.C,D20*%
X164770000Y-104050000D03*
X167970000Y-104050000D03*
X164770000Y-99150000D03*
X167970000Y-99150000D03*
%TD*%
%TO.C,D21*%
X172390000Y-104050000D03*
X175590000Y-104050000D03*
X172390000Y-99150000D03*
X175590000Y-99150000D03*
%TD*%
%TO.C,D22*%
X180010000Y-104050000D03*
X183210000Y-104050000D03*
X180010000Y-99150000D03*
X183210000Y-99150000D03*
%TD*%
%TO.C,D23*%
X187630000Y-104050000D03*
X190830000Y-104050000D03*
X187630000Y-99150000D03*
X190830000Y-99150000D03*
%TD*%
%TO.C,D24*%
X195250000Y-104050000D03*
X198450000Y-104050000D03*
X195250000Y-99150000D03*
X198450000Y-99150000D03*
%TD*%
%TO.C,D25*%
X202870000Y-104050000D03*
X206070000Y-104050000D03*
X202870000Y-99150000D03*
X206070000Y-99150000D03*
%TD*%
%TO.C,D26*%
X210490000Y-104050000D03*
X213690000Y-104050000D03*
X210490000Y-99150000D03*
X213690000Y-99150000D03*
%TD*%
%TO.C,D27*%
X218110000Y-104050000D03*
X221310000Y-104050000D03*
X218110000Y-99150000D03*
X221310000Y-99150000D03*
%TD*%
%TO.C,D28*%
X225730000Y-104050000D03*
X228930000Y-104050000D03*
X225730000Y-99150000D03*
X228930000Y-99150000D03*
%TD*%
%TO.C,D29*%
X233350000Y-104050000D03*
X236550000Y-104050000D03*
X233350000Y-99150000D03*
X236550000Y-99150000D03*
%TD*%
%TO.C,D30*%
X240970000Y-104050000D03*
X244170000Y-104050000D03*
X240970000Y-99150000D03*
X244170000Y-99150000D03*
%TD*%
%TO.C,D35*%
G36*
G01*
X106731750Y-80109000D02*
X107644250Y-80109000D01*
G75*
G02*
X107888000Y-80352750I0J-243750D01*
G01*
X107888000Y-80840250D01*
G75*
G02*
X107644250Y-81084000I-243750J0D01*
G01*
X106731750Y-81084000D01*
G75*
G02*
X106488000Y-80840250I0J243750D01*
G01*
X106488000Y-80352750D01*
G75*
G02*
X106731750Y-80109000I243750J0D01*
G01*
G37*
G36*
G01*
X106731750Y-81984000D02*
X107644250Y-81984000D01*
G75*
G02*
X107888000Y-82227750I0J-243750D01*
G01*
X107888000Y-82715250D01*
G75*
G02*
X107644250Y-82959000I-243750J0D01*
G01*
X106731750Y-82959000D01*
G75*
G02*
X106488000Y-82715250I0J243750D01*
G01*
X106488000Y-82227750D01*
G75*
G02*
X106731750Y-81984000I243750J0D01*
G01*
G37*
%TD*%
%TO.C,D36*%
G36*
G01*
X200735250Y-75974000D02*
X199822750Y-75974000D01*
G75*
G02*
X199579000Y-75730250I0J243750D01*
G01*
X199579000Y-75242750D01*
G75*
G02*
X199822750Y-74999000I243750J0D01*
G01*
X200735250Y-74999000D01*
G75*
G02*
X200979000Y-75242750I0J-243750D01*
G01*
X200979000Y-75730250D01*
G75*
G02*
X200735250Y-75974000I-243750J0D01*
G01*
G37*
G36*
G01*
X200735250Y-74099000D02*
X199822750Y-74099000D01*
G75*
G02*
X199579000Y-73855250I0J243750D01*
G01*
X199579000Y-73367750D01*
G75*
G02*
X199822750Y-73124000I243750J0D01*
G01*
X200735250Y-73124000D01*
G75*
G02*
X200979000Y-73367750I0J-243750D01*
G01*
X200979000Y-73855250D01*
G75*
G02*
X200735250Y-74099000I-243750J0D01*
G01*
G37*
%TD*%
D24*
%TO.C,P1*%
X54737000Y-92710000D03*
X58039000Y-90170000D03*
X54737000Y-87630000D03*
X58039000Y-85090000D03*
X58039000Y-92710000D03*
X58039000Y-87630000D03*
X54737000Y-90170000D03*
X54737000Y-85090000D03*
%TD*%
D25*
%TO.C,P2*%
X165862000Y-65532000D03*
X168402000Y-68834000D03*
X170942000Y-65532000D03*
X173482000Y-68834000D03*
X176022000Y-65532000D03*
X178562000Y-68834000D03*
X178562000Y-65532000D03*
X173482000Y-65532000D03*
X168402000Y-65532000D03*
X176022000Y-68834000D03*
X170942000Y-68834000D03*
X165862000Y-68834000D03*
%TD*%
D26*
%TO.C,P3*%
X205628000Y-80899000D03*
X210678000Y-80899000D03*
X205628000Y-83439000D03*
X210678000Y-83439000D03*
X205628000Y-85979000D03*
X210678000Y-85979000D03*
%TD*%
D24*
%TO.C,P4*%
X225679000Y-92710000D03*
X228981000Y-90170000D03*
X225679000Y-87630000D03*
X228981000Y-85090000D03*
X228981000Y-92710000D03*
X228981000Y-87630000D03*
X225679000Y-90170000D03*
X225679000Y-85090000D03*
%TD*%
%TO.C,R2*%
G36*
G01*
X183280000Y-81984002D02*
X183280000Y-81083998D01*
G75*
G02*
X183529998Y-80834000I249998J0D01*
G01*
X184055002Y-80834000D01*
G75*
G02*
X184305000Y-81083998I0J-249998D01*
G01*
X184305000Y-81984002D01*
G75*
G02*
X184055002Y-82234000I-249998J0D01*
G01*
X183529998Y-82234000D01*
G75*
G02*
X183280000Y-81984002I0J249998D01*
G01*
G37*
G36*
G01*
X181455000Y-81984002D02*
X181455000Y-81083998D01*
G75*
G02*
X181704998Y-80834000I249998J0D01*
G01*
X182230002Y-80834000D01*
G75*
G02*
X182480000Y-81083998I0J-249998D01*
G01*
X182480000Y-81984002D01*
G75*
G02*
X182230002Y-82234000I-249998J0D01*
G01*
X181704998Y-82234000D01*
G75*
G02*
X181455000Y-81984002I0J249998D01*
G01*
G37*
%TD*%
%TO.C,R3*%
G36*
G01*
X183280000Y-84143002D02*
X183280000Y-83242998D01*
G75*
G02*
X183529998Y-82993000I249998J0D01*
G01*
X184055002Y-82993000D01*
G75*
G02*
X184305000Y-83242998I0J-249998D01*
G01*
X184305000Y-84143002D01*
G75*
G02*
X184055002Y-84393000I-249998J0D01*
G01*
X183529998Y-84393000D01*
G75*
G02*
X183280000Y-84143002I0J249998D01*
G01*
G37*
G36*
G01*
X181455000Y-84143002D02*
X181455000Y-83242998D01*
G75*
G02*
X181704998Y-82993000I249998J0D01*
G01*
X182230002Y-82993000D01*
G75*
G02*
X182480000Y-83242998I0J-249998D01*
G01*
X182480000Y-84143002D01*
G75*
G02*
X182230002Y-84393000I-249998J0D01*
G01*
X181704998Y-84393000D01*
G75*
G02*
X181455000Y-84143002I0J249998D01*
G01*
G37*
%TD*%
%TO.C,R4*%
G36*
G01*
X189934002Y-91548000D02*
X189033998Y-91548000D01*
G75*
G02*
X188784000Y-91298002I0J249998D01*
G01*
X188784000Y-90772998D01*
G75*
G02*
X189033998Y-90523000I249998J0D01*
G01*
X189934002Y-90523000D01*
G75*
G02*
X190184000Y-90772998I0J-249998D01*
G01*
X190184000Y-91298002D01*
G75*
G02*
X189934002Y-91548000I-249998J0D01*
G01*
G37*
G36*
G01*
X189934002Y-93373000D02*
X189033998Y-93373000D01*
G75*
G02*
X188784000Y-93123002I0J249998D01*
G01*
X188784000Y-92597998D01*
G75*
G02*
X189033998Y-92348000I249998J0D01*
G01*
X189934002Y-92348000D01*
G75*
G02*
X190184000Y-92597998I0J-249998D01*
G01*
X190184000Y-93123002D01*
G75*
G02*
X189934002Y-93373000I-249998J0D01*
G01*
G37*
%TD*%
%TO.C,R5*%
G36*
G01*
X145484002Y-66656000D02*
X144583998Y-66656000D01*
G75*
G02*
X144334000Y-66406002I0J249998D01*
G01*
X144334000Y-65880998D01*
G75*
G02*
X144583998Y-65631000I249998J0D01*
G01*
X145484002Y-65631000D01*
G75*
G02*
X145734000Y-65880998I0J-249998D01*
G01*
X145734000Y-66406002D01*
G75*
G02*
X145484002Y-66656000I-249998J0D01*
G01*
G37*
G36*
G01*
X145484002Y-68481000D02*
X144583998Y-68481000D01*
G75*
G02*
X144334000Y-68231002I0J249998D01*
G01*
X144334000Y-67705998D01*
G75*
G02*
X144583998Y-67456000I249998J0D01*
G01*
X145484002Y-67456000D01*
G75*
G02*
X145734000Y-67705998I0J-249998D01*
G01*
X145734000Y-68231002D01*
G75*
G02*
X145484002Y-68481000I-249998J0D01*
G01*
G37*
%TD*%
%TO.C,R6*%
G36*
G01*
X159200002Y-66656000D02*
X158299998Y-66656000D01*
G75*
G02*
X158050000Y-66406002I0J249998D01*
G01*
X158050000Y-65880998D01*
G75*
G02*
X158299998Y-65631000I249998J0D01*
G01*
X159200002Y-65631000D01*
G75*
G02*
X159450000Y-65880998I0J-249998D01*
G01*
X159450000Y-66406002D01*
G75*
G02*
X159200002Y-66656000I-249998J0D01*
G01*
G37*
G36*
G01*
X159200002Y-68481000D02*
X158299998Y-68481000D01*
G75*
G02*
X158050000Y-68231002I0J249998D01*
G01*
X158050000Y-67705998D01*
G75*
G02*
X158299998Y-67456000I249998J0D01*
G01*
X159200002Y-67456000D01*
G75*
G02*
X159450000Y-67705998I0J-249998D01*
G01*
X159450000Y-68231002D01*
G75*
G02*
X159200002Y-68481000I-249998J0D01*
G01*
G37*
%TD*%
%TO.C,R7*%
G36*
G01*
X104451998Y-81934000D02*
X105352002Y-81934000D01*
G75*
G02*
X105602000Y-82183998I0J-249998D01*
G01*
X105602000Y-82709002D01*
G75*
G02*
X105352002Y-82959000I-249998J0D01*
G01*
X104451998Y-82959000D01*
G75*
G02*
X104202000Y-82709002I0J249998D01*
G01*
X104202000Y-82183998D01*
G75*
G02*
X104451998Y-81934000I249998J0D01*
G01*
G37*
G36*
G01*
X104451998Y-80109000D02*
X105352002Y-80109000D01*
G75*
G02*
X105602000Y-80358998I0J-249998D01*
G01*
X105602000Y-80884002D01*
G75*
G02*
X105352002Y-81134000I-249998J0D01*
G01*
X104451998Y-81134000D01*
G75*
G02*
X104202000Y-80884002I0J249998D01*
G01*
X104202000Y-80358998D01*
G75*
G02*
X104451998Y-80109000I249998J0D01*
G01*
G37*
%TD*%
%TO.C,R8*%
G36*
G01*
X203142002Y-74149000D02*
X202241998Y-74149000D01*
G75*
G02*
X201992000Y-73899002I0J249998D01*
G01*
X201992000Y-73373998D01*
G75*
G02*
X202241998Y-73124000I249998J0D01*
G01*
X203142002Y-73124000D01*
G75*
G02*
X203392000Y-73373998I0J-249998D01*
G01*
X203392000Y-73899002D01*
G75*
G02*
X203142002Y-74149000I-249998J0D01*
G01*
G37*
G36*
G01*
X203142002Y-75974000D02*
X202241998Y-75974000D01*
G75*
G02*
X201992000Y-75724002I0J249998D01*
G01*
X201992000Y-75198998D01*
G75*
G02*
X202241998Y-74949000I249998J0D01*
G01*
X203142002Y-74949000D01*
G75*
G02*
X203392000Y-75198998I0J-249998D01*
G01*
X203392000Y-75724002D01*
G75*
G02*
X203142002Y-75974000I-249998J0D01*
G01*
G37*
%TD*%
D27*
%TO.C,SC1*%
X25017000Y-92125000D03*
D28*
X27417000Y-92125000D03*
X26714056Y-93822056D03*
X25017000Y-94525000D03*
X23319944Y-93822056D03*
X22617000Y-92125000D03*
X23319944Y-90427944D03*
X25017000Y-89725000D03*
X26714056Y-90427944D03*
%TD*%
D27*
%TO.C,SC2*%
X88114000Y-68741000D03*
D28*
X90514000Y-68741000D03*
X89811056Y-70438056D03*
X88114000Y-71141000D03*
X86416944Y-70438056D03*
X85714000Y-68741000D03*
X86416944Y-67043944D03*
X88114000Y-66341000D03*
X89811056Y-67043944D03*
%TD*%
D27*
%TO.C,SC3*%
X191286000Y-68741000D03*
D28*
X193686000Y-68741000D03*
X192983056Y-70438056D03*
X191286000Y-71141000D03*
X189588944Y-70438056D03*
X188886000Y-68741000D03*
X189588944Y-67043944D03*
X191286000Y-66341000D03*
X192983056Y-67043944D03*
%TD*%
D27*
%TO.C,SC4*%
X254383000Y-92125000D03*
D28*
X256783000Y-92125000D03*
X256080056Y-93822056D03*
X254383000Y-94525000D03*
X252685944Y-93822056D03*
X251983000Y-92125000D03*
X252685944Y-90427944D03*
X254383000Y-89725000D03*
X256080056Y-90427944D03*
%TD*%
D27*
%TO.C,SC5*%
X254383000Y-111075000D03*
D28*
X256783000Y-111075000D03*
X256080056Y-112772056D03*
X254383000Y-113475000D03*
X252685944Y-112772056D03*
X251983000Y-111075000D03*
X252685944Y-109377944D03*
X254383000Y-108675000D03*
X256080056Y-109377944D03*
%TD*%
D27*
%TO.C,SC6*%
X191286000Y-134459000D03*
D28*
X193686000Y-134459000D03*
X192983056Y-136156056D03*
X191286000Y-136859000D03*
X189588944Y-136156056D03*
X188886000Y-134459000D03*
X189588944Y-132761944D03*
X191286000Y-132059000D03*
X192983056Y-132761944D03*
%TD*%
D27*
%TO.C,SC7*%
X88114000Y-134459000D03*
D28*
X90514000Y-134459000D03*
X89811056Y-136156056D03*
X88114000Y-136859000D03*
X86416944Y-136156056D03*
X85714000Y-134459000D03*
X86416944Y-132761944D03*
X88114000Y-132059000D03*
X89811056Y-132761944D03*
%TD*%
D27*
%TO.C,SC8*%
X25017000Y-111075000D03*
D28*
X27417000Y-111075000D03*
X26714056Y-112772056D03*
X25017000Y-113475000D03*
X23319944Y-112772056D03*
X22617000Y-111075000D03*
X23319944Y-109377944D03*
X25017000Y-108675000D03*
X26714056Y-109377944D03*
%TD*%
D29*
%TO.C,U1*%
X190240000Y-87562000D03*
X191040000Y-87562000D03*
X191840000Y-87562000D03*
X192640000Y-87562000D03*
X193440000Y-87562000D03*
X194240000Y-87562000D03*
X195040000Y-87562000D03*
X195840000Y-87562000D03*
D30*
X197290000Y-86112000D03*
X197290000Y-85312000D03*
X197290000Y-84512000D03*
X197290000Y-83712000D03*
X197290000Y-82912000D03*
X197290000Y-82112000D03*
X197290000Y-81312000D03*
X197290000Y-80512000D03*
D29*
X195840000Y-79062000D03*
X195040000Y-79062000D03*
X194240000Y-79062000D03*
X193440000Y-79062000D03*
X192640000Y-79062000D03*
X191840000Y-79062000D03*
X191040000Y-79062000D03*
X190240000Y-79062000D03*
D30*
X188790000Y-80512000D03*
X188790000Y-81312000D03*
X188790000Y-82112000D03*
X188790000Y-82912000D03*
X188790000Y-83712000D03*
X188790000Y-84512000D03*
X188790000Y-85312000D03*
X188790000Y-86112000D03*
%TD*%
D31*
%TO.C,X1*%
X197020000Y-90590000D03*
X199220000Y-90590000D03*
X199220000Y-92290000D03*
X197020000Y-92290000D03*
%TD*%
D26*
%TO.C,SW2*%
X154925000Y-138430000D03*
X149875000Y-138430000D03*
X154925000Y-135890000D03*
X149875000Y-135890000D03*
%TD*%
D32*
%TO.C,D33*%
X143138000Y-83566000D03*
X147438000Y-83566000D03*
%TD*%
%TO.C,D34*%
X134484000Y-83566000D03*
X130184000Y-83566000D03*
%TD*%
D33*
%TO.C,P5*%
X133350000Y-126111000D03*
X135890000Y-122809000D03*
X138430000Y-126111000D03*
X140970000Y-122809000D03*
X143510000Y-126111000D03*
X146050000Y-122809000D03*
X146050000Y-126111000D03*
X143510000Y-122809000D03*
X140970000Y-126111000D03*
X138430000Y-122809000D03*
X135890000Y-126111000D03*
X133350000Y-122809000D03*
D34*
X144780000Y-140970000D03*
X134620000Y-140970000D03*
%TD*%
%TO.C,C17*%
G36*
G01*
X143223000Y-66606000D02*
X142273000Y-66606000D01*
G75*
G02*
X142023000Y-66356000I0J250000D01*
G01*
X142023000Y-65856000D01*
G75*
G02*
X142273000Y-65606000I250000J0D01*
G01*
X143223000Y-65606000D01*
G75*
G02*
X143473000Y-65856000I0J-250000D01*
G01*
X143473000Y-66356000D01*
G75*
G02*
X143223000Y-66606000I-250000J0D01*
G01*
G37*
G36*
G01*
X143223000Y-68506000D02*
X142273000Y-68506000D01*
G75*
G02*
X142023000Y-68256000I0J250000D01*
G01*
X142023000Y-67756000D01*
G75*
G02*
X142273000Y-67506000I250000J0D01*
G01*
X143223000Y-67506000D01*
G75*
G02*
X143473000Y-67756000I0J-250000D01*
G01*
X143473000Y-68256000D01*
G75*
G02*
X143223000Y-68506000I-250000J0D01*
G01*
G37*
%TD*%
%TO.C,C19*%
G36*
G01*
X108999000Y-86048000D02*
X109949000Y-86048000D01*
G75*
G02*
X110199000Y-86298000I0J-250000D01*
G01*
X110199000Y-86798000D01*
G75*
G02*
X109949000Y-87048000I-250000J0D01*
G01*
X108999000Y-87048000D01*
G75*
G02*
X108749000Y-86798000I0J250000D01*
G01*
X108749000Y-86298000D01*
G75*
G02*
X108999000Y-86048000I250000J0D01*
G01*
G37*
G36*
G01*
X108999000Y-84148000D02*
X109949000Y-84148000D01*
G75*
G02*
X110199000Y-84398000I0J-250000D01*
G01*
X110199000Y-84898000D01*
G75*
G02*
X109949000Y-85148000I-250000J0D01*
G01*
X108999000Y-85148000D01*
G75*
G02*
X108749000Y-84898000I0J250000D01*
G01*
X108749000Y-84398000D01*
G75*
G02*
X108999000Y-84148000I250000J0D01*
G01*
G37*
%TD*%
%TO.C,C20*%
G36*
G01*
X177716200Y-71940000D02*
X176766200Y-71940000D01*
G75*
G02*
X176516200Y-71690000I0J250000D01*
G01*
X176516200Y-71190000D01*
G75*
G02*
X176766200Y-70940000I250000J0D01*
G01*
X177716200Y-70940000D01*
G75*
G02*
X177966200Y-71190000I0J-250000D01*
G01*
X177966200Y-71690000D01*
G75*
G02*
X177716200Y-71940000I-250000J0D01*
G01*
G37*
G36*
G01*
X177716200Y-73840000D02*
X176766200Y-73840000D01*
G75*
G02*
X176516200Y-73590000I0J250000D01*
G01*
X176516200Y-73090000D01*
G75*
G02*
X176766200Y-72840000I250000J0D01*
G01*
X177716200Y-72840000D01*
G75*
G02*
X177966200Y-73090000I0J-250000D01*
G01*
X177966200Y-73590000D01*
G75*
G02*
X177716200Y-73840000I-250000J0D01*
G01*
G37*
%TD*%
%TO.C,R9*%
G36*
G01*
X204285002Y-94135000D02*
X203384998Y-94135000D01*
G75*
G02*
X203135000Y-93885002I0J249998D01*
G01*
X203135000Y-93359998D01*
G75*
G02*
X203384998Y-93110000I249998J0D01*
G01*
X204285002Y-93110000D01*
G75*
G02*
X204535000Y-93359998I0J-249998D01*
G01*
X204535000Y-93885002D01*
G75*
G02*
X204285002Y-94135000I-249998J0D01*
G01*
G37*
G36*
G01*
X204285002Y-92310000D02*
X203384998Y-92310000D01*
G75*
G02*
X203135000Y-92060002I0J249998D01*
G01*
X203135000Y-91534998D01*
G75*
G02*
X203384998Y-91285000I249998J0D01*
G01*
X204285002Y-91285000D01*
G75*
G02*
X204535000Y-91534998I0J-249998D01*
G01*
X204535000Y-92060002D01*
G75*
G02*
X204285002Y-92310000I-249998J0D01*
G01*
G37*
%TD*%
%TO.C,R10*%
G36*
G01*
X206825002Y-92310000D02*
X205924998Y-92310000D01*
G75*
G02*
X205675000Y-92060002I0J249998D01*
G01*
X205675000Y-91534998D01*
G75*
G02*
X205924998Y-91285000I249998J0D01*
G01*
X206825002Y-91285000D01*
G75*
G02*
X207075000Y-91534998I0J-249998D01*
G01*
X207075000Y-92060002D01*
G75*
G02*
X206825002Y-92310000I-249998J0D01*
G01*
G37*
G36*
G01*
X206825002Y-94135000D02*
X205924998Y-94135000D01*
G75*
G02*
X205675000Y-93885002I0J249998D01*
G01*
X205675000Y-93359998D01*
G75*
G02*
X205924998Y-93110000I249998J0D01*
G01*
X206825002Y-93110000D01*
G75*
G02*
X207075000Y-93359998I0J-249998D01*
G01*
X207075000Y-93885002D01*
G75*
G02*
X206825002Y-94135000I-249998J0D01*
G01*
G37*
%TD*%
D23*
%TO.C,B21*%
X231775000Y-90170000D03*
%TD*%
M02*
