%TF.GenerationSoftware,KiCad,Pcbnew,5.1.7-a382d34a8~87~ubuntu20.04.1*%
%TF.CreationDate,2020-11-03T23:07:43+05:30*%
%TF.ProjectId,halo,68616c6f-2e6b-4696-9361-645f70636258,v1*%
%TF.SameCoordinates,Original*%
%TF.FileFunction,Paste,Top*%
%TF.FilePolarity,Positive*%
%FSLAX46Y46*%
G04 Gerber Fmt 4.6, Leading zero omitted, Abs format (unit mm)*
G04 Created by KiCad (PCBNEW 5.1.7-a382d34a8~87~ubuntu20.04.1) date 2020-11-03 23:07:43*
%MOMM*%
%LPD*%
G01*
G04 APERTURE LIST*
%ADD10R,1.550000X1.300000*%
%ADD11R,2.000000X3.800000*%
%ADD12R,2.000000X1.500000*%
%ADD13R,0.300000X1.000000*%
%ADD14R,1.000000X3.150000*%
%ADD15R,2.400000X2.800000*%
%ADD16R,1.016000X1.905000*%
%ADD17R,1.000000X1.500000*%
%ADD18C,1.000000*%
%ADD19R,1.900000X1.000000*%
%ADD20R,1.000000X2.510000*%
%ADD21R,3.150000X1.000000*%
%ADD22R,0.550000X1.600000*%
%ADD23R,1.600000X0.550000*%
%ADD24R,1.400000X1.200000*%
%ADD25R,2.500000X2.300000*%
G04 APERTURE END LIST*
%TO.C,C10*%
G36*
G01*
X216375000Y-82862000D02*
X215425000Y-82862000D01*
G75*
G02*
X215175000Y-82612000I0J250000D01*
G01*
X215175000Y-82112000D01*
G75*
G02*
X215425000Y-81862000I250000J0D01*
G01*
X216375000Y-81862000D01*
G75*
G02*
X216625000Y-82112000I0J-250000D01*
G01*
X216625000Y-82612000D01*
G75*
G02*
X216375000Y-82862000I-250000J0D01*
G01*
G37*
G36*
G01*
X216375000Y-84762000D02*
X215425000Y-84762000D01*
G75*
G02*
X215175000Y-84512000I0J250000D01*
G01*
X215175000Y-84012000D01*
G75*
G02*
X215425000Y-83762000I250000J0D01*
G01*
X216375000Y-83762000D01*
G75*
G02*
X216625000Y-84012000I0J-250000D01*
G01*
X216625000Y-84512000D01*
G75*
G02*
X216375000Y-84762000I-250000J0D01*
G01*
G37*
%TD*%
%TO.C,C1*%
G36*
G01*
X183854000Y-91178000D02*
X184954000Y-91178000D01*
G75*
G02*
X185204000Y-91428000I0J-250000D01*
G01*
X185204000Y-93528000D01*
G75*
G02*
X184954000Y-93778000I-250000J0D01*
G01*
X183854000Y-93778000D01*
G75*
G02*
X183604000Y-93528000I0J250000D01*
G01*
X183604000Y-91428000D01*
G75*
G02*
X183854000Y-91178000I250000J0D01*
G01*
G37*
G36*
G01*
X183854000Y-87578000D02*
X184954000Y-87578000D01*
G75*
G02*
X185204000Y-87828000I0J-250000D01*
G01*
X185204000Y-89928000D01*
G75*
G02*
X184954000Y-90178000I-250000J0D01*
G01*
X183854000Y-90178000D01*
G75*
G02*
X183604000Y-89928000I0J250000D01*
G01*
X183604000Y-87828000D01*
G75*
G02*
X183854000Y-87578000I250000J0D01*
G01*
G37*
%TD*%
D10*
%TO.C,SW1*%
X167983000Y-76490000D03*
X167983000Y-80990000D03*
X175933000Y-80990000D03*
X175933000Y-76490000D03*
%TD*%
D11*
%TO.C,U2*%
X112166000Y-83566000D03*
D12*
X118466000Y-83566000D03*
X118466000Y-81266000D03*
X118466000Y-85866000D03*
%TD*%
%TO.C,C6*%
G36*
G01*
X201770000Y-92260000D02*
X200820000Y-92260000D01*
G75*
G02*
X200570000Y-92010000I0J250000D01*
G01*
X200570000Y-91510000D01*
G75*
G02*
X200820000Y-91260000I250000J0D01*
G01*
X201770000Y-91260000D01*
G75*
G02*
X202020000Y-91510000I0J-250000D01*
G01*
X202020000Y-92010000D01*
G75*
G02*
X201770000Y-92260000I-250000J0D01*
G01*
G37*
G36*
G01*
X201770000Y-94160000D02*
X200820000Y-94160000D01*
G75*
G02*
X200570000Y-93910000I0J250000D01*
G01*
X200570000Y-93410000D01*
G75*
G02*
X200820000Y-93160000I250000J0D01*
G01*
X201770000Y-93160000D01*
G75*
G02*
X202020000Y-93410000I0J-250000D01*
G01*
X202020000Y-93910000D01*
G75*
G02*
X201770000Y-94160000I-250000J0D01*
G01*
G37*
%TD*%
D13*
%TO.C,J2*%
X154390000Y-63077000D03*
X153890000Y-63077000D03*
X153390000Y-63077000D03*
X152890000Y-63077000D03*
X152390000Y-63077000D03*
X151890000Y-63077000D03*
X151390000Y-63077000D03*
X150890000Y-63077000D03*
X150390000Y-63077000D03*
X149890000Y-63077000D03*
X149390000Y-63077000D03*
X148890000Y-63077000D03*
X149140000Y-61727000D03*
X149640000Y-61727000D03*
X150140000Y-61727000D03*
X150640000Y-61727000D03*
X151140000Y-61727000D03*
X151640000Y-61727000D03*
X152140000Y-61727000D03*
X152640000Y-61727000D03*
X153140000Y-61727000D03*
X153640000Y-61727000D03*
X154140000Y-61727000D03*
X154640000Y-61727000D03*
%TD*%
D14*
%TO.C,J1*%
X155575000Y-70246000D03*
X155575000Y-75296000D03*
X153035000Y-70246000D03*
X153035000Y-75296000D03*
X150495000Y-70246000D03*
X150495000Y-75296000D03*
X147955000Y-70246000D03*
X147955000Y-75296000D03*
%TD*%
D15*
%TO.C,J3*%
X133208000Y-64948000D03*
X133208000Y-58848000D03*
X121808000Y-58848000D03*
X121808000Y-64948000D03*
%TD*%
D16*
%TO.C,P5*%
X133350000Y-122809000D03*
X135890000Y-126111000D03*
X138430000Y-122809000D03*
X140970000Y-126111000D03*
X143510000Y-122809000D03*
X146050000Y-126111000D03*
%TD*%
D17*
%TO.C,D32*%
X256210000Y-104050000D03*
X259410000Y-104050000D03*
X256210000Y-99150000D03*
X259410000Y-99150000D03*
%TD*%
%TO.C,D31*%
X248590000Y-104050000D03*
X251790000Y-104050000D03*
X248590000Y-99150000D03*
X251790000Y-99150000D03*
%TD*%
%TO.C,C9*%
G36*
G01*
X165387000Y-74872000D02*
X166337000Y-74872000D01*
G75*
G02*
X166587000Y-75122000I0J-250000D01*
G01*
X166587000Y-75622000D01*
G75*
G02*
X166337000Y-75872000I-250000J0D01*
G01*
X165387000Y-75872000D01*
G75*
G02*
X165137000Y-75622000I0J250000D01*
G01*
X165137000Y-75122000D01*
G75*
G02*
X165387000Y-74872000I250000J0D01*
G01*
G37*
G36*
G01*
X165387000Y-72972000D02*
X166337000Y-72972000D01*
G75*
G02*
X166587000Y-73222000I0J-250000D01*
G01*
X166587000Y-73722000D01*
G75*
G02*
X166337000Y-73972000I-250000J0D01*
G01*
X165387000Y-73972000D01*
G75*
G02*
X165137000Y-73722000I0J250000D01*
G01*
X165137000Y-73222000D01*
G75*
G02*
X165387000Y-72972000I250000J0D01*
G01*
G37*
%TD*%
%TO.C,R1*%
G36*
G01*
X182480000Y-77273998D02*
X182480000Y-78174002D01*
G75*
G02*
X182230002Y-78424000I-249998J0D01*
G01*
X181704998Y-78424000D01*
G75*
G02*
X181455000Y-78174002I0J249998D01*
G01*
X181455000Y-77273998D01*
G75*
G02*
X181704998Y-77024000I249998J0D01*
G01*
X182230002Y-77024000D01*
G75*
G02*
X182480000Y-77273998I0J-249998D01*
G01*
G37*
G36*
G01*
X184305000Y-77273998D02*
X184305000Y-78174002D01*
G75*
G02*
X184055002Y-78424000I-249998J0D01*
G01*
X183529998Y-78424000D01*
G75*
G02*
X183280000Y-78174002I0J249998D01*
G01*
X183280000Y-77273998D01*
G75*
G02*
X183529998Y-77024000I249998J0D01*
G01*
X184055002Y-77024000D01*
G75*
G02*
X184305000Y-77273998I0J-249998D01*
G01*
G37*
%TD*%
D18*
%TO.C,B1*%
X185420000Y-81661000D03*
%TD*%
%TO.C,B2*%
X185420000Y-83439000D03*
%TD*%
%TO.C,B3*%
X190754000Y-75692000D03*
%TD*%
%TO.C,B4*%
X189738000Y-76962000D03*
%TD*%
%TO.C,B5*%
X186944000Y-79883000D03*
%TD*%
%TO.C,B6*%
X186944000Y-81280000D03*
%TD*%
%TO.C,B7*%
X194310000Y-76962000D03*
%TD*%
%TO.C,B8*%
X191770000Y-76962000D03*
%TD*%
%TO.C,B9*%
X187071000Y-84201000D03*
%TD*%
%TO.C,B10*%
X187071000Y-85598000D03*
%TD*%
%TO.C,B11*%
X187071000Y-86995000D03*
%TD*%
%TO.C,B12*%
X188595000Y-88265000D03*
%TD*%
%TO.C,B13*%
X199644000Y-85344000D03*
%TD*%
%TO.C,B14*%
X200533000Y-84201000D03*
%TD*%
%TO.C,B15*%
X199644000Y-83058000D03*
%TD*%
%TO.C,B16*%
X200533000Y-81915000D03*
%TD*%
%TO.C,B17*%
X199390000Y-80645000D03*
%TD*%
%TO.C,B18*%
X200533000Y-79502000D03*
%TD*%
%TO.C,B19*%
X200279000Y-77089000D03*
%TD*%
%TO.C,B20*%
X200533000Y-86487000D03*
%TD*%
%TO.C,C11*%
G36*
G01*
X43147000Y-109532000D02*
X42197000Y-109532000D01*
G75*
G02*
X41947000Y-109282000I0J250000D01*
G01*
X41947000Y-108782000D01*
G75*
G02*
X42197000Y-108532000I250000J0D01*
G01*
X43147000Y-108532000D01*
G75*
G02*
X43397000Y-108782000I0J-250000D01*
G01*
X43397000Y-109282000D01*
G75*
G02*
X43147000Y-109532000I-250000J0D01*
G01*
G37*
G36*
G01*
X43147000Y-111432000D02*
X42197000Y-111432000D01*
G75*
G02*
X41947000Y-111182000I0J250000D01*
G01*
X41947000Y-110682000D01*
G75*
G02*
X42197000Y-110432000I250000J0D01*
G01*
X43147000Y-110432000D01*
G75*
G02*
X43397000Y-110682000I0J-250000D01*
G01*
X43397000Y-111182000D01*
G75*
G02*
X43147000Y-111432000I-250000J0D01*
G01*
G37*
%TD*%
%TO.C,C12*%
G36*
G01*
X81755000Y-109532000D02*
X80805000Y-109532000D01*
G75*
G02*
X80555000Y-109282000I0J250000D01*
G01*
X80555000Y-108782000D01*
G75*
G02*
X80805000Y-108532000I250000J0D01*
G01*
X81755000Y-108532000D01*
G75*
G02*
X82005000Y-108782000I0J-250000D01*
G01*
X82005000Y-109282000D01*
G75*
G02*
X81755000Y-109532000I-250000J0D01*
G01*
G37*
G36*
G01*
X81755000Y-111432000D02*
X80805000Y-111432000D01*
G75*
G02*
X80555000Y-111182000I0J250000D01*
G01*
X80555000Y-110682000D01*
G75*
G02*
X80805000Y-110432000I250000J0D01*
G01*
X81755000Y-110432000D01*
G75*
G02*
X82005000Y-110682000I0J-250000D01*
G01*
X82005000Y-111182000D01*
G75*
G02*
X81755000Y-111432000I-250000J0D01*
G01*
G37*
%TD*%
%TO.C,C13*%
G36*
G01*
X119347000Y-109532000D02*
X118397000Y-109532000D01*
G75*
G02*
X118147000Y-109282000I0J250000D01*
G01*
X118147000Y-108782000D01*
G75*
G02*
X118397000Y-108532000I250000J0D01*
G01*
X119347000Y-108532000D01*
G75*
G02*
X119597000Y-108782000I0J-250000D01*
G01*
X119597000Y-109282000D01*
G75*
G02*
X119347000Y-109532000I-250000J0D01*
G01*
G37*
G36*
G01*
X119347000Y-111432000D02*
X118397000Y-111432000D01*
G75*
G02*
X118147000Y-111182000I0J250000D01*
G01*
X118147000Y-110682000D01*
G75*
G02*
X118397000Y-110432000I250000J0D01*
G01*
X119347000Y-110432000D01*
G75*
G02*
X119597000Y-110682000I0J-250000D01*
G01*
X119597000Y-111182000D01*
G75*
G02*
X119347000Y-111432000I-250000J0D01*
G01*
G37*
%TD*%
%TO.C,C14*%
G36*
G01*
X157447000Y-109532000D02*
X156497000Y-109532000D01*
G75*
G02*
X156247000Y-109282000I0J250000D01*
G01*
X156247000Y-108782000D01*
G75*
G02*
X156497000Y-108532000I250000J0D01*
G01*
X157447000Y-108532000D01*
G75*
G02*
X157697000Y-108782000I0J-250000D01*
G01*
X157697000Y-109282000D01*
G75*
G02*
X157447000Y-109532000I-250000J0D01*
G01*
G37*
G36*
G01*
X157447000Y-111432000D02*
X156497000Y-111432000D01*
G75*
G02*
X156247000Y-111182000I0J250000D01*
G01*
X156247000Y-110682000D01*
G75*
G02*
X156497000Y-110432000I250000J0D01*
G01*
X157447000Y-110432000D01*
G75*
G02*
X157697000Y-110682000I0J-250000D01*
G01*
X157697000Y-111182000D01*
G75*
G02*
X157447000Y-111432000I-250000J0D01*
G01*
G37*
%TD*%
%TO.C,C15*%
G36*
G01*
X195801000Y-109532000D02*
X194851000Y-109532000D01*
G75*
G02*
X194601000Y-109282000I0J250000D01*
G01*
X194601000Y-108782000D01*
G75*
G02*
X194851000Y-108532000I250000J0D01*
G01*
X195801000Y-108532000D01*
G75*
G02*
X196051000Y-108782000I0J-250000D01*
G01*
X196051000Y-109282000D01*
G75*
G02*
X195801000Y-109532000I-250000J0D01*
G01*
G37*
G36*
G01*
X195801000Y-111432000D02*
X194851000Y-111432000D01*
G75*
G02*
X194601000Y-111182000I0J250000D01*
G01*
X194601000Y-110682000D01*
G75*
G02*
X194851000Y-110432000I250000J0D01*
G01*
X195801000Y-110432000D01*
G75*
G02*
X196051000Y-110682000I0J-250000D01*
G01*
X196051000Y-111182000D01*
G75*
G02*
X195801000Y-111432000I-250000J0D01*
G01*
G37*
%TD*%
%TO.C,C16*%
G36*
G01*
X233647000Y-109532000D02*
X232697000Y-109532000D01*
G75*
G02*
X232447000Y-109282000I0J250000D01*
G01*
X232447000Y-108782000D01*
G75*
G02*
X232697000Y-108532000I250000J0D01*
G01*
X233647000Y-108532000D01*
G75*
G02*
X233897000Y-108782000I0J-250000D01*
G01*
X233897000Y-109282000D01*
G75*
G02*
X233647000Y-109532000I-250000J0D01*
G01*
G37*
G36*
G01*
X233647000Y-111432000D02*
X232697000Y-111432000D01*
G75*
G02*
X232447000Y-111182000I0J250000D01*
G01*
X232447000Y-110682000D01*
G75*
G02*
X232697000Y-110432000I250000J0D01*
G01*
X233647000Y-110432000D01*
G75*
G02*
X233897000Y-110682000I0J-250000D01*
G01*
X233897000Y-111182000D01*
G75*
G02*
X233647000Y-111432000I-250000J0D01*
G01*
G37*
%TD*%
%TO.C,C2*%
G36*
G01*
X196309000Y-73972000D02*
X195359000Y-73972000D01*
G75*
G02*
X195109000Y-73722000I0J250000D01*
G01*
X195109000Y-73222000D01*
G75*
G02*
X195359000Y-72972000I250000J0D01*
G01*
X196309000Y-72972000D01*
G75*
G02*
X196559000Y-73222000I0J-250000D01*
G01*
X196559000Y-73722000D01*
G75*
G02*
X196309000Y-73972000I-250000J0D01*
G01*
G37*
G36*
G01*
X196309000Y-75872000D02*
X195359000Y-75872000D01*
G75*
G02*
X195109000Y-75622000I0J250000D01*
G01*
X195109000Y-75122000D01*
G75*
G02*
X195359000Y-74872000I250000J0D01*
G01*
X196309000Y-74872000D01*
G75*
G02*
X196559000Y-75122000I0J-250000D01*
G01*
X196559000Y-75622000D01*
G75*
G02*
X196309000Y-75872000I-250000J0D01*
G01*
G37*
%TD*%
%TO.C,C3*%
G36*
G01*
X180119000Y-91128000D02*
X181069000Y-91128000D01*
G75*
G02*
X181319000Y-91378000I0J-250000D01*
G01*
X181319000Y-91878000D01*
G75*
G02*
X181069000Y-92128000I-250000J0D01*
G01*
X180119000Y-92128000D01*
G75*
G02*
X179869000Y-91878000I0J250000D01*
G01*
X179869000Y-91378000D01*
G75*
G02*
X180119000Y-91128000I250000J0D01*
G01*
G37*
G36*
G01*
X180119000Y-89228000D02*
X181069000Y-89228000D01*
G75*
G02*
X181319000Y-89478000I0J-250000D01*
G01*
X181319000Y-89978000D01*
G75*
G02*
X181069000Y-90228000I-250000J0D01*
G01*
X180119000Y-90228000D01*
G75*
G02*
X179869000Y-89978000I0J250000D01*
G01*
X179869000Y-89478000D01*
G75*
G02*
X180119000Y-89228000I250000J0D01*
G01*
G37*
%TD*%
%TO.C,C4*%
G36*
G01*
X177579000Y-91128000D02*
X178529000Y-91128000D01*
G75*
G02*
X178779000Y-91378000I0J-250000D01*
G01*
X178779000Y-91878000D01*
G75*
G02*
X178529000Y-92128000I-250000J0D01*
G01*
X177579000Y-92128000D01*
G75*
G02*
X177329000Y-91878000I0J250000D01*
G01*
X177329000Y-91378000D01*
G75*
G02*
X177579000Y-91128000I250000J0D01*
G01*
G37*
G36*
G01*
X177579000Y-89228000D02*
X178529000Y-89228000D01*
G75*
G02*
X178779000Y-89478000I0J-250000D01*
G01*
X178779000Y-89978000D01*
G75*
G02*
X178529000Y-90228000I-250000J0D01*
G01*
X177579000Y-90228000D01*
G75*
G02*
X177329000Y-89978000I0J250000D01*
G01*
X177329000Y-89478000D01*
G75*
G02*
X177579000Y-89228000I250000J0D01*
G01*
G37*
%TD*%
%TO.C,C5*%
G36*
G01*
X194343000Y-93160000D02*
X195293000Y-93160000D01*
G75*
G02*
X195543000Y-93410000I0J-250000D01*
G01*
X195543000Y-93910000D01*
G75*
G02*
X195293000Y-94160000I-250000J0D01*
G01*
X194343000Y-94160000D01*
G75*
G02*
X194093000Y-93910000I0J250000D01*
G01*
X194093000Y-93410000D01*
G75*
G02*
X194343000Y-93160000I250000J0D01*
G01*
G37*
G36*
G01*
X194343000Y-91260000D02*
X195293000Y-91260000D01*
G75*
G02*
X195543000Y-91510000I0J-250000D01*
G01*
X195543000Y-92010000D01*
G75*
G02*
X195293000Y-92260000I-250000J0D01*
G01*
X194343000Y-92260000D01*
G75*
G02*
X194093000Y-92010000I0J250000D01*
G01*
X194093000Y-91510000D01*
G75*
G02*
X194343000Y-91260000I250000J0D01*
G01*
G37*
%TD*%
%TO.C,C7*%
G36*
G01*
X123148000Y-84066000D02*
X124248000Y-84066000D01*
G75*
G02*
X124498000Y-84316000I0J-250000D01*
G01*
X124498000Y-86416000D01*
G75*
G02*
X124248000Y-86666000I-250000J0D01*
G01*
X123148000Y-86666000D01*
G75*
G02*
X122898000Y-86416000I0J250000D01*
G01*
X122898000Y-84316000D01*
G75*
G02*
X123148000Y-84066000I250000J0D01*
G01*
G37*
G36*
G01*
X123148000Y-80466000D02*
X124248000Y-80466000D01*
G75*
G02*
X124498000Y-80716000I0J-250000D01*
G01*
X124498000Y-82816000D01*
G75*
G02*
X124248000Y-83066000I-250000J0D01*
G01*
X123148000Y-83066000D01*
G75*
G02*
X122898000Y-82816000I0J250000D01*
G01*
X122898000Y-80716000D01*
G75*
G02*
X123148000Y-80466000I250000J0D01*
G01*
G37*
%TD*%
%TO.C,C8*%
G36*
G01*
X109949000Y-81084000D02*
X108999000Y-81084000D01*
G75*
G02*
X108749000Y-80834000I0J250000D01*
G01*
X108749000Y-80334000D01*
G75*
G02*
X108999000Y-80084000I250000J0D01*
G01*
X109949000Y-80084000D01*
G75*
G02*
X110199000Y-80334000I0J-250000D01*
G01*
X110199000Y-80834000D01*
G75*
G02*
X109949000Y-81084000I-250000J0D01*
G01*
G37*
G36*
G01*
X109949000Y-82984000D02*
X108999000Y-82984000D01*
G75*
G02*
X108749000Y-82734000I0J250000D01*
G01*
X108749000Y-82234000D01*
G75*
G02*
X108999000Y-81984000I250000J0D01*
G01*
X109949000Y-81984000D01*
G75*
G02*
X110199000Y-82234000I0J-250000D01*
G01*
X110199000Y-82734000D01*
G75*
G02*
X109949000Y-82984000I-250000J0D01*
G01*
G37*
%TD*%
D17*
%TO.C,D1*%
X19990000Y-104050000D03*
X23190000Y-104050000D03*
X19990000Y-99150000D03*
X23190000Y-99150000D03*
%TD*%
%TO.C,D2*%
X27610000Y-104050000D03*
X30810000Y-104050000D03*
X27610000Y-99150000D03*
X30810000Y-99150000D03*
%TD*%
%TO.C,D3*%
X35230000Y-104050000D03*
X38430000Y-104050000D03*
X35230000Y-99150000D03*
X38430000Y-99150000D03*
%TD*%
%TO.C,D4*%
X42850000Y-104050000D03*
X46050000Y-104050000D03*
X42850000Y-99150000D03*
X46050000Y-99150000D03*
%TD*%
%TO.C,D5*%
X50470000Y-104050000D03*
X53670000Y-104050000D03*
X50470000Y-99150000D03*
X53670000Y-99150000D03*
%TD*%
%TO.C,D6*%
X58090000Y-104050000D03*
X61290000Y-104050000D03*
X58090000Y-99150000D03*
X61290000Y-99150000D03*
%TD*%
%TO.C,D7*%
X65710000Y-104050000D03*
X68910000Y-104050000D03*
X65710000Y-99150000D03*
X68910000Y-99150000D03*
%TD*%
%TO.C,D8*%
X73330000Y-104050000D03*
X76530000Y-104050000D03*
X73330000Y-99150000D03*
X76530000Y-99150000D03*
%TD*%
%TO.C,D9*%
X80950000Y-104050000D03*
X84150000Y-104050000D03*
X80950000Y-99150000D03*
X84150000Y-99150000D03*
%TD*%
%TO.C,D10*%
X88570000Y-104050000D03*
X91770000Y-104050000D03*
X88570000Y-99150000D03*
X91770000Y-99150000D03*
%TD*%
%TO.C,D11*%
X96190000Y-104050000D03*
X99390000Y-104050000D03*
X96190000Y-99150000D03*
X99390000Y-99150000D03*
%TD*%
%TO.C,D12*%
X103810000Y-104050000D03*
X107010000Y-104050000D03*
X103810000Y-99150000D03*
X107010000Y-99150000D03*
%TD*%
%TO.C,D13*%
X111430000Y-104050000D03*
X114630000Y-104050000D03*
X111430000Y-99150000D03*
X114630000Y-99150000D03*
%TD*%
%TO.C,D14*%
X119050000Y-104050000D03*
X122250000Y-104050000D03*
X119050000Y-99150000D03*
X122250000Y-99150000D03*
%TD*%
%TO.C,D15*%
X126670000Y-104050000D03*
X129870000Y-104050000D03*
X126670000Y-99150000D03*
X129870000Y-99150000D03*
%TD*%
%TO.C,D16*%
X134290000Y-104050000D03*
X137490000Y-104050000D03*
X134290000Y-99150000D03*
X137490000Y-99150000D03*
%TD*%
%TO.C,D17*%
X141910000Y-104050000D03*
X145110000Y-104050000D03*
X141910000Y-99150000D03*
X145110000Y-99150000D03*
%TD*%
%TO.C,D18*%
X149530000Y-104050000D03*
X152730000Y-104050000D03*
X149530000Y-99150000D03*
X152730000Y-99150000D03*
%TD*%
%TO.C,D19*%
X157150000Y-104050000D03*
X160350000Y-104050000D03*
X157150000Y-99150000D03*
X160350000Y-99150000D03*
%TD*%
%TO.C,D20*%
X164770000Y-104050000D03*
X167970000Y-104050000D03*
X164770000Y-99150000D03*
X167970000Y-99150000D03*
%TD*%
%TO.C,D21*%
X172390000Y-104050000D03*
X175590000Y-104050000D03*
X172390000Y-99150000D03*
X175590000Y-99150000D03*
%TD*%
%TO.C,D22*%
X180010000Y-104050000D03*
X183210000Y-104050000D03*
X180010000Y-99150000D03*
X183210000Y-99150000D03*
%TD*%
%TO.C,D23*%
X187630000Y-104050000D03*
X190830000Y-104050000D03*
X187630000Y-99150000D03*
X190830000Y-99150000D03*
%TD*%
%TO.C,D24*%
X195250000Y-104050000D03*
X198450000Y-104050000D03*
X195250000Y-99150000D03*
X198450000Y-99150000D03*
%TD*%
%TO.C,D25*%
X202870000Y-104050000D03*
X206070000Y-104050000D03*
X202870000Y-99150000D03*
X206070000Y-99150000D03*
%TD*%
%TO.C,D26*%
X210490000Y-104050000D03*
X213690000Y-104050000D03*
X210490000Y-99150000D03*
X213690000Y-99150000D03*
%TD*%
%TO.C,D27*%
X218110000Y-104050000D03*
X221310000Y-104050000D03*
X218110000Y-99150000D03*
X221310000Y-99150000D03*
%TD*%
%TO.C,D28*%
X225730000Y-104050000D03*
X228930000Y-104050000D03*
X225730000Y-99150000D03*
X228930000Y-99150000D03*
%TD*%
%TO.C,D29*%
X233350000Y-104050000D03*
X236550000Y-104050000D03*
X233350000Y-99150000D03*
X236550000Y-99150000D03*
%TD*%
%TO.C,D30*%
X240970000Y-104050000D03*
X244170000Y-104050000D03*
X240970000Y-99150000D03*
X244170000Y-99150000D03*
%TD*%
%TO.C,D35*%
G36*
G01*
X106731750Y-80109000D02*
X107644250Y-80109000D01*
G75*
G02*
X107888000Y-80352750I0J-243750D01*
G01*
X107888000Y-80840250D01*
G75*
G02*
X107644250Y-81084000I-243750J0D01*
G01*
X106731750Y-81084000D01*
G75*
G02*
X106488000Y-80840250I0J243750D01*
G01*
X106488000Y-80352750D01*
G75*
G02*
X106731750Y-80109000I243750J0D01*
G01*
G37*
G36*
G01*
X106731750Y-81984000D02*
X107644250Y-81984000D01*
G75*
G02*
X107888000Y-82227750I0J-243750D01*
G01*
X107888000Y-82715250D01*
G75*
G02*
X107644250Y-82959000I-243750J0D01*
G01*
X106731750Y-82959000D01*
G75*
G02*
X106488000Y-82715250I0J243750D01*
G01*
X106488000Y-82227750D01*
G75*
G02*
X106731750Y-81984000I243750J0D01*
G01*
G37*
%TD*%
%TO.C,D36*%
G36*
G01*
X200735250Y-75974000D02*
X199822750Y-75974000D01*
G75*
G02*
X199579000Y-75730250I0J243750D01*
G01*
X199579000Y-75242750D01*
G75*
G02*
X199822750Y-74999000I243750J0D01*
G01*
X200735250Y-74999000D01*
G75*
G02*
X200979000Y-75242750I0J-243750D01*
G01*
X200979000Y-75730250D01*
G75*
G02*
X200735250Y-75974000I-243750J0D01*
G01*
G37*
G36*
G01*
X200735250Y-74099000D02*
X199822750Y-74099000D01*
G75*
G02*
X199579000Y-73855250I0J243750D01*
G01*
X199579000Y-73367750D01*
G75*
G02*
X199822750Y-73124000I243750J0D01*
G01*
X200735250Y-73124000D01*
G75*
G02*
X200979000Y-73367750I0J-243750D01*
G01*
X200979000Y-73855250D01*
G75*
G02*
X200735250Y-74099000I-243750J0D01*
G01*
G37*
%TD*%
D19*
%TO.C,P1*%
X58038000Y-92710000D03*
X58038000Y-87630000D03*
X54738000Y-90170000D03*
X54738000Y-85090000D03*
%TD*%
D20*
%TO.C,P2*%
X165862000Y-68838000D03*
X170942000Y-68838000D03*
X176022000Y-68838000D03*
X168402000Y-65528000D03*
X173482000Y-65528000D03*
X178562000Y-65528000D03*
%TD*%
D21*
%TO.C,P3*%
X205628000Y-80899000D03*
X210678000Y-80899000D03*
X205628000Y-83439000D03*
X210678000Y-83439000D03*
X205628000Y-85979000D03*
X210678000Y-85979000D03*
%TD*%
D19*
%TO.C,P4*%
X228980000Y-92710000D03*
X228980000Y-87630000D03*
X225680000Y-90170000D03*
X225680000Y-85090000D03*
%TD*%
%TO.C,R2*%
G36*
G01*
X183280000Y-81984002D02*
X183280000Y-81083998D01*
G75*
G02*
X183529998Y-80834000I249998J0D01*
G01*
X184055002Y-80834000D01*
G75*
G02*
X184305000Y-81083998I0J-249998D01*
G01*
X184305000Y-81984002D01*
G75*
G02*
X184055002Y-82234000I-249998J0D01*
G01*
X183529998Y-82234000D01*
G75*
G02*
X183280000Y-81984002I0J249998D01*
G01*
G37*
G36*
G01*
X181455000Y-81984002D02*
X181455000Y-81083998D01*
G75*
G02*
X181704998Y-80834000I249998J0D01*
G01*
X182230002Y-80834000D01*
G75*
G02*
X182480000Y-81083998I0J-249998D01*
G01*
X182480000Y-81984002D01*
G75*
G02*
X182230002Y-82234000I-249998J0D01*
G01*
X181704998Y-82234000D01*
G75*
G02*
X181455000Y-81984002I0J249998D01*
G01*
G37*
%TD*%
%TO.C,R3*%
G36*
G01*
X183280000Y-84143002D02*
X183280000Y-83242998D01*
G75*
G02*
X183529998Y-82993000I249998J0D01*
G01*
X184055002Y-82993000D01*
G75*
G02*
X184305000Y-83242998I0J-249998D01*
G01*
X184305000Y-84143002D01*
G75*
G02*
X184055002Y-84393000I-249998J0D01*
G01*
X183529998Y-84393000D01*
G75*
G02*
X183280000Y-84143002I0J249998D01*
G01*
G37*
G36*
G01*
X181455000Y-84143002D02*
X181455000Y-83242998D01*
G75*
G02*
X181704998Y-82993000I249998J0D01*
G01*
X182230002Y-82993000D01*
G75*
G02*
X182480000Y-83242998I0J-249998D01*
G01*
X182480000Y-84143002D01*
G75*
G02*
X182230002Y-84393000I-249998J0D01*
G01*
X181704998Y-84393000D01*
G75*
G02*
X181455000Y-84143002I0J249998D01*
G01*
G37*
%TD*%
%TO.C,R4*%
G36*
G01*
X189934002Y-91548000D02*
X189033998Y-91548000D01*
G75*
G02*
X188784000Y-91298002I0J249998D01*
G01*
X188784000Y-90772998D01*
G75*
G02*
X189033998Y-90523000I249998J0D01*
G01*
X189934002Y-90523000D01*
G75*
G02*
X190184000Y-90772998I0J-249998D01*
G01*
X190184000Y-91298002D01*
G75*
G02*
X189934002Y-91548000I-249998J0D01*
G01*
G37*
G36*
G01*
X189934002Y-93373000D02*
X189033998Y-93373000D01*
G75*
G02*
X188784000Y-93123002I0J249998D01*
G01*
X188784000Y-92597998D01*
G75*
G02*
X189033998Y-92348000I249998J0D01*
G01*
X189934002Y-92348000D01*
G75*
G02*
X190184000Y-92597998I0J-249998D01*
G01*
X190184000Y-93123002D01*
G75*
G02*
X189934002Y-93373000I-249998J0D01*
G01*
G37*
%TD*%
%TO.C,R5*%
G36*
G01*
X143948998Y-65551000D02*
X144849002Y-65551000D01*
G75*
G02*
X145099000Y-65800998I0J-249998D01*
G01*
X145099000Y-66326002D01*
G75*
G02*
X144849002Y-66576000I-249998J0D01*
G01*
X143948998Y-66576000D01*
G75*
G02*
X143699000Y-66326002I0J249998D01*
G01*
X143699000Y-65800998D01*
G75*
G02*
X143948998Y-65551000I249998J0D01*
G01*
G37*
G36*
G01*
X143948998Y-63726000D02*
X144849002Y-63726000D01*
G75*
G02*
X145099000Y-63975998I0J-249998D01*
G01*
X145099000Y-64501002D01*
G75*
G02*
X144849002Y-64751000I-249998J0D01*
G01*
X143948998Y-64751000D01*
G75*
G02*
X143699000Y-64501002I0J249998D01*
G01*
X143699000Y-63975998D01*
G75*
G02*
X143948998Y-63726000I249998J0D01*
G01*
G37*
%TD*%
%TO.C,R6*%
G36*
G01*
X159200002Y-64751000D02*
X158299998Y-64751000D01*
G75*
G02*
X158050000Y-64501002I0J249998D01*
G01*
X158050000Y-63975998D01*
G75*
G02*
X158299998Y-63726000I249998J0D01*
G01*
X159200002Y-63726000D01*
G75*
G02*
X159450000Y-63975998I0J-249998D01*
G01*
X159450000Y-64501002D01*
G75*
G02*
X159200002Y-64751000I-249998J0D01*
G01*
G37*
G36*
G01*
X159200002Y-66576000D02*
X158299998Y-66576000D01*
G75*
G02*
X158050000Y-66326002I0J249998D01*
G01*
X158050000Y-65800998D01*
G75*
G02*
X158299998Y-65551000I249998J0D01*
G01*
X159200002Y-65551000D01*
G75*
G02*
X159450000Y-65800998I0J-249998D01*
G01*
X159450000Y-66326002D01*
G75*
G02*
X159200002Y-66576000I-249998J0D01*
G01*
G37*
%TD*%
%TO.C,R7*%
G36*
G01*
X109023998Y-85744000D02*
X109924002Y-85744000D01*
G75*
G02*
X110174000Y-85993998I0J-249998D01*
G01*
X110174000Y-86519002D01*
G75*
G02*
X109924002Y-86769000I-249998J0D01*
G01*
X109023998Y-86769000D01*
G75*
G02*
X108774000Y-86519002I0J249998D01*
G01*
X108774000Y-85993998D01*
G75*
G02*
X109023998Y-85744000I249998J0D01*
G01*
G37*
G36*
G01*
X109023998Y-83919000D02*
X109924002Y-83919000D01*
G75*
G02*
X110174000Y-84168998I0J-249998D01*
G01*
X110174000Y-84694002D01*
G75*
G02*
X109924002Y-84944000I-249998J0D01*
G01*
X109023998Y-84944000D01*
G75*
G02*
X108774000Y-84694002I0J249998D01*
G01*
X108774000Y-84168998D01*
G75*
G02*
X109023998Y-83919000I249998J0D01*
G01*
G37*
%TD*%
%TO.C,R8*%
G36*
G01*
X203142002Y-74149000D02*
X202241998Y-74149000D01*
G75*
G02*
X201992000Y-73899002I0J249998D01*
G01*
X201992000Y-73373998D01*
G75*
G02*
X202241998Y-73124000I249998J0D01*
G01*
X203142002Y-73124000D01*
G75*
G02*
X203392000Y-73373998I0J-249998D01*
G01*
X203392000Y-73899002D01*
G75*
G02*
X203142002Y-74149000I-249998J0D01*
G01*
G37*
G36*
G01*
X203142002Y-75974000D02*
X202241998Y-75974000D01*
G75*
G02*
X201992000Y-75724002I0J249998D01*
G01*
X201992000Y-75198998D01*
G75*
G02*
X202241998Y-74949000I249998J0D01*
G01*
X203142002Y-74949000D01*
G75*
G02*
X203392000Y-75198998I0J-249998D01*
G01*
X203392000Y-75724002D01*
G75*
G02*
X203142002Y-75974000I-249998J0D01*
G01*
G37*
%TD*%
D22*
%TO.C,U1*%
X190240000Y-87562000D03*
X191040000Y-87562000D03*
X191840000Y-87562000D03*
X192640000Y-87562000D03*
X193440000Y-87562000D03*
X194240000Y-87562000D03*
X195040000Y-87562000D03*
X195840000Y-87562000D03*
D23*
X197290000Y-86112000D03*
X197290000Y-85312000D03*
X197290000Y-84512000D03*
X197290000Y-83712000D03*
X197290000Y-82912000D03*
X197290000Y-82112000D03*
X197290000Y-81312000D03*
X197290000Y-80512000D03*
D22*
X195840000Y-79062000D03*
X195040000Y-79062000D03*
X194240000Y-79062000D03*
X193440000Y-79062000D03*
X192640000Y-79062000D03*
X191840000Y-79062000D03*
X191040000Y-79062000D03*
X190240000Y-79062000D03*
D23*
X188790000Y-80512000D03*
X188790000Y-81312000D03*
X188790000Y-82112000D03*
X188790000Y-82912000D03*
X188790000Y-83712000D03*
X188790000Y-84512000D03*
X188790000Y-85312000D03*
X188790000Y-86112000D03*
%TD*%
D24*
%TO.C,X1*%
X197020000Y-92290000D03*
X199220000Y-92290000D03*
X199220000Y-90590000D03*
X197020000Y-90590000D03*
%TD*%
D21*
%TO.C,SW2*%
X149875000Y-135890000D03*
X154925000Y-135890000D03*
X149875000Y-138430000D03*
X154925000Y-138430000D03*
%TD*%
D25*
%TO.C,D33*%
X143138000Y-83566000D03*
X147438000Y-83566000D03*
%TD*%
%TO.C,D34*%
X130184000Y-83566000D03*
X134484000Y-83566000D03*
%TD*%
M02*
