M48
; DRILL file {KiCad 5.1.7-a382d34a8~87~ubuntu20.04.1} date Tue Nov  3 23:07:47 2020
; FORMAT={-:-/ absolute / inch / decimal}
; #@! TF.CreationDate,2020-11-03T23:07:47+05:30
; #@! TF.GenerationSoftware,Kicad,Pcbnew,5.1.7-a382d34a8~87~ubuntu20.04.1
FMAT,2
INCH
T1C0.0157
T2C0.0197
T3C0.0236
T4C0.1260
T5C0.0197
T6C0.0630
T7C0.0709
T8C0.1250
%
G90
G05
T1
X0.85Y-4.0
X0.956Y-3.904
X1.15Y-4.0
X1.213Y-3.85
X1.513Y-3.85
X1.68Y-4.41
X1.814Y-3.85
X2.113Y-3.85
X2.285Y-3.693
X2.413Y-3.85
X2.713Y-3.85
X3.013Y-3.85
X3.2Y-4.41
X3.313Y-3.85
X3.613Y-3.85
X3.913Y-3.85
X4.213Y-3.85
X4.22Y-3.13
X4.31Y-3.13
X4.513Y-3.85
X4.68Y-4.41
X4.724Y-2.557
X4.725Y-2.317
X4.795Y-2.636
X4.796Y-2.238
X4.813Y-3.85
X4.87Y-3.438
X4.925Y-3.361
X5.113Y-3.85
X5.414Y-3.85
X5.634Y-2.602
X5.65Y-4.895
X5.695Y-4.835
X5.713Y-3.85
X5.746Y-2.72
X5.757Y-3.057
X5.805Y-2.524
X5.85Y-2.524
X5.901Y-5.307
X5.901Y-5.493
X5.925Y-3.057
X5.959Y-2.357
X5.9602Y-2.649
X6.002Y-2.357
X6.011Y-2.649
X6.014Y-3.85
X6.068Y-2.379
X6.085Y-2.55
X6.145Y-2.523
X6.168Y-2.712
X6.168Y-2.766
X6.168Y-2.824
X6.18Y-4.411
X6.25Y-2.485
X6.313Y-3.85
X6.613Y-3.139
X6.613Y-3.85
X6.788Y-4.399
X6.822Y-4.361
X6.913Y-3.85
X6.926Y-3.14
X6.93Y-2.783
X7.01Y-3.651
X7.068Y-3.136
X7.074Y-2.58
X7.11Y-3.651
X7.205Y-3.725
X7.213Y-3.85
X7.236Y-3.159
X7.237Y-3.346
X7.26Y-3.721
X7.315Y-3.725
X7.461Y-4.348
X7.4798Y-3.5178
X7.503Y-3.294
X7.513Y-3.85
X7.53Y-3.525
X7.6Y-3.04
X7.69Y-4.411
X7.706Y-3.543
X7.7224Y-3.6874
X7.762Y-2.893
X7.7994Y-3.6874
X7.813Y-3.85
X7.834Y-2.973
X7.8724Y-3.6874
X7.997Y-3.385
X8.114Y-3.85
X8.295Y-3.43
X8.413Y-3.85
X8.552Y-3.318
X8.713Y-3.85
X9.013Y-3.85
X9.08Y-3.65
X9.18Y-4.411
X9.313Y-3.85
X9.613Y-3.85
X9.913Y-3.85
X10.215Y-3.85
T2
X0.8904Y-4.373
X0.9181Y-4.3062
X0.9181Y-4.4398
X0.9849Y-4.2785
X0.9849Y-4.4675
X1.0517Y-4.3062
X1.0517Y-4.4398
X1.0794Y-4.373
X3.3746Y-2.7063
X3.4022Y-2.6395
X3.4022Y-2.7732
X3.4691Y-2.6119
X3.4691Y-2.8008
X3.5359Y-2.6395
X3.5359Y-2.7732
X3.5635Y-2.7063
X7.4365Y-2.7063
X7.4641Y-2.6395
X7.4641Y-2.7732
X7.5309Y-2.6119
X7.5309Y-2.8008
X7.5978Y-2.6395
X7.5978Y-2.7732
X7.6254Y-2.7063
X9.9206Y-3.627
X9.9483Y-3.5602
X9.9483Y-3.6938
X10.0151Y-3.5325
X10.0151Y-3.7215
X10.0819Y-3.5602
X10.0819Y-3.6938
X10.1096Y-3.627
X0.8904Y-3.627
X0.9181Y-3.5602
X0.9181Y-3.6938
X0.9849Y-3.5325
X0.9849Y-3.7215
X1.0517Y-3.5602
X1.0517Y-3.6938
X1.0794Y-3.627
X9.9206Y-4.373
X9.9483Y-4.3062
X9.9483Y-4.4398
X10.0151Y-4.2785
X10.0151Y-4.4675
X10.0819Y-4.3062
X10.0819Y-4.4398
X10.1096Y-4.373
X7.4365Y-5.2937
X7.4641Y-5.2268
X7.4641Y-5.3605
X7.5309Y-5.1992
X7.5309Y-5.3881
X7.5978Y-5.2268
X7.5978Y-5.3605
X7.6254Y-5.2937
X3.3746Y-5.2937
X3.4022Y-5.2268
X3.4022Y-5.3605
X3.4691Y-5.1992
X3.4691Y-5.3881
X3.5359Y-5.2268
X3.5359Y-5.3605
X3.5635Y-5.2937
T4
X0.9849Y-4.373
X3.4691Y-2.7063
X7.5309Y-2.7063
X10.0151Y-3.627
X0.9849Y-3.627
X10.0151Y-4.373
X7.5309Y-5.2937
X3.4691Y-5.2937
T5
X5.8411Y-2.4026
X6.1089Y-2.4026
T6
X5.02Y-2.3169
T7
X5.02Y-2.494
T8
X5.3Y-5.55
X5.7Y-5.55
T3
G00X5.8049Y-2.3022
M15
G01X5.8049Y-2.2511
M16
G05
G00X5.8049Y-2.4755
M15
G01X5.8049Y-2.4361
M16
G05
G00X5.8283Y-2.4363
M15
G01X5.8047Y-2.4363
M16
G05
G00X6.1453Y-2.4363
M15
G01X6.1217Y-2.4363
M16
G05
G00X6.1451Y-2.3022
M15
G01X6.1451Y-2.2511
M16
G05
G00X6.1451Y-2.4755
M15
G01X6.1451Y-2.4361
M16
G05
T0
M30
