%TF.GenerationSoftware,KiCad,Pcbnew,5.1.7-a382d34a8~87~ubuntu20.04.1*%
%TF.CreationDate,2020-11-05T16:16:56+05:30*%
%TF.ProjectId,halo,68616c6f-2e6b-4696-9361-645f70636258,v1*%
%TF.SameCoordinates,Original*%
%TF.FileFunction,Soldermask,Bot*%
%TF.FilePolarity,Negative*%
%FSLAX46Y46*%
G04 Gerber Fmt 4.6, Leading zero omitted, Abs format (unit mm)*
G04 Created by KiCad (PCBNEW 5.1.7-a382d34a8~87~ubuntu20.04.1) date 2020-11-05 16:16:56*
%MOMM*%
%LPD*%
G01*
G04 APERTURE LIST*
%TA.AperFunction,Profile*%
%ADD10C,0.050000*%
%TD*%
%ADD11C,0.650000*%
%ADD12C,1.600000*%
%ADD13C,1.800000*%
%ADD14C,6.400000*%
%ADD15C,0.800000*%
%ADD16C,3.175000*%
G04 APERTURE END LIST*
D10*
X73431896Y-62496118D02*
G75*
G02*
X120707642Y-53928265I66269656J-230949950D01*
G01*
X121541768Y-54762400D02*
G75*
G03*
X120707642Y-53928265I-834135J0D01*
G01*
X132715000Y-55245000D02*
G75*
G03*
X133477000Y-54483000I0J762000D01*
G01*
X132715000Y-55245000D02*
X122157808Y-55243390D01*
X134620000Y-53233692D02*
G75*
G03*
X133477000Y-54376692I0J-1143000D01*
G01*
X121541768Y-54762400D02*
G75*
G03*
X122157808Y-55243390I616040J154010D01*
G01*
X133477000Y-54483000D02*
X133477000Y-54376692D01*
X139700000Y-53180000D02*
G75*
G03*
X134620000Y-53233692I0J-240347211D01*
G01*
X145923000Y-54483000D02*
X145923000Y-54376692D01*
X157858232Y-54762400D02*
G75*
G02*
X158692358Y-53928265I834135J0D01*
G01*
X158692358Y-53928264D02*
G75*
G02*
X205969205Y-62493874I-18992358J-239578255D01*
G01*
X144780000Y-53233692D02*
G75*
G02*
X145923000Y-54376692I0J-1143000D01*
G01*
X139700000Y-53180000D02*
G75*
G02*
X144780000Y-53233692I0J-240347211D01*
G01*
X146685000Y-55245000D02*
G75*
G02*
X145923000Y-54483000I0J762000D01*
G01*
X157858232Y-54762400D02*
G75*
G02*
X157242192Y-55243390I-616040J154010D01*
G01*
X146685000Y-55245000D02*
X157242192Y-55243390D01*
X205969205Y-62493874D02*
G75*
G02*
X266571000Y-98721000I-37916205J-132229126D01*
G01*
X266571000Y-98721000D02*
X266571000Y-104479000D01*
X266571256Y-104479861D02*
G75*
G02*
X205969000Y-140707000I-98518256J96002861D01*
G01*
X205968733Y-140706537D02*
G75*
G02*
X139700000Y-150020000I-66268733J231106537D01*
G01*
X12828744Y-98720139D02*
G75*
G02*
X73431000Y-62493000I98518256J-96002861D01*
G01*
X139699871Y-150020519D02*
G75*
G02*
X73431000Y-140707000I129J240420519D01*
G01*
X12829000Y-98721000D02*
X12829000Y-104479000D01*
X73430795Y-140706126D02*
G75*
G02*
X12829000Y-104479000I37916205J132229126D01*
G01*
X89831000Y-134459000D02*
G75*
G03*
X89831000Y-134459000I-1717000J0D01*
G01*
X26734000Y-111075000D02*
G75*
G03*
X26734000Y-111075000I-1717000J0D01*
G01*
X141091000Y-145758000D02*
X138309000Y-145758000D01*
X138309000Y-145758000D02*
X138309000Y-148540000D01*
X138309000Y-148540000D02*
X141091000Y-148540000D01*
X141091000Y-148540000D02*
X141091000Y-145758000D01*
X193002000Y-134459000D02*
G75*
G03*
X193002000Y-134459000I-1716000J0D01*
G01*
X256100000Y-111075000D02*
G75*
G03*
X256100000Y-111075000I-1717000J0D01*
G01*
X26734000Y-92125000D02*
G75*
G03*
X26734000Y-92125000I-1717000J0D01*
G01*
X89831000Y-68741000D02*
G75*
G03*
X89831000Y-68741000I-1717000J0D01*
G01*
X256100000Y-92125000D02*
G75*
G03*
X256100000Y-92125000I-1717000J0D01*
G01*
X193002000Y-68741000D02*
G75*
G03*
X193002000Y-68741000I-1716000J0D01*
G01*
X141091000Y-54660000D02*
X138309000Y-54660000D01*
X138309000Y-54660000D02*
X138309000Y-57442000D01*
X138309000Y-57442000D02*
X141091000Y-57442000D01*
X141091000Y-57442000D02*
X141091000Y-54660000D01*
D11*
%TO.C,J2*%
X149002000Y-60706000D03*
X154782000Y-60706000D03*
%TD*%
D12*
%TO.C,J3*%
X127508000Y-58848000D03*
D13*
X127508000Y-63348000D03*
%TD*%
D14*
%TO.C,SC1*%
X25017000Y-92125000D03*
D15*
X27417000Y-92125000D03*
X26714056Y-93822056D03*
X25017000Y-94525000D03*
X23319944Y-93822056D03*
X22617000Y-92125000D03*
X23319944Y-90427944D03*
X25017000Y-89725000D03*
X26714056Y-90427944D03*
%TD*%
D14*
%TO.C,SC2*%
X88114000Y-68741000D03*
D15*
X90514000Y-68741000D03*
X89811056Y-70438056D03*
X88114000Y-71141000D03*
X86416944Y-70438056D03*
X85714000Y-68741000D03*
X86416944Y-67043944D03*
X88114000Y-66341000D03*
X89811056Y-67043944D03*
%TD*%
D14*
%TO.C,SC3*%
X191286000Y-68741000D03*
D15*
X193686000Y-68741000D03*
X192983056Y-70438056D03*
X191286000Y-71141000D03*
X189588944Y-70438056D03*
X188886000Y-68741000D03*
X189588944Y-67043944D03*
X191286000Y-66341000D03*
X192983056Y-67043944D03*
%TD*%
D14*
%TO.C,SC4*%
X254383000Y-92125000D03*
D15*
X256783000Y-92125000D03*
X256080056Y-93822056D03*
X254383000Y-94525000D03*
X252685944Y-93822056D03*
X251983000Y-92125000D03*
X252685944Y-90427944D03*
X254383000Y-89725000D03*
X256080056Y-90427944D03*
%TD*%
D14*
%TO.C,SC5*%
X254383000Y-111075000D03*
D15*
X256783000Y-111075000D03*
X256080056Y-112772056D03*
X254383000Y-113475000D03*
X252685944Y-112772056D03*
X251983000Y-111075000D03*
X252685944Y-109377944D03*
X254383000Y-108675000D03*
X256080056Y-109377944D03*
%TD*%
D14*
%TO.C,SC6*%
X191286000Y-134459000D03*
D15*
X193686000Y-134459000D03*
X192983056Y-136156056D03*
X191286000Y-136859000D03*
X189588944Y-136156056D03*
X188886000Y-134459000D03*
X189588944Y-132761944D03*
X191286000Y-132059000D03*
X192983056Y-132761944D03*
%TD*%
D14*
%TO.C,SC7*%
X88114000Y-134459000D03*
D15*
X90514000Y-134459000D03*
X89811056Y-136156056D03*
X88114000Y-136859000D03*
X86416944Y-136156056D03*
X85714000Y-134459000D03*
X86416944Y-132761944D03*
X88114000Y-132059000D03*
X89811056Y-132761944D03*
%TD*%
D14*
%TO.C,SC8*%
X25017000Y-111075000D03*
D15*
X27417000Y-111075000D03*
X26714056Y-112772056D03*
X25017000Y-113475000D03*
X23319944Y-112772056D03*
X22617000Y-111075000D03*
X23319944Y-109377944D03*
X25017000Y-108675000D03*
X26714056Y-109377944D03*
%TD*%
D16*
%TO.C,P5*%
X144780000Y-140970000D03*
X134620000Y-140970000D03*
%TD*%
M02*
