%TF.GenerationSoftware,KiCad,Pcbnew,5.1.7-a382d34a8~87~ubuntu20.04.1*%
%TF.CreationDate,2020-11-03T23:07:43+05:30*%
%TF.ProjectId,halo,68616c6f-2e6b-4696-9361-645f70636258,v1*%
%TF.SameCoordinates,Original*%
%TF.FileFunction,Copper,L2,Bot*%
%TF.FilePolarity,Positive*%
%FSLAX46Y46*%
G04 Gerber Fmt 4.6, Leading zero omitted, Abs format (unit mm)*
G04 Created by KiCad (PCBNEW 5.1.7-a382d34a8~87~ubuntu20.04.1) date 2020-11-03 23:07:43*
%MOMM*%
%LPD*%
G01*
G04 APERTURE LIST*
%TA.AperFunction,ComponentPad*%
%ADD10O,1.000000X2.000000*%
%TD*%
%TA.AperFunction,ComponentPad*%
%ADD11O,1.200000X2.400000*%
%TD*%
%TA.AperFunction,ComponentPad*%
%ADD12O,1.600000X1.000000*%
%TD*%
%TA.AperFunction,ComponentPad*%
%ADD13C,6.400000*%
%TD*%
%TA.AperFunction,ComponentPad*%
%ADD14C,0.800000*%
%TD*%
%TA.AperFunction,ViaPad*%
%ADD15C,0.800000*%
%TD*%
%TA.AperFunction,Conductor*%
%ADD16C,0.254000*%
%TD*%
%TA.AperFunction,Conductor*%
%ADD17C,0.635000*%
%TD*%
%TA.AperFunction,Conductor*%
%ADD18C,0.100000*%
%TD*%
G04 APERTURE END LIST*
D10*
%TO.P,J2,S1*%
%TO.N,GND*%
X156085000Y-62377000D03*
X147445000Y-62377000D03*
D11*
X147445000Y-57827000D03*
X156085000Y-57827000D03*
D12*
X147740000Y-61882000D03*
X155790000Y-61882000D03*
%TD*%
D13*
%TO.P,SC1,1*%
%TO.N,N/C*%
X25017000Y-92125000D03*
D14*
X27417000Y-92125000D03*
X26714056Y-93822056D03*
X25017000Y-94525000D03*
X23319944Y-93822056D03*
X22617000Y-92125000D03*
X23319944Y-90427944D03*
X25017000Y-89725000D03*
X26714056Y-90427944D03*
%TD*%
D13*
%TO.P,SC2,1*%
%TO.N,N/C*%
X88114000Y-68741000D03*
D14*
X90514000Y-68741000D03*
X89811056Y-70438056D03*
X88114000Y-71141000D03*
X86416944Y-70438056D03*
X85714000Y-68741000D03*
X86416944Y-67043944D03*
X88114000Y-66341000D03*
X89811056Y-67043944D03*
%TD*%
D13*
%TO.P,SC3,1*%
%TO.N,N/C*%
X191286000Y-68741000D03*
D14*
X193686000Y-68741000D03*
X192983056Y-70438056D03*
X191286000Y-71141000D03*
X189588944Y-70438056D03*
X188886000Y-68741000D03*
X189588944Y-67043944D03*
X191286000Y-66341000D03*
X192983056Y-67043944D03*
%TD*%
D13*
%TO.P,SC4,1*%
%TO.N,N/C*%
X254383000Y-92125000D03*
D14*
X256783000Y-92125000D03*
X256080056Y-93822056D03*
X254383000Y-94525000D03*
X252685944Y-93822056D03*
X251983000Y-92125000D03*
X252685944Y-90427944D03*
X254383000Y-89725000D03*
X256080056Y-90427944D03*
%TD*%
D13*
%TO.P,SC5,1*%
%TO.N,N/C*%
X254383000Y-111075000D03*
D14*
X256783000Y-111075000D03*
X256080056Y-112772056D03*
X254383000Y-113475000D03*
X252685944Y-112772056D03*
X251983000Y-111075000D03*
X252685944Y-109377944D03*
X254383000Y-108675000D03*
X256080056Y-109377944D03*
%TD*%
D13*
%TO.P,SC6,1*%
%TO.N,N/C*%
X191286000Y-134459000D03*
D14*
X193686000Y-134459000D03*
X192983056Y-136156056D03*
X191286000Y-136859000D03*
X189588944Y-136156056D03*
X188886000Y-134459000D03*
X189588944Y-132761944D03*
X191286000Y-132059000D03*
X192983056Y-132761944D03*
%TD*%
D13*
%TO.P,SC7,1*%
%TO.N,N/C*%
X88114000Y-134459000D03*
D14*
X90514000Y-134459000D03*
X89811056Y-136156056D03*
X88114000Y-136859000D03*
X86416944Y-136156056D03*
X85714000Y-134459000D03*
X86416944Y-132761944D03*
X88114000Y-132059000D03*
X89811056Y-132761944D03*
%TD*%
D13*
%TO.P,SC8,1*%
%TO.N,N/C*%
X25017000Y-111075000D03*
D14*
X27417000Y-111075000D03*
X26714056Y-112772056D03*
X25017000Y-113475000D03*
X23319944Y-112772056D03*
X22617000Y-111075000D03*
X23319944Y-109377944D03*
X25017000Y-108675000D03*
X26714056Y-109377944D03*
%TD*%
D15*
%TO.N,GND*%
X123698000Y-87325200D03*
X125095000Y-85369400D03*
X193040000Y-77216000D03*
X30810200Y-97790000D03*
X38430200Y-97790000D03*
X46075600Y-97790000D03*
X53670200Y-97790000D03*
X61290200Y-97790000D03*
X68910200Y-97790000D03*
X76530200Y-97790000D03*
X84150200Y-97790000D03*
X91770200Y-97790000D03*
X99390200Y-97790000D03*
X107010200Y-97790000D03*
X114630200Y-97790000D03*
X122250200Y-97790000D03*
X129870200Y-97790000D03*
X137515600Y-97790000D03*
X145110200Y-97790000D03*
X152755600Y-97790000D03*
X160350200Y-97790000D03*
X167970200Y-97790000D03*
X175590200Y-97790000D03*
X183210200Y-97790000D03*
X190830200Y-97790000D03*
X198450200Y-97790000D03*
X206095600Y-97790000D03*
X213690200Y-97790000D03*
X221310200Y-97790000D03*
X228930200Y-97790000D03*
X236550200Y-97790000D03*
X244170200Y-97790000D03*
X251790200Y-97790000D03*
X230632000Y-92710000D03*
X210693000Y-87122000D03*
X184404000Y-94513400D03*
X158749992Y-63119000D03*
X191262000Y-89535000D03*
X198983600Y-75514200D03*
X176022000Y-70688200D03*
X179679600Y-65532000D03*
X58039000Y-93802200D03*
X183007016Y-94615000D03*
X185801000Y-94615000D03*
X259461000Y-97790000D03*
X24282400Y-99161600D03*
X143103600Y-66090800D03*
X120015000Y-58851800D03*
X119989600Y-64947800D03*
X121818400Y-56845200D03*
X121793000Y-66954400D03*
X156667200Y-70256400D03*
X149885400Y-139522200D03*
X149885400Y-134797800D03*
X143510000Y-124333000D03*
X144653000Y-122809000D03*
X147447000Y-64109600D03*
X156667200Y-68884800D03*
X156667200Y-71729600D03*
X156083000Y-64084200D03*
X148590000Y-64109600D03*
X196149000Y-93660000D03*
X199959000Y-93660000D03*
X198104800Y-93660000D03*
X195732400Y-89992200D03*
X167970200Y-79730600D03*
X175920400Y-79756000D03*
X180594000Y-92735400D03*
X178054000Y-92735400D03*
X197154800Y-73482200D03*
X107188000Y-79502000D03*
X109474000Y-79502000D03*
X217220800Y-84277200D03*
X42672000Y-112014000D03*
X81280000Y-112014000D03*
X118872000Y-112014000D03*
X156972000Y-112039400D03*
X195326000Y-112039400D03*
X233172000Y-112039400D03*
%TO.N,/RESET*%
X190576200Y-83667600D03*
X203123800Y-85979000D03*
X179527200Y-79654400D03*
%TO.N,/Vusb*%
X154559000Y-64770000D03*
X145948400Y-69088000D03*
X154127200Y-60426600D03*
%TO.N,/D+*%
X152679400Y-67284600D03*
X151358600Y-59867800D03*
%TO.N,/D-*%
X151390000Y-67284600D03*
X152450796Y-59867800D03*
%TO.N,/CC2*%
X150495000Y-77647800D03*
X146227800Y-77647828D03*
%TO.N,/SDA*%
X183794400Y-80238600D03*
X172415200Y-111734600D03*
%TO.N,/SCL*%
X183819800Y-84988400D03*
X173278800Y-110769400D03*
%TO.N,/D5~~_DAT*%
X29210000Y-101600000D03*
X21590000Y-101600000D03*
%TO.N,/D4_MODE*%
X189987418Y-89352618D03*
X189509400Y-110439200D03*
%TD*%
D16*
%TO.N,/RESET*%
X192887600Y-85979000D02*
X203123800Y-85979000D01*
X190576200Y-83667600D02*
X192887600Y-85979000D01*
X188798200Y-77851000D02*
X190576200Y-79629000D01*
X181330600Y-77851000D02*
X188798200Y-77851000D01*
X190576200Y-79629000D02*
X190576200Y-83667600D01*
X179527200Y-79654400D02*
X181330600Y-77851000D01*
D17*
%TO.N,/Vusb*%
X154559000Y-64770000D02*
X154559000Y-68199000D01*
X153670000Y-69088000D02*
X145948400Y-69088000D01*
X154559000Y-68199000D02*
X153670000Y-69088000D01*
X154127200Y-64338200D02*
X154559000Y-64770000D01*
X154127200Y-60426600D02*
X154127200Y-64338200D01*
D16*
%TO.N,/D+*%
X152679400Y-67284600D02*
X151358600Y-65963800D01*
X151358600Y-65963800D02*
X151358600Y-59867800D01*
%TO.N,/D-*%
X152603200Y-59969400D02*
X152501600Y-59867800D01*
X152501600Y-59867800D02*
X152450796Y-59867800D01*
X153593800Y-66776600D02*
X152450796Y-65633596D01*
X153162000Y-68148200D02*
X153593800Y-67716400D01*
X152450796Y-65633596D02*
X152450796Y-59867800D01*
X152253600Y-68148200D02*
X153162000Y-68148200D01*
X153593800Y-67716400D02*
X153593800Y-66776600D01*
X151390000Y-67284600D02*
X152253600Y-68148200D01*
%TO.N,/CC2*%
X150495000Y-77647800D02*
X146227828Y-77647800D01*
X146227828Y-77647800D02*
X146227800Y-77647828D01*
%TO.N,/SDA*%
X183794400Y-80238600D02*
X181660800Y-82372200D01*
X175742600Y-82372200D02*
X172415200Y-85699600D01*
X181660800Y-82372200D02*
X175742600Y-82372200D01*
X172415200Y-85699600D02*
X172415200Y-111734600D01*
%TO.N,/SCL*%
X173278800Y-85801200D02*
X173278800Y-110769400D01*
X176022000Y-83058000D02*
X173278800Y-85801200D01*
X181889400Y-83058000D02*
X176022000Y-83058000D01*
X183819800Y-84988400D02*
X181889400Y-83058000D01*
%TO.N,/D5~~_DAT*%
X29210000Y-101600000D02*
X29083000Y-101600000D01*
X29210000Y-101600000D02*
X21590000Y-101600000D01*
%TO.N,/D4_MODE*%
X189987418Y-89352618D02*
X189509400Y-89830636D01*
X189509400Y-89830636D02*
X189509400Y-110439200D01*
%TD*%
%TO.N,GND*%
X144744243Y-53893351D02*
X144873202Y-53905995D01*
X144962849Y-53933062D01*
X145045537Y-53977027D01*
X145118106Y-54036214D01*
X145177804Y-54108376D01*
X145222341Y-54190746D01*
X145250034Y-54280207D01*
X145263000Y-54403570D01*
X145263000Y-54515418D01*
X145265767Y-54543515D01*
X145265735Y-54548137D01*
X145266635Y-54557309D01*
X145282180Y-54705210D01*
X145294203Y-54763780D01*
X145305416Y-54822563D01*
X145308079Y-54831385D01*
X145352055Y-54973452D01*
X145375240Y-55028607D01*
X145397645Y-55084062D01*
X145401972Y-55092199D01*
X145472705Y-55223017D01*
X145506151Y-55272603D01*
X145538911Y-55322665D01*
X145544735Y-55329806D01*
X145639532Y-55444394D01*
X145681947Y-55486514D01*
X145723829Y-55529283D01*
X145730930Y-55535157D01*
X145846177Y-55629149D01*
X145895967Y-55662229D01*
X145945357Y-55696048D01*
X145953464Y-55700431D01*
X146084772Y-55770249D01*
X146140054Y-55793034D01*
X146195059Y-55816610D01*
X146203862Y-55819335D01*
X146346231Y-55862318D01*
X146404893Y-55873934D01*
X146463424Y-55886375D01*
X146472585Y-55887338D01*
X146472589Y-55887338D01*
X146620596Y-55901850D01*
X146620608Y-55901850D01*
X146652682Y-55905004D01*
X157274711Y-55903385D01*
X157299764Y-55900914D01*
X157389370Y-55894047D01*
X157441402Y-55884889D01*
X157493728Y-55877569D01*
X157502671Y-55875345D01*
X157622727Y-55844601D01*
X157678935Y-55824183D01*
X157735458Y-55804540D01*
X157743798Y-55800621D01*
X157855596Y-55747143D01*
X157906741Y-55716212D01*
X157958394Y-55685952D01*
X157965814Y-55680488D01*
X158065096Y-55606314D01*
X158109303Y-55565999D01*
X158154055Y-55526317D01*
X158160273Y-55519516D01*
X158243258Y-55427470D01*
X158278789Y-55379341D01*
X158314982Y-55331721D01*
X158319761Y-55323841D01*
X158383285Y-55217430D01*
X158408766Y-55163368D01*
X158435048Y-55109570D01*
X158438204Y-55100912D01*
X158479850Y-54984189D01*
X158482704Y-54972775D01*
X158487337Y-54961964D01*
X158498300Y-54910389D01*
X158511091Y-54859225D01*
X158511673Y-54847476D01*
X158514119Y-54835969D01*
X158515082Y-54826805D01*
X158524653Y-54729193D01*
X158534297Y-54697249D01*
X158549962Y-54667788D01*
X158571053Y-54641928D01*
X158596760Y-54620661D01*
X158626115Y-54604789D01*
X158657991Y-54594921D01*
X158693791Y-54591159D01*
X164471893Y-55120321D01*
X170288775Y-55796711D01*
X176087444Y-56615025D01*
X181864333Y-57574760D01*
X187616071Y-58675354D01*
X193339197Y-59916146D01*
X199030310Y-61296398D01*
X204689136Y-62816127D01*
X205782776Y-63127027D01*
X210129566Y-64451831D01*
X214425571Y-65918500D01*
X218670621Y-67526809D01*
X222860016Y-69274980D01*
X226989126Y-71161082D01*
X231053420Y-73183041D01*
X235048498Y-75338671D01*
X238969871Y-77625553D01*
X242813266Y-80041191D01*
X246574449Y-82582923D01*
X250249293Y-85247961D01*
X253833795Y-88033404D01*
X254142318Y-88290000D01*
X254005285Y-88290000D01*
X253264372Y-88437377D01*
X252566446Y-88726467D01*
X251938330Y-89146161D01*
X251404161Y-89680330D01*
X250984467Y-90308446D01*
X250695377Y-91006372D01*
X250548000Y-91747285D01*
X250548000Y-92502715D01*
X250695377Y-93243628D01*
X250984467Y-93941554D01*
X251404161Y-94569670D01*
X251938330Y-95103839D01*
X252566446Y-95523533D01*
X253264372Y-95812623D01*
X254005285Y-95960000D01*
X254760715Y-95960000D01*
X255501628Y-95812623D01*
X256199554Y-95523533D01*
X256827670Y-95103839D01*
X257361839Y-94569670D01*
X257781533Y-93941554D01*
X258070623Y-93243628D01*
X258218000Y-92502715D01*
X258218000Y-91747285D01*
X258214140Y-91727880D01*
X260715928Y-93952982D01*
X264007404Y-97081945D01*
X265911000Y-98993568D01*
X265911001Y-104205321D01*
X262876884Y-107217368D01*
X259550976Y-110307004D01*
X258214957Y-111468013D01*
X258218000Y-111452715D01*
X258218000Y-110697285D01*
X258070623Y-109956372D01*
X257781533Y-109258446D01*
X257361839Y-108630330D01*
X256827670Y-108096161D01*
X256199554Y-107676467D01*
X255501628Y-107387377D01*
X254760715Y-107240000D01*
X254005285Y-107240000D01*
X253264372Y-107387377D01*
X252566446Y-107676467D01*
X251938330Y-108096161D01*
X251404161Y-108630330D01*
X250984467Y-109258446D01*
X250695377Y-109956372D01*
X250548000Y-110697285D01*
X250548000Y-111452715D01*
X250695377Y-112193628D01*
X250984467Y-112891554D01*
X251404161Y-113519670D01*
X251938330Y-114053839D01*
X252566446Y-114473533D01*
X253264372Y-114762623D01*
X254005285Y-114910000D01*
X254123837Y-114910000D01*
X252601154Y-116147047D01*
X248984869Y-118891048D01*
X245279560Y-121513665D01*
X241489363Y-124011973D01*
X237618426Y-126383238D01*
X233670948Y-128624885D01*
X229651329Y-130734414D01*
X225564017Y-132709493D01*
X221413471Y-134547970D01*
X217204188Y-136247850D01*
X212940928Y-137807210D01*
X208626495Y-139224962D01*
X205804836Y-140067226D01*
X205803482Y-140067559D01*
X205794577Y-140069929D01*
X200136135Y-141617904D01*
X194449386Y-143025232D01*
X188729969Y-144293196D01*
X182981260Y-145421048D01*
X177206730Y-146408107D01*
X171409796Y-147253787D01*
X165593935Y-147957584D01*
X159762619Y-148519077D01*
X153919279Y-148937932D01*
X148067510Y-149213896D01*
X142208420Y-149346857D01*
X139696544Y-149360009D01*
X139682383Y-149360256D01*
X133842001Y-149288896D01*
X127987618Y-149074222D01*
X122140253Y-148716579D01*
X116303335Y-148216174D01*
X110480433Y-147573317D01*
X104674927Y-146788379D01*
X98890351Y-145861836D01*
X98330104Y-145758000D01*
X137645807Y-145758000D01*
X137649000Y-145790420D01*
X137649001Y-148507571D01*
X137645807Y-148540000D01*
X137658550Y-148669383D01*
X137696290Y-148793793D01*
X137757575Y-148908450D01*
X137840052Y-149008948D01*
X137940550Y-149091425D01*
X138055207Y-149152710D01*
X138179617Y-149190450D01*
X138276581Y-149200000D01*
X138309000Y-149203193D01*
X138341419Y-149200000D01*
X141058581Y-149200000D01*
X141091000Y-149203193D01*
X141123419Y-149200000D01*
X141220383Y-149190450D01*
X141344793Y-149152710D01*
X141459450Y-149091425D01*
X141559948Y-149008948D01*
X141642425Y-148908450D01*
X141703710Y-148793793D01*
X141741450Y-148669383D01*
X141754193Y-148540000D01*
X141751000Y-148507581D01*
X141751000Y-145790419D01*
X141754193Y-145758000D01*
X141741450Y-145628617D01*
X141703710Y-145504207D01*
X141642425Y-145389550D01*
X141559948Y-145289052D01*
X141459450Y-145206575D01*
X141344793Y-145145290D01*
X141220383Y-145107550D01*
X141123419Y-145098000D01*
X141091000Y-145094807D01*
X141058581Y-145098000D01*
X138341419Y-145098000D01*
X138309000Y-145094807D01*
X138276581Y-145098000D01*
X138179617Y-145107550D01*
X138055207Y-145145290D01*
X137940550Y-145206575D01*
X137840052Y-145289052D01*
X137757575Y-145389550D01*
X137696290Y-145504207D01*
X137658550Y-145628617D01*
X137645807Y-145758000D01*
X98330104Y-145758000D01*
X93130165Y-144794246D01*
X87397753Y-143586234D01*
X81696577Y-142238530D01*
X76027743Y-140751336D01*
X76026915Y-140751103D01*
X132397500Y-140751103D01*
X132397500Y-141188897D01*
X132482909Y-141618279D01*
X132650446Y-142022749D01*
X132893671Y-142386761D01*
X133203239Y-142696329D01*
X133567251Y-142939554D01*
X133971721Y-143107091D01*
X134401103Y-143192500D01*
X134838897Y-143192500D01*
X135268279Y-143107091D01*
X135672749Y-142939554D01*
X136036761Y-142696329D01*
X136346329Y-142386761D01*
X136589554Y-142022749D01*
X136757091Y-141618279D01*
X136842500Y-141188897D01*
X136842500Y-140751103D01*
X142557500Y-140751103D01*
X142557500Y-141188897D01*
X142642909Y-141618279D01*
X142810446Y-142022749D01*
X143053671Y-142386761D01*
X143363239Y-142696329D01*
X143727251Y-142939554D01*
X144131721Y-143107091D01*
X144561103Y-143192500D01*
X144998897Y-143192500D01*
X145428279Y-143107091D01*
X145832749Y-142939554D01*
X146196761Y-142696329D01*
X146506329Y-142386761D01*
X146749554Y-142022749D01*
X146917091Y-141618279D01*
X147002500Y-141188897D01*
X147002500Y-140751103D01*
X146917091Y-140321721D01*
X146749554Y-139917251D01*
X146506329Y-139553239D01*
X146196761Y-139243671D01*
X145832749Y-139000446D01*
X145428279Y-138832909D01*
X144998897Y-138747500D01*
X144561103Y-138747500D01*
X144131721Y-138832909D01*
X143727251Y-139000446D01*
X143363239Y-139243671D01*
X143053671Y-139553239D01*
X142810446Y-139917251D01*
X142642909Y-140321721D01*
X142557500Y-140751103D01*
X136842500Y-140751103D01*
X136757091Y-140321721D01*
X136589554Y-139917251D01*
X136346329Y-139553239D01*
X136036761Y-139243671D01*
X135672749Y-139000446D01*
X135268279Y-138832909D01*
X134838897Y-138747500D01*
X134401103Y-138747500D01*
X133971721Y-138832909D01*
X133567251Y-139000446D01*
X133203239Y-139243671D01*
X132893671Y-139553239D01*
X132650446Y-139917251D01*
X132482909Y-140321721D01*
X132397500Y-140751103D01*
X76026915Y-140751103D01*
X73639791Y-140080111D01*
X73638577Y-140079686D01*
X73623210Y-140074797D01*
X69270434Y-138748169D01*
X64974429Y-137281500D01*
X60729369Y-135673187D01*
X56914465Y-134081285D01*
X84279000Y-134081285D01*
X84279000Y-134836715D01*
X84426377Y-135577628D01*
X84715467Y-136275554D01*
X85135161Y-136903670D01*
X85669330Y-137437839D01*
X86297446Y-137857533D01*
X86995372Y-138146623D01*
X87736285Y-138294000D01*
X88491715Y-138294000D01*
X89232628Y-138146623D01*
X89930554Y-137857533D01*
X90558670Y-137437839D01*
X91092839Y-136903670D01*
X91512533Y-136275554D01*
X91801623Y-135577628D01*
X91949000Y-134836715D01*
X91949000Y-134081285D01*
X187451000Y-134081285D01*
X187451000Y-134836715D01*
X187598377Y-135577628D01*
X187887467Y-136275554D01*
X188307161Y-136903670D01*
X188841330Y-137437839D01*
X189469446Y-137857533D01*
X190167372Y-138146623D01*
X190908285Y-138294000D01*
X191663715Y-138294000D01*
X192404628Y-138146623D01*
X193102554Y-137857533D01*
X193730670Y-137437839D01*
X194264839Y-136903670D01*
X194684533Y-136275554D01*
X194973623Y-135577628D01*
X195121000Y-134836715D01*
X195121000Y-134081285D01*
X194973623Y-133340372D01*
X194684533Y-132642446D01*
X194264839Y-132014330D01*
X193730670Y-131480161D01*
X193102554Y-131060467D01*
X192404628Y-130771377D01*
X191663715Y-130624000D01*
X190908285Y-130624000D01*
X190167372Y-130771377D01*
X189469446Y-131060467D01*
X188841330Y-131480161D01*
X188307161Y-132014330D01*
X187887467Y-132642446D01*
X187598377Y-133340372D01*
X187451000Y-134081285D01*
X91949000Y-134081285D01*
X91801623Y-133340372D01*
X91512533Y-132642446D01*
X91092839Y-132014330D01*
X90558670Y-131480161D01*
X89930554Y-131060467D01*
X89232628Y-130771377D01*
X88491715Y-130624000D01*
X87736285Y-130624000D01*
X86995372Y-130771377D01*
X86297446Y-131060467D01*
X85669330Y-131480161D01*
X85135161Y-132014330D01*
X84715467Y-132642446D01*
X84426377Y-133340372D01*
X84279000Y-134081285D01*
X56914465Y-134081285D01*
X56539984Y-133925020D01*
X52410874Y-132038919D01*
X48346544Y-130016941D01*
X44351490Y-127861322D01*
X40430142Y-125574455D01*
X36586734Y-123158809D01*
X32825551Y-120617077D01*
X29150693Y-117952028D01*
X25566205Y-115166596D01*
X25257682Y-114910000D01*
X25394715Y-114910000D01*
X26135628Y-114762623D01*
X26833554Y-114473533D01*
X27461670Y-114053839D01*
X27995839Y-113519670D01*
X28415533Y-112891554D01*
X28704623Y-112193628D01*
X28816206Y-111632661D01*
X171380200Y-111632661D01*
X171380200Y-111836539D01*
X171419974Y-112036498D01*
X171497995Y-112224856D01*
X171611263Y-112394374D01*
X171755426Y-112538537D01*
X171924944Y-112651805D01*
X172113302Y-112729826D01*
X172313261Y-112769600D01*
X172517139Y-112769600D01*
X172717098Y-112729826D01*
X172905456Y-112651805D01*
X173074974Y-112538537D01*
X173219137Y-112394374D01*
X173332405Y-112224856D01*
X173410426Y-112036498D01*
X173450200Y-111836539D01*
X173450200Y-111790583D01*
X173580698Y-111764626D01*
X173769056Y-111686605D01*
X173938574Y-111573337D01*
X174082737Y-111429174D01*
X174196005Y-111259656D01*
X174274026Y-111071298D01*
X174313800Y-110871339D01*
X174313800Y-110667461D01*
X174274026Y-110467502D01*
X174220079Y-110337261D01*
X188474400Y-110337261D01*
X188474400Y-110541139D01*
X188514174Y-110741098D01*
X188592195Y-110929456D01*
X188705463Y-111098974D01*
X188849626Y-111243137D01*
X189019144Y-111356405D01*
X189207502Y-111434426D01*
X189407461Y-111474200D01*
X189611339Y-111474200D01*
X189811298Y-111434426D01*
X189999656Y-111356405D01*
X190169174Y-111243137D01*
X190313337Y-111098974D01*
X190426605Y-110929456D01*
X190504626Y-110741098D01*
X190544400Y-110541139D01*
X190544400Y-110337261D01*
X190504626Y-110137302D01*
X190426605Y-109948944D01*
X190313337Y-109779426D01*
X190271400Y-109737489D01*
X190271400Y-90351408D01*
X190289316Y-90347844D01*
X190477674Y-90269823D01*
X190647192Y-90156555D01*
X190791355Y-90012392D01*
X190904623Y-89842874D01*
X190982644Y-89654516D01*
X191022418Y-89454557D01*
X191022418Y-89250679D01*
X190982644Y-89050720D01*
X190904623Y-88862362D01*
X190791355Y-88692844D01*
X190647192Y-88548681D01*
X190477674Y-88435413D01*
X190289316Y-88357392D01*
X190089357Y-88317618D01*
X189885479Y-88317618D01*
X189685520Y-88357392D01*
X189497162Y-88435413D01*
X189327644Y-88548681D01*
X189183481Y-88692844D01*
X189070213Y-88862362D01*
X188992192Y-89050720D01*
X188952418Y-89250679D01*
X188952418Y-89308174D01*
X188936816Y-89327186D01*
X188872755Y-89405244D01*
X188837566Y-89471079D01*
X188801998Y-89537622D01*
X188758426Y-89681259D01*
X188747421Y-89792998D01*
X188743714Y-89830636D01*
X188747400Y-89868059D01*
X188747401Y-109737488D01*
X188705463Y-109779426D01*
X188592195Y-109948944D01*
X188514174Y-110137302D01*
X188474400Y-110337261D01*
X174220079Y-110337261D01*
X174196005Y-110279144D01*
X174082737Y-110109626D01*
X174040800Y-110067689D01*
X174040800Y-86116830D01*
X176337630Y-83820000D01*
X181573770Y-83820000D01*
X182784800Y-85031031D01*
X182784800Y-85090339D01*
X182824574Y-85290298D01*
X182902595Y-85478656D01*
X183015863Y-85648174D01*
X183160026Y-85792337D01*
X183329544Y-85905605D01*
X183517902Y-85983626D01*
X183717861Y-86023400D01*
X183921739Y-86023400D01*
X184121698Y-85983626D01*
X184310056Y-85905605D01*
X184479574Y-85792337D01*
X184623737Y-85648174D01*
X184737005Y-85478656D01*
X184815026Y-85290298D01*
X184854800Y-85090339D01*
X184854800Y-84886461D01*
X184815026Y-84686502D01*
X184737005Y-84498144D01*
X184623737Y-84328626D01*
X184479574Y-84184463D01*
X184310056Y-84071195D01*
X184121698Y-83993174D01*
X183921739Y-83953400D01*
X183862431Y-83953400D01*
X182509830Y-82600800D01*
X183837031Y-81273600D01*
X183896339Y-81273600D01*
X184096298Y-81233826D01*
X184284656Y-81155805D01*
X184454174Y-81042537D01*
X184598337Y-80898374D01*
X184711605Y-80728856D01*
X184789626Y-80540498D01*
X184829400Y-80340539D01*
X184829400Y-80136661D01*
X184789626Y-79936702D01*
X184711605Y-79748344D01*
X184598337Y-79578826D01*
X184454174Y-79434663D01*
X184284656Y-79321395D01*
X184096298Y-79243374D01*
X183896339Y-79203600D01*
X183692461Y-79203600D01*
X183492502Y-79243374D01*
X183304144Y-79321395D01*
X183134626Y-79434663D01*
X182990463Y-79578826D01*
X182877195Y-79748344D01*
X182799174Y-79936702D01*
X182759400Y-80136661D01*
X182759400Y-80195969D01*
X181345170Y-81610200D01*
X175780022Y-81610200D01*
X175742599Y-81606514D01*
X175705176Y-81610200D01*
X175705174Y-81610200D01*
X175593222Y-81621226D01*
X175449585Y-81664798D01*
X175449583Y-81664799D01*
X175435226Y-81672473D01*
X175317208Y-81735555D01*
X175201178Y-81830778D01*
X175177321Y-81859848D01*
X171902854Y-85134316D01*
X171873778Y-85158178D01*
X171825505Y-85217000D01*
X171778555Y-85274208D01*
X171754493Y-85319226D01*
X171707798Y-85406586D01*
X171664226Y-85550223D01*
X171656857Y-85625045D01*
X171649514Y-85699600D01*
X171653200Y-85737023D01*
X171653201Y-111032888D01*
X171611263Y-111074826D01*
X171497995Y-111244344D01*
X171419974Y-111432702D01*
X171380200Y-111632661D01*
X28816206Y-111632661D01*
X28852000Y-111452715D01*
X28852000Y-110697285D01*
X28704623Y-109956372D01*
X28415533Y-109258446D01*
X27995839Y-108630330D01*
X27461670Y-108096161D01*
X26833554Y-107676467D01*
X26135628Y-107387377D01*
X25394715Y-107240000D01*
X24639285Y-107240000D01*
X23898372Y-107387377D01*
X23200446Y-107676467D01*
X22572330Y-108096161D01*
X22038161Y-108630330D01*
X21618467Y-109258446D01*
X21329377Y-109956372D01*
X21182000Y-110697285D01*
X21182000Y-111452715D01*
X21185860Y-111472120D01*
X18684071Y-109247016D01*
X15392577Y-106118038D01*
X13489000Y-104206432D01*
X13489000Y-101498061D01*
X20555000Y-101498061D01*
X20555000Y-101701939D01*
X20594774Y-101901898D01*
X20672795Y-102090256D01*
X20786063Y-102259774D01*
X20930226Y-102403937D01*
X21099744Y-102517205D01*
X21288102Y-102595226D01*
X21488061Y-102635000D01*
X21691939Y-102635000D01*
X21891898Y-102595226D01*
X22080256Y-102517205D01*
X22249774Y-102403937D01*
X22291711Y-102362000D01*
X28508289Y-102362000D01*
X28550226Y-102403937D01*
X28719744Y-102517205D01*
X28908102Y-102595226D01*
X29108061Y-102635000D01*
X29311939Y-102635000D01*
X29511898Y-102595226D01*
X29700256Y-102517205D01*
X29869774Y-102403937D01*
X30013937Y-102259774D01*
X30127205Y-102090256D01*
X30205226Y-101901898D01*
X30245000Y-101701939D01*
X30245000Y-101498061D01*
X30205226Y-101298102D01*
X30127205Y-101109744D01*
X30013937Y-100940226D01*
X29869774Y-100796063D01*
X29700256Y-100682795D01*
X29511898Y-100604774D01*
X29311939Y-100565000D01*
X29108061Y-100565000D01*
X28908102Y-100604774D01*
X28719744Y-100682795D01*
X28550226Y-100796063D01*
X28508289Y-100838000D01*
X22291711Y-100838000D01*
X22249774Y-100796063D01*
X22080256Y-100682795D01*
X21891898Y-100604774D01*
X21691939Y-100565000D01*
X21488061Y-100565000D01*
X21288102Y-100604774D01*
X21099744Y-100682795D01*
X20930226Y-100796063D01*
X20786063Y-100940226D01*
X20672795Y-101109744D01*
X20594774Y-101298102D01*
X20555000Y-101498061D01*
X13489000Y-101498061D01*
X13489000Y-98994678D01*
X16523116Y-95982632D01*
X19848994Y-92893023D01*
X21185043Y-91731987D01*
X21182000Y-91747285D01*
X21182000Y-92502715D01*
X21329377Y-93243628D01*
X21618467Y-93941554D01*
X22038161Y-94569670D01*
X22572330Y-95103839D01*
X23200446Y-95523533D01*
X23898372Y-95812623D01*
X24639285Y-95960000D01*
X25394715Y-95960000D01*
X26135628Y-95812623D01*
X26833554Y-95523533D01*
X27461670Y-95103839D01*
X27995839Y-94569670D01*
X28415533Y-93941554D01*
X28704623Y-93243628D01*
X28852000Y-92502715D01*
X28852000Y-91747285D01*
X28704623Y-91006372D01*
X28415533Y-90308446D01*
X27995839Y-89680330D01*
X27461670Y-89146161D01*
X26833554Y-88726467D01*
X26135628Y-88437377D01*
X25394715Y-88290000D01*
X25276164Y-88290000D01*
X26798847Y-87052953D01*
X30415132Y-84308952D01*
X34120412Y-81686353D01*
X37357752Y-79552461D01*
X178492200Y-79552461D01*
X178492200Y-79756339D01*
X178531974Y-79956298D01*
X178609995Y-80144656D01*
X178723263Y-80314174D01*
X178867426Y-80458337D01*
X179036944Y-80571605D01*
X179225302Y-80649626D01*
X179425261Y-80689400D01*
X179629139Y-80689400D01*
X179829098Y-80649626D01*
X180017456Y-80571605D01*
X180186974Y-80458337D01*
X180331137Y-80314174D01*
X180444405Y-80144656D01*
X180522426Y-79956298D01*
X180562200Y-79756339D01*
X180562200Y-79697030D01*
X181646231Y-78613000D01*
X188482570Y-78613000D01*
X189814200Y-79944630D01*
X189814201Y-82965888D01*
X189772263Y-83007826D01*
X189658995Y-83177344D01*
X189580974Y-83365702D01*
X189541200Y-83565661D01*
X189541200Y-83769539D01*
X189580974Y-83969498D01*
X189658995Y-84157856D01*
X189772263Y-84327374D01*
X189916426Y-84471537D01*
X190085944Y-84584805D01*
X190274302Y-84662826D01*
X190474261Y-84702600D01*
X190533570Y-84702600D01*
X192322321Y-86491352D01*
X192346178Y-86520422D01*
X192462208Y-86615645D01*
X192594585Y-86686402D01*
X192738222Y-86729974D01*
X192850174Y-86741000D01*
X192850176Y-86741000D01*
X192887599Y-86744686D01*
X192925022Y-86741000D01*
X202422089Y-86741000D01*
X202464026Y-86782937D01*
X202633544Y-86896205D01*
X202821902Y-86974226D01*
X203021861Y-87014000D01*
X203225739Y-87014000D01*
X203425698Y-86974226D01*
X203614056Y-86896205D01*
X203783574Y-86782937D01*
X203927737Y-86638774D01*
X204041005Y-86469256D01*
X204119026Y-86280898D01*
X204158800Y-86080939D01*
X204158800Y-85877061D01*
X204119026Y-85677102D01*
X204041005Y-85488744D01*
X203927737Y-85319226D01*
X203783574Y-85175063D01*
X203614056Y-85061795D01*
X203425698Y-84983774D01*
X203225739Y-84944000D01*
X203021861Y-84944000D01*
X202821902Y-84983774D01*
X202633544Y-85061795D01*
X202464026Y-85175063D01*
X202422089Y-85217000D01*
X193203231Y-85217000D01*
X191611200Y-83624970D01*
X191611200Y-83565661D01*
X191571426Y-83365702D01*
X191493405Y-83177344D01*
X191380137Y-83007826D01*
X191338200Y-82965889D01*
X191338200Y-79666423D01*
X191341886Y-79629000D01*
X191338133Y-79590896D01*
X191327174Y-79479622D01*
X191283602Y-79335985D01*
X191235632Y-79246240D01*
X191212845Y-79203607D01*
X191176824Y-79159716D01*
X191117622Y-79087578D01*
X191088547Y-79063717D01*
X189363484Y-77338654D01*
X189339622Y-77309578D01*
X189223592Y-77214355D01*
X189091215Y-77143598D01*
X188947578Y-77100026D01*
X188835626Y-77089000D01*
X188835623Y-77089000D01*
X188798200Y-77085314D01*
X188760777Y-77089000D01*
X181368023Y-77089000D01*
X181330600Y-77085314D01*
X181293177Y-77089000D01*
X181293174Y-77089000D01*
X181181222Y-77100026D01*
X181037585Y-77143598D01*
X181000147Y-77163609D01*
X180905207Y-77214355D01*
X180873859Y-77240082D01*
X180789178Y-77309578D01*
X180765321Y-77338648D01*
X179484570Y-78619400D01*
X179425261Y-78619400D01*
X179225302Y-78659174D01*
X179036944Y-78737195D01*
X178867426Y-78850463D01*
X178723263Y-78994626D01*
X178609995Y-79164144D01*
X178531974Y-79352502D01*
X178492200Y-79552461D01*
X37357752Y-79552461D01*
X37910659Y-79188013D01*
X40591321Y-77545889D01*
X145192800Y-77545889D01*
X145192800Y-77749767D01*
X145232574Y-77949726D01*
X145310595Y-78138084D01*
X145423863Y-78307602D01*
X145568026Y-78451765D01*
X145737544Y-78565033D01*
X145925902Y-78643054D01*
X146125861Y-78682828D01*
X146329739Y-78682828D01*
X146529698Y-78643054D01*
X146718056Y-78565033D01*
X146887574Y-78451765D01*
X146929539Y-78409800D01*
X149793289Y-78409800D01*
X149835226Y-78451737D01*
X150004744Y-78565005D01*
X150193102Y-78643026D01*
X150393061Y-78682800D01*
X150596939Y-78682800D01*
X150796898Y-78643026D01*
X150985256Y-78565005D01*
X151154774Y-78451737D01*
X151298937Y-78307574D01*
X151412205Y-78138056D01*
X151490226Y-77949698D01*
X151530000Y-77749739D01*
X151530000Y-77545861D01*
X151490226Y-77345902D01*
X151412205Y-77157544D01*
X151298937Y-76988026D01*
X151154774Y-76843863D01*
X150985256Y-76730595D01*
X150796898Y-76652574D01*
X150596939Y-76612800D01*
X150393061Y-76612800D01*
X150193102Y-76652574D01*
X150004744Y-76730595D01*
X149835226Y-76843863D01*
X149793289Y-76885800D01*
X146929483Y-76885800D01*
X146887574Y-76843891D01*
X146718056Y-76730623D01*
X146529698Y-76652602D01*
X146329739Y-76612828D01*
X146125861Y-76612828D01*
X145925902Y-76652602D01*
X145737544Y-76730623D01*
X145568026Y-76843891D01*
X145423863Y-76988054D01*
X145310595Y-77157572D01*
X145232574Y-77345930D01*
X145192800Y-77545889D01*
X40591321Y-77545889D01*
X41781588Y-76816754D01*
X45729040Y-74575122D01*
X49748659Y-72465592D01*
X53835983Y-70490507D01*
X57986529Y-68652030D01*
X58701526Y-68363285D01*
X84279000Y-68363285D01*
X84279000Y-69118715D01*
X84426377Y-69859628D01*
X84715467Y-70557554D01*
X85135161Y-71185670D01*
X85669330Y-71719839D01*
X86297446Y-72139533D01*
X86995372Y-72428623D01*
X87736285Y-72576000D01*
X88491715Y-72576000D01*
X89232628Y-72428623D01*
X89930554Y-72139533D01*
X90558670Y-71719839D01*
X91092839Y-71185670D01*
X91512533Y-70557554D01*
X91801623Y-69859628D01*
X91949000Y-69118715D01*
X91949000Y-68986061D01*
X144913400Y-68986061D01*
X144913400Y-69189939D01*
X144953174Y-69389898D01*
X145031195Y-69578256D01*
X145144463Y-69747774D01*
X145288626Y-69891937D01*
X145458144Y-70005205D01*
X145646502Y-70083226D01*
X145846461Y-70123000D01*
X146050339Y-70123000D01*
X146250298Y-70083226D01*
X146353447Y-70040500D01*
X153623215Y-70040500D01*
X153670000Y-70045108D01*
X153716785Y-70040500D01*
X153856723Y-70026717D01*
X154036269Y-69972252D01*
X154201741Y-69883806D01*
X154346778Y-69764778D01*
X154376607Y-69728431D01*
X155199436Y-68905603D01*
X155235778Y-68875778D01*
X155354806Y-68730741D01*
X155443252Y-68565269D01*
X155497717Y-68385723D01*
X155499926Y-68363285D01*
X187451000Y-68363285D01*
X187451000Y-69118715D01*
X187598377Y-69859628D01*
X187887467Y-70557554D01*
X188307161Y-71185670D01*
X188841330Y-71719839D01*
X189469446Y-72139533D01*
X190167372Y-72428623D01*
X190908285Y-72576000D01*
X191663715Y-72576000D01*
X192404628Y-72428623D01*
X193102554Y-72139533D01*
X193730670Y-71719839D01*
X194264839Y-71185670D01*
X194684533Y-70557554D01*
X194973623Y-69859628D01*
X195121000Y-69118715D01*
X195121000Y-68363285D01*
X194973623Y-67622372D01*
X194684533Y-66924446D01*
X194264839Y-66296330D01*
X193730670Y-65762161D01*
X193102554Y-65342467D01*
X192404628Y-65053377D01*
X191663715Y-64906000D01*
X190908285Y-64906000D01*
X190167372Y-65053377D01*
X189469446Y-65342467D01*
X188841330Y-65762161D01*
X188307161Y-66296330D01*
X187887467Y-66924446D01*
X187598377Y-67622372D01*
X187451000Y-68363285D01*
X155499926Y-68363285D01*
X155511500Y-68245785D01*
X155516108Y-68199000D01*
X155511500Y-68152215D01*
X155511500Y-65175047D01*
X155554226Y-65071898D01*
X155594000Y-64871939D01*
X155594000Y-64668061D01*
X155554226Y-64468102D01*
X155476205Y-64279744D01*
X155362937Y-64110226D01*
X155218774Y-63966063D01*
X155079700Y-63873137D01*
X155079700Y-63416355D01*
X155084997Y-63428678D01*
X155211839Y-63613169D01*
X155372236Y-63769369D01*
X155560024Y-63891276D01*
X155783126Y-63971119D01*
X155958000Y-63844954D01*
X155958000Y-63017000D01*
X156212000Y-63017000D01*
X156212000Y-63844954D01*
X156386874Y-63971119D01*
X156609976Y-63891276D01*
X156797764Y-63769369D01*
X156958161Y-63613169D01*
X157085003Y-63428678D01*
X157173415Y-63222987D01*
X157220000Y-63004000D01*
X157220000Y-62504000D01*
X157041291Y-62504000D01*
X157104276Y-62406976D01*
X157160454Y-62250000D01*
X157220000Y-62250000D01*
X157220000Y-61750000D01*
X157183921Y-61580400D01*
X157184119Y-61580126D01*
X157183487Y-61578361D01*
X157173415Y-61531013D01*
X157132361Y-61435500D01*
X157104276Y-61357024D01*
X157087564Y-61331281D01*
X157085003Y-61325322D01*
X157061570Y-61291239D01*
X156982369Y-61169236D01*
X156966455Y-61152894D01*
X156958161Y-61140831D01*
X156891290Y-61075710D01*
X156826169Y-61008839D01*
X156814106Y-61000545D01*
X156797764Y-60984631D01*
X156675761Y-60905430D01*
X156641678Y-60881997D01*
X156635719Y-60879436D01*
X156609976Y-60862724D01*
X156531500Y-60834639D01*
X156435987Y-60793585D01*
X156388639Y-60783513D01*
X156386874Y-60782881D01*
X156386600Y-60783079D01*
X156217000Y-60747000D01*
X156006937Y-60747000D01*
X155949277Y-60607795D01*
X155852424Y-60462845D01*
X155729155Y-60339576D01*
X155584205Y-60242723D01*
X155423145Y-60176010D01*
X155252165Y-60142000D01*
X155125867Y-60142000D01*
X155122426Y-60124702D01*
X155044405Y-59936344D01*
X154931137Y-59766826D01*
X154786974Y-59622663D01*
X154617456Y-59509395D01*
X154429098Y-59431374D01*
X154229139Y-59391600D01*
X154025261Y-59391600D01*
X153825302Y-59431374D01*
X153636944Y-59509395D01*
X153467426Y-59622663D01*
X153458990Y-59631099D01*
X153446022Y-59565902D01*
X153368001Y-59377544D01*
X153254733Y-59208026D01*
X153110570Y-59063863D01*
X152941052Y-58950595D01*
X152752694Y-58872574D01*
X152552735Y-58832800D01*
X152348857Y-58832800D01*
X152148898Y-58872574D01*
X151960540Y-58950595D01*
X151904698Y-58987907D01*
X151848856Y-58950595D01*
X151660498Y-58872574D01*
X151460539Y-58832800D01*
X151256661Y-58832800D01*
X151056702Y-58872574D01*
X150868344Y-58950595D01*
X150698826Y-59063863D01*
X150554663Y-59208026D01*
X150441395Y-59377544D01*
X150363374Y-59565902D01*
X150323600Y-59765861D01*
X150323600Y-59969739D01*
X150363374Y-60169698D01*
X150441395Y-60358056D01*
X150554663Y-60527574D01*
X150596601Y-60569512D01*
X150596600Y-65926377D01*
X150592914Y-65963800D01*
X150596600Y-66001223D01*
X150596600Y-66001225D01*
X150607626Y-66113177D01*
X150651198Y-66256814D01*
X150662011Y-66277044D01*
X150721955Y-66389192D01*
X150753665Y-66427830D01*
X150773367Y-66451837D01*
X150730226Y-66480663D01*
X150586063Y-66624826D01*
X150472795Y-66794344D01*
X150394774Y-66982702D01*
X150355000Y-67182661D01*
X150355000Y-67386539D01*
X150394774Y-67586498D01*
X150472795Y-67774856D01*
X150586063Y-67944374D01*
X150730226Y-68088537D01*
X150800511Y-68135500D01*
X146353447Y-68135500D01*
X146250298Y-68092774D01*
X146050339Y-68053000D01*
X145846461Y-68053000D01*
X145646502Y-68092774D01*
X145458144Y-68170795D01*
X145288626Y-68284063D01*
X145144463Y-68428226D01*
X145031195Y-68597744D01*
X144953174Y-68786102D01*
X144913400Y-68986061D01*
X91949000Y-68986061D01*
X91949000Y-68363285D01*
X91801623Y-67622372D01*
X91512533Y-66924446D01*
X91092839Y-66296330D01*
X90558670Y-65762161D01*
X89930554Y-65342467D01*
X89232628Y-65053377D01*
X88491715Y-64906000D01*
X87736285Y-64906000D01*
X86995372Y-65053377D01*
X86297446Y-65342467D01*
X85669330Y-65762161D01*
X85135161Y-66296330D01*
X84715467Y-66924446D01*
X84426377Y-67622372D01*
X84279000Y-68363285D01*
X58701526Y-68363285D01*
X62195812Y-66952150D01*
X66459081Y-65392786D01*
X70773505Y-63975038D01*
X73380616Y-63196816D01*
X125973000Y-63196816D01*
X125973000Y-63499184D01*
X126031989Y-63795743D01*
X126147701Y-64075095D01*
X126315688Y-64326505D01*
X126529495Y-64540312D01*
X126780905Y-64708299D01*
X127060257Y-64824011D01*
X127356816Y-64883000D01*
X127659184Y-64883000D01*
X127955743Y-64824011D01*
X128235095Y-64708299D01*
X128486505Y-64540312D01*
X128700312Y-64326505D01*
X128868299Y-64075095D01*
X128984011Y-63795743D01*
X129043000Y-63499184D01*
X129043000Y-63196816D01*
X128984011Y-62900257D01*
X128868299Y-62620905D01*
X128700312Y-62369495D01*
X128486505Y-62155688D01*
X128235095Y-61987701D01*
X127955743Y-61871989D01*
X127659184Y-61813000D01*
X127356816Y-61813000D01*
X127060257Y-61871989D01*
X126780905Y-61987701D01*
X126529495Y-62155688D01*
X126315688Y-62369495D01*
X126147701Y-62620905D01*
X126031989Y-62900257D01*
X125973000Y-63196816D01*
X73380616Y-63196816D01*
X73557595Y-63143988D01*
X73565854Y-63142381D01*
X73581604Y-63138915D01*
X73597264Y-63135065D01*
X73606169Y-63132694D01*
X78656809Y-61750000D01*
X146310000Y-61750000D01*
X146310000Y-62250000D01*
X146369546Y-62250000D01*
X146425724Y-62406976D01*
X146488709Y-62504000D01*
X146310000Y-62504000D01*
X146310000Y-63004000D01*
X146356585Y-63222987D01*
X146444997Y-63428678D01*
X146571839Y-63613169D01*
X146732236Y-63769369D01*
X146920024Y-63891276D01*
X147143126Y-63971119D01*
X147318000Y-63844954D01*
X147318000Y-63017000D01*
X147572000Y-63017000D01*
X147572000Y-63844954D01*
X147746874Y-63971119D01*
X147969976Y-63891276D01*
X148157764Y-63769369D01*
X148318161Y-63613169D01*
X148445003Y-63428678D01*
X148533415Y-63222987D01*
X148580000Y-63004000D01*
X148580000Y-62887023D01*
X148591678Y-62882003D01*
X148776169Y-62755161D01*
X148932369Y-62594764D01*
X149054276Y-62406976D01*
X149134119Y-62183874D01*
X149007954Y-62009000D01*
X148580000Y-62009000D01*
X148580000Y-61886572D01*
X148623145Y-61877990D01*
X148784205Y-61811277D01*
X148868429Y-61755000D01*
X149007954Y-61755000D01*
X149134119Y-61580126D01*
X149108195Y-61507688D01*
X149149277Y-61446205D01*
X149215990Y-61285145D01*
X149250000Y-61114165D01*
X149250000Y-60939835D01*
X149215990Y-60768855D01*
X149149277Y-60607795D01*
X149052424Y-60462845D01*
X148929155Y-60339576D01*
X148784205Y-60242723D01*
X148623145Y-60176010D01*
X148452165Y-60142000D01*
X148277835Y-60142000D01*
X148106855Y-60176010D01*
X147945795Y-60242723D01*
X147800845Y-60339576D01*
X147677576Y-60462845D01*
X147580723Y-60607795D01*
X147523063Y-60747000D01*
X147313000Y-60747000D01*
X147143400Y-60783079D01*
X147143126Y-60782881D01*
X147141361Y-60783513D01*
X147094013Y-60793585D01*
X146998500Y-60834639D01*
X146920024Y-60862724D01*
X146894281Y-60879436D01*
X146888322Y-60881997D01*
X146854239Y-60905430D01*
X146732236Y-60984631D01*
X146715894Y-61000545D01*
X146703831Y-61008839D01*
X146638710Y-61075710D01*
X146571839Y-61140831D01*
X146563545Y-61152894D01*
X146547631Y-61169236D01*
X146468430Y-61291239D01*
X146444997Y-61325322D01*
X146442436Y-61331281D01*
X146425724Y-61357024D01*
X146397639Y-61435500D01*
X146356585Y-61531013D01*
X146346513Y-61578361D01*
X146345881Y-61580126D01*
X146346079Y-61580400D01*
X146310000Y-61750000D01*
X78656809Y-61750000D01*
X79260778Y-61584654D01*
X84943723Y-60177161D01*
X90659306Y-58908948D01*
X91689351Y-58706665D01*
X126073000Y-58706665D01*
X126073000Y-58989335D01*
X126128147Y-59266574D01*
X126236320Y-59527727D01*
X126393363Y-59762759D01*
X126593241Y-59962637D01*
X126828273Y-60119680D01*
X127089426Y-60227853D01*
X127366665Y-60283000D01*
X127649335Y-60283000D01*
X127926574Y-60227853D01*
X128187727Y-60119680D01*
X128422759Y-59962637D01*
X128622637Y-59762759D01*
X128779680Y-59527727D01*
X128887853Y-59266574D01*
X128943000Y-58989335D01*
X128943000Y-58706665D01*
X128887853Y-58429426D01*
X128779680Y-58168273D01*
X128622637Y-57933241D01*
X128422759Y-57733363D01*
X128187727Y-57576320D01*
X127926574Y-57468147D01*
X127649335Y-57413000D01*
X127366665Y-57413000D01*
X127089426Y-57468147D01*
X126828273Y-57576320D01*
X126593241Y-57733363D01*
X126393363Y-57933241D01*
X126236320Y-58168273D01*
X126128147Y-58429426D01*
X126073000Y-58706665D01*
X91689351Y-58706665D01*
X96404212Y-57780749D01*
X102174936Y-56793251D01*
X107968132Y-55947031D01*
X113780170Y-55242616D01*
X119610973Y-54680094D01*
X120702276Y-54590904D01*
X120740842Y-54594686D01*
X120772786Y-54604331D01*
X120802249Y-54619997D01*
X120828104Y-54641085D01*
X120849375Y-54666797D01*
X120865245Y-54696150D01*
X120875112Y-54728025D01*
X120885363Y-54825568D01*
X120885783Y-54827613D01*
X120885905Y-54836175D01*
X120891883Y-54864257D01*
X120894783Y-54892821D01*
X120905259Y-54927092D01*
X120912724Y-54962161D01*
X120915575Y-54970925D01*
X120946232Y-55062986D01*
X120967735Y-55111241D01*
X120987530Y-55160237D01*
X120991857Y-55168373D01*
X121050800Y-55277388D01*
X121084245Y-55326972D01*
X121117005Y-55377035D01*
X121122830Y-55384176D01*
X121201826Y-55479666D01*
X121244275Y-55521820D01*
X121286123Y-55564555D01*
X121293224Y-55570429D01*
X121389263Y-55648757D01*
X121439089Y-55681862D01*
X121488446Y-55715657D01*
X121496552Y-55720040D01*
X121605975Y-55778222D01*
X121661267Y-55801011D01*
X121716263Y-55824583D01*
X121725066Y-55827308D01*
X121843707Y-55863127D01*
X121902391Y-55874747D01*
X121960902Y-55887184D01*
X121970058Y-55888146D01*
X121970063Y-55888147D01*
X121970067Y-55888147D01*
X122093405Y-55900240D01*
X122093407Y-55900240D01*
X122125289Y-55903385D01*
X132747318Y-55905004D01*
X132775501Y-55902233D01*
X132780137Y-55902265D01*
X132789309Y-55901365D01*
X132937210Y-55885820D01*
X132995780Y-55873797D01*
X133054563Y-55862584D01*
X133063385Y-55859921D01*
X133205452Y-55815945D01*
X133260607Y-55792760D01*
X133316062Y-55770355D01*
X133324199Y-55766028D01*
X133455017Y-55695295D01*
X133504603Y-55661849D01*
X133554665Y-55629089D01*
X133561806Y-55623265D01*
X133676394Y-55528468D01*
X133718514Y-55486053D01*
X133761283Y-55444171D01*
X133767157Y-55437070D01*
X133861149Y-55321823D01*
X133894229Y-55272033D01*
X133928048Y-55222643D01*
X133932431Y-55214536D01*
X134002249Y-55083228D01*
X134025034Y-55027946D01*
X134048610Y-54972941D01*
X134051335Y-54964138D01*
X134094318Y-54821769D01*
X134105934Y-54763107D01*
X134118375Y-54704576D01*
X134119338Y-54695411D01*
X134122810Y-54660000D01*
X137645807Y-54660000D01*
X137649000Y-54692420D01*
X137649001Y-57409571D01*
X137645807Y-57442000D01*
X137658550Y-57571383D01*
X137696290Y-57695793D01*
X137757575Y-57810450D01*
X137840052Y-57910948D01*
X137940550Y-57993425D01*
X138055207Y-58054710D01*
X138179617Y-58092450D01*
X138276581Y-58102000D01*
X138309000Y-58105193D01*
X138341419Y-58102000D01*
X141058581Y-58102000D01*
X141091000Y-58105193D01*
X141123419Y-58102000D01*
X141220383Y-58092450D01*
X141344793Y-58054710D01*
X141459450Y-57993425D01*
X141507489Y-57954000D01*
X146210000Y-57954000D01*
X146210000Y-58554000D01*
X146258507Y-58792496D01*
X146352610Y-59016946D01*
X146488693Y-59218725D01*
X146661526Y-59390078D01*
X146864467Y-59524421D01*
X147089718Y-59616591D01*
X147127391Y-59620462D01*
X147318000Y-59495731D01*
X147318000Y-57954000D01*
X147572000Y-57954000D01*
X147572000Y-59495731D01*
X147762609Y-59620462D01*
X147800282Y-59616591D01*
X148025533Y-59524421D01*
X148228474Y-59390078D01*
X148401307Y-59218725D01*
X148537390Y-59016946D01*
X148631493Y-58792496D01*
X148680000Y-58554000D01*
X148680000Y-57954000D01*
X154850000Y-57954000D01*
X154850000Y-58554000D01*
X154898507Y-58792496D01*
X154992610Y-59016946D01*
X155128693Y-59218725D01*
X155301526Y-59390078D01*
X155504467Y-59524421D01*
X155729718Y-59616591D01*
X155767391Y-59620462D01*
X155958000Y-59495731D01*
X155958000Y-57954000D01*
X156212000Y-57954000D01*
X156212000Y-59495731D01*
X156402609Y-59620462D01*
X156440282Y-59616591D01*
X156665533Y-59524421D01*
X156868474Y-59390078D01*
X157041307Y-59218725D01*
X157177390Y-59016946D01*
X157271493Y-58792496D01*
X157320000Y-58554000D01*
X157320000Y-57954000D01*
X156212000Y-57954000D01*
X155958000Y-57954000D01*
X154850000Y-57954000D01*
X148680000Y-57954000D01*
X147572000Y-57954000D01*
X147318000Y-57954000D01*
X146210000Y-57954000D01*
X141507489Y-57954000D01*
X141559948Y-57910948D01*
X141642425Y-57810450D01*
X141703710Y-57695793D01*
X141741450Y-57571383D01*
X141754193Y-57442000D01*
X141751000Y-57409581D01*
X141751000Y-57100000D01*
X146210000Y-57100000D01*
X146210000Y-57700000D01*
X147318000Y-57700000D01*
X147318000Y-56158269D01*
X147572000Y-56158269D01*
X147572000Y-57700000D01*
X148680000Y-57700000D01*
X148680000Y-57100000D01*
X154850000Y-57100000D01*
X154850000Y-57700000D01*
X155958000Y-57700000D01*
X155958000Y-56158269D01*
X156212000Y-56158269D01*
X156212000Y-57700000D01*
X157320000Y-57700000D01*
X157320000Y-57100000D01*
X157271493Y-56861504D01*
X157177390Y-56637054D01*
X157041307Y-56435275D01*
X156868474Y-56263922D01*
X156665533Y-56129579D01*
X156440282Y-56037409D01*
X156402609Y-56033538D01*
X156212000Y-56158269D01*
X155958000Y-56158269D01*
X155767391Y-56033538D01*
X155729718Y-56037409D01*
X155504467Y-56129579D01*
X155301526Y-56263922D01*
X155128693Y-56435275D01*
X154992610Y-56637054D01*
X154898507Y-56861504D01*
X154850000Y-57100000D01*
X148680000Y-57100000D01*
X148631493Y-56861504D01*
X148537390Y-56637054D01*
X148401307Y-56435275D01*
X148228474Y-56263922D01*
X148025533Y-56129579D01*
X147800282Y-56037409D01*
X147762609Y-56033538D01*
X147572000Y-56158269D01*
X147318000Y-56158269D01*
X147127391Y-56033538D01*
X147089718Y-56037409D01*
X146864467Y-56129579D01*
X146661526Y-56263922D01*
X146488693Y-56435275D01*
X146352610Y-56637054D01*
X146258507Y-56861504D01*
X146210000Y-57100000D01*
X141751000Y-57100000D01*
X141751000Y-54692419D01*
X141754193Y-54660000D01*
X141741450Y-54530617D01*
X141703710Y-54406207D01*
X141642425Y-54291550D01*
X141559948Y-54191052D01*
X141459450Y-54108575D01*
X141344793Y-54047290D01*
X141220383Y-54009550D01*
X141207113Y-54008243D01*
X141091000Y-53996807D01*
X141058581Y-54000000D01*
X138341419Y-54000000D01*
X138309000Y-53996807D01*
X138192887Y-54008243D01*
X138179617Y-54009550D01*
X138055207Y-54047290D01*
X137940550Y-54108575D01*
X137840052Y-54191052D01*
X137757575Y-54291550D01*
X137696290Y-54406207D01*
X137658550Y-54530617D01*
X137645807Y-54660000D01*
X134122810Y-54660000D01*
X134133850Y-54547404D01*
X134133850Y-54547402D01*
X134137000Y-54515419D01*
X134137000Y-54408969D01*
X134149303Y-54283490D01*
X134176370Y-54193843D01*
X134220335Y-54111155D01*
X134279522Y-54038586D01*
X134351684Y-53978888D01*
X134434054Y-53934351D01*
X134523515Y-53906658D01*
X134649495Y-53893417D01*
X139700000Y-53840037D01*
X144744243Y-53893351D01*
%TA.AperFunction,Conductor*%
D18*
G36*
X144744243Y-53893351D02*
G01*
X144873202Y-53905995D01*
X144962849Y-53933062D01*
X145045537Y-53977027D01*
X145118106Y-54036214D01*
X145177804Y-54108376D01*
X145222341Y-54190746D01*
X145250034Y-54280207D01*
X145263000Y-54403570D01*
X145263000Y-54515418D01*
X145265767Y-54543515D01*
X145265735Y-54548137D01*
X145266635Y-54557309D01*
X145282180Y-54705210D01*
X145294203Y-54763780D01*
X145305416Y-54822563D01*
X145308079Y-54831385D01*
X145352055Y-54973452D01*
X145375240Y-55028607D01*
X145397645Y-55084062D01*
X145401972Y-55092199D01*
X145472705Y-55223017D01*
X145506151Y-55272603D01*
X145538911Y-55322665D01*
X145544735Y-55329806D01*
X145639532Y-55444394D01*
X145681947Y-55486514D01*
X145723829Y-55529283D01*
X145730930Y-55535157D01*
X145846177Y-55629149D01*
X145895967Y-55662229D01*
X145945357Y-55696048D01*
X145953464Y-55700431D01*
X146084772Y-55770249D01*
X146140054Y-55793034D01*
X146195059Y-55816610D01*
X146203862Y-55819335D01*
X146346231Y-55862318D01*
X146404893Y-55873934D01*
X146463424Y-55886375D01*
X146472585Y-55887338D01*
X146472589Y-55887338D01*
X146620596Y-55901850D01*
X146620608Y-55901850D01*
X146652682Y-55905004D01*
X157274711Y-55903385D01*
X157299764Y-55900914D01*
X157389370Y-55894047D01*
X157441402Y-55884889D01*
X157493728Y-55877569D01*
X157502671Y-55875345D01*
X157622727Y-55844601D01*
X157678935Y-55824183D01*
X157735458Y-55804540D01*
X157743798Y-55800621D01*
X157855596Y-55747143D01*
X157906741Y-55716212D01*
X157958394Y-55685952D01*
X157965814Y-55680488D01*
X158065096Y-55606314D01*
X158109303Y-55565999D01*
X158154055Y-55526317D01*
X158160273Y-55519516D01*
X158243258Y-55427470D01*
X158278789Y-55379341D01*
X158314982Y-55331721D01*
X158319761Y-55323841D01*
X158383285Y-55217430D01*
X158408766Y-55163368D01*
X158435048Y-55109570D01*
X158438204Y-55100912D01*
X158479850Y-54984189D01*
X158482704Y-54972775D01*
X158487337Y-54961964D01*
X158498300Y-54910389D01*
X158511091Y-54859225D01*
X158511673Y-54847476D01*
X158514119Y-54835969D01*
X158515082Y-54826805D01*
X158524653Y-54729193D01*
X158534297Y-54697249D01*
X158549962Y-54667788D01*
X158571053Y-54641928D01*
X158596760Y-54620661D01*
X158626115Y-54604789D01*
X158657991Y-54594921D01*
X158693791Y-54591159D01*
X164471893Y-55120321D01*
X170288775Y-55796711D01*
X176087444Y-56615025D01*
X181864333Y-57574760D01*
X187616071Y-58675354D01*
X193339197Y-59916146D01*
X199030310Y-61296398D01*
X204689136Y-62816127D01*
X205782776Y-63127027D01*
X210129566Y-64451831D01*
X214425571Y-65918500D01*
X218670621Y-67526809D01*
X222860016Y-69274980D01*
X226989126Y-71161082D01*
X231053420Y-73183041D01*
X235048498Y-75338671D01*
X238969871Y-77625553D01*
X242813266Y-80041191D01*
X246574449Y-82582923D01*
X250249293Y-85247961D01*
X253833795Y-88033404D01*
X254142318Y-88290000D01*
X254005285Y-88290000D01*
X253264372Y-88437377D01*
X252566446Y-88726467D01*
X251938330Y-89146161D01*
X251404161Y-89680330D01*
X250984467Y-90308446D01*
X250695377Y-91006372D01*
X250548000Y-91747285D01*
X250548000Y-92502715D01*
X250695377Y-93243628D01*
X250984467Y-93941554D01*
X251404161Y-94569670D01*
X251938330Y-95103839D01*
X252566446Y-95523533D01*
X253264372Y-95812623D01*
X254005285Y-95960000D01*
X254760715Y-95960000D01*
X255501628Y-95812623D01*
X256199554Y-95523533D01*
X256827670Y-95103839D01*
X257361839Y-94569670D01*
X257781533Y-93941554D01*
X258070623Y-93243628D01*
X258218000Y-92502715D01*
X258218000Y-91747285D01*
X258214140Y-91727880D01*
X260715928Y-93952982D01*
X264007404Y-97081945D01*
X265911000Y-98993568D01*
X265911001Y-104205321D01*
X262876884Y-107217368D01*
X259550976Y-110307004D01*
X258214957Y-111468013D01*
X258218000Y-111452715D01*
X258218000Y-110697285D01*
X258070623Y-109956372D01*
X257781533Y-109258446D01*
X257361839Y-108630330D01*
X256827670Y-108096161D01*
X256199554Y-107676467D01*
X255501628Y-107387377D01*
X254760715Y-107240000D01*
X254005285Y-107240000D01*
X253264372Y-107387377D01*
X252566446Y-107676467D01*
X251938330Y-108096161D01*
X251404161Y-108630330D01*
X250984467Y-109258446D01*
X250695377Y-109956372D01*
X250548000Y-110697285D01*
X250548000Y-111452715D01*
X250695377Y-112193628D01*
X250984467Y-112891554D01*
X251404161Y-113519670D01*
X251938330Y-114053839D01*
X252566446Y-114473533D01*
X253264372Y-114762623D01*
X254005285Y-114910000D01*
X254123837Y-114910000D01*
X252601154Y-116147047D01*
X248984869Y-118891048D01*
X245279560Y-121513665D01*
X241489363Y-124011973D01*
X237618426Y-126383238D01*
X233670948Y-128624885D01*
X229651329Y-130734414D01*
X225564017Y-132709493D01*
X221413471Y-134547970D01*
X217204188Y-136247850D01*
X212940928Y-137807210D01*
X208626495Y-139224962D01*
X205804836Y-140067226D01*
X205803482Y-140067559D01*
X205794577Y-140069929D01*
X200136135Y-141617904D01*
X194449386Y-143025232D01*
X188729969Y-144293196D01*
X182981260Y-145421048D01*
X177206730Y-146408107D01*
X171409796Y-147253787D01*
X165593935Y-147957584D01*
X159762619Y-148519077D01*
X153919279Y-148937932D01*
X148067510Y-149213896D01*
X142208420Y-149346857D01*
X139696544Y-149360009D01*
X139682383Y-149360256D01*
X133842001Y-149288896D01*
X127987618Y-149074222D01*
X122140253Y-148716579D01*
X116303335Y-148216174D01*
X110480433Y-147573317D01*
X104674927Y-146788379D01*
X98890351Y-145861836D01*
X98330104Y-145758000D01*
X137645807Y-145758000D01*
X137649000Y-145790420D01*
X137649001Y-148507571D01*
X137645807Y-148540000D01*
X137658550Y-148669383D01*
X137696290Y-148793793D01*
X137757575Y-148908450D01*
X137840052Y-149008948D01*
X137940550Y-149091425D01*
X138055207Y-149152710D01*
X138179617Y-149190450D01*
X138276581Y-149200000D01*
X138309000Y-149203193D01*
X138341419Y-149200000D01*
X141058581Y-149200000D01*
X141091000Y-149203193D01*
X141123419Y-149200000D01*
X141220383Y-149190450D01*
X141344793Y-149152710D01*
X141459450Y-149091425D01*
X141559948Y-149008948D01*
X141642425Y-148908450D01*
X141703710Y-148793793D01*
X141741450Y-148669383D01*
X141754193Y-148540000D01*
X141751000Y-148507581D01*
X141751000Y-145790419D01*
X141754193Y-145758000D01*
X141741450Y-145628617D01*
X141703710Y-145504207D01*
X141642425Y-145389550D01*
X141559948Y-145289052D01*
X141459450Y-145206575D01*
X141344793Y-145145290D01*
X141220383Y-145107550D01*
X141123419Y-145098000D01*
X141091000Y-145094807D01*
X141058581Y-145098000D01*
X138341419Y-145098000D01*
X138309000Y-145094807D01*
X138276581Y-145098000D01*
X138179617Y-145107550D01*
X138055207Y-145145290D01*
X137940550Y-145206575D01*
X137840052Y-145289052D01*
X137757575Y-145389550D01*
X137696290Y-145504207D01*
X137658550Y-145628617D01*
X137645807Y-145758000D01*
X98330104Y-145758000D01*
X93130165Y-144794246D01*
X87397753Y-143586234D01*
X81696577Y-142238530D01*
X76027743Y-140751336D01*
X76026915Y-140751103D01*
X132397500Y-140751103D01*
X132397500Y-141188897D01*
X132482909Y-141618279D01*
X132650446Y-142022749D01*
X132893671Y-142386761D01*
X133203239Y-142696329D01*
X133567251Y-142939554D01*
X133971721Y-143107091D01*
X134401103Y-143192500D01*
X134838897Y-143192500D01*
X135268279Y-143107091D01*
X135672749Y-142939554D01*
X136036761Y-142696329D01*
X136346329Y-142386761D01*
X136589554Y-142022749D01*
X136757091Y-141618279D01*
X136842500Y-141188897D01*
X136842500Y-140751103D01*
X142557500Y-140751103D01*
X142557500Y-141188897D01*
X142642909Y-141618279D01*
X142810446Y-142022749D01*
X143053671Y-142386761D01*
X143363239Y-142696329D01*
X143727251Y-142939554D01*
X144131721Y-143107091D01*
X144561103Y-143192500D01*
X144998897Y-143192500D01*
X145428279Y-143107091D01*
X145832749Y-142939554D01*
X146196761Y-142696329D01*
X146506329Y-142386761D01*
X146749554Y-142022749D01*
X146917091Y-141618279D01*
X147002500Y-141188897D01*
X147002500Y-140751103D01*
X146917091Y-140321721D01*
X146749554Y-139917251D01*
X146506329Y-139553239D01*
X146196761Y-139243671D01*
X145832749Y-139000446D01*
X145428279Y-138832909D01*
X144998897Y-138747500D01*
X144561103Y-138747500D01*
X144131721Y-138832909D01*
X143727251Y-139000446D01*
X143363239Y-139243671D01*
X143053671Y-139553239D01*
X142810446Y-139917251D01*
X142642909Y-140321721D01*
X142557500Y-140751103D01*
X136842500Y-140751103D01*
X136757091Y-140321721D01*
X136589554Y-139917251D01*
X136346329Y-139553239D01*
X136036761Y-139243671D01*
X135672749Y-139000446D01*
X135268279Y-138832909D01*
X134838897Y-138747500D01*
X134401103Y-138747500D01*
X133971721Y-138832909D01*
X133567251Y-139000446D01*
X133203239Y-139243671D01*
X132893671Y-139553239D01*
X132650446Y-139917251D01*
X132482909Y-140321721D01*
X132397500Y-140751103D01*
X76026915Y-140751103D01*
X73639791Y-140080111D01*
X73638577Y-140079686D01*
X73623210Y-140074797D01*
X69270434Y-138748169D01*
X64974429Y-137281500D01*
X60729369Y-135673187D01*
X56914465Y-134081285D01*
X84279000Y-134081285D01*
X84279000Y-134836715D01*
X84426377Y-135577628D01*
X84715467Y-136275554D01*
X85135161Y-136903670D01*
X85669330Y-137437839D01*
X86297446Y-137857533D01*
X86995372Y-138146623D01*
X87736285Y-138294000D01*
X88491715Y-138294000D01*
X89232628Y-138146623D01*
X89930554Y-137857533D01*
X90558670Y-137437839D01*
X91092839Y-136903670D01*
X91512533Y-136275554D01*
X91801623Y-135577628D01*
X91949000Y-134836715D01*
X91949000Y-134081285D01*
X187451000Y-134081285D01*
X187451000Y-134836715D01*
X187598377Y-135577628D01*
X187887467Y-136275554D01*
X188307161Y-136903670D01*
X188841330Y-137437839D01*
X189469446Y-137857533D01*
X190167372Y-138146623D01*
X190908285Y-138294000D01*
X191663715Y-138294000D01*
X192404628Y-138146623D01*
X193102554Y-137857533D01*
X193730670Y-137437839D01*
X194264839Y-136903670D01*
X194684533Y-136275554D01*
X194973623Y-135577628D01*
X195121000Y-134836715D01*
X195121000Y-134081285D01*
X194973623Y-133340372D01*
X194684533Y-132642446D01*
X194264839Y-132014330D01*
X193730670Y-131480161D01*
X193102554Y-131060467D01*
X192404628Y-130771377D01*
X191663715Y-130624000D01*
X190908285Y-130624000D01*
X190167372Y-130771377D01*
X189469446Y-131060467D01*
X188841330Y-131480161D01*
X188307161Y-132014330D01*
X187887467Y-132642446D01*
X187598377Y-133340372D01*
X187451000Y-134081285D01*
X91949000Y-134081285D01*
X91801623Y-133340372D01*
X91512533Y-132642446D01*
X91092839Y-132014330D01*
X90558670Y-131480161D01*
X89930554Y-131060467D01*
X89232628Y-130771377D01*
X88491715Y-130624000D01*
X87736285Y-130624000D01*
X86995372Y-130771377D01*
X86297446Y-131060467D01*
X85669330Y-131480161D01*
X85135161Y-132014330D01*
X84715467Y-132642446D01*
X84426377Y-133340372D01*
X84279000Y-134081285D01*
X56914465Y-134081285D01*
X56539984Y-133925020D01*
X52410874Y-132038919D01*
X48346544Y-130016941D01*
X44351490Y-127861322D01*
X40430142Y-125574455D01*
X36586734Y-123158809D01*
X32825551Y-120617077D01*
X29150693Y-117952028D01*
X25566205Y-115166596D01*
X25257682Y-114910000D01*
X25394715Y-114910000D01*
X26135628Y-114762623D01*
X26833554Y-114473533D01*
X27461670Y-114053839D01*
X27995839Y-113519670D01*
X28415533Y-112891554D01*
X28704623Y-112193628D01*
X28816206Y-111632661D01*
X171380200Y-111632661D01*
X171380200Y-111836539D01*
X171419974Y-112036498D01*
X171497995Y-112224856D01*
X171611263Y-112394374D01*
X171755426Y-112538537D01*
X171924944Y-112651805D01*
X172113302Y-112729826D01*
X172313261Y-112769600D01*
X172517139Y-112769600D01*
X172717098Y-112729826D01*
X172905456Y-112651805D01*
X173074974Y-112538537D01*
X173219137Y-112394374D01*
X173332405Y-112224856D01*
X173410426Y-112036498D01*
X173450200Y-111836539D01*
X173450200Y-111790583D01*
X173580698Y-111764626D01*
X173769056Y-111686605D01*
X173938574Y-111573337D01*
X174082737Y-111429174D01*
X174196005Y-111259656D01*
X174274026Y-111071298D01*
X174313800Y-110871339D01*
X174313800Y-110667461D01*
X174274026Y-110467502D01*
X174220079Y-110337261D01*
X188474400Y-110337261D01*
X188474400Y-110541139D01*
X188514174Y-110741098D01*
X188592195Y-110929456D01*
X188705463Y-111098974D01*
X188849626Y-111243137D01*
X189019144Y-111356405D01*
X189207502Y-111434426D01*
X189407461Y-111474200D01*
X189611339Y-111474200D01*
X189811298Y-111434426D01*
X189999656Y-111356405D01*
X190169174Y-111243137D01*
X190313337Y-111098974D01*
X190426605Y-110929456D01*
X190504626Y-110741098D01*
X190544400Y-110541139D01*
X190544400Y-110337261D01*
X190504626Y-110137302D01*
X190426605Y-109948944D01*
X190313337Y-109779426D01*
X190271400Y-109737489D01*
X190271400Y-90351408D01*
X190289316Y-90347844D01*
X190477674Y-90269823D01*
X190647192Y-90156555D01*
X190791355Y-90012392D01*
X190904623Y-89842874D01*
X190982644Y-89654516D01*
X191022418Y-89454557D01*
X191022418Y-89250679D01*
X190982644Y-89050720D01*
X190904623Y-88862362D01*
X190791355Y-88692844D01*
X190647192Y-88548681D01*
X190477674Y-88435413D01*
X190289316Y-88357392D01*
X190089357Y-88317618D01*
X189885479Y-88317618D01*
X189685520Y-88357392D01*
X189497162Y-88435413D01*
X189327644Y-88548681D01*
X189183481Y-88692844D01*
X189070213Y-88862362D01*
X188992192Y-89050720D01*
X188952418Y-89250679D01*
X188952418Y-89308174D01*
X188936816Y-89327186D01*
X188872755Y-89405244D01*
X188837566Y-89471079D01*
X188801998Y-89537622D01*
X188758426Y-89681259D01*
X188747421Y-89792998D01*
X188743714Y-89830636D01*
X188747400Y-89868059D01*
X188747401Y-109737488D01*
X188705463Y-109779426D01*
X188592195Y-109948944D01*
X188514174Y-110137302D01*
X188474400Y-110337261D01*
X174220079Y-110337261D01*
X174196005Y-110279144D01*
X174082737Y-110109626D01*
X174040800Y-110067689D01*
X174040800Y-86116830D01*
X176337630Y-83820000D01*
X181573770Y-83820000D01*
X182784800Y-85031031D01*
X182784800Y-85090339D01*
X182824574Y-85290298D01*
X182902595Y-85478656D01*
X183015863Y-85648174D01*
X183160026Y-85792337D01*
X183329544Y-85905605D01*
X183517902Y-85983626D01*
X183717861Y-86023400D01*
X183921739Y-86023400D01*
X184121698Y-85983626D01*
X184310056Y-85905605D01*
X184479574Y-85792337D01*
X184623737Y-85648174D01*
X184737005Y-85478656D01*
X184815026Y-85290298D01*
X184854800Y-85090339D01*
X184854800Y-84886461D01*
X184815026Y-84686502D01*
X184737005Y-84498144D01*
X184623737Y-84328626D01*
X184479574Y-84184463D01*
X184310056Y-84071195D01*
X184121698Y-83993174D01*
X183921739Y-83953400D01*
X183862431Y-83953400D01*
X182509830Y-82600800D01*
X183837031Y-81273600D01*
X183896339Y-81273600D01*
X184096298Y-81233826D01*
X184284656Y-81155805D01*
X184454174Y-81042537D01*
X184598337Y-80898374D01*
X184711605Y-80728856D01*
X184789626Y-80540498D01*
X184829400Y-80340539D01*
X184829400Y-80136661D01*
X184789626Y-79936702D01*
X184711605Y-79748344D01*
X184598337Y-79578826D01*
X184454174Y-79434663D01*
X184284656Y-79321395D01*
X184096298Y-79243374D01*
X183896339Y-79203600D01*
X183692461Y-79203600D01*
X183492502Y-79243374D01*
X183304144Y-79321395D01*
X183134626Y-79434663D01*
X182990463Y-79578826D01*
X182877195Y-79748344D01*
X182799174Y-79936702D01*
X182759400Y-80136661D01*
X182759400Y-80195969D01*
X181345170Y-81610200D01*
X175780022Y-81610200D01*
X175742599Y-81606514D01*
X175705176Y-81610200D01*
X175705174Y-81610200D01*
X175593222Y-81621226D01*
X175449585Y-81664798D01*
X175449583Y-81664799D01*
X175435226Y-81672473D01*
X175317208Y-81735555D01*
X175201178Y-81830778D01*
X175177321Y-81859848D01*
X171902854Y-85134316D01*
X171873778Y-85158178D01*
X171825505Y-85217000D01*
X171778555Y-85274208D01*
X171754493Y-85319226D01*
X171707798Y-85406586D01*
X171664226Y-85550223D01*
X171656857Y-85625045D01*
X171649514Y-85699600D01*
X171653200Y-85737023D01*
X171653201Y-111032888D01*
X171611263Y-111074826D01*
X171497995Y-111244344D01*
X171419974Y-111432702D01*
X171380200Y-111632661D01*
X28816206Y-111632661D01*
X28852000Y-111452715D01*
X28852000Y-110697285D01*
X28704623Y-109956372D01*
X28415533Y-109258446D01*
X27995839Y-108630330D01*
X27461670Y-108096161D01*
X26833554Y-107676467D01*
X26135628Y-107387377D01*
X25394715Y-107240000D01*
X24639285Y-107240000D01*
X23898372Y-107387377D01*
X23200446Y-107676467D01*
X22572330Y-108096161D01*
X22038161Y-108630330D01*
X21618467Y-109258446D01*
X21329377Y-109956372D01*
X21182000Y-110697285D01*
X21182000Y-111452715D01*
X21185860Y-111472120D01*
X18684071Y-109247016D01*
X15392577Y-106118038D01*
X13489000Y-104206432D01*
X13489000Y-101498061D01*
X20555000Y-101498061D01*
X20555000Y-101701939D01*
X20594774Y-101901898D01*
X20672795Y-102090256D01*
X20786063Y-102259774D01*
X20930226Y-102403937D01*
X21099744Y-102517205D01*
X21288102Y-102595226D01*
X21488061Y-102635000D01*
X21691939Y-102635000D01*
X21891898Y-102595226D01*
X22080256Y-102517205D01*
X22249774Y-102403937D01*
X22291711Y-102362000D01*
X28508289Y-102362000D01*
X28550226Y-102403937D01*
X28719744Y-102517205D01*
X28908102Y-102595226D01*
X29108061Y-102635000D01*
X29311939Y-102635000D01*
X29511898Y-102595226D01*
X29700256Y-102517205D01*
X29869774Y-102403937D01*
X30013937Y-102259774D01*
X30127205Y-102090256D01*
X30205226Y-101901898D01*
X30245000Y-101701939D01*
X30245000Y-101498061D01*
X30205226Y-101298102D01*
X30127205Y-101109744D01*
X30013937Y-100940226D01*
X29869774Y-100796063D01*
X29700256Y-100682795D01*
X29511898Y-100604774D01*
X29311939Y-100565000D01*
X29108061Y-100565000D01*
X28908102Y-100604774D01*
X28719744Y-100682795D01*
X28550226Y-100796063D01*
X28508289Y-100838000D01*
X22291711Y-100838000D01*
X22249774Y-100796063D01*
X22080256Y-100682795D01*
X21891898Y-100604774D01*
X21691939Y-100565000D01*
X21488061Y-100565000D01*
X21288102Y-100604774D01*
X21099744Y-100682795D01*
X20930226Y-100796063D01*
X20786063Y-100940226D01*
X20672795Y-101109744D01*
X20594774Y-101298102D01*
X20555000Y-101498061D01*
X13489000Y-101498061D01*
X13489000Y-98994678D01*
X16523116Y-95982632D01*
X19848994Y-92893023D01*
X21185043Y-91731987D01*
X21182000Y-91747285D01*
X21182000Y-92502715D01*
X21329377Y-93243628D01*
X21618467Y-93941554D01*
X22038161Y-94569670D01*
X22572330Y-95103839D01*
X23200446Y-95523533D01*
X23898372Y-95812623D01*
X24639285Y-95960000D01*
X25394715Y-95960000D01*
X26135628Y-95812623D01*
X26833554Y-95523533D01*
X27461670Y-95103839D01*
X27995839Y-94569670D01*
X28415533Y-93941554D01*
X28704623Y-93243628D01*
X28852000Y-92502715D01*
X28852000Y-91747285D01*
X28704623Y-91006372D01*
X28415533Y-90308446D01*
X27995839Y-89680330D01*
X27461670Y-89146161D01*
X26833554Y-88726467D01*
X26135628Y-88437377D01*
X25394715Y-88290000D01*
X25276164Y-88290000D01*
X26798847Y-87052953D01*
X30415132Y-84308952D01*
X34120412Y-81686353D01*
X37357752Y-79552461D01*
X178492200Y-79552461D01*
X178492200Y-79756339D01*
X178531974Y-79956298D01*
X178609995Y-80144656D01*
X178723263Y-80314174D01*
X178867426Y-80458337D01*
X179036944Y-80571605D01*
X179225302Y-80649626D01*
X179425261Y-80689400D01*
X179629139Y-80689400D01*
X179829098Y-80649626D01*
X180017456Y-80571605D01*
X180186974Y-80458337D01*
X180331137Y-80314174D01*
X180444405Y-80144656D01*
X180522426Y-79956298D01*
X180562200Y-79756339D01*
X180562200Y-79697030D01*
X181646231Y-78613000D01*
X188482570Y-78613000D01*
X189814200Y-79944630D01*
X189814201Y-82965888D01*
X189772263Y-83007826D01*
X189658995Y-83177344D01*
X189580974Y-83365702D01*
X189541200Y-83565661D01*
X189541200Y-83769539D01*
X189580974Y-83969498D01*
X189658995Y-84157856D01*
X189772263Y-84327374D01*
X189916426Y-84471537D01*
X190085944Y-84584805D01*
X190274302Y-84662826D01*
X190474261Y-84702600D01*
X190533570Y-84702600D01*
X192322321Y-86491352D01*
X192346178Y-86520422D01*
X192462208Y-86615645D01*
X192594585Y-86686402D01*
X192738222Y-86729974D01*
X192850174Y-86741000D01*
X192850176Y-86741000D01*
X192887599Y-86744686D01*
X192925022Y-86741000D01*
X202422089Y-86741000D01*
X202464026Y-86782937D01*
X202633544Y-86896205D01*
X202821902Y-86974226D01*
X203021861Y-87014000D01*
X203225739Y-87014000D01*
X203425698Y-86974226D01*
X203614056Y-86896205D01*
X203783574Y-86782937D01*
X203927737Y-86638774D01*
X204041005Y-86469256D01*
X204119026Y-86280898D01*
X204158800Y-86080939D01*
X204158800Y-85877061D01*
X204119026Y-85677102D01*
X204041005Y-85488744D01*
X203927737Y-85319226D01*
X203783574Y-85175063D01*
X203614056Y-85061795D01*
X203425698Y-84983774D01*
X203225739Y-84944000D01*
X203021861Y-84944000D01*
X202821902Y-84983774D01*
X202633544Y-85061795D01*
X202464026Y-85175063D01*
X202422089Y-85217000D01*
X193203231Y-85217000D01*
X191611200Y-83624970D01*
X191611200Y-83565661D01*
X191571426Y-83365702D01*
X191493405Y-83177344D01*
X191380137Y-83007826D01*
X191338200Y-82965889D01*
X191338200Y-79666423D01*
X191341886Y-79629000D01*
X191338133Y-79590896D01*
X191327174Y-79479622D01*
X191283602Y-79335985D01*
X191235632Y-79246240D01*
X191212845Y-79203607D01*
X191176824Y-79159716D01*
X191117622Y-79087578D01*
X191088547Y-79063717D01*
X189363484Y-77338654D01*
X189339622Y-77309578D01*
X189223592Y-77214355D01*
X189091215Y-77143598D01*
X188947578Y-77100026D01*
X188835626Y-77089000D01*
X188835623Y-77089000D01*
X188798200Y-77085314D01*
X188760777Y-77089000D01*
X181368023Y-77089000D01*
X181330600Y-77085314D01*
X181293177Y-77089000D01*
X181293174Y-77089000D01*
X181181222Y-77100026D01*
X181037585Y-77143598D01*
X181000147Y-77163609D01*
X180905207Y-77214355D01*
X180873859Y-77240082D01*
X180789178Y-77309578D01*
X180765321Y-77338648D01*
X179484570Y-78619400D01*
X179425261Y-78619400D01*
X179225302Y-78659174D01*
X179036944Y-78737195D01*
X178867426Y-78850463D01*
X178723263Y-78994626D01*
X178609995Y-79164144D01*
X178531974Y-79352502D01*
X178492200Y-79552461D01*
X37357752Y-79552461D01*
X37910659Y-79188013D01*
X40591321Y-77545889D01*
X145192800Y-77545889D01*
X145192800Y-77749767D01*
X145232574Y-77949726D01*
X145310595Y-78138084D01*
X145423863Y-78307602D01*
X145568026Y-78451765D01*
X145737544Y-78565033D01*
X145925902Y-78643054D01*
X146125861Y-78682828D01*
X146329739Y-78682828D01*
X146529698Y-78643054D01*
X146718056Y-78565033D01*
X146887574Y-78451765D01*
X146929539Y-78409800D01*
X149793289Y-78409800D01*
X149835226Y-78451737D01*
X150004744Y-78565005D01*
X150193102Y-78643026D01*
X150393061Y-78682800D01*
X150596939Y-78682800D01*
X150796898Y-78643026D01*
X150985256Y-78565005D01*
X151154774Y-78451737D01*
X151298937Y-78307574D01*
X151412205Y-78138056D01*
X151490226Y-77949698D01*
X151530000Y-77749739D01*
X151530000Y-77545861D01*
X151490226Y-77345902D01*
X151412205Y-77157544D01*
X151298937Y-76988026D01*
X151154774Y-76843863D01*
X150985256Y-76730595D01*
X150796898Y-76652574D01*
X150596939Y-76612800D01*
X150393061Y-76612800D01*
X150193102Y-76652574D01*
X150004744Y-76730595D01*
X149835226Y-76843863D01*
X149793289Y-76885800D01*
X146929483Y-76885800D01*
X146887574Y-76843891D01*
X146718056Y-76730623D01*
X146529698Y-76652602D01*
X146329739Y-76612828D01*
X146125861Y-76612828D01*
X145925902Y-76652602D01*
X145737544Y-76730623D01*
X145568026Y-76843891D01*
X145423863Y-76988054D01*
X145310595Y-77157572D01*
X145232574Y-77345930D01*
X145192800Y-77545889D01*
X40591321Y-77545889D01*
X41781588Y-76816754D01*
X45729040Y-74575122D01*
X49748659Y-72465592D01*
X53835983Y-70490507D01*
X57986529Y-68652030D01*
X58701526Y-68363285D01*
X84279000Y-68363285D01*
X84279000Y-69118715D01*
X84426377Y-69859628D01*
X84715467Y-70557554D01*
X85135161Y-71185670D01*
X85669330Y-71719839D01*
X86297446Y-72139533D01*
X86995372Y-72428623D01*
X87736285Y-72576000D01*
X88491715Y-72576000D01*
X89232628Y-72428623D01*
X89930554Y-72139533D01*
X90558670Y-71719839D01*
X91092839Y-71185670D01*
X91512533Y-70557554D01*
X91801623Y-69859628D01*
X91949000Y-69118715D01*
X91949000Y-68986061D01*
X144913400Y-68986061D01*
X144913400Y-69189939D01*
X144953174Y-69389898D01*
X145031195Y-69578256D01*
X145144463Y-69747774D01*
X145288626Y-69891937D01*
X145458144Y-70005205D01*
X145646502Y-70083226D01*
X145846461Y-70123000D01*
X146050339Y-70123000D01*
X146250298Y-70083226D01*
X146353447Y-70040500D01*
X153623215Y-70040500D01*
X153670000Y-70045108D01*
X153716785Y-70040500D01*
X153856723Y-70026717D01*
X154036269Y-69972252D01*
X154201741Y-69883806D01*
X154346778Y-69764778D01*
X154376607Y-69728431D01*
X155199436Y-68905603D01*
X155235778Y-68875778D01*
X155354806Y-68730741D01*
X155443252Y-68565269D01*
X155497717Y-68385723D01*
X155499926Y-68363285D01*
X187451000Y-68363285D01*
X187451000Y-69118715D01*
X187598377Y-69859628D01*
X187887467Y-70557554D01*
X188307161Y-71185670D01*
X188841330Y-71719839D01*
X189469446Y-72139533D01*
X190167372Y-72428623D01*
X190908285Y-72576000D01*
X191663715Y-72576000D01*
X192404628Y-72428623D01*
X193102554Y-72139533D01*
X193730670Y-71719839D01*
X194264839Y-71185670D01*
X194684533Y-70557554D01*
X194973623Y-69859628D01*
X195121000Y-69118715D01*
X195121000Y-68363285D01*
X194973623Y-67622372D01*
X194684533Y-66924446D01*
X194264839Y-66296330D01*
X193730670Y-65762161D01*
X193102554Y-65342467D01*
X192404628Y-65053377D01*
X191663715Y-64906000D01*
X190908285Y-64906000D01*
X190167372Y-65053377D01*
X189469446Y-65342467D01*
X188841330Y-65762161D01*
X188307161Y-66296330D01*
X187887467Y-66924446D01*
X187598377Y-67622372D01*
X187451000Y-68363285D01*
X155499926Y-68363285D01*
X155511500Y-68245785D01*
X155516108Y-68199000D01*
X155511500Y-68152215D01*
X155511500Y-65175047D01*
X155554226Y-65071898D01*
X155594000Y-64871939D01*
X155594000Y-64668061D01*
X155554226Y-64468102D01*
X155476205Y-64279744D01*
X155362937Y-64110226D01*
X155218774Y-63966063D01*
X155079700Y-63873137D01*
X155079700Y-63416355D01*
X155084997Y-63428678D01*
X155211839Y-63613169D01*
X155372236Y-63769369D01*
X155560024Y-63891276D01*
X155783126Y-63971119D01*
X155958000Y-63844954D01*
X155958000Y-63017000D01*
X156212000Y-63017000D01*
X156212000Y-63844954D01*
X156386874Y-63971119D01*
X156609976Y-63891276D01*
X156797764Y-63769369D01*
X156958161Y-63613169D01*
X157085003Y-63428678D01*
X157173415Y-63222987D01*
X157220000Y-63004000D01*
X157220000Y-62504000D01*
X157041291Y-62504000D01*
X157104276Y-62406976D01*
X157160454Y-62250000D01*
X157220000Y-62250000D01*
X157220000Y-61750000D01*
X157183921Y-61580400D01*
X157184119Y-61580126D01*
X157183487Y-61578361D01*
X157173415Y-61531013D01*
X157132361Y-61435500D01*
X157104276Y-61357024D01*
X157087564Y-61331281D01*
X157085003Y-61325322D01*
X157061570Y-61291239D01*
X156982369Y-61169236D01*
X156966455Y-61152894D01*
X156958161Y-61140831D01*
X156891290Y-61075710D01*
X156826169Y-61008839D01*
X156814106Y-61000545D01*
X156797764Y-60984631D01*
X156675761Y-60905430D01*
X156641678Y-60881997D01*
X156635719Y-60879436D01*
X156609976Y-60862724D01*
X156531500Y-60834639D01*
X156435987Y-60793585D01*
X156388639Y-60783513D01*
X156386874Y-60782881D01*
X156386600Y-60783079D01*
X156217000Y-60747000D01*
X156006937Y-60747000D01*
X155949277Y-60607795D01*
X155852424Y-60462845D01*
X155729155Y-60339576D01*
X155584205Y-60242723D01*
X155423145Y-60176010D01*
X155252165Y-60142000D01*
X155125867Y-60142000D01*
X155122426Y-60124702D01*
X155044405Y-59936344D01*
X154931137Y-59766826D01*
X154786974Y-59622663D01*
X154617456Y-59509395D01*
X154429098Y-59431374D01*
X154229139Y-59391600D01*
X154025261Y-59391600D01*
X153825302Y-59431374D01*
X153636944Y-59509395D01*
X153467426Y-59622663D01*
X153458990Y-59631099D01*
X153446022Y-59565902D01*
X153368001Y-59377544D01*
X153254733Y-59208026D01*
X153110570Y-59063863D01*
X152941052Y-58950595D01*
X152752694Y-58872574D01*
X152552735Y-58832800D01*
X152348857Y-58832800D01*
X152148898Y-58872574D01*
X151960540Y-58950595D01*
X151904698Y-58987907D01*
X151848856Y-58950595D01*
X151660498Y-58872574D01*
X151460539Y-58832800D01*
X151256661Y-58832800D01*
X151056702Y-58872574D01*
X150868344Y-58950595D01*
X150698826Y-59063863D01*
X150554663Y-59208026D01*
X150441395Y-59377544D01*
X150363374Y-59565902D01*
X150323600Y-59765861D01*
X150323600Y-59969739D01*
X150363374Y-60169698D01*
X150441395Y-60358056D01*
X150554663Y-60527574D01*
X150596601Y-60569512D01*
X150596600Y-65926377D01*
X150592914Y-65963800D01*
X150596600Y-66001223D01*
X150596600Y-66001225D01*
X150607626Y-66113177D01*
X150651198Y-66256814D01*
X150662011Y-66277044D01*
X150721955Y-66389192D01*
X150753665Y-66427830D01*
X150773367Y-66451837D01*
X150730226Y-66480663D01*
X150586063Y-66624826D01*
X150472795Y-66794344D01*
X150394774Y-66982702D01*
X150355000Y-67182661D01*
X150355000Y-67386539D01*
X150394774Y-67586498D01*
X150472795Y-67774856D01*
X150586063Y-67944374D01*
X150730226Y-68088537D01*
X150800511Y-68135500D01*
X146353447Y-68135500D01*
X146250298Y-68092774D01*
X146050339Y-68053000D01*
X145846461Y-68053000D01*
X145646502Y-68092774D01*
X145458144Y-68170795D01*
X145288626Y-68284063D01*
X145144463Y-68428226D01*
X145031195Y-68597744D01*
X144953174Y-68786102D01*
X144913400Y-68986061D01*
X91949000Y-68986061D01*
X91949000Y-68363285D01*
X91801623Y-67622372D01*
X91512533Y-66924446D01*
X91092839Y-66296330D01*
X90558670Y-65762161D01*
X89930554Y-65342467D01*
X89232628Y-65053377D01*
X88491715Y-64906000D01*
X87736285Y-64906000D01*
X86995372Y-65053377D01*
X86297446Y-65342467D01*
X85669330Y-65762161D01*
X85135161Y-66296330D01*
X84715467Y-66924446D01*
X84426377Y-67622372D01*
X84279000Y-68363285D01*
X58701526Y-68363285D01*
X62195812Y-66952150D01*
X66459081Y-65392786D01*
X70773505Y-63975038D01*
X73380616Y-63196816D01*
X125973000Y-63196816D01*
X125973000Y-63499184D01*
X126031989Y-63795743D01*
X126147701Y-64075095D01*
X126315688Y-64326505D01*
X126529495Y-64540312D01*
X126780905Y-64708299D01*
X127060257Y-64824011D01*
X127356816Y-64883000D01*
X127659184Y-64883000D01*
X127955743Y-64824011D01*
X128235095Y-64708299D01*
X128486505Y-64540312D01*
X128700312Y-64326505D01*
X128868299Y-64075095D01*
X128984011Y-63795743D01*
X129043000Y-63499184D01*
X129043000Y-63196816D01*
X128984011Y-62900257D01*
X128868299Y-62620905D01*
X128700312Y-62369495D01*
X128486505Y-62155688D01*
X128235095Y-61987701D01*
X127955743Y-61871989D01*
X127659184Y-61813000D01*
X127356816Y-61813000D01*
X127060257Y-61871989D01*
X126780905Y-61987701D01*
X126529495Y-62155688D01*
X126315688Y-62369495D01*
X126147701Y-62620905D01*
X126031989Y-62900257D01*
X125973000Y-63196816D01*
X73380616Y-63196816D01*
X73557595Y-63143988D01*
X73565854Y-63142381D01*
X73581604Y-63138915D01*
X73597264Y-63135065D01*
X73606169Y-63132694D01*
X78656809Y-61750000D01*
X146310000Y-61750000D01*
X146310000Y-62250000D01*
X146369546Y-62250000D01*
X146425724Y-62406976D01*
X146488709Y-62504000D01*
X146310000Y-62504000D01*
X146310000Y-63004000D01*
X146356585Y-63222987D01*
X146444997Y-63428678D01*
X146571839Y-63613169D01*
X146732236Y-63769369D01*
X146920024Y-63891276D01*
X147143126Y-63971119D01*
X147318000Y-63844954D01*
X147318000Y-63017000D01*
X147572000Y-63017000D01*
X147572000Y-63844954D01*
X147746874Y-63971119D01*
X147969976Y-63891276D01*
X148157764Y-63769369D01*
X148318161Y-63613169D01*
X148445003Y-63428678D01*
X148533415Y-63222987D01*
X148580000Y-63004000D01*
X148580000Y-62887023D01*
X148591678Y-62882003D01*
X148776169Y-62755161D01*
X148932369Y-62594764D01*
X149054276Y-62406976D01*
X149134119Y-62183874D01*
X149007954Y-62009000D01*
X148580000Y-62009000D01*
X148580000Y-61886572D01*
X148623145Y-61877990D01*
X148784205Y-61811277D01*
X148868429Y-61755000D01*
X149007954Y-61755000D01*
X149134119Y-61580126D01*
X149108195Y-61507688D01*
X149149277Y-61446205D01*
X149215990Y-61285145D01*
X149250000Y-61114165D01*
X149250000Y-60939835D01*
X149215990Y-60768855D01*
X149149277Y-60607795D01*
X149052424Y-60462845D01*
X148929155Y-60339576D01*
X148784205Y-60242723D01*
X148623145Y-60176010D01*
X148452165Y-60142000D01*
X148277835Y-60142000D01*
X148106855Y-60176010D01*
X147945795Y-60242723D01*
X147800845Y-60339576D01*
X147677576Y-60462845D01*
X147580723Y-60607795D01*
X147523063Y-60747000D01*
X147313000Y-60747000D01*
X147143400Y-60783079D01*
X147143126Y-60782881D01*
X147141361Y-60783513D01*
X147094013Y-60793585D01*
X146998500Y-60834639D01*
X146920024Y-60862724D01*
X146894281Y-60879436D01*
X146888322Y-60881997D01*
X146854239Y-60905430D01*
X146732236Y-60984631D01*
X146715894Y-61000545D01*
X146703831Y-61008839D01*
X146638710Y-61075710D01*
X146571839Y-61140831D01*
X146563545Y-61152894D01*
X146547631Y-61169236D01*
X146468430Y-61291239D01*
X146444997Y-61325322D01*
X146442436Y-61331281D01*
X146425724Y-61357024D01*
X146397639Y-61435500D01*
X146356585Y-61531013D01*
X146346513Y-61578361D01*
X146345881Y-61580126D01*
X146346079Y-61580400D01*
X146310000Y-61750000D01*
X78656809Y-61750000D01*
X79260778Y-61584654D01*
X84943723Y-60177161D01*
X90659306Y-58908948D01*
X91689351Y-58706665D01*
X126073000Y-58706665D01*
X126073000Y-58989335D01*
X126128147Y-59266574D01*
X126236320Y-59527727D01*
X126393363Y-59762759D01*
X126593241Y-59962637D01*
X126828273Y-60119680D01*
X127089426Y-60227853D01*
X127366665Y-60283000D01*
X127649335Y-60283000D01*
X127926574Y-60227853D01*
X128187727Y-60119680D01*
X128422759Y-59962637D01*
X128622637Y-59762759D01*
X128779680Y-59527727D01*
X128887853Y-59266574D01*
X128943000Y-58989335D01*
X128943000Y-58706665D01*
X128887853Y-58429426D01*
X128779680Y-58168273D01*
X128622637Y-57933241D01*
X128422759Y-57733363D01*
X128187727Y-57576320D01*
X127926574Y-57468147D01*
X127649335Y-57413000D01*
X127366665Y-57413000D01*
X127089426Y-57468147D01*
X126828273Y-57576320D01*
X126593241Y-57733363D01*
X126393363Y-57933241D01*
X126236320Y-58168273D01*
X126128147Y-58429426D01*
X126073000Y-58706665D01*
X91689351Y-58706665D01*
X96404212Y-57780749D01*
X102174936Y-56793251D01*
X107968132Y-55947031D01*
X113780170Y-55242616D01*
X119610973Y-54680094D01*
X120702276Y-54590904D01*
X120740842Y-54594686D01*
X120772786Y-54604331D01*
X120802249Y-54619997D01*
X120828104Y-54641085D01*
X120849375Y-54666797D01*
X120865245Y-54696150D01*
X120875112Y-54728025D01*
X120885363Y-54825568D01*
X120885783Y-54827613D01*
X120885905Y-54836175D01*
X120891883Y-54864257D01*
X120894783Y-54892821D01*
X120905259Y-54927092D01*
X120912724Y-54962161D01*
X120915575Y-54970925D01*
X120946232Y-55062986D01*
X120967735Y-55111241D01*
X120987530Y-55160237D01*
X120991857Y-55168373D01*
X121050800Y-55277388D01*
X121084245Y-55326972D01*
X121117005Y-55377035D01*
X121122830Y-55384176D01*
X121201826Y-55479666D01*
X121244275Y-55521820D01*
X121286123Y-55564555D01*
X121293224Y-55570429D01*
X121389263Y-55648757D01*
X121439089Y-55681862D01*
X121488446Y-55715657D01*
X121496552Y-55720040D01*
X121605975Y-55778222D01*
X121661267Y-55801011D01*
X121716263Y-55824583D01*
X121725066Y-55827308D01*
X121843707Y-55863127D01*
X121902391Y-55874747D01*
X121960902Y-55887184D01*
X121970058Y-55888146D01*
X121970063Y-55888147D01*
X121970067Y-55888147D01*
X122093405Y-55900240D01*
X122093407Y-55900240D01*
X122125289Y-55903385D01*
X132747318Y-55905004D01*
X132775501Y-55902233D01*
X132780137Y-55902265D01*
X132789309Y-55901365D01*
X132937210Y-55885820D01*
X132995780Y-55873797D01*
X133054563Y-55862584D01*
X133063385Y-55859921D01*
X133205452Y-55815945D01*
X133260607Y-55792760D01*
X133316062Y-55770355D01*
X133324199Y-55766028D01*
X133455017Y-55695295D01*
X133504603Y-55661849D01*
X133554665Y-55629089D01*
X133561806Y-55623265D01*
X133676394Y-55528468D01*
X133718514Y-55486053D01*
X133761283Y-55444171D01*
X133767157Y-55437070D01*
X133861149Y-55321823D01*
X133894229Y-55272033D01*
X133928048Y-55222643D01*
X133932431Y-55214536D01*
X134002249Y-55083228D01*
X134025034Y-55027946D01*
X134048610Y-54972941D01*
X134051335Y-54964138D01*
X134094318Y-54821769D01*
X134105934Y-54763107D01*
X134118375Y-54704576D01*
X134119338Y-54695411D01*
X134122810Y-54660000D01*
X137645807Y-54660000D01*
X137649000Y-54692420D01*
X137649001Y-57409571D01*
X137645807Y-57442000D01*
X137658550Y-57571383D01*
X137696290Y-57695793D01*
X137757575Y-57810450D01*
X137840052Y-57910948D01*
X137940550Y-57993425D01*
X138055207Y-58054710D01*
X138179617Y-58092450D01*
X138276581Y-58102000D01*
X138309000Y-58105193D01*
X138341419Y-58102000D01*
X141058581Y-58102000D01*
X141091000Y-58105193D01*
X141123419Y-58102000D01*
X141220383Y-58092450D01*
X141344793Y-58054710D01*
X141459450Y-57993425D01*
X141507489Y-57954000D01*
X146210000Y-57954000D01*
X146210000Y-58554000D01*
X146258507Y-58792496D01*
X146352610Y-59016946D01*
X146488693Y-59218725D01*
X146661526Y-59390078D01*
X146864467Y-59524421D01*
X147089718Y-59616591D01*
X147127391Y-59620462D01*
X147318000Y-59495731D01*
X147318000Y-57954000D01*
X147572000Y-57954000D01*
X147572000Y-59495731D01*
X147762609Y-59620462D01*
X147800282Y-59616591D01*
X148025533Y-59524421D01*
X148228474Y-59390078D01*
X148401307Y-59218725D01*
X148537390Y-59016946D01*
X148631493Y-58792496D01*
X148680000Y-58554000D01*
X148680000Y-57954000D01*
X154850000Y-57954000D01*
X154850000Y-58554000D01*
X154898507Y-58792496D01*
X154992610Y-59016946D01*
X155128693Y-59218725D01*
X155301526Y-59390078D01*
X155504467Y-59524421D01*
X155729718Y-59616591D01*
X155767391Y-59620462D01*
X155958000Y-59495731D01*
X155958000Y-57954000D01*
X156212000Y-57954000D01*
X156212000Y-59495731D01*
X156402609Y-59620462D01*
X156440282Y-59616591D01*
X156665533Y-59524421D01*
X156868474Y-59390078D01*
X157041307Y-59218725D01*
X157177390Y-59016946D01*
X157271493Y-58792496D01*
X157320000Y-58554000D01*
X157320000Y-57954000D01*
X156212000Y-57954000D01*
X155958000Y-57954000D01*
X154850000Y-57954000D01*
X148680000Y-57954000D01*
X147572000Y-57954000D01*
X147318000Y-57954000D01*
X146210000Y-57954000D01*
X141507489Y-57954000D01*
X141559948Y-57910948D01*
X141642425Y-57810450D01*
X141703710Y-57695793D01*
X141741450Y-57571383D01*
X141754193Y-57442000D01*
X141751000Y-57409581D01*
X141751000Y-57100000D01*
X146210000Y-57100000D01*
X146210000Y-57700000D01*
X147318000Y-57700000D01*
X147318000Y-56158269D01*
X147572000Y-56158269D01*
X147572000Y-57700000D01*
X148680000Y-57700000D01*
X148680000Y-57100000D01*
X154850000Y-57100000D01*
X154850000Y-57700000D01*
X155958000Y-57700000D01*
X155958000Y-56158269D01*
X156212000Y-56158269D01*
X156212000Y-57700000D01*
X157320000Y-57700000D01*
X157320000Y-57100000D01*
X157271493Y-56861504D01*
X157177390Y-56637054D01*
X157041307Y-56435275D01*
X156868474Y-56263922D01*
X156665533Y-56129579D01*
X156440282Y-56037409D01*
X156402609Y-56033538D01*
X156212000Y-56158269D01*
X155958000Y-56158269D01*
X155767391Y-56033538D01*
X155729718Y-56037409D01*
X155504467Y-56129579D01*
X155301526Y-56263922D01*
X155128693Y-56435275D01*
X154992610Y-56637054D01*
X154898507Y-56861504D01*
X154850000Y-57100000D01*
X148680000Y-57100000D01*
X148631493Y-56861504D01*
X148537390Y-56637054D01*
X148401307Y-56435275D01*
X148228474Y-56263922D01*
X148025533Y-56129579D01*
X147800282Y-56037409D01*
X147762609Y-56033538D01*
X147572000Y-56158269D01*
X147318000Y-56158269D01*
X147127391Y-56033538D01*
X147089718Y-56037409D01*
X146864467Y-56129579D01*
X146661526Y-56263922D01*
X146488693Y-56435275D01*
X146352610Y-56637054D01*
X146258507Y-56861504D01*
X146210000Y-57100000D01*
X141751000Y-57100000D01*
X141751000Y-54692419D01*
X141754193Y-54660000D01*
X141741450Y-54530617D01*
X141703710Y-54406207D01*
X141642425Y-54291550D01*
X141559948Y-54191052D01*
X141459450Y-54108575D01*
X141344793Y-54047290D01*
X141220383Y-54009550D01*
X141207113Y-54008243D01*
X141091000Y-53996807D01*
X141058581Y-54000000D01*
X138341419Y-54000000D01*
X138309000Y-53996807D01*
X138192887Y-54008243D01*
X138179617Y-54009550D01*
X138055207Y-54047290D01*
X137940550Y-54108575D01*
X137840052Y-54191052D01*
X137757575Y-54291550D01*
X137696290Y-54406207D01*
X137658550Y-54530617D01*
X137645807Y-54660000D01*
X134122810Y-54660000D01*
X134133850Y-54547404D01*
X134133850Y-54547402D01*
X134137000Y-54515419D01*
X134137000Y-54408969D01*
X134149303Y-54283490D01*
X134176370Y-54193843D01*
X134220335Y-54111155D01*
X134279522Y-54038586D01*
X134351684Y-53978888D01*
X134434054Y-53934351D01*
X134523515Y-53906658D01*
X134649495Y-53893417D01*
X139700000Y-53840037D01*
X144744243Y-53893351D01*
G37*
%TD.AperFunction*%
%TD*%
M02*
