%TF.GenerationSoftware,KiCad,Pcbnew,5.1.8-db9833491~88~ubuntu20.04.1*%
%TF.CreationDate,2020-12-13T22:35:30+05:30*%
%TF.ProjectId,halo,68616c6f-2e6b-4696-9361-645f70636258,v1*%
%TF.SameCoordinates,Original*%
%TF.FileFunction,Copper,L2,Bot*%
%TF.FilePolarity,Positive*%
%FSLAX46Y46*%
G04 Gerber Fmt 4.6, Leading zero omitted, Abs format (unit mm)*
G04 Created by KiCad (PCBNEW 5.1.8-db9833491~88~ubuntu20.04.1) date 2020-12-13 22:35:30*
%MOMM*%
%LPD*%
G01*
G04 APERTURE LIST*
%TA.AperFunction,ComponentPad*%
%ADD10C,10.668000*%
%TD*%
%TA.AperFunction,ComponentPad*%
%ADD11C,2.032000*%
%TD*%
%TA.AperFunction,ComponentPad*%
%ADD12C,6.400000*%
%TD*%
%TA.AperFunction,ComponentPad*%
%ADD13C,0.800000*%
%TD*%
%TA.AperFunction,ViaPad*%
%ADD14C,0.800000*%
%TD*%
%TA.AperFunction,Conductor*%
%ADD15C,0.508000*%
%TD*%
%TA.AperFunction,Conductor*%
%ADD16C,0.635000*%
%TD*%
%TA.AperFunction,Conductor*%
%ADD17C,0.254000*%
%TD*%
%TA.AperFunction,Conductor*%
%ADD18C,0.762000*%
%TD*%
%TA.AperFunction,Conductor*%
%ADD19C,0.100000*%
%TD*%
G04 APERTURE END LIST*
D10*
%TO.P,J1,2*%
%TO.N,GND*%
X139700000Y-68580000D03*
D11*
%TO.P,J1,1*%
%TO.N,/Vin*%
X132715000Y-68580000D03*
%TO.P,J1,2*%
%TO.N,GND*%
X146685000Y-68580000D03*
%TD*%
D12*
%TO.P,SC4,1*%
%TO.N,N/C*%
X237998000Y-63500000D03*
D13*
X240398000Y-63500000D03*
X239695056Y-65197056D03*
X237998000Y-65900000D03*
X236300944Y-65197056D03*
X235598000Y-63500000D03*
X236300944Y-61802944D03*
X237998000Y-61100000D03*
X239695056Y-61802944D03*
%TD*%
D12*
%TO.P,SC2,1*%
%TO.N,N/C*%
X90678000Y-63500000D03*
D13*
X93078000Y-63500000D03*
X92375056Y-65197056D03*
X90678000Y-65900000D03*
X88980944Y-65197056D03*
X88278000Y-63500000D03*
X88980944Y-61802944D03*
X90678000Y-61100000D03*
X92375056Y-61802944D03*
%TD*%
D12*
%TO.P,SC3,1*%
%TO.N,N/C*%
X188722000Y-63500000D03*
D13*
X191122000Y-63500000D03*
X190419056Y-65197056D03*
X188722000Y-65900000D03*
X187024944Y-65197056D03*
X186322000Y-63500000D03*
X187024944Y-61802944D03*
X188722000Y-61100000D03*
X190419056Y-61802944D03*
%TD*%
D12*
%TO.P,SC5,1*%
%TO.N,N/C*%
X237998000Y-121666000D03*
D13*
X240398000Y-121666000D03*
X239695056Y-123363056D03*
X237998000Y-124066000D03*
X236300944Y-123363056D03*
X235598000Y-121666000D03*
X236300944Y-119968944D03*
X237998000Y-119266000D03*
X239695056Y-119968944D03*
%TD*%
D12*
%TO.P,SC6,1*%
%TO.N,N/C*%
X176022000Y-121666000D03*
D13*
X178422000Y-121666000D03*
X177719056Y-123363056D03*
X176022000Y-124066000D03*
X174324944Y-123363056D03*
X173622000Y-121666000D03*
X174324944Y-119968944D03*
X176022000Y-119266000D03*
X177719056Y-119968944D03*
%TD*%
D12*
%TO.P,SC7,1*%
%TO.N,N/C*%
X103378000Y-121666000D03*
D13*
X105778000Y-121666000D03*
X105075056Y-123363056D03*
X103378000Y-124066000D03*
X101680944Y-123363056D03*
X100978000Y-121666000D03*
X101680944Y-119968944D03*
X103378000Y-119266000D03*
X105075056Y-119968944D03*
%TD*%
D12*
%TO.P,SC8,1*%
%TO.N,N/C*%
X41402000Y-121666000D03*
D13*
X43802000Y-121666000D03*
X43099056Y-123363056D03*
X41402000Y-124066000D03*
X39704944Y-123363056D03*
X39002000Y-121666000D03*
X39704944Y-119968944D03*
X41402000Y-119266000D03*
X43099056Y-119968944D03*
%TD*%
%TO.P,SC1,1*%
%TO.N,N/C*%
X43099056Y-61802944D03*
X41402000Y-61100000D03*
X39704944Y-61802944D03*
X39002000Y-63500000D03*
X39704944Y-65197056D03*
X41402000Y-65900000D03*
X43099056Y-65197056D03*
X43802000Y-63500000D03*
D12*
X41402000Y-63500000D03*
%TD*%
D14*
%TO.N,GND*%
X164973000Y-65913000D03*
X92710000Y-116332000D03*
X62230000Y-116459000D03*
X190500000Y-118110000D03*
X168910000Y-116459000D03*
X199390000Y-116332000D03*
X229870000Y-116459000D03*
X225044000Y-82550000D03*
X232156000Y-82550000D03*
X44450000Y-86741000D03*
X47244000Y-82550000D03*
X54356000Y-82550000D03*
X74930000Y-86741000D03*
X22682200Y-100025200D03*
X28117800Y-103174800D03*
X22682200Y-106400600D03*
X28143200Y-96824800D03*
X37922200Y-106375200D03*
X43383200Y-103174800D03*
X37922200Y-99999800D03*
X43332400Y-96824800D03*
X53162200Y-106375200D03*
X58597800Y-103174800D03*
X53136800Y-100025200D03*
X58597800Y-96824800D03*
X68427600Y-106375200D03*
X73837800Y-103200200D03*
X68402200Y-100025200D03*
X73837800Y-96824800D03*
X83642200Y-106375200D03*
X89077800Y-103174800D03*
X83642200Y-100025200D03*
X89077800Y-96799400D03*
X98882200Y-106375200D03*
X104317800Y-103174800D03*
X98882200Y-100025200D03*
X104317800Y-96824800D03*
X114122200Y-106375200D03*
X119557800Y-103174800D03*
X114122200Y-100025200D03*
X119583200Y-96824800D03*
X129362200Y-106400600D03*
X134797800Y-103174800D03*
X129362200Y-100025200D03*
X134797800Y-96824800D03*
X144576800Y-106375200D03*
X150037800Y-103174800D03*
X144602200Y-100025200D03*
X150037800Y-96824800D03*
X159842200Y-106375200D03*
X165277800Y-103174800D03*
X159842200Y-100025200D03*
X165277800Y-96824800D03*
X175082200Y-106375200D03*
X180517800Y-103174800D03*
X175082200Y-100025200D03*
X180517800Y-96850200D03*
X190296800Y-106375200D03*
X195783200Y-103149400D03*
X190296800Y-100025200D03*
X195757800Y-96824800D03*
X205562200Y-106375200D03*
X210997800Y-103174800D03*
X205536800Y-100025200D03*
X210997800Y-96824800D03*
X220802200Y-106375200D03*
X226237800Y-103174800D03*
X220776800Y-100025200D03*
X226237800Y-96824800D03*
X236042200Y-106375200D03*
X241477800Y-103174800D03*
X236042200Y-100025200D03*
X241477800Y-96824800D03*
X251282200Y-106375200D03*
X256717800Y-103174800D03*
X251282200Y-100025200D03*
X179070000Y-67005200D03*
X181610000Y-67005200D03*
X193675000Y-90805000D03*
X196215000Y-90805000D03*
X203515000Y-78547000D03*
X200406000Y-79375000D03*
X203515001Y-75854600D03*
X195122800Y-85140800D03*
X195122800Y-83947000D03*
X188518809Y-78455865D03*
X189308572Y-79245628D03*
X181610000Y-86360000D03*
X196215000Y-67818000D03*
X151130000Y-86868000D03*
X208102200Y-67868800D03*
X82067400Y-77470000D03*
X77952600Y-80010000D03*
X77952604Y-82550000D03*
X94919800Y-82321400D03*
X93319600Y-83693000D03*
X256717800Y-96824800D03*
X170103798Y-78435198D03*
X185420000Y-67792600D03*
X175209200Y-70815200D03*
X127000000Y-114300000D03*
X131760000Y-113350000D03*
X130810000Y-114300000D03*
X227838000Y-86868000D03*
X216535000Y-64770000D03*
X175295992Y-78450008D03*
X163195008Y-80645000D03*
X163194978Y-79375000D03*
X163195000Y-78105000D03*
X105410000Y-86868000D03*
X209550000Y-86995000D03*
X209550000Y-85725000D03*
X209550000Y-88265000D03*
X60960000Y-67310000D03*
X59690000Y-67310000D03*
X62230000Y-67310000D03*
X99695000Y-67310000D03*
X98425000Y-67310000D03*
X100965000Y-67310000D03*
X107950000Y-116459000D03*
X148590000Y-120650000D03*
X151892000Y-120650000D03*
X113045000Y-66253600D03*
X113045000Y-64145400D03*
X111252000Y-62153800D03*
X111226600Y-68249800D03*
X153009600Y-60375800D03*
X163245800Y-60375800D03*
X149860000Y-77393800D03*
X151257000Y-65913000D03*
%TO.N,+5V*%
X258876800Y-106375200D03*
X20497800Y-96824800D03*
X20497800Y-103174800D03*
X258876800Y-100025200D03*
X32773000Y-104782000D03*
X48013000Y-104782000D03*
X246133000Y-104782000D03*
%TO.N,/RESET*%
X189357000Y-81280000D03*
X203581000Y-69088000D03*
X167386000Y-72390000D03*
X179070000Y-72390000D03*
%TO.N,/Vusb*%
X151130000Y-70358000D03*
X151130000Y-69215004D03*
X163830000Y-70358000D03*
X163830000Y-69088000D03*
%TO.N,/D+*%
X159385000Y-71120000D03*
X156845009Y-69942010D03*
%TO.N,/D-*%
X156845000Y-71120000D03*
X159385000Y-69850000D03*
%TO.N,/SCK*%
X193040000Y-70358000D03*
X188595000Y-70358000D03*
%TO.N,/TXD*%
X185420000Y-86995000D03*
X171450000Y-77724008D03*
%TO.N,/RXD*%
X185420000Y-85725000D03*
X173990000Y-77724000D03*
%TO.N,/SDA*%
X175895000Y-86360000D03*
X134619996Y-119380000D03*
%TO.N,/SCL*%
X178435000Y-86360000D03*
X134620000Y-121920000D03*
%TO.N,/D6~~_CLK*%
X74930000Y-80010000D03*
X196977000Y-76961996D03*
%TO.N,/D5~~_DAT*%
X198120000Y-76962000D03*
X74930000Y-77470000D03*
%TO.N,/D4_MODE*%
X185420000Y-114604800D03*
X185420000Y-90805000D03*
%TO.N,/DAT*%
X22428200Y-96824800D03*
X46990006Y-77470000D03*
%TO.N,/LED_2/DAT_OUT2*%
X258902200Y-96824800D03*
X242595400Y-87655400D03*
%TD*%
D15*
%TO.N,GND*%
X195122800Y-85140800D02*
X195122800Y-83947000D01*
D16*
%TO.N,+5V*%
X20497800Y-96824800D02*
X20497800Y-98501200D01*
X20497800Y-98501200D02*
X20497800Y-103174800D01*
X258876800Y-105079800D02*
X258876800Y-106375200D01*
X258876800Y-105079800D02*
X258876800Y-100025200D01*
X22105000Y-104782000D02*
X32773000Y-104782000D01*
X20497800Y-103174800D02*
X22105000Y-104782000D01*
X32773000Y-104782000D02*
X48013000Y-104782000D01*
X246698685Y-104782000D02*
X246133000Y-104782000D01*
X258869800Y-104782000D02*
X246698685Y-104782000D01*
X258876800Y-104775000D02*
X258869800Y-104782000D01*
D17*
%TO.N,/RESET*%
X203581000Y-81280000D02*
X189357000Y-81280000D01*
X204978000Y-73787000D02*
X204978000Y-79883000D01*
X204978000Y-79883000D02*
X203581000Y-81280000D01*
X203581000Y-72390000D02*
X204978000Y-73787000D01*
X203581000Y-72390000D02*
X203581000Y-69088000D01*
X203581000Y-72390000D02*
X179070000Y-72390000D01*
X167386000Y-72390000D02*
X179070000Y-72390000D01*
D18*
%TO.N,/Vusb*%
X163068000Y-69088000D02*
X163830000Y-69088000D01*
X160401000Y-66421000D02*
X163068000Y-69088000D01*
X154813000Y-66421000D02*
X160401000Y-66421000D01*
X152018996Y-69215004D02*
X154813000Y-66421000D01*
X151130000Y-69215004D02*
X152018996Y-69215004D01*
X162814014Y-70358014D02*
X163829994Y-70358014D01*
X159893000Y-67437000D02*
X162814014Y-70358014D01*
X155194000Y-67437000D02*
X159893000Y-67437000D01*
X152273000Y-70358000D02*
X155194000Y-67437000D01*
X151130000Y-70358000D02*
X152273000Y-70358000D01*
D17*
%TO.N,/D+*%
X159385000Y-71120000D02*
X158207010Y-69942010D01*
X158207010Y-69942010D02*
X156845009Y-69942010D01*
%TO.N,/D-*%
X156566249Y-69112751D02*
X158647751Y-69112751D01*
X156117999Y-70392999D02*
X156117999Y-69561001D01*
X156117999Y-69561001D02*
X156566249Y-69112751D01*
X156845000Y-71120000D02*
X156117999Y-70392999D01*
X158647751Y-69112751D02*
X159385000Y-69850000D01*
%TO.N,/SCK*%
X193040000Y-70358000D02*
X188595000Y-70358000D01*
%TO.N,/TXD*%
X185420000Y-86995000D02*
X178834999Y-80409999D01*
X178834999Y-80409999D02*
X172484999Y-80409999D01*
X171450000Y-79375000D02*
X172484999Y-80409999D01*
X171450000Y-77724008D02*
X171450000Y-79375000D01*
%TO.N,/RXD*%
X185420000Y-85725000D02*
X179469983Y-79774983D01*
X179469983Y-79774983D02*
X174389999Y-79774983D01*
X173990000Y-79374984D02*
X174389999Y-79774983D01*
X173990000Y-77724000D02*
X173990000Y-79374984D01*
%TO.N,/SDA*%
X137541000Y-117729000D02*
X135890000Y-119380000D01*
X146177000Y-117729000D02*
X137541000Y-117729000D01*
X135890000Y-119380000D02*
X134619996Y-119380000D01*
X149542500Y-114363500D02*
X146177000Y-117729000D01*
X174307500Y-114363500D02*
X149542500Y-114363500D01*
X176784000Y-111887000D02*
X174307500Y-114363500D01*
X176784000Y-93345000D02*
X176784000Y-111887000D01*
X175895000Y-92456000D02*
X176784000Y-93345000D01*
X175895000Y-86360000D02*
X175895000Y-92456000D01*
%TO.N,/SCL*%
X138049000Y-118491000D02*
X134620000Y-121920000D01*
X146558000Y-118491000D02*
X138049000Y-118491000D01*
X149923500Y-115125500D02*
X146558000Y-118491000D01*
X174688500Y-115125500D02*
X149923500Y-115125500D01*
X177546000Y-112268000D02*
X174688500Y-115125500D01*
X177546000Y-93345000D02*
X177546000Y-112268000D01*
X178435000Y-92456000D02*
X177546000Y-93345000D01*
X178435000Y-86360000D02*
X178435000Y-92456000D01*
%TO.N,/D6~~_CLK*%
X80610343Y-75565000D02*
X76165343Y-80010000D01*
X85725000Y-75565000D02*
X80610343Y-75565000D01*
X90805000Y-80645000D02*
X85725000Y-75565000D01*
X158115000Y-80645000D02*
X90805000Y-80645000D01*
X76165343Y-80010000D02*
X74930000Y-80010000D01*
X195580004Y-75565000D02*
X163195000Y-75565000D01*
X163195000Y-75565000D02*
X158115000Y-80645000D01*
X196977000Y-76961996D02*
X195580004Y-75565000D01*
%TO.N,/D5~~_DAT*%
X77470000Y-77470000D02*
X74930000Y-77470000D01*
X91443533Y-80010000D02*
X86363533Y-74930000D01*
X157480000Y-80010000D02*
X91443533Y-80010000D01*
X162687000Y-74803000D02*
X157480000Y-80010000D01*
X80010000Y-74930000D02*
X77470000Y-77470000D01*
X86363533Y-74930000D02*
X80010000Y-74930000D01*
X195961000Y-74803000D02*
X162687000Y-74803000D01*
X198120000Y-76962000D02*
X195961000Y-74803000D01*
%TO.N,/D4_MODE*%
X185420000Y-114604800D02*
X185420000Y-90805000D01*
%TO.N,/DAT*%
X24206200Y-98602800D02*
X22428200Y-96824800D01*
X39649400Y-98602800D02*
X24206200Y-98602800D01*
X41275000Y-96977200D02*
X39649400Y-98602800D01*
X41275000Y-78740000D02*
X41275000Y-96977200D01*
X42545000Y-77470000D02*
X41275000Y-78740000D01*
X46990006Y-77470000D02*
X42545000Y-77470000D01*
%TO.N,/LED_2/DAT_OUT2*%
X244500400Y-98425000D02*
X242595400Y-96520000D01*
X242595400Y-96520000D02*
X242595400Y-87655400D01*
X257302000Y-98425000D02*
X244500400Y-98425000D01*
X258902200Y-96824800D02*
X257302000Y-98425000D01*
%TD*%
%TO.N,GND*%
X39585446Y-60101467D02*
X38957330Y-60521161D01*
X38423161Y-61055330D01*
X38003467Y-61683446D01*
X37714377Y-62381372D01*
X37567000Y-63122285D01*
X37567000Y-63877715D01*
X37714377Y-64618628D01*
X38003467Y-65316554D01*
X38423161Y-65944670D01*
X38957330Y-66478839D01*
X39585446Y-66898533D01*
X40283372Y-67187623D01*
X41024285Y-67335000D01*
X41779715Y-67335000D01*
X42520628Y-67187623D01*
X43218554Y-66898533D01*
X43846670Y-66478839D01*
X44380839Y-65944670D01*
X44800533Y-65316554D01*
X45089623Y-64618628D01*
X45237000Y-63877715D01*
X45237000Y-63122285D01*
X45089623Y-62381372D01*
X44800533Y-61683446D01*
X44380839Y-61055330D01*
X43846670Y-60521161D01*
X43218554Y-60101467D01*
X43205355Y-60096000D01*
X88874645Y-60096000D01*
X88861446Y-60101467D01*
X88233330Y-60521161D01*
X87699161Y-61055330D01*
X87279467Y-61683446D01*
X86990377Y-62381372D01*
X86843000Y-63122285D01*
X86843000Y-63877715D01*
X86990377Y-64618628D01*
X87279467Y-65316554D01*
X87699161Y-65944670D01*
X88233330Y-66478839D01*
X88861446Y-66898533D01*
X89559372Y-67187623D01*
X90300285Y-67335000D01*
X91055715Y-67335000D01*
X91796628Y-67187623D01*
X92494554Y-66898533D01*
X93092772Y-66498816D01*
X117210000Y-66498816D01*
X117210000Y-66801184D01*
X117268989Y-67097743D01*
X117384701Y-67377095D01*
X117552688Y-67628505D01*
X117766495Y-67842312D01*
X118017905Y-68010299D01*
X118297257Y-68126011D01*
X118593816Y-68185000D01*
X118896184Y-68185000D01*
X119192743Y-68126011D01*
X119472095Y-68010299D01*
X119723505Y-67842312D01*
X119937312Y-67628505D01*
X120105299Y-67377095D01*
X120221011Y-67097743D01*
X120280000Y-66801184D01*
X120280000Y-66498816D01*
X120221011Y-66202257D01*
X120105299Y-65922905D01*
X119937312Y-65671495D01*
X119723505Y-65457688D01*
X119472095Y-65289701D01*
X119192743Y-65173989D01*
X118896184Y-65115000D01*
X118593816Y-65115000D01*
X118297257Y-65173989D01*
X118017905Y-65289701D01*
X117766495Y-65457688D01*
X117552688Y-65671495D01*
X117384701Y-65922905D01*
X117268989Y-66202257D01*
X117210000Y-66498816D01*
X93092772Y-66498816D01*
X93122670Y-66478839D01*
X93656839Y-65944670D01*
X94076533Y-65316554D01*
X94365623Y-64618628D01*
X94443586Y-64226681D01*
X135526286Y-64226681D01*
X139700000Y-68400395D01*
X143873714Y-64226681D01*
X143271982Y-63447522D01*
X142202051Y-62849282D01*
X141035967Y-62471270D01*
X139818543Y-62328013D01*
X138596563Y-62425017D01*
X137416988Y-62758553D01*
X136325148Y-63315804D01*
X136128018Y-63447522D01*
X135526286Y-64226681D01*
X94443586Y-64226681D01*
X94513000Y-63877715D01*
X94513000Y-63122285D01*
X94365623Y-62381372D01*
X94211243Y-62008665D01*
X117310000Y-62008665D01*
X117310000Y-62291335D01*
X117365147Y-62568574D01*
X117473320Y-62829727D01*
X117630363Y-63064759D01*
X117830241Y-63264637D01*
X118065273Y-63421680D01*
X118326426Y-63529853D01*
X118603665Y-63585000D01*
X118886335Y-63585000D01*
X119163574Y-63529853D01*
X119424727Y-63421680D01*
X119659759Y-63264637D01*
X119859637Y-63064759D01*
X120016680Y-62829727D01*
X120124853Y-62568574D01*
X120180000Y-62291335D01*
X120180000Y-62008665D01*
X120124853Y-61731426D01*
X120016680Y-61470273D01*
X119859637Y-61235241D01*
X119659759Y-61035363D01*
X119424727Y-60878320D01*
X119163574Y-60770147D01*
X118886335Y-60715000D01*
X118603665Y-60715000D01*
X118326426Y-60770147D01*
X118065273Y-60878320D01*
X117830241Y-61035363D01*
X117630363Y-61235241D01*
X117473320Y-61470273D01*
X117365147Y-61731426D01*
X117310000Y-62008665D01*
X94211243Y-62008665D01*
X94076533Y-61683446D01*
X93656839Y-61055330D01*
X93122670Y-60521161D01*
X92494554Y-60101467D01*
X92481355Y-60096000D01*
X186918645Y-60096000D01*
X186905446Y-60101467D01*
X186277330Y-60521161D01*
X185743161Y-61055330D01*
X185323467Y-61683446D01*
X185034377Y-62381372D01*
X184887000Y-63122285D01*
X184887000Y-63877715D01*
X185034377Y-64618628D01*
X185323467Y-65316554D01*
X185743161Y-65944670D01*
X186277330Y-66478839D01*
X186905446Y-66898533D01*
X187603372Y-67187623D01*
X188344285Y-67335000D01*
X189099715Y-67335000D01*
X189840628Y-67187623D01*
X190538554Y-66898533D01*
X191166670Y-66478839D01*
X191700839Y-65944670D01*
X192120533Y-65316554D01*
X192409623Y-64618628D01*
X192557000Y-63877715D01*
X192557000Y-63122285D01*
X192409623Y-62381372D01*
X192120533Y-61683446D01*
X191700839Y-61055330D01*
X191166670Y-60521161D01*
X190538554Y-60101467D01*
X190525355Y-60096000D01*
X236194645Y-60096000D01*
X236181446Y-60101467D01*
X235553330Y-60521161D01*
X235019161Y-61055330D01*
X234599467Y-61683446D01*
X234310377Y-62381372D01*
X234163000Y-63122285D01*
X234163000Y-63877715D01*
X234310377Y-64618628D01*
X234599467Y-65316554D01*
X235019161Y-65944670D01*
X235553330Y-66478839D01*
X236181446Y-66898533D01*
X236879372Y-67187623D01*
X237620285Y-67335000D01*
X238375715Y-67335000D01*
X239116628Y-67187623D01*
X239814554Y-66898533D01*
X240442670Y-66478839D01*
X240976839Y-65944670D01*
X241396533Y-65316554D01*
X241685623Y-64618628D01*
X241833000Y-63877715D01*
X241833000Y-63122285D01*
X241685623Y-62381372D01*
X241396533Y-61683446D01*
X240976839Y-61055330D01*
X240442670Y-60521161D01*
X239814554Y-60101467D01*
X239801355Y-60096000D01*
X242029721Y-60096000D01*
X242426545Y-60134909D01*
X242777208Y-60240780D01*
X243100625Y-60412744D01*
X243384484Y-60644254D01*
X243617965Y-60926486D01*
X243792183Y-61248695D01*
X243900502Y-61598614D01*
X243942001Y-61993452D01*
X243942000Y-94266418D01*
X243944802Y-94294864D01*
X243944747Y-94302682D01*
X243945646Y-94311853D01*
X243971554Y-94558357D01*
X243983589Y-94616986D01*
X243994792Y-94675716D01*
X243997456Y-94684538D01*
X244070751Y-94921314D01*
X244093931Y-94976457D01*
X244116339Y-95031920D01*
X244120665Y-95040054D01*
X244120667Y-95040059D01*
X244120670Y-95040064D01*
X244238553Y-95258086D01*
X244271988Y-95307654D01*
X244304759Y-95357735D01*
X244310584Y-95364876D01*
X244468577Y-95555856D01*
X244511012Y-95597995D01*
X244552875Y-95640745D01*
X244559976Y-95646618D01*
X244752053Y-95803273D01*
X244801875Y-95836374D01*
X244851237Y-95870173D01*
X244859343Y-95874556D01*
X245078191Y-95990919D01*
X245133479Y-96013707D01*
X245188475Y-96037279D01*
X245197278Y-96040003D01*
X245434559Y-96111643D01*
X245493246Y-96123264D01*
X245551752Y-96135700D01*
X245560915Y-96136663D01*
X245560917Y-96136663D01*
X245807595Y-96160850D01*
X245807598Y-96160850D01*
X245839581Y-96164000D01*
X258099289Y-96164000D01*
X258098263Y-96165026D01*
X257984995Y-96334544D01*
X257906974Y-96522902D01*
X257867200Y-96722861D01*
X257867200Y-96782170D01*
X256986370Y-97663000D01*
X244816031Y-97663000D01*
X243357400Y-96204370D01*
X243357400Y-88357111D01*
X243399337Y-88315174D01*
X243512605Y-88145656D01*
X243590626Y-87957298D01*
X243630400Y-87757339D01*
X243630400Y-87553461D01*
X243590626Y-87353502D01*
X243512605Y-87165144D01*
X243399337Y-86995626D01*
X243255174Y-86851463D01*
X243085656Y-86738195D01*
X242897298Y-86660174D01*
X242697339Y-86620400D01*
X242493461Y-86620400D01*
X242293502Y-86660174D01*
X242105144Y-86738195D01*
X241935626Y-86851463D01*
X241791463Y-86995626D01*
X241678195Y-87165144D01*
X241600174Y-87353502D01*
X241560400Y-87553461D01*
X241560400Y-87757339D01*
X241600174Y-87957298D01*
X241678195Y-88145656D01*
X241791463Y-88315174D01*
X241833401Y-88357112D01*
X241833400Y-96482577D01*
X241829714Y-96520000D01*
X241833400Y-96557423D01*
X241833400Y-96557425D01*
X241844426Y-96669377D01*
X241887998Y-96813014D01*
X241887999Y-96813015D01*
X241958755Y-96945392D01*
X241998383Y-96993678D01*
X242053978Y-97061422D01*
X242083054Y-97085284D01*
X243935121Y-98937352D01*
X243958978Y-98966422D01*
X243988048Y-98990279D01*
X244075007Y-99061645D01*
X244145764Y-99099465D01*
X244207385Y-99132402D01*
X244351022Y-99175974D01*
X244462974Y-99187000D01*
X244462977Y-99187000D01*
X244500400Y-99190686D01*
X244537823Y-99187000D01*
X257264577Y-99187000D01*
X257302000Y-99190686D01*
X257339423Y-99187000D01*
X257339426Y-99187000D01*
X257451378Y-99175974D01*
X257595015Y-99132402D01*
X257727392Y-99061645D01*
X257843422Y-98966422D01*
X257867284Y-98937346D01*
X258944830Y-97859800D01*
X259004139Y-97859800D01*
X259204098Y-97820026D01*
X259392456Y-97742005D01*
X259561974Y-97628737D01*
X259706137Y-97484574D01*
X259819405Y-97315056D01*
X259897426Y-97126698D01*
X259937200Y-96926739D01*
X259937200Y-96722861D01*
X259897426Y-96522902D01*
X259819405Y-96334544D01*
X259706137Y-96165026D01*
X259705111Y-96164000D01*
X260960001Y-96164000D01*
X260960000Y-107036000D01*
X259679711Y-107036000D01*
X259680737Y-107034974D01*
X259794005Y-106865456D01*
X259872026Y-106677098D01*
X259911800Y-106477139D01*
X259911800Y-106273261D01*
X259872026Y-106073302D01*
X259829300Y-105970153D01*
X259829300Y-104821785D01*
X259833908Y-104775001D01*
X259829300Y-104728216D01*
X259829300Y-100430247D01*
X259872026Y-100327098D01*
X259911800Y-100127139D01*
X259911800Y-99923261D01*
X259872026Y-99723302D01*
X259794005Y-99534944D01*
X259680737Y-99365426D01*
X259536574Y-99221263D01*
X259367056Y-99107995D01*
X259178698Y-99029974D01*
X258978739Y-98990200D01*
X258774861Y-98990200D01*
X258574902Y-99029974D01*
X258386544Y-99107995D01*
X258217026Y-99221263D01*
X258072863Y-99365426D01*
X257959595Y-99534944D01*
X257881574Y-99723302D01*
X257841800Y-99923261D01*
X257841800Y-100127139D01*
X257881574Y-100327098D01*
X257924301Y-100430249D01*
X257924300Y-103829500D01*
X246538047Y-103829500D01*
X246434898Y-103786774D01*
X246234939Y-103747000D01*
X246031061Y-103747000D01*
X245831102Y-103786774D01*
X245642744Y-103864795D01*
X245473226Y-103978063D01*
X245329063Y-104122226D01*
X245215795Y-104291744D01*
X245137774Y-104480102D01*
X245098000Y-104680061D01*
X245098000Y-104883939D01*
X245137774Y-105083898D01*
X245215795Y-105272256D01*
X245329063Y-105441774D01*
X245473226Y-105585937D01*
X245642744Y-105699205D01*
X245831102Y-105777226D01*
X246031061Y-105817000D01*
X246234939Y-105817000D01*
X246434898Y-105777226D01*
X246538047Y-105734500D01*
X257924301Y-105734500D01*
X257924301Y-105970151D01*
X257881574Y-106073302D01*
X257841800Y-106273261D01*
X257841800Y-106477139D01*
X257881574Y-106677098D01*
X257959595Y-106865456D01*
X258072863Y-107034974D01*
X258073889Y-107036000D01*
X245839581Y-107036000D01*
X245811135Y-107038802D01*
X245803318Y-107038747D01*
X245794147Y-107039646D01*
X245547644Y-107065554D01*
X245489028Y-107077586D01*
X245430284Y-107088792D01*
X245421462Y-107091456D01*
X245184686Y-107164751D01*
X245129555Y-107187926D01*
X245074080Y-107210339D01*
X245065944Y-107214666D01*
X244847914Y-107332554D01*
X244798346Y-107365988D01*
X244748265Y-107398760D01*
X244741124Y-107404584D01*
X244550144Y-107562577D01*
X244508005Y-107605012D01*
X244465255Y-107646875D01*
X244459381Y-107653976D01*
X244302727Y-107846054D01*
X244269655Y-107895831D01*
X244235826Y-107945237D01*
X244231444Y-107953343D01*
X244115081Y-108172191D01*
X244092298Y-108227468D01*
X244068721Y-108282475D01*
X244065997Y-108291278D01*
X243994357Y-108528559D01*
X243982736Y-108587246D01*
X243970300Y-108645752D01*
X243969337Y-108654917D01*
X243945150Y-108901595D01*
X243942000Y-108933582D01*
X243942001Y-123157711D01*
X243903091Y-123554545D01*
X243797220Y-123905206D01*
X243625257Y-124228623D01*
X243393748Y-124512482D01*
X243111514Y-124745965D01*
X242789304Y-124920184D01*
X242439385Y-125028502D01*
X242044557Y-125070000D01*
X239801355Y-125070000D01*
X239814554Y-125064533D01*
X240442670Y-124644839D01*
X240976839Y-124110670D01*
X241396533Y-123482554D01*
X241685623Y-122784628D01*
X241833000Y-122043715D01*
X241833000Y-121288285D01*
X241685623Y-120547372D01*
X241396533Y-119849446D01*
X240976839Y-119221330D01*
X240442670Y-118687161D01*
X239814554Y-118267467D01*
X239116628Y-117978377D01*
X238375715Y-117831000D01*
X237620285Y-117831000D01*
X236879372Y-117978377D01*
X236181446Y-118267467D01*
X235553330Y-118687161D01*
X235019161Y-119221330D01*
X234599467Y-119849446D01*
X234310377Y-120547372D01*
X234163000Y-121288285D01*
X234163000Y-122043715D01*
X234310377Y-122784628D01*
X234599467Y-123482554D01*
X235019161Y-124110670D01*
X235553330Y-124644839D01*
X236181446Y-125064533D01*
X236194645Y-125070000D01*
X177825355Y-125070000D01*
X177838554Y-125064533D01*
X178466670Y-124644839D01*
X179000839Y-124110670D01*
X179420533Y-123482554D01*
X179709623Y-122784628D01*
X179857000Y-122043715D01*
X179857000Y-121288285D01*
X179709623Y-120547372D01*
X179420533Y-119849446D01*
X179000839Y-119221330D01*
X178466670Y-118687161D01*
X177838554Y-118267467D01*
X177140628Y-117978377D01*
X176399715Y-117831000D01*
X175644285Y-117831000D01*
X174903372Y-117978377D01*
X174205446Y-118267467D01*
X173577330Y-118687161D01*
X173043161Y-119221330D01*
X172623467Y-119849446D01*
X172334377Y-120547372D01*
X172187000Y-121288285D01*
X172187000Y-122043715D01*
X172334377Y-122784628D01*
X172623467Y-123482554D01*
X173043161Y-124110670D01*
X173577330Y-124644839D01*
X174205446Y-125064533D01*
X174218645Y-125070000D01*
X145311904Y-125070000D01*
X145532270Y-124849634D01*
X145817192Y-124423220D01*
X146013449Y-123949413D01*
X146113500Y-123446422D01*
X146113500Y-122933578D01*
X146013449Y-122430587D01*
X145817192Y-121956780D01*
X145532270Y-121530366D01*
X145169634Y-121167730D01*
X144743220Y-120882808D01*
X144269413Y-120686551D01*
X143766422Y-120586500D01*
X143253578Y-120586500D01*
X142750587Y-120686551D01*
X142276780Y-120882808D01*
X141850366Y-121167730D01*
X141758731Y-121259365D01*
X141709830Y-121141309D01*
X141383213Y-120652492D01*
X140967508Y-120236787D01*
X140478691Y-119910170D01*
X139935547Y-119685192D01*
X139358948Y-119570500D01*
X138771052Y-119570500D01*
X138194453Y-119685192D01*
X137747166Y-119870465D01*
X138364631Y-119253000D01*
X146520577Y-119253000D01*
X146558000Y-119256686D01*
X146595423Y-119253000D01*
X146595426Y-119253000D01*
X146707378Y-119241974D01*
X146851015Y-119198402D01*
X146983392Y-119127645D01*
X147099422Y-119032422D01*
X147123284Y-119003346D01*
X150239131Y-115887500D01*
X174651077Y-115887500D01*
X174688500Y-115891186D01*
X174725923Y-115887500D01*
X174725926Y-115887500D01*
X174837878Y-115876474D01*
X174981515Y-115832902D01*
X175113892Y-115762145D01*
X175229922Y-115666922D01*
X175253784Y-115637846D01*
X178058352Y-112833279D01*
X178087422Y-112809422D01*
X178182645Y-112693392D01*
X178253402Y-112561015D01*
X178296974Y-112417378D01*
X178308000Y-112305426D01*
X178308000Y-112305424D01*
X178311686Y-112268001D01*
X178308000Y-112230578D01*
X178308000Y-93660630D01*
X178947351Y-93021279D01*
X178976422Y-92997422D01*
X179003772Y-92964096D01*
X179071645Y-92881393D01*
X179142401Y-92749016D01*
X179142402Y-92749015D01*
X179185974Y-92605378D01*
X179197000Y-92493426D01*
X179197000Y-92493423D01*
X179200686Y-92456000D01*
X179197000Y-92418577D01*
X179197000Y-90703061D01*
X184385000Y-90703061D01*
X184385000Y-90906939D01*
X184424774Y-91106898D01*
X184502795Y-91295256D01*
X184616063Y-91464774D01*
X184658001Y-91506712D01*
X184658000Y-113903089D01*
X184616063Y-113945026D01*
X184502795Y-114114544D01*
X184424774Y-114302902D01*
X184385000Y-114502861D01*
X184385000Y-114706739D01*
X184424774Y-114906698D01*
X184502795Y-115095056D01*
X184616063Y-115264574D01*
X184760226Y-115408737D01*
X184929744Y-115522005D01*
X185118102Y-115600026D01*
X185318061Y-115639800D01*
X185521939Y-115639800D01*
X185721898Y-115600026D01*
X185910256Y-115522005D01*
X186079774Y-115408737D01*
X186223937Y-115264574D01*
X186337205Y-115095056D01*
X186415226Y-114906698D01*
X186455000Y-114706739D01*
X186455000Y-114502861D01*
X186415226Y-114302902D01*
X186337205Y-114114544D01*
X186223937Y-113945026D01*
X186182000Y-113903089D01*
X186182000Y-91506711D01*
X186223937Y-91464774D01*
X186337205Y-91295256D01*
X186415226Y-91106898D01*
X186455000Y-90906939D01*
X186455000Y-90703061D01*
X186415226Y-90503102D01*
X186337205Y-90314744D01*
X186223937Y-90145226D01*
X186079774Y-90001063D01*
X185910256Y-89887795D01*
X185721898Y-89809774D01*
X185521939Y-89770000D01*
X185318061Y-89770000D01*
X185118102Y-89809774D01*
X184929744Y-89887795D01*
X184760226Y-90001063D01*
X184616063Y-90145226D01*
X184502795Y-90314744D01*
X184424774Y-90503102D01*
X184385000Y-90703061D01*
X179197000Y-90703061D01*
X179197000Y-87061711D01*
X179238937Y-87019774D01*
X179352205Y-86850256D01*
X179430226Y-86661898D01*
X179470000Y-86461939D01*
X179470000Y-86258061D01*
X179430226Y-86058102D01*
X179352205Y-85869744D01*
X179238937Y-85700226D01*
X179094774Y-85556063D01*
X178925256Y-85442795D01*
X178736898Y-85364774D01*
X178536939Y-85325000D01*
X178333061Y-85325000D01*
X178133102Y-85364774D01*
X177944744Y-85442795D01*
X177775226Y-85556063D01*
X177631063Y-85700226D01*
X177517795Y-85869744D01*
X177439774Y-86058102D01*
X177400000Y-86258061D01*
X177400000Y-86461939D01*
X177439774Y-86661898D01*
X177517795Y-86850256D01*
X177631063Y-87019774D01*
X177673000Y-87061711D01*
X177673001Y-92140368D01*
X177165000Y-92648369D01*
X176657000Y-92140370D01*
X176657000Y-87061711D01*
X176698937Y-87019774D01*
X176812205Y-86850256D01*
X176890226Y-86661898D01*
X176930000Y-86461939D01*
X176930000Y-86258061D01*
X176890226Y-86058102D01*
X176812205Y-85869744D01*
X176698937Y-85700226D01*
X176554774Y-85556063D01*
X176385256Y-85442795D01*
X176196898Y-85364774D01*
X175996939Y-85325000D01*
X175793061Y-85325000D01*
X175593102Y-85364774D01*
X175404744Y-85442795D01*
X175235226Y-85556063D01*
X175091063Y-85700226D01*
X174977795Y-85869744D01*
X174899774Y-86058102D01*
X174860000Y-86258061D01*
X174860000Y-86461939D01*
X174899774Y-86661898D01*
X174977795Y-86850256D01*
X175091063Y-87019774D01*
X175133000Y-87061711D01*
X175133001Y-92418567D01*
X175129314Y-92456000D01*
X175144027Y-92605378D01*
X175187599Y-92749015D01*
X175258355Y-92881392D01*
X175329721Y-92968351D01*
X175353579Y-92997422D01*
X175382649Y-93021279D01*
X176022000Y-93660631D01*
X176022001Y-111571368D01*
X173991870Y-113601500D01*
X149579923Y-113601500D01*
X149542500Y-113597814D01*
X149505077Y-113601500D01*
X149505074Y-113601500D01*
X149393122Y-113612526D01*
X149249485Y-113656098D01*
X149190558Y-113687595D01*
X149117107Y-113726855D01*
X149034404Y-113794728D01*
X149001078Y-113822078D01*
X148977221Y-113851148D01*
X145861370Y-116967000D01*
X137578423Y-116967000D01*
X137541000Y-116963314D01*
X137503577Y-116967000D01*
X137503574Y-116967000D01*
X137391622Y-116978026D01*
X137247985Y-117021598D01*
X137186364Y-117054535D01*
X137115607Y-117092355D01*
X137073219Y-117127143D01*
X136999578Y-117187578D01*
X136975716Y-117216654D01*
X135574370Y-118618000D01*
X135321707Y-118618000D01*
X135279770Y-118576063D01*
X135110252Y-118462795D01*
X134921894Y-118384774D01*
X134721935Y-118345000D01*
X134518057Y-118345000D01*
X134318098Y-118384774D01*
X134129740Y-118462795D01*
X133960222Y-118576063D01*
X133816059Y-118720226D01*
X133702791Y-118889744D01*
X133624770Y-119078102D01*
X133584996Y-119278061D01*
X133584996Y-119481939D01*
X133624770Y-119681898D01*
X133702791Y-119870256D01*
X133816059Y-120039774D01*
X133960222Y-120183937D01*
X134129740Y-120297205D01*
X134318098Y-120375226D01*
X134518057Y-120415000D01*
X134721935Y-120415000D01*
X134921894Y-120375226D01*
X135110252Y-120297205D01*
X135275740Y-120186630D01*
X134577370Y-120885000D01*
X134518061Y-120885000D01*
X134318102Y-120924774D01*
X134129744Y-121002795D01*
X133960226Y-121116063D01*
X133816063Y-121260226D01*
X133702795Y-121429744D01*
X133624774Y-121618102D01*
X133585000Y-121818061D01*
X133585000Y-122021939D01*
X133624774Y-122221898D01*
X133702795Y-122410256D01*
X133816063Y-122579774D01*
X133960226Y-122723937D01*
X134129744Y-122837205D01*
X134318102Y-122915226D01*
X134518061Y-122955000D01*
X134721939Y-122955000D01*
X134921898Y-122915226D01*
X135110256Y-122837205D01*
X135279774Y-122723937D01*
X135423937Y-122579774D01*
X135537205Y-122410256D01*
X135615226Y-122221898D01*
X135655000Y-122021939D01*
X135655000Y-121962630D01*
X136380465Y-121237165D01*
X136195192Y-121684453D01*
X136080500Y-122261052D01*
X136080500Y-122848948D01*
X136195192Y-123425547D01*
X136420170Y-123968691D01*
X136746787Y-124457508D01*
X137162492Y-124873213D01*
X137457005Y-125070000D01*
X105181355Y-125070000D01*
X105194554Y-125064533D01*
X105822670Y-124644839D01*
X106356839Y-124110670D01*
X106776533Y-123482554D01*
X107065623Y-122784628D01*
X107213000Y-122043715D01*
X107213000Y-121288285D01*
X107065623Y-120547372D01*
X106776533Y-119849446D01*
X106356839Y-119221330D01*
X105822670Y-118687161D01*
X105194554Y-118267467D01*
X104496628Y-117978377D01*
X103755715Y-117831000D01*
X103000285Y-117831000D01*
X102259372Y-117978377D01*
X101561446Y-118267467D01*
X100933330Y-118687161D01*
X100399161Y-119221330D01*
X99979467Y-119849446D01*
X99690377Y-120547372D01*
X99543000Y-121288285D01*
X99543000Y-122043715D01*
X99690377Y-122784628D01*
X99979467Y-123482554D01*
X100399161Y-124110670D01*
X100933330Y-124644839D01*
X101561446Y-125064533D01*
X101574645Y-125070000D01*
X43205355Y-125070000D01*
X43218554Y-125064533D01*
X43846670Y-124644839D01*
X44380839Y-124110670D01*
X44800533Y-123482554D01*
X45089623Y-122784628D01*
X45237000Y-122043715D01*
X45237000Y-121288285D01*
X45089623Y-120547372D01*
X44800533Y-119849446D01*
X44380839Y-119221330D01*
X43846670Y-118687161D01*
X43218554Y-118267467D01*
X42520628Y-117978377D01*
X41779715Y-117831000D01*
X41024285Y-117831000D01*
X40283372Y-117978377D01*
X39585446Y-118267467D01*
X38957330Y-118687161D01*
X38423161Y-119221330D01*
X38003467Y-119849446D01*
X37714377Y-120547372D01*
X37567000Y-121288285D01*
X37567000Y-122043715D01*
X37714377Y-122784628D01*
X38003467Y-123482554D01*
X38423161Y-124110670D01*
X38957330Y-124644839D01*
X39585446Y-125064533D01*
X39598645Y-125070000D01*
X37370279Y-125070000D01*
X36973455Y-125031091D01*
X36622794Y-124925220D01*
X36299377Y-124753257D01*
X36015518Y-124521748D01*
X35782035Y-124239514D01*
X35607816Y-123917304D01*
X35499498Y-123567385D01*
X35458000Y-123172557D01*
X35458000Y-113371052D01*
X136080500Y-113371052D01*
X136080500Y-113958948D01*
X136195192Y-114535547D01*
X136420170Y-115078691D01*
X136746787Y-115567508D01*
X137162492Y-115983213D01*
X137651309Y-116309830D01*
X138194453Y-116534808D01*
X138771052Y-116649500D01*
X139358948Y-116649500D01*
X139935547Y-116534808D01*
X140478691Y-116309830D01*
X140967508Y-115983213D01*
X141383213Y-115567508D01*
X141709830Y-115078691D01*
X141758731Y-114960635D01*
X141850366Y-115052270D01*
X142276780Y-115337192D01*
X142750587Y-115533449D01*
X143253578Y-115633500D01*
X143766422Y-115633500D01*
X144269413Y-115533449D01*
X144743220Y-115337192D01*
X145169634Y-115052270D01*
X145532270Y-114689634D01*
X145817192Y-114263220D01*
X146013449Y-113789413D01*
X146113500Y-113286422D01*
X146113500Y-112773578D01*
X146013449Y-112270587D01*
X145817192Y-111796780D01*
X145532270Y-111370366D01*
X145169634Y-111007730D01*
X144743220Y-110722808D01*
X144269413Y-110526551D01*
X143766422Y-110426500D01*
X143253578Y-110426500D01*
X142750587Y-110526551D01*
X142276780Y-110722808D01*
X141850366Y-111007730D01*
X141487730Y-111370366D01*
X141288802Y-111668081D01*
X140967508Y-111346787D01*
X140478691Y-111020170D01*
X139935547Y-110795192D01*
X139358948Y-110680500D01*
X138771052Y-110680500D01*
X138194453Y-110795192D01*
X137651309Y-111020170D01*
X137162492Y-111346787D01*
X136746787Y-111762492D01*
X136420170Y-112251309D01*
X136195192Y-112794453D01*
X136080500Y-113371052D01*
X35458000Y-113371052D01*
X35458000Y-108933581D01*
X35455198Y-108905135D01*
X35455253Y-108897318D01*
X35454354Y-108888147D01*
X35428446Y-108641644D01*
X35416414Y-108583028D01*
X35405208Y-108524284D01*
X35402544Y-108515462D01*
X35329249Y-108278686D01*
X35306074Y-108223555D01*
X35283661Y-108168080D01*
X35279334Y-108159944D01*
X35161446Y-107941914D01*
X35128012Y-107892346D01*
X35095240Y-107842265D01*
X35089416Y-107835124D01*
X34931423Y-107644144D01*
X34888988Y-107602005D01*
X34847125Y-107559255D01*
X34840024Y-107553381D01*
X34647946Y-107396727D01*
X34598169Y-107363655D01*
X34548763Y-107329826D01*
X34540657Y-107325444D01*
X34321809Y-107209081D01*
X34266532Y-107186298D01*
X34211525Y-107162721D01*
X34202722Y-107159997D01*
X33965441Y-107088357D01*
X33906754Y-107076736D01*
X33848248Y-107064300D01*
X33839085Y-107063337D01*
X33839083Y-107063337D01*
X33592405Y-107039150D01*
X33592402Y-107039150D01*
X33560419Y-107036000D01*
X18440000Y-107036000D01*
X18440000Y-96164000D01*
X19694889Y-96164000D01*
X19693863Y-96165026D01*
X19580595Y-96334544D01*
X19502574Y-96522902D01*
X19462800Y-96722861D01*
X19462800Y-96926739D01*
X19502574Y-97126698D01*
X19545300Y-97229848D01*
X19545301Y-98454406D01*
X19545300Y-98454416D01*
X19545301Y-102769751D01*
X19502574Y-102872902D01*
X19462800Y-103072861D01*
X19462800Y-103276739D01*
X19502574Y-103476698D01*
X19580595Y-103665056D01*
X19693863Y-103834574D01*
X19838026Y-103978737D01*
X20007544Y-104092005D01*
X20110693Y-104134731D01*
X21398397Y-105422436D01*
X21428222Y-105458778D01*
X21573259Y-105577806D01*
X21738731Y-105666252D01*
X21900835Y-105715426D01*
X21918277Y-105720717D01*
X22104999Y-105739108D01*
X22151784Y-105734500D01*
X32367953Y-105734500D01*
X32471102Y-105777226D01*
X32671061Y-105817000D01*
X32874939Y-105817000D01*
X33074898Y-105777226D01*
X33178047Y-105734500D01*
X47607953Y-105734500D01*
X47711102Y-105777226D01*
X47911061Y-105817000D01*
X48114939Y-105817000D01*
X48314898Y-105777226D01*
X48503256Y-105699205D01*
X48672774Y-105585937D01*
X48816937Y-105441774D01*
X48930205Y-105272256D01*
X49008226Y-105083898D01*
X49048000Y-104883939D01*
X49048000Y-104680061D01*
X49008226Y-104480102D01*
X48930205Y-104291744D01*
X48816937Y-104122226D01*
X48672774Y-103978063D01*
X48503256Y-103864795D01*
X48314898Y-103786774D01*
X48114939Y-103747000D01*
X47911061Y-103747000D01*
X47711102Y-103786774D01*
X47607953Y-103829500D01*
X33178047Y-103829500D01*
X33074898Y-103786774D01*
X32874939Y-103747000D01*
X32671061Y-103747000D01*
X32471102Y-103786774D01*
X32367953Y-103829500D01*
X22499539Y-103829500D01*
X21457731Y-102787693D01*
X21450300Y-102769753D01*
X21450300Y-97229847D01*
X21463000Y-97199187D01*
X21510995Y-97315056D01*
X21624263Y-97484574D01*
X21768426Y-97628737D01*
X21937944Y-97742005D01*
X22126302Y-97820026D01*
X22326261Y-97859800D01*
X22385570Y-97859800D01*
X23640916Y-99115146D01*
X23664778Y-99144222D01*
X23721395Y-99190686D01*
X23780807Y-99239445D01*
X23851564Y-99277265D01*
X23913185Y-99310202D01*
X24056822Y-99353774D01*
X24168774Y-99364800D01*
X24168777Y-99364800D01*
X24206200Y-99368486D01*
X24243623Y-99364800D01*
X39611977Y-99364800D01*
X39649400Y-99368486D01*
X39686823Y-99364800D01*
X39686826Y-99364800D01*
X39798778Y-99353774D01*
X39942415Y-99310202D01*
X40074792Y-99239445D01*
X40190822Y-99144222D01*
X40214684Y-99115146D01*
X41787346Y-97542484D01*
X41816422Y-97518622D01*
X41876857Y-97444981D01*
X41911645Y-97402593D01*
X41958434Y-97315056D01*
X41982402Y-97270215D01*
X42025974Y-97126578D01*
X42037000Y-97014626D01*
X42037000Y-97014623D01*
X42040686Y-96977200D01*
X42037000Y-96939777D01*
X42037000Y-79055630D01*
X42860631Y-78232000D01*
X46288295Y-78232000D01*
X46330232Y-78273937D01*
X46499750Y-78387205D01*
X46688108Y-78465226D01*
X46888067Y-78505000D01*
X47091945Y-78505000D01*
X47291904Y-78465226D01*
X47480262Y-78387205D01*
X47649780Y-78273937D01*
X47793943Y-78129774D01*
X47907211Y-77960256D01*
X47985232Y-77771898D01*
X48025006Y-77571939D01*
X48025006Y-77368061D01*
X73895000Y-77368061D01*
X73895000Y-77571939D01*
X73934774Y-77771898D01*
X74012795Y-77960256D01*
X74126063Y-78129774D01*
X74270226Y-78273937D01*
X74439744Y-78387205D01*
X74628102Y-78465226D01*
X74828061Y-78505000D01*
X75031939Y-78505000D01*
X75231898Y-78465226D01*
X75420256Y-78387205D01*
X75589774Y-78273937D01*
X75631711Y-78232000D01*
X76865713Y-78232000D01*
X75849713Y-79248000D01*
X75631711Y-79248000D01*
X75589774Y-79206063D01*
X75420256Y-79092795D01*
X75231898Y-79014774D01*
X75031939Y-78975000D01*
X74828061Y-78975000D01*
X74628102Y-79014774D01*
X74439744Y-79092795D01*
X74270226Y-79206063D01*
X74126063Y-79350226D01*
X74012795Y-79519744D01*
X73934774Y-79708102D01*
X73895000Y-79908061D01*
X73895000Y-80111939D01*
X73934774Y-80311898D01*
X74012795Y-80500256D01*
X74126063Y-80669774D01*
X74270226Y-80813937D01*
X74439744Y-80927205D01*
X74628102Y-81005226D01*
X74828061Y-81045000D01*
X75031939Y-81045000D01*
X75231898Y-81005226D01*
X75420256Y-80927205D01*
X75589774Y-80813937D01*
X75631711Y-80772000D01*
X76127920Y-80772000D01*
X76165343Y-80775686D01*
X76202766Y-80772000D01*
X76202769Y-80772000D01*
X76314721Y-80760974D01*
X76458358Y-80717402D01*
X76590735Y-80646645D01*
X76706765Y-80551422D01*
X76730627Y-80522346D01*
X80925974Y-76327000D01*
X85409370Y-76327000D01*
X90239721Y-81157352D01*
X90263578Y-81186422D01*
X90292648Y-81210279D01*
X90379607Y-81281645D01*
X90450364Y-81319465D01*
X90511985Y-81352402D01*
X90655622Y-81395974D01*
X90767574Y-81407000D01*
X90767577Y-81407000D01*
X90805000Y-81410686D01*
X90842423Y-81407000D01*
X158077577Y-81407000D01*
X158115000Y-81410686D01*
X158152423Y-81407000D01*
X158152426Y-81407000D01*
X158264378Y-81395974D01*
X158408015Y-81352402D01*
X158540392Y-81281645D01*
X158656422Y-81186422D01*
X158680284Y-81157346D01*
X162215561Y-77622069D01*
X170415000Y-77622069D01*
X170415000Y-77825947D01*
X170454774Y-78025906D01*
X170532795Y-78214264D01*
X170646063Y-78383782D01*
X170688000Y-78425719D01*
X170688001Y-79337567D01*
X170684314Y-79375000D01*
X170699027Y-79524378D01*
X170742599Y-79668015D01*
X170813355Y-79800392D01*
X170881150Y-79883000D01*
X170908579Y-79916422D01*
X170937649Y-79940279D01*
X171919715Y-80922345D01*
X171943577Y-80951421D01*
X172009139Y-81005226D01*
X172059606Y-81046644D01*
X172104036Y-81070392D01*
X172191984Y-81117401D01*
X172335621Y-81160973D01*
X172447573Y-81171999D01*
X172447576Y-81171999D01*
X172484999Y-81175685D01*
X172522422Y-81171999D01*
X178519369Y-81171999D01*
X184385000Y-87037630D01*
X184385000Y-87096939D01*
X184424774Y-87296898D01*
X184502795Y-87485256D01*
X184616063Y-87654774D01*
X184760226Y-87798937D01*
X184929744Y-87912205D01*
X185118102Y-87990226D01*
X185318061Y-88030000D01*
X185521939Y-88030000D01*
X185721898Y-87990226D01*
X185910256Y-87912205D01*
X186079774Y-87798937D01*
X186223937Y-87654774D01*
X186337205Y-87485256D01*
X186415226Y-87296898D01*
X186455000Y-87096939D01*
X186455000Y-86893061D01*
X186415226Y-86693102D01*
X186337205Y-86504744D01*
X186240490Y-86360000D01*
X186337205Y-86215256D01*
X186415226Y-86026898D01*
X186455000Y-85826939D01*
X186455000Y-85623061D01*
X186415226Y-85423102D01*
X186337205Y-85234744D01*
X186223937Y-85065226D01*
X186079774Y-84921063D01*
X185910256Y-84807795D01*
X185721898Y-84729774D01*
X185521939Y-84690000D01*
X185462631Y-84690000D01*
X180035267Y-79262637D01*
X180011405Y-79233561D01*
X179895375Y-79138338D01*
X179762998Y-79067581D01*
X179619361Y-79024009D01*
X179507409Y-79012983D01*
X179507406Y-79012983D01*
X179469983Y-79009297D01*
X179432560Y-79012983D01*
X174752000Y-79012983D01*
X174752000Y-78425711D01*
X174793937Y-78383774D01*
X174907205Y-78214256D01*
X174985226Y-78025898D01*
X175025000Y-77825939D01*
X175025000Y-77622061D01*
X174985226Y-77422102D01*
X174907205Y-77233744D01*
X174793937Y-77064226D01*
X174649774Y-76920063D01*
X174480256Y-76806795D01*
X174291898Y-76728774D01*
X174091939Y-76689000D01*
X173888061Y-76689000D01*
X173688102Y-76728774D01*
X173499744Y-76806795D01*
X173330226Y-76920063D01*
X173186063Y-77064226D01*
X173072795Y-77233744D01*
X172994774Y-77422102D01*
X172955000Y-77622061D01*
X172955000Y-77825939D01*
X172994774Y-78025898D01*
X173072795Y-78214256D01*
X173186063Y-78383774D01*
X173228000Y-78425711D01*
X173228001Y-79337551D01*
X173224314Y-79374984D01*
X173239027Y-79524362D01*
X173276532Y-79647999D01*
X172800629Y-79647999D01*
X172212000Y-79059370D01*
X172212000Y-78425719D01*
X172253937Y-78383782D01*
X172367205Y-78214264D01*
X172445226Y-78025906D01*
X172485000Y-77825947D01*
X172485000Y-77622069D01*
X172445226Y-77422110D01*
X172367205Y-77233752D01*
X172253937Y-77064234D01*
X172109774Y-76920071D01*
X171940256Y-76806803D01*
X171751898Y-76728782D01*
X171551939Y-76689008D01*
X171348061Y-76689008D01*
X171148102Y-76728782D01*
X170959744Y-76806803D01*
X170790226Y-76920071D01*
X170646063Y-77064234D01*
X170532795Y-77233752D01*
X170454774Y-77422110D01*
X170415000Y-77622069D01*
X162215561Y-77622069D01*
X163510631Y-76327000D01*
X195264374Y-76327000D01*
X195942000Y-77004626D01*
X195942000Y-77063935D01*
X195981774Y-77263894D01*
X196059795Y-77452252D01*
X196173063Y-77621770D01*
X196317226Y-77765933D01*
X196486744Y-77879201D01*
X196675102Y-77957222D01*
X196875061Y-77996996D01*
X197078939Y-77996996D01*
X197278898Y-77957222D01*
X197467256Y-77879201D01*
X197548497Y-77824918D01*
X197629744Y-77879205D01*
X197818102Y-77957226D01*
X198018061Y-77997000D01*
X198221939Y-77997000D01*
X198421898Y-77957226D01*
X198610256Y-77879205D01*
X198779774Y-77765937D01*
X198923937Y-77621774D01*
X199037205Y-77452256D01*
X199115226Y-77263898D01*
X199155000Y-77063939D01*
X199155000Y-76860061D01*
X199115226Y-76660102D01*
X199037205Y-76471744D01*
X198923937Y-76302226D01*
X198779774Y-76158063D01*
X198610256Y-76044795D01*
X198421898Y-75966774D01*
X198221939Y-75927000D01*
X198162631Y-75927000D01*
X196526284Y-74290654D01*
X196502422Y-74261578D01*
X196386392Y-74166355D01*
X196254015Y-74095598D01*
X196110378Y-74052026D01*
X195998426Y-74041000D01*
X195998423Y-74041000D01*
X195961000Y-74037314D01*
X195923577Y-74041000D01*
X162724422Y-74041000D01*
X162686999Y-74037314D01*
X162649576Y-74041000D01*
X162649574Y-74041000D01*
X162537622Y-74052026D01*
X162393985Y-74095598D01*
X162261608Y-74166355D01*
X162145578Y-74261578D01*
X162121721Y-74290648D01*
X157164370Y-79248000D01*
X91759164Y-79248000D01*
X86928817Y-74417654D01*
X86904955Y-74388578D01*
X86788925Y-74293355D01*
X86656548Y-74222598D01*
X86512911Y-74179026D01*
X86400959Y-74168000D01*
X86400956Y-74168000D01*
X86363533Y-74164314D01*
X86326110Y-74168000D01*
X80047422Y-74168000D01*
X80009999Y-74164314D01*
X79972576Y-74168000D01*
X79972574Y-74168000D01*
X79860622Y-74179026D01*
X79716985Y-74222598D01*
X79584608Y-74293355D01*
X79468578Y-74388578D01*
X79444721Y-74417648D01*
X77154370Y-76708000D01*
X75631711Y-76708000D01*
X75589774Y-76666063D01*
X75420256Y-76552795D01*
X75231898Y-76474774D01*
X75031939Y-76435000D01*
X74828061Y-76435000D01*
X74628102Y-76474774D01*
X74439744Y-76552795D01*
X74270226Y-76666063D01*
X74126063Y-76810226D01*
X74012795Y-76979744D01*
X73934774Y-77168102D01*
X73895000Y-77368061D01*
X48025006Y-77368061D01*
X47985232Y-77168102D01*
X47907211Y-76979744D01*
X47793943Y-76810226D01*
X47649780Y-76666063D01*
X47480262Y-76552795D01*
X47291904Y-76474774D01*
X47091945Y-76435000D01*
X46888067Y-76435000D01*
X46688108Y-76474774D01*
X46499750Y-76552795D01*
X46330232Y-76666063D01*
X46288295Y-76708000D01*
X42582422Y-76708000D01*
X42544999Y-76704314D01*
X42507576Y-76708000D01*
X42507574Y-76708000D01*
X42395622Y-76719026D01*
X42251985Y-76762598D01*
X42119608Y-76833355D01*
X42003578Y-76928578D01*
X41979721Y-76957648D01*
X40762654Y-78174716D01*
X40733578Y-78198578D01*
X40706150Y-78232000D01*
X40638355Y-78314608D01*
X40601386Y-78383774D01*
X40567598Y-78446986D01*
X40524026Y-78590623D01*
X40516445Y-78667599D01*
X40509314Y-78740000D01*
X40513000Y-78777423D01*
X40513001Y-96661569D01*
X39333770Y-97840800D01*
X24521830Y-97840800D01*
X23463200Y-96782170D01*
X23463200Y-96722861D01*
X23423426Y-96522902D01*
X23345405Y-96334544D01*
X23232137Y-96165026D01*
X23231111Y-96164000D01*
X33560419Y-96164000D01*
X33588865Y-96161198D01*
X33596682Y-96161253D01*
X33605853Y-96160354D01*
X33852357Y-96134446D01*
X33910986Y-96122411D01*
X33969716Y-96111208D01*
X33978532Y-96108546D01*
X33978536Y-96108545D01*
X33978539Y-96108544D01*
X34215314Y-96035249D01*
X34270457Y-96012069D01*
X34325920Y-95989661D01*
X34334054Y-95985335D01*
X34334059Y-95985333D01*
X34334064Y-95985330D01*
X34552086Y-95867447D01*
X34601654Y-95834012D01*
X34651735Y-95801241D01*
X34658876Y-95795416D01*
X34849856Y-95637423D01*
X34891995Y-95594988D01*
X34934745Y-95553125D01*
X34940618Y-95546024D01*
X35097273Y-95353947D01*
X35130374Y-95304125D01*
X35164173Y-95254763D01*
X35168556Y-95246657D01*
X35284919Y-95027809D01*
X35307707Y-94972521D01*
X35331279Y-94917525D01*
X35334003Y-94908722D01*
X35405643Y-94671441D01*
X35417264Y-94612754D01*
X35429700Y-94554248D01*
X35430663Y-94545083D01*
X35454850Y-94298405D01*
X35454850Y-94298402D01*
X35458000Y-94266419D01*
X35458000Y-72933319D01*
X135526286Y-72933319D01*
X136128018Y-73712478D01*
X137197949Y-74310718D01*
X138364033Y-74688730D01*
X139581457Y-74831987D01*
X140803437Y-74734983D01*
X141983012Y-74401447D01*
X143074852Y-73844196D01*
X143271982Y-73712478D01*
X143873714Y-72933319D01*
X139700000Y-68759605D01*
X135526286Y-72933319D01*
X35458000Y-72933319D01*
X35458000Y-68367357D01*
X130556000Y-68367357D01*
X130556000Y-68792643D01*
X130638970Y-69209757D01*
X130801719Y-69602670D01*
X131037996Y-69956282D01*
X131338718Y-70257004D01*
X131692330Y-70493281D01*
X132085243Y-70656030D01*
X132502357Y-70739000D01*
X132927643Y-70739000D01*
X133344757Y-70656030D01*
X133737670Y-70493281D01*
X133768234Y-70472859D01*
X133878553Y-70863012D01*
X134435804Y-71954852D01*
X134567522Y-72151982D01*
X135346681Y-72753714D01*
X139520395Y-68580000D01*
X139879605Y-68580000D01*
X144053319Y-72753714D01*
X144656274Y-72288061D01*
X166351000Y-72288061D01*
X166351000Y-72491939D01*
X166390774Y-72691898D01*
X166468795Y-72880256D01*
X166582063Y-73049774D01*
X166726226Y-73193937D01*
X166895744Y-73307205D01*
X167084102Y-73385226D01*
X167284061Y-73425000D01*
X167487939Y-73425000D01*
X167687898Y-73385226D01*
X167876256Y-73307205D01*
X168045774Y-73193937D01*
X168087711Y-73152000D01*
X178368289Y-73152000D01*
X178410226Y-73193937D01*
X178579744Y-73307205D01*
X178768102Y-73385226D01*
X178968061Y-73425000D01*
X179171939Y-73425000D01*
X179371898Y-73385226D01*
X179560256Y-73307205D01*
X179729774Y-73193937D01*
X179771711Y-73152000D01*
X203265370Y-73152000D01*
X204216000Y-74102631D01*
X204216001Y-79567368D01*
X203265370Y-80518000D01*
X190058711Y-80518000D01*
X190016774Y-80476063D01*
X189847256Y-80362795D01*
X189658898Y-80284774D01*
X189458939Y-80245000D01*
X189255061Y-80245000D01*
X189055102Y-80284774D01*
X188866744Y-80362795D01*
X188697226Y-80476063D01*
X188553063Y-80620226D01*
X188439795Y-80789744D01*
X188361774Y-80978102D01*
X188322000Y-81178061D01*
X188322000Y-81381939D01*
X188361774Y-81581898D01*
X188439795Y-81770256D01*
X188553063Y-81939774D01*
X188697226Y-82083937D01*
X188866744Y-82197205D01*
X189055102Y-82275226D01*
X189255061Y-82315000D01*
X189458939Y-82315000D01*
X189658898Y-82275226D01*
X189847256Y-82197205D01*
X190016774Y-82083937D01*
X190058711Y-82042000D01*
X203543577Y-82042000D01*
X203581000Y-82045686D01*
X203618423Y-82042000D01*
X203618426Y-82042000D01*
X203730378Y-82030974D01*
X203874015Y-81987402D01*
X204006392Y-81916645D01*
X204122422Y-81821422D01*
X204146284Y-81792346D01*
X205490352Y-80448279D01*
X205519422Y-80424422D01*
X205614645Y-80308392D01*
X205685402Y-80176015D01*
X205728974Y-80032378D01*
X205740000Y-79920426D01*
X205740000Y-79920424D01*
X205743686Y-79883001D01*
X205740000Y-79845578D01*
X205740000Y-73824422D01*
X205743686Y-73786999D01*
X205736346Y-73712478D01*
X205728974Y-73637622D01*
X205685402Y-73493985D01*
X205614645Y-73361608D01*
X205519422Y-73245578D01*
X205490353Y-73221722D01*
X204343000Y-72074370D01*
X204343000Y-69789711D01*
X204384937Y-69747774D01*
X204498205Y-69578256D01*
X204576226Y-69389898D01*
X204616000Y-69189939D01*
X204616000Y-68986061D01*
X204576226Y-68786102D01*
X204498205Y-68597744D01*
X204384937Y-68428226D01*
X204324774Y-68368063D01*
X204394304Y-68396863D01*
X204612675Y-68440300D01*
X204835325Y-68440300D01*
X205053696Y-68396863D01*
X205259398Y-68311659D01*
X205444524Y-68187961D01*
X205601961Y-68030524D01*
X205725659Y-67845398D01*
X205740000Y-67810776D01*
X205754341Y-67845398D01*
X205878039Y-68030524D01*
X206035476Y-68187961D01*
X206220602Y-68311659D01*
X206426304Y-68396863D01*
X206644675Y-68440300D01*
X206867325Y-68440300D01*
X207085696Y-68396863D01*
X207291398Y-68311659D01*
X207476524Y-68187961D01*
X207633961Y-68030524D01*
X207757659Y-67845398D01*
X207842863Y-67639696D01*
X207886300Y-67421325D01*
X207886300Y-67198675D01*
X207883435Y-67184272D01*
X208100504Y-67227450D01*
X208459496Y-67227450D01*
X208811589Y-67157414D01*
X209143254Y-67020034D01*
X209441744Y-66820589D01*
X209695589Y-66566744D01*
X209895034Y-66268254D01*
X210032414Y-65936589D01*
X210102450Y-65584496D01*
X210102450Y-65225504D01*
X210032414Y-64873411D01*
X209895034Y-64541746D01*
X209695589Y-64243256D01*
X209441744Y-63989411D01*
X209184461Y-63817500D01*
X209441744Y-63645589D01*
X209695589Y-63391744D01*
X209895034Y-63093254D01*
X210032414Y-62761589D01*
X210102450Y-62409496D01*
X210102450Y-62050504D01*
X210032414Y-61698411D01*
X209895034Y-61366746D01*
X209695589Y-61068256D01*
X209441744Y-60814411D01*
X209143254Y-60614966D01*
X208811589Y-60477586D01*
X208459496Y-60407550D01*
X208100504Y-60407550D01*
X207748411Y-60477586D01*
X207416746Y-60614966D01*
X207118256Y-60814411D01*
X206864411Y-61068256D01*
X206664966Y-61366746D01*
X206609394Y-61500909D01*
X206460524Y-61352039D01*
X206275398Y-61228341D01*
X206069696Y-61143137D01*
X205851325Y-61099700D01*
X205628675Y-61099700D01*
X205410304Y-61143137D01*
X205204602Y-61228341D01*
X205019476Y-61352039D01*
X204870606Y-61500909D01*
X204815034Y-61366746D01*
X204615589Y-61068256D01*
X204361744Y-60814411D01*
X204063254Y-60614966D01*
X203731589Y-60477586D01*
X203379496Y-60407550D01*
X203020504Y-60407550D01*
X202668411Y-60477586D01*
X202336746Y-60614966D01*
X202038256Y-60814411D01*
X201784411Y-61068256D01*
X201584966Y-61366746D01*
X201447586Y-61698411D01*
X201377550Y-62050504D01*
X201377550Y-62409496D01*
X201447586Y-62761589D01*
X201584966Y-63093254D01*
X201784411Y-63391744D01*
X202038256Y-63645589D01*
X202295539Y-63817500D01*
X202038256Y-63989411D01*
X201784411Y-64243256D01*
X201584966Y-64541746D01*
X201447586Y-64873411D01*
X201377550Y-65225504D01*
X201377550Y-65584496D01*
X201447586Y-65936589D01*
X201584966Y-66268254D01*
X201784411Y-66566744D01*
X202038256Y-66820589D01*
X202336746Y-67020034D01*
X202668411Y-67157414D01*
X203020504Y-67227450D01*
X203379496Y-67227450D01*
X203596565Y-67184272D01*
X203593700Y-67198675D01*
X203593700Y-67421325D01*
X203637137Y-67639696D01*
X203722341Y-67845398D01*
X203846039Y-68030524D01*
X203926243Y-68110728D01*
X203882898Y-68092774D01*
X203682939Y-68053000D01*
X203479061Y-68053000D01*
X203279102Y-68092774D01*
X203090744Y-68170795D01*
X202921226Y-68284063D01*
X202777063Y-68428226D01*
X202663795Y-68597744D01*
X202585774Y-68786102D01*
X202546000Y-68986061D01*
X202546000Y-69189939D01*
X202585774Y-69389898D01*
X202663795Y-69578256D01*
X202777063Y-69747774D01*
X202819001Y-69789712D01*
X202819000Y-71628000D01*
X179771711Y-71628000D01*
X179729774Y-71586063D01*
X179560256Y-71472795D01*
X179371898Y-71394774D01*
X179171939Y-71355000D01*
X178968061Y-71355000D01*
X178768102Y-71394774D01*
X178579744Y-71472795D01*
X178410226Y-71586063D01*
X178368289Y-71628000D01*
X168087711Y-71628000D01*
X168045774Y-71586063D01*
X167876256Y-71472795D01*
X167687898Y-71394774D01*
X167487939Y-71355000D01*
X167284061Y-71355000D01*
X167084102Y-71394774D01*
X166895744Y-71472795D01*
X166726226Y-71586063D01*
X166582063Y-71730226D01*
X166468795Y-71899744D01*
X166390774Y-72088102D01*
X166351000Y-72288061D01*
X144656274Y-72288061D01*
X144832478Y-72151982D01*
X145430718Y-71082051D01*
X145798654Y-69947048D01*
X145815478Y-69992860D01*
X146107821Y-70135348D01*
X146422344Y-70218064D01*
X146746962Y-70237831D01*
X147069198Y-70193888D01*
X147376670Y-70087924D01*
X147554522Y-69992860D01*
X147652218Y-69726823D01*
X146685000Y-68759605D01*
X146670858Y-68773748D01*
X146491253Y-68594143D01*
X146505395Y-68580000D01*
X146864605Y-68580000D01*
X147831823Y-69547218D01*
X148097860Y-69449522D01*
X148240348Y-69157179D01*
X148251949Y-69113065D01*
X150095000Y-69113065D01*
X150095000Y-69316943D01*
X150134774Y-69516902D01*
X150212795Y-69705260D01*
X150267079Y-69786502D01*
X150212795Y-69867744D01*
X150134774Y-70056102D01*
X150095000Y-70256061D01*
X150095000Y-70459939D01*
X150134774Y-70659898D01*
X150212795Y-70848256D01*
X150326063Y-71017774D01*
X150470226Y-71161937D01*
X150639744Y-71275205D01*
X150828102Y-71353226D01*
X151028061Y-71393000D01*
X151231939Y-71393000D01*
X151327459Y-71374000D01*
X152223098Y-71374000D01*
X152273000Y-71378915D01*
X152322902Y-71374000D01*
X152472171Y-71359298D01*
X152663687Y-71301202D01*
X152840190Y-71206860D01*
X152994896Y-71079896D01*
X153026712Y-71041128D01*
X155614841Y-68453000D01*
X156184085Y-68453000D01*
X156140857Y-68476106D01*
X156024827Y-68571329D01*
X156000965Y-68600405D01*
X155605648Y-68995722D01*
X155576578Y-69019579D01*
X155552721Y-69048649D01*
X155552720Y-69048650D01*
X155481354Y-69135609D01*
X155451728Y-69191037D01*
X155410598Y-69267986D01*
X155367026Y-69411623D01*
X155356657Y-69516902D01*
X155352313Y-69561001D01*
X155355999Y-69598424D01*
X155355999Y-70355576D01*
X155352313Y-70392999D01*
X155355999Y-70430422D01*
X155355999Y-70430424D01*
X155367025Y-70542376D01*
X155410597Y-70686013D01*
X155410598Y-70686014D01*
X155481354Y-70818391D01*
X155503377Y-70845226D01*
X155576577Y-70934421D01*
X155605653Y-70958283D01*
X155810000Y-71162630D01*
X155810000Y-71221939D01*
X155849774Y-71421898D01*
X155927795Y-71610256D01*
X156041063Y-71779774D01*
X156185226Y-71923937D01*
X156354744Y-72037205D01*
X156543102Y-72115226D01*
X156743061Y-72155000D01*
X156946939Y-72155000D01*
X157146898Y-72115226D01*
X157335256Y-72037205D01*
X157504774Y-71923937D01*
X157648937Y-71779774D01*
X157762205Y-71610256D01*
X157840226Y-71421898D01*
X157880000Y-71221939D01*
X157880000Y-71018061D01*
X157840226Y-70818102D01*
X157792967Y-70704010D01*
X157891380Y-70704010D01*
X158350000Y-71162631D01*
X158350000Y-71221939D01*
X158389774Y-71421898D01*
X158467795Y-71610256D01*
X158581063Y-71779774D01*
X158725226Y-71923937D01*
X158894744Y-72037205D01*
X159083102Y-72115226D01*
X159283061Y-72155000D01*
X159486939Y-72155000D01*
X159686898Y-72115226D01*
X159875256Y-72037205D01*
X160044774Y-71923937D01*
X160188937Y-71779774D01*
X160302205Y-71610256D01*
X160380226Y-71421898D01*
X160420000Y-71221939D01*
X160420000Y-71018061D01*
X160380226Y-70818102D01*
X160302205Y-70629744D01*
X160205490Y-70485000D01*
X160302205Y-70340256D01*
X160380226Y-70151898D01*
X160420000Y-69951939D01*
X160420000Y-69748061D01*
X160380226Y-69548102D01*
X160302205Y-69359744D01*
X160188937Y-69190226D01*
X160044774Y-69046063D01*
X159875256Y-68932795D01*
X159686898Y-68854774D01*
X159486939Y-68815000D01*
X159427630Y-68815000D01*
X159213035Y-68600405D01*
X159189173Y-68571329D01*
X159073143Y-68476106D01*
X159029915Y-68453000D01*
X159472160Y-68453000D01*
X162060306Y-71041147D01*
X162092118Y-71079910D01*
X162130879Y-71111720D01*
X162246824Y-71206874D01*
X162423327Y-71301216D01*
X162614843Y-71359312D01*
X162814014Y-71378929D01*
X162863916Y-71374014D01*
X163632611Y-71374014D01*
X163728061Y-71393000D01*
X163931939Y-71393000D01*
X164131898Y-71353226D01*
X164320256Y-71275205D01*
X164489774Y-71161937D01*
X164633937Y-71017774D01*
X164747205Y-70848256D01*
X164825226Y-70659898D01*
X164865000Y-70459939D01*
X164865000Y-70256061D01*
X187560000Y-70256061D01*
X187560000Y-70459939D01*
X187599774Y-70659898D01*
X187677795Y-70848256D01*
X187791063Y-71017774D01*
X187935226Y-71161937D01*
X188104744Y-71275205D01*
X188293102Y-71353226D01*
X188493061Y-71393000D01*
X188696939Y-71393000D01*
X188896898Y-71353226D01*
X189085256Y-71275205D01*
X189254774Y-71161937D01*
X189296711Y-71120000D01*
X192338289Y-71120000D01*
X192380226Y-71161937D01*
X192549744Y-71275205D01*
X192738102Y-71353226D01*
X192938061Y-71393000D01*
X193141939Y-71393000D01*
X193341898Y-71353226D01*
X193530256Y-71275205D01*
X193699774Y-71161937D01*
X193843937Y-71017774D01*
X193957205Y-70848256D01*
X194035226Y-70659898D01*
X194075000Y-70459939D01*
X194075000Y-70256061D01*
X194035226Y-70056102D01*
X193957205Y-69867744D01*
X193843937Y-69698226D01*
X193699774Y-69554063D01*
X193530256Y-69440795D01*
X193341898Y-69362774D01*
X193141939Y-69323000D01*
X192938061Y-69323000D01*
X192738102Y-69362774D01*
X192549744Y-69440795D01*
X192380226Y-69554063D01*
X192338289Y-69596000D01*
X189296711Y-69596000D01*
X189254774Y-69554063D01*
X189085256Y-69440795D01*
X188896898Y-69362774D01*
X188696939Y-69323000D01*
X188493061Y-69323000D01*
X188293102Y-69362774D01*
X188104744Y-69440795D01*
X187935226Y-69554063D01*
X187791063Y-69698226D01*
X187677795Y-69867744D01*
X187599774Y-70056102D01*
X187560000Y-70256061D01*
X164865000Y-70256061D01*
X164825226Y-70056102D01*
X164747205Y-69867744D01*
X164650490Y-69723000D01*
X164747205Y-69578256D01*
X164825226Y-69389898D01*
X164865000Y-69189939D01*
X164865000Y-68986061D01*
X164825226Y-68786102D01*
X164747205Y-68597744D01*
X164633937Y-68428226D01*
X164489774Y-68284063D01*
X164320256Y-68170795D01*
X164131898Y-68092774D01*
X163931939Y-68053000D01*
X163728061Y-68053000D01*
X163632541Y-68072000D01*
X163488841Y-68072000D01*
X161587325Y-66170485D01*
X161616964Y-66150681D01*
X161750681Y-66016964D01*
X161855741Y-65859731D01*
X161928108Y-65685022D01*
X161965000Y-65499552D01*
X161965000Y-65310448D01*
X161928108Y-65124978D01*
X161855741Y-64950269D01*
X161750681Y-64793036D01*
X161616964Y-64659319D01*
X161459731Y-64554259D01*
X161285022Y-64481892D01*
X161099552Y-64445000D01*
X160910448Y-64445000D01*
X160724978Y-64481892D01*
X160550269Y-64554259D01*
X160393036Y-64659319D01*
X160259319Y-64793036D01*
X160154259Y-64950269D01*
X160081892Y-65124978D01*
X160045000Y-65310448D01*
X160045000Y-65405000D01*
X156185000Y-65405000D01*
X156185000Y-65310448D01*
X156148108Y-65124978D01*
X156075741Y-64950269D01*
X155970681Y-64793036D01*
X155836964Y-64659319D01*
X155679731Y-64554259D01*
X155505022Y-64481892D01*
X155319552Y-64445000D01*
X155130448Y-64445000D01*
X154944978Y-64481892D01*
X154770269Y-64554259D01*
X154613036Y-64659319D01*
X154479319Y-64793036D01*
X154374259Y-64950269D01*
X154301892Y-65124978D01*
X154265000Y-65310448D01*
X154265000Y-65499552D01*
X154276207Y-65555893D01*
X154245810Y-65572140D01*
X154091104Y-65699104D01*
X154059292Y-65737867D01*
X151598156Y-68199004D01*
X151327459Y-68199004D01*
X151231939Y-68180004D01*
X151028061Y-68180004D01*
X150828102Y-68219778D01*
X150639744Y-68297799D01*
X150470226Y-68411067D01*
X150326063Y-68555230D01*
X150212795Y-68724748D01*
X150134774Y-68913106D01*
X150095000Y-69113065D01*
X148251949Y-69113065D01*
X148323064Y-68842656D01*
X148342831Y-68518038D01*
X148298888Y-68195802D01*
X148192924Y-67888330D01*
X148097860Y-67710478D01*
X147831823Y-67612782D01*
X146864605Y-68580000D01*
X146505395Y-68580000D01*
X146491253Y-68565858D01*
X146670858Y-68386253D01*
X146685000Y-68400395D01*
X147652218Y-67433177D01*
X147554522Y-67167140D01*
X147262179Y-67024652D01*
X146947656Y-66941936D01*
X146623038Y-66922169D01*
X146300802Y-66966112D01*
X145993330Y-67072076D01*
X145815478Y-67167140D01*
X145788366Y-67240968D01*
X145521447Y-66296988D01*
X144964196Y-65205148D01*
X144832478Y-65008018D01*
X144053319Y-64406286D01*
X139879605Y-68580000D01*
X139520395Y-68580000D01*
X135346681Y-64406286D01*
X134567522Y-65008018D01*
X133969282Y-66077949D01*
X133771164Y-66689099D01*
X133737670Y-66666719D01*
X133344757Y-66503970D01*
X132927643Y-66421000D01*
X132502357Y-66421000D01*
X132085243Y-66503970D01*
X131692330Y-66666719D01*
X131338718Y-66902996D01*
X131037996Y-67203718D01*
X130801719Y-67557330D01*
X130638970Y-67950243D01*
X130556000Y-68367357D01*
X35458000Y-68367357D01*
X35458000Y-62008279D01*
X35496909Y-61611455D01*
X35602780Y-61260792D01*
X35774744Y-60937375D01*
X36006254Y-60653516D01*
X36288486Y-60420035D01*
X36610695Y-60245817D01*
X36960614Y-60137498D01*
X37355443Y-60096000D01*
X39598645Y-60096000D01*
X39585446Y-60101467D01*
%TA.AperFunction,Conductor*%
D19*
G36*
X39585446Y-60101467D02*
G01*
X38957330Y-60521161D01*
X38423161Y-61055330D01*
X38003467Y-61683446D01*
X37714377Y-62381372D01*
X37567000Y-63122285D01*
X37567000Y-63877715D01*
X37714377Y-64618628D01*
X38003467Y-65316554D01*
X38423161Y-65944670D01*
X38957330Y-66478839D01*
X39585446Y-66898533D01*
X40283372Y-67187623D01*
X41024285Y-67335000D01*
X41779715Y-67335000D01*
X42520628Y-67187623D01*
X43218554Y-66898533D01*
X43846670Y-66478839D01*
X44380839Y-65944670D01*
X44800533Y-65316554D01*
X45089623Y-64618628D01*
X45237000Y-63877715D01*
X45237000Y-63122285D01*
X45089623Y-62381372D01*
X44800533Y-61683446D01*
X44380839Y-61055330D01*
X43846670Y-60521161D01*
X43218554Y-60101467D01*
X43205355Y-60096000D01*
X88874645Y-60096000D01*
X88861446Y-60101467D01*
X88233330Y-60521161D01*
X87699161Y-61055330D01*
X87279467Y-61683446D01*
X86990377Y-62381372D01*
X86843000Y-63122285D01*
X86843000Y-63877715D01*
X86990377Y-64618628D01*
X87279467Y-65316554D01*
X87699161Y-65944670D01*
X88233330Y-66478839D01*
X88861446Y-66898533D01*
X89559372Y-67187623D01*
X90300285Y-67335000D01*
X91055715Y-67335000D01*
X91796628Y-67187623D01*
X92494554Y-66898533D01*
X93092772Y-66498816D01*
X117210000Y-66498816D01*
X117210000Y-66801184D01*
X117268989Y-67097743D01*
X117384701Y-67377095D01*
X117552688Y-67628505D01*
X117766495Y-67842312D01*
X118017905Y-68010299D01*
X118297257Y-68126011D01*
X118593816Y-68185000D01*
X118896184Y-68185000D01*
X119192743Y-68126011D01*
X119472095Y-68010299D01*
X119723505Y-67842312D01*
X119937312Y-67628505D01*
X120105299Y-67377095D01*
X120221011Y-67097743D01*
X120280000Y-66801184D01*
X120280000Y-66498816D01*
X120221011Y-66202257D01*
X120105299Y-65922905D01*
X119937312Y-65671495D01*
X119723505Y-65457688D01*
X119472095Y-65289701D01*
X119192743Y-65173989D01*
X118896184Y-65115000D01*
X118593816Y-65115000D01*
X118297257Y-65173989D01*
X118017905Y-65289701D01*
X117766495Y-65457688D01*
X117552688Y-65671495D01*
X117384701Y-65922905D01*
X117268989Y-66202257D01*
X117210000Y-66498816D01*
X93092772Y-66498816D01*
X93122670Y-66478839D01*
X93656839Y-65944670D01*
X94076533Y-65316554D01*
X94365623Y-64618628D01*
X94443586Y-64226681D01*
X135526286Y-64226681D01*
X139700000Y-68400395D01*
X143873714Y-64226681D01*
X143271982Y-63447522D01*
X142202051Y-62849282D01*
X141035967Y-62471270D01*
X139818543Y-62328013D01*
X138596563Y-62425017D01*
X137416988Y-62758553D01*
X136325148Y-63315804D01*
X136128018Y-63447522D01*
X135526286Y-64226681D01*
X94443586Y-64226681D01*
X94513000Y-63877715D01*
X94513000Y-63122285D01*
X94365623Y-62381372D01*
X94211243Y-62008665D01*
X117310000Y-62008665D01*
X117310000Y-62291335D01*
X117365147Y-62568574D01*
X117473320Y-62829727D01*
X117630363Y-63064759D01*
X117830241Y-63264637D01*
X118065273Y-63421680D01*
X118326426Y-63529853D01*
X118603665Y-63585000D01*
X118886335Y-63585000D01*
X119163574Y-63529853D01*
X119424727Y-63421680D01*
X119659759Y-63264637D01*
X119859637Y-63064759D01*
X120016680Y-62829727D01*
X120124853Y-62568574D01*
X120180000Y-62291335D01*
X120180000Y-62008665D01*
X120124853Y-61731426D01*
X120016680Y-61470273D01*
X119859637Y-61235241D01*
X119659759Y-61035363D01*
X119424727Y-60878320D01*
X119163574Y-60770147D01*
X118886335Y-60715000D01*
X118603665Y-60715000D01*
X118326426Y-60770147D01*
X118065273Y-60878320D01*
X117830241Y-61035363D01*
X117630363Y-61235241D01*
X117473320Y-61470273D01*
X117365147Y-61731426D01*
X117310000Y-62008665D01*
X94211243Y-62008665D01*
X94076533Y-61683446D01*
X93656839Y-61055330D01*
X93122670Y-60521161D01*
X92494554Y-60101467D01*
X92481355Y-60096000D01*
X186918645Y-60096000D01*
X186905446Y-60101467D01*
X186277330Y-60521161D01*
X185743161Y-61055330D01*
X185323467Y-61683446D01*
X185034377Y-62381372D01*
X184887000Y-63122285D01*
X184887000Y-63877715D01*
X185034377Y-64618628D01*
X185323467Y-65316554D01*
X185743161Y-65944670D01*
X186277330Y-66478839D01*
X186905446Y-66898533D01*
X187603372Y-67187623D01*
X188344285Y-67335000D01*
X189099715Y-67335000D01*
X189840628Y-67187623D01*
X190538554Y-66898533D01*
X191166670Y-66478839D01*
X191700839Y-65944670D01*
X192120533Y-65316554D01*
X192409623Y-64618628D01*
X192557000Y-63877715D01*
X192557000Y-63122285D01*
X192409623Y-62381372D01*
X192120533Y-61683446D01*
X191700839Y-61055330D01*
X191166670Y-60521161D01*
X190538554Y-60101467D01*
X190525355Y-60096000D01*
X236194645Y-60096000D01*
X236181446Y-60101467D01*
X235553330Y-60521161D01*
X235019161Y-61055330D01*
X234599467Y-61683446D01*
X234310377Y-62381372D01*
X234163000Y-63122285D01*
X234163000Y-63877715D01*
X234310377Y-64618628D01*
X234599467Y-65316554D01*
X235019161Y-65944670D01*
X235553330Y-66478839D01*
X236181446Y-66898533D01*
X236879372Y-67187623D01*
X237620285Y-67335000D01*
X238375715Y-67335000D01*
X239116628Y-67187623D01*
X239814554Y-66898533D01*
X240442670Y-66478839D01*
X240976839Y-65944670D01*
X241396533Y-65316554D01*
X241685623Y-64618628D01*
X241833000Y-63877715D01*
X241833000Y-63122285D01*
X241685623Y-62381372D01*
X241396533Y-61683446D01*
X240976839Y-61055330D01*
X240442670Y-60521161D01*
X239814554Y-60101467D01*
X239801355Y-60096000D01*
X242029721Y-60096000D01*
X242426545Y-60134909D01*
X242777208Y-60240780D01*
X243100625Y-60412744D01*
X243384484Y-60644254D01*
X243617965Y-60926486D01*
X243792183Y-61248695D01*
X243900502Y-61598614D01*
X243942001Y-61993452D01*
X243942000Y-94266418D01*
X243944802Y-94294864D01*
X243944747Y-94302682D01*
X243945646Y-94311853D01*
X243971554Y-94558357D01*
X243983589Y-94616986D01*
X243994792Y-94675716D01*
X243997456Y-94684538D01*
X244070751Y-94921314D01*
X244093931Y-94976457D01*
X244116339Y-95031920D01*
X244120665Y-95040054D01*
X244120667Y-95040059D01*
X244120670Y-95040064D01*
X244238553Y-95258086D01*
X244271988Y-95307654D01*
X244304759Y-95357735D01*
X244310584Y-95364876D01*
X244468577Y-95555856D01*
X244511012Y-95597995D01*
X244552875Y-95640745D01*
X244559976Y-95646618D01*
X244752053Y-95803273D01*
X244801875Y-95836374D01*
X244851237Y-95870173D01*
X244859343Y-95874556D01*
X245078191Y-95990919D01*
X245133479Y-96013707D01*
X245188475Y-96037279D01*
X245197278Y-96040003D01*
X245434559Y-96111643D01*
X245493246Y-96123264D01*
X245551752Y-96135700D01*
X245560915Y-96136663D01*
X245560917Y-96136663D01*
X245807595Y-96160850D01*
X245807598Y-96160850D01*
X245839581Y-96164000D01*
X258099289Y-96164000D01*
X258098263Y-96165026D01*
X257984995Y-96334544D01*
X257906974Y-96522902D01*
X257867200Y-96722861D01*
X257867200Y-96782170D01*
X256986370Y-97663000D01*
X244816031Y-97663000D01*
X243357400Y-96204370D01*
X243357400Y-88357111D01*
X243399337Y-88315174D01*
X243512605Y-88145656D01*
X243590626Y-87957298D01*
X243630400Y-87757339D01*
X243630400Y-87553461D01*
X243590626Y-87353502D01*
X243512605Y-87165144D01*
X243399337Y-86995626D01*
X243255174Y-86851463D01*
X243085656Y-86738195D01*
X242897298Y-86660174D01*
X242697339Y-86620400D01*
X242493461Y-86620400D01*
X242293502Y-86660174D01*
X242105144Y-86738195D01*
X241935626Y-86851463D01*
X241791463Y-86995626D01*
X241678195Y-87165144D01*
X241600174Y-87353502D01*
X241560400Y-87553461D01*
X241560400Y-87757339D01*
X241600174Y-87957298D01*
X241678195Y-88145656D01*
X241791463Y-88315174D01*
X241833401Y-88357112D01*
X241833400Y-96482577D01*
X241829714Y-96520000D01*
X241833400Y-96557423D01*
X241833400Y-96557425D01*
X241844426Y-96669377D01*
X241887998Y-96813014D01*
X241887999Y-96813015D01*
X241958755Y-96945392D01*
X241998383Y-96993678D01*
X242053978Y-97061422D01*
X242083054Y-97085284D01*
X243935121Y-98937352D01*
X243958978Y-98966422D01*
X243988048Y-98990279D01*
X244075007Y-99061645D01*
X244145764Y-99099465D01*
X244207385Y-99132402D01*
X244351022Y-99175974D01*
X244462974Y-99187000D01*
X244462977Y-99187000D01*
X244500400Y-99190686D01*
X244537823Y-99187000D01*
X257264577Y-99187000D01*
X257302000Y-99190686D01*
X257339423Y-99187000D01*
X257339426Y-99187000D01*
X257451378Y-99175974D01*
X257595015Y-99132402D01*
X257727392Y-99061645D01*
X257843422Y-98966422D01*
X257867284Y-98937346D01*
X258944830Y-97859800D01*
X259004139Y-97859800D01*
X259204098Y-97820026D01*
X259392456Y-97742005D01*
X259561974Y-97628737D01*
X259706137Y-97484574D01*
X259819405Y-97315056D01*
X259897426Y-97126698D01*
X259937200Y-96926739D01*
X259937200Y-96722861D01*
X259897426Y-96522902D01*
X259819405Y-96334544D01*
X259706137Y-96165026D01*
X259705111Y-96164000D01*
X260960001Y-96164000D01*
X260960000Y-107036000D01*
X259679711Y-107036000D01*
X259680737Y-107034974D01*
X259794005Y-106865456D01*
X259872026Y-106677098D01*
X259911800Y-106477139D01*
X259911800Y-106273261D01*
X259872026Y-106073302D01*
X259829300Y-105970153D01*
X259829300Y-104821785D01*
X259833908Y-104775001D01*
X259829300Y-104728216D01*
X259829300Y-100430247D01*
X259872026Y-100327098D01*
X259911800Y-100127139D01*
X259911800Y-99923261D01*
X259872026Y-99723302D01*
X259794005Y-99534944D01*
X259680737Y-99365426D01*
X259536574Y-99221263D01*
X259367056Y-99107995D01*
X259178698Y-99029974D01*
X258978739Y-98990200D01*
X258774861Y-98990200D01*
X258574902Y-99029974D01*
X258386544Y-99107995D01*
X258217026Y-99221263D01*
X258072863Y-99365426D01*
X257959595Y-99534944D01*
X257881574Y-99723302D01*
X257841800Y-99923261D01*
X257841800Y-100127139D01*
X257881574Y-100327098D01*
X257924301Y-100430249D01*
X257924300Y-103829500D01*
X246538047Y-103829500D01*
X246434898Y-103786774D01*
X246234939Y-103747000D01*
X246031061Y-103747000D01*
X245831102Y-103786774D01*
X245642744Y-103864795D01*
X245473226Y-103978063D01*
X245329063Y-104122226D01*
X245215795Y-104291744D01*
X245137774Y-104480102D01*
X245098000Y-104680061D01*
X245098000Y-104883939D01*
X245137774Y-105083898D01*
X245215795Y-105272256D01*
X245329063Y-105441774D01*
X245473226Y-105585937D01*
X245642744Y-105699205D01*
X245831102Y-105777226D01*
X246031061Y-105817000D01*
X246234939Y-105817000D01*
X246434898Y-105777226D01*
X246538047Y-105734500D01*
X257924301Y-105734500D01*
X257924301Y-105970151D01*
X257881574Y-106073302D01*
X257841800Y-106273261D01*
X257841800Y-106477139D01*
X257881574Y-106677098D01*
X257959595Y-106865456D01*
X258072863Y-107034974D01*
X258073889Y-107036000D01*
X245839581Y-107036000D01*
X245811135Y-107038802D01*
X245803318Y-107038747D01*
X245794147Y-107039646D01*
X245547644Y-107065554D01*
X245489028Y-107077586D01*
X245430284Y-107088792D01*
X245421462Y-107091456D01*
X245184686Y-107164751D01*
X245129555Y-107187926D01*
X245074080Y-107210339D01*
X245065944Y-107214666D01*
X244847914Y-107332554D01*
X244798346Y-107365988D01*
X244748265Y-107398760D01*
X244741124Y-107404584D01*
X244550144Y-107562577D01*
X244508005Y-107605012D01*
X244465255Y-107646875D01*
X244459381Y-107653976D01*
X244302727Y-107846054D01*
X244269655Y-107895831D01*
X244235826Y-107945237D01*
X244231444Y-107953343D01*
X244115081Y-108172191D01*
X244092298Y-108227468D01*
X244068721Y-108282475D01*
X244065997Y-108291278D01*
X243994357Y-108528559D01*
X243982736Y-108587246D01*
X243970300Y-108645752D01*
X243969337Y-108654917D01*
X243945150Y-108901595D01*
X243942000Y-108933582D01*
X243942001Y-123157711D01*
X243903091Y-123554545D01*
X243797220Y-123905206D01*
X243625257Y-124228623D01*
X243393748Y-124512482D01*
X243111514Y-124745965D01*
X242789304Y-124920184D01*
X242439385Y-125028502D01*
X242044557Y-125070000D01*
X239801355Y-125070000D01*
X239814554Y-125064533D01*
X240442670Y-124644839D01*
X240976839Y-124110670D01*
X241396533Y-123482554D01*
X241685623Y-122784628D01*
X241833000Y-122043715D01*
X241833000Y-121288285D01*
X241685623Y-120547372D01*
X241396533Y-119849446D01*
X240976839Y-119221330D01*
X240442670Y-118687161D01*
X239814554Y-118267467D01*
X239116628Y-117978377D01*
X238375715Y-117831000D01*
X237620285Y-117831000D01*
X236879372Y-117978377D01*
X236181446Y-118267467D01*
X235553330Y-118687161D01*
X235019161Y-119221330D01*
X234599467Y-119849446D01*
X234310377Y-120547372D01*
X234163000Y-121288285D01*
X234163000Y-122043715D01*
X234310377Y-122784628D01*
X234599467Y-123482554D01*
X235019161Y-124110670D01*
X235553330Y-124644839D01*
X236181446Y-125064533D01*
X236194645Y-125070000D01*
X177825355Y-125070000D01*
X177838554Y-125064533D01*
X178466670Y-124644839D01*
X179000839Y-124110670D01*
X179420533Y-123482554D01*
X179709623Y-122784628D01*
X179857000Y-122043715D01*
X179857000Y-121288285D01*
X179709623Y-120547372D01*
X179420533Y-119849446D01*
X179000839Y-119221330D01*
X178466670Y-118687161D01*
X177838554Y-118267467D01*
X177140628Y-117978377D01*
X176399715Y-117831000D01*
X175644285Y-117831000D01*
X174903372Y-117978377D01*
X174205446Y-118267467D01*
X173577330Y-118687161D01*
X173043161Y-119221330D01*
X172623467Y-119849446D01*
X172334377Y-120547372D01*
X172187000Y-121288285D01*
X172187000Y-122043715D01*
X172334377Y-122784628D01*
X172623467Y-123482554D01*
X173043161Y-124110670D01*
X173577330Y-124644839D01*
X174205446Y-125064533D01*
X174218645Y-125070000D01*
X145311904Y-125070000D01*
X145532270Y-124849634D01*
X145817192Y-124423220D01*
X146013449Y-123949413D01*
X146113500Y-123446422D01*
X146113500Y-122933578D01*
X146013449Y-122430587D01*
X145817192Y-121956780D01*
X145532270Y-121530366D01*
X145169634Y-121167730D01*
X144743220Y-120882808D01*
X144269413Y-120686551D01*
X143766422Y-120586500D01*
X143253578Y-120586500D01*
X142750587Y-120686551D01*
X142276780Y-120882808D01*
X141850366Y-121167730D01*
X141758731Y-121259365D01*
X141709830Y-121141309D01*
X141383213Y-120652492D01*
X140967508Y-120236787D01*
X140478691Y-119910170D01*
X139935547Y-119685192D01*
X139358948Y-119570500D01*
X138771052Y-119570500D01*
X138194453Y-119685192D01*
X137747166Y-119870465D01*
X138364631Y-119253000D01*
X146520577Y-119253000D01*
X146558000Y-119256686D01*
X146595423Y-119253000D01*
X146595426Y-119253000D01*
X146707378Y-119241974D01*
X146851015Y-119198402D01*
X146983392Y-119127645D01*
X147099422Y-119032422D01*
X147123284Y-119003346D01*
X150239131Y-115887500D01*
X174651077Y-115887500D01*
X174688500Y-115891186D01*
X174725923Y-115887500D01*
X174725926Y-115887500D01*
X174837878Y-115876474D01*
X174981515Y-115832902D01*
X175113892Y-115762145D01*
X175229922Y-115666922D01*
X175253784Y-115637846D01*
X178058352Y-112833279D01*
X178087422Y-112809422D01*
X178182645Y-112693392D01*
X178253402Y-112561015D01*
X178296974Y-112417378D01*
X178308000Y-112305426D01*
X178308000Y-112305424D01*
X178311686Y-112268001D01*
X178308000Y-112230578D01*
X178308000Y-93660630D01*
X178947351Y-93021279D01*
X178976422Y-92997422D01*
X179003772Y-92964096D01*
X179071645Y-92881393D01*
X179142401Y-92749016D01*
X179142402Y-92749015D01*
X179185974Y-92605378D01*
X179197000Y-92493426D01*
X179197000Y-92493423D01*
X179200686Y-92456000D01*
X179197000Y-92418577D01*
X179197000Y-90703061D01*
X184385000Y-90703061D01*
X184385000Y-90906939D01*
X184424774Y-91106898D01*
X184502795Y-91295256D01*
X184616063Y-91464774D01*
X184658001Y-91506712D01*
X184658000Y-113903089D01*
X184616063Y-113945026D01*
X184502795Y-114114544D01*
X184424774Y-114302902D01*
X184385000Y-114502861D01*
X184385000Y-114706739D01*
X184424774Y-114906698D01*
X184502795Y-115095056D01*
X184616063Y-115264574D01*
X184760226Y-115408737D01*
X184929744Y-115522005D01*
X185118102Y-115600026D01*
X185318061Y-115639800D01*
X185521939Y-115639800D01*
X185721898Y-115600026D01*
X185910256Y-115522005D01*
X186079774Y-115408737D01*
X186223937Y-115264574D01*
X186337205Y-115095056D01*
X186415226Y-114906698D01*
X186455000Y-114706739D01*
X186455000Y-114502861D01*
X186415226Y-114302902D01*
X186337205Y-114114544D01*
X186223937Y-113945026D01*
X186182000Y-113903089D01*
X186182000Y-91506711D01*
X186223937Y-91464774D01*
X186337205Y-91295256D01*
X186415226Y-91106898D01*
X186455000Y-90906939D01*
X186455000Y-90703061D01*
X186415226Y-90503102D01*
X186337205Y-90314744D01*
X186223937Y-90145226D01*
X186079774Y-90001063D01*
X185910256Y-89887795D01*
X185721898Y-89809774D01*
X185521939Y-89770000D01*
X185318061Y-89770000D01*
X185118102Y-89809774D01*
X184929744Y-89887795D01*
X184760226Y-90001063D01*
X184616063Y-90145226D01*
X184502795Y-90314744D01*
X184424774Y-90503102D01*
X184385000Y-90703061D01*
X179197000Y-90703061D01*
X179197000Y-87061711D01*
X179238937Y-87019774D01*
X179352205Y-86850256D01*
X179430226Y-86661898D01*
X179470000Y-86461939D01*
X179470000Y-86258061D01*
X179430226Y-86058102D01*
X179352205Y-85869744D01*
X179238937Y-85700226D01*
X179094774Y-85556063D01*
X178925256Y-85442795D01*
X178736898Y-85364774D01*
X178536939Y-85325000D01*
X178333061Y-85325000D01*
X178133102Y-85364774D01*
X177944744Y-85442795D01*
X177775226Y-85556063D01*
X177631063Y-85700226D01*
X177517795Y-85869744D01*
X177439774Y-86058102D01*
X177400000Y-86258061D01*
X177400000Y-86461939D01*
X177439774Y-86661898D01*
X177517795Y-86850256D01*
X177631063Y-87019774D01*
X177673000Y-87061711D01*
X177673001Y-92140368D01*
X177165000Y-92648369D01*
X176657000Y-92140370D01*
X176657000Y-87061711D01*
X176698937Y-87019774D01*
X176812205Y-86850256D01*
X176890226Y-86661898D01*
X176930000Y-86461939D01*
X176930000Y-86258061D01*
X176890226Y-86058102D01*
X176812205Y-85869744D01*
X176698937Y-85700226D01*
X176554774Y-85556063D01*
X176385256Y-85442795D01*
X176196898Y-85364774D01*
X175996939Y-85325000D01*
X175793061Y-85325000D01*
X175593102Y-85364774D01*
X175404744Y-85442795D01*
X175235226Y-85556063D01*
X175091063Y-85700226D01*
X174977795Y-85869744D01*
X174899774Y-86058102D01*
X174860000Y-86258061D01*
X174860000Y-86461939D01*
X174899774Y-86661898D01*
X174977795Y-86850256D01*
X175091063Y-87019774D01*
X175133000Y-87061711D01*
X175133001Y-92418567D01*
X175129314Y-92456000D01*
X175144027Y-92605378D01*
X175187599Y-92749015D01*
X175258355Y-92881392D01*
X175329721Y-92968351D01*
X175353579Y-92997422D01*
X175382649Y-93021279D01*
X176022000Y-93660631D01*
X176022001Y-111571368D01*
X173991870Y-113601500D01*
X149579923Y-113601500D01*
X149542500Y-113597814D01*
X149505077Y-113601500D01*
X149505074Y-113601500D01*
X149393122Y-113612526D01*
X149249485Y-113656098D01*
X149190558Y-113687595D01*
X149117107Y-113726855D01*
X149034404Y-113794728D01*
X149001078Y-113822078D01*
X148977221Y-113851148D01*
X145861370Y-116967000D01*
X137578423Y-116967000D01*
X137541000Y-116963314D01*
X137503577Y-116967000D01*
X137503574Y-116967000D01*
X137391622Y-116978026D01*
X137247985Y-117021598D01*
X137186364Y-117054535D01*
X137115607Y-117092355D01*
X137073219Y-117127143D01*
X136999578Y-117187578D01*
X136975716Y-117216654D01*
X135574370Y-118618000D01*
X135321707Y-118618000D01*
X135279770Y-118576063D01*
X135110252Y-118462795D01*
X134921894Y-118384774D01*
X134721935Y-118345000D01*
X134518057Y-118345000D01*
X134318098Y-118384774D01*
X134129740Y-118462795D01*
X133960222Y-118576063D01*
X133816059Y-118720226D01*
X133702791Y-118889744D01*
X133624770Y-119078102D01*
X133584996Y-119278061D01*
X133584996Y-119481939D01*
X133624770Y-119681898D01*
X133702791Y-119870256D01*
X133816059Y-120039774D01*
X133960222Y-120183937D01*
X134129740Y-120297205D01*
X134318098Y-120375226D01*
X134518057Y-120415000D01*
X134721935Y-120415000D01*
X134921894Y-120375226D01*
X135110252Y-120297205D01*
X135275740Y-120186630D01*
X134577370Y-120885000D01*
X134518061Y-120885000D01*
X134318102Y-120924774D01*
X134129744Y-121002795D01*
X133960226Y-121116063D01*
X133816063Y-121260226D01*
X133702795Y-121429744D01*
X133624774Y-121618102D01*
X133585000Y-121818061D01*
X133585000Y-122021939D01*
X133624774Y-122221898D01*
X133702795Y-122410256D01*
X133816063Y-122579774D01*
X133960226Y-122723937D01*
X134129744Y-122837205D01*
X134318102Y-122915226D01*
X134518061Y-122955000D01*
X134721939Y-122955000D01*
X134921898Y-122915226D01*
X135110256Y-122837205D01*
X135279774Y-122723937D01*
X135423937Y-122579774D01*
X135537205Y-122410256D01*
X135615226Y-122221898D01*
X135655000Y-122021939D01*
X135655000Y-121962630D01*
X136380465Y-121237165D01*
X136195192Y-121684453D01*
X136080500Y-122261052D01*
X136080500Y-122848948D01*
X136195192Y-123425547D01*
X136420170Y-123968691D01*
X136746787Y-124457508D01*
X137162492Y-124873213D01*
X137457005Y-125070000D01*
X105181355Y-125070000D01*
X105194554Y-125064533D01*
X105822670Y-124644839D01*
X106356839Y-124110670D01*
X106776533Y-123482554D01*
X107065623Y-122784628D01*
X107213000Y-122043715D01*
X107213000Y-121288285D01*
X107065623Y-120547372D01*
X106776533Y-119849446D01*
X106356839Y-119221330D01*
X105822670Y-118687161D01*
X105194554Y-118267467D01*
X104496628Y-117978377D01*
X103755715Y-117831000D01*
X103000285Y-117831000D01*
X102259372Y-117978377D01*
X101561446Y-118267467D01*
X100933330Y-118687161D01*
X100399161Y-119221330D01*
X99979467Y-119849446D01*
X99690377Y-120547372D01*
X99543000Y-121288285D01*
X99543000Y-122043715D01*
X99690377Y-122784628D01*
X99979467Y-123482554D01*
X100399161Y-124110670D01*
X100933330Y-124644839D01*
X101561446Y-125064533D01*
X101574645Y-125070000D01*
X43205355Y-125070000D01*
X43218554Y-125064533D01*
X43846670Y-124644839D01*
X44380839Y-124110670D01*
X44800533Y-123482554D01*
X45089623Y-122784628D01*
X45237000Y-122043715D01*
X45237000Y-121288285D01*
X45089623Y-120547372D01*
X44800533Y-119849446D01*
X44380839Y-119221330D01*
X43846670Y-118687161D01*
X43218554Y-118267467D01*
X42520628Y-117978377D01*
X41779715Y-117831000D01*
X41024285Y-117831000D01*
X40283372Y-117978377D01*
X39585446Y-118267467D01*
X38957330Y-118687161D01*
X38423161Y-119221330D01*
X38003467Y-119849446D01*
X37714377Y-120547372D01*
X37567000Y-121288285D01*
X37567000Y-122043715D01*
X37714377Y-122784628D01*
X38003467Y-123482554D01*
X38423161Y-124110670D01*
X38957330Y-124644839D01*
X39585446Y-125064533D01*
X39598645Y-125070000D01*
X37370279Y-125070000D01*
X36973455Y-125031091D01*
X36622794Y-124925220D01*
X36299377Y-124753257D01*
X36015518Y-124521748D01*
X35782035Y-124239514D01*
X35607816Y-123917304D01*
X35499498Y-123567385D01*
X35458000Y-123172557D01*
X35458000Y-113371052D01*
X136080500Y-113371052D01*
X136080500Y-113958948D01*
X136195192Y-114535547D01*
X136420170Y-115078691D01*
X136746787Y-115567508D01*
X137162492Y-115983213D01*
X137651309Y-116309830D01*
X138194453Y-116534808D01*
X138771052Y-116649500D01*
X139358948Y-116649500D01*
X139935547Y-116534808D01*
X140478691Y-116309830D01*
X140967508Y-115983213D01*
X141383213Y-115567508D01*
X141709830Y-115078691D01*
X141758731Y-114960635D01*
X141850366Y-115052270D01*
X142276780Y-115337192D01*
X142750587Y-115533449D01*
X143253578Y-115633500D01*
X143766422Y-115633500D01*
X144269413Y-115533449D01*
X144743220Y-115337192D01*
X145169634Y-115052270D01*
X145532270Y-114689634D01*
X145817192Y-114263220D01*
X146013449Y-113789413D01*
X146113500Y-113286422D01*
X146113500Y-112773578D01*
X146013449Y-112270587D01*
X145817192Y-111796780D01*
X145532270Y-111370366D01*
X145169634Y-111007730D01*
X144743220Y-110722808D01*
X144269413Y-110526551D01*
X143766422Y-110426500D01*
X143253578Y-110426500D01*
X142750587Y-110526551D01*
X142276780Y-110722808D01*
X141850366Y-111007730D01*
X141487730Y-111370366D01*
X141288802Y-111668081D01*
X140967508Y-111346787D01*
X140478691Y-111020170D01*
X139935547Y-110795192D01*
X139358948Y-110680500D01*
X138771052Y-110680500D01*
X138194453Y-110795192D01*
X137651309Y-111020170D01*
X137162492Y-111346787D01*
X136746787Y-111762492D01*
X136420170Y-112251309D01*
X136195192Y-112794453D01*
X136080500Y-113371052D01*
X35458000Y-113371052D01*
X35458000Y-108933581D01*
X35455198Y-108905135D01*
X35455253Y-108897318D01*
X35454354Y-108888147D01*
X35428446Y-108641644D01*
X35416414Y-108583028D01*
X35405208Y-108524284D01*
X35402544Y-108515462D01*
X35329249Y-108278686D01*
X35306074Y-108223555D01*
X35283661Y-108168080D01*
X35279334Y-108159944D01*
X35161446Y-107941914D01*
X35128012Y-107892346D01*
X35095240Y-107842265D01*
X35089416Y-107835124D01*
X34931423Y-107644144D01*
X34888988Y-107602005D01*
X34847125Y-107559255D01*
X34840024Y-107553381D01*
X34647946Y-107396727D01*
X34598169Y-107363655D01*
X34548763Y-107329826D01*
X34540657Y-107325444D01*
X34321809Y-107209081D01*
X34266532Y-107186298D01*
X34211525Y-107162721D01*
X34202722Y-107159997D01*
X33965441Y-107088357D01*
X33906754Y-107076736D01*
X33848248Y-107064300D01*
X33839085Y-107063337D01*
X33839083Y-107063337D01*
X33592405Y-107039150D01*
X33592402Y-107039150D01*
X33560419Y-107036000D01*
X18440000Y-107036000D01*
X18440000Y-96164000D01*
X19694889Y-96164000D01*
X19693863Y-96165026D01*
X19580595Y-96334544D01*
X19502574Y-96522902D01*
X19462800Y-96722861D01*
X19462800Y-96926739D01*
X19502574Y-97126698D01*
X19545300Y-97229848D01*
X19545301Y-98454406D01*
X19545300Y-98454416D01*
X19545301Y-102769751D01*
X19502574Y-102872902D01*
X19462800Y-103072861D01*
X19462800Y-103276739D01*
X19502574Y-103476698D01*
X19580595Y-103665056D01*
X19693863Y-103834574D01*
X19838026Y-103978737D01*
X20007544Y-104092005D01*
X20110693Y-104134731D01*
X21398397Y-105422436D01*
X21428222Y-105458778D01*
X21573259Y-105577806D01*
X21738731Y-105666252D01*
X21900835Y-105715426D01*
X21918277Y-105720717D01*
X22104999Y-105739108D01*
X22151784Y-105734500D01*
X32367953Y-105734500D01*
X32471102Y-105777226D01*
X32671061Y-105817000D01*
X32874939Y-105817000D01*
X33074898Y-105777226D01*
X33178047Y-105734500D01*
X47607953Y-105734500D01*
X47711102Y-105777226D01*
X47911061Y-105817000D01*
X48114939Y-105817000D01*
X48314898Y-105777226D01*
X48503256Y-105699205D01*
X48672774Y-105585937D01*
X48816937Y-105441774D01*
X48930205Y-105272256D01*
X49008226Y-105083898D01*
X49048000Y-104883939D01*
X49048000Y-104680061D01*
X49008226Y-104480102D01*
X48930205Y-104291744D01*
X48816937Y-104122226D01*
X48672774Y-103978063D01*
X48503256Y-103864795D01*
X48314898Y-103786774D01*
X48114939Y-103747000D01*
X47911061Y-103747000D01*
X47711102Y-103786774D01*
X47607953Y-103829500D01*
X33178047Y-103829500D01*
X33074898Y-103786774D01*
X32874939Y-103747000D01*
X32671061Y-103747000D01*
X32471102Y-103786774D01*
X32367953Y-103829500D01*
X22499539Y-103829500D01*
X21457731Y-102787693D01*
X21450300Y-102769753D01*
X21450300Y-97229847D01*
X21463000Y-97199187D01*
X21510995Y-97315056D01*
X21624263Y-97484574D01*
X21768426Y-97628737D01*
X21937944Y-97742005D01*
X22126302Y-97820026D01*
X22326261Y-97859800D01*
X22385570Y-97859800D01*
X23640916Y-99115146D01*
X23664778Y-99144222D01*
X23721395Y-99190686D01*
X23780807Y-99239445D01*
X23851564Y-99277265D01*
X23913185Y-99310202D01*
X24056822Y-99353774D01*
X24168774Y-99364800D01*
X24168777Y-99364800D01*
X24206200Y-99368486D01*
X24243623Y-99364800D01*
X39611977Y-99364800D01*
X39649400Y-99368486D01*
X39686823Y-99364800D01*
X39686826Y-99364800D01*
X39798778Y-99353774D01*
X39942415Y-99310202D01*
X40074792Y-99239445D01*
X40190822Y-99144222D01*
X40214684Y-99115146D01*
X41787346Y-97542484D01*
X41816422Y-97518622D01*
X41876857Y-97444981D01*
X41911645Y-97402593D01*
X41958434Y-97315056D01*
X41982402Y-97270215D01*
X42025974Y-97126578D01*
X42037000Y-97014626D01*
X42037000Y-97014623D01*
X42040686Y-96977200D01*
X42037000Y-96939777D01*
X42037000Y-79055630D01*
X42860631Y-78232000D01*
X46288295Y-78232000D01*
X46330232Y-78273937D01*
X46499750Y-78387205D01*
X46688108Y-78465226D01*
X46888067Y-78505000D01*
X47091945Y-78505000D01*
X47291904Y-78465226D01*
X47480262Y-78387205D01*
X47649780Y-78273937D01*
X47793943Y-78129774D01*
X47907211Y-77960256D01*
X47985232Y-77771898D01*
X48025006Y-77571939D01*
X48025006Y-77368061D01*
X73895000Y-77368061D01*
X73895000Y-77571939D01*
X73934774Y-77771898D01*
X74012795Y-77960256D01*
X74126063Y-78129774D01*
X74270226Y-78273937D01*
X74439744Y-78387205D01*
X74628102Y-78465226D01*
X74828061Y-78505000D01*
X75031939Y-78505000D01*
X75231898Y-78465226D01*
X75420256Y-78387205D01*
X75589774Y-78273937D01*
X75631711Y-78232000D01*
X76865713Y-78232000D01*
X75849713Y-79248000D01*
X75631711Y-79248000D01*
X75589774Y-79206063D01*
X75420256Y-79092795D01*
X75231898Y-79014774D01*
X75031939Y-78975000D01*
X74828061Y-78975000D01*
X74628102Y-79014774D01*
X74439744Y-79092795D01*
X74270226Y-79206063D01*
X74126063Y-79350226D01*
X74012795Y-79519744D01*
X73934774Y-79708102D01*
X73895000Y-79908061D01*
X73895000Y-80111939D01*
X73934774Y-80311898D01*
X74012795Y-80500256D01*
X74126063Y-80669774D01*
X74270226Y-80813937D01*
X74439744Y-80927205D01*
X74628102Y-81005226D01*
X74828061Y-81045000D01*
X75031939Y-81045000D01*
X75231898Y-81005226D01*
X75420256Y-80927205D01*
X75589774Y-80813937D01*
X75631711Y-80772000D01*
X76127920Y-80772000D01*
X76165343Y-80775686D01*
X76202766Y-80772000D01*
X76202769Y-80772000D01*
X76314721Y-80760974D01*
X76458358Y-80717402D01*
X76590735Y-80646645D01*
X76706765Y-80551422D01*
X76730627Y-80522346D01*
X80925974Y-76327000D01*
X85409370Y-76327000D01*
X90239721Y-81157352D01*
X90263578Y-81186422D01*
X90292648Y-81210279D01*
X90379607Y-81281645D01*
X90450364Y-81319465D01*
X90511985Y-81352402D01*
X90655622Y-81395974D01*
X90767574Y-81407000D01*
X90767577Y-81407000D01*
X90805000Y-81410686D01*
X90842423Y-81407000D01*
X158077577Y-81407000D01*
X158115000Y-81410686D01*
X158152423Y-81407000D01*
X158152426Y-81407000D01*
X158264378Y-81395974D01*
X158408015Y-81352402D01*
X158540392Y-81281645D01*
X158656422Y-81186422D01*
X158680284Y-81157346D01*
X162215561Y-77622069D01*
X170415000Y-77622069D01*
X170415000Y-77825947D01*
X170454774Y-78025906D01*
X170532795Y-78214264D01*
X170646063Y-78383782D01*
X170688000Y-78425719D01*
X170688001Y-79337567D01*
X170684314Y-79375000D01*
X170699027Y-79524378D01*
X170742599Y-79668015D01*
X170813355Y-79800392D01*
X170881150Y-79883000D01*
X170908579Y-79916422D01*
X170937649Y-79940279D01*
X171919715Y-80922345D01*
X171943577Y-80951421D01*
X172009139Y-81005226D01*
X172059606Y-81046644D01*
X172104036Y-81070392D01*
X172191984Y-81117401D01*
X172335621Y-81160973D01*
X172447573Y-81171999D01*
X172447576Y-81171999D01*
X172484999Y-81175685D01*
X172522422Y-81171999D01*
X178519369Y-81171999D01*
X184385000Y-87037630D01*
X184385000Y-87096939D01*
X184424774Y-87296898D01*
X184502795Y-87485256D01*
X184616063Y-87654774D01*
X184760226Y-87798937D01*
X184929744Y-87912205D01*
X185118102Y-87990226D01*
X185318061Y-88030000D01*
X185521939Y-88030000D01*
X185721898Y-87990226D01*
X185910256Y-87912205D01*
X186079774Y-87798937D01*
X186223937Y-87654774D01*
X186337205Y-87485256D01*
X186415226Y-87296898D01*
X186455000Y-87096939D01*
X186455000Y-86893061D01*
X186415226Y-86693102D01*
X186337205Y-86504744D01*
X186240490Y-86360000D01*
X186337205Y-86215256D01*
X186415226Y-86026898D01*
X186455000Y-85826939D01*
X186455000Y-85623061D01*
X186415226Y-85423102D01*
X186337205Y-85234744D01*
X186223937Y-85065226D01*
X186079774Y-84921063D01*
X185910256Y-84807795D01*
X185721898Y-84729774D01*
X185521939Y-84690000D01*
X185462631Y-84690000D01*
X180035267Y-79262637D01*
X180011405Y-79233561D01*
X179895375Y-79138338D01*
X179762998Y-79067581D01*
X179619361Y-79024009D01*
X179507409Y-79012983D01*
X179507406Y-79012983D01*
X179469983Y-79009297D01*
X179432560Y-79012983D01*
X174752000Y-79012983D01*
X174752000Y-78425711D01*
X174793937Y-78383774D01*
X174907205Y-78214256D01*
X174985226Y-78025898D01*
X175025000Y-77825939D01*
X175025000Y-77622061D01*
X174985226Y-77422102D01*
X174907205Y-77233744D01*
X174793937Y-77064226D01*
X174649774Y-76920063D01*
X174480256Y-76806795D01*
X174291898Y-76728774D01*
X174091939Y-76689000D01*
X173888061Y-76689000D01*
X173688102Y-76728774D01*
X173499744Y-76806795D01*
X173330226Y-76920063D01*
X173186063Y-77064226D01*
X173072795Y-77233744D01*
X172994774Y-77422102D01*
X172955000Y-77622061D01*
X172955000Y-77825939D01*
X172994774Y-78025898D01*
X173072795Y-78214256D01*
X173186063Y-78383774D01*
X173228000Y-78425711D01*
X173228001Y-79337551D01*
X173224314Y-79374984D01*
X173239027Y-79524362D01*
X173276532Y-79647999D01*
X172800629Y-79647999D01*
X172212000Y-79059370D01*
X172212000Y-78425719D01*
X172253937Y-78383782D01*
X172367205Y-78214264D01*
X172445226Y-78025906D01*
X172485000Y-77825947D01*
X172485000Y-77622069D01*
X172445226Y-77422110D01*
X172367205Y-77233752D01*
X172253937Y-77064234D01*
X172109774Y-76920071D01*
X171940256Y-76806803D01*
X171751898Y-76728782D01*
X171551939Y-76689008D01*
X171348061Y-76689008D01*
X171148102Y-76728782D01*
X170959744Y-76806803D01*
X170790226Y-76920071D01*
X170646063Y-77064234D01*
X170532795Y-77233752D01*
X170454774Y-77422110D01*
X170415000Y-77622069D01*
X162215561Y-77622069D01*
X163510631Y-76327000D01*
X195264374Y-76327000D01*
X195942000Y-77004626D01*
X195942000Y-77063935D01*
X195981774Y-77263894D01*
X196059795Y-77452252D01*
X196173063Y-77621770D01*
X196317226Y-77765933D01*
X196486744Y-77879201D01*
X196675102Y-77957222D01*
X196875061Y-77996996D01*
X197078939Y-77996996D01*
X197278898Y-77957222D01*
X197467256Y-77879201D01*
X197548497Y-77824918D01*
X197629744Y-77879205D01*
X197818102Y-77957226D01*
X198018061Y-77997000D01*
X198221939Y-77997000D01*
X198421898Y-77957226D01*
X198610256Y-77879205D01*
X198779774Y-77765937D01*
X198923937Y-77621774D01*
X199037205Y-77452256D01*
X199115226Y-77263898D01*
X199155000Y-77063939D01*
X199155000Y-76860061D01*
X199115226Y-76660102D01*
X199037205Y-76471744D01*
X198923937Y-76302226D01*
X198779774Y-76158063D01*
X198610256Y-76044795D01*
X198421898Y-75966774D01*
X198221939Y-75927000D01*
X198162631Y-75927000D01*
X196526284Y-74290654D01*
X196502422Y-74261578D01*
X196386392Y-74166355D01*
X196254015Y-74095598D01*
X196110378Y-74052026D01*
X195998426Y-74041000D01*
X195998423Y-74041000D01*
X195961000Y-74037314D01*
X195923577Y-74041000D01*
X162724422Y-74041000D01*
X162686999Y-74037314D01*
X162649576Y-74041000D01*
X162649574Y-74041000D01*
X162537622Y-74052026D01*
X162393985Y-74095598D01*
X162261608Y-74166355D01*
X162145578Y-74261578D01*
X162121721Y-74290648D01*
X157164370Y-79248000D01*
X91759164Y-79248000D01*
X86928817Y-74417654D01*
X86904955Y-74388578D01*
X86788925Y-74293355D01*
X86656548Y-74222598D01*
X86512911Y-74179026D01*
X86400959Y-74168000D01*
X86400956Y-74168000D01*
X86363533Y-74164314D01*
X86326110Y-74168000D01*
X80047422Y-74168000D01*
X80009999Y-74164314D01*
X79972576Y-74168000D01*
X79972574Y-74168000D01*
X79860622Y-74179026D01*
X79716985Y-74222598D01*
X79584608Y-74293355D01*
X79468578Y-74388578D01*
X79444721Y-74417648D01*
X77154370Y-76708000D01*
X75631711Y-76708000D01*
X75589774Y-76666063D01*
X75420256Y-76552795D01*
X75231898Y-76474774D01*
X75031939Y-76435000D01*
X74828061Y-76435000D01*
X74628102Y-76474774D01*
X74439744Y-76552795D01*
X74270226Y-76666063D01*
X74126063Y-76810226D01*
X74012795Y-76979744D01*
X73934774Y-77168102D01*
X73895000Y-77368061D01*
X48025006Y-77368061D01*
X47985232Y-77168102D01*
X47907211Y-76979744D01*
X47793943Y-76810226D01*
X47649780Y-76666063D01*
X47480262Y-76552795D01*
X47291904Y-76474774D01*
X47091945Y-76435000D01*
X46888067Y-76435000D01*
X46688108Y-76474774D01*
X46499750Y-76552795D01*
X46330232Y-76666063D01*
X46288295Y-76708000D01*
X42582422Y-76708000D01*
X42544999Y-76704314D01*
X42507576Y-76708000D01*
X42507574Y-76708000D01*
X42395622Y-76719026D01*
X42251985Y-76762598D01*
X42119608Y-76833355D01*
X42003578Y-76928578D01*
X41979721Y-76957648D01*
X40762654Y-78174716D01*
X40733578Y-78198578D01*
X40706150Y-78232000D01*
X40638355Y-78314608D01*
X40601386Y-78383774D01*
X40567598Y-78446986D01*
X40524026Y-78590623D01*
X40516445Y-78667599D01*
X40509314Y-78740000D01*
X40513000Y-78777423D01*
X40513001Y-96661569D01*
X39333770Y-97840800D01*
X24521830Y-97840800D01*
X23463200Y-96782170D01*
X23463200Y-96722861D01*
X23423426Y-96522902D01*
X23345405Y-96334544D01*
X23232137Y-96165026D01*
X23231111Y-96164000D01*
X33560419Y-96164000D01*
X33588865Y-96161198D01*
X33596682Y-96161253D01*
X33605853Y-96160354D01*
X33852357Y-96134446D01*
X33910986Y-96122411D01*
X33969716Y-96111208D01*
X33978532Y-96108546D01*
X33978536Y-96108545D01*
X33978539Y-96108544D01*
X34215314Y-96035249D01*
X34270457Y-96012069D01*
X34325920Y-95989661D01*
X34334054Y-95985335D01*
X34334059Y-95985333D01*
X34334064Y-95985330D01*
X34552086Y-95867447D01*
X34601654Y-95834012D01*
X34651735Y-95801241D01*
X34658876Y-95795416D01*
X34849856Y-95637423D01*
X34891995Y-95594988D01*
X34934745Y-95553125D01*
X34940618Y-95546024D01*
X35097273Y-95353947D01*
X35130374Y-95304125D01*
X35164173Y-95254763D01*
X35168556Y-95246657D01*
X35284919Y-95027809D01*
X35307707Y-94972521D01*
X35331279Y-94917525D01*
X35334003Y-94908722D01*
X35405643Y-94671441D01*
X35417264Y-94612754D01*
X35429700Y-94554248D01*
X35430663Y-94545083D01*
X35454850Y-94298405D01*
X35454850Y-94298402D01*
X35458000Y-94266419D01*
X35458000Y-72933319D01*
X135526286Y-72933319D01*
X136128018Y-73712478D01*
X137197949Y-74310718D01*
X138364033Y-74688730D01*
X139581457Y-74831987D01*
X140803437Y-74734983D01*
X141983012Y-74401447D01*
X143074852Y-73844196D01*
X143271982Y-73712478D01*
X143873714Y-72933319D01*
X139700000Y-68759605D01*
X135526286Y-72933319D01*
X35458000Y-72933319D01*
X35458000Y-68367357D01*
X130556000Y-68367357D01*
X130556000Y-68792643D01*
X130638970Y-69209757D01*
X130801719Y-69602670D01*
X131037996Y-69956282D01*
X131338718Y-70257004D01*
X131692330Y-70493281D01*
X132085243Y-70656030D01*
X132502357Y-70739000D01*
X132927643Y-70739000D01*
X133344757Y-70656030D01*
X133737670Y-70493281D01*
X133768234Y-70472859D01*
X133878553Y-70863012D01*
X134435804Y-71954852D01*
X134567522Y-72151982D01*
X135346681Y-72753714D01*
X139520395Y-68580000D01*
X139879605Y-68580000D01*
X144053319Y-72753714D01*
X144656274Y-72288061D01*
X166351000Y-72288061D01*
X166351000Y-72491939D01*
X166390774Y-72691898D01*
X166468795Y-72880256D01*
X166582063Y-73049774D01*
X166726226Y-73193937D01*
X166895744Y-73307205D01*
X167084102Y-73385226D01*
X167284061Y-73425000D01*
X167487939Y-73425000D01*
X167687898Y-73385226D01*
X167876256Y-73307205D01*
X168045774Y-73193937D01*
X168087711Y-73152000D01*
X178368289Y-73152000D01*
X178410226Y-73193937D01*
X178579744Y-73307205D01*
X178768102Y-73385226D01*
X178968061Y-73425000D01*
X179171939Y-73425000D01*
X179371898Y-73385226D01*
X179560256Y-73307205D01*
X179729774Y-73193937D01*
X179771711Y-73152000D01*
X203265370Y-73152000D01*
X204216000Y-74102631D01*
X204216001Y-79567368D01*
X203265370Y-80518000D01*
X190058711Y-80518000D01*
X190016774Y-80476063D01*
X189847256Y-80362795D01*
X189658898Y-80284774D01*
X189458939Y-80245000D01*
X189255061Y-80245000D01*
X189055102Y-80284774D01*
X188866744Y-80362795D01*
X188697226Y-80476063D01*
X188553063Y-80620226D01*
X188439795Y-80789744D01*
X188361774Y-80978102D01*
X188322000Y-81178061D01*
X188322000Y-81381939D01*
X188361774Y-81581898D01*
X188439795Y-81770256D01*
X188553063Y-81939774D01*
X188697226Y-82083937D01*
X188866744Y-82197205D01*
X189055102Y-82275226D01*
X189255061Y-82315000D01*
X189458939Y-82315000D01*
X189658898Y-82275226D01*
X189847256Y-82197205D01*
X190016774Y-82083937D01*
X190058711Y-82042000D01*
X203543577Y-82042000D01*
X203581000Y-82045686D01*
X203618423Y-82042000D01*
X203618426Y-82042000D01*
X203730378Y-82030974D01*
X203874015Y-81987402D01*
X204006392Y-81916645D01*
X204122422Y-81821422D01*
X204146284Y-81792346D01*
X205490352Y-80448279D01*
X205519422Y-80424422D01*
X205614645Y-80308392D01*
X205685402Y-80176015D01*
X205728974Y-80032378D01*
X205740000Y-79920426D01*
X205740000Y-79920424D01*
X205743686Y-79883001D01*
X205740000Y-79845578D01*
X205740000Y-73824422D01*
X205743686Y-73786999D01*
X205736346Y-73712478D01*
X205728974Y-73637622D01*
X205685402Y-73493985D01*
X205614645Y-73361608D01*
X205519422Y-73245578D01*
X205490353Y-73221722D01*
X204343000Y-72074370D01*
X204343000Y-69789711D01*
X204384937Y-69747774D01*
X204498205Y-69578256D01*
X204576226Y-69389898D01*
X204616000Y-69189939D01*
X204616000Y-68986061D01*
X204576226Y-68786102D01*
X204498205Y-68597744D01*
X204384937Y-68428226D01*
X204324774Y-68368063D01*
X204394304Y-68396863D01*
X204612675Y-68440300D01*
X204835325Y-68440300D01*
X205053696Y-68396863D01*
X205259398Y-68311659D01*
X205444524Y-68187961D01*
X205601961Y-68030524D01*
X205725659Y-67845398D01*
X205740000Y-67810776D01*
X205754341Y-67845398D01*
X205878039Y-68030524D01*
X206035476Y-68187961D01*
X206220602Y-68311659D01*
X206426304Y-68396863D01*
X206644675Y-68440300D01*
X206867325Y-68440300D01*
X207085696Y-68396863D01*
X207291398Y-68311659D01*
X207476524Y-68187961D01*
X207633961Y-68030524D01*
X207757659Y-67845398D01*
X207842863Y-67639696D01*
X207886300Y-67421325D01*
X207886300Y-67198675D01*
X207883435Y-67184272D01*
X208100504Y-67227450D01*
X208459496Y-67227450D01*
X208811589Y-67157414D01*
X209143254Y-67020034D01*
X209441744Y-66820589D01*
X209695589Y-66566744D01*
X209895034Y-66268254D01*
X210032414Y-65936589D01*
X210102450Y-65584496D01*
X210102450Y-65225504D01*
X210032414Y-64873411D01*
X209895034Y-64541746D01*
X209695589Y-64243256D01*
X209441744Y-63989411D01*
X209184461Y-63817500D01*
X209441744Y-63645589D01*
X209695589Y-63391744D01*
X209895034Y-63093254D01*
X210032414Y-62761589D01*
X210102450Y-62409496D01*
X210102450Y-62050504D01*
X210032414Y-61698411D01*
X209895034Y-61366746D01*
X209695589Y-61068256D01*
X209441744Y-60814411D01*
X209143254Y-60614966D01*
X208811589Y-60477586D01*
X208459496Y-60407550D01*
X208100504Y-60407550D01*
X207748411Y-60477586D01*
X207416746Y-60614966D01*
X207118256Y-60814411D01*
X206864411Y-61068256D01*
X206664966Y-61366746D01*
X206609394Y-61500909D01*
X206460524Y-61352039D01*
X206275398Y-61228341D01*
X206069696Y-61143137D01*
X205851325Y-61099700D01*
X205628675Y-61099700D01*
X205410304Y-61143137D01*
X205204602Y-61228341D01*
X205019476Y-61352039D01*
X204870606Y-61500909D01*
X204815034Y-61366746D01*
X204615589Y-61068256D01*
X204361744Y-60814411D01*
X204063254Y-60614966D01*
X203731589Y-60477586D01*
X203379496Y-60407550D01*
X203020504Y-60407550D01*
X202668411Y-60477586D01*
X202336746Y-60614966D01*
X202038256Y-60814411D01*
X201784411Y-61068256D01*
X201584966Y-61366746D01*
X201447586Y-61698411D01*
X201377550Y-62050504D01*
X201377550Y-62409496D01*
X201447586Y-62761589D01*
X201584966Y-63093254D01*
X201784411Y-63391744D01*
X202038256Y-63645589D01*
X202295539Y-63817500D01*
X202038256Y-63989411D01*
X201784411Y-64243256D01*
X201584966Y-64541746D01*
X201447586Y-64873411D01*
X201377550Y-65225504D01*
X201377550Y-65584496D01*
X201447586Y-65936589D01*
X201584966Y-66268254D01*
X201784411Y-66566744D01*
X202038256Y-66820589D01*
X202336746Y-67020034D01*
X202668411Y-67157414D01*
X203020504Y-67227450D01*
X203379496Y-67227450D01*
X203596565Y-67184272D01*
X203593700Y-67198675D01*
X203593700Y-67421325D01*
X203637137Y-67639696D01*
X203722341Y-67845398D01*
X203846039Y-68030524D01*
X203926243Y-68110728D01*
X203882898Y-68092774D01*
X203682939Y-68053000D01*
X203479061Y-68053000D01*
X203279102Y-68092774D01*
X203090744Y-68170795D01*
X202921226Y-68284063D01*
X202777063Y-68428226D01*
X202663795Y-68597744D01*
X202585774Y-68786102D01*
X202546000Y-68986061D01*
X202546000Y-69189939D01*
X202585774Y-69389898D01*
X202663795Y-69578256D01*
X202777063Y-69747774D01*
X202819001Y-69789712D01*
X202819000Y-71628000D01*
X179771711Y-71628000D01*
X179729774Y-71586063D01*
X179560256Y-71472795D01*
X179371898Y-71394774D01*
X179171939Y-71355000D01*
X178968061Y-71355000D01*
X178768102Y-71394774D01*
X178579744Y-71472795D01*
X178410226Y-71586063D01*
X178368289Y-71628000D01*
X168087711Y-71628000D01*
X168045774Y-71586063D01*
X167876256Y-71472795D01*
X167687898Y-71394774D01*
X167487939Y-71355000D01*
X167284061Y-71355000D01*
X167084102Y-71394774D01*
X166895744Y-71472795D01*
X166726226Y-71586063D01*
X166582063Y-71730226D01*
X166468795Y-71899744D01*
X166390774Y-72088102D01*
X166351000Y-72288061D01*
X144656274Y-72288061D01*
X144832478Y-72151982D01*
X145430718Y-71082051D01*
X145798654Y-69947048D01*
X145815478Y-69992860D01*
X146107821Y-70135348D01*
X146422344Y-70218064D01*
X146746962Y-70237831D01*
X147069198Y-70193888D01*
X147376670Y-70087924D01*
X147554522Y-69992860D01*
X147652218Y-69726823D01*
X146685000Y-68759605D01*
X146670858Y-68773748D01*
X146491253Y-68594143D01*
X146505395Y-68580000D01*
X146864605Y-68580000D01*
X147831823Y-69547218D01*
X148097860Y-69449522D01*
X148240348Y-69157179D01*
X148251949Y-69113065D01*
X150095000Y-69113065D01*
X150095000Y-69316943D01*
X150134774Y-69516902D01*
X150212795Y-69705260D01*
X150267079Y-69786502D01*
X150212795Y-69867744D01*
X150134774Y-70056102D01*
X150095000Y-70256061D01*
X150095000Y-70459939D01*
X150134774Y-70659898D01*
X150212795Y-70848256D01*
X150326063Y-71017774D01*
X150470226Y-71161937D01*
X150639744Y-71275205D01*
X150828102Y-71353226D01*
X151028061Y-71393000D01*
X151231939Y-71393000D01*
X151327459Y-71374000D01*
X152223098Y-71374000D01*
X152273000Y-71378915D01*
X152322902Y-71374000D01*
X152472171Y-71359298D01*
X152663687Y-71301202D01*
X152840190Y-71206860D01*
X152994896Y-71079896D01*
X153026712Y-71041128D01*
X155614841Y-68453000D01*
X156184085Y-68453000D01*
X156140857Y-68476106D01*
X156024827Y-68571329D01*
X156000965Y-68600405D01*
X155605648Y-68995722D01*
X155576578Y-69019579D01*
X155552721Y-69048649D01*
X155552720Y-69048650D01*
X155481354Y-69135609D01*
X155451728Y-69191037D01*
X155410598Y-69267986D01*
X155367026Y-69411623D01*
X155356657Y-69516902D01*
X155352313Y-69561001D01*
X155355999Y-69598424D01*
X155355999Y-70355576D01*
X155352313Y-70392999D01*
X155355999Y-70430422D01*
X155355999Y-70430424D01*
X155367025Y-70542376D01*
X155410597Y-70686013D01*
X155410598Y-70686014D01*
X155481354Y-70818391D01*
X155503377Y-70845226D01*
X155576577Y-70934421D01*
X155605653Y-70958283D01*
X155810000Y-71162630D01*
X155810000Y-71221939D01*
X155849774Y-71421898D01*
X155927795Y-71610256D01*
X156041063Y-71779774D01*
X156185226Y-71923937D01*
X156354744Y-72037205D01*
X156543102Y-72115226D01*
X156743061Y-72155000D01*
X156946939Y-72155000D01*
X157146898Y-72115226D01*
X157335256Y-72037205D01*
X157504774Y-71923937D01*
X157648937Y-71779774D01*
X157762205Y-71610256D01*
X157840226Y-71421898D01*
X157880000Y-71221939D01*
X157880000Y-71018061D01*
X157840226Y-70818102D01*
X157792967Y-70704010D01*
X157891380Y-70704010D01*
X158350000Y-71162631D01*
X158350000Y-71221939D01*
X158389774Y-71421898D01*
X158467795Y-71610256D01*
X158581063Y-71779774D01*
X158725226Y-71923937D01*
X158894744Y-72037205D01*
X159083102Y-72115226D01*
X159283061Y-72155000D01*
X159486939Y-72155000D01*
X159686898Y-72115226D01*
X159875256Y-72037205D01*
X160044774Y-71923937D01*
X160188937Y-71779774D01*
X160302205Y-71610256D01*
X160380226Y-71421898D01*
X160420000Y-71221939D01*
X160420000Y-71018061D01*
X160380226Y-70818102D01*
X160302205Y-70629744D01*
X160205490Y-70485000D01*
X160302205Y-70340256D01*
X160380226Y-70151898D01*
X160420000Y-69951939D01*
X160420000Y-69748061D01*
X160380226Y-69548102D01*
X160302205Y-69359744D01*
X160188937Y-69190226D01*
X160044774Y-69046063D01*
X159875256Y-68932795D01*
X159686898Y-68854774D01*
X159486939Y-68815000D01*
X159427630Y-68815000D01*
X159213035Y-68600405D01*
X159189173Y-68571329D01*
X159073143Y-68476106D01*
X159029915Y-68453000D01*
X159472160Y-68453000D01*
X162060306Y-71041147D01*
X162092118Y-71079910D01*
X162130879Y-71111720D01*
X162246824Y-71206874D01*
X162423327Y-71301216D01*
X162614843Y-71359312D01*
X162814014Y-71378929D01*
X162863916Y-71374014D01*
X163632611Y-71374014D01*
X163728061Y-71393000D01*
X163931939Y-71393000D01*
X164131898Y-71353226D01*
X164320256Y-71275205D01*
X164489774Y-71161937D01*
X164633937Y-71017774D01*
X164747205Y-70848256D01*
X164825226Y-70659898D01*
X164865000Y-70459939D01*
X164865000Y-70256061D01*
X187560000Y-70256061D01*
X187560000Y-70459939D01*
X187599774Y-70659898D01*
X187677795Y-70848256D01*
X187791063Y-71017774D01*
X187935226Y-71161937D01*
X188104744Y-71275205D01*
X188293102Y-71353226D01*
X188493061Y-71393000D01*
X188696939Y-71393000D01*
X188896898Y-71353226D01*
X189085256Y-71275205D01*
X189254774Y-71161937D01*
X189296711Y-71120000D01*
X192338289Y-71120000D01*
X192380226Y-71161937D01*
X192549744Y-71275205D01*
X192738102Y-71353226D01*
X192938061Y-71393000D01*
X193141939Y-71393000D01*
X193341898Y-71353226D01*
X193530256Y-71275205D01*
X193699774Y-71161937D01*
X193843937Y-71017774D01*
X193957205Y-70848256D01*
X194035226Y-70659898D01*
X194075000Y-70459939D01*
X194075000Y-70256061D01*
X194035226Y-70056102D01*
X193957205Y-69867744D01*
X193843937Y-69698226D01*
X193699774Y-69554063D01*
X193530256Y-69440795D01*
X193341898Y-69362774D01*
X193141939Y-69323000D01*
X192938061Y-69323000D01*
X192738102Y-69362774D01*
X192549744Y-69440795D01*
X192380226Y-69554063D01*
X192338289Y-69596000D01*
X189296711Y-69596000D01*
X189254774Y-69554063D01*
X189085256Y-69440795D01*
X188896898Y-69362774D01*
X188696939Y-69323000D01*
X188493061Y-69323000D01*
X188293102Y-69362774D01*
X188104744Y-69440795D01*
X187935226Y-69554063D01*
X187791063Y-69698226D01*
X187677795Y-69867744D01*
X187599774Y-70056102D01*
X187560000Y-70256061D01*
X164865000Y-70256061D01*
X164825226Y-70056102D01*
X164747205Y-69867744D01*
X164650490Y-69723000D01*
X164747205Y-69578256D01*
X164825226Y-69389898D01*
X164865000Y-69189939D01*
X164865000Y-68986061D01*
X164825226Y-68786102D01*
X164747205Y-68597744D01*
X164633937Y-68428226D01*
X164489774Y-68284063D01*
X164320256Y-68170795D01*
X164131898Y-68092774D01*
X163931939Y-68053000D01*
X163728061Y-68053000D01*
X163632541Y-68072000D01*
X163488841Y-68072000D01*
X161587325Y-66170485D01*
X161616964Y-66150681D01*
X161750681Y-66016964D01*
X161855741Y-65859731D01*
X161928108Y-65685022D01*
X161965000Y-65499552D01*
X161965000Y-65310448D01*
X161928108Y-65124978D01*
X161855741Y-64950269D01*
X161750681Y-64793036D01*
X161616964Y-64659319D01*
X161459731Y-64554259D01*
X161285022Y-64481892D01*
X161099552Y-64445000D01*
X160910448Y-64445000D01*
X160724978Y-64481892D01*
X160550269Y-64554259D01*
X160393036Y-64659319D01*
X160259319Y-64793036D01*
X160154259Y-64950269D01*
X160081892Y-65124978D01*
X160045000Y-65310448D01*
X160045000Y-65405000D01*
X156185000Y-65405000D01*
X156185000Y-65310448D01*
X156148108Y-65124978D01*
X156075741Y-64950269D01*
X155970681Y-64793036D01*
X155836964Y-64659319D01*
X155679731Y-64554259D01*
X155505022Y-64481892D01*
X155319552Y-64445000D01*
X155130448Y-64445000D01*
X154944978Y-64481892D01*
X154770269Y-64554259D01*
X154613036Y-64659319D01*
X154479319Y-64793036D01*
X154374259Y-64950269D01*
X154301892Y-65124978D01*
X154265000Y-65310448D01*
X154265000Y-65499552D01*
X154276207Y-65555893D01*
X154245810Y-65572140D01*
X154091104Y-65699104D01*
X154059292Y-65737867D01*
X151598156Y-68199004D01*
X151327459Y-68199004D01*
X151231939Y-68180004D01*
X151028061Y-68180004D01*
X150828102Y-68219778D01*
X150639744Y-68297799D01*
X150470226Y-68411067D01*
X150326063Y-68555230D01*
X150212795Y-68724748D01*
X150134774Y-68913106D01*
X150095000Y-69113065D01*
X148251949Y-69113065D01*
X148323064Y-68842656D01*
X148342831Y-68518038D01*
X148298888Y-68195802D01*
X148192924Y-67888330D01*
X148097860Y-67710478D01*
X147831823Y-67612782D01*
X146864605Y-68580000D01*
X146505395Y-68580000D01*
X146491253Y-68565858D01*
X146670858Y-68386253D01*
X146685000Y-68400395D01*
X147652218Y-67433177D01*
X147554522Y-67167140D01*
X147262179Y-67024652D01*
X146947656Y-66941936D01*
X146623038Y-66922169D01*
X146300802Y-66966112D01*
X145993330Y-67072076D01*
X145815478Y-67167140D01*
X145788366Y-67240968D01*
X145521447Y-66296988D01*
X144964196Y-65205148D01*
X144832478Y-65008018D01*
X144053319Y-64406286D01*
X139879605Y-68580000D01*
X139520395Y-68580000D01*
X135346681Y-64406286D01*
X134567522Y-65008018D01*
X133969282Y-66077949D01*
X133771164Y-66689099D01*
X133737670Y-66666719D01*
X133344757Y-66503970D01*
X132927643Y-66421000D01*
X132502357Y-66421000D01*
X132085243Y-66503970D01*
X131692330Y-66666719D01*
X131338718Y-66902996D01*
X131037996Y-67203718D01*
X130801719Y-67557330D01*
X130638970Y-67950243D01*
X130556000Y-68367357D01*
X35458000Y-68367357D01*
X35458000Y-62008279D01*
X35496909Y-61611455D01*
X35602780Y-61260792D01*
X35774744Y-60937375D01*
X36006254Y-60653516D01*
X36288486Y-60420035D01*
X36610695Y-60245817D01*
X36960614Y-60137498D01*
X37355443Y-60096000D01*
X39598645Y-60096000D01*
X39585446Y-60101467D01*
G37*
%TD.AperFunction*%
%TD*%
M02*
