%TF.GenerationSoftware,KiCad,Pcbnew,5.1.8-db9833491~88~ubuntu20.04.1*%
%TF.CreationDate,2020-12-13T16:07:54+05:30*%
%TF.ProjectId,halo,68616c6f-2e6b-4696-9361-645f70636258,v1*%
%TF.SameCoordinates,Original*%
%TF.FileFunction,Soldermask,Bot*%
%TF.FilePolarity,Negative*%
%FSLAX46Y46*%
G04 Gerber Fmt 4.6, Leading zero omitted, Abs format (unit mm)*
G04 Created by KiCad (PCBNEW 5.1.8-db9833491~88~ubuntu20.04.1) date 2020-12-13 16:07:54*
%MOMM*%
%LPD*%
G01*
G04 APERTURE LIST*
%ADD10C,6.400000*%
%ADD11C,0.800000*%
%ADD12C,1.600000*%
%ADD13C,1.800000*%
%ADD14C,3.175000*%
%ADD15C,0.650000*%
%ADD16C,2.374900*%
%ADD17C,0.990600*%
%ADD18C,10.668000*%
%ADD19C,2.032000*%
G04 APERTURE END LIST*
D10*
%TO.C,SC4*%
X237998000Y-63500000D03*
D11*
X240398000Y-63500000D03*
X239695056Y-65197056D03*
X237998000Y-65900000D03*
X236300944Y-65197056D03*
X235598000Y-63500000D03*
X236300944Y-61802944D03*
X237998000Y-61100000D03*
X239695056Y-61802944D03*
%TD*%
D12*
%TO.C,J3*%
X118745000Y-62150000D03*
D13*
X118745000Y-66650000D03*
%TD*%
D14*
%TO.C,P7*%
X139065000Y-122555000D03*
X139065000Y-113665000D03*
%TD*%
%TO.C,P5*%
X143510000Y-113030000D03*
X143510000Y-123190000D03*
%TD*%
D15*
%TO.C,J2*%
X155225000Y-65405000D03*
X161005000Y-65405000D03*
%TD*%
D10*
%TO.C,SC2*%
X90678000Y-63500000D03*
D11*
X93078000Y-63500000D03*
X92375056Y-65197056D03*
X90678000Y-65900000D03*
X88980944Y-65197056D03*
X88278000Y-63500000D03*
X88980944Y-61802944D03*
X90678000Y-61100000D03*
X92375056Y-61802944D03*
%TD*%
D10*
%TO.C,SC3*%
X188722000Y-63500000D03*
D11*
X191122000Y-63500000D03*
X190419056Y-65197056D03*
X188722000Y-65900000D03*
X187024944Y-65197056D03*
X186322000Y-63500000D03*
X187024944Y-61802944D03*
X188722000Y-61100000D03*
X190419056Y-61802944D03*
%TD*%
D10*
%TO.C,SC5*%
X237998000Y-121666000D03*
D11*
X240398000Y-121666000D03*
X239695056Y-123363056D03*
X237998000Y-124066000D03*
X236300944Y-123363056D03*
X235598000Y-121666000D03*
X236300944Y-119968944D03*
X237998000Y-119266000D03*
X239695056Y-119968944D03*
%TD*%
D10*
%TO.C,SC6*%
X176022000Y-121666000D03*
D11*
X178422000Y-121666000D03*
X177719056Y-123363056D03*
X176022000Y-124066000D03*
X174324944Y-123363056D03*
X173622000Y-121666000D03*
X174324944Y-119968944D03*
X176022000Y-119266000D03*
X177719056Y-119968944D03*
%TD*%
D10*
%TO.C,SC7*%
X103378000Y-121666000D03*
D11*
X105778000Y-121666000D03*
X105075056Y-123363056D03*
X103378000Y-124066000D03*
X101680944Y-123363056D03*
X100978000Y-121666000D03*
X101680944Y-119968944D03*
X103378000Y-119266000D03*
X105075056Y-119968944D03*
%TD*%
D10*
%TO.C,SC8*%
X41402000Y-121666000D03*
D11*
X43802000Y-121666000D03*
X43099056Y-123363056D03*
X41402000Y-124066000D03*
X39704944Y-123363056D03*
X39002000Y-121666000D03*
X39704944Y-119968944D03*
X41402000Y-119266000D03*
X43099056Y-119968944D03*
%TD*%
D16*
%TO.C,P3*%
X208280000Y-65405000D03*
X203200000Y-65405000D03*
X203200000Y-62230000D03*
X208280000Y-62230000D03*
D17*
X204724000Y-67310000D03*
X206756000Y-67310000D03*
X205740000Y-62230000D03*
%TD*%
D18*
%TO.C,J1*%
X139700000Y-68580000D03*
D19*
X132715000Y-68580000D03*
X146685000Y-68580000D03*
%TD*%
D11*
%TO.C,SC1*%
X43099056Y-61802944D03*
X41402000Y-61100000D03*
X39704944Y-61802944D03*
X39002000Y-63500000D03*
X39704944Y-65197056D03*
X41402000Y-65900000D03*
X43099056Y-65197056D03*
X43802000Y-63500000D03*
D10*
X41402000Y-63500000D03*
%TD*%
M02*
