M48
; DRILL file {KiCad 5.1.8-db9833491~88~ubuntu20.04.1} date Sun Dec 13 22:35:35 2020
; FORMAT={-:-/ absolute / inch / decimal}
; #@! TF.CreationDate,2020-12-13T22:35:35+05:30
; #@! TF.GenerationSoftware,Kicad,Pcbnew,5.1.8-db9833491~88~ubuntu20.04.1
FMAT,2
INCH
T1C0.0157
T2C0.0197
T3C0.0400
T4C0.1260
T5C0.3200
T6C0.0256
T7C0.0390
T8C0.0630
T9C0.0709
T10C0.0935
T11C0.1250
%
G90
G05
T1
X0.807Y-3.812
X0.807Y-4.062
X0.883Y-3.812
X0.893Y-3.938
X0.893Y-4.189
X1.107Y-4.062
X1.108Y-3.812
X1.2903Y-4.1253
X1.493Y-3.937
X1.493Y-4.188
X1.706Y-3.812
X1.708Y-4.062
X1.75Y-3.415
X1.85Y-3.05
X1.86Y-3.25
X1.8903Y-4.1253
X2.092Y-3.938
X2.093Y-4.188
X2.14Y-3.25
X2.307Y-3.812
X2.307Y-4.062
X2.35Y-2.65
X2.4Y-2.65
X2.45Y-2.65
X2.45Y-4.585
X2.693Y-3.938
X2.694Y-4.188
X2.907Y-3.812
X2.907Y-4.063
X2.95Y-3.05
X2.95Y-3.15
X2.95Y-3.415
X3.069Y-3.15
X3.069Y-3.25
X3.231Y-3.05
X3.293Y-3.938
X3.293Y-4.188
X3.507Y-3.811
X3.507Y-4.062
X3.65Y-4.58
X3.674Y-3.295
X3.737Y-3.241
X3.875Y-2.65
X3.893Y-3.938
X3.893Y-4.188
X3.925Y-2.65
X3.975Y-2.65
X4.107Y-3.812
X4.107Y-4.062
X4.15Y-3.42
X4.25Y-4.585
X4.379Y-2.687
X4.38Y-2.447
X4.4506Y-2.5254
X4.4506Y-2.6084
X4.493Y-3.938
X4.493Y-4.188
X4.707Y-4.062
X4.708Y-3.812
X5.0Y-4.5
X5.093Y-3.938
X5.093Y-4.189
X5.15Y-4.5
X5.1874Y-4.4626
X5.3Y-4.7
X5.3Y-4.8
X5.307Y-3.812
X5.307Y-4.062
X5.692Y-4.188
X5.693Y-3.938
X5.85Y-4.75
X5.9Y-3.047
X5.907Y-3.812
X5.907Y-4.062
X5.95Y-2.725
X5.95Y-2.77
X5.95Y-3.42
X5.955Y-2.595
X5.98Y-4.75
X6.024Y-2.377
X6.175Y-2.8
X6.175Y-2.7536
X6.275Y-2.75
X6.275Y-2.8
X6.293Y-3.938
X6.293Y-4.188
X6.425Y-3.125
X6.425Y-3.075
X6.425Y-3.175
X6.427Y-2.377
X6.45Y-2.72
X6.45Y-2.77
X6.495Y-2.595
X6.507Y-3.812
X6.507Y-4.062
X6.59Y-2.85
X6.65Y-4.585
X6.697Y-3.088
X6.75Y-3.06
X6.85Y-3.06
X6.893Y-3.938
X6.893Y-4.188
X6.898Y-2.788
X6.9014Y-3.0886
X6.925Y-3.4
X7.025Y-3.4
X7.05Y-2.638
X7.05Y-2.85
X7.107Y-3.813
X7.107Y-4.062
X7.15Y-2.638
X7.15Y-3.4
X7.3Y-2.669
X7.3Y-3.375
X7.3Y-3.425
X7.3Y-3.575
X7.3Y-4.512
X7.422Y-3.0888
X7.425Y-2.77
X7.4531Y-3.1199
X7.455Y-3.2
X7.492Y-3.938
X7.492Y-4.188
X7.5Y-4.65
X7.6Y-2.77
X7.625Y-3.575
X7.682Y-3.305
X7.682Y-3.352
X7.707Y-3.812
X7.708Y-4.061
X7.725Y-2.67
X7.725Y-3.575
X7.755Y-3.03
X7.8Y-3.03
X7.85Y-4.58
X7.89Y-3.125
X8.0124Y-3.0924
X8.0124Y-2.9864
X8.015Y-2.72
X8.092Y-3.938
X8.093Y-4.188
X8.193Y-2.672
X8.25Y-3.375
X8.25Y-3.425
X8.25Y-3.475
X8.307Y-3.812
X8.307Y-4.062
X8.525Y-2.55
X8.692Y-3.938
X8.693Y-4.188
X8.86Y-3.25
X8.907Y-3.812
X8.907Y-4.062
X8.97Y-3.42
X9.05Y-4.585
X9.14Y-3.25
X9.293Y-3.938
X9.293Y-4.188
X9.507Y-3.812
X9.507Y-4.062
X9.551Y-3.451
X9.6903Y-4.1253
X9.893Y-3.938
X9.893Y-4.188
X10.107Y-3.812
X10.107Y-4.062
X10.192Y-3.938
X10.192Y-4.188
X10.193Y-3.812
T2
X1.5355Y-4.79
X1.5632Y-4.7232
X1.5632Y-4.8568
X1.63Y-4.6955
X1.63Y-4.8845
X1.6968Y-4.7232
X1.6968Y-4.8568
X1.7245Y-4.79
X1.5355Y-2.5
X1.5632Y-2.4332
X1.5632Y-2.5668
X1.63Y-2.4055
X1.63Y-2.5945
X1.6968Y-2.4332
X1.6968Y-2.5668
X1.7245Y-2.5
X6.8355Y-4.79
X6.8632Y-4.7232
X6.8632Y-4.8568
X6.93Y-4.6955
X6.93Y-4.8845
X6.9968Y-4.7232
X6.9968Y-4.8568
X7.0245Y-4.79
X3.4755Y-2.5
X3.5032Y-2.4332
X3.5032Y-2.5668
X3.57Y-2.4055
X3.57Y-2.5945
X3.6368Y-2.4332
X3.6368Y-2.5668
X3.6645Y-2.5
X9.2755Y-4.79
X9.3032Y-4.7232
X9.3032Y-4.8568
X9.37Y-4.6955
X9.37Y-4.8845
X9.4368Y-4.7232
X9.4368Y-4.8568
X9.4645Y-4.79
X3.9755Y-4.79
X4.0032Y-4.7232
X4.0032Y-4.8568
X4.07Y-4.6955
X4.07Y-4.8845
X4.1368Y-4.7232
X4.1368Y-4.8568
X4.1645Y-4.79
X7.3355Y-2.5
X7.3632Y-2.4332
X7.3632Y-2.5668
X7.43Y-2.4055
X7.43Y-2.5945
X7.4968Y-2.4332
X7.4968Y-2.5668
X7.5245Y-2.5
X9.2755Y-2.5
X9.3032Y-2.4332
X9.3032Y-2.5668
X9.37Y-2.4055
X9.37Y-2.5945
X9.4368Y-2.4332
X9.4368Y-2.5668
X9.4645Y-2.5
T3
X5.225Y-2.7
X5.775Y-2.7
T4
X7.43Y-2.5
X9.37Y-2.5
X1.63Y-4.79
X1.63Y-2.5
X6.93Y-4.79
X3.57Y-2.5
X9.37Y-4.79
X4.07Y-4.79
T5
X5.5Y-2.7
T6
X6.1112Y-2.575
X6.3388Y-2.575
T7
X8.06Y-2.65
X8.1Y-2.45
X8.14Y-2.65
T8
X4.675Y-2.4469
T9
X4.675Y-2.624
T10
X8.0Y-2.45
X8.0Y-2.575
X8.2Y-2.45
X8.2Y-2.575
T11
X5.65Y-4.45
X5.65Y-4.85
X5.475Y-4.475
X5.475Y-4.825
T0
M30
