M48
; DRILL file {KiCad 5.1.7-a382d34a8~87~ubuntu20.04.1} date Thu Nov  5 16:16:50 2020
; FORMAT={-:-/ absolute / inch / decimal}
; #@! TF.CreationDate,2020-11-05T16:16:50+05:30
; #@! TF.GenerationSoftware,Kicad,Pcbnew,5.1.7-a382d34a8~87~ubuntu20.04.1
FMAT,2
INCH
T1C0.0157
T2C0.0197
T3C0.1260
T4C0.0256
T5C0.0630
T6C0.0709
T7C0.1250
%
G90
G05
T1
X0.85Y-4.0
X0.956Y-3.904
X1.15Y-4.0
X1.213Y-3.85
X1.513Y-3.85
X1.68Y-4.41
X1.814Y-3.85
X2.113Y-3.85
X2.155Y-3.693
X2.285Y-3.693
X2.413Y-3.85
X2.713Y-3.85
X3.013Y-3.85
X3.2Y-4.41
X3.313Y-3.85
X3.613Y-3.85
X3.913Y-3.85
X4.213Y-3.85
X4.22Y-3.13
X4.258Y-3.4075
X4.31Y-3.13
X4.3625Y-3.4075
X4.513Y-3.85
X4.68Y-4.41
X4.724Y-2.557
X4.725Y-2.317
X4.7326Y-3.3806
X4.795Y-2.636
X4.796Y-2.238
X4.813Y-3.85
X4.87Y-3.438
X4.925Y-3.361
X5.113Y-3.85
X5.414Y-3.85
X5.62Y-2.56
X5.65Y-4.774
X5.65Y-4.9
X5.65Y-5.026
X5.71Y-2.41
X5.71Y-2.56
X5.713Y-3.85
X5.805Y-2.5
X5.805Y-2.545
X5.85Y-2.5
X5.901Y-5.493
X5.935Y-2.575
X5.935Y-2.635
X6.014Y-3.85
X6.02Y-2.575
X6.02Y-2.635
X6.145Y-2.5
X6.174Y-2.91
X6.174Y-2.96
X6.174Y-3.01
X6.18Y-4.411
X6.19Y-2.5
X6.19Y-2.545
X6.25Y-2.41
X6.25Y-2.55
X6.313Y-3.85
X6.56Y-3.189
X6.613Y-3.139
X6.613Y-3.85
X6.6135Y-3.065
X6.788Y-4.52
X6.822Y-4.481
X6.913Y-3.85
X6.926Y-3.14
X6.978Y-2.764
X6.98Y-2.58
X6.9805Y-3.1885
X7.01Y-3.651
X7.068Y-3.136
X7.074Y-2.58
X7.074Y-2.71
X7.11Y-3.651
X7.205Y-3.734
X7.213Y-3.85
X7.236Y-3.159
X7.237Y-3.346
X7.261Y-3.734
X7.315Y-3.734
X7.461Y-4.469
X7.4798Y-3.5178
X7.503Y-3.294
X7.513Y-3.85
X7.53Y-3.525
X7.5528Y-3.2742
X7.554Y-3.37
X7.5843Y-3.2427
X7.6Y-3.04
X7.616Y-3.37
X7.69Y-4.411
X7.706Y-3.543
X7.7224Y-3.6874
X7.762Y-2.893
X7.7994Y-3.6874
X7.813Y-3.85
X7.834Y-2.973
X7.8724Y-3.6874
X7.997Y-3.385
X8.114Y-3.85
X8.295Y-3.43
X8.413Y-3.85
X8.552Y-3.318
X8.713Y-3.85
X8.811Y-3.65
X9.013Y-3.85
X9.08Y-3.65
X9.18Y-4.411
X9.313Y-3.85
X9.613Y-3.85
X9.913Y-3.85
X10.215Y-3.85
T2
X3.3746Y-2.7063
X3.4022Y-2.6395
X3.4022Y-2.7732
X3.4691Y-2.6119
X3.4691Y-2.8008
X3.5359Y-2.6395
X3.5359Y-2.7732
X3.5635Y-2.7063
X7.4365Y-2.7063
X7.4641Y-2.6395
X7.4641Y-2.7732
X7.5309Y-2.6119
X7.5309Y-2.8008
X7.5978Y-2.6395
X7.5978Y-2.7732
X7.6254Y-2.7063
X9.9206Y-3.627
X9.9483Y-3.5602
X9.9483Y-3.6938
X10.0151Y-3.5325
X10.0151Y-3.7215
X10.0819Y-3.5602
X10.0819Y-3.6938
X10.1096Y-3.627
X0.8904Y-3.627
X0.9181Y-3.5602
X0.9181Y-3.6938
X0.9849Y-3.5325
X0.9849Y-3.7215
X1.0517Y-3.5602
X1.0517Y-3.6938
X1.0794Y-3.627
X3.3746Y-5.2937
X3.4022Y-5.2268
X3.4022Y-5.3605
X3.4691Y-5.1992
X3.4691Y-5.3881
X3.5359Y-5.2268
X3.5359Y-5.3605
X3.5635Y-5.2937
X7.4365Y-5.2937
X7.4641Y-5.2268
X7.4641Y-5.3605
X7.5309Y-5.1992
X7.5309Y-5.3881
X7.5978Y-5.2268
X7.5978Y-5.3605
X7.6254Y-5.2937
X9.9206Y-4.373
X9.9483Y-4.3062
X9.9483Y-4.4398
X10.0151Y-4.2785
X10.0151Y-4.4675
X10.0819Y-4.3062
X10.0819Y-4.4398
X10.1096Y-4.373
X0.8904Y-4.373
X0.9181Y-4.3062
X0.9181Y-4.4398
X0.9849Y-4.2785
X0.9849Y-4.4675
X1.0517Y-4.3062
X1.0517Y-4.4398
X1.0794Y-4.373
T3
X3.4691Y-2.7063
X7.5309Y-2.7063
X10.0151Y-3.627
X0.9849Y-3.627
X3.4691Y-5.2937
X7.5309Y-5.2937
X10.0151Y-4.373
X0.9849Y-4.373
T4
X5.8662Y-2.39
X6.0938Y-2.39
T5
X5.02Y-2.3169
T6
X5.02Y-2.494
T7
X5.3Y-5.55
X5.7Y-5.55
T0
M30
