%TF.GenerationSoftware,KiCad,Pcbnew,5.1.8-db9833491~88~ubuntu20.04.1*%
%TF.CreationDate,2020-12-13T16:07:54+05:30*%
%TF.ProjectId,halo,68616c6f-2e6b-4696-9361-645f70636258,v1*%
%TF.SameCoordinates,Original*%
%TF.FileFunction,Paste,Top*%
%TF.FilePolarity,Positive*%
%FSLAX46Y46*%
G04 Gerber Fmt 4.6, Leading zero omitted, Abs format (unit mm)*
G04 Created by KiCad (PCBNEW 5.1.8-db9833491~88~ubuntu20.04.1) date 2020-12-13 16:07:54*
%MOMM*%
%LPD*%
G01*
G04 APERTURE LIST*
%ADD10R,2.400000X2.800000*%
%ADD11R,1.905000X1.016000*%
%ADD12R,2.180000X2.000000*%
%ADD13R,0.300000X1.150000*%
%ADD14R,0.600000X1.150000*%
%ADD15R,2.000000X3.800000*%
%ADD16R,2.000000X1.500000*%
%ADD17R,1.500000X1.000000*%
%ADD18R,2.300000X2.500000*%
%ADD19C,1.000000*%
%ADD20R,2.540000X1.016000*%
%ADD21R,1.016000X2.540000*%
%ADD22C,0.100000*%
%ADD23R,1.200000X1.400000*%
%ADD24R,3.150000X1.000000*%
%ADD25R,2.500000X2.300000*%
%ADD26R,1.000000X3.150000*%
%ADD27R,1.550000X1.300000*%
G04 APERTURE END LIST*
%TO.C,C17*%
G36*
G01*
X150335000Y-79001200D02*
X149385000Y-79001200D01*
G75*
G02*
X149135000Y-78751200I0J250000D01*
G01*
X149135000Y-78251200D01*
G75*
G02*
X149385000Y-78001200I250000J0D01*
G01*
X150335000Y-78001200D01*
G75*
G02*
X150585000Y-78251200I0J-250000D01*
G01*
X150585000Y-78751200D01*
G75*
G02*
X150335000Y-79001200I-250000J0D01*
G01*
G37*
G36*
G01*
X150335000Y-80901200D02*
X149385000Y-80901200D01*
G75*
G02*
X149135000Y-80651200I0J250000D01*
G01*
X149135000Y-80151200D01*
G75*
G02*
X149385000Y-79901200I250000J0D01*
G01*
X150335000Y-79901200D01*
G75*
G02*
X150585000Y-80151200I0J-250000D01*
G01*
X150585000Y-80651200D01*
G75*
G02*
X150335000Y-80901200I-250000J0D01*
G01*
G37*
%TD*%
D10*
%TO.C,J3*%
X124445000Y-68250000D03*
X124445000Y-62150000D03*
X113045000Y-62150000D03*
X113045000Y-68250000D03*
%TD*%
D11*
%TO.C,P7*%
X150241000Y-113030000D03*
X146939000Y-115570000D03*
X150241000Y-118110000D03*
X146939000Y-120650000D03*
X150241000Y-123190000D03*
X146939000Y-123190000D03*
X150241000Y-120650000D03*
X146939000Y-118110000D03*
X150241000Y-115570000D03*
X146939000Y-113030000D03*
%TD*%
%TO.C,P5*%
X128651000Y-124460000D03*
X125349000Y-121920000D03*
X128651000Y-119380000D03*
X125349000Y-116840000D03*
X128651000Y-114300000D03*
X125349000Y-111760000D03*
X128651000Y-111760000D03*
X125349000Y-114300000D03*
X128651000Y-116840000D03*
X125349000Y-119380000D03*
X128651000Y-121920000D03*
X125349000Y-124460000D03*
%TD*%
D12*
%TO.C,J2*%
X153005000Y-61975000D03*
X163225000Y-61975000D03*
X153005000Y-65905000D03*
X163225000Y-65905000D03*
D13*
X157865000Y-66480000D03*
X158365000Y-66480000D03*
X157365000Y-66480000D03*
X158865000Y-66480000D03*
X156865000Y-66480000D03*
X159365000Y-66480000D03*
X156365000Y-66480000D03*
X159865000Y-66480000D03*
D14*
X154915000Y-66480000D03*
X155715000Y-66480000D03*
X160515000Y-66480000D03*
X161315000Y-66480000D03*
%TD*%
%TO.C,C20*%
G36*
G01*
X176055000Y-70300000D02*
X177005000Y-70300000D01*
G75*
G02*
X177255000Y-70550000I0J-250000D01*
G01*
X177255000Y-71050000D01*
G75*
G02*
X177005000Y-71300000I-250000J0D01*
G01*
X176055000Y-71300000D01*
G75*
G02*
X175805000Y-71050000I0J250000D01*
G01*
X175805000Y-70550000D01*
G75*
G02*
X176055000Y-70300000I250000J0D01*
G01*
G37*
G36*
G01*
X176055000Y-68400000D02*
X177005000Y-68400000D01*
G75*
G02*
X177255000Y-68650000I0J-250000D01*
G01*
X177255000Y-69150000D01*
G75*
G02*
X177005000Y-69400000I-250000J0D01*
G01*
X176055000Y-69400000D01*
G75*
G02*
X175805000Y-69150000I0J250000D01*
G01*
X175805000Y-68650000D01*
G75*
G02*
X176055000Y-68400000I250000J0D01*
G01*
G37*
%TD*%
D15*
%TO.C,U2*%
X87020000Y-80010000D03*
D16*
X93320000Y-80010000D03*
X93320000Y-77710000D03*
X93320000Y-82310000D03*
%TD*%
%TO.C,R8*%
G36*
G01*
X199332002Y-65386000D02*
X198431998Y-65386000D01*
G75*
G02*
X198182000Y-65136002I0J249998D01*
G01*
X198182000Y-64610998D01*
G75*
G02*
X198431998Y-64361000I249998J0D01*
G01*
X199332002Y-64361000D01*
G75*
G02*
X199582000Y-64610998I0J-249998D01*
G01*
X199582000Y-65136002D01*
G75*
G02*
X199332002Y-65386000I-249998J0D01*
G01*
G37*
G36*
G01*
X199332002Y-67211000D02*
X198431998Y-67211000D01*
G75*
G02*
X198182000Y-66961002I0J249998D01*
G01*
X198182000Y-66435998D01*
G75*
G02*
X198431998Y-66186000I249998J0D01*
G01*
X199332002Y-66186000D01*
G75*
G02*
X199582000Y-66435998I0J-249998D01*
G01*
X199582000Y-66961002D01*
G75*
G02*
X199332002Y-67211000I-249998J0D01*
G01*
G37*
%TD*%
D17*
%TO.C,D2*%
X24040000Y-106375000D03*
X24040000Y-103175000D03*
X19140000Y-106375000D03*
X19140000Y-103175000D03*
%TD*%
D18*
%TO.C,D33*%
X145415000Y-80400000D03*
X145415000Y-84700000D03*
%TD*%
%TO.C,C11*%
G36*
G01*
X43975000Y-89350000D02*
X44925000Y-89350000D01*
G75*
G02*
X45175000Y-89600000I0J-250000D01*
G01*
X45175000Y-90100000D01*
G75*
G02*
X44925000Y-90350000I-250000J0D01*
G01*
X43975000Y-90350000D01*
G75*
G02*
X43725000Y-90100000I0J250000D01*
G01*
X43725000Y-89600000D01*
G75*
G02*
X43975000Y-89350000I250000J0D01*
G01*
G37*
G36*
G01*
X43975000Y-87450000D02*
X44925000Y-87450000D01*
G75*
G02*
X45175000Y-87700000I0J-250000D01*
G01*
X45175000Y-88200000D01*
G75*
G02*
X44925000Y-88450000I-250000J0D01*
G01*
X43975000Y-88450000D01*
G75*
G02*
X43725000Y-88200000I0J250000D01*
G01*
X43725000Y-87700000D01*
G75*
G02*
X43975000Y-87450000I250000J0D01*
G01*
G37*
%TD*%
%TO.C,C18*%
G36*
G01*
X133825000Y-113850000D02*
X132875000Y-113850000D01*
G75*
G02*
X132625000Y-113600000I0J250000D01*
G01*
X132625000Y-113100000D01*
G75*
G02*
X132875000Y-112850000I250000J0D01*
G01*
X133825000Y-112850000D01*
G75*
G02*
X134075000Y-113100000I0J-250000D01*
G01*
X134075000Y-113600000D01*
G75*
G02*
X133825000Y-113850000I-250000J0D01*
G01*
G37*
G36*
G01*
X133825000Y-115750000D02*
X132875000Y-115750000D01*
G75*
G02*
X132625000Y-115500000I0J250000D01*
G01*
X132625000Y-115000000D01*
G75*
G02*
X132875000Y-114750000I250000J0D01*
G01*
X133825000Y-114750000D01*
G75*
G02*
X134075000Y-115000000I0J-250000D01*
G01*
X134075000Y-115500000D01*
G75*
G02*
X133825000Y-115750000I-250000J0D01*
G01*
G37*
%TD*%
%TO.C,C10*%
G36*
G01*
X213545000Y-64295000D02*
X213545000Y-65245000D01*
G75*
G02*
X213295000Y-65495000I-250000J0D01*
G01*
X212795000Y-65495000D01*
G75*
G02*
X212545000Y-65245000I0J250000D01*
G01*
X212545000Y-64295000D01*
G75*
G02*
X212795000Y-64045000I250000J0D01*
G01*
X213295000Y-64045000D01*
G75*
G02*
X213545000Y-64295000I0J-250000D01*
G01*
G37*
G36*
G01*
X215445000Y-64295000D02*
X215445000Y-65245000D01*
G75*
G02*
X215195000Y-65495000I-250000J0D01*
G01*
X214695000Y-65495000D01*
G75*
G02*
X214445000Y-65245000I0J250000D01*
G01*
X214445000Y-64295000D01*
G75*
G02*
X214695000Y-64045000I250000J0D01*
G01*
X215195000Y-64045000D01*
G75*
G02*
X215445000Y-64295000I0J-250000D01*
G01*
G37*
%TD*%
%TO.C,C6*%
G36*
G01*
X202115000Y-73312000D02*
X202115000Y-74262000D01*
G75*
G02*
X201865000Y-74512000I-250000J0D01*
G01*
X201365000Y-74512000D01*
G75*
G02*
X201115000Y-74262000I0J250000D01*
G01*
X201115000Y-73312000D01*
G75*
G02*
X201365000Y-73062000I250000J0D01*
G01*
X201865000Y-73062000D01*
G75*
G02*
X202115000Y-73312000I0J-250000D01*
G01*
G37*
G36*
G01*
X204015000Y-73312000D02*
X204015000Y-74262000D01*
G75*
G02*
X203765000Y-74512000I-250000J0D01*
G01*
X203265000Y-74512000D01*
G75*
G02*
X203015000Y-74262000I0J250000D01*
G01*
X203015000Y-73312000D01*
G75*
G02*
X203265000Y-73062000I250000J0D01*
G01*
X203765000Y-73062000D01*
G75*
G02*
X204015000Y-73312000I0J-250000D01*
G01*
G37*
%TD*%
%TO.C,C9*%
G36*
G01*
X168435000Y-70300000D02*
X169385000Y-70300000D01*
G75*
G02*
X169635000Y-70550000I0J-250000D01*
G01*
X169635000Y-71050000D01*
G75*
G02*
X169385000Y-71300000I-250000J0D01*
G01*
X168435000Y-71300000D01*
G75*
G02*
X168185000Y-71050000I0J250000D01*
G01*
X168185000Y-70550000D01*
G75*
G02*
X168435000Y-70300000I250000J0D01*
G01*
G37*
G36*
G01*
X168435000Y-68400000D02*
X169385000Y-68400000D01*
G75*
G02*
X169635000Y-68650000I0J-250000D01*
G01*
X169635000Y-69150000D01*
G75*
G02*
X169385000Y-69400000I-250000J0D01*
G01*
X168435000Y-69400000D01*
G75*
G02*
X168185000Y-69150000I0J250000D01*
G01*
X168185000Y-68650000D01*
G75*
G02*
X168435000Y-68400000I250000J0D01*
G01*
G37*
%TD*%
%TO.C,R1*%
G36*
G01*
X178619998Y-70250000D02*
X179520002Y-70250000D01*
G75*
G02*
X179770000Y-70499998I0J-249998D01*
G01*
X179770000Y-71025002D01*
G75*
G02*
X179520002Y-71275000I-249998J0D01*
G01*
X178619998Y-71275000D01*
G75*
G02*
X178370000Y-71025002I0J249998D01*
G01*
X178370000Y-70499998D01*
G75*
G02*
X178619998Y-70250000I249998J0D01*
G01*
G37*
G36*
G01*
X178619998Y-68425000D02*
X179520002Y-68425000D01*
G75*
G02*
X179770000Y-68674998I0J-249998D01*
G01*
X179770000Y-69200002D01*
G75*
G02*
X179520002Y-69450000I-249998J0D01*
G01*
X178619998Y-69450000D01*
G75*
G02*
X178370000Y-69200002I0J249998D01*
G01*
X178370000Y-68674998D01*
G75*
G02*
X178619998Y-68425000I249998J0D01*
G01*
G37*
%TD*%
D19*
%TO.C,B1*%
X184034216Y-83050523D03*
%TD*%
%TO.C,B2*%
X185291451Y-84307759D03*
%TD*%
%TO.C,B3*%
X183585203Y-75058095D03*
%TD*%
%TO.C,B4*%
X183764808Y-76674541D03*
%TD*%
%TO.C,B5*%
X183854610Y-80715656D03*
%TD*%
%TO.C,B6*%
X184842439Y-81703485D03*
%TD*%
%TO.C,B7*%
X186997700Y-73441649D03*
%TD*%
%TO.C,B8*%
X185201649Y-75237700D03*
%TD*%
%TO.C,B9*%
X186997700Y-83679141D03*
%TD*%
%TO.C,B10*%
X187985528Y-84666969D03*
%TD*%
%TO.C,B11*%
X188973356Y-85654797D03*
%TD*%
%TO.C,B12*%
X190949013Y-85475192D03*
%TD*%
%TO.C,B13*%
X196696377Y-75596910D03*
%TD*%
%TO.C,B14*%
X196516772Y-74160069D03*
%TD*%
%TO.C,B15*%
X195079931Y-73980464D03*
%TD*%
%TO.C,B16*%
X194900325Y-72543623D03*
%TD*%
%TO.C,B17*%
X193194077Y-72453821D03*
%TD*%
%TO.C,B18*%
X191770000Y-71120000D03*
%TD*%
%TO.C,B19*%
X188595000Y-71755000D03*
%TD*%
%TO.C,C2*%
G36*
G01*
X185895000Y-69400000D02*
X184945000Y-69400000D01*
G75*
G02*
X184695000Y-69150000I0J250000D01*
G01*
X184695000Y-68650000D01*
G75*
G02*
X184945000Y-68400000I250000J0D01*
G01*
X185895000Y-68400000D01*
G75*
G02*
X186145000Y-68650000I0J-250000D01*
G01*
X186145000Y-69150000D01*
G75*
G02*
X185895000Y-69400000I-250000J0D01*
G01*
G37*
G36*
G01*
X185895000Y-71300000D02*
X184945000Y-71300000D01*
G75*
G02*
X184695000Y-71050000I0J250000D01*
G01*
X184695000Y-70550000D01*
G75*
G02*
X184945000Y-70300000I250000J0D01*
G01*
X185895000Y-70300000D01*
G75*
G02*
X186145000Y-70550000I0J-250000D01*
G01*
X186145000Y-71050000D01*
G75*
G02*
X185895000Y-71300000I-250000J0D01*
G01*
G37*
%TD*%
%TO.C,C3*%
G36*
G01*
X195740000Y-89350000D02*
X196690000Y-89350000D01*
G75*
G02*
X196940000Y-89600000I0J-250000D01*
G01*
X196940000Y-90100000D01*
G75*
G02*
X196690000Y-90350000I-250000J0D01*
G01*
X195740000Y-90350000D01*
G75*
G02*
X195490000Y-90100000I0J250000D01*
G01*
X195490000Y-89600000D01*
G75*
G02*
X195740000Y-89350000I250000J0D01*
G01*
G37*
G36*
G01*
X195740000Y-87450000D02*
X196690000Y-87450000D01*
G75*
G02*
X196940000Y-87700000I0J-250000D01*
G01*
X196940000Y-88200000D01*
G75*
G02*
X196690000Y-88450000I-250000J0D01*
G01*
X195740000Y-88450000D01*
G75*
G02*
X195490000Y-88200000I0J250000D01*
G01*
X195490000Y-87700000D01*
G75*
G02*
X195740000Y-87450000I250000J0D01*
G01*
G37*
%TD*%
%TO.C,C4*%
G36*
G01*
X193200000Y-89350000D02*
X194150000Y-89350000D01*
G75*
G02*
X194400000Y-89600000I0J-250000D01*
G01*
X194400000Y-90100000D01*
G75*
G02*
X194150000Y-90350000I-250000J0D01*
G01*
X193200000Y-90350000D01*
G75*
G02*
X192950000Y-90100000I0J250000D01*
G01*
X192950000Y-89600000D01*
G75*
G02*
X193200000Y-89350000I250000J0D01*
G01*
G37*
G36*
G01*
X193200000Y-87450000D02*
X194150000Y-87450000D01*
G75*
G02*
X194400000Y-87700000I0J-250000D01*
G01*
X194400000Y-88200000D01*
G75*
G02*
X194150000Y-88450000I-250000J0D01*
G01*
X193200000Y-88450000D01*
G75*
G02*
X192950000Y-88200000I0J250000D01*
G01*
X192950000Y-87700000D01*
G75*
G02*
X193200000Y-87450000I250000J0D01*
G01*
G37*
%TD*%
%TO.C,C5*%
G36*
G01*
X203015000Y-80739000D02*
X203015000Y-79789000D01*
G75*
G02*
X203265000Y-79539000I250000J0D01*
G01*
X203765000Y-79539000D01*
G75*
G02*
X204015000Y-79789000I0J-250000D01*
G01*
X204015000Y-80739000D01*
G75*
G02*
X203765000Y-80989000I-250000J0D01*
G01*
X203265000Y-80989000D01*
G75*
G02*
X203015000Y-80739000I0J250000D01*
G01*
G37*
G36*
G01*
X201115000Y-80739000D02*
X201115000Y-79789000D01*
G75*
G02*
X201365000Y-79539000I250000J0D01*
G01*
X201865000Y-79539000D01*
G75*
G02*
X202115000Y-79789000I0J-250000D01*
G01*
X202115000Y-80739000D01*
G75*
G02*
X201865000Y-80989000I-250000J0D01*
G01*
X201365000Y-80989000D01*
G75*
G02*
X201115000Y-80739000I0J250000D01*
G01*
G37*
%TD*%
%TO.C,C8*%
G36*
G01*
X79560000Y-79535000D02*
X79560000Y-80485000D01*
G75*
G02*
X79310000Y-80735000I-250000J0D01*
G01*
X78810000Y-80735000D01*
G75*
G02*
X78560000Y-80485000I0J250000D01*
G01*
X78560000Y-79535000D01*
G75*
G02*
X78810000Y-79285000I250000J0D01*
G01*
X79310000Y-79285000D01*
G75*
G02*
X79560000Y-79535000I0J-250000D01*
G01*
G37*
G36*
G01*
X81460000Y-79535000D02*
X81460000Y-80485000D01*
G75*
G02*
X81210000Y-80735000I-250000J0D01*
G01*
X80710000Y-80735000D01*
G75*
G02*
X80460000Y-80485000I0J250000D01*
G01*
X80460000Y-79535000D01*
G75*
G02*
X80710000Y-79285000I250000J0D01*
G01*
X81210000Y-79285000D01*
G75*
G02*
X81460000Y-79535000I0J-250000D01*
G01*
G37*
%TD*%
D17*
%TO.C,D3*%
X31660000Y-106375000D03*
X31660000Y-103175000D03*
X26760000Y-106375000D03*
X26760000Y-103175000D03*
%TD*%
%TO.C,D4*%
X31660000Y-100025000D03*
X31660000Y-96825000D03*
X26760000Y-100025000D03*
X26760000Y-96825000D03*
%TD*%
%TO.C,D10*%
X49620000Y-103175000D03*
X49620000Y-106375000D03*
X54520000Y-103175000D03*
X54520000Y-106375000D03*
%TD*%
%TO.C,D11*%
X62140000Y-106375000D03*
X62140000Y-103175000D03*
X57240000Y-106375000D03*
X57240000Y-103175000D03*
%TD*%
%TO.C,D17*%
X80100000Y-96825000D03*
X80100000Y-100025000D03*
X85000000Y-96825000D03*
X85000000Y-100025000D03*
%TD*%
%TO.C,D18*%
X80100000Y-103175000D03*
X80100000Y-106375000D03*
X85000000Y-103175000D03*
X85000000Y-106375000D03*
%TD*%
%TO.C,D19*%
X92620000Y-106375000D03*
X92620000Y-103175000D03*
X87720000Y-106375000D03*
X87720000Y-103175000D03*
%TD*%
%TO.C,D20*%
X92620000Y-100025000D03*
X92620000Y-96825000D03*
X87720000Y-100025000D03*
X87720000Y-96825000D03*
%TD*%
%TO.C,D21*%
X95340000Y-96825000D03*
X95340000Y-100025000D03*
X100240000Y-96825000D03*
X100240000Y-100025000D03*
%TD*%
%TO.C,D22*%
X95340000Y-103175000D03*
X95340000Y-106375000D03*
X100240000Y-103175000D03*
X100240000Y-106375000D03*
%TD*%
%TO.C,D23*%
X107860000Y-106375000D03*
X107860000Y-103175000D03*
X102960000Y-106375000D03*
X102960000Y-103175000D03*
%TD*%
%TO.C,D28*%
X123100000Y-100025000D03*
X123100000Y-96825000D03*
X118200000Y-100025000D03*
X118200000Y-96825000D03*
%TD*%
%TO.C,D29*%
X125820000Y-96825000D03*
X125820000Y-100025000D03*
X130720000Y-96825000D03*
X130720000Y-100025000D03*
%TD*%
%TO.C,D30*%
X125820000Y-103175000D03*
X125820000Y-106375000D03*
X130720000Y-103175000D03*
X130720000Y-106375000D03*
%TD*%
%TO.C,D35*%
G36*
G01*
X81435000Y-77013750D02*
X81435000Y-77926250D01*
G75*
G02*
X81191250Y-78170000I-243750J0D01*
G01*
X80703750Y-78170000D01*
G75*
G02*
X80460000Y-77926250I0J243750D01*
G01*
X80460000Y-77013750D01*
G75*
G02*
X80703750Y-76770000I243750J0D01*
G01*
X81191250Y-76770000D01*
G75*
G02*
X81435000Y-77013750I0J-243750D01*
G01*
G37*
G36*
G01*
X79560000Y-77013750D02*
X79560000Y-77926250D01*
G75*
G02*
X79316250Y-78170000I-243750J0D01*
G01*
X78828750Y-78170000D01*
G75*
G02*
X78585000Y-77926250I0J243750D01*
G01*
X78585000Y-77013750D01*
G75*
G02*
X78828750Y-76770000I243750J0D01*
G01*
X79316250Y-76770000D01*
G75*
G02*
X79560000Y-77013750I0J-243750D01*
G01*
G37*
%TD*%
%TO.C,D36*%
G36*
G01*
X196671250Y-67211000D02*
X195758750Y-67211000D01*
G75*
G02*
X195515000Y-66967250I0J243750D01*
G01*
X195515000Y-66479750D01*
G75*
G02*
X195758750Y-66236000I243750J0D01*
G01*
X196671250Y-66236000D01*
G75*
G02*
X196915000Y-66479750I0J-243750D01*
G01*
X196915000Y-66967250D01*
G75*
G02*
X196671250Y-67211000I-243750J0D01*
G01*
G37*
G36*
G01*
X196671250Y-65336000D02*
X195758750Y-65336000D01*
G75*
G02*
X195515000Y-65092250I0J243750D01*
G01*
X195515000Y-64604750D01*
G75*
G02*
X195758750Y-64361000I243750J0D01*
G01*
X196671250Y-64361000D01*
G75*
G02*
X196915000Y-64604750I0J-243750D01*
G01*
X196915000Y-65092250D01*
G75*
G02*
X196671250Y-65336000I-243750J0D01*
G01*
G37*
%TD*%
D20*
%TO.C,P1*%
X49149000Y-82550000D03*
X52451000Y-80010000D03*
X49149000Y-77470000D03*
X52451000Y-74930000D03*
X52451000Y-82550000D03*
X52451000Y-77470000D03*
X49149000Y-80010000D03*
X49149000Y-74930000D03*
%TD*%
D21*
%TO.C,P2*%
X168910000Y-61849000D03*
X171450000Y-65151000D03*
X173990000Y-61849000D03*
X176530000Y-65151000D03*
X179070000Y-61849000D03*
X181610000Y-65151000D03*
X181610000Y-61849000D03*
X176530000Y-61849000D03*
X171450000Y-61849000D03*
X179070000Y-65151000D03*
X173990000Y-65151000D03*
X168910000Y-65151000D03*
%TD*%
%TO.C,R2*%
G36*
G01*
X176345002Y-88500000D02*
X175444998Y-88500000D01*
G75*
G02*
X175195000Y-88250002I0J249998D01*
G01*
X175195000Y-87724998D01*
G75*
G02*
X175444998Y-87475000I249998J0D01*
G01*
X176345002Y-87475000D01*
G75*
G02*
X176595000Y-87724998I0J-249998D01*
G01*
X176595000Y-88250002D01*
G75*
G02*
X176345002Y-88500000I-249998J0D01*
G01*
G37*
G36*
G01*
X176345002Y-90325000D02*
X175444998Y-90325000D01*
G75*
G02*
X175195000Y-90075002I0J249998D01*
G01*
X175195000Y-89549998D01*
G75*
G02*
X175444998Y-89300000I249998J0D01*
G01*
X176345002Y-89300000D01*
G75*
G02*
X176595000Y-89549998I0J-249998D01*
G01*
X176595000Y-90075002D01*
G75*
G02*
X176345002Y-90325000I-249998J0D01*
G01*
G37*
%TD*%
%TO.C,R3*%
G36*
G01*
X178885002Y-88500000D02*
X177984998Y-88500000D01*
G75*
G02*
X177735000Y-88250002I0J249998D01*
G01*
X177735000Y-87724998D01*
G75*
G02*
X177984998Y-87475000I249998J0D01*
G01*
X178885002Y-87475000D01*
G75*
G02*
X179135000Y-87724998I0J-249998D01*
G01*
X179135000Y-88250002D01*
G75*
G02*
X178885002Y-88500000I-249998J0D01*
G01*
G37*
G36*
G01*
X178885002Y-90325000D02*
X177984998Y-90325000D01*
G75*
G02*
X177735000Y-90075002I0J249998D01*
G01*
X177735000Y-89549998D01*
G75*
G02*
X177984998Y-89300000I249998J0D01*
G01*
X178885002Y-89300000D01*
G75*
G02*
X179135000Y-89549998I0J-249998D01*
G01*
X179135000Y-90075002D01*
G75*
G02*
X178885002Y-90325000I-249998J0D01*
G01*
G37*
%TD*%
%TO.C,R4*%
G36*
G01*
X191585002Y-88500000D02*
X190684998Y-88500000D01*
G75*
G02*
X190435000Y-88250002I0J249998D01*
G01*
X190435000Y-87724998D01*
G75*
G02*
X190684998Y-87475000I249998J0D01*
G01*
X191585002Y-87475000D01*
G75*
G02*
X191835000Y-87724998I0J-249998D01*
G01*
X191835000Y-88250002D01*
G75*
G02*
X191585002Y-88500000I-249998J0D01*
G01*
G37*
G36*
G01*
X191585002Y-90325000D02*
X190684998Y-90325000D01*
G75*
G02*
X190435000Y-90075002I0J249998D01*
G01*
X190435000Y-89549998D01*
G75*
G02*
X190684998Y-89300000I249998J0D01*
G01*
X191585002Y-89300000D01*
G75*
G02*
X191835000Y-89549998I0J-249998D01*
G01*
X191835000Y-90075002D01*
G75*
G02*
X191585002Y-90325000I-249998J0D01*
G01*
G37*
%TD*%
%TO.C,R5*%
G36*
G01*
X166185002Y-80245000D02*
X165284998Y-80245000D01*
G75*
G02*
X165035000Y-79995002I0J249998D01*
G01*
X165035000Y-79469998D01*
G75*
G02*
X165284998Y-79220000I249998J0D01*
G01*
X166185002Y-79220000D01*
G75*
G02*
X166435000Y-79469998I0J-249998D01*
G01*
X166435000Y-79995002D01*
G75*
G02*
X166185002Y-80245000I-249998J0D01*
G01*
G37*
G36*
G01*
X166185002Y-82070000D02*
X165284998Y-82070000D01*
G75*
G02*
X165035000Y-81820002I0J249998D01*
G01*
X165035000Y-81294998D01*
G75*
G02*
X165284998Y-81045000I249998J0D01*
G01*
X166185002Y-81045000D01*
G75*
G02*
X166435000Y-81294998I0J-249998D01*
G01*
X166435000Y-81820002D01*
G75*
G02*
X166185002Y-82070000I-249998J0D01*
G01*
G37*
%TD*%
%TO.C,R6*%
G36*
G01*
X165284998Y-77235000D02*
X166185002Y-77235000D01*
G75*
G02*
X166435000Y-77484998I0J-249998D01*
G01*
X166435000Y-78010002D01*
G75*
G02*
X166185002Y-78260000I-249998J0D01*
G01*
X165284998Y-78260000D01*
G75*
G02*
X165035000Y-78010002I0J249998D01*
G01*
X165035000Y-77484998D01*
G75*
G02*
X165284998Y-77235000I249998J0D01*
G01*
G37*
G36*
G01*
X165284998Y-75410000D02*
X166185002Y-75410000D01*
G75*
G02*
X166435000Y-75659998I0J-249998D01*
G01*
X166435000Y-76185002D01*
G75*
G02*
X166185002Y-76435000I-249998J0D01*
G01*
X165284998Y-76435000D01*
G75*
G02*
X165035000Y-76185002I0J249998D01*
G01*
X165035000Y-75659998D01*
G75*
G02*
X165284998Y-75410000I249998J0D01*
G01*
G37*
%TD*%
%TO.C,R7*%
G36*
G01*
X79610000Y-74479998D02*
X79610000Y-75380002D01*
G75*
G02*
X79360002Y-75630000I-249998J0D01*
G01*
X78834998Y-75630000D01*
G75*
G02*
X78585000Y-75380002I0J249998D01*
G01*
X78585000Y-74479998D01*
G75*
G02*
X78834998Y-74230000I249998J0D01*
G01*
X79360002Y-74230000D01*
G75*
G02*
X79610000Y-74479998I0J-249998D01*
G01*
G37*
G36*
G01*
X81435000Y-74479998D02*
X81435000Y-75380002D01*
G75*
G02*
X81185002Y-75630000I-249998J0D01*
G01*
X80659998Y-75630000D01*
G75*
G02*
X80410000Y-75380002I0J249998D01*
G01*
X80410000Y-74479998D01*
G75*
G02*
X80659998Y-74230000I249998J0D01*
G01*
X81185002Y-74230000D01*
G75*
G02*
X81435000Y-74479998I0J-249998D01*
G01*
G37*
%TD*%
D22*
%TO.C,U1*%
G36*
X192375248Y-84186137D02*
G01*
X191986339Y-84575046D01*
X190854968Y-83443675D01*
X191243877Y-83054766D01*
X192375248Y-84186137D01*
G37*
G36*
X192940933Y-83620451D02*
G01*
X192552024Y-84009360D01*
X191420653Y-82877989D01*
X191809562Y-82489080D01*
X192940933Y-83620451D01*
G37*
G36*
X193506619Y-83054766D02*
G01*
X193117710Y-83443675D01*
X191986339Y-82312304D01*
X192375248Y-81923395D01*
X193506619Y-83054766D01*
G37*
G36*
X194072304Y-82489081D02*
G01*
X193683395Y-82877990D01*
X192552024Y-81746619D01*
X192940933Y-81357710D01*
X194072304Y-82489081D01*
G37*
G36*
X194637990Y-81923395D02*
G01*
X194249081Y-82312304D01*
X193117710Y-81180933D01*
X193506619Y-80792024D01*
X194637990Y-81923395D01*
G37*
G36*
X195203675Y-81357710D02*
G01*
X194814766Y-81746619D01*
X193683395Y-80615248D01*
X194072304Y-80226339D01*
X195203675Y-81357710D01*
G37*
G36*
X195769360Y-80792024D02*
G01*
X195380451Y-81180933D01*
X194249080Y-80049562D01*
X194637989Y-79660653D01*
X195769360Y-80792024D01*
G37*
G36*
X196335046Y-80226339D02*
G01*
X195946137Y-80615248D01*
X194814766Y-79483877D01*
X195203675Y-79094968D01*
X196335046Y-80226339D01*
G37*
G36*
X195946137Y-77044358D02*
G01*
X196335046Y-77433267D01*
X195203675Y-78564638D01*
X194814766Y-78175729D01*
X195946137Y-77044358D01*
G37*
G36*
X195380451Y-76478673D02*
G01*
X195769360Y-76867582D01*
X194637989Y-77998953D01*
X194249080Y-77610044D01*
X195380451Y-76478673D01*
G37*
G36*
X194814766Y-75912987D02*
G01*
X195203675Y-76301896D01*
X194072304Y-77433267D01*
X193683395Y-77044358D01*
X194814766Y-75912987D01*
G37*
G36*
X194249081Y-75347302D02*
G01*
X194637990Y-75736211D01*
X193506619Y-76867582D01*
X193117710Y-76478673D01*
X194249081Y-75347302D01*
G37*
G36*
X193683395Y-74781616D02*
G01*
X194072304Y-75170525D01*
X192940933Y-76301896D01*
X192552024Y-75912987D01*
X193683395Y-74781616D01*
G37*
G36*
X193117710Y-74215931D02*
G01*
X193506619Y-74604840D01*
X192375248Y-75736211D01*
X191986339Y-75347302D01*
X193117710Y-74215931D01*
G37*
G36*
X192552024Y-73650246D02*
G01*
X192940933Y-74039155D01*
X191809562Y-75170526D01*
X191420653Y-74781617D01*
X192552024Y-73650246D01*
G37*
G36*
X191986339Y-73084560D02*
G01*
X192375248Y-73473469D01*
X191243877Y-74604840D01*
X190854968Y-74215931D01*
X191986339Y-73084560D01*
G37*
G36*
X190324638Y-74215931D02*
G01*
X189935729Y-74604840D01*
X188804358Y-73473469D01*
X189193267Y-73084560D01*
X190324638Y-74215931D01*
G37*
G36*
X189758953Y-74781617D02*
G01*
X189370044Y-75170526D01*
X188238673Y-74039155D01*
X188627582Y-73650246D01*
X189758953Y-74781617D01*
G37*
G36*
X189193267Y-75347302D02*
G01*
X188804358Y-75736211D01*
X187672987Y-74604840D01*
X188061896Y-74215931D01*
X189193267Y-75347302D01*
G37*
G36*
X188627582Y-75912987D02*
G01*
X188238673Y-76301896D01*
X187107302Y-75170525D01*
X187496211Y-74781616D01*
X188627582Y-75912987D01*
G37*
G36*
X188061896Y-76478673D02*
G01*
X187672987Y-76867582D01*
X186541616Y-75736211D01*
X186930525Y-75347302D01*
X188061896Y-76478673D01*
G37*
G36*
X187496211Y-77044358D02*
G01*
X187107302Y-77433267D01*
X185975931Y-76301896D01*
X186364840Y-75912987D01*
X187496211Y-77044358D01*
G37*
G36*
X186930526Y-77610044D02*
G01*
X186541617Y-77998953D01*
X185410246Y-76867582D01*
X185799155Y-76478673D01*
X186930526Y-77610044D01*
G37*
G36*
X186364840Y-78175729D02*
G01*
X185975931Y-78564638D01*
X184844560Y-77433267D01*
X185233469Y-77044358D01*
X186364840Y-78175729D01*
G37*
G36*
X185975931Y-79094968D02*
G01*
X186364840Y-79483877D01*
X185233469Y-80615248D01*
X184844560Y-80226339D01*
X185975931Y-79094968D01*
G37*
G36*
X186541617Y-79660653D02*
G01*
X186930526Y-80049562D01*
X185799155Y-81180933D01*
X185410246Y-80792024D01*
X186541617Y-79660653D01*
G37*
G36*
X187107302Y-80226339D02*
G01*
X187496211Y-80615248D01*
X186364840Y-81746619D01*
X185975931Y-81357710D01*
X187107302Y-80226339D01*
G37*
G36*
X187672987Y-80792024D02*
G01*
X188061896Y-81180933D01*
X186930525Y-82312304D01*
X186541616Y-81923395D01*
X187672987Y-80792024D01*
G37*
G36*
X188238673Y-81357710D02*
G01*
X188627582Y-81746619D01*
X187496211Y-82877990D01*
X187107302Y-82489081D01*
X188238673Y-81357710D01*
G37*
G36*
X188804358Y-81923395D02*
G01*
X189193267Y-82312304D01*
X188061896Y-83443675D01*
X187672987Y-83054766D01*
X188804358Y-81923395D01*
G37*
G36*
X189370044Y-82489080D02*
G01*
X189758953Y-82877989D01*
X188627582Y-84009360D01*
X188238673Y-83620451D01*
X189370044Y-82489080D01*
G37*
G36*
X189935729Y-83054766D02*
G01*
X190324638Y-83443675D01*
X189193267Y-84575046D01*
X188804358Y-84186137D01*
X189935729Y-83054766D01*
G37*
%TD*%
D23*
%TO.C,X1*%
X200445000Y-78062001D03*
X200445000Y-75862001D03*
X202145000Y-75862001D03*
X202145000Y-78062001D03*
%TD*%
D24*
%TO.C,SW2*%
X185435000Y-116840000D03*
X190485000Y-116840000D03*
X185435000Y-119380000D03*
X190485000Y-119380000D03*
%TD*%
D25*
%TO.C,D34*%
X121530000Y-76200000D03*
X117230000Y-76200000D03*
%TD*%
%TO.C,C19*%
G36*
G01*
X79560000Y-82075000D02*
X79560000Y-83025000D01*
G75*
G02*
X79310000Y-83275000I-250000J0D01*
G01*
X78810000Y-83275000D01*
G75*
G02*
X78560000Y-83025000I0J250000D01*
G01*
X78560000Y-82075000D01*
G75*
G02*
X78810000Y-81825000I250000J0D01*
G01*
X79310000Y-81825000D01*
G75*
G02*
X79560000Y-82075000I0J-250000D01*
G01*
G37*
G36*
G01*
X81460000Y-82075000D02*
X81460000Y-83025000D01*
G75*
G02*
X81210000Y-83275000I-250000J0D01*
G01*
X80710000Y-83275000D01*
G75*
G02*
X80460000Y-83025000I0J250000D01*
G01*
X80460000Y-82075000D01*
G75*
G02*
X80710000Y-81825000I250000J0D01*
G01*
X81210000Y-81825000D01*
G75*
G02*
X81460000Y-82075000I0J-250000D01*
G01*
G37*
%TD*%
%TO.C,R9*%
G36*
G01*
X69695000Y-77920002D02*
X69695000Y-77019998D01*
G75*
G02*
X69944998Y-76770000I249998J0D01*
G01*
X70470002Y-76770000D01*
G75*
G02*
X70720000Y-77019998I0J-249998D01*
G01*
X70720000Y-77920002D01*
G75*
G02*
X70470002Y-78170000I-249998J0D01*
G01*
X69944998Y-78170000D01*
G75*
G02*
X69695000Y-77920002I0J249998D01*
G01*
G37*
G36*
G01*
X71520000Y-77920002D02*
X71520000Y-77019998D01*
G75*
G02*
X71769998Y-76770000I249998J0D01*
G01*
X72295002Y-76770000D01*
G75*
G02*
X72545000Y-77019998I0J-249998D01*
G01*
X72545000Y-77920002D01*
G75*
G02*
X72295002Y-78170000I-249998J0D01*
G01*
X71769998Y-78170000D01*
G75*
G02*
X71520000Y-77920002I0J249998D01*
G01*
G37*
%TD*%
%TO.C,R10*%
G36*
G01*
X71520000Y-80460002D02*
X71520000Y-79559998D01*
G75*
G02*
X71769998Y-79310000I249998J0D01*
G01*
X72295002Y-79310000D01*
G75*
G02*
X72545000Y-79559998I0J-249998D01*
G01*
X72545000Y-80460002D01*
G75*
G02*
X72295002Y-80710000I-249998J0D01*
G01*
X71769998Y-80710000D01*
G75*
G02*
X71520000Y-80460002I0J249998D01*
G01*
G37*
G36*
G01*
X69695000Y-80460002D02*
X69695000Y-79559998D01*
G75*
G02*
X69944998Y-79310000I249998J0D01*
G01*
X70470002Y-79310000D01*
G75*
G02*
X70720000Y-79559998I0J-249998D01*
G01*
X70720000Y-80460002D01*
G75*
G02*
X70470002Y-80710000I-249998J0D01*
G01*
X69944998Y-80710000D01*
G75*
G02*
X69695000Y-80460002I0J249998D01*
G01*
G37*
%TD*%
D19*
%TO.C,B20*%
X233045000Y-80010000D03*
%TD*%
%TO.C,C22*%
G36*
G01*
X169385000Y-115750000D02*
X168435000Y-115750000D01*
G75*
G02*
X168185000Y-115500000I0J250000D01*
G01*
X168185000Y-115000000D01*
G75*
G02*
X168435000Y-114750000I250000J0D01*
G01*
X169385000Y-114750000D01*
G75*
G02*
X169635000Y-115000000I0J-250000D01*
G01*
X169635000Y-115500000D01*
G75*
G02*
X169385000Y-115750000I-250000J0D01*
G01*
G37*
G36*
G01*
X169385000Y-113850000D02*
X168435000Y-113850000D01*
G75*
G02*
X168185000Y-113600000I0J250000D01*
G01*
X168185000Y-113100000D01*
G75*
G02*
X168435000Y-112850000I250000J0D01*
G01*
X169385000Y-112850000D01*
G75*
G02*
X169635000Y-113100000I0J-250000D01*
G01*
X169635000Y-113600000D01*
G75*
G02*
X169385000Y-113850000I-250000J0D01*
G01*
G37*
%TD*%
%TO.C,C23*%
G36*
G01*
X181135000Y-89350000D02*
X182085000Y-89350000D01*
G75*
G02*
X182335000Y-89600000I0J-250000D01*
G01*
X182335000Y-90100000D01*
G75*
G02*
X182085000Y-90350000I-250000J0D01*
G01*
X181135000Y-90350000D01*
G75*
G02*
X180885000Y-90100000I0J250000D01*
G01*
X180885000Y-89600000D01*
G75*
G02*
X181135000Y-89350000I250000J0D01*
G01*
G37*
G36*
G01*
X181135000Y-87450000D02*
X182085000Y-87450000D01*
G75*
G02*
X182335000Y-87700000I0J-250000D01*
G01*
X182335000Y-88200000D01*
G75*
G02*
X182085000Y-88450000I-250000J0D01*
G01*
X181135000Y-88450000D01*
G75*
G02*
X180885000Y-88200000I0J250000D01*
G01*
X180885000Y-87700000D01*
G75*
G02*
X181135000Y-87450000I250000J0D01*
G01*
G37*
%TD*%
%TO.C,C24*%
G36*
G01*
X199865000Y-115750000D02*
X198915000Y-115750000D01*
G75*
G02*
X198665000Y-115500000I0J250000D01*
G01*
X198665000Y-115000000D01*
G75*
G02*
X198915000Y-114750000I250000J0D01*
G01*
X199865000Y-114750000D01*
G75*
G02*
X200115000Y-115000000I0J-250000D01*
G01*
X200115000Y-115500000D01*
G75*
G02*
X199865000Y-115750000I-250000J0D01*
G01*
G37*
G36*
G01*
X199865000Y-113850000D02*
X198915000Y-113850000D01*
G75*
G02*
X198665000Y-113600000I0J250000D01*
G01*
X198665000Y-113100000D01*
G75*
G02*
X198915000Y-112850000I250000J0D01*
G01*
X199865000Y-112850000D01*
G75*
G02*
X200115000Y-113100000I0J-250000D01*
G01*
X200115000Y-113600000D01*
G75*
G02*
X199865000Y-113850000I-250000J0D01*
G01*
G37*
%TD*%
%TO.C,C25*%
G36*
G01*
X230345000Y-113850000D02*
X229395000Y-113850000D01*
G75*
G02*
X229145000Y-113600000I0J250000D01*
G01*
X229145000Y-113100000D01*
G75*
G02*
X229395000Y-112850000I250000J0D01*
G01*
X230345000Y-112850000D01*
G75*
G02*
X230595000Y-113100000I0J-250000D01*
G01*
X230595000Y-113600000D01*
G75*
G02*
X230345000Y-113850000I-250000J0D01*
G01*
G37*
G36*
G01*
X230345000Y-115750000D02*
X229395000Y-115750000D01*
G75*
G02*
X229145000Y-115500000I0J250000D01*
G01*
X229145000Y-115000000D01*
G75*
G02*
X229395000Y-114750000I250000J0D01*
G01*
X230345000Y-114750000D01*
G75*
G02*
X230595000Y-115000000I0J-250000D01*
G01*
X230595000Y-115500000D01*
G75*
G02*
X230345000Y-115750000I-250000J0D01*
G01*
G37*
%TD*%
%TO.C,C26*%
G36*
G01*
X227363000Y-87450000D02*
X228313000Y-87450000D01*
G75*
G02*
X228563000Y-87700000I0J-250000D01*
G01*
X228563000Y-88200000D01*
G75*
G02*
X228313000Y-88450000I-250000J0D01*
G01*
X227363000Y-88450000D01*
G75*
G02*
X227113000Y-88200000I0J250000D01*
G01*
X227113000Y-87700000D01*
G75*
G02*
X227363000Y-87450000I250000J0D01*
G01*
G37*
G36*
G01*
X227363000Y-89350000D02*
X228313000Y-89350000D01*
G75*
G02*
X228563000Y-89600000I0J-250000D01*
G01*
X228563000Y-90100000D01*
G75*
G02*
X228313000Y-90350000I-250000J0D01*
G01*
X227363000Y-90350000D01*
G75*
G02*
X227113000Y-90100000I0J250000D01*
G01*
X227113000Y-89600000D01*
G75*
G02*
X227363000Y-89350000I250000J0D01*
G01*
G37*
%TD*%
D17*
%TO.C,D41*%
X156300000Y-96825000D03*
X156300000Y-100025000D03*
X161200000Y-96825000D03*
X161200000Y-100025000D03*
%TD*%
%TO.C,D42*%
X156300000Y-103175000D03*
X156300000Y-106375000D03*
X161200000Y-103175000D03*
X161200000Y-106375000D03*
%TD*%
%TO.C,D43*%
X163920000Y-103175000D03*
X163920000Y-106375000D03*
X168820000Y-103175000D03*
X168820000Y-106375000D03*
%TD*%
%TO.C,D44*%
X168820000Y-100025000D03*
X168820000Y-96825000D03*
X163920000Y-100025000D03*
X163920000Y-96825000D03*
%TD*%
%TO.C,D45*%
X176440000Y-100025000D03*
X176440000Y-96825000D03*
X171540000Y-100025000D03*
X171540000Y-96825000D03*
%TD*%
%TO.C,D48*%
X184060000Y-100025000D03*
X184060000Y-96825000D03*
X179160000Y-100025000D03*
X179160000Y-96825000D03*
%TD*%
%TO.C,D49*%
X191680000Y-100025000D03*
X191680000Y-96825000D03*
X186780000Y-100025000D03*
X186780000Y-96825000D03*
%TD*%
%TO.C,D50*%
X186780000Y-103175000D03*
X186780000Y-106375000D03*
X191680000Y-103175000D03*
X191680000Y-106375000D03*
%TD*%
%TO.C,D51*%
X194400000Y-103175000D03*
X194400000Y-106375000D03*
X199300000Y-103175000D03*
X199300000Y-106375000D03*
%TD*%
%TO.C,D52*%
X199300000Y-100025000D03*
X199300000Y-96825000D03*
X194400000Y-100025000D03*
X194400000Y-96825000D03*
%TD*%
%TO.C,D60*%
X224880000Y-96825000D03*
X224880000Y-100025000D03*
X229780000Y-96825000D03*
X229780000Y-100025000D03*
%TD*%
%TO.C,D61*%
X237400000Y-100025000D03*
X237400000Y-96825000D03*
X232500000Y-100025000D03*
X232500000Y-96825000D03*
%TD*%
%TO.C,D62*%
X232500000Y-103175000D03*
X232500000Y-106375000D03*
X237400000Y-103175000D03*
X237400000Y-106375000D03*
%TD*%
%TO.C,D63*%
X240120000Y-103175000D03*
X240120000Y-106375000D03*
X245020000Y-103175000D03*
X245020000Y-106375000D03*
%TD*%
%TO.C,D67*%
X255360000Y-103175000D03*
X255360000Y-106375000D03*
X260260000Y-103175000D03*
X260260000Y-106375000D03*
%TD*%
%TO.C,D68*%
X255360000Y-96825000D03*
X255360000Y-100025000D03*
X260260000Y-96825000D03*
X260260000Y-100025000D03*
%TD*%
D26*
%TO.C,P6*%
X154305000Y-79360000D03*
X154305000Y-74310000D03*
X156845000Y-79360000D03*
X156845000Y-74310000D03*
X159385000Y-79360000D03*
X159385000Y-74310000D03*
X161925000Y-79360000D03*
X161925000Y-74310000D03*
%TD*%
%TO.C,R11*%
G36*
G01*
X69695000Y-75380002D02*
X69695000Y-74479998D01*
G75*
G02*
X69944998Y-74230000I249998J0D01*
G01*
X70470002Y-74230000D01*
G75*
G02*
X70720000Y-74479998I0J-249998D01*
G01*
X70720000Y-75380002D01*
G75*
G02*
X70470002Y-75630000I-249998J0D01*
G01*
X69944998Y-75630000D01*
G75*
G02*
X69695000Y-75380002I0J249998D01*
G01*
G37*
G36*
G01*
X71520000Y-75380002D02*
X71520000Y-74479998D01*
G75*
G02*
X71769998Y-74230000I249998J0D01*
G01*
X72295002Y-74230000D01*
G75*
G02*
X72545000Y-74479998I0J-249998D01*
G01*
X72545000Y-75380002D01*
G75*
G02*
X72295002Y-75630000I-249998J0D01*
G01*
X71769998Y-75630000D01*
G75*
G02*
X71520000Y-75380002I0J249998D01*
G01*
G37*
%TD*%
D27*
%TO.C,SW1*%
X176695000Y-73950000D03*
X176695000Y-78450000D03*
X168745000Y-78450000D03*
X168745000Y-73950000D03*
%TD*%
D17*
%TO.C,D1*%
X19140000Y-96825000D03*
X19140000Y-100025000D03*
X24040000Y-96825000D03*
X24040000Y-100025000D03*
%TD*%
%TO.C,C12*%
G36*
G01*
X62705000Y-113850000D02*
X61755000Y-113850000D01*
G75*
G02*
X61505000Y-113600000I0J250000D01*
G01*
X61505000Y-113100000D01*
G75*
G02*
X61755000Y-112850000I250000J0D01*
G01*
X62705000Y-112850000D01*
G75*
G02*
X62955000Y-113100000I0J-250000D01*
G01*
X62955000Y-113600000D01*
G75*
G02*
X62705000Y-113850000I-250000J0D01*
G01*
G37*
G36*
G01*
X62705000Y-115750000D02*
X61755000Y-115750000D01*
G75*
G02*
X61505000Y-115500000I0J250000D01*
G01*
X61505000Y-115000000D01*
G75*
G02*
X61755000Y-114750000I250000J0D01*
G01*
X62705000Y-114750000D01*
G75*
G02*
X62955000Y-115000000I0J-250000D01*
G01*
X62955000Y-115500000D01*
G75*
G02*
X62705000Y-115750000I-250000J0D01*
G01*
G37*
%TD*%
%TO.C,C13*%
G36*
G01*
X74455000Y-87450000D02*
X75405000Y-87450000D01*
G75*
G02*
X75655000Y-87700000I0J-250000D01*
G01*
X75655000Y-88200000D01*
G75*
G02*
X75405000Y-88450000I-250000J0D01*
G01*
X74455000Y-88450000D01*
G75*
G02*
X74205000Y-88200000I0J250000D01*
G01*
X74205000Y-87700000D01*
G75*
G02*
X74455000Y-87450000I250000J0D01*
G01*
G37*
G36*
G01*
X74455000Y-89350000D02*
X75405000Y-89350000D01*
G75*
G02*
X75655000Y-89600000I0J-250000D01*
G01*
X75655000Y-90100000D01*
G75*
G02*
X75405000Y-90350000I-250000J0D01*
G01*
X74455000Y-90350000D01*
G75*
G02*
X74205000Y-90100000I0J250000D01*
G01*
X74205000Y-89600000D01*
G75*
G02*
X74455000Y-89350000I250000J0D01*
G01*
G37*
%TD*%
%TO.C,C14*%
G36*
G01*
X93185000Y-113850000D02*
X92235000Y-113850000D01*
G75*
G02*
X91985000Y-113600000I0J250000D01*
G01*
X91985000Y-113100000D01*
G75*
G02*
X92235000Y-112850000I250000J0D01*
G01*
X93185000Y-112850000D01*
G75*
G02*
X93435000Y-113100000I0J-250000D01*
G01*
X93435000Y-113600000D01*
G75*
G02*
X93185000Y-113850000I-250000J0D01*
G01*
G37*
G36*
G01*
X93185000Y-115750000D02*
X92235000Y-115750000D01*
G75*
G02*
X91985000Y-115500000I0J250000D01*
G01*
X91985000Y-115000000D01*
G75*
G02*
X92235000Y-114750000I250000J0D01*
G01*
X93185000Y-114750000D01*
G75*
G02*
X93435000Y-115000000I0J-250000D01*
G01*
X93435000Y-115500000D01*
G75*
G02*
X93185000Y-115750000I-250000J0D01*
G01*
G37*
%TD*%
%TO.C,C15*%
G36*
G01*
X104935000Y-87450000D02*
X105885000Y-87450000D01*
G75*
G02*
X106135000Y-87700000I0J-250000D01*
G01*
X106135000Y-88200000D01*
G75*
G02*
X105885000Y-88450000I-250000J0D01*
G01*
X104935000Y-88450000D01*
G75*
G02*
X104685000Y-88200000I0J250000D01*
G01*
X104685000Y-87700000D01*
G75*
G02*
X104935000Y-87450000I250000J0D01*
G01*
G37*
G36*
G01*
X104935000Y-89350000D02*
X105885000Y-89350000D01*
G75*
G02*
X106135000Y-89600000I0J-250000D01*
G01*
X106135000Y-90100000D01*
G75*
G02*
X105885000Y-90350000I-250000J0D01*
G01*
X104935000Y-90350000D01*
G75*
G02*
X104685000Y-90100000I0J250000D01*
G01*
X104685000Y-89600000D01*
G75*
G02*
X104935000Y-89350000I250000J0D01*
G01*
G37*
%TD*%
%TO.C,C16*%
G36*
G01*
X108425000Y-113850000D02*
X107475000Y-113850000D01*
G75*
G02*
X107225000Y-113600000I0J250000D01*
G01*
X107225000Y-113100000D01*
G75*
G02*
X107475000Y-112850000I250000J0D01*
G01*
X108425000Y-112850000D01*
G75*
G02*
X108675000Y-113100000I0J-250000D01*
G01*
X108675000Y-113600000D01*
G75*
G02*
X108425000Y-113850000I-250000J0D01*
G01*
G37*
G36*
G01*
X108425000Y-115750000D02*
X107475000Y-115750000D01*
G75*
G02*
X107225000Y-115500000I0J250000D01*
G01*
X107225000Y-115000000D01*
G75*
G02*
X107475000Y-114750000I250000J0D01*
G01*
X108425000Y-114750000D01*
G75*
G02*
X108675000Y-115000000I0J-250000D01*
G01*
X108675000Y-115500000D01*
G75*
G02*
X108425000Y-115750000I-250000J0D01*
G01*
G37*
%TD*%
%TO.C,C21*%
G36*
G01*
X150655000Y-87450000D02*
X151605000Y-87450000D01*
G75*
G02*
X151855000Y-87700000I0J-250000D01*
G01*
X151855000Y-88200000D01*
G75*
G02*
X151605000Y-88450000I-250000J0D01*
G01*
X150655000Y-88450000D01*
G75*
G02*
X150405000Y-88200000I0J250000D01*
G01*
X150405000Y-87700000D01*
G75*
G02*
X150655000Y-87450000I250000J0D01*
G01*
G37*
G36*
G01*
X150655000Y-89350000D02*
X151605000Y-89350000D01*
G75*
G02*
X151855000Y-89600000I0J-250000D01*
G01*
X151855000Y-90100000D01*
G75*
G02*
X151605000Y-90350000I-250000J0D01*
G01*
X150655000Y-90350000D01*
G75*
G02*
X150405000Y-90100000I0J250000D01*
G01*
X150405000Y-89600000D01*
G75*
G02*
X150655000Y-89350000I250000J0D01*
G01*
G37*
%TD*%
%TO.C,D5*%
X39280000Y-100025000D03*
X39280000Y-96825000D03*
X34380000Y-100025000D03*
X34380000Y-96825000D03*
%TD*%
%TO.C,D6*%
X34380000Y-103175000D03*
X34380000Y-106375000D03*
X39280000Y-103175000D03*
X39280000Y-106375000D03*
%TD*%
%TO.C,D7*%
X42000000Y-103175000D03*
X42000000Y-106375000D03*
X46900000Y-103175000D03*
X46900000Y-106375000D03*
%TD*%
%TO.C,D8*%
X46900000Y-100025000D03*
X46900000Y-96825000D03*
X42000000Y-100025000D03*
X42000000Y-96825000D03*
%TD*%
%TO.C,D9*%
X54520000Y-100025000D03*
X54520000Y-96825000D03*
X49620000Y-100025000D03*
X49620000Y-96825000D03*
%TD*%
%TO.C,D12*%
X62140000Y-100025000D03*
X62140000Y-96825000D03*
X57240000Y-100025000D03*
X57240000Y-96825000D03*
%TD*%
%TO.C,D13*%
X69760000Y-100025000D03*
X69760000Y-96825000D03*
X64860000Y-100025000D03*
X64860000Y-96825000D03*
%TD*%
%TO.C,D14*%
X64860000Y-103175000D03*
X64860000Y-106375000D03*
X69760000Y-103175000D03*
X69760000Y-106375000D03*
%TD*%
%TO.C,D15*%
X77380000Y-106375000D03*
X77380000Y-103175000D03*
X72480000Y-106375000D03*
X72480000Y-103175000D03*
%TD*%
%TO.C,D16*%
X72480000Y-96825000D03*
X72480000Y-100025000D03*
X77380000Y-96825000D03*
X77380000Y-100025000D03*
%TD*%
%TO.C,D24*%
X107860000Y-100025000D03*
X107860000Y-96825000D03*
X102960000Y-100025000D03*
X102960000Y-96825000D03*
%TD*%
%TO.C,D25*%
X115480000Y-100025000D03*
X115480000Y-96825000D03*
X110580000Y-100025000D03*
X110580000Y-96825000D03*
%TD*%
%TO.C,D26*%
X110580000Y-103175000D03*
X110580000Y-106375000D03*
X115480000Y-103175000D03*
X115480000Y-106375000D03*
%TD*%
%TO.C,D27*%
X118200000Y-103175000D03*
X118200000Y-106375000D03*
X123100000Y-103175000D03*
X123100000Y-106375000D03*
%TD*%
%TO.C,D31*%
X138340000Y-106375000D03*
X138340000Y-103175000D03*
X133440000Y-106375000D03*
X133440000Y-103175000D03*
%TD*%
%TO.C,D32*%
X133440000Y-96825000D03*
X133440000Y-100025000D03*
X138340000Y-96825000D03*
X138340000Y-100025000D03*
%TD*%
%TO.C,D37*%
X141060000Y-96825000D03*
X141060000Y-100025000D03*
X145960000Y-96825000D03*
X145960000Y-100025000D03*
%TD*%
%TO.C,D38*%
X145960000Y-106375000D03*
X145960000Y-103175000D03*
X141060000Y-106375000D03*
X141060000Y-103175000D03*
%TD*%
%TO.C,D39*%
X148680000Y-103175000D03*
X148680000Y-106375000D03*
X153580000Y-103175000D03*
X153580000Y-106375000D03*
%TD*%
%TO.C,D40*%
X148680000Y-96825000D03*
X148680000Y-100025000D03*
X153580000Y-96825000D03*
X153580000Y-100025000D03*
%TD*%
%TO.C,D46*%
X171540000Y-103175000D03*
X171540000Y-106375000D03*
X176440000Y-103175000D03*
X176440000Y-106375000D03*
%TD*%
%TO.C,D47*%
X184060000Y-106375000D03*
X184060000Y-103175000D03*
X179160000Y-106375000D03*
X179160000Y-103175000D03*
%TD*%
%TO.C,D53*%
X202020000Y-96825000D03*
X202020000Y-100025000D03*
X206920000Y-96825000D03*
X206920000Y-100025000D03*
%TD*%
%TO.C,D54*%
X206920000Y-106375000D03*
X206920000Y-103175000D03*
X202020000Y-106375000D03*
X202020000Y-103175000D03*
%TD*%
%TO.C,D55*%
X214540000Y-106375000D03*
X214540000Y-103175000D03*
X209640000Y-106375000D03*
X209640000Y-103175000D03*
%TD*%
%TO.C,D56*%
X209640000Y-96825000D03*
X209640000Y-100025000D03*
X214540000Y-96825000D03*
X214540000Y-100025000D03*
%TD*%
%TO.C,D57*%
X217260000Y-96825000D03*
X217260000Y-100025000D03*
X222160000Y-96825000D03*
X222160000Y-100025000D03*
%TD*%
%TO.C,D58*%
X222160000Y-106375000D03*
X222160000Y-103175000D03*
X217260000Y-106375000D03*
X217260000Y-103175000D03*
%TD*%
%TO.C,D59*%
X229780000Y-106375000D03*
X229780000Y-103175000D03*
X224880000Y-106375000D03*
X224880000Y-103175000D03*
%TD*%
%TO.C,D64*%
X240120000Y-96825000D03*
X240120000Y-100025000D03*
X245020000Y-96825000D03*
X245020000Y-100025000D03*
%TD*%
%TO.C,D65*%
X247740000Y-96825000D03*
X247740000Y-100025000D03*
X252640000Y-96825000D03*
X252640000Y-100025000D03*
%TD*%
D20*
%TO.C,P4*%
X226949000Y-74930000D03*
X226949000Y-80010000D03*
X230251000Y-77470000D03*
X230251000Y-82550000D03*
X230251000Y-74930000D03*
X226949000Y-77470000D03*
X230251000Y-80010000D03*
X226949000Y-82550000D03*
%TD*%
D17*
%TO.C,D66*%
X252640000Y-106375000D03*
X252640000Y-103175000D03*
X247740000Y-106375000D03*
X247740000Y-103175000D03*
%TD*%
%TO.C,C1*%
G36*
G01*
X205420000Y-87545000D02*
X205420000Y-86445000D01*
G75*
G02*
X205670000Y-86195000I250000J0D01*
G01*
X208670000Y-86195000D01*
G75*
G02*
X208920000Y-86445000I0J-250000D01*
G01*
X208920000Y-87545000D01*
G75*
G02*
X208670000Y-87795000I-250000J0D01*
G01*
X205670000Y-87795000D01*
G75*
G02*
X205420000Y-87545000I0J250000D01*
G01*
G37*
G36*
G01*
X200020000Y-87545000D02*
X200020000Y-86445000D01*
G75*
G02*
X200270000Y-86195000I250000J0D01*
G01*
X203270000Y-86195000D01*
G75*
G02*
X203520000Y-86445000I0J-250000D01*
G01*
X203520000Y-87545000D01*
G75*
G02*
X203270000Y-87795000I-250000J0D01*
G01*
X200270000Y-87795000D01*
G75*
G02*
X200020000Y-87545000I0J250000D01*
G01*
G37*
%TD*%
%TO.C,C7*%
G36*
G01*
X100245000Y-71440000D02*
X99145000Y-71440000D01*
G75*
G02*
X98895000Y-71190000I0J250000D01*
G01*
X98895000Y-68190000D01*
G75*
G02*
X99145000Y-67940000I250000J0D01*
G01*
X100245000Y-67940000D01*
G75*
G02*
X100495000Y-68190000I0J-250000D01*
G01*
X100495000Y-71190000D01*
G75*
G02*
X100245000Y-71440000I-250000J0D01*
G01*
G37*
G36*
G01*
X100245000Y-76840000D02*
X99145000Y-76840000D01*
G75*
G02*
X98895000Y-76590000I0J250000D01*
G01*
X98895000Y-73590000D01*
G75*
G02*
X99145000Y-73340000I250000J0D01*
G01*
X100245000Y-73340000D01*
G75*
G02*
X100495000Y-73590000I0J-250000D01*
G01*
X100495000Y-76590000D01*
G75*
G02*
X100245000Y-76840000I-250000J0D01*
G01*
G37*
%TD*%
%TO.C,C27*%
G36*
G01*
X61510000Y-76840000D02*
X60410000Y-76840000D01*
G75*
G02*
X60160000Y-76590000I0J250000D01*
G01*
X60160000Y-73590000D01*
G75*
G02*
X60410000Y-73340000I250000J0D01*
G01*
X61510000Y-73340000D01*
G75*
G02*
X61760000Y-73590000I0J-250000D01*
G01*
X61760000Y-76590000D01*
G75*
G02*
X61510000Y-76840000I-250000J0D01*
G01*
G37*
G36*
G01*
X61510000Y-71440000D02*
X60410000Y-71440000D01*
G75*
G02*
X60160000Y-71190000I0J250000D01*
G01*
X60160000Y-68190000D01*
G75*
G02*
X60410000Y-67940000I250000J0D01*
G01*
X61510000Y-67940000D01*
G75*
G02*
X61760000Y-68190000I0J-250000D01*
G01*
X61760000Y-71190000D01*
G75*
G02*
X61510000Y-71440000I-250000J0D01*
G01*
G37*
%TD*%
D19*
%TO.C,B21*%
X152273000Y-113030000D03*
%TD*%
M02*
